<svg width="68" height="68" viewBox="0 0 68 68" fill="none" xmlns="http://www.w3.org/2000/svg">
<path d="M33.5971 67.9341C52.0794 67.9341 67.0623 52.9141 67.0623 34.386C67.0623 15.8579 52.0794 0.837891 33.5971 0.837891C15.1147 0.837891 0.131836 15.8579 0.131836 34.386C0.131836 52.9141 15.1147 67.9341 33.5971 67.9341Z" fill="#003D63"/>
<path d="M23.4876 39.8407H25.0179V48.6888H27.769V37.3772H23.4877L23.4876 39.8407ZM25.9764 20.0827C25.3386 20.0293 24.6979 20.1426 24.1167 20.4115C23.5356 20.6803 23.0339 21.0956 22.6605 21.6167C21.9853 22.9185 21.6328 24.3642 21.6328 25.8314C21.6328 27.2987 21.9853 28.7444 22.6605 30.0462C23.0696 30.5271 23.5778 30.9134 24.1503 31.1783C24.7227 31.4431 25.3457 31.5802 25.9761 31.5802C26.6066 31.5802 27.2295 31.4431 27.802 31.1783C28.3744 30.9134 28.8827 30.5271 29.2917 30.0462C29.9673 28.7445 30.3201 27.2988 30.3201 25.8314C30.3201 24.3641 29.9673 22.9184 29.2917 21.6167C28.9185 21.0956 28.4169 20.6803 27.8358 20.4115C27.2548 20.1426 26.6142 20.0293 25.9764 20.0827ZM27.5992 27.5594C27.5389 27.9708 27.365 28.3572 27.0972 28.6748C26.7882 28.9494 26.3894 29.101 25.9764 29.101C25.5634 29.101 25.1647 28.9494 24.8556 28.6748C24.5874 28.3574 24.4133 27.971 24.3531 27.5594C24.262 26.9829 24.2208 26.3996 24.2298 25.816C24.1952 24.9987 24.3103 24.1819 24.5694 23.4061C24.7058 23.151 24.9087 22.9378 25.1564 22.7891C25.4041 22.6404 25.6874 22.5619 25.9761 22.5619C26.2648 22.5619 26.5482 22.6404 26.7959 22.7891C27.0436 22.9378 27.2464 23.151 27.3828 23.4061C27.6422 24.1818 27.7575 24.9986 27.7231 25.816C27.7319 26.3996 27.6905 26.9829 27.5992 27.5594ZM33.736 31.6269H36.487V20.3153H32.2057V22.7788H33.736L33.736 31.6269ZM46.7272 21.6167C46.3182 21.1358 45.8099 20.7496 45.2374 20.4847C44.665 20.2199 44.0421 20.0827 43.4116 20.0827C42.7811 20.0827 42.1582 20.2199 41.5858 20.4847C41.0133 20.7496 40.5051 21.1358 40.096 21.6167C39.4208 22.9185 39.0683 24.3642 39.0683 25.8314C39.0683 27.2987 39.4208 28.7444 40.096 30.0462C40.5051 30.5271 41.0133 30.9133 41.5858 31.1782C42.1582 31.443 42.7811 31.5802 43.4116 31.5802C44.0421 31.5802 44.665 31.443 45.2374 31.1782C45.8099 30.9133 46.3182 30.5271 46.7272 30.0462C47.4028 28.7445 47.7556 27.2988 47.7556 25.8314C47.7556 24.3641 47.4028 22.9184 46.7272 21.6167ZM45.0346 27.5594C44.9744 27.9708 44.8005 28.3572 44.5327 28.6748C44.2236 28.9494 43.8249 29.101 43.4119 29.101C42.9989 29.101 42.6002 28.9494 42.2911 28.6748C42.0229 28.3574 41.8488 27.971 41.7886 27.5594C41.6975 26.9829 41.6563 26.3996 41.6653 25.816C41.6307 24.9987 41.7458 24.1819 42.0049 23.4061C42.1413 23.151 42.3442 22.9378 42.5919 22.7891C42.8396 22.6404 43.1229 22.5619 43.4116 22.5619C43.7003 22.5619 43.9837 22.6404 44.2314 22.7891C44.4791 22.9378 44.6819 23.151 44.8183 23.4061C45.0777 24.1818 45.193 24.9986 45.1586 25.816C45.1674 26.3996 45.126 26.9829 45.0346 27.5594ZM40.9231 39.8407H42.4534V48.6888H45.2045V37.3772H40.9231V39.8407ZM34.6939 37.1446C34.056 37.0912 33.4153 37.2045 32.8342 37.4734C32.253 37.7422 31.7513 38.1575 31.378 38.6786C30.7027 39.9804 30.3502 41.4261 30.3502 42.8933C30.3502 44.3606 30.7027 45.8063 31.378 47.1081C31.787 47.589 32.2953 47.9753 32.8677 48.2402C33.4401 48.505 34.0631 48.6421 34.6935 48.6421C35.324 48.6421 35.947 48.505 36.5194 48.2402C37.0918 47.9753 37.6001 47.589 38.0091 47.1081C38.6847 45.8064 39.0375 44.3607 39.0375 42.8933C39.0375 41.426 38.6847 39.9803 38.0091 38.6786C37.6359 38.1575 37.1343 37.7422 36.5533 37.4734C35.9722 37.2045 35.3316 37.0912 34.6939 37.1446ZM36.3166 44.6213C36.2563 45.0327 36.0825 45.4191 35.8147 45.7367C35.5056 46.0113 35.1069 46.1629 34.6939 46.1629C34.2809 46.1629 33.8821 46.0113 33.573 45.7367C33.3048 45.4193 33.1307 45.0329 33.0705 44.6213C32.9794 44.0448 32.9382 43.4615 32.9472 42.8779C32.9126 42.0606 33.0277 41.2438 33.2869 40.468C33.4232 40.2129 33.6261 39.9997 33.8738 39.851C34.1215 39.7023 34.4048 39.6238 34.6935 39.6238C34.9823 39.6238 35.2656 39.7023 35.5133 39.851C35.761 39.9997 35.9639 40.2129 36.1002 40.468C36.3596 41.2437 36.4749 42.0605 36.4405 42.8779C36.4494 43.4615 36.4079 44.0448 36.3166 44.6213Z" fill="white"/>
</svg>
