<svg width="47" height="47" viewBox="0 0 47 47" fill="none" xmlns="http://www.w3.org/2000/svg">
<path d="M23.1187 46.9016C35.8253 46.9016 46.126 36.5753 46.126 23.8373C46.126 11.0992 35.8253 0.772949 23.1187 0.772949C10.4121 0.772949 0.111328 11.0992 0.111328 23.8373C0.111328 36.5753 10.4121 46.9016 23.1187 46.9016Z" fill="#9092FA"/>
<path d="M14.5146 39.4736L16.1881 34.6875C16.3832 34.2681 16.744 34.8904 17.4184 35.2056C18.0883 35.5188 18.8024 35.3991 18.6073 35.8185L16.1544 40.1016C15.7009 41.0766 14.2987 39.9377 14.5146 39.4736Z" fill="white"/>
<path d="M19.4972 23.6773C16.8749 20.6181 18.2463 18.3745 18.2463 18.3745C17.4387 19.0156 14.9343 26.7296 18.3996 28.3495C19.9476 29.0758 22.4492 27.1054 19.4972 23.6773Z" fill="white"/>
<path d="M21.8955 18.5211C19.2711 15.4663 20.6425 13.2227 20.6425 13.2227C19.836 13.8615 17.3305 21.5778 20.7958 23.1977C22.3448 23.9218 24.8454 21.9536 21.8955 18.5211Z" fill="white"/>
<path d="M24.2222 13.519C21.5947 10.4708 22.9693 8.2207 22.9693 8.2207C22.1617 8.86178 19.6583 16.5736 23.1235 18.1935C24.6726 18.9176 27.1701 16.9559 24.2222 13.519Z" fill="white"/>
<path d="M22.1216 30.092C25.5846 31.7109 29.8673 24.828 29.8426 23.7979C29.8426 23.7979 29.0097 26.2932 24.982 26.2438C20.4704 26.1801 20.5682 29.3658 22.1216 30.092Z" fill="white"/>
<path d="M17.0392 28.9606C14.4169 25.9013 15.7884 23.6577 15.7884 23.6577C14.9808 24.2988 12.4763 32.0128 15.9415 33.6327C17.4906 34.3568 19.9912 32.3886 17.0392 28.9606Z" fill="white"/>
<path d="M19.6649 35.3733C23.1279 36.9921 27.4106 30.1093 27.3859 29.0791C27.3859 29.0791 26.553 31.5744 22.5252 31.525C18.0126 31.4636 18.1114 34.6471 19.6649 35.3733Z" fill="white"/>
<path d="M24.5192 24.9382C27.9823 26.557 32.266 19.672 32.2402 18.644C32.2402 18.644 31.4074 21.1394 27.3817 21.0856C22.8669 21.0286 22.9658 24.212 24.5192 24.9382Z" fill="white"/>
<path d="M26.8462 19.9341C30.3093 21.5529 34.5909 14.6723 34.5661 13.6421C34.5661 13.6421 33.7312 16.1419 29.7087 16.0814C25.1909 16.0311 25.2928 19.2079 26.8462 19.9341Z" fill="white"/>
<path d="M27.0276 15.3056C30.702 17.0233 30.4781 7.35742 30.4781 7.35742C29.6672 7.87744 23.3531 13.5879 27.0276 15.3056Z" fill="white"/>
</svg>
