<svg width="243" height="244" viewBox="0 0 243 244" fill="none" xmlns="http://www.w3.org/2000/svg">
<path d="M121.311 243.224C188.31 243.224 242.623 188.776 242.623 121.612C242.623 54.4475 188.31 0 121.311 0C54.313 0 0 54.4475 0 121.612C0 188.776 54.313 243.224 121.311 243.224Z" fill="#F36D20"/>
<path fill-rule="evenodd" clip-rule="evenodd" d="M121.311 91.6164C99.1256 69.1515 72.0078 80.0089 72.0078 109.09C72.0078 126.499 91.8248 144.91 106.331 156.055C112.899 161.101 116.182 163.623 121.311 163.623C126.44 163.623 129.724 161.101 136.291 156.055C150.797 144.91 170.614 126.498 170.614 109.09C170.614 80.0089 143.497 69.1515 121.311 91.6164ZM135.398 124.844H125.654V134.611C125.654 135.766 125.197 136.874 124.382 137.69C123.568 138.507 122.463 138.966 121.311 138.966C120.159 138.966 119.054 138.507 118.24 137.69C117.425 136.874 116.968 135.766 116.968 134.611V124.844H107.224C106.073 124.844 104.968 124.385 104.153 123.569C103.339 122.752 102.881 121.645 102.881 120.49C102.881 119.335 103.339 118.228 104.153 117.411C104.968 116.595 106.073 116.136 107.224 116.136H116.968V106.368C116.969 105.215 117.427 104.108 118.242 103.293C119.056 102.478 120.16 102.02 121.311 102.02C122.462 102.02 123.566 102.478 124.38 103.293C125.195 104.108 125.653 105.215 125.654 106.368V116.136H135.398C136.55 116.136 137.654 116.595 138.469 117.411C139.283 118.228 139.741 119.335 139.741 120.49C139.741 121.645 139.283 122.752 138.469 123.569C137.654 124.385 136.55 124.844 135.398 124.844Z" fill="white"/>
</svg>
