<svg width="143" height="144" viewBox="0 0 143 144" fill="none" xmlns="http://www.w3.org/2000/svg">
<path d="M71.7132 143.224C110.988 143.224 142.827 111.306 142.827 71.9342C142.827 32.562 110.988 0.644531 71.7132 0.644531C32.4382 0.644531 0.599609 32.562 0.599609 71.9342C0.599609 111.306 32.4382 143.224 71.7132 143.224Z" fill="#7DC0F1"/>
<path d="M49.7021 96.0452L50.3046 94.5363C55.7986 80.7412 62.0253 65.1049 85.4957 59.8766L85.4259 59.2385C85.151 59.2385 58.0277 59.5267 48.9593 84.3913C46.4937 81.7035 44.9663 78.2853 44.6074 74.6516C44.6087 69.1673 50.1643 57.7499 63.548 55.0664C67.4394 54.2864 71.8202 53.666 76.0575 53.0664C84.4782 51.8737 92.5412 50.7316 96.7554 48.4169C96.9056 48.3372 97.0757 48.3029 97.245 48.3179C97.4142 48.3329 97.5756 48.3968 97.7095 48.5017C97.8435 48.6066 97.9442 48.7481 97.9998 48.9092C98.0553 49.0702 98.0631 49.2438 98.0224 49.4092C96.3822 56.1933 94.014 62.7795 90.9595 69.0526C85.6831 79.6264 76.1575 92.2311 60.7422 92.2311C59.5692 92.134 58.4168 91.8638 57.3225 91.4291L57.0332 91.3144L54.2859 97.6492L49.7021 96.0452Z" fill="white"/>
</svg>
