<svg width="47" height="47" viewBox="0 0 47 47" fill="none" xmlns="http://www.w3.org/2000/svg">
<path d="M23.0073 46.821C35.7139 46.821 46.0147 36.4948 46.0147 23.7567C46.0147 11.0186 35.7139 0.692383 23.0073 0.692383C10.3007 0.692383 0 11.0186 0 23.7567C0 36.4948 10.3007 46.821 23.0073 46.821Z" fill="#5759BB"/>
<path d="M23.0077 32.8904C21.1823 32.8904 19.4317 32.1636 18.1409 30.8696C16.8502 29.5757 16.125 27.8207 16.125 25.9908C16.125 21.391 23.0077 13.5713 23.0077 13.5713C23.0077 13.5713 29.8903 21.391 29.8903 25.9908C29.8903 27.8207 29.1652 29.5757 27.8744 30.8696C26.5837 32.1636 24.8331 32.8904 23.0077 32.8904Z" fill="white"/>
</svg>
