<svg width="40" height="40" viewBox="0 0 40 40" fill="none" xmlns="http://www.w3.org/2000/svg">
<g clip-path="url(#clip0_644_1775)">
<path d="M39.7415 38.4936L34.5079 33.2591C35.5343 31.934 36.0432 30.2806 35.94 28.6076C35.8367 26.9347 35.1284 25.3565 33.9469 24.1675L18.862 9.08264L19.4709 8.47375C19.5528 8.39183 19.6178 8.29458 19.6622 8.18753C19.7065 8.08048 19.7294 7.9657 19.7294 7.84983C19.7294 7.73395 19.7065 7.61922 19.6622 7.51217C19.6178 7.40512 19.5528 7.30787 19.4709 7.22596L12.5026 0.258532C12.4207 0.176574 12.3233 0.111575 12.2163 0.0672182C12.1092 0.022861 11.9945 0 11.8787 0C11.7628 0 11.6481 0.022861 11.5411 0.0672182C11.434 0.111575 11.3367 0.176574 11.2547 0.258532L0.258532 11.2557C0.176579 11.3376 0.111573 11.4349 0.0672182 11.5419C0.0228636 11.649 0 11.7637 0 11.8796C0 11.9955 0.0228636 12.1102 0.0672182 12.2172C0.111573 12.3243 0.176579 12.4216 0.258532 12.5035L7.2251 19.4709C7.30702 19.5529 7.40437 19.6179 7.51142 19.6622C7.61847 19.7066 7.73314 19.7294 7.84902 19.7294C7.96489 19.7294 8.07957 19.7066 8.18662 19.6622C8.29367 19.6179 8.39102 19.5529 8.47294 19.4709L9.08264 18.8612L24.1675 33.9461C25.3513 35.1372 26.9311 35.8523 28.6072 35.9557C30.2832 36.0591 31.9389 35.5436 33.2601 34.507L38.4936 39.7415C38.5753 39.8248 38.6725 39.8911 38.7799 39.9366C38.8874 39.982 39.0027 40.0057 39.1193 40.0063C39.2359 40.0068 39.3516 39.9843 39.4595 39.9399C39.5673 39.8956 39.6653 39.8303 39.7477 39.7478C39.8302 39.6654 39.8955 39.5674 39.9399 39.4595C39.9843 39.3517 40.0068 39.2361 40.0063 39.1194C40.0057 39.0028 39.9819 38.8875 39.9364 38.7801C39.891 38.6727 39.8248 38.5753 39.7415 38.4936ZM7.84902 17.5991L2.1303 11.8795L11.8787 2.1303L17.5991 7.84988L7.84902 17.5991ZM32.6991 32.6982C31.7324 33.6626 30.4227 34.2042 29.0572 34.2042C27.6917 34.2042 26.3818 33.6626 25.4152 32.6982L10.3307 17.6138L17.6146 10.3309L20.6446 13.3607L18.8039 15.1999C18.7206 15.2816 18.6541 15.3789 18.6087 15.4863C18.5632 15.5937 18.5397 15.7091 18.5391 15.8257C18.5385 15.9423 18.5609 16.0579 18.6052 16.1658C18.6496 16.2736 18.7149 16.3716 18.7974 16.4541C18.8799 16.5365 18.9778 16.6018 19.0857 16.6462C19.1935 16.6906 19.3092 16.7131 19.4258 16.7125C19.5425 16.7119 19.6578 16.6882 19.7652 16.6428C19.8726 16.5973 19.9699 16.531 20.0515 16.4477L21.8925 14.6085L25.3258 18.0419L23.4848 19.8819C23.4015 19.9635 23.3353 20.0609 23.2898 20.1683C23.2444 20.2757 23.2206 20.391 23.22 20.5076C23.2194 20.6243 23.242 20.7399 23.2864 20.8477C23.3307 20.9556 23.3961 21.0536 23.4785 21.136C23.561 21.2185 23.6589 21.2838 23.7668 21.3282C23.8747 21.3725 23.9904 21.395 24.107 21.3945C24.2236 21.3939 24.3389 21.3702 24.4463 21.3247C24.5537 21.2793 24.651 21.213 24.7326 21.1297L26.5734 19.2897L30.0067 22.723L28.1659 24.563C28.0826 24.6446 28.0164 24.7419 27.971 24.8494C27.9255 24.9568 27.9017 25.0721 27.9012 25.1887C27.9006 25.3054 27.9232 25.4209 27.9675 25.5288C28.0119 25.6366 28.0772 25.7347 28.1597 25.8171C28.2422 25.8996 28.3401 25.9649 28.448 26.0092C28.5558 26.0536 28.6713 26.0761 28.7879 26.0755C28.9045 26.075 29.0201 26.0512 29.1275 26.0058C29.2349 25.9604 29.3322 25.8941 29.4138 25.8108L31.2545 23.9708L32.6989 25.4152C33.6625 26.3821 34.2037 27.6916 34.2037 29.0567C34.2038 30.4218 33.6627 31.7313 32.6991 32.6982Z" fill="black"/>
</g>
<defs>
<clipPath id="clip0_644_1775">
<rect width="40" height="40" fill="white"/>
</clipPath>
</defs>
</svg>
