<svg width="54" height="40" viewBox="0 0 54 40" fill="none" xmlns="http://www.w3.org/2000/svg">
<g clip-path="url(#clip0_644_1823)">
<path d="M29.9785 13.7024C29.0509 13.6594 28.1266 13.8428 27.285 14.2368C26.4434 14.6308 25.7097 15.2237 25.1464 15.9647C24.1961 17.4386 23.6906 19.1569 23.6908 20.9126C23.6911 22.6682 24.1971 24.3864 25.1478 25.86C25.7352 26.5718 26.4718 27.1449 27.305 27.5383C28.1382 27.9317 29.0476 28.1358 29.9684 28.1361C30.8892 28.1364 31.7988 27.9328 32.6323 27.5399C33.4658 27.147 34.2026 26.5744 34.7904 25.863C35.764 24.3962 36.2834 22.6731 36.2834 20.9106C36.2834 19.1482 35.764 17.4251 34.7904 15.9583C34.2297 15.2199 33.499 14.629 32.661 14.2361C31.8229 13.8432 30.9025 13.6601 29.9785 13.7024ZM33.1691 24.6341C32.7818 25.1069 32.2949 25.4878 31.7435 25.7494C31.1921 26.011 30.59 26.1468 29.9801 26.1472C29.3702 26.1475 28.7678 26.0124 28.2162 25.7514C27.6645 25.4904 27.1772 25.1101 26.7893 24.6377C26.1358 23.5074 25.7917 22.2237 25.792 20.9169C25.7923 19.61 26.1368 18.3265 26.7907 17.1964C27.1787 16.7242 27.6661 16.344 28.2178 16.0832C28.7695 15.8223 29.3719 15.6873 29.9817 15.6877C30.5916 15.6881 31.1936 15.824 31.7449 16.0856C32.2963 16.3472 32.7832 16.728 33.1706 17.2007C33.834 18.3262 34.184 19.6099 34.1837 20.9176C34.1834 22.2253 33.833 23.5089 33.1691 24.6341ZM21.0089 22.387L20.7163 22.3523C20.532 22.3526 20.3509 22.4004 20.1903 22.4912C20.0581 22.5699 19.9447 22.6766 19.8578 22.8039C19.7709 22.9312 19.7127 23.076 19.6874 23.2282C19.5524 24.1187 19.104 24.9313 18.4235 25.5186C17.7849 25.9549 17.0218 26.17 16.2503 26.1312C15.7184 26.1556 15.188 26.0573 14.6998 25.844C14.2117 25.6306 13.7788 25.3077 13.4343 24.9003C12.6744 23.7186 12.2701 22.3421 12.2699 20.9357C12.2696 19.5293 12.6734 18.1526 13.4329 16.9707C13.775 16.5578 14.2068 16.2289 14.6951 16.0094C15.1835 15.7899 15.7155 15.6855 16.2503 15.7043C17.029 15.6717 17.7986 15.8831 18.4523 16.309C18.7674 16.5379 19.0338 16.8276 19.2359 17.1612C19.4381 17.4948 19.572 17.8654 19.6297 18.2515C19.6475 18.4093 19.6987 18.5615 19.78 18.6977C19.8613 18.834 19.9708 18.9511 20.101 19.0413C20.2524 19.1519 20.4328 19.2155 20.6198 19.2243L20.8922 19.1932C21.1621 19.136 21.3993 18.9757 21.5536 18.7462C21.7184 18.5035 21.7833 18.2063 21.735 17.9167C21.552 16.7743 20.9837 15.7296 20.1253 14.9573C19.0283 14.0814 17.6517 13.6355 16.2515 13.7025C15.4145 13.6771 14.5828 13.8448 13.8205 14.1928C13.0583 14.5407 12.3857 15.0596 11.8547 15.7094C10.7617 17.2307 10.1734 19.0585 10.1729 20.934C10.1723 22.8095 10.7597 24.6376 11.8518 26.1595C12.8904 27.3026 14.325 28.004 15.8621 28.1201C17.3991 28.2361 18.9223 27.758 20.1195 26.7836C20.9722 25.9728 21.5588 24.9206 21.8013 23.767C21.8426 23.6128 21.8516 23.4518 21.8278 23.294C21.804 23.1361 21.7479 22.9849 21.663 22.8499C21.5133 22.6161 21.2786 22.45 21.0089 22.387ZM44.5382 14.3432L44.397 14.294L44.3538 14.1508C43.1354 10.141 40.6911 6.61733 37.3672 4.0789C34.0432 1.54048 30.0078 0.115877 25.8325 0.00677057C21.6572 -0.102336 17.5535 1.10959 14.1025 3.47098C10.6514 5.83237 8.02794 9.22352 6.60336 13.1643L6.57021 13.2555L6.49095 13.3097C3.89137 15.039 1.91637 17.5633 0.859014 20.5081C-0.198342 23.453 -0.281835 26.6615 0.621048 29.6577C1.52393 32.6539 3.36509 35.2781 5.87126 37.1411C8.37744 39.0042 11.4152 40.0067 14.5339 40C16.182 39.9954 17.8169 39.7042 19.366 39.1393L19.4582 39.1068L19.5519 39.1349C24.1241 40.5353 29.047 40.2246 33.4084 38.2605L33.5453 38.199L33.675 38.2735C35.6782 39.4171 37.9456 40.0123 40.2501 39.9997C42.5546 39.9871 44.8153 39.3671 46.806 38.2018C48.7967 37.0364 50.4475 35.3666 51.5931 33.3595C52.7386 31.3524 53.3388 29.0785 53.3334 26.7654C53.3517 24.0304 52.5119 21.3589 50.9334 19.1294C49.3549 16.8999 47.1176 15.2254 44.5382 14.3432ZM40.1471 37.8867C38.029 37.882 35.9571 37.2649 34.1794 36.1089L33.6793 35.7864L33.1432 36.0482C28.9759 38.1117 24.1675 38.4484 19.7551 36.9855L19.3977 36.8654L19.0461 37.0043C16.1645 38.1459 12.9614 38.1627 10.0682 37.0514C7.17494 35.9402 4.80138 33.7815 3.41522 31.0008C2.02906 28.2201 1.73094 25.0191 2.57954 22.0287C3.42814 19.0383 5.36192 16.4754 7.99981 14.8451L8.32118 14.6447L8.44224 14.286C9.66175 10.6448 12.0179 7.49514 15.1615 5.30402C18.3051 3.1129 22.0686 1.99707 25.8938 2.12201C29.719 2.24695 33.4023 3.60598 36.3973 5.9976C39.3923 8.38922 41.5396 11.686 42.5206 15.3991L42.672 15.9748L43.2441 16.1418C45.5466 16.7972 47.5726 18.1898 49.0138 20.1076C50.4551 22.0254 51.2327 24.3633 51.2279 26.7655C51.2246 29.7141 50.0559 32.541 47.9786 34.6259C45.9012 36.7108 43.0848 37.8835 40.1471 37.8867ZM43.6923 30.5646H39.7666L40.1817 30.0757C40.6447 29.5921 41.1736 29.1768 41.7525 28.8419L41.9802 28.6799C42.6366 28.301 43.2395 27.8357 43.773 27.2964C44.3194 26.6468 44.6042 25.8156 44.5714 24.9661C44.5797 24.5498 44.5058 24.136 44.3539 23.7486C44.2021 23.3612 43.9752 23.0078 43.6865 22.7089C43.3455 22.3766 42.9421 22.1158 42.4997 21.9416C42.0574 21.7674 41.5849 21.6833 41.1098 21.6942C40.6353 21.6816 40.1633 21.7656 39.7221 21.9413C39.281 22.1169 38.8799 22.3805 38.5431 22.7161C38.2574 23.0152 38.0332 23.368 37.8836 23.7542C37.734 24.1404 37.6618 24.5525 37.6712 24.9668V25.2966C37.6649 25.6121 37.7806 25.9177 37.994 26.1493C38.2105 26.3501 38.4962 26.4585 38.7908 26.4516C39.0673 26.4607 39.3365 26.3616 39.5416 26.1753C39.6572 26.0688 39.7492 25.939 39.8115 25.7945C39.8738 25.6499 39.9051 25.4939 39.9034 25.3364V24.9668C39.8957 24.8232 39.9177 24.6796 39.9675 24.5447C40.0173 24.4099 40.094 24.2867 40.193 24.1828C40.3114 24.0603 40.4555 23.9657 40.6147 23.9059C40.774 23.8461 40.9445 23.8226 41.1139 23.8371C41.2878 23.8232 41.4627 23.8476 41.6262 23.9085C41.7898 23.9695 41.938 24.0656 42.0607 24.1901C42.1574 24.2938 42.2323 24.4161 42.2809 24.5496C42.3294 24.683 42.3505 24.8249 42.3432 24.9668C42.3584 25.3659 42.2213 25.7557 41.9599 26.0567C41.4905 26.5014 40.9682 26.8862 40.4049 27.2023C39.5429 27.688 38.798 28.3581 38.223 29.1652C37.6789 30.0081 37.4029 30.9971 37.4318 32.001L37.4376 32.7141H43.6935C43.9786 32.7147 44.2523 32.6019 44.4548 32.4006C44.6573 32.1992 44.7723 31.9255 44.7744 31.6394C44.7756 31.4985 44.749 31.3588 44.696 31.2283C44.6431 31.0978 44.5649 30.9792 44.466 30.8793C44.3642 30.778 44.2434 30.698 44.1106 30.644C43.9777 30.59 43.8356 30.563 43.6923 30.5646Z" fill="black"/>
</g>
<defs>
<clipPath id="clip0_644_1823">
<rect width="53.3333" height="40" fill="white"/>
</clipPath>
</defs>
</svg>
