<svg width="48" height="40" viewBox="0 0 48 40" fill="none" xmlns="http://www.w3.org/2000/svg">
<path d="M36.7579 0.000808916C36.0068 0.00759586 35.2889 0.313247 34.7614 0.850866L31.825 3.80282C31.5239 4.10552 31.2625 4.64659 31.2625 5.14393V5.71498H12.3155C5.5463 5.71498 0 11.2906 0 18.0957V28.5717C0.00366536 29.3283 0.304271 30.0528 0.836466 30.5879C1.36866 31.1229 2.08942 31.4251 2.84205 31.4287H3.7894V33.3335C3.79322 34.09 4.09387 34.8145 4.62604 35.3495C5.1582 35.8845 5.87886 36.1867 6.63144 36.1906H7.78233C8.40524 38.3822 10.4157 40 12.7892 40C15.1627 40 17.1732 38.3822 17.7961 36.1906H32.4134C33.0363 38.3822 35.0468 40 37.4203 40C39.7938 40 41.8043 38.3822 42.4272 36.1906H44.5254C45.278 36.1867 45.9987 35.8845 46.5308 35.3495C47.063 34.8145 47.3636 34.09 47.3675 33.3335V28.7372C47.3653 27.723 47.0064 26.7423 46.3542 25.9685C45.702 25.1948 44.7986 24.6779 43.8038 24.5092L43.8464 24.5167L36.5562 22.9561L33.1665 18.185C32.7282 17.5683 32.1499 17.0657 31.4795 16.7189C30.8092 16.372 30.0662 16.1911 29.3123 16.191H16.6212C16.018 16.191 15.4235 16.3357 14.8871 16.6129C14.3507 16.8901 13.8878 17.292 13.5367 17.785L9.86575 22.9542L7.38636 23.4732H7.38451C5.01767 23.9693 3.7894 25.9769 3.7894 27.969V29.524H2.84205C2.71754 29.5244 2.59419 29.5 2.47909 29.4523C2.36399 29.4045 2.25941 29.3344 2.17137 29.2459C2.08333 29.1574 2.01356 29.0522 1.96608 28.9365C1.9186 28.8208 1.89434 28.6968 1.8947 28.5717V18.0957C1.8947 12.3296 6.57977 7.6197 12.3155 7.6197H31.2625V8.19075C31.2625 8.68809 31.5239 9.22916 31.825 9.53187L34.7614 12.4838C35.2889 13.0214 36.0068 13.3271 36.7579 13.3339H40.736C40.9868 13.3413 41.2365 13.2972 41.4698 13.2041C41.703 13.111 41.9148 12.971 42.0923 12.7926C42.2697 12.6142 42.409 12.4012 42.5016 12.1668C42.5942 11.9323 42.6381 11.6813 42.6307 11.4291H47.3675V9.52443H42.6307V3.81026H47.3675V1.90553H42.6307C42.6381 1.65338 42.5942 1.40236 42.5016 1.1679C42.409 0.933431 42.2697 0.720471 42.0923 0.542093C41.9148 0.363714 41.703 0.223684 41.4698 0.130602C41.2365 0.0375203 40.9868 -0.00664835 40.736 0.000808916H36.7579ZM36.7579 1.90553H40.736V11.4291H36.7579C36.6344 11.4282 36.5123 11.4018 36.3994 11.3516C36.2864 11.3013 36.1848 11.2284 36.101 11.1371L33.1646 8.18517C33.1601 8.18065 33.1608 8.18262 33.1572 8.17959V5.15509C33.1608 5.15206 33.1601 5.15403 33.1646 5.14951L36.101 2.19757C36.1848 2.10633 36.2864 2.03334 36.3994 1.98311C36.5123 1.93288 36.6344 1.90648 36.7579 1.90553ZM16.6212 18.0957H21.789V22.8575H12.26L15.078 18.8937C15.2535 18.6467 15.485 18.4455 15.7534 18.3067C16.0218 18.1679 16.3193 18.0956 16.6212 18.0957ZM23.6837 18.0957H29.3123C29.7647 18.0956 30.2106 18.204 30.6129 18.4121C31.0152 18.6201 31.3622 18.9217 31.6252 19.2917L34.1582 22.8575H23.6837V18.0957ZM10.5152 24.7622H35.9031L43.4726 26.3842L43.493 26.3879C44.047 26.4787 44.5507 26.7652 44.9136 27.1958C45.2764 27.6263 45.4747 28.1729 45.4728 28.7372V33.3335C45.4748 33.4591 45.4517 33.5839 45.4048 33.7003C45.3579 33.8168 45.2882 33.9226 45.1998 34.0114C45.1114 34.1003 45.0062 34.1704 44.8903 34.2175C44.7745 34.2646 44.6504 34.2879 44.5254 34.2858H42.6067C42.3652 31.6255 40.1269 29.524 37.4203 29.524C34.7137 29.524 32.4753 31.6255 32.2339 34.2858H17.9756C17.7342 31.6255 15.4958 29.524 12.7892 29.524C10.0826 29.524 7.84427 31.6255 7.60285 34.2858H6.63144C6.50648 34.2879 6.38238 34.2646 6.26652 34.2175C6.15066 34.1704 6.04542 34.1003 5.95704 34.0114C5.86866 33.9226 5.79896 33.8168 5.75207 33.7003C5.70518 33.5839 5.68206 33.4591 5.6841 33.3335V27.969C5.6841 26.6437 6.18731 25.6698 7.77122 25.337L10.5152 24.7622ZM12.7892 31.4287C13.445 31.4287 14.0861 31.6242 14.6313 31.9905C15.1766 32.3568 15.6016 32.8773 15.8525 33.4864C16.1035 34.0955 16.1692 34.7657 16.0412 35.4123C15.9133 36.0589 15.5975 36.6528 15.1338 37.119C14.6701 37.5851 14.0793 37.9026 13.4361 38.0312C12.7929 38.1598 12.1262 38.0938 11.5203 37.8415C10.9145 37.5893 10.3966 37.162 10.0323 36.6139C9.66796 36.0657 9.47349 35.4213 9.47349 34.762C9.47161 34.3237 9.55608 33.8895 9.72204 33.4842C9.88801 33.0789 10.1322 32.7107 10.4404 32.4008C10.7487 32.0909 11.115 31.8454 11.5181 31.6786C11.9212 31.5118 12.3533 31.4268 12.7892 31.4287ZM37.4203 31.4287C38.0761 31.4287 38.7171 31.6242 39.2624 31.9905C39.8077 32.3568 40.2327 32.8773 40.4836 33.4864C40.7346 34.0955 40.8002 34.7657 40.6723 35.4123C40.5444 36.0589 40.2286 36.6528 39.7649 37.119C39.3012 37.5851 38.7103 37.9026 38.0672 38.0312C37.424 38.1598 36.7573 38.0938 36.1514 37.8415C35.5456 37.5893 35.0277 37.162 34.6634 36.6139C34.299 36.0657 34.1046 35.4213 34.1046 34.762C34.1027 34.3237 34.1872 33.8895 34.3531 33.4842C34.5191 33.0789 34.7633 32.7107 35.0715 32.4008C35.3798 32.0909 35.7461 31.8454 36.1492 31.6786C36.5523 31.5118 36.9843 31.4268 37.4203 31.4287Z" fill="black"/>
</svg>
