<svg width="56" height="40" viewBox="0 0 56 40" fill="none" xmlns="http://www.w3.org/2000/svg">
<g clip-path="url(#clip0_644_1763)">
<path d="M15.2969 6.3477C15.1809 4.41447 14.2086 1.28399 9.35122 0.0260988C9.13664 -0.0286373 8.90935 0.00513638 8.71923 0.120019C8.52912 0.234901 8.39152 0.421555 8.33665 0.639117C8.28178 0.856679 8.31418 1.08743 8.42653 1.2809C8.53887 1.47438 8.72206 1.6148 8.93616 1.67146C12.8425 2.68303 13.5884 5.00763 13.6591 6.43073C11.4698 5.31755 8.98931 4.93697 6.57366 5.34361C4.15801 5.75025 1.93141 6.92321 0.213343 8.69414C0.113624 8.80729 0.04555 8.94546 0.0162299 9.09433C-0.0130902 9.24321 -0.00253133 9.39734 0.046665 9.54071C0.0958613 9.68408 0.181978 9.81148 0.296069 9.90965C0.410161 10.0078 0.548004 10.0732 0.695402 10.099C1.11373 10.1711 10.9314 11.9849 10.9314 21.4125C10.9314 30.9073 3.71027 33.2684 3.4031 33.3637C3.28052 33.4018 3.16831 33.4679 3.07485 33.5569C2.9814 33.646 2.9092 33.7556 2.86405 33.8773C2.81891 33.9991 2.80199 34.1298 2.81442 34.2593C2.82685 34.3888 2.86829 34.5137 2.93575 34.6243C3.05014 34.8109 5.77909 39.2071 9.70909 39.9045C10.5234 40.0453 11.3574 40.0193 12.1617 39.8282C12.9659 39.6371 13.7243 39.2846 14.3924 38.7916C15.4537 39.5606 16.7212 39.9819 18.025 39.9991C18.3773 39.9983 18.7288 39.9666 19.0757 39.9045C23.0057 39.2071 25.7331 34.8109 25.8474 34.6243C25.9149 34.5137 25.9566 34.3888 25.969 34.2593C25.9814 34.1298 25.9643 33.9991 25.9191 33.8773C25.874 33.7556 25.802 33.646 25.7085 33.5569C25.6151 33.4679 25.5027 33.4018 25.3801 33.3637C25.0729 33.2684 17.852 30.9073 17.852 21.4125C17.852 11.9849 27.6713 10.1711 28.0896 10.099C28.237 10.0732 28.3749 10.0078 28.489 9.90965C28.6031 9.81148 28.6892 9.68408 28.7384 9.54071C28.7876 9.39734 28.7979 9.2432 28.7686 9.09433C28.7393 8.94546 28.6714 8.80729 28.5717 8.69414C26.8758 6.94783 24.6845 5.7829 22.3045 5.36221C19.9245 4.94153 17.4746 5.28608 15.2969 6.3477ZM16.1785 21.4124C16.0419 24.1252 16.6965 26.8187 18.0606 29.1557C19.4246 31.4928 21.4376 33.3696 23.8473 34.5512C22.6294 36.3334 20.8421 37.6336 18.7881 38.2317C18.0978 38.3424 17.3918 38.2958 16.7214 38.0953C16.051 37.8948 15.4329 37.5453 14.9121 37.0723C14.7641 36.9536 14.581 36.889 14.3924 36.889C14.2038 36.889 14.0207 36.9536 13.8728 37.0723C13.3516 37.5433 12.7343 37.8915 12.065 38.0921C11.3958 38.2926 10.6912 38.3406 10.0016 38.2325C7.94662 37.6327 6.15815 36.3323 4.93752 34.5503C7.34665 33.3683 9.35891 31.4915 10.7226 29.1547C12.0864 26.8179 12.7409 24.1248 12.6045 21.4123C12.6045 13.0189 5.74455 9.85667 2.56134 8.84077C4.18601 7.57546 6.16186 6.86134 8.20878 6.79957C10.2557 6.7378 12.2698 7.3315 13.9657 8.49661C13.9886 8.51007 14.0151 8.50563 14.0388 8.51682C14.0884 8.54739 14.1414 8.57232 14.1963 8.59115C14.2605 8.60721 14.3263 8.61529 14.3924 8.6152C14.5261 8.61168 14.6568 8.57529 14.7736 8.50915C14.7879 8.50169 14.805 8.505 14.8189 8.49661C16.5152 7.33263 18.529 6.73957 20.5756 6.80133C22.6223 6.8631 24.5981 7.57656 26.2233 8.84077C23.0385 9.85671 16.1785 13.0189 16.1785 21.4124ZM55.0569 16.8794C54.9901 16.7324 54.8831 16.6079 54.7487 16.5208C54.6143 16.4336 54.4582 16.3874 54.2987 16.3876H45.9648L51.7675 6.08335C51.8401 5.95413 51.878 5.80782 51.8774 5.65906C51.8768 5.5103 51.8377 5.36432 51.764 5.23569C51.6904 5.10706 51.5849 5.0003 51.4578 4.9261C51.3308 4.8519 51.1869 4.81283 51.0403 4.81285H39.6376C39.4822 4.81287 39.3298 4.85678 39.1976 4.93968C39.0654 5.02258 38.9587 5.1412 38.8892 5.28224L30.7432 21.8179C30.6793 21.9474 30.649 22.0913 30.6554 22.2359C30.6617 22.3806 30.7043 22.5213 30.7794 22.6444C30.8544 22.7676 30.9593 22.8693 31.0839 22.9397C31.2086 23.0102 31.3489 23.0471 31.4916 23.047H40.1425L35.5785 38.4888C35.5232 38.6757 35.533 38.8762 35.6063 39.0566C35.6796 39.237 35.8119 39.3863 35.9809 39.4793C36.1499 39.5723 36.3453 39.6033 36.5342 39.5672C36.7232 39.531 36.8941 39.4299 37.0181 39.2808L54.9377 17.785C55.0407 17.6614 55.1067 17.5104 55.1278 17.3499C55.149 17.1894 55.1244 17.0261 55.0569 16.8794ZM38.3352 35.072L42.0675 22.4416C42.1052 22.3148 42.1131 22.1809 42.0906 22.0505C42.0681 21.9201 42.0158 21.7968 41.938 21.6906C41.8602 21.5843 41.759 21.4981 41.6424 21.4387C41.5259 21.3793 41.3972 21.3484 41.2668 21.3485H32.8447L40.154 6.51128H49.5991L43.7964 16.8155C43.7238 16.9447 43.6859 17.0911 43.6865 17.2398C43.6871 17.3885 43.726 17.5345 43.7996 17.6631C43.8733 17.7917 43.979 17.8985 44.106 17.9727C44.2331 18.0469 44.377 18.086 44.5236 18.086H52.4947L38.3352 35.072Z" fill="black"/>
</g>
<defs>
<clipPath id="clip0_644_1763">
<rect width="55.1351" height="40" fill="white"/>
</clipPath>
</defs>
</svg>
