<svg width="42" height="40" viewBox="0 0 42 40" fill="none" xmlns="http://www.w3.org/2000/svg">
<g clip-path="url(#clip0_644_1787)">
<path d="M26.5584 40C26.4301 40.0004 26.3033 39.9714 26.1878 39.9153C26.0723 39.8592 25.971 39.7775 25.8917 39.6763L20.3342 32.7161C20.2122 32.565 20.1456 32.3766 20.1456 32.1822C20.1456 31.9879 20.2122 31.7994 20.3342 31.6484L25.8917 24.6864C25.9711 24.5859 26.0722 24.5048 26.1874 24.4492C26.3026 24.3936 26.4288 24.3648 26.5567 24.3653H26.6187L26.8427 24.4145C27.009 24.4735 27.153 24.5827 27.2548 24.7271C27.3566 24.8715 27.4112 25.0439 27.4112 25.2207V27.1506H32.2124L28.1795 19.858C28.1245 19.7595 28.0898 19.6509 28.0774 19.5387C28.065 19.4265 28.0752 19.3129 28.1074 19.2046C28.1704 18.99 28.3144 18.8083 28.5088 18.698L35.8097 14.643C35.9362 14.5729 36.0785 14.536 36.2231 14.536H36.2731L36.4574 14.5688C36.5658 14.6 36.6667 14.6524 36.7548 14.7229C36.8429 14.7934 36.9162 14.8807 36.9706 14.9796L41.5341 23.2398C41.8448 23.8013 42.0053 24.4338 41.9998 25.0759C41.9944 25.7179 41.8232 26.3476 41.5031 26.9038L36.7279 35.3616C36.4077 35.9252 35.9443 36.3939 35.3848 36.72C34.8253 37.0461 34.1898 37.2179 33.5426 37.2182H27.4114V39.1447C27.4108 39.3214 27.3559 39.4937 27.2542 39.6381C27.1525 39.7825 27.0089 39.892 26.8429 39.9517L26.786 39.9724L26.5584 40ZM25.7039 36.708V36.3602C25.7045 36.1334 25.7947 35.916 25.9548 35.7557C26.115 35.5954 26.3321 35.5052 26.5584 35.5048H33.5337C33.8811 35.5093 34.2231 35.4199 34.5241 35.2462C34.8251 35.0724 35.074 34.8207 35.2444 34.5174L38.4383 28.857C38.3797 28.8606 26.5584 28.8622 26.5584 28.8622C26.3321 28.8619 26.115 28.7717 25.9548 28.6114C25.7947 28.451 25.7045 28.2337 25.7039 28.0068V27.659L22.0914 32.1827L25.7039 36.708ZM38.2419 27.1506C38.6085 27.1445 38.9666 27.0399 39.279 26.8477C39.5914 26.6554 39.8468 26.3827 40.0181 26.0579C40.1958 25.7573 40.2915 25.4151 40.2954 25.0657C40.2994 24.7163 40.2114 24.372 40.0405 24.0675L35.8904 16.5505L30.0848 19.7751L34.1642 27.1506L38.2419 27.1506ZM8.78678 37.2095C8.14618 37.2092 7.5165 37.0432 6.95875 36.7274C6.40101 36.4117 5.93408 35.957 5.60318 35.4073L0.53665 27.1221C0.19804 26.5664 0.0130675 25.9305 0.000667531 25.2795C-0.0117324 24.6285 0.148818 23.9858 0.466019 23.4176L3.43427 18.0558L1.75117 17.1202C1.59638 17.0346 1.47202 16.903 1.39521 16.7434C1.3184 16.5839 1.2929 16.4044 1.32243 16.2297C1.35195 16.0551 1.43499 15.8939 1.55995 15.7686C1.68491 15.6433 1.84564 15.56 2.01992 15.5303L10.7903 14.0336H10.8317C11.0156 14.015 11.2008 14.0551 11.3607 14.1481C11.5207 14.2411 11.6472 14.3823 11.7223 14.5516L15.104 22.797C15.1719 22.9612 15.1868 23.1425 15.1467 23.3156C15.1065 23.4886 15.0133 23.6448 14.8801 23.762C14.7255 23.9015 14.5247 23.9784 14.3167 23.9778C14.1714 23.9774 14.0285 23.94 13.9016 23.8691L12.2184 22.9334L9.88933 27.142H18.2101C18.4365 27.1424 18.6533 27.2326 18.8135 27.3929C18.9736 27.5532 19.064 27.7706 19.0646 27.9974V36.3604C19.0647 36.4726 19.0426 36.5838 18.9997 36.6876C18.9569 36.7914 18.8942 36.8857 18.815 36.9651C18.7358 37.0445 18.6418 37.1076 18.5383 37.1506C18.4348 37.1936 18.3239 37.2157 18.2118 37.2157L8.78678 37.2095ZM6.96758 32.4286C6.79465 32.753 6.71197 33.118 6.72834 33.4854C6.74471 33.8528 6.85951 34.209 7.06061 34.5166C7.23681 34.8179 7.4891 35.0674 7.79212 35.24C8.09515 35.4126 8.43824 35.5022 8.78678 35.4997L17.3573 35.5048V28.8553H8.94527L6.96758 32.4286ZM5.00712 16.9752C5.10569 17.0297 5.19244 17.1032 5.26252 17.1915C5.33259 17.2797 5.3846 17.3811 5.41541 17.4896C5.44632 17.5969 5.45569 17.7093 5.44297 17.8202C5.43025 17.9312 5.39571 18.0385 5.34133 18.136L1.95962 24.2505C1.78598 24.5526 1.6973 24.8963 1.70337 25.2448C1.70943 25.5934 1.81002 25.9338 1.99408 26.2297L5.3844 31.7744C5.41368 31.714 11.1417 21.3582 11.1417 21.3582C11.1962 21.26 11.2693 21.1736 11.3571 21.1038C11.4449 21.034 11.5454 20.9823 11.6532 20.9516L11.7014 20.9378L11.8892 20.9188C12.0341 20.9186 12.1765 20.956 12.3026 21.0275L12.6041 21.1941L10.4059 15.8341L4.70543 16.8068L5.00712 16.9752ZM31.4492 16.1259L22.6651 14.706C22.4909 14.6777 22.3297 14.5959 22.2038 14.472C22.0779 14.3481 21.9935 14.1881 21.9622 14.0141C21.9308 13.8401 21.9541 13.6607 22.0287 13.5005C22.1034 13.3403 22.2258 13.2072 22.3791 13.1196L24.0587 12.1676L21.6917 7.97965L17.3453 15.0893C17.2691 15.2143 17.162 15.3175 17.0343 15.3889C16.9067 15.4603 16.7628 15.4974 16.6166 15.4967C16.4599 15.4966 16.306 15.4536 16.1719 15.3724L9.05703 11.0024C8.9615 10.9438 8.87852 10.867 8.81262 10.7763C8.74672 10.6856 8.69932 10.5828 8.67308 10.4737C8.64685 10.3646 8.6423 10.2513 8.65973 10.1405C8.67716 10.0297 8.71607 9.92333 8.77451 9.82761L13.7049 1.77812C14.0389 1.23147 14.5082 0.780491 15.0672 0.468972C15.6262 0.157453 16.2558 -0.00403954 16.8954 7.6765e-05H26.5978C27.2475 0.000760804 27.8855 0.174969 28.4457 0.504792C29.0058 0.834614 29.468 1.30812 29.7849 1.87652L32.7979 7.21238L34.4741 6.26122C34.6278 6.17388 34.8048 6.13645 34.9806 6.15413C35.1564 6.17182 35.3224 6.24373 35.4556 6.35994C35.5889 6.47614 35.6828 6.63093 35.7246 6.80294C35.7664 6.97494 35.7537 7.15571 35.6886 7.32028L32.3758 15.5968C32.3133 15.7558 32.2044 15.8922 32.0634 15.9883C31.9223 16.0843 31.7556 16.1356 31.5851 16.1354L31.4492 16.1259ZM31.0478 14.328L33.1995 8.95067L32.898 9.12071C32.7696 9.1927 32.6249 9.2304 32.4777 9.23027H32.4312L32.252 9.20006C32.1429 9.17067 32.0407 9.11962 31.9516 9.04993C31.8625 8.98025 31.7884 8.89335 31.7335 8.79439L28.3001 2.71278C28.1314 2.40976 27.8853 2.15713 27.5871 1.98074C27.2889 1.80435 26.9495 1.71054 26.6032 1.70896H20.1085C20.143 1.7642 25.9624 12.0682 25.9624 12.0682C26.0738 12.2654 26.1025 12.4988 26.0425 12.7173C25.9824 12.9357 25.8384 13.1213 25.6419 13.2335L25.3387 13.4061L31.0478 14.328ZM16.334 13.4666L20.7322 6.27756L18.7235 2.72061C18.5379 2.40309 18.2705 2.14155 17.9491 1.96353C17.6277 1.78551 17.2644 1.6976 16.8974 1.70902C16.549 1.70347 16.2036 1.78941 15.8986 1.95825C15.5937 2.12709 15.3381 2.37293 15.1574 2.67141L10.6766 9.99161L16.334 13.4666Z" fill="black"/>
</g>
<defs>
<clipPath id="clip0_644_1787">
<rect width="42" height="40" fill="white"/>
</clipPath>
</defs>
</svg>
