<svg width="48" height="39" viewBox="0 0 48 39" fill="none" xmlns="http://www.w3.org/2000/svg">
<g clip-path="url(#clip0_644_1834)">
<path d="M0.810067 39C0.675914 39 0.543875 38.9666 0.425795 38.903C0.307715 38.8393 0.207317 38.7474 0.133549 38.6354C0.0597804 38.5234 0.0149689 38.3948 0.00315484 38.2612C-0.00865922 38.1276 0.0128137 37.9932 0.0657791 37.87L5.79487 23.6943L5.80678 20.0572C5.80718 19.8422 5.89289 19.6362 6.04507 19.4843C6.19725 19.3324 6.40348 19.247 6.61854 19.2469H13.5088V0.810344C13.5093 0.595518 13.595 0.389634 13.747 0.237762C13.899 0.0858899 14.1049 0.000394268 14.3199 0H26.8353C27.0502 0.000394268 27.2562 0.0858899 27.4082 0.237762C27.5602 0.389634 27.6458 0.595518 27.6463 0.810344V7.69871H34.5366C34.7516 7.69895 34.9578 7.78437 35.1099 7.93625C35.2621 8.08814 35.3478 8.29408 35.3484 8.50902V15.3974H41.2756C41.4906 15.3976 41.6968 15.483 41.8489 15.6349C42.0011 15.7868 42.0867 15.9928 42.0872 16.2077V24.5043L47.9217 37.8463C47.9803 37.9697 48.0065 38.1059 47.998 38.2422C47.9896 38.3785 47.9468 38.5105 47.8735 38.6257C47.8002 38.741 47.6988 38.8358 47.5789 38.9012C47.459 38.9667 47.3245 39.0007 47.1879 39.0001L0.810067 39ZM2.04109 37.3794H45.9147L42.3507 28.9349L42.0874 28.9939V33.5298C42.087 33.7448 42.0013 33.9509 41.8491 34.1028C41.6969 34.2547 41.4907 34.3401 41.2756 34.3402H6.61854C6.40347 34.3401 6.19725 34.2547 6.04507 34.1028C5.89289 33.9509 5.80718 33.7448 5.80678 33.5298V28.4609L5.5404 28.4061L2.04109 37.3794ZM30.535 32.7195H40.4646V17.018H30.535V32.7195ZM22.8329 32.7195H28.9122V16.2077C28.9127 15.9929 28.9983 15.787 29.1503 15.6351C29.3023 15.4832 29.5083 15.3978 29.7232 15.3974H33.7256V9.3194H22.8329V32.7195ZM7.42957 32.7195H21.2101V20.8675H7.42957V32.7195ZM15.1316 19.2469H21.2101V8.50898C21.2107 8.29404 21.2964 8.08806 21.4486 7.93618C21.6007 7.7843 21.8069 7.69888 22.0219 7.69864H26.0235V1.62069H15.1316V19.2469ZM36.6135 28.5662V26.9455H38.2363V28.5662H36.6135ZM32.7633 28.5662V26.9455H34.3853V28.5662H32.7633ZM25.0612 28.5662V26.9455H26.684V28.5662H25.0612ZM17.3592 28.5662V26.9455H18.9818V28.5662H17.3592ZM13.5088 28.5662V26.9455H15.1316V28.5662H13.5088ZM9.65787 28.5662V26.9455H11.2805V28.5662H9.65787ZM36.6135 24.7167V23.0964H38.2363V24.7167H36.6135ZM32.7633 24.7167V23.0964H34.3853V24.7167H32.7633ZM25.0612 24.7167V23.0964H26.684V24.7167H25.0612ZM17.3592 24.7167V23.0964H18.9818V24.7167H17.3592ZM13.5088 24.7167V23.0964H15.1316V24.7167H13.5088ZM9.65787 24.7167V23.0964H11.2805V24.7167H9.65787ZM36.6135 20.8675V19.2469H38.2363V20.8675H36.6135ZM32.7633 20.8675V19.2469H34.3853V20.8675H32.7633ZM25.0612 20.8675V19.2469H26.684V20.8675H25.0612ZM25.0612 17.018V15.3974H26.684V17.018H25.0612ZM17.3592 17.018V15.3974H18.9818V17.018H17.3592ZM29.8746 13.1688V11.5482H31.4974V13.1688H29.8746ZM25.0611 13.1688V11.5482H26.6839V13.1688H25.0611ZM17.359 13.1688V11.5482H18.9818V13.1688H17.359ZM17.359 9.31933V7.69871H18.9818V9.31936L17.359 9.31933ZM22.1732 5.47017V3.84948H23.796V5.47017H22.1732ZM17.359 5.47017V3.84948H18.9818V5.47017H17.359Z" fill="black"/>
</g>
<defs>
<clipPath id="clip0_644_1834">
<rect width="48" height="39" fill="white"/>
</clipPath>
</defs>
</svg>
