<svg width="45" height="40" viewBox="0 0 45 40" fill="none" xmlns="http://www.w3.org/2000/svg">
<g clip-path="url(#clip0_644_1811)">
<path d="M44.7479 34.8737L38.3436 18.0909C38.3012 17.9846 38.225 17.8951 38.1271 17.8362C38.0291 17.7772 37.9145 17.7519 37.8008 17.7643H6.96827C6.85164 17.7692 6.73852 17.8056 6.64081 17.8695C6.5431 17.9334 6.46434 18.0225 6.41303 18.1275L0.0255817 34.8615C-0.00975842 35.0547 0.0109574 35.254 0.0851196 35.4359C0.138698 35.5153 0.212278 35.5791 0.298538 35.6206C0.384798 35.6622 0.480658 35.68 0.576086 35.6724H5.58838V39.3722C5.58054 39.4567 5.59143 39.5418 5.62022 39.6216C5.64902 39.7014 5.69503 39.7738 5.755 39.8338C5.81496 39.8937 5.88734 39.9398 5.96708 39.9685C6.04683 39.9972 6.13196 40.008 6.21634 40.0001H39.682C39.7663 40.0079 39.8513 39.997 39.931 39.9682C40.0106 39.9394 40.0828 39.8934 40.1426 39.8334C40.2024 39.7735 40.2484 39.7011 40.2771 39.6213C40.3058 39.5416 40.3165 39.4566 40.3086 39.3722V35.6724H44.0056C44.2111 35.6455 44.3997 35.5443 44.5358 35.3878C44.8226 35.101 44.7645 34.9271 44.7479 34.8737ZM40.888 28.4894H29.6355L28.8843 23.4423H38.9561L40.888 28.4894ZM29.2285 34.5106H15.3526L16.002 29.7458H28.5792L29.2285 34.5106ZM37.2595 19.0208L38.548 22.1858H28.695L28.2267 19.0208H37.2595ZM17.5084 19.0208H26.9786L27.4465 22.1858H17.0417L17.5084 19.0208ZM27.7298 23.4423L28.4818 28.4894H16.1943L16.9443 23.4423H27.7298ZM7.41036 19.0208H16.2597L15.7919 22.1858H6.23767L7.41036 19.0208ZM5.71931 23.4423H15.6028L14.8528 28.4894H3.78802L5.71931 23.4423ZM1.53003 34.5106L3.37022 29.7458H14.7522L14.1028 34.5106H1.53003ZM39.1485 38.7444H6.93761V35.6724H39.1485V38.7444ZM30.4788 34.4167L29.8291 29.6511H41.3985L43.2386 34.4167H30.4788Z" fill="black"/>
<path d="M29.7735 7.46637H27.977L27.9667 7.38259C27.848 6.32094 27.4277 5.31562 26.7555 4.48571L26.6994 4.41857L27.9924 3.12387C28.0481 3.07045 28.0926 3.00644 28.1233 2.93559C28.154 2.86474 28.1704 2.78848 28.1713 2.71126C28.1722 2.63403 28.1577 2.5574 28.1286 2.48584C28.0996 2.41429 28.0566 2.34928 28.0021 2.29456C27.9477 2.23985 27.8828 2.19655 27.8114 2.1672C27.74 2.13786 27.6636 2.12306 27.5864 2.12366C27.5092 2.12426 27.4329 2.14026 27.362 2.17072C27.2911 2.20118 27.2269 2.24549 27.1733 2.30105L25.8791 3.59637L25.8114 3.54008C24.982 2.86729 23.9773 2.44661 22.9162 2.32788L22.8306 2.31702V0.588881C22.8306 0.433217 22.7688 0.283926 22.6588 0.173855C22.5488 0.0637845 22.3997 0.00195312 22.2441 0.00195312C22.0886 0.00195312 21.9394 0.0637845 21.8294 0.173855C21.7195 0.283926 21.6576 0.433217 21.6576 0.588881V2.38609L21.5707 2.39702C20.5104 2.51505 19.5063 2.93561 18.6781 3.6086L18.6117 3.66485L17.3174 2.37016C17.2647 2.31409 17.201 2.26939 17.1304 2.23883C17.0598 2.20827 16.9837 2.1925 16.9068 2.19244C16.8298 2.19238 16.7536 2.20804 16.683 2.2385C16.6123 2.26895 16.5486 2.31354 16.4958 2.36953C16.4397 2.42229 16.3951 2.48599 16.3645 2.5567C16.334 2.6274 16.3182 2.7036 16.3182 2.78062C16.3182 2.85765 16.334 2.93385 16.3645 3.00455C16.3951 3.07525 16.4397 3.13895 16.4958 3.19172L17.7889 4.48705L17.7314 4.55482C17.0611 5.38522 16.6413 6.38974 16.5214 7.45048L16.5112 7.53485H14.716C14.6374 7.5293 14.5585 7.54072 14.4847 7.56832C14.4108 7.59591 14.3438 7.63906 14.2881 7.69482C14.2324 7.75059 14.1894 7.81767 14.1618 7.89155C14.1342 7.96544 14.1228 8.04437 14.1283 8.12304C14.1286 8.27901 14.1906 8.42854 14.3007 8.53888C14.4108 8.64923 14.5601 8.71143 14.716 8.7119H16.5112L16.5214 8.7969C16.6546 9.85559 17.0744 10.8577 17.7352 11.6951L17.7875 11.7642L16.4958 12.9859C16.4398 13.0388 16.3952 13.1025 16.3647 13.1732C16.3342 13.2439 16.3183 13.3201 16.3182 13.3971C16.3181 13.4741 16.3336 13.5503 16.364 13.6211C16.3943 13.6919 16.4388 13.7558 16.4946 13.8088C16.5474 13.8647 16.611 13.9093 16.6816 13.9397C16.7523 13.9702 16.8284 13.9859 16.9053 13.9859C16.9822 13.9859 17.0583 13.9702 17.1289 13.9397C17.1995 13.9093 17.2633 13.8647 17.3161 13.8088L18.6117 12.5135L18.6781 12.5697C19.507 13.2424 20.5114 13.6629 21.572 13.7813L21.6576 13.7922V15.5894C21.6576 15.7451 21.7195 15.8944 21.8294 16.0045C21.9394 16.1145 22.0886 16.1764 22.2441 16.1764C22.3997 16.1764 22.5488 16.1145 22.6588 16.0045C22.7688 15.8944 22.8306 15.7451 22.8306 15.5894V13.7922L22.9174 13.7813C23.9751 13.6491 24.9765 13.2294 25.8127 12.5678L25.8804 12.516L27.1722 13.8082C27.2248 13.8642 27.2883 13.9088 27.3588 13.9394C27.4293 13.9699 27.5052 13.9858 27.582 13.9859C27.6588 13.986 27.7349 13.9704 27.8055 13.9401C27.876 13.9097 27.9396 13.8653 27.9924 13.8094C28.0478 13.7563 28.092 13.6926 28.1225 13.6222C28.153 13.5517 28.1691 13.4758 28.1699 13.399C28.1702 13.3218 28.1546 13.2453 28.124 13.1743C28.0935 13.1034 28.0486 13.0395 27.9924 12.9866L26.6994 11.6913L26.7569 11.6235C27.4282 10.7935 27.8481 9.78847 27.9669 8.72724L27.9771 8.64286H29.7735C29.9293 8.64286 30.0788 8.5809 30.189 8.47059C30.2993 8.36028 30.3611 8.21068 30.3611 8.05467C30.3611 7.89867 30.2993 7.74903 30.189 7.63872C30.0788 7.52841 29.9293 7.46637 29.7735 7.46637ZM25.5303 11.2738C24.8947 11.9109 24.0846 12.345 23.2024 12.5211C22.3202 12.6972 21.4056 12.6074 20.5744 12.2631C19.7432 11.9188 19.0328 11.3354 18.5331 10.5868C18.0333 9.83822 17.7668 8.95808 17.7671 8.05779C17.7514 7.46966 17.8547 6.88444 18.0707 6.33728C18.2868 5.79012 18.6112 5.29234 19.0243 4.87384C19.4412 4.44045 19.9413 4.09586 20.4946 3.86084C21.0479 3.62582 21.6431 3.50523 22.2441 3.50625C23.1487 3.49351 24.0365 3.75095 24.7942 4.2457C25.5519 4.74045 26.145 5.45001 26.4977 6.28377C26.8504 7.11753 26.9468 8.03761 26.7745 8.92645C26.6022 9.81529 26.169 10.6325 25.5303 11.2738Z" fill="black"/>
</g>
<defs>
<clipPath id="clip0_644_1811">
<rect width="44.7619" height="40" fill="white" transform="translate(0.00195312)"/>
</clipPath>
</defs>
</svg>
