<svg width="41" height="40" viewBox="0 0 41 40" fill="none" xmlns="http://www.w3.org/2000/svg">
<g clip-path="url(#clip0_644_1800)">
<path d="M40.9498 25.6055C40.9419 25.5443 40.9259 25.4844 40.9023 25.4275C40.8943 25.367 40.8786 25.3077 40.8556 25.2513C40.8127 25.1914 40.7611 25.1386 40.7026 25.0946C40.6668 25.0616 40.6442 25.0167 40.6015 24.9914L40.5998 24.9905L40.5988 24.9893L40.5974 24.9889L33.0841 20.5372L33.0746 16.9761C33.0743 16.8516 33.0419 16.7294 32.9808 16.6217C32.9197 16.5139 32.832 16.4244 32.7263 16.3621L29.0844 14.2047L29.1096 5.28975L29.1093 5.28836L29.1096 5.28692C29.102 5.22289 29.0854 5.16031 29.0605 5.10104C29.0526 5.04273 29.0375 4.98566 29.0157 4.93116C28.9543 4.82285 28.8661 4.73283 28.76 4.67009L20.9872 0.0953804C20.8806 0.0326587 20.7595 -0.000248964 20.6365 1.41819e-06C20.5135 0.000251801 20.3927 0.0336179 20.2863 0.0967728L12.336 4.80681L12.3346 4.80724L12.3336 4.80837L12.3319 4.80933C12.2892 4.83457 12.2667 4.87956 12.2308 4.91254C12.1723 4.95653 12.1207 5.00939 12.0778 5.06923C12.0548 5.12566 12.0391 5.18485 12.0311 5.24541C12.0075 5.30231 11.9916 5.36216 11.9836 5.42338L11.9587 14.1653L8.25085 16.362C8.14516 16.4244 8.05741 16.5139 7.99629 16.6216C7.93518 16.7294 7.90282 16.8516 7.90257 16.9761L7.89232 20.5367L0.378334 24.9889L0.376968 24.9893L0.375944 24.9904L0.374237 24.9914C0.331552 25.0166 0.309013 25.0616 0.273167 25.0946C0.214657 25.1386 0.163078 25.1914 0.120197 25.2512C0.0971916 25.3077 0.0814699 25.3669 0.0734176 25.4275C0.0498833 25.4844 0.0339158 25.5442 0.0259558 25.6054L5.4674e-06 34.7103C-0.000482078 34.8359 0.0316457 34.9593 0.0930511 35.0681C0.154456 35.1769 0.242955 35.2672 0.349652 35.3299L8.12246 39.9046C8.22856 39.967 8.34896 39.9999 8.47143 40C8.59389 40.0001 8.71417 39.9675 8.82039 39.9053L8.8221 39.9035L16.2552 35.5001L19.9804 37.7074C20.0869 37.7708 20.2082 37.8042 20.3316 37.8042C20.4549 37.8042 20.5761 37.7708 20.6826 37.7074L24.5646 35.4077L32.1526 39.9033L32.1554 39.9054C32.2616 39.9676 32.3819 40.0002 32.5043 40.0001C32.6268 40 32.7472 39.9671 32.8533 39.9047L40.6261 35.33C40.7328 35.2673 40.8213 35.177 40.8827 35.0682C40.9441 34.9594 40.9763 34.8359 40.9758 34.7104L40.9498 25.6055ZM24.0684 12.8818L26.8062 14.5034L21.1333 17.8645L21.1483 12.3917L21.1538 10.4109L24.0845 8.67449L27.7069 6.52846L27.6882 13.3777L24.7705 11.6495C24.6102 11.5546 24.4194 11.5285 24.2402 11.5769C24.061 11.6254 23.9082 11.7444 23.8151 11.9078C23.722 12.0712 23.6962 12.2656 23.7437 12.4483C23.7912 12.6309 23.9081 12.7869 24.0684 12.8818ZM20.6389 1.53664L27.0145 5.28984L20.4548 9.17644L16.4786 6.83626L14.0789 5.42351L20.6389 1.53664ZM13.3783 6.65856L18.0421 9.40297L19.7552 10.4112L19.7504 12.224L19.734 17.8719L14.0905 14.5508L16.9075 12.8819C16.9873 12.8351 17.0573 12.7727 17.1134 12.6983C17.1695 12.6239 17.2106 12.539 17.2344 12.4483C17.2582 12.3577 17.2642 12.2631 17.252 12.17C17.2399 12.077 17.2098 11.9874 17.1636 11.9062C17.1174 11.8251 17.0559 11.7541 16.9826 11.6972C16.9094 11.6403 16.8258 11.5988 16.7368 11.5749C16.6477 11.5511 16.555 11.5454 16.4638 11.5582C16.3726 11.571 16.2849 11.6021 16.2055 11.6496L13.3598 13.3354L13.3783 6.65856ZM7.79279 32.4061L7.7764 38.0539L1.40013 34.3018L1.42062 26.8406L6.08451 29.585L7.79757 30.5933L7.79279 32.4061ZM8.4972 29.3585L2.12025 25.6053L7.88771 22.1881L7.87679 26.0811C7.87654 26.1747 7.89443 26.2675 7.92937 26.3541C7.96431 26.4408 8.01565 26.5195 8.08046 26.5859C8.14527 26.6523 8.22221 26.7051 8.30702 26.7411C8.39182 26.7772 8.48283 26.7958 8.57471 26.7961C8.75978 26.7959 8.93859 26.7211 9.06965 26.5879C9.20071 26.4546 9.2747 26.2739 9.27537 26.0852L9.28664 22.0744L15.0582 25.4712L8.4972 29.3585ZM15.7305 33.541L12.7281 31.762C12.5678 31.6671 12.377 31.641 12.1979 31.6894C12.0187 31.7378 11.8659 31.8569 11.7728 32.0203C11.6796 32.1837 11.6539 32.3781 11.7014 32.5607C11.7489 32.7434 11.8656 32.8994 12.0259 32.9943L14.8641 34.6761L9.1755 38.0466L9.19052 32.5738L9.19599 30.593L15.7491 26.7104L15.7305 33.541ZM24.175 24.8515C24.0688 24.9143 23.9806 25.0043 23.9192 25.1127C23.8974 25.1672 23.8824 25.2242 23.8745 25.2825C23.8495 25.3418 23.833 25.4044 23.8253 25.4684L23.8257 25.4698L23.8253 25.4712L23.8489 34.1835L20.3316 36.2672L17.1267 34.3682L17.152 25.4712L17.1516 25.4698L17.152 25.4684C17.1443 25.4044 17.1278 25.3418 17.1028 25.2825C17.0949 25.2242 17.0797 25.1672 17.0579 25.1127C16.9965 25.0043 16.9083 24.9143 16.8022 24.8515L9.29125 20.431L9.29979 17.389L12.6962 15.3769L20.0801 19.7227C20.1862 19.7851 20.3066 19.818 20.4291 19.8181C20.5515 19.8182 20.6718 19.7855 20.778 19.7234L20.7797 19.7216L28.1971 15.3276L31.6772 17.389L31.6854 20.4305L24.175 24.8515ZM25.9556 34.5836L28.6384 32.9943C28.7178 32.9473 28.7873 32.8848 28.843 32.8104C28.8986 32.736 28.9394 32.6512 28.963 32.5607C28.9865 32.4703 28.9923 32.376 28.98 32.2833C28.9678 32.1906 28.9379 32.1012 28.8918 32.0203C28.8457 31.9394 28.7843 31.8685 28.7113 31.8117C28.6384 31.755 28.5552 31.7134 28.4665 31.6894C28.3778 31.6654 28.2853 31.6595 28.1944 31.672C28.1034 31.6844 28.0156 31.715 27.9362 31.762L25.2449 33.3565L25.2265 26.7097L31.7806 30.5929L31.8008 38.0463L25.9556 34.5836ZM32.4799 29.3585L25.9189 25.4712L31.6898 22.074L31.7004 26.0852C31.7011 26.2739 31.7751 26.4546 31.9061 26.5879C32.0372 26.7211 32.2146 26.7959 32.3997 26.7961H32.4012C32.4931 26.7958 32.5839 26.7772 32.6688 26.7411C32.7536 26.7051 32.8307 26.6523 32.8955 26.5859C32.9603 26.5195 33.0116 26.4408 33.0466 26.3541C33.0815 26.2675 33.0992 26.1747 33.099 26.0811L33.0884 22.1885L38.8555 25.6054L32.4799 29.3585ZM33.2 38.0543L33.1796 30.5933L34.9223 29.5674L39.5551 26.8406L39.5756 34.3018L33.2 38.0543Z" fill="black"/>
</g>
<defs>
<clipPath id="clip0_644_1800">
<rect width="40.9756" height="40" fill="white"/>
</clipPath>
</defs>
</svg>
