<svg width="31" height="30" fill="none" xmlns="http://www.w3.org/2000/svg"><g clip-path="url(#a)" fill="silver"><path d="M16.613 12.669c.416-.469.76-.944 1.188-1.348a6.521 6.521 0 0 1 4.691-1.85c.995-.017 1.988.104 2.95.358a5.765 5.765 0 0 1 4.094 4.306c.408 1.611.592 3.271.545 4.933.006 3.506-.01 7.012-.002 10.519 0 .328-.092.414-.415.411a324.129 324.129 0 0 0-5.419 0c-.318.004-.386-.095-.385-.395.01-3.336.01-6.673.002-10.009a8.997 8.997 0 0 0-.291-2.485 2.793 2.793 0 0 0-3.073-2.177c-2.142.113-3.256 1.174-3.529 3.352a12.46 12.46 0 0 0-.095 1.565c.002 3.244-.004 6.49.008 9.734.002.323-.08.419-.41.416-1.82-.016-3.639-.017-5.458-.001-.292.002-.376-.077-.376-.372.008-6.424.008-12.848 0-19.272 0-.318.104-.391.404-.39 1.728.014 3.456.013 5.183 0 .318-.003.4.1.393.401-.017.768-.005 1.536-.005 2.304zM6.715 20.01c0 3.178-.005 6.356.008 9.534.001.353-.087.46-.452.456-1.806-.02-3.612-.015-5.417-.003-.29.003-.377-.07-.376-.369.008-6.434.009-12.869.001-19.303 0-.267.064-.362.347-.36 1.832.012 3.664.016 5.496-.002.351-.003.4.133.399.435-.01 3.204-.011 6.408-.006 9.612zM7.213 3.588A3.607 3.607 0 1 1 3.613 0a3.619 3.619 0 0 1 3.6 3.588z"/></g><defs><clipPath id="a"><path fill="#fff" d="M0 0h30.082v30H0z"/></clipPath></defs></svg>