<svg width="34" height="34" fill="none" xmlns="http://www.w3.org/2000/svg"><g clip-path="url(#a)" fill="#fff"><path d="M17 3.063c4.54 0 5.077.017 6.87.099a9.406 9.406 0 0 1 3.156.585 5.629 5.629 0 0 1 3.227 3.227 9.405 9.405 0 0 1 .585 3.156c.082 1.793.099 2.33.099 6.87s-.017 5.077-.1 6.87a9.407 9.407 0 0 1-.584 3.156 5.63 5.63 0 0 1-3.227 3.227 9.408 9.408 0 0 1-3.157.585c-1.792.081-2.33.099-6.869.099-4.54 0-5.077-.018-6.87-.1a9.408 9.408 0 0 1-3.156-.584 5.63 5.63 0 0 1-3.226-3.227 9.408 9.408 0 0 1-.586-3.157c-.082-1.792-.099-2.33-.099-6.869 0-4.54.017-5.077.1-6.87a9.407 9.407 0 0 1 .585-3.156 5.63 5.63 0 0 1 3.226-3.227 9.407 9.407 0 0 1 3.156-.585c1.793-.082 2.33-.099 6.87-.099zM17 0c-4.617 0-5.196.02-7.01.102-1.41.029-2.805.296-4.126.79A8.693 8.693 0 0 0 .892 5.864a12.478 12.478 0 0 0-.79 4.127C.02 11.804 0 12.383 0 17c0 4.617.02 5.196.102 7.01.029 1.41.296 2.805.79 4.126a8.693 8.693 0 0 0 4.972 4.972c1.321.494 2.717.762 4.127.79C11.804 33.98 12.383 34 17 34c4.617 0 5.196-.02 7.01-.102a12.476 12.476 0 0 0 4.126-.79 8.693 8.693 0 0 0 4.972-4.972c.494-1.321.762-2.717.79-4.127C33.98 22.196 34 21.617 34 17c0-4.617-.02-5.196-.102-7.01a12.48 12.48 0 0 0-.79-4.126A8.693 8.693 0 0 0 28.136.892a12.478 12.478 0 0 0-4.127-.79C22.196.02 21.617 0 17 0z"/><path d="M17 8.27a8.73 8.73 0 1 0 0 17.46 8.73 8.73 0 0 0 0-17.46zm0 14.397a5.666 5.666 0 1 1 0-11.333 5.666 5.666 0 0 1 0 11.333zM26.074 9.966a2.04 2.04 0 1 0 0-4.08 2.04 2.04 0 0 0 0 4.08z"/></g><defs><clipPath id="a"><path fill="#fff" d="M0 0h34v34H0z"/></clipPath></defs></svg>