<svg width="40" height="32" fill="none" xmlns="http://www.w3.org/2000/svg"><g clip-path="url(#a)"><path d="M12.383 32c14.859 0 22.985-12.31 22.985-22.985 0-.35-.008-.698-.024-1.044a16.438 16.438 0 0 0 4.03-4.183 16.127 16.127 0 0 1-4.639 1.272A8.106 8.106 0 0 0 38.288.59a16.19 16.19 0 0 1-5.13 1.961 8.086 8.086 0 0 0-13.767 7.367 22.935 22.935 0 0 1-16.65-8.44 8.084 8.084 0 0 0 2.5 10.784 8.018 8.018 0 0 1-3.658-1.01c-.002.034-.002.067-.002.103a8.082 8.082 0 0 0 6.48 7.92 8.066 8.066 0 0 1-3.647.138 8.087 8.087 0 0 0 7.546 5.61 16.21 16.21 0 0 1-10.033 3.459c-.644 0-1.287-.037-1.927-.112A22.869 22.869 0 0 0 12.383 32z" fill="silver"/></g><defs><clipPath id="a"><path fill="#fff" d="M0 0h39.374v32H0z"/></clipPath></defs></svg>