<svg width="43" height="30" viewBox="0 0 43 30" fill="none" xmlns="http://www.w3.org/2000/svg">
<g clip-path="url(#clip0_664_1853)">
<path d="M41.9615 4.68457C41.7173 3.77643 41.2387 2.94842 40.5737 2.28343C39.9087 1.61844 39.0807 1.13988 38.1726 0.89559C34.8304 1.78828e-05 21.4286 0 21.4286 0C21.4286 0 8.02676 1.78828e-05 4.68457 0.89559C3.77642 1.13987 2.94839 1.61844 2.28341 2.28343C1.61843 2.94842 1.13984 3.77642 0.895566 4.68457C2.02795e-06 8.02676 0 15 0 15C0 15 2.02795e-06 21.9732 0.895566 25.3154C1.13986 26.2236 1.61846 27.0517 2.28343 27.7167C2.94841 28.3816 3.77643 28.8602 4.68457 29.1045C8.02676 30 21.4286 30 21.4286 30C21.4286 30 34.8304 30 38.1726 29.1045C39.0807 28.8602 39.9087 28.3815 40.5737 27.7166C41.2387 27.0516 41.7172 26.2236 41.9615 25.3154C42.8571 21.9732 42.8571 15 42.8571 15C42.8571 15 42.8571 8.02676 41.9615 4.68457ZM17.1428 21.4286V8.57144L28.277 15.0002L17.1428 21.4286Z" fill="#C0C0C0"/>
</g>
<defs>
<clipPath id="clip0_664_1853">
<rect width="42.8571" height="30" fill="white"/>
</clipPath>
</defs>
</svg>
