<svg width="208" height="197" viewBox="0 0 208 197" fill="none" xmlns="http://www.w3.org/2000/svg">
<g clip-path="url(#clip0_622_5679)">
<path d="M121.239 1.19092H1.18945V195.809H157.525V37.5112L121.239 1.19092Z" fill="white" stroke="#7DC0F1" stroke-width="2" stroke-linecap="round" stroke-linejoin="round"/>
<path d="M157.526 37.5116H131.431C129.927 37.5116 128.439 37.2154 127.05 36.6395C125.661 36.0637 124.399 35.2195 123.336 34.1554C122.273 33.0914 121.429 31.8281 120.854 30.4378C120.279 29.0476 119.982 27.5577 119.982 26.0529V1.19092" stroke="#7DC0F1" stroke-width="2" stroke-linecap="round" stroke-linejoin="round"/>
<path d="M197.932 163.938H117.119L123.276 144.283C123.742 142.793 124.672 141.491 125.93 140.567C127.187 139.642 128.706 139.144 130.266 139.144H184.785C186.345 139.144 187.864 139.642 189.122 140.567C190.379 141.491 191.309 142.793 191.775 144.283L197.932 163.938Z" fill="white" stroke="#7DC0F1" stroke-width="2" stroke-linecap="round" stroke-linejoin="round"/>
<path d="M199.348 158.929H115.704C111.583 158.929 108.242 162.273 108.242 166.398V166.398C108.242 170.523 111.583 173.867 115.704 173.867H199.348C203.469 173.867 206.81 170.523 206.81 166.398C206.81 162.273 203.469 158.929 199.348 158.929Z" fill="white" stroke="#7DC0F1" stroke-width="2" stroke-linecap="round" stroke-linejoin="round"/>
<path d="M169.437 139.144H145.615L141.17 95.2919C140.938 93.0025 141.188 90.6899 141.904 88.5034C142.621 86.3168 143.787 84.305 145.328 82.5977C146.87 80.8904 148.752 79.5257 150.853 78.5917C152.954 77.6576 155.227 77.1753 157.526 77.1753C159.825 77.1753 162.099 77.6576 164.2 78.5917C166.301 79.5257 168.182 80.8904 169.724 82.5977C171.265 84.305 172.432 86.3168 173.148 88.5034C173.864 90.6899 174.115 93.0025 173.882 95.2919L169.437 139.144Z" fill="white" stroke="#7DC0F1" stroke-width="2" stroke-linecap="round" stroke-linejoin="round"/>
<path d="M21.7207 33.042H106.714" stroke="#7DC0F1" stroke-width="2" stroke-linecap="round" stroke-linejoin="round"/>
<path d="M21.7207 56.8398H106.714" stroke="#7DC0F1" stroke-width="2" stroke-linecap="round" stroke-linejoin="round"/>
<path d="M21.7207 80.6382H106.714" stroke="#7DC0F1" stroke-width="2" stroke-linecap="round" stroke-linejoin="round"/>
<path d="M55.3044 173.867C73.4321 173.867 88.1274 159.158 88.1274 141.013C88.1274 122.869 73.4321 108.16 55.3044 108.16C37.1768 108.16 22.4814 122.869 22.4814 141.013C22.4814 159.158 37.1768 173.867 55.3044 173.867Z" stroke="#7DC0F1" stroke-width="2" stroke-linecap="round" stroke-linejoin="round"/>
<path d="M51.5717 157.004C50.9532 157.004 50.3426 156.866 49.784 156.6C49.2254 156.334 48.733 155.948 48.3424 155.468L37.71 142.398L44.1685 137.134L51.3358 145.943L66.0947 125.023L72.8995 129.831L54.9741 155.239C54.6033 155.765 54.1162 156.197 53.5507 156.503C52.9853 156.809 52.3569 156.979 51.7147 157.001C51.667 157.003 51.6193 157.004 51.5717 157.004Z" stroke="#7DC0F1" stroke-width="2" stroke-linecap="round" stroke-linejoin="round"/>
</g>
<defs>
<clipPath id="clip0_622_5679">
<rect width="208" height="197" fill="white"/>
</clipPath>
</defs>
</svg>
