<svg width="60" height="60" viewBox="0 0 60 60" fill="none" xmlns="http://www.w3.org/2000/svg">
<g clip-path="url(#clip0_622_3463)">
<path d="M30.56 31.5962L53.5704 23.0212C53.698 22.9736 53.8081 22.8881 53.8858 22.7762C53.9635 22.6643 54.0051 22.5313 54.0051 22.395C54.0051 22.2588 53.9635 22.1258 53.8858 22.0139C53.8081 21.902 53.698 21.8164 53.5704 21.7688L30.56 13.1939C29.865 12.9354 29.1001 12.9354 28.405 13.1939L5.39469 21.7688C5.26704 21.8164 5.15701 21.902 5.07931 22.0139C5.00161 22.1258 4.95996 22.2588 4.95996 22.395C4.95996 22.5313 5.00161 22.6643 5.07931 22.7762C5.15701 22.8881 5.26704 22.9736 5.39469 23.0212L28.405 31.5962C29.1001 31.8547 29.865 31.8547 30.56 31.5962ZM29.4825 33.8582C28.8682 33.8583 28.2587 33.7485 27.683 33.534L13.5707 28.275V41.7631C13.5707 44.2351 20.3754 47 29.4825 47C38.5896 47 45.3943 44.2351 45.3943 41.7631V28.275L31.282 33.534C30.7063 33.7484 30.0969 33.8582 29.4825 33.8582ZM53.073 34.8094V25.4287L51.5219 26.0049V34.8095C50.9623 34.9443 50.4643 35.2632 50.1077 35.7151C49.7512 36.167 49.5569 36.7256 49.5561 37.3012V43.1787H55.0392V37.3012C55.0383 36.7256 54.844 36.1669 54.4874 35.715C54.1308 35.2631 53.6327 34.9442 53.073 34.8094Z" fill="#00476B"/>
</g>
<defs>
<clipPath id="clip0_622_3463">
<rect width="50.0792" height="34" fill="white" transform="translate(4.95996 13)"/>
</clipPath>
</defs>
</svg>
