<svg width="60" height="60" viewBox="0 0 60 60" fill="none" xmlns="http://www.w3.org/2000/svg">
<g clip-path="url(#clip0_622_3437)">
<path d="M38.9294 21.6577C37.4326 15.7728 34.4045 11.5811 30.8477 11V23.4042C33.6259 23.323 36.3655 22.731 38.9294 21.6577Z" fill="#F47D39"/>
<path d="M29.1513 23.4041V11.0034C25.6621 11.602 22.6241 15.8395 21.1035 21.6712C23.6578 22.7355 26.3854 23.3228 29.1513 23.4041Z" fill="#F47D39"/>
<path d="M29.1513 48.9965V36.5958C26.3854 36.6771 23.6578 37.2644 21.1035 38.3288C22.6241 44.1605 25.6622 48.398 29.1513 48.9965Z" fill="#F47D39"/>
<path d="M20.0674 29.9999C20.0645 32.2374 20.2832 34.4698 20.7201 36.6643C23.4036 35.581 26.2583 34.9833 29.151 34.8993V25.1006C26.2583 25.0165 23.4036 24.4189 20.7201 23.3356C20.2832 25.53 20.0645 27.7623 20.0674 29.9999Z" fill="#F47D39"/>
<path d="M45.9273 18.6886C44.5245 20.3122 42.8136 21.6415 40.8936 22.5993C41.8743 27.4844 41.8743 32.5158 40.8936 37.4009C42.8135 38.3587 44.5244 39.6879 45.927 41.3116C48.2767 38.0078 49.5393 34.0543 49.5393 30.0001C49.5394 25.946 48.2769 21.9924 45.9273 18.6886Z" fill="#F47D39"/>
<path d="M40.4932 20.8954C42.1761 20.0119 43.6622 18.7961 44.8618 17.3217C42.2546 14.2605 38.7664 12.0784 34.873 11.0731C37.3443 13.0612 39.3298 16.5347 40.4932 20.8954Z" fill="#F47D39"/>
<path d="M40.4932 39.1046C39.3298 43.4652 37.3443 46.9387 34.873 48.9268C38.7663 47.9215 42.2546 45.7394 44.8618 42.6783C43.6622 41.204 42.176 39.9882 40.4932 39.1046Z" fill="#F47D39"/>
<path d="M19.1058 37.4007C18.125 32.5156 18.125 27.4843 19.1058 22.5992C17.1857 21.6413 15.4748 20.312 14.072 18.6884C11.7224 21.9922 10.46 25.9458 10.46 30C10.46 34.0541 11.7224 38.0077 14.072 41.3116C15.4747 39.6878 17.1857 38.3585 19.1058 37.4007Z" fill="#F47D39"/>
<path d="M30.8477 36.5958V49C34.4045 48.4189 37.4326 44.2271 38.9294 38.3424C36.3655 37.2691 33.6259 36.677 30.8477 36.5958Z" fill="#F47D39"/>
<path d="M19.5063 39.1046C17.8234 39.9881 16.3372 41.2039 15.1377 42.6783C17.7448 45.7395 21.2329 47.9216 25.1262 48.9268C22.6552 46.9388 20.6697 43.4652 19.5063 39.1046Z" fill="#F47D39"/>
<path d="M19.5063 20.8953C20.6697 16.5346 22.6551 13.0612 25.1262 11.0731C21.233 12.0784 17.7449 14.2605 15.1377 17.3215C16.3372 18.7959 17.8234 20.0117 19.5063 20.8953Z" fill="#F47D39"/>
<path d="M39.9318 29.9999C39.9364 27.7602 39.7258 25.5253 39.3029 23.3259C36.6124 24.4156 33.7492 25.0166 30.8477 25.1007V34.8992C33.7492 34.9834 36.6124 35.5845 39.3029 36.6742C39.7258 34.4747 39.9364 32.2396 39.9318 29.9999Z" fill="#F47D39"/>
</g>
<defs>
<clipPath id="clip0_622_3437">
<rect width="39.0794" height="38" fill="white" transform="translate(10.46 11)"/>
</clipPath>
</defs>
</svg>
