<svg width="60" height="60" viewBox="0 0 60 60" fill="none" xmlns="http://www.w3.org/2000/svg">
<g clip-path="url(#clip0_622_3476)">
<path d="M44.3772 47V40.5168C44.3761 37.4929 43.3174 34.5647 41.3844 32.2394C39.4514 29.914 36.766 28.338 33.7933 27.7843C35.3316 26.942 36.5458 25.6116 37.2443 24.0028C37.9429 22.3941 38.0861 20.5986 37.6514 18.8995C37.2166 17.2004 36.2287 15.6943 34.8433 14.6188C33.4579 13.5433 31.754 12.9595 30.0001 12.9595C28.2463 12.9595 26.5423 13.5433 25.157 14.6188C23.7716 15.6943 22.7837 17.2004 22.3489 18.8995C21.9142 20.5986 22.0574 22.3941 22.7559 24.0028C23.4545 25.6116 24.6687 26.942 26.207 27.7843C23.2343 28.3381 20.5489 29.9141 18.616 32.2395C16.683 34.5648 15.6243 37.493 15.623 40.5168V47H44.3772Z" fill="#969696"/>
</g>
<defs>
<clipPath id="clip0_622_3476">
<rect width="28.7542" height="34" fill="white" transform="translate(15.623 13)"/>
</clipPath>
</defs>
</svg>
