<svg width="60" height="60" viewBox="0 0 60 60" fill="none" xmlns="http://www.w3.org/2000/svg">
<g clip-path="url(#clip0_622_3454)">
<path d="M22.0864 31.1382C21.3937 29.8505 21.031 28.4111 21.0307 26.9489C21.0311 25.4845 21.3912 24.0426 22.0793 22.7499C22.7674 21.4572 23.7625 20.3533 24.9771 19.5352C24.989 19.3806 24.9965 19.2247 24.9965 19.0669C25.0021 17.9948 24.7234 16.9404 24.1889 16.011C23.6544 15.0817 22.8832 14.3105 21.9538 13.7761C21.0243 13.2417 19.9699 12.9632 18.8978 12.9688C17.8257 12.9745 16.7743 13.2641 15.8505 13.8083C14.9268 14.3524 14.1637 15.1316 13.639 16.0666C13.1144 17.0015 12.8468 18.0588 12.8637 19.1308C12.8805 20.2028 13.1811 21.2512 13.7348 22.1692C14.2886 23.0872 15.0757 23.8421 16.016 24.357C13.7325 24.7823 11.6697 25.993 10.1848 27.7793C8.69997 29.5655 7.88665 31.8149 7.88574 34.1377V39.1179H16.3936C17.1618 35.8101 19.2086 32.941 22.0864 31.1382Z" fill="#569FD6"/>
<path d="M43.9837 24.3569C44.9191 23.8407 45.7013 23.0863 46.2509 22.1701C46.8004 21.2539 47.0978 20.2086 47.1128 19.1403C47.1279 18.072 46.86 17.0188 46.3363 16.0876C45.8127 15.1563 45.052 14.3801 44.1315 13.8379C43.2109 13.2956 42.1633 13.0066 41.0949 13.0001C40.0266 12.9936 38.9755 13.2699 38.0485 13.801C37.1214 14.332 36.3513 15.0988 35.8165 16.0237C35.2816 16.9485 35.0009 17.9984 35.0029 19.0668C35.0029 19.2392 35.0125 19.4091 35.0268 19.5776C36.2253 20.3978 37.2058 21.4977 37.8836 22.7821C38.5614 24.0664 38.916 25.4966 38.9168 26.9489C38.9167 28.4112 38.5538 29.8506 37.8606 31.1382C40.7387 32.9408 42.7858 35.8099 43.5539 39.1179H52.1137V34.1376C52.1129 31.8148 51.2997 29.5655 49.8149 27.7792C48.33 25.9929 46.2672 24.7822 43.9837 24.3569Z" fill="#569FD6"/>
<path d="M41.0442 47.0001V42.0198C41.0434 39.697 40.2301 37.4476 38.7452 35.6613C37.2604 33.8751 35.1975 32.6644 32.9139 32.2391C34.0956 31.5921 35.0283 30.5701 35.5649 29.3343C36.1016 28.0985 36.2116 26.7192 35.8776 25.414C35.5437 24.1088 34.7847 22.9519 33.7205 22.1257C32.6563 21.2995 31.3474 20.8511 30.0001 20.8511C28.6529 20.8511 27.3439 21.2995 26.2797 22.1257C25.2155 22.9519 24.4566 24.1088 24.1227 25.414C23.7887 26.7192 23.8987 28.0985 24.4353 29.3343C24.972 30.5701 25.9046 31.5921 27.0863 32.2391C24.8028 32.6645 22.74 33.8752 21.2552 35.6614C19.7703 37.4477 18.957 39.697 18.9561 42.0198V47.0001H41.0442Z" fill="#569FD6"/>
</g>
<defs>
<clipPath id="clip0_622_3454">
<rect width="44.228" height="34" fill="white" transform="translate(7.88574 13)"/>
</clipPath>
</defs>
</svg>
