<svg width="45" height="38" viewBox="0 0 45 38" fill="none" xmlns="http://www.w3.org/2000/svg">
<g clip-path="url(#clip0_650_4353)">
<path d="M22.125 17.6553C22.0327 17.6554 21.9412 17.6372 21.8558 17.6018C21.7705 17.5664 21.6931 17.5145 21.6279 17.4491L13.504 9.32532C13.4387 9.25996 13.3869 9.18241 13.3515 9.09701C13.3162 9.01161 13.2979 8.92004 13.2979 8.82761C13.2979 8.73517 13.3162 8.64367 13.3515 8.55828C13.3869 8.47288 13.4387 8.39525 13.504 8.3299L21.6277 0.206186C21.693 0.140823 21.7705 0.0890035 21.8558 0.0536226C21.9411 0.0182416 22.0325 0 22.1249 0C22.2172 0 22.3088 0.0182416 22.3941 0.0536226C22.4794 0.0890035 22.5568 0.140823 22.622 0.206186L30.7457 8.3299C30.8111 8.39525 30.863 8.47288 30.8984 8.55828C30.9337 8.64367 30.9519 8.73517 30.9519 8.82761C30.9519 8.92004 30.9337 9.01161 30.8984 9.09701C30.863 9.18241 30.8111 9.25996 30.7457 9.32532L22.622 17.449C22.5568 17.5145 22.4794 17.5664 22.3941 17.6018C22.3088 17.6372 22.2174 17.6554 22.125 17.6553ZM14.9967 8.82768L22.125 15.956L29.2533 8.82768L22.125 1.69938L14.9967 8.82768Z" fill="black"/>
<path d="M27.3496 38.0005H16.9006C16.8082 38.0004 16.7166 37.9822 16.6313 37.9468C16.5459 37.9114 16.4685 37.8596 16.4032 37.7942C16.3379 37.7289 16.286 37.6512 16.2507 37.5658C16.2153 37.4805 16.1972 37.389 16.1973 37.2966V26.7508C16.1972 26.6584 16.2153 26.5669 16.2507 26.4815C16.286 26.3961 16.3379 26.3185 16.4032 26.2531C16.4685 26.1878 16.5459 26.136 16.6313 26.1006C16.7166 26.0652 16.8082 26.0469 16.9006 26.0469H27.3496C27.442 26.0469 27.5334 26.0652 27.6188 26.1006C27.7042 26.136 27.7817 26.1878 27.847 26.2531C27.9123 26.3185 27.9642 26.3961 27.9995 26.4815C28.0349 26.5669 28.053 26.6584 28.0529 26.7508V37.2966C28.053 37.389 28.0349 37.4805 27.9995 37.5658C27.9642 37.6512 27.9123 37.7289 27.847 37.7942C27.7817 37.8596 27.7042 37.9114 27.6188 37.9468C27.5334 37.9822 27.442 38.0004 27.3496 38.0005ZM17.6039 36.5927H26.6463V27.4547H17.6039V36.5927Z" fill="black"/>
<path d="M43.5461 38.0005H33.0959C33.0035 38.0004 32.9119 37.9822 32.8266 37.9468C32.7412 37.9114 32.6638 37.8596 32.5985 37.7942C32.5332 37.7289 32.4813 37.6512 32.446 37.5658C32.4107 37.4805 32.3925 37.389 32.3926 37.2966V26.7508C32.3925 26.6584 32.4107 26.5669 32.446 26.4815C32.4813 26.3961 32.5332 26.3185 32.5985 26.2531C32.6638 26.1878 32.7412 26.136 32.8266 26.1006C32.9119 26.0652 33.0035 26.0469 33.0959 26.0469H43.5461C43.6385 26.0469 43.7299 26.0652 43.8153 26.1006C43.9006 26.136 43.9782 26.1878 44.0435 26.2531C44.1088 26.3185 44.1605 26.3961 44.1958 26.4815C44.2312 26.5669 44.2494 26.6584 44.2494 26.7508V37.2966C44.2494 37.389 44.2312 37.4805 44.1958 37.5658C44.1605 37.6512 44.1088 37.7289 44.0435 37.7942C43.9782 37.8596 43.9006 37.9114 43.8153 37.9468C43.7299 37.9822 43.6385 38.0004 43.5461 38.0005ZM33.7992 36.5927H42.8428V27.4547H33.7992V36.5927Z" fill="black"/>
<path d="M11.1535 38.0005H0.703322C0.610922 38.0004 0.519488 37.9822 0.434135 37.9468C0.348783 37.9114 0.271209 37.8596 0.205899 37.7942C0.140589 37.7289 0.0887319 37.6512 0.0534079 37.5658C0.0180838 37.4805 -3.99912e-05 37.389 6.62565e-08 37.2966V26.7508C-3.84506e-05 26.6584 0.0180833 26.5669 0.0534079 26.4815C0.0887324 26.3961 0.14059 26.3185 0.205899 26.2531C0.271209 26.1878 0.348783 26.136 0.434135 26.1006C0.519487 26.0652 0.610922 26.0469 0.703322 26.0469H11.1535C11.2459 26.0469 11.3373 26.0652 11.4227 26.1006C11.508 26.136 11.5856 26.1878 11.6509 26.2531C11.7162 26.3185 11.7681 26.3961 11.8034 26.4815C11.8387 26.5669 11.8569 26.6584 11.8568 26.7508V37.2966C11.8569 37.389 11.8387 37.4805 11.8034 37.5658C11.7681 37.6512 11.7162 37.7289 11.6509 37.7942C11.5856 37.8596 11.508 37.9115 11.4227 37.9469C11.3373 37.9823 11.2459 38.0005 11.1535 38.0005ZM1.40664 36.5927H10.4502V27.4547H1.40664V36.5927Z" fill="black"/>
<path d="M5.92793 27.4545C5.83553 27.4545 5.74395 27.4362 5.6586 27.4008C5.57325 27.3654 5.49582 27.3136 5.43051 27.2482C5.3652 27.1829 5.31334 27.1052 5.27802 27.0199C5.24269 26.9345 5.22457 26.843 5.22461 26.7506V8.82792C5.22457 8.73552 5.24269 8.64404 5.27802 8.55866C5.31334 8.47328 5.3652 8.39564 5.43051 8.33028C5.49582 8.26492 5.57325 8.21311 5.6586 8.17772C5.74395 8.14232 5.83553 8.12406 5.92793 8.12402H14.0012C14.1874 8.12478 14.3657 8.19929 14.4971 8.33121C14.6285 8.46313 14.7023 8.64173 14.7023 8.82792C14.7023 9.01411 14.6285 9.1927 14.4971 9.32463C14.3657 9.45655 14.1874 9.53105 14.0012 9.53181H6.63125V26.7506C6.63129 26.843 6.61317 26.9345 6.57785 27.0199C6.54252 27.1052 6.49066 27.1829 6.42535 27.2482C6.36004 27.3136 6.28247 27.3654 6.19712 27.4008C6.11177 27.4362 6.02033 27.4545 5.92793 27.4545Z" fill="black"/>
<path d="M38.3222 27.4545C38.2298 27.4545 38.1382 27.4362 38.0529 27.4008C37.9675 27.3654 37.8901 27.3136 37.8248 27.2482C37.7595 27.1829 37.7076 27.1052 37.6723 27.0199C37.637 26.9345 37.6188 26.843 37.6189 26.7506V9.53181H30.2489C30.0627 9.53105 29.8844 9.45655 29.753 9.32463C29.6216 9.1927 29.5479 9.01411 29.5479 8.82792C29.5479 8.64173 29.6216 8.46313 29.753 8.33121C29.8844 8.19929 30.0627 8.12478 30.2489 8.12402H38.3222C38.4146 8.12406 38.506 8.14232 38.5914 8.17772C38.6767 8.21311 38.7543 8.26492 38.8196 8.33028C38.8849 8.39564 38.9368 8.47328 38.9721 8.55866C39.0074 8.64404 39.0256 8.73552 39.0255 8.82792V26.7506C39.0256 26.843 39.0074 26.9345 38.9721 27.0199C38.9368 27.1052 38.8849 27.1829 38.8196 27.2482C38.7543 27.3136 38.6767 27.3654 38.5914 27.4008C38.506 27.4362 38.4146 27.4545 38.3222 27.4545Z" fill="black"/>
<path d="M22.1252 27.4542C22.0328 27.4542 21.9412 27.4359 21.8559 27.4005C21.7705 27.3651 21.6931 27.3133 21.6278 27.248C21.5625 27.1826 21.5106 27.105 21.4753 27.0196C21.44 26.9342 21.4218 26.8427 21.4219 26.7503V16.9514C21.4219 16.7648 21.4959 16.5859 21.6278 16.454C21.7597 16.3221 21.9387 16.248 22.1252 16.248C22.3117 16.248 22.4906 16.3221 22.6225 16.454C22.7544 16.5859 22.8285 16.7648 22.8285 16.9514V26.7503C22.8286 26.8427 22.8104 26.9342 22.7751 27.0196C22.7398 27.105 22.6879 27.1826 22.6226 27.248C22.5573 27.3133 22.4797 27.3651 22.3944 27.4005C22.309 27.4359 22.2176 27.4542 22.1252 27.4542Z" fill="black"/>
</g>
<defs>
<clipPath id="clip0_650_4353">
<rect width="44.2497" height="38" fill="white"/>
</clipPath>
</defs>
</svg>
