<svg width="38" height="38" viewBox="0 0 38 38" fill="none" xmlns="http://www.w3.org/2000/svg">
<g clip-path="url(#clip0_650_4348)">
<path d="M19 38C12.428 38 0 36.8702 0 32.5943V5.40566C0 1.12984 12.428 0 19 0C25.5721 0 38 1.12984 38 5.40566V32.5943C38 36.8702 25.572 38 19 38ZM1.74905 32.7528L1.96638 33.0133C3.29257 34.6053 10.0256 36.2522 19 36.2522C27.9744 36.2522 34.7088 34.6052 36.0349 33.0133L36.2523 32.7528V26.1027L34.947 26.6552C29.713 28.8736 20.0814 28.9371 19 28.9371C17.9186 28.9371 8.28837 28.8736 3.0543 26.6552L1.74905 26.1027V32.7528ZM1.74905 23.6899L1.96638 23.9504C3.29257 25.5424 10.0256 27.1893 19 27.1893C27.9744 27.1893 34.7088 25.5423 36.0349 23.9504L36.2523 23.6899V17.0398L34.947 17.5923C29.713 19.8107 20.0814 19.8742 19 19.8742C17.9186 19.8742 8.28837 19.8107 3.0543 17.5923L1.74905 17.0398V23.6899ZM1.74905 14.627L1.96638 14.8882C3.29257 16.4795 10.0269 18.1257 19 18.1257C27.9744 18.1257 34.7088 16.4795 36.0349 14.8882L36.2523 14.627V7.97692L34.947 8.5294C29.7143 10.7472 20.0814 10.8107 19 10.8107C17.9186 10.8107 8.28705 10.7472 3.0543 8.5294L1.74905 7.97692V14.627ZM19 1.74777C10.514 1.74777 4.0532 3.25531 2.28189 4.67317L1.36677 5.40566L2.28189 6.13816C4.05451 7.55602 10.5153 9.06289 19 9.06289C27.4834 9.06289 33.9455 7.55604 35.7194 6.13881L36.6358 5.40566L35.7194 4.67251C33.9468 3.25465 27.4847 1.74777 19 1.74777Z" fill="black"/>
</g>
<defs>
<clipPath id="clip0_650_4348">
<rect width="38" height="38" fill="white"/>
</clipPath>
</defs>
</svg>
