<svg width="42" height="40" viewBox="0 0 42 40" fill="none" xmlns="http://www.w3.org/2000/svg">
<g clip-path="url(#clip0_650_4351)">
<path d="M20.2841 40.0068C18.7778 39.9815 17.3017 39.5808 15.9894 38.8411L12.1682 37.296C12.1698 37.4787 12.1007 37.6549 11.9755 37.788C11.8503 37.9211 11.6786 38.0007 11.4962 38.0102L1.19779 38.5489C1.104 38.5541 1.0101 38.5405 0.921656 38.5089C0.833208 38.4772 0.752002 38.4282 0.68276 38.3647C0.613569 38.3013 0.557543 38.2248 0.517914 38.1397C0.478286 38.0546 0.45583 37.9625 0.451803 37.8688L-0.00433701 26.3665C-0.0116513 26.18 0.0547872 25.9982 0.180573 25.8603C0.306358 25.7224 0.48137 25.6396 0.667748 25.6298L10.965 25.0882C11.0588 25.0825 11.1529 25.0958 11.2414 25.1274C11.3299 25.1591 11.4111 25.2085 11.48 25.2724C11.5492 25.3358 11.6052 25.4123 11.6448 25.4974C11.6845 25.5825 11.707 25.6746 11.711 25.7684L11.7179 25.9393L16.091 25.7863C16.1316 25.7844 16.1722 25.7865 16.2123 25.7927C18.2278 26.1853 20.1535 26.9465 21.8927 28.0381L26.1954 27.9111C26.6058 27.9038 27.0118 27.9967 27.3782 28.1818C27.7446 28.3668 28.0605 28.6383 28.2983 28.9729L32.5548 26.7511C33.1797 26.4428 33.8923 26.3614 34.5706 26.5206C35.249 26.6799 35.8508 27.07 36.2732 27.6242C36.6108 28.1817 36.7442 28.8392 36.6507 29.4843C36.5572 30.1294 36.2425 30.722 35.7605 31.1607C32.402 33.9708 28.7692 36.4358 24.9171 38.5184C23.557 39.468 21.9427 39.9866 20.2841 40.0068ZM12.107 35.7405L16.5911 37.5581C17.7441 38.2704 19.0821 38.6254 20.4365 38.5786C21.7909 38.5317 23.1012 38.085 24.2023 37.2948C27.9646 35.2603 31.5153 32.8567 34.802 30.1196C35.0353 29.909 35.1909 29.6259 35.2437 29.3161C35.2965 29.0062 35.2434 28.6876 35.093 28.4116C34.8563 28.1367 34.5332 27.9505 34.1766 27.8838C33.82 27.817 33.4512 27.8737 33.1311 28.0444L28.5535 30.44C28.3985 30.9929 28.0549 31.4742 27.5823 31.8004C26.5857 32.596 24.5879 32.9332 21.6802 32.7814C21.4922 32.7717 21.3158 32.6879 21.1896 32.5482C21.0633 32.4086 20.9976 32.2245 21.007 32.0365C21.0296 31.8537 21.1173 31.685 21.2541 31.5616C21.3909 31.4382 21.5676 31.3682 21.7518 31.3644C24.1653 31.4857 26.021 31.2311 26.7162 30.6763C26.9414 30.5082 27.2728 30.2005 27.1654 29.8667C27.0772 29.6908 26.938 29.5454 26.766 29.4497C26.594 29.3539 26.3972 29.3121 26.2012 29.3297L21.7345 29.4626C21.6032 29.469 21.473 29.4362 21.3603 29.3685C19.7427 28.3378 17.9533 27.6056 16.0772 27.2066L11.7745 27.3568L12.107 35.7405ZM1.44145 27.0097L1.84101 37.0945L10.7225 36.6297L10.3217 26.5426L1.44145 27.0097ZM40.83 23.994H7.66112C7.36581 23.9936 7.0827 23.876 6.87399 23.6671C6.66528 23.4581 6.54802 23.175 6.54791 22.8797V21.114C6.54803 20.8187 6.66528 20.5355 6.87399 20.3266C7.0827 20.1176 7.36581 20 7.66112 19.9996H8.19925C7.99318 16.4704 9.14556 12.9961 11.4199 10.2896C14.1969 6.95695 18.1596 4.83313 22.4724 4.36615V3.75642H21.8765C21.5776 3.75598 21.2911 3.63704 21.0799 3.42565C20.8686 3.21425 20.7497 2.92766 20.7494 2.62877V1.13391C20.7498 0.835112 20.8687 0.548674 21.08 0.337393C21.2913 0.126112 21.5777 0.00723953 21.8765 0.00683594H26.6804C26.9792 0.00723952 27.2657 0.126113 27.4769 0.337393C27.6882 0.548673 27.8071 0.83511 27.8075 1.13391V2.62877C27.8072 2.92766 27.6884 3.21418 27.4771 3.42558C27.2658 3.63697 26.9793 3.75598 26.6804 3.75642H26.1204V4.38C30.4244 4.87654 34.369 7.02058 37.1266 10.3624C39.3704 13.0549 40.5047 16.5008 40.2988 19.9996H40.83C41.1254 20 41.4087 20.1175 41.6176 20.3264C41.8265 20.5353 41.944 20.8186 41.9444 21.114V22.8797C41.944 23.1751 41.8265 23.4583 41.6176 23.6672C41.4087 23.8761 41.1254 23.9936 40.83 23.994ZM7.96599 22.5748H40.5263V21.4188H7.96599V22.5748ZM9.62079 19.9996H38.8761C39.0842 16.8278 38.0637 13.6975 36.0261 11.2579C34.7103 9.66647 33.0871 8.35672 31.2535 7.40691C29.42 6.4571 27.4137 5.88674 25.3547 5.72995C25.177 5.71567 25.0111 5.63498 24.8902 5.5039C24.7693 5.37282 24.7022 5.20097 24.7023 5.02264V3.04681C24.7022 2.95366 24.7205 2.86143 24.7561 2.77536C24.7917 2.68929 24.844 2.61102 24.9098 2.54512C24.9757 2.47923 25.0539 2.427 25.1399 2.39132C25.226 2.35564 25.3182 2.33723 25.4113 2.33719H26.3894V1.42607H22.1675V2.33719H23.1814C23.2746 2.33723 23.3668 2.35564 23.4528 2.39132C23.5388 2.427 23.6171 2.47923 23.6829 2.54512C23.7487 2.61102 23.801 2.68929 23.8366 2.77536C23.8722 2.86143 23.8905 2.95366 23.8905 3.04681V5.01283C23.8906 5.192 23.823 5.36457 23.7011 5.49589C23.5792 5.62721 23.4121 5.70754 23.2334 5.72071C21.1706 5.86257 19.1578 6.42024 17.3161 7.36021C15.4745 8.30019 13.842 9.60305 12.517 11.1903C10.4518 13.6435 9.41418 16.7996 9.62079 19.9996Z" fill="black"/>
</g>
<defs>
<clipPath id="clip0_650_4351">
<rect width="41.9492" height="40" fill="white" transform="translate(-0.00488281 0.00683594)"/>
</clipPath>
</defs>
</svg>
