<svg width="45" height="38" viewBox="0 0 45 38" fill="none" xmlns="http://www.w3.org/2000/svg">
<g clip-path="url(#clip0_650_4366)">
<path d="M22.2043 38.0029C19.7035 38.0029 18.1081 36.7805 15.2113 34.5602C8.27283 29.2423 0 21.2872 0 13.5883C0 7.46263 2.716 2.68847 7.26419 0.816817C11.9358 -1.10361 17.4725 0.422254 22.2043 4.89369C26.9362 0.421548 32.4715 -1.10357 37.1416 0.816817C41.6912 2.68775 44.4072 7.46198 44.4072 13.5883C44.4072 21.2858 36.1359 29.2416 29.1973 34.5602C26.2991 36.7805 24.7037 38.0029 22.2043 38.0029ZM11.4192 1.62172C10.2055 1.61714 9.00279 1.85163 7.8797 2.31184C3.95707 3.9245 1.61554 8.14054 1.61554 13.5883C1.61554 20.9989 10.7507 29.1052 16.1956 33.2775C18.9804 35.4124 20.2516 36.3874 22.2043 36.3874C24.1556 36.3874 25.4268 35.4132 28.2131 33.2782C33.658 29.1045 42.7917 20.9981 42.7917 13.5883C42.7917 8.14056 40.4502 3.9245 36.5275 2.31112C32.295 0.572196 27.1557 2.16908 22.7782 6.59172C22.6237 6.73929 22.4182 6.82169 22.2045 6.82182C21.9908 6.82196 21.7852 6.73982 21.6304 6.59244C19.0196 3.64825 15.3471 1.86049 11.4192 1.62172Z" fill="black"/>
<path d="M24.1048 12.246V17.4764H29.3348V21.2794H24.1048V26.5097H20.3019V21.2794H15.0715V17.4764H20.3019V12.246H24.1048ZM24.1048 10.6299H20.3019C19.8733 10.6299 19.4621 10.8002 19.159 11.1033C18.8559 11.4063 18.6857 11.8173 18.6857 12.246V15.8602H15.0713C14.6427 15.8602 14.2316 16.0305 13.9285 16.3336C13.6255 16.6367 13.4551 17.0477 13.4551 17.4764V21.2794C13.4551 21.708 13.6255 22.119 13.9285 22.4221C14.2316 22.7252 14.6427 22.8954 15.0713 22.8955H18.6857V26.5097C18.6857 26.9383 18.8559 27.3493 19.159 27.6524C19.4621 27.9555 19.8733 28.1258 20.3019 28.1258H24.1048C24.5334 28.1258 24.9444 27.9555 25.2475 27.6524C25.5506 27.3493 25.721 26.9383 25.721 26.5097V22.8955H29.3348C29.7634 22.8954 30.1745 22.7252 30.4776 22.4221C30.7807 22.119 30.951 21.708 30.9511 21.2794V17.4764C30.951 17.0477 30.7807 16.6367 30.4776 16.3336C30.1745 16.0305 29.7634 15.8602 29.3348 15.8602H25.721V12.246C25.721 11.8173 25.5506 11.4063 25.2475 11.1033C24.9444 10.8002 24.5334 10.6299 24.1048 10.6299Z" fill="black"/>
</g>
<defs>
<clipPath id="clip0_650_4366">
<rect width="44.4072" height="38" fill="white" transform="translate(0 0.00292969)"/>
</clipPath>
</defs>
</svg>
