<svg width="38" height="38" viewBox="0 0 38 38" fill="none" xmlns="http://www.w3.org/2000/svg">
<g clip-path="url(#clip0_650_4370)">
<path d="M19.0035 38C15.4131 38.0054 11.8956 36.9872 8.86323 35.0647L2.20799 37.1908C2.07173 37.2345 1.92598 37.2396 1.787 37.2055C1.64802 37.1714 1.52131 37.0994 1.4208 36.9975C1.32029 36.8956 1.24995 36.7679 1.2177 36.6285C1.18546 36.489 1.19244 36.3434 1.23801 36.2077L3.38422 29.8094C1.17089 26.6402 -0.0108039 22.8653 7.44367e-05 18.9997C0.00494416 13.9632 2.00733 9.13435 5.56805 5.57246C9.12876 2.01056 13.957 0.00653839 18.9935 0H19.0035C24.0427 0 28.8754 2.00179 32.4386 5.56498C36.0017 9.12817 38.0035 13.9609 38.0035 19C38.0035 24.0391 36.0017 28.8718 32.4386 32.435C28.8754 35.9982 24.0427 38 19.0035 38ZM8.97659 33.4419C9.1284 33.4422 9.27681 33.4868 9.40356 33.5704C11.675 35.0666 14.2647 36.0112 16.9661 36.3286C19.6675 36.6461 22.4057 36.3276 24.9621 35.3987C27.5185 34.4698 29.8225 32.9562 31.6899 30.9786C33.5574 29.0011 34.9366 26.6143 35.7177 24.0089C36.4988 21.4035 36.66 18.6516 36.1884 15.9728C35.7169 13.294 34.6258 10.7626 33.002 8.58048C31.3782 6.39839 29.2668 4.6261 26.8363 3.40508C24.4058 2.18406 21.7235 1.54805 19.0035 1.54794H18.9935C14.3672 1.55378 9.93223 3.39455 6.66146 6.66626C3.39069 9.93798 1.55126 14.3734 1.54675 18.9997C1.53611 22.6753 2.70025 26.2583 4.86933 29.2257C4.94197 29.3257 4.98967 29.4415 5.00851 29.5637C5.02735 29.6858 5.01677 29.8107 4.97765 29.9279L3.19167 35.2518L8.74106 33.4784C8.81721 33.4542 8.89667 33.4418 8.97659 33.4419ZM24.9824 29.9776C23.0234 29.8221 21.112 29.2953 19.3499 28.4253C14.7237 26.5083 7.63647 19.3726 7.63647 14.1991C7.63647 11.3791 9.35699 8.33488 12.138 8.33488C13.3849 8.33488 14.0625 8.39725 14.6192 9.73427L15.0839 10.8603C15.5638 12.0234 16.1507 13.4498 16.2427 13.6432C16.8787 14.9713 15.992 15.9109 15.3447 16.5973C15.1772 16.7762 15.0008 16.9607 14.8409 17.1603C14.7708 17.2346 14.708 17.3154 14.6532 17.4015C15.4367 18.6936 16.3926 19.8729 17.4946 20.9067C18.6275 21.9491 19.9436 22.7727 21.3764 23.3357L21.5528 23.4075C21.6182 23.4428 21.6918 23.4599 21.7661 23.4568C21.8404 23.4537 21.9125 23.4305 21.9747 23.3899C22.3858 22.9056 22.7705 22.3996 23.1272 21.874L23.335 21.5818C23.5631 21.225 23.9111 20.9615 24.3165 20.8387C24.7218 20.716 25.1577 20.7421 25.5454 20.9124C25.5681 20.92 30.1943 22.9019 30.591 23.6003C30.8662 24.6549 30.777 25.7716 30.3379 26.7691C29.9308 27.5657 29.3451 28.2574 28.6265 28.7902C27.9079 29.3229 27.0758 29.6824 26.1953 29.8404C25.7972 29.9299 25.3905 29.976 24.9824 29.9776ZM12.138 9.88281C10.2109 9.88281 9.18315 12.3892 9.18315 14.1991C9.18315 18.4147 15.3447 25.0901 19.9419 26.9958C24.0743 28.7074 25.1575 28.4794 25.8716 28.3271C26.4908 28.2127 27.0788 27.9687 27.5972 27.6113C28.1155 27.2538 28.5523 26.7908 28.8792 26.2526C29.0974 25.6653 29.2124 25.0447 29.2192 24.4182C28.4207 23.9288 25.3966 22.5081 25.0138 22.3658C24.7757 22.277 24.7165 22.3079 24.5969 22.4779L24.3878 22.772C23.9929 23.3534 23.5652 23.9118 23.1069 24.4446C22.832 24.7218 22.4788 24.9079 22.0948 24.9781C21.7109 25.0483 21.3147 24.999 20.9596 24.837L20.7957 24.7702C19.1992 24.1385 17.7313 23.2208 16.4642 22.0623C15.2425 20.9377 14.1952 19.6372 13.357 18.2038C13.1633 17.8867 13.0855 17.5123 13.1367 17.1443C13.188 16.7764 13.365 16.4375 13.6379 16.1854C13.8218 15.958 14.0233 15.7427 14.2185 15.5355C14.9037 14.8094 14.9969 14.6261 14.8457 14.3094C14.75 14.1091 14.1454 12.6449 13.653 11.4503L13.1895 10.3287C13.1449 10.1846 13.0735 10.0502 12.9792 9.93256C12.7015 9.88411 12.4194 9.86745 12.138 9.88281Z" fill="black"/>
</g>
<defs>
<clipPath id="clip0_650_4370">
<rect width="37.9994" height="38" fill="white"/>
</clipPath>
</defs>
</svg>
