<svg width="172" height="116" viewBox="0 0 172 116" fill="none" xmlns="http://www.w3.org/2000/svg">
<path d="M101.111 45.2541L96.2873 47.9582L91.4689 45.2541L86.645 47.9582L81.8197 45.2541L76.9944 47.9582L72.1608 45.2541L67.3271 47.9582V3.34961H101.111V45.2541Z" fill="white"/>
<path d="M76.9949 48.6543C76.876 48.6543 76.7591 48.624 76.6553 48.566L72.1604 46.051L67.6669 48.566C67.561 48.6251 67.4414 48.6555 67.3202 48.6542C67.1989 48.6529 67.0803 48.62 66.9757 48.5586C66.8711 48.4973 66.7842 48.4096 66.7239 48.3044C66.6636 48.1992 66.6319 48.0801 66.6318 47.9588V3.34978C66.6318 3.25844 66.6497 3.16795 66.6846 3.08354C66.7196 2.99914 66.7708 2.92248 66.8354 2.85788C66.9 2.79329 66.9767 2.74204 67.0611 2.7071C67.1455 2.67217 67.236 2.65425 67.3273 2.6543H101.111C101.203 2.65425 101.293 2.67217 101.378 2.7071C101.462 2.74204 101.539 2.79329 101.603 2.85788C101.668 2.92248 101.719 2.99914 101.754 3.08354C101.789 3.16795 101.807 3.25844 101.807 3.34978V45.2543C101.807 45.3779 101.774 45.4992 101.711 45.6059C101.649 45.7125 101.559 45.8005 101.451 45.8608L96.6275 48.5653C96.5235 48.6234 96.4063 48.654 96.2872 48.654C96.1681 48.654 96.0509 48.6234 95.9469 48.5653L91.4684 46.0517L86.9844 48.5653C86.8806 48.6234 86.7637 48.654 86.6448 48.654C86.5259 48.654 86.4089 48.6234 86.3052 48.5653L81.8198 46.0517L77.3345 48.5653C77.2308 48.6236 77.1138 48.6543 76.9949 48.6543ZM72.1604 44.5588C72.2793 44.5588 72.3962 44.5891 72.5 44.6471L76.9949 47.1614L81.4802 44.6478C81.584 44.5897 81.7009 44.5591 81.8198 44.5591C81.9387 44.5591 82.0557 44.5897 82.1594 44.6478L86.6448 47.1614L91.1288 44.6478C91.2328 44.5897 91.3499 44.5591 91.469 44.5591C91.5882 44.5591 91.7053 44.5897 91.8093 44.6478L96.2879 47.1614L100.416 44.8468V4.04527H68.0228V46.7729L71.8208 44.6471C71.9246 44.5891 72.0415 44.5587 72.1604 44.5588Z" fill="black"/>
<path d="M87.1066 22.1079H79.4006C79.2161 22.1079 79.0393 22.0346 78.9088 21.9042C78.7784 21.7738 78.7051 21.5968 78.7051 21.4124C78.7051 21.2279 78.7784 21.051 78.9088 20.9206C79.0393 20.7901 79.2161 20.7169 79.4006 20.7169H87.1066C87.4345 20.7165 87.7487 20.586 87.9804 20.3541C88.2121 20.1223 88.3425 19.8079 88.3427 19.4801V17.5417C88.3425 17.2139 88.2122 16.8997 87.9804 16.6679C87.7486 16.4362 87.4344 16.3058 87.1066 16.3056H81.3322C80.6356 16.3046 79.9679 16.0274 79.4754 15.5348C78.983 15.0422 78.7059 14.3744 78.7051 13.6778V11.7394C78.7059 11.0429 78.983 10.3752 79.4754 9.88267C79.9679 9.39018 80.6357 9.11316 81.3322 9.1123H89.0381C89.2225 9.1123 89.3995 9.18555 89.53 9.31598C89.6604 9.44641 89.7336 9.62334 89.7336 9.80779C89.7336 9.99225 89.6604 10.1692 89.53 10.2996C89.3995 10.43 89.2225 10.5033 89.0381 10.5033H81.3322C81.0044 10.5035 80.6902 10.6339 80.4584 10.8656C80.2266 11.0974 80.0963 11.4116 80.0961 11.7394V13.6778C80.0963 14.0056 80.2265 14.32 80.4582 14.5518C80.69 14.7837 81.0043 14.9142 81.3322 14.9146H87.1066C87.8031 14.9155 88.4709 15.1925 88.9634 15.685C89.4558 16.1775 89.7329 16.8452 89.7337 17.5417V19.4801C89.7329 20.1767 89.4558 20.8445 88.9634 21.3371C88.4709 21.8297 87.8032 22.1069 87.1066 22.1079Z" fill="black"/>
<path d="M84.2189 24.1091C84.1276 24.1091 84.0371 24.0912 83.9527 24.0562C83.8683 24.0213 83.7916 23.9701 83.727 23.9055C83.6624 23.8409 83.6112 23.7642 83.5762 23.6798C83.5413 23.5954 83.5234 23.5049 83.5234 23.4136V7.80584C83.5234 7.62138 83.5966 7.44445 83.727 7.31402C83.8575 7.18359 84.0345 7.11035 84.2189 7.11035C84.4034 7.11035 84.5802 7.18359 84.7107 7.31402C84.8411 7.44445 84.9144 7.62138 84.9144 7.80584V23.4136C84.9145 23.5049 84.8965 23.5954 84.8616 23.6798C84.8267 23.7642 84.7754 23.8409 84.7108 23.9055C84.6462 23.9701 84.5696 24.0213 84.4852 24.0562C84.4008 24.0912 84.3103 24.1091 84.2189 24.1091Z" fill="black"/>
<path d="M83.8194 30.8246H73.2023C73.0179 30.8246 72.8409 30.7513 72.7104 30.6209C72.58 30.4905 72.5068 30.3135 72.5068 30.1291C72.5068 29.9446 72.58 29.7677 72.7104 29.6373C72.8409 29.5068 73.0179 29.4336 73.2023 29.4336H83.8194C84.0038 29.4336 84.1807 29.5068 84.3111 29.6373C84.4415 29.7677 84.5149 29.9446 84.5149 30.1291C84.5149 30.3135 84.4415 30.4905 84.3111 30.6209C84.1807 30.7513 84.0038 30.8246 83.8194 30.8246Z" fill="black"/>
<path d="M95.2369 30.8246H90.0588C89.8743 30.8246 89.6975 30.7513 89.567 30.6209C89.4366 30.4905 89.3633 30.3135 89.3633 30.1291C89.3633 29.9446 89.4366 29.7677 89.567 29.6373C89.6975 29.5068 89.8743 29.4336 90.0588 29.4336H95.2369C95.4213 29.4336 95.5982 29.5068 95.7286 29.6373C95.8591 29.7677 95.9324 29.9446 95.9324 30.1291C95.9324 30.3135 95.8591 30.4905 95.7286 30.6209C95.5982 30.7513 95.4213 30.8246 95.2369 30.8246Z" fill="black"/>
<path d="M83.8194 35.4291H73.2023C73.0179 35.4291 72.8409 35.3558 72.7104 35.2254C72.58 35.095 72.5068 34.918 72.5068 34.7336C72.5068 34.5491 72.58 34.3722 72.7104 34.2418C72.8409 34.1113 73.0179 34.0381 73.2023 34.0381H83.8194C84.0038 34.0381 84.1807 34.1113 84.3111 34.2418C84.4415 34.3722 84.5149 34.5491 84.5149 34.7336C84.5149 34.918 84.4415 35.095 84.3111 35.2254C84.1807 35.3558 84.0038 35.4291 83.8194 35.4291Z" fill="black"/>
<path d="M95.2369 35.4291H90.0588C89.8743 35.4291 89.6975 35.3558 89.567 35.2254C89.4366 35.095 89.3633 34.918 89.3633 34.7336C89.3633 34.5491 89.4366 34.3722 89.567 34.2418C89.6975 34.1113 89.8743 34.0381 90.0588 34.0381H95.2369C95.4213 34.0381 95.5982 34.1113 95.7286 34.2418C95.8591 34.3722 95.9324 34.5491 95.9324 34.7336C95.9324 34.918 95.8591 35.095 95.7286 35.2254C95.5982 35.3558 95.4213 35.4291 95.2369 35.4291Z" fill="black"/>
<path d="M83.8194 40.0326H73.2023C73.0179 40.0326 72.8409 39.9593 72.7104 39.8289C72.58 39.6985 72.5068 39.5215 72.5068 39.3371C72.5068 39.1526 72.58 38.9757 72.7104 38.8453C72.8409 38.7148 73.0179 38.6416 73.2023 38.6416H83.8194C84.0038 38.6416 84.1807 38.7148 84.3111 38.8453C84.4415 38.9757 84.5149 39.1526 84.5149 39.3371C84.5149 39.5215 84.4415 39.6985 84.3111 39.8289C84.1807 39.9593 84.0038 40.0326 83.8194 40.0326Z" fill="black"/>
<path d="M95.2369 40.0326H90.0588C89.8743 40.0326 89.6975 39.9593 89.567 39.8289C89.4366 39.6985 89.3633 39.5215 89.3633 39.3371C89.3633 39.1526 89.4366 38.9757 89.567 38.8453C89.6975 38.7148 89.8743 38.6416 90.0588 38.6416H95.2369C95.4213 38.6416 95.5982 38.7148 95.7286 38.8453C95.8591 38.9757 95.9324 39.1526 95.9324 39.3371C95.9324 39.5215 95.8591 39.6985 95.7286 39.8289C95.5982 39.9593 95.4213 40.0326 95.2369 40.0326Z" fill="black"/>
<path d="M106.606 27.3753C112.521 27.3753 117.317 22.58 117.317 16.6647C117.317 10.7494 112.521 5.9541 106.606 5.9541C100.691 5.9541 95.8955 10.7494 95.8955 16.6647C95.8955 22.58 100.691 27.3753 106.606 27.3753Z" fill="#FFA18C"/>
<path d="M106.606 28.0714C104.351 28.0714 102.145 27.4024 100.269 26.1491C98.3937 24.8958 96.9317 23.1143 96.0684 21.0301C95.205 18.9458 94.9793 16.6524 95.4194 14.4398C95.8595 12.2272 96.9457 10.1949 98.5409 8.59966C100.136 7.00447 102.169 5.91806 104.381 5.47795C106.594 5.03784 108.887 5.26377 110.971 6.12708C113.056 6.9904 114.837 8.45236 116.09 10.3281C117.344 12.2039 118.013 14.4091 118.013 16.6651C118.009 19.6892 116.806 22.5884 114.668 24.7267C112.53 26.865 109.631 28.0679 106.606 28.0714ZM106.606 6.6498C104.626 6.6498 102.689 7.23717 101.042 8.33767C99.3952 9.43816 98.1116 11.0024 97.3536 12.8324C96.5955 14.6625 96.3971 16.6762 96.7835 18.6189C97.17 20.5617 98.1239 22.3463 99.5246 23.747C100.925 25.1476 102.71 26.1015 104.653 26.4879C106.595 26.8744 108.609 26.676 110.439 25.918C112.269 25.16 113.833 23.8763 114.934 22.2293C116.034 20.5823 116.622 18.6459 116.622 16.6651C116.619 14.0098 115.563 11.4642 113.685 9.58661C111.807 7.70905 109.262 6.65291 106.606 6.6498Z" fill="black"/>
<path d="M105.408 21.2675C105.31 21.2673 105.213 21.2466 105.124 21.2067C105.034 21.1668 104.954 21.1086 104.889 21.0359L101.515 17.2623L102.552 16.3346L105.356 19.4711L110.618 12.3457L111.738 13.1716L105.967 20.985C105.906 21.068 105.827 21.1364 105.736 21.1852C105.644 21.2339 105.544 21.2618 105.44 21.2668L105.408 21.2675Z" fill="black"/>
<path d="M59.4467 91H38.2067V87.04L49.0067 76.84C50.8467 75.16 52.2867 73.48 52.2867 71.52C52.2867 69.2 50.6067 67.72 48.4867 67.72C46.4867 67.72 45.0867 69.12 44.4467 70.52L38.4867 68.48C39.6467 64.36 43.7267 61.24 48.4467 61.24C54.1667 61.24 58.7667 65.16 58.7667 71.56C58.7667 75.24 56.1267 78.32 53.4067 80.92L48.6467 84.96H59.4467V91ZM72.5586 91H66.0786V67.84H62.0786V61.8H72.5586V91ZM80.6767 91.56C78.7167 91.56 77.1567 89.96 77.1567 88.04C77.1567 86.08 78.7167 84.52 80.6767 84.52C82.5967 84.52 84.1567 86.08 84.1567 88.04C84.1567 89.96 82.5967 91.56 80.6767 91.56ZM105.541 91H99.0611V85H85.9011V79.32L97.6611 61.8H105.541V78.64H107.941V85H105.541V91ZM99.0611 70.48L93.1411 78.64H99.0611V70.48ZM117.901 91H110.981V61.8H117.901V72.72L125.861 61.8H133.581L124.581 74.08L134.261 91H126.261L120.301 80.52L117.901 83.4V91Z" fill="#EA5C3C"/>
<path d="M49.9196 111H48.4776V100.78H49.9196V105.708L54.2456 100.78H55.9116L52.3276 104.994L56.2616 111H54.5676L51.4176 106.296L49.9196 107.92V111ZM60.8011 111H57.6651V100.78H60.8011C63.9791 100.78 66.1771 103.034 66.1771 105.876C66.1771 108.746 64.0631 111 60.8011 111ZM59.1071 102.194V109.572H60.8011C63.2371 109.572 64.6791 107.906 64.6791 105.862C64.6791 103.888 63.1531 102.194 60.8011 102.194H59.1071ZM72.5008 111H70.9048L74.6428 100.78H76.2108L79.9488 111H78.3808L77.4008 108.34H73.4668L72.5008 111ZM75.4268 102.726L73.8868 106.982H76.9808L75.4268 102.726ZM82.5217 111H81.1637V103.3H82.4237L82.4937 104.574C82.8857 103.678 83.7537 103.188 84.5937 103.188C85.8257 103.188 86.6237 103.902 86.9457 104.826C87.2677 103.916 88.0657 103.188 89.1857 103.188C90.8237 103.188 92.0417 104.238 92.0417 106.912V111H90.6697V106.912C90.6697 105.148 89.8857 104.532 88.9757 104.532C88.1217 104.532 87.2817 105.148 87.2817 106.912V111H85.9097V106.912C85.9097 105.148 85.1257 104.532 84.2157 104.532C83.3057 104.532 82.5217 105.316 82.5217 107.08V111ZM97.3782 111.112C95.1942 111.112 93.4302 109.32 93.4302 107.136C93.4302 104.966 95.1942 103.202 97.3782 103.202C99.5482 103.202 101.326 104.966 101.326 107.136C101.326 109.32 99.5482 111.112 97.3782 111.112ZM97.3782 109.712C98.7922 109.712 99.9402 108.564 99.9402 107.136C99.9402 105.736 98.7922 104.588 97.3782 104.588C95.9502 104.588 94.8162 105.736 94.8162 107.136C94.8162 108.564 95.9502 109.712 97.3782 109.712ZM105.857 111.112C104.065 111.112 102.707 109.866 102.707 107.206V103.3H104.079V107.206C104.079 108.97 105.031 109.754 106.165 109.754C107.285 109.754 108.251 108.97 108.251 107.206V103.3H109.609V111H108.349L108.279 109.628C107.859 110.44 107.019 111.112 105.857 111.112ZM112.969 111H111.611V103.3H112.871L112.941 104.658C113.361 103.846 114.187 103.188 115.363 103.188C117.155 103.188 118.513 104.42 118.513 107.08V111H117.141V107.08C117.141 105.33 116.189 104.532 115.055 104.532C113.935 104.532 112.969 105.316 112.969 107.08V111ZM123.11 111.126C121.696 111.126 120.52 110.272 120.52 108.13V104.532H119.484V103.3H120.562L120.73 100.78H121.878V103.3H123.726V104.532H121.878V108.116C121.878 109.222 122.424 109.796 123.292 109.796C123.488 109.796 123.698 109.768 123.88 109.698L124.23 110.916C123.908 111.056 123.516 111.126 123.11 111.126Z" fill="black"/>
</svg>
