<svg width="172" height="116" viewBox="0 0 172 116" fill="none" xmlns="http://www.w3.org/2000/svg">
<path d="M94.1492 27.5306H78.5405C78.4495 27.5307 78.3593 27.5128 78.2753 27.478C78.1912 27.4432 78.1148 27.3921 78.0505 27.3278C77.9861 27.2635 77.9351 27.187 77.9003 27.103C77.8655 27.0189 77.8476 26.9288 77.8477 26.8378V23.3183C77.8478 21.7613 78.3184 20.2407 79.1979 18.9558C80.0773 17.6709 81.3245 16.6818 82.7759 16.1181C82.0928 15.4163 81.6318 14.5288 81.4505 13.5664C81.2692 12.6041 81.3756 11.6096 81.7565 10.7074C82.1374 9.80526 82.7758 9.03536 83.5919 8.49406C84.408 7.95275 85.3655 7.66406 86.3448 7.66406C87.3241 7.66406 88.2817 7.95275 89.0977 8.49406C89.9138 9.03536 90.5522 9.80526 90.9331 10.7074C91.3139 11.6096 91.4203 12.6041 91.239 13.5664C91.0577 14.5288 90.5968 15.4163 89.9138 16.1181C91.3652 16.6817 92.6124 17.6708 93.4918 18.9557C94.3712 20.2406 94.8419 21.7612 94.842 23.3183V26.8378C94.842 26.9288 94.8241 27.0189 94.7893 27.103C94.7545 27.187 94.7035 27.2635 94.6392 27.3278C94.5748 27.3921 94.4984 27.4432 94.4143 27.478C94.3302 27.5128 94.2402 27.5307 94.1492 27.5306ZM79.2333 26.145H93.4564V23.3183C93.4564 21.8386 92.9385 20.4055 91.9927 19.2676C91.0468 18.1297 89.7326 17.3587 88.2778 17.0883C88.1374 17.0623 88.0085 16.9935 87.9087 16.8914C87.8089 16.7893 87.743 16.6589 87.7202 16.5179C87.6974 16.377 87.7188 16.2324 87.7813 16.1041C87.8438 15.9757 87.9444 15.8698 88.0694 15.8008C88.7699 15.4178 89.323 14.8126 89.6414 14.0805C89.9598 13.3483 90.0253 12.5311 89.8277 11.7575C89.6301 10.984 89.1805 10.2983 88.55 9.80861C87.9194 9.31892 87.1439 9.05312 86.3455 9.05312C85.5471 9.05312 84.7715 9.31892 84.1409 9.80861C83.5104 10.2983 83.0608 10.984 82.8632 11.7575C82.6656 12.5311 82.7312 13.3483 83.0495 14.0805C83.3679 14.8126 83.9211 15.4178 84.6216 15.8008C84.7463 15.87 84.8466 15.9761 84.9089 16.1045C84.9711 16.2329 84.9922 16.3775 84.9693 16.5183C84.9463 16.6591 84.8804 16.7894 84.7807 16.8915C84.6809 16.9935 84.5521 17.0622 84.4118 17.0883C82.9571 17.3588 81.6428 18.1299 80.697 19.2677C79.7511 20.4056 79.2334 21.8386 79.2333 23.3183V26.145Z" fill="black"/>
<path d="M98.0129 48H69.518C69.427 48 69.3369 47.9822 69.2528 47.9474C69.1687 47.9126 69.0923 47.8615 69.028 47.7972C68.9637 47.7328 68.9126 47.6565 68.8778 47.5724C68.843 47.4883 68.8251 47.3982 68.8252 47.3072V2.69282C68.8251 2.60182 68.843 2.51172 68.8778 2.42764C68.9126 2.34356 68.9637 2.26715 69.028 2.2028C69.0923 2.13846 69.1687 2.08745 69.2528 2.05265C69.3369 2.01785 69.427 1.99995 69.518 2H103.172C103.263 1.99995 103.354 2.01785 103.438 2.05265C103.522 2.08745 103.598 2.13846 103.662 2.2028C103.727 2.26715 103.778 2.34356 103.813 2.42764C103.847 2.51172 103.865 2.60182 103.865 2.69282V40.7599C103.865 40.9155 103.813 41.0666 103.716 41.1889L98.5567 47.7361C98.4919 47.8184 98.4093 47.8849 98.3151 47.9306C98.2209 47.9763 98.1176 48 98.0129 48ZM70.2108 46.6144H97.6773L102.48 40.5197V3.38564H70.2108V46.6144Z" fill="black"/>
<path d="M97.6275 33.2206H75.0649C74.8811 33.2206 74.7049 33.1476 74.575 33.0177C74.445 32.8878 74.3721 32.7115 74.3721 32.5278C74.3721 32.344 74.445 32.1678 74.575 32.0379C74.7049 31.9079 74.8811 31.835 75.0649 31.835H97.6275C97.8112 31.835 97.9875 31.9079 98.1174 32.0379C98.2473 32.1678 98.3203 32.344 98.3203 32.5278C98.3203 32.7115 98.2473 32.8878 98.1174 33.0177C97.9875 33.1476 97.8112 33.2206 97.6275 33.2206Z" fill="black"/>
<path d="M93.4674 38.7655H79.2241C79.0403 38.7655 78.8641 38.6926 78.7341 38.5626C78.6042 38.4327 78.5312 38.2564 78.5312 38.0727C78.5312 37.889 78.6042 37.7127 78.7341 37.5828C78.8641 37.4528 79.0403 37.3799 79.2241 37.3799H93.4674C93.6512 37.3799 93.8273 37.4528 93.9573 37.5828C94.0872 37.7127 94.1602 37.889 94.1602 38.0727C94.1602 38.2564 94.0872 38.4327 93.9573 38.5626C93.8273 38.6926 93.6512 38.7655 93.4674 38.7655Z" fill="black"/>
<path d="M97.6274 48.0003C97.5364 48.0003 97.4463 47.9825 97.3623 47.9477C97.2782 47.9129 97.2017 47.8618 97.1374 47.7975C97.073 47.7331 97.0221 47.6568 96.9873 47.5727C96.9525 47.4886 96.9345 47.3985 96.9346 47.3075V40.7602C96.9345 40.6692 96.9525 40.5791 96.9873 40.495C97.0221 40.4109 97.073 40.3345 97.1374 40.2702C97.2017 40.2058 97.2782 40.1548 97.3623 40.12C97.4463 40.0852 97.5364 40.0673 97.6274 40.0674H103.173C103.356 40.0674 103.533 40.1403 103.663 40.2703C103.792 40.4002 103.865 40.5765 103.865 40.7602C103.865 40.9439 103.792 41.1202 103.663 41.2501C103.533 41.3801 103.356 41.453 103.173 41.453H98.3202V47.3075C98.3203 47.3985 98.3024 47.4886 98.2676 47.5727C98.2328 47.6568 98.1817 47.7331 98.1174 47.7975C98.0531 47.8618 97.9767 47.9129 97.8926 47.9477C97.8085 47.9825 97.7184 48.0003 97.6274 48.0003Z" fill="black"/>
<path d="M75.065 15.9557L65.0053 6.91309V11.4344H54.7031V20.4785H65.0053V24.9998L75.065 15.9557Z" fill="#FFA18C"/>
<path d="M65.0042 25.6926C64.9071 25.6929 64.8112 25.6724 64.7227 25.6324C64.6003 25.5781 64.4963 25.4894 64.4233 25.3771C64.3502 25.2648 64.3114 25.1338 64.3114 24.9998V21.171H54.7026C54.6116 21.1711 54.5215 21.1532 54.4374 21.1184C54.3534 21.0836 54.2769 21.0326 54.2126 20.9682C54.1482 20.9039 54.0973 20.8275 54.0625 20.7434C54.0277 20.6593 54.0097 20.5692 54.0098 20.4782V11.4357C54.0097 11.3447 54.0277 11.2546 54.0625 11.1706C54.0973 11.0865 54.1482 11.0101 54.2126 10.9457C54.2769 10.8814 54.3534 10.8304 54.4374 10.7956C54.5215 10.7608 54.6116 10.7429 54.7026 10.7429H64.3114V6.91415C64.3115 6.78036 64.3504 6.64946 64.4233 6.53725C64.4961 6.42505 64.6 6.33631 64.7221 6.2818C64.8443 6.22729 64.9797 6.20932 65.1119 6.23004C65.244 6.25077 65.3674 6.30931 65.4671 6.3986L75.5278 15.4411C75.6002 15.5061 75.658 15.5856 75.6976 15.6744C75.7372 15.7632 75.7578 15.8594 75.7578 15.9566C75.7578 16.0539 75.7372 16.1501 75.6976 16.2389C75.658 16.3277 75.6002 16.4072 75.5278 16.4722L65.4671 25.5154C65.3399 25.6295 65.175 25.6926 65.0042 25.6926ZM55.3954 19.7854H65.0042C65.0952 19.7854 65.1853 19.8033 65.2694 19.8381C65.3535 19.8729 65.4299 19.9239 65.4942 19.9882C65.5585 20.0526 65.6096 20.129 65.6444 20.213C65.6792 20.2971 65.6971 20.3872 65.697 20.4782V23.4457L74.0284 15.9566L65.697 8.46826V11.4357C65.6971 11.5267 65.6792 11.6168 65.6444 11.7009C65.6096 11.785 65.5585 11.8614 65.4942 11.9257C65.4299 11.9901 65.3535 12.0411 65.2694 12.0759C65.1853 12.1107 65.0952 12.1286 65.0042 12.1286H55.3954V19.7854Z" fill="black"/>
<path d="M74.297 92C67.977 92 63.497 88.08 63.497 82.52C63.497 79.44 65.137 76.92 67.617 75.44C65.897 74.12 64.777 72.08 64.777 69.68C64.777 64.8 69.097 61.16 74.377 61.16C79.617 61.16 83.937 64.8 83.937 69.68C83.937 72.08 82.817 74.12 81.057 75.44C83.617 76.96 85.257 79.44 85.257 82.52C85.257 88.08 80.697 92 74.297 92ZM74.337 72.48C76.137 72.48 77.537 71.28 77.537 69.76C77.537 68.24 76.137 67.08 74.337 67.08C72.577 67.08 71.217 68.24 71.217 69.76C71.217 71.28 72.577 72.48 74.337 72.48ZM74.337 85.72C76.777 85.72 78.617 84.08 78.617 82.08C78.617 80.12 76.697 78.52 74.337 78.52C72.017 78.52 70.097 80.12 70.097 82.08C70.097 84.08 71.937 85.72 74.337 85.72ZM97.9026 91.4C93.2226 91.4 89.2626 88.76 87.7426 84.76L93.9826 82.48C94.5426 83.92 96.2226 84.92 98.0226 84.92C100.343 84.92 102.263 83.16 102.263 80.8C102.263 78.44 100.383 76.68 98.1026 76.68C96.7426 76.68 95.4226 77.32 94.6626 78.32H88.1826L89.3426 61.8H107.663V67.84H95.4226L95.1426 72.04C96.1426 71.32 97.7426 70.76 99.1426 70.76C104.743 70.76 108.823 74.96 108.823 80.96C108.823 87 103.903 91.4 97.9026 91.4Z" fill="#EA5C3C"/>
<path d="M4.61993 111H3.02393L6.76193 100.78H8.32993L12.0679 111H10.4999L9.51993 108.34H5.58593L4.61993 111ZM7.54593 102.726L6.00593 106.982H9.09993L7.54593 102.726ZM14.6409 114.08H13.2829V103.3H14.5429L14.6129 104.896C15.0749 103.944 16.2089 103.202 17.4689 103.202C19.5409 103.202 21.2209 104.966 21.2209 107.136C21.2209 109.32 19.5409 111.112 17.4689 111.112C16.2229 111.112 15.1029 110.37 14.6409 109.418V114.08ZM17.2589 109.754C18.6869 109.754 19.8489 108.578 19.8489 107.136C19.8489 105.708 18.6869 104.546 17.2589 104.546C15.8029 104.546 14.6409 105.708 14.6409 107.136C14.6409 108.578 15.8029 109.754 17.2589 109.754ZM24.0335 114.08H22.6755V103.3H23.9354L24.0055 104.896C24.4674 103.944 25.6015 103.202 26.8615 103.202C28.9335 103.202 30.6135 104.966 30.6135 107.136C30.6135 109.32 28.9335 111.112 26.8615 111.112C25.6155 111.112 24.4955 110.37 24.0335 109.418V114.08ZM26.6515 109.754C28.0795 109.754 29.2415 108.578 29.2415 107.136C29.2415 105.708 28.0795 104.546 26.6515 104.546C25.1955 104.546 24.0335 105.708 24.0335 107.136C24.0335 108.578 25.1955 109.754 26.6515 109.754ZM33.426 111H32.068V100.08H33.426V111ZM36.1173 102.516C35.6413 102.516 35.2493 102.124 35.2493 101.648C35.2493 101.172 35.6413 100.78 36.1173 100.78C36.5793 100.78 36.9713 101.172 36.9713 101.648C36.9713 102.124 36.5793 102.516 36.1173 102.516ZM36.7893 111H35.4313V103.3H36.7893V111ZM42.2806 111.112C40.0966 111.112 38.3326 109.32 38.3326 107.136C38.3326 104.966 40.0966 103.202 42.2806 103.202C43.6106 103.202 44.7866 103.86 45.5146 104.868L44.3806 105.624C43.9046 104.994 43.1346 104.588 42.2806 104.588C40.8526 104.588 39.7186 105.736 39.7186 107.136C39.7186 108.564 40.8526 109.712 42.2806 109.712C43.1626 109.712 43.9466 109.278 44.4086 108.606L45.5426 109.362C44.8426 110.412 43.6386 111.112 42.2806 111.112ZM50.2467 111.098C48.1747 111.098 46.4947 109.32 46.4947 107.15C46.4947 104.966 48.1747 103.188 50.2467 103.188C51.5067 103.188 52.6407 103.944 53.1167 104.924L53.1867 103.3H54.4467V111H53.1867L53.1167 109.39C52.6407 110.356 51.5067 111.098 50.2467 111.098ZM50.4707 109.74C51.9127 109.74 53.0747 108.578 53.0747 107.15C53.0747 105.708 51.9127 104.532 50.4707 104.532C49.0427 104.532 47.8807 105.708 47.8807 107.15C47.8807 108.578 49.0427 109.74 50.4707 109.74ZM59.385 111.126C57.971 111.126 56.795 110.272 56.795 108.13V104.532H55.759V103.3H56.837L57.005 100.78H58.153V103.3H60.001V104.532H58.153V108.116C58.153 109.222 58.699 109.796 59.567 109.796C59.763 109.796 59.973 109.768 60.155 109.698L60.505 110.916C60.183 111.056 59.791 111.126 59.385 111.126ZM62.6407 102.516C62.1647 102.516 61.7727 102.124 61.7727 101.648C61.7727 101.172 62.1647 100.78 62.6407 100.78C63.1027 100.78 63.4947 101.172 63.4947 101.648C63.4947 102.124 63.1027 102.516 62.6407 102.516ZM63.3127 111H61.9547V103.3H63.3127V111ZM68.804 111.112C66.62 111.112 64.856 109.32 64.856 107.136C64.856 104.966 66.62 103.202 68.804 103.202C70.974 103.202 72.752 104.966 72.752 107.136C72.752 109.32 70.974 111.112 68.804 111.112ZM68.804 109.712C70.218 109.712 71.366 108.564 71.366 107.136C71.366 105.736 70.218 104.588 68.804 104.588C67.376 104.588 66.242 105.736 66.242 107.136C66.242 108.564 67.376 109.712 68.804 109.712ZM75.6585 111H74.3005V103.3H75.5604L75.6305 104.658C76.0505 103.846 76.8765 103.188 78.0525 103.188C79.8445 103.188 81.2024 104.42 81.2024 107.08V111H79.8305V107.08C79.8305 105.33 78.8785 104.532 77.7445 104.532C76.6245 104.532 75.6585 105.316 75.6585 107.08V111ZM85.9654 111.14C84.8594 111.14 83.4314 110.776 82.5354 109.796L83.4734 108.9C83.9914 109.474 84.9994 109.852 85.9654 109.852C86.9734 109.852 87.6734 109.46 87.6734 108.788C87.6734 107.206 82.8014 108.172 82.8014 105.316C82.8014 104.056 83.9494 103.174 85.7134 103.174C86.7074 103.174 87.9674 103.44 88.8074 104.448L87.9674 105.288C87.4354 104.644 86.4694 104.406 85.7554 104.406C84.8314 104.406 84.1734 104.742 84.1734 105.33C84.1734 106.73 89.0454 105.862 89.0454 108.746C89.0454 110.398 87.5754 111.14 85.9654 111.14ZM96.0758 111H94.6338V100.78H98.5118C100.584 100.78 101.956 102.222 101.956 103.986C101.956 105.414 101.018 106.618 99.6178 106.954L102.124 111H100.444L98.1198 107.206H96.0758V111ZM96.0758 102.194V105.792H98.4838C99.7158 105.792 100.472 104.966 100.472 103.986C100.472 103.034 99.7158 102.194 98.4838 102.194H96.0758ZM106.815 111.112C104.477 111.112 102.727 109.32 102.727 107.136C102.727 104.966 104.477 103.202 106.633 103.202C108.873 103.202 110.539 104.966 110.539 107.136C110.539 107.318 110.511 107.584 110.497 107.78H104.197C104.407 108.942 105.485 109.824 106.815 109.824C107.767 109.824 108.523 109.432 109.013 108.83L110.119 109.516C109.391 110.482 108.117 111.112 106.815 111.112ZM104.183 106.66H109.125C109.055 105.47 108.061 104.476 106.647 104.476C105.289 104.476 104.267 105.47 104.183 106.66ZM119.622 114.08H118.25V109.418C117.788 110.37 116.668 111.112 115.422 111.112C113.35 111.112 111.67 109.32 111.67 107.136C111.67 104.966 113.35 103.202 115.422 103.202C116.682 103.202 117.816 103.944 118.278 104.896L118.362 103.3H119.622V114.08ZM115.646 109.754C117.088 109.754 118.25 108.578 118.25 107.136C118.25 105.708 117.088 104.546 115.646 104.546C114.218 104.546 113.042 105.708 113.042 107.136C113.042 108.578 114.218 109.754 115.646 109.754ZM124.601 111.112C122.809 111.112 121.451 109.866 121.451 107.206V103.3H122.823V107.206C122.823 108.97 123.775 109.754 124.909 109.754C126.029 109.754 126.995 108.97 126.995 107.206V103.3H128.353V111H127.093L127.023 109.628C126.603 110.44 125.763 111.112 124.601 111.112ZM133.981 111.112C131.643 111.112 129.893 109.32 129.893 107.136C129.893 104.966 131.643 103.202 133.799 103.202C136.039 103.202 137.705 104.966 137.705 107.136C137.705 107.318 137.677 107.584 137.663 107.78H131.363C131.573 108.942 132.651 109.824 133.981 109.824C134.933 109.824 135.689 109.432 136.179 108.83L137.285 109.516C136.557 110.482 135.283 111.112 133.981 111.112ZM131.349 106.66H136.291C136.221 105.47 135.227 104.476 133.813 104.476C132.455 104.476 131.433 105.47 131.349 106.66ZM142.006 111.14C140.9 111.14 139.472 110.776 138.576 109.796L139.514 108.9C140.032 109.474 141.04 109.852 142.006 109.852C143.014 109.852 143.714 109.46 143.714 108.788C143.714 107.206 138.842 108.172 138.842 105.316C138.842 104.056 139.99 103.174 141.754 103.174C142.748 103.174 144.008 103.44 144.848 104.448L144.008 105.288C143.476 104.644 142.51 104.406 141.796 104.406C140.872 104.406 140.214 104.742 140.214 105.33C140.214 106.73 145.086 105.862 145.086 108.746C145.086 110.398 143.616 111.14 142.006 111.14ZM149.647 111.126C148.233 111.126 147.057 110.272 147.057 108.13V104.532H146.021V103.3H147.099L147.267 100.78H148.415V103.3H150.263V104.532H148.415V108.116C148.415 109.222 148.961 109.796 149.829 109.796C150.025 109.796 150.235 109.768 150.417 109.698L150.767 110.916C150.445 111.056 150.053 111.126 149.647 111.126ZM155.446 111.112C153.108 111.112 151.358 109.32 151.358 107.136C151.358 104.966 153.108 103.202 155.264 103.202C157.504 103.202 159.17 104.966 159.17 107.136C159.17 107.318 159.142 107.584 159.128 107.78H152.828C153.038 108.942 154.116 109.824 155.446 109.824C156.398 109.824 157.154 109.432 157.644 108.83L158.75 109.516C158.022 110.482 156.748 111.112 155.446 111.112ZM152.814 106.66H157.756C157.686 105.47 156.692 104.476 155.278 104.476C153.92 104.476 152.898 105.47 152.814 106.66ZM163.997 111.098C161.925 111.098 160.245 109.32 160.245 107.15C160.245 104.966 161.925 103.188 163.997 103.188C165.243 103.188 166.363 103.916 166.825 104.882V100.08H168.197V111H166.937L166.867 109.39C166.391 110.356 165.257 111.098 163.997 111.098ZM164.221 109.74C165.663 109.74 166.825 108.578 166.825 107.15C166.825 105.708 165.663 104.532 164.221 104.532C162.793 104.532 161.631 105.708 161.631 107.15C161.631 108.578 162.793 109.74 164.221 109.74Z" fill="black"/>
</svg>
