<svg width="172" height="116" viewBox="0 0 172 116" fill="none" xmlns="http://www.w3.org/2000/svg">
<path d="M91.7839 27.5306H76.1752C76.0842 27.5307 75.9941 27.5128 75.91 27.478C75.8259 27.4432 75.7496 27.3922 75.6852 27.3278C75.6209 27.2635 75.5698 27.1871 75.535 27.1031C75.5002 27.019 75.4824 26.9288 75.4824 26.8378V23.3189C75.4827 21.7619 75.9534 20.2412 76.8328 18.9563C77.7122 17.6713 78.9593 16.682 80.4106 16.1181C79.7276 15.4163 79.2666 14.5287 79.0853 13.5664C78.904 12.604 79.0105 11.6096 79.3914 10.7074C79.7722 9.80522 80.4106 9.03536 81.2267 8.49406C82.0428 7.95275 83.0003 7.66406 83.9796 7.66406C84.9589 7.66406 85.9164 7.95275 86.7325 8.49406C87.5486 9.03536 88.187 9.80522 88.5679 10.7074C88.9488 11.6096 89.0552 12.604 88.8739 13.5664C88.6926 14.5287 88.2316 15.4163 87.5485 16.1181C88.9999 16.682 90.2471 17.6713 91.1265 18.9563C92.0059 20.2412 92.4765 21.7619 92.4768 23.3189V26.8378C92.4768 26.9288 92.459 27.019 92.4242 27.1031C92.3894 27.1871 92.3383 27.2635 92.274 27.3278C92.2096 27.3922 92.1332 27.4432 92.0492 27.478C91.9651 27.5128 91.8749 27.5307 91.7839 27.5306ZM76.8681 26.145H91.0911V23.3189C91.0911 21.8392 90.5733 20.4061 89.6274 19.2681C88.6816 18.1301 87.3674 17.359 85.9126 17.0883C85.7722 17.0623 85.6433 16.9935 85.5435 16.8914C85.4437 16.7893 85.3779 16.6588 85.3551 16.5179C85.3323 16.3769 85.3536 16.2324 85.4161 16.1041C85.4785 15.9757 85.5792 15.8698 85.7042 15.8008C86.4047 15.4178 86.9578 14.8125 87.2761 14.0804C87.5945 13.3483 87.6601 12.5311 87.4625 11.7575C87.2648 10.984 86.8154 10.2983 86.1848 9.80857C85.5543 9.31887 84.7786 9.05308 83.9803 9.05308C83.1819 9.05308 82.4062 9.31887 81.7757 9.80857C81.1452 10.2983 80.6957 10.984 80.4981 11.7575C80.3005 12.5311 80.366 13.3483 80.6844 14.0804C81.0028 14.8125 81.5558 15.4178 82.2563 15.8008C82.3811 15.87 82.4815 15.9761 82.5437 16.1045C82.606 16.2329 82.627 16.3775 82.6041 16.5183C82.5812 16.6591 82.5153 16.7894 82.4155 16.8914C82.3157 16.9935 82.1869 17.0622 82.0466 17.0883C80.5919 17.3592 79.2778 18.1304 78.332 19.2683C77.3862 20.4063 76.8683 21.8393 76.8681 23.3189V26.145Z" fill="black"/>
<path d="M95.6476 48H67.1528C67.0618 48 66.9716 47.9822 66.8876 47.9474C66.8035 47.9126 66.7271 47.8615 66.6628 47.7972C66.5984 47.7328 66.5474 47.6565 66.5126 47.5724C66.4778 47.4883 66.4599 47.3982 66.46 47.3072V2.69282C66.4599 2.60182 66.4778 2.51168 66.5126 2.4276C66.5474 2.34352 66.5984 2.26715 66.6628 2.2028C66.7271 2.13846 66.8035 2.0874 66.8876 2.0526C66.9716 2.0178 67.0618 1.99995 67.1528 2H100.807C100.898 1.99995 100.988 2.0178 101.072 2.0526C101.157 2.0874 101.233 2.13846 101.297 2.2028C101.362 2.26715 101.413 2.34352 101.447 2.4276C101.482 2.51168 101.5 2.60182 101.5 2.69282V40.7606C101.5 40.9162 101.447 41.0672 101.351 41.1895L96.1916 47.7361C96.1268 47.8184 96.0441 47.8849 95.9499 47.9306C95.8557 47.9763 95.7523 48 95.6476 48ZM67.8456 46.6144H95.3121L100.114 40.5203V3.38564H67.8456V46.6144Z" fill="black"/>
<path d="M95.2622 33.2206H72.6997C72.5159 33.2206 72.3397 33.1476 72.2097 33.0176C72.0798 32.8877 72.0068 32.7115 72.0068 32.5278C72.0068 32.344 72.0798 32.1678 72.2097 32.0379C72.3397 31.9079 72.5159 31.835 72.6997 31.835H95.2622C95.446 31.835 95.6222 31.9079 95.7522 32.0379C95.8821 32.1678 95.9551 32.344 95.9551 32.5278C95.9551 32.7115 95.8821 32.8877 95.7522 33.0176C95.6222 33.1476 95.446 33.2206 95.2622 33.2206Z" fill="black"/>
<path d="M91.1022 38.7665H76.8588C76.6751 38.7665 76.4988 38.6935 76.3689 38.5636C76.239 38.4337 76.166 38.2574 76.166 38.0737C76.166 37.8899 76.239 37.7137 76.3689 37.5837C76.4988 37.4538 76.6751 37.3809 76.8588 37.3809H91.1022C91.2859 37.3809 91.4622 37.4538 91.5921 37.5837C91.7221 37.7137 91.795 37.8899 91.795 38.0737C91.795 38.2574 91.7221 38.4337 91.5921 38.5636C91.4622 38.6935 91.2859 38.7665 91.1022 38.7665Z" fill="black"/>
<path d="M95.2622 47.9996C95.1712 47.9997 95.081 47.9818 94.9969 47.947C94.9129 47.9122 94.8365 47.8611 94.7721 47.7968C94.7078 47.7325 94.6567 47.6561 94.6219 47.572C94.5871 47.4879 94.5693 47.3978 94.5693 47.3068V40.7602C94.5693 40.6692 94.5871 40.5791 94.6219 40.495C94.6567 40.4109 94.7078 40.3345 94.7721 40.2702C94.8365 40.2058 94.9129 40.1548 94.9969 40.12C95.081 40.0852 95.1712 40.0673 95.2622 40.0674H100.807C100.991 40.0674 101.167 40.1403 101.297 40.2703C101.427 40.4002 101.5 40.5765 101.5 40.7602C101.5 40.9439 101.427 41.1202 101.297 41.2501C101.167 41.3801 100.991 41.453 100.807 41.453H95.955V47.3068C95.955 47.3978 95.9372 47.4879 95.9024 47.572C95.8676 47.6561 95.8165 47.7325 95.7522 47.7968C95.6878 47.8611 95.6115 47.9122 95.5274 47.947C95.4433 47.9818 95.3532 47.9997 95.2622 47.9996Z" fill="black"/>
<path d="M106.282 26.6271C112.174 26.6271 116.951 21.8502 116.951 15.9576C116.951 10.065 112.174 5.28809 106.282 5.28809C100.389 5.28809 95.6123 10.065 95.6123 15.9576C95.6123 21.8502 100.389 26.6271 106.282 26.6271Z" fill="#FFA18C"/>
<path d="M106.281 27.3197C104.034 27.3197 101.837 26.6533 99.9687 25.4048C98.1002 24.1562 96.6438 22.3817 95.7838 20.3055C94.9238 18.2292 94.6989 15.9446 95.1373 13.7405C95.5757 11.5364 96.6579 9.51176 98.2469 7.92269C99.836 6.33362 101.861 5.25147 104.065 4.81305C106.269 4.37462 108.553 4.59968 110.63 5.45969C112.706 6.31969 114.48 7.77603 115.729 9.64459C116.978 11.5131 117.644 13.71 117.644 15.9572C117.64 18.9697 116.442 21.8578 114.312 23.9879C112.182 26.118 109.294 27.3163 106.281 27.3197ZM106.281 5.9804C104.308 5.9804 102.379 6.56551 100.739 7.66179C99.0979 8.75806 97.8191 10.3162 97.064 12.1392C96.3089 13.9623 96.1113 15.9683 96.4963 17.9036C96.8812 19.8389 97.8314 21.6167 99.2267 23.0119C100.622 24.4072 102.4 25.3574 104.335 25.7424C106.27 26.1273 108.276 25.9298 110.099 25.1746C111.922 24.4195 113.481 23.1407 114.577 21.5C115.673 19.8594 116.258 17.9305 116.258 15.9572C116.255 13.3122 115.203 10.7763 113.333 8.90593C111.462 7.03558 108.926 5.9835 106.281 5.9804Z" fill="black"/>
<path d="M105.088 20.5419C104.991 20.5416 104.894 20.521 104.805 20.4813C104.716 20.4416 104.636 20.3836 104.571 20.3111L101.21 16.5521L102.244 15.6279L105.037 18.7523L110.279 11.6543L111.394 12.477L105.646 20.2604C105.584 20.3432 105.505 20.4113 105.415 20.4598C105.324 20.5084 105.223 20.5362 105.121 20.5412L105.088 20.5419Z" fill="black"/>
<path d="M78.1036 91.56C73.1436 91.56 69.0236 89.04 67.3436 85.16L73.1036 82.52C73.8236 83.92 75.8236 85.08 77.9436 85.08C80.4636 85.08 82.1036 83.68 82.1036 81.76C82.1036 79.52 80.1036 78.4 77.3436 78.4H75.7036V72.4H77.4636C79.2236 72.4 81.0236 71.64 81.0236 69.88C81.0236 68.4 79.6236 67.48 77.8236 67.48C76.4636 67.48 75.2636 68.04 74.6636 68.84L68.6636 66.56C70.0636 63.4 73.9036 61.16 77.9036 61.16C82.9436 61.16 87.5436 63.72 87.5436 69.4C87.5436 71.88 86.1836 73.88 84.1836 75.2C86.7836 76.64 88.5836 79.04 88.5836 82.28C88.5836 87.96 84.1036 91.56 78.1036 91.56ZM101.699 91H95.2192V67.84H91.2192V61.8H101.699V91Z" fill="#EA5C3C"/>
<path d="M35.0003 111.168C32.0883 111.168 29.7363 108.802 29.7363 105.89C29.7363 102.992 32.0883 100.64 35.0003 100.64C36.6943 100.64 38.2063 101.438 39.1723 102.684L37.8843 103.468C37.2123 102.642 36.1623 102.11 35.0003 102.11C32.9143 102.11 31.2063 103.79 31.2063 105.876C31.2063 108.004 32.9143 109.684 35.0003 109.684C36.9743 109.684 38.3323 108.41 38.4863 106.506H34.6643V105.176H40.0543C40.0963 105.4 40.1103 105.638 40.1103 105.89C40.1103 108.998 38.0383 111.168 35.0003 111.168ZM43.1604 111H41.8024V103.3H43.0624L43.1464 104.56C43.5944 103.734 44.4624 103.244 45.5964 103.258C45.7924 103.258 45.9884 103.272 46.1704 103.3L45.8904 104.616C45.8064 104.602 45.7084 104.588 45.6244 104.588C44.3224 104.588 43.1604 105.316 43.1604 107.444V111ZM50.3561 111.098C48.2841 111.098 46.6041 109.32 46.6041 107.15C46.6041 104.966 48.2841 103.188 50.3561 103.188C51.6161 103.188 52.7501 103.944 53.2261 104.924L53.2961 103.3H54.5561V111H53.2961L53.2261 109.39C52.7501 110.356 51.6161 111.098 50.3561 111.098ZM50.5801 109.74C52.0221 109.74 53.1841 108.578 53.1841 107.15C53.1841 105.708 52.0221 104.532 50.5801 104.532C49.1521 104.532 47.9901 105.708 47.9901 107.15C47.9901 108.578 49.1521 109.74 50.5801 109.74ZM57.9124 111H56.5544V103.3H57.8144L57.8844 104.658C58.3044 103.846 59.1304 103.188 60.3064 103.188C62.0984 103.188 63.4564 104.42 63.4564 107.08V111H62.0844V107.08C62.0844 105.33 61.1324 104.532 59.9984 104.532C58.8784 104.532 57.9124 105.316 57.9124 107.08V111ZM68.053 111.126C66.639 111.126 65.4629 110.272 65.4629 108.13V104.532H64.4269V103.3H65.5049L65.6729 100.78H66.821V103.3H68.669V104.532H66.821V108.116C66.821 109.222 67.367 109.796 68.235 109.796C68.431 109.796 68.6409 109.768 68.823 109.698L69.173 110.916C68.851 111.056 68.459 111.126 68.053 111.126ZM73.6607 111.14C72.5547 111.14 71.1267 110.776 70.2307 109.796L71.1687 108.9C71.6867 109.474 72.6947 109.852 73.6607 109.852C74.6687 109.852 75.3687 109.46 75.3687 108.788C75.3687 107.206 70.4967 108.172 70.4967 105.316C70.4967 104.056 71.6447 103.174 73.4087 103.174C74.4027 103.174 75.6627 103.44 76.5027 104.448L75.6627 105.288C75.1307 104.644 74.1647 104.406 73.4507 104.406C72.5267 104.406 71.8687 104.742 71.8687 105.33C71.8687 106.73 76.7407 105.862 76.7407 108.746C76.7407 110.398 75.2707 111.14 73.6607 111.14ZM83.7711 111H82.3291V100.78H86.2071C88.2791 100.78 89.6511 102.222 89.6511 103.986C89.6511 105.764 88.2791 107.206 86.2071 107.206H83.7711V111ZM83.7711 102.194V105.792H86.1791C87.4111 105.792 88.1671 104.966 88.1671 103.986C88.1671 103.034 87.4111 102.194 86.1791 102.194H83.7711ZM92.4885 111H91.1305V103.3H92.3905L92.4745 104.56C92.9225 103.734 93.7905 103.244 94.9245 103.258C95.1205 103.258 95.3165 103.272 95.4985 103.3L95.2185 104.616C95.1345 104.602 95.0365 104.588 94.9525 104.588C93.6505 104.588 92.4885 105.316 92.4885 107.444V111ZM99.8802 111.112C97.6962 111.112 95.9322 109.32 95.9322 107.136C95.9322 104.966 97.6962 103.202 99.8802 103.202C102.05 103.202 103.828 104.966 103.828 107.136C103.828 109.32 102.05 111.112 99.8802 111.112ZM99.8802 109.712C101.294 109.712 102.442 108.564 102.442 107.136C102.442 105.736 101.294 104.588 99.8802 104.588C98.4522 104.588 97.3182 105.736 97.3182 107.136C97.3182 108.564 98.4522 109.712 99.8802 109.712ZM108.536 111H107.178L104.154 103.3H105.624L107.864 108.956L110.09 103.3H111.56L108.536 111ZM113.418 102.516C112.942 102.516 112.55 102.124 112.55 101.648C112.55 101.172 112.942 100.78 113.418 100.78C113.88 100.78 114.272 101.172 114.272 101.648C114.272 102.124 113.88 102.516 113.418 102.516ZM114.09 111H112.732V103.3H114.09V111ZM119.385 111.098C117.313 111.098 115.633 109.32 115.633 107.15C115.633 104.966 117.313 103.188 119.385 103.188C120.631 103.188 121.751 103.916 122.213 104.882V100.08H123.585V111H122.325L122.255 109.39C121.779 110.356 120.645 111.098 119.385 111.098ZM119.609 109.74C121.051 109.74 122.213 108.578 122.213 107.15C122.213 105.708 121.051 104.532 119.609 104.532C118.181 104.532 117.019 105.708 117.019 107.15C117.019 108.578 118.181 109.74 119.609 109.74ZM129.21 111.112C126.872 111.112 125.122 109.32 125.122 107.136C125.122 104.966 126.872 103.202 129.028 103.202C131.268 103.202 132.934 104.966 132.934 107.136C132.934 107.318 132.906 107.584 132.892 107.78H126.592C126.802 108.942 127.88 109.824 129.21 109.824C130.162 109.824 130.918 109.432 131.408 108.83L132.514 109.516C131.786 110.482 130.512 111.112 129.21 111.112ZM126.578 106.66H131.52C131.45 105.47 130.456 104.476 129.042 104.476C127.684 104.476 126.662 105.47 126.578 106.66ZM137.76 111.098C135.688 111.098 134.008 109.32 134.008 107.15C134.008 104.966 135.688 103.188 137.76 103.188C139.006 103.188 140.126 103.916 140.588 104.882V100.08H141.96V111H140.7L140.63 109.39C140.154 110.356 139.02 111.098 137.76 111.098ZM137.984 109.74C139.426 109.74 140.588 108.578 140.588 107.15C140.588 105.708 139.426 104.532 137.984 104.532C136.556 104.532 135.394 105.708 135.394 107.15C135.394 108.578 136.556 109.74 137.984 109.74Z" fill="black"/>
</svg>
