<svg width="62" height="79" viewBox="0 0 62 79" fill="none" xmlns="http://www.w3.org/2000/svg">
<path d="M32.317 45.9096C31.9199 45.9096 31.5391 45.7515 31.2583 45.47C30.9776 45.1886 30.8197 44.8069 30.8197 44.4089V41.1287C30.8195 40.8635 30.7142 40.6091 30.5271 40.4216C30.34 40.234 30.0863 40.1285 29.8217 40.1283H20.7025C20.4379 40.1285 20.1842 40.234 19.9971 40.4216C19.8099 40.6091 19.7047 40.8635 19.7044 41.1287V44.4089C19.7044 44.8069 19.5466 45.1886 19.2658 45.4701C18.985 45.7515 18.6043 45.9096 18.2072 45.9096C17.8101 45.9096 17.4292 45.7515 17.1484 45.4701C16.8677 45.1886 16.71 44.8069 16.71 44.4089V41.1287C16.7112 40.0678 17.1322 39.0506 17.8807 38.3004C18.6292 37.5502 19.644 37.1282 20.7025 37.127H29.8217C30.8802 37.1282 31.8949 37.5502 32.6434 38.3004C33.3919 39.0506 33.813 40.0678 33.8142 41.1287V44.4089C33.8142 44.8069 33.6565 45.1886 33.3757 45.47C33.0949 45.7515 32.714 45.9096 32.317 45.9096Z" fill="white"/>
<path d="M32.3165 46.4493C31.7766 46.4488 31.2589 46.2336 30.8771 45.8509C30.4952 45.4683 30.2805 44.9494 30.2798 44.4083V41.128C30.2797 41.006 30.2312 40.8891 30.1452 40.8029C30.0591 40.7167 29.9424 40.6682 29.8207 40.6681H20.7019C20.5802 40.6682 20.4635 40.7167 20.3774 40.8029C20.2914 40.8891 20.2429 41.006 20.2428 41.128V44.4083C20.2432 44.6766 20.1909 44.9424 20.0888 45.1904C19.9866 45.4384 19.8367 45.6638 19.6475 45.8537C19.4584 46.0436 19.2337 46.1942 18.9864 46.297C18.7391 46.3997 18.4741 46.4527 18.2063 46.4527C17.9386 46.4527 17.6736 46.3997 17.4263 46.297C17.179 46.1942 16.9543 46.0436 16.7652 45.8537C16.576 45.6638 16.4261 45.4384 16.3239 45.1904C16.2218 44.9424 16.1695 44.6766 16.1699 44.4083V41.128C16.1713 39.9238 16.6493 38.7692 17.4989 37.9177C18.3485 37.0662 19.5004 36.5873 20.7019 36.5859H29.8207C31.0222 36.5873 32.174 37.0662 33.0237 37.9177C33.8733 38.7692 34.3513 39.9238 34.3527 41.128V44.4083C34.3521 44.9494 34.1374 45.4681 33.7557 45.8508C33.374 46.2334 32.8564 46.4487 32.3165 46.4493ZM20.7019 39.5873H29.8207C30.2283 39.5877 30.6191 39.7501 30.9073 40.039C31.1956 40.3278 31.3577 40.7195 31.3582 41.128V44.4083C31.3579 44.5346 31.3824 44.6597 31.4305 44.7764C31.4785 44.8932 31.5491 44.9993 31.638 45.0887C31.727 45.1781 31.8327 45.2491 31.9491 45.2975C32.0655 45.3459 32.1902 45.3708 32.3162 45.3708C32.4422 45.3708 32.567 45.3459 32.6834 45.2975C32.7998 45.2491 32.9056 45.1781 32.9946 45.0887C33.0836 44.9993 33.154 44.8932 33.202 44.7764C33.25 44.6597 33.2746 44.5346 33.2743 44.4083V41.128C33.2733 40.2103 32.9091 39.3305 32.2616 38.6816C31.6141 38.0327 30.7363 37.6677 29.8207 37.6668H20.7019C19.7863 37.6677 18.9084 38.0327 18.261 38.6816C17.6135 39.3305 17.2493 40.2103 17.2483 41.128V44.4083C17.248 44.5346 17.2725 44.6597 17.3206 44.7764C17.3686 44.8932 17.4392 44.9993 17.5282 45.0887C17.6171 45.1781 17.7228 45.2491 17.8392 45.2975C17.9556 45.3459 18.0803 45.3708 18.2063 45.3708C18.3324 45.3708 18.4571 45.3459 18.5735 45.2975C18.6899 45.2491 18.7957 45.1781 18.8847 45.0887C18.9737 44.9993 19.0441 44.8932 19.0921 44.7764C19.1401 44.6597 19.1647 44.5346 19.1644 44.4083V41.128C19.1649 40.7195 19.327 40.3278 19.6153 40.039C19.9035 39.7501 20.2943 39.5877 20.7019 39.5873Z" fill="black"/>
<path d="M46.1551 56.5566H4.36853C3.47518 56.5566 2.75098 57.2825 2.75098 58.1779V76.8392C2.75098 77.7345 3.47518 78.4604 4.36853 78.4604H46.1551C47.0484 78.4604 47.7726 77.7345 47.7726 76.8392V58.1779C47.7726 57.2825 47.0484 56.5566 46.1551 56.5566Z" fill="white"/>
<path d="M46.1545 79.0002H4.36768C3.79586 78.9996 3.24766 78.7717 2.84332 78.3664C2.43899 77.9612 2.21155 77.4117 2.21094 76.8386V58.1773C2.21155 57.6042 2.43899 57.0547 2.84332 56.6494C3.24766 56.2442 3.79586 56.0162 4.36768 56.0156H46.1545C46.7263 56.0162 47.2745 56.2442 47.6788 56.6494C48.0832 57.0547 48.3106 57.6042 48.3112 58.1773V76.8386C48.3106 77.4117 48.0832 77.9612 47.6788 78.3664C47.2745 78.7717 46.7263 78.9996 46.1545 79.0002ZM4.36768 57.0965C4.08178 57.0968 3.80766 57.2108 3.6055 57.4134C3.40334 57.616 3.28963 57.8908 3.28931 58.1773V76.8386C3.28964 77.1251 3.40334 77.3999 3.6055 77.6025C3.80766 77.8051 4.08178 77.9191 4.36768 77.9194H46.1545C46.4404 77.9191 46.7145 77.8051 46.9167 77.6025C47.1188 77.3999 47.2325 77.1251 47.2329 76.8386V58.1773C47.2325 57.8907 47.1188 57.616 46.9167 57.4134C46.7145 57.2108 46.4404 57.0968 46.1545 57.0965L4.36768 57.0965Z" fill="black"/>
<path d="M48.0193 60.4199L25.5223 63.6897C25.3494 63.7161 25.1735 63.7161 25.0006 63.6897L2.5036 60.4199C2.09568 60.3574 1.72356 60.1506 1.45472 59.8368C1.18587 59.523 1.03809 59.1231 1.03809 58.7095V45.3592C1.03809 44.9003 1.21995 44.4602 1.5437 44.1357C1.86745 43.8112 2.30652 43.6289 2.76437 43.6289H47.7585C48.2164 43.6289 48.6554 43.8112 48.9792 44.1357C49.3029 44.4602 49.4848 44.9003 49.4848 45.3592V58.7095C49.4848 59.1231 49.337 59.523 49.0682 59.8368C48.7993 60.1506 48.4272 60.3574 48.0193 60.4199Z" fill="white"/>
<path d="M25.2626 64.2494C25.1478 64.2495 25.0332 64.2408 24.9198 64.2235L2.42621 60.9541C1.88903 60.8753 1.39835 60.6047 1.04429 60.1922C0.690224 59.7797 0.496576 59.2529 0.499047 58.7088V45.3585C0.499723 44.7565 0.738649 44.1793 1.16342 43.7536C1.58819 43.3279 2.1641 43.0885 2.76478 43.0879H47.7588C48.3594 43.0886 48.9352 43.3281 49.3599 43.7538C49.7846 44.1794 50.0234 44.7566 50.024 45.3585V58.7088C50.0267 59.2523 49.8337 59.7785 49.4805 60.1908C49.1272 60.6032 48.6375 60.874 48.1011 60.9536L48.0968 60.9541L25.5996 64.2241C25.488 64.241 25.3754 64.2494 25.2626 64.2494ZM2.76478 44.1687C2.45003 44.1691 2.14831 44.2946 1.92573 44.5176C1.70314 44.7406 1.57786 45.0431 1.57742 45.3585V58.7088C1.576 58.9936 1.67714 59.2693 1.86228 59.4854C2.04742 59.7014 2.30413 59.8433 2.58523 59.8849L25.0783 63.1543C25.1984 63.1735 25.3209 63.1737 25.4411 63.1548L47.9399 59.8849C48.2206 59.8428 48.4767 59.7007 48.6614 59.4847C48.8461 59.2687 48.9471 58.9933 48.9456 58.7088V45.3585C48.9453 45.0431 48.8202 44.7407 48.5977 44.5177C48.3752 44.2946 48.0735 44.1691 47.7588 44.1687H2.76478Z" fill="black"/>
<path d="M27.1735 59.623H23.3489C22.7533 59.623 22.2705 60.107 22.2705 60.7039V66.7547C22.2705 67.3516 22.7533 67.8355 23.3489 67.8355H27.1735C27.769 67.8355 28.2518 67.3516 28.2518 66.7547V60.7039C28.2518 60.107 27.769 59.623 27.1735 59.623Z" fill="white"/>
<path d="M27.1738 68.3752H23.349C22.9201 68.3747 22.509 68.2038 22.2057 67.8998C21.9025 67.5959 21.7319 67.1838 21.7314 66.7539V60.7033C21.7319 60.2734 21.9025 59.8613 22.2057 59.5574C22.509 59.2535 22.9201 59.0825 23.349 59.082H27.1738C27.6027 59.0825 28.0139 59.2535 28.3171 59.5574C28.6204 59.8613 28.7909 60.2734 28.7914 60.7033V66.7539C28.7909 67.1838 28.6204 67.5959 28.3171 67.8998C28.0139 68.2038 27.6027 68.3747 27.1738 68.3752ZM23.349 60.1629C23.206 60.163 23.069 60.22 22.9679 60.3213C22.8668 60.4226 22.81 60.56 22.8098 60.7033V66.7539C22.81 66.8972 22.8668 67.0346 22.9679 67.1359C23.069 67.2372 23.206 67.2942 23.349 67.2944H27.1738C27.3168 67.2942 27.4538 67.2372 27.5549 67.1359C27.656 67.0346 27.7129 66.8972 27.713 66.7539V60.7033C27.7129 60.56 27.656 60.4226 27.5549 60.3213C27.4538 60.22 27.3168 60.163 27.1738 60.1629H23.349Z" fill="black"/>
<path d="M50.7931 16.7405C52.9091 16.7405 54.6244 15.0213 54.6244 12.9005C54.6244 10.7798 52.9091 9.06055 50.7931 9.06055C48.6772 9.06055 46.9619 10.7798 46.9619 12.9005C46.9619 15.0213 48.6772 16.7405 50.7931 16.7405Z" fill="white"/>
<path d="M50.7919 17.2818C49.6653 17.2819 48.5823 16.8462 47.7683 16.0655C46.9544 15.2848 46.4725 14.2193 46.4231 13.0913C46.3738 11.9632 46.7608 10.8596 47.5034 10.0104C48.2459 9.16129 49.2869 8.63218 50.4091 8.53341C51.5314 8.43464 52.6483 8.77382 53.5272 9.48025C54.4061 10.1867 54.979 11.2058 55.1266 12.3253C55.2741 13.4447 54.9848 14.578 54.3191 15.4889C53.6534 16.3999 52.6627 17.0181 51.5533 17.2148C51.3019 17.2594 51.0472 17.2818 50.7919 17.2818ZM50.8014 9.60067C50.6074 9.60064 50.4137 9.61768 50.2227 9.6516C49.3917 9.79999 48.6499 10.264 48.1518 10.9469C47.6537 11.6299 47.4376 12.4791 47.5486 13.3178C47.6597 14.1564 48.0894 14.9198 48.748 15.4488C49.4066 15.9779 50.2435 16.2319 51.0843 16.1579C51.9251 16.0839 52.705 15.6876 53.2616 15.0516C53.8181 14.4156 54.1084 13.5889 54.0719 12.7437C54.0354 11.8985 53.6751 11.0999 53.0658 10.5145C52.4566 9.92897 51.6454 9.60165 50.8014 9.60067Z" fill="black"/>
<path d="M26.8916 11.2156L32.3894 10.2439L34.4169 21.7686L28.9191 22.7402C27.4576 22.9985 25.9535 22.6643 24.7378 21.8111C23.5222 20.958 22.6944 19.6557 22.4367 18.1909L22.3525 17.7127C22.0948 16.2479 22.4283 14.7404 23.2796 13.5219C24.1308 12.3035 25.4301 11.4739 26.8916 11.2156Z" fill="white"/>
<path d="M27.9447 23.3657C26.5033 23.363 25.1087 22.8525 24.0048 21.9236C22.9009 20.9947 22.1579 19.7064 21.9057 18.284L21.8215 17.8053C21.5411 16.1996 21.9076 14.548 22.8405 13.2128C23.7733 11.8775 25.1965 10.9676 26.7979 10.6825L32.2955 9.71093C32.4362 9.68675 32.5809 9.71924 32.6978 9.80131C32.8148 9.88339 32.8946 10.0084 32.92 10.1492L34.9478 21.674C34.9602 21.7439 34.9587 21.8155 34.9434 21.8848C34.9281 21.9541 34.8994 22.0197 34.8588 22.0779C34.8182 22.1361 34.7666 22.1856 34.7069 22.2238C34.6471 22.2619 34.5805 22.2879 34.5107 22.3002L29.013 23.2717C28.6603 23.3341 28.3028 23.3656 27.9447 23.3657ZM31.9517 10.8693L26.9853 11.747C25.6653 11.9818 24.4922 12.7318 23.7232 13.8324C22.9542 14.933 22.6523 16.2944 22.8835 17.6179L22.9677 18.0966C23.2022 19.4195 23.9507 20.5952 25.0488 21.3658C26.1469 22.1364 27.5051 22.439 28.8256 22.2073L33.7925 21.3296L31.9517 10.8693Z" fill="black"/>
<path d="M50.3972 25.4932L34.4181 21.7681L32.3906 10.2435L46.135 1.26544C46.391 1.09817 46.6845 0.997139 46.989 0.971397C47.2936 0.945656 47.5998 0.996004 47.8802 1.11793C48.1606 1.23986 48.4065 1.42956 48.5958 1.67006C48.7851 1.91056 48.912 2.19436 48.965 2.49605L52.6366 23.3666C52.6897 23.6683 52.6673 23.9785 52.5715 24.2694C52.4756 24.5603 52.3093 24.8228 52.0875 25.0335C51.8656 25.2442 51.5951 25.3965 51.3001 25.4767C51.0051 25.5569 50.6949 25.5626 50.3972 25.4932Z" fill="white"/>
<path d="M50.8178 26.0814C50.6349 26.0813 50.4525 26.0603 50.2744 26.0189L34.2952 22.294C34.1923 22.27 34.0987 22.2162 34.026 22.1393C33.9534 22.0624 33.9049 21.9658 33.8866 21.8615L31.8589 10.3367C31.8404 10.2324 31.8529 10.1249 31.895 10.0277C31.937 9.93046 32.0067 9.84779 32.0953 9.78999L45.8398 0.811887C46.1706 0.595894 46.5497 0.465468 46.943 0.432269C47.3364 0.39907 47.7318 0.464135 48.0939 0.621649C48.4561 0.779163 48.7737 1.02421 49.0182 1.33485C49.2627 1.6455 49.4265 2.01207 49.4951 2.40174L53.1667 23.2722C53.2272 23.6161 53.2118 23.9692 53.1217 24.3066C53.0316 24.644 52.869 24.9575 52.6452 25.2252C52.4213 25.4929 52.1418 25.7082 51.8261 25.8561C51.5104 26.0041 51.1662 26.0809 50.8178 26.0814ZM34.8866 21.3221L50.5187 24.966C50.7296 25.0152 50.9493 25.0112 51.1583 24.9544C51.3673 24.8977 51.5589 24.7898 51.7161 24.6406C51.8733 24.4913 51.9911 24.3054 52.059 24.0993C52.1269 23.8932 52.1428 23.6735 52.1052 23.4598L48.4336 2.58935C48.3959 2.37562 48.306 2.17457 48.1719 2.00419C48.0377 1.83382 47.8636 1.69944 47.6649 1.61306C47.4663 1.52669 47.2494 1.49102 47.0336 1.50924C46.8178 1.52747 46.6099 1.59902 46.4285 1.71751L32.9826 10.5006L34.8866 21.3221Z" fill="black"/>
<path d="M34.4179 21.7686L36.3704 32.8664C35.9043 32.9487 35.4266 32.9383 34.9646 32.8356C34.5026 32.733 34.0653 32.5401 33.6776 32.268C33.29 31.996 32.9596 31.6501 32.7053 31.25C32.4511 30.85 32.2778 30.4037 32.1956 29.9366L30.8691 22.3958L34.4179 21.7686Z" fill="white"/>
<path d="M35.7429 33.4616C34.7695 33.4599 33.8277 33.1152 33.0822 32.4879C32.3367 31.8606 31.835 30.9905 31.6648 30.0299L30.3384 22.4892C30.326 22.4193 30.3275 22.3477 30.3427 22.2784C30.358 22.2091 30.3868 22.1435 30.4274 22.0853C30.468 22.0271 30.5196 21.9776 30.5793 21.9394C30.639 21.9013 30.7057 21.8753 30.7754 21.863L34.3244 21.2358C34.3941 21.2234 34.4655 21.225 34.5346 21.2403C34.6037 21.2557 34.6692 21.2845 34.7272 21.3252C34.7852 21.3659 34.8346 21.4177 34.8726 21.4775C34.9106 21.5374 34.9366 21.6042 34.9488 21.674L36.9013 32.7719C36.9136 32.8417 36.9121 32.9134 36.8968 32.9827C36.8815 33.052 36.8527 33.1176 36.8122 33.1757C36.7716 33.2339 36.72 33.2835 36.6602 33.3216C36.6005 33.3597 36.534 33.3857 36.4642 33.398C36.2261 33.4402 35.9847 33.4615 35.7429 33.4616ZM31.4936 22.8335L32.7263 29.8421C32.8522 30.5516 33.2226 31.1944 33.7729 31.6583C34.3232 32.1222 35.0185 32.3778 35.7376 32.3805L33.9805 22.3942L31.4936 22.8335Z" fill="black"/>
<path d="M47.8092 25.2216C47.6826 25.2215 47.56 25.1767 47.463 25.0951C47.366 25.0134 47.3009 24.9001 47.279 24.7751L43.4389 2.94762C43.414 2.80653 43.4462 2.66132 43.5281 2.54394C43.6101 2.42656 43.7351 2.34662 43.8759 2.32171C44.0167 2.2968 44.1616 2.32895 44.2787 2.4111C44.3958 2.49324 44.4755 2.61865 44.5004 2.75974L48.3405 24.5873C48.3529 24.6571 48.3514 24.7288 48.3362 24.7981C48.3209 24.8674 48.2921 24.933 48.2515 24.9911C48.2109 25.0493 48.1593 25.0989 48.0996 25.137C48.0399 25.1751 47.9732 25.2011 47.9035 25.2134C47.8723 25.2189 47.8408 25.2216 47.8092 25.2216Z" fill="black"/>
<path d="M58.4242 12.1228C58.2894 12.1226 58.1596 12.0718 58.0604 11.9804C57.9611 11.8891 57.8995 11.7638 57.8878 11.6292C57.8761 11.4946 57.9151 11.3605 57.9972 11.2533C58.0792 11.1462 58.1983 11.0737 58.331 11.0501L60.9811 10.5815C61.1219 10.5566 61.2669 10.5887 61.3841 10.6709C61.5012 10.7531 61.581 10.8786 61.6059 11.0198C61.6307 11.1609 61.5986 11.3062 61.5166 11.4236C61.4346 11.5411 61.3094 11.621 61.1686 11.6459L58.5184 12.1146C58.4873 12.12 58.4558 12.1228 58.4242 12.1228Z" fill="black"/>
<path d="M55.9195 8.18388C55.8209 8.18378 55.7243 8.15659 55.64 8.10528C55.5558 8.05397 55.4871 7.98051 55.4416 7.89286C55.3962 7.80521 55.3756 7.70674 55.382 7.60815C55.3885 7.50957 55.4217 7.41463 55.4782 7.33367L57.0216 5.12398C57.1041 5.00802 57.229 4.92942 57.3691 4.90528C57.5092 4.88114 57.6531 4.91341 57.7695 4.99508C57.886 5.07675 57.9655 5.2012 57.9909 5.34137C58.0163 5.48153 57.9855 5.62608 57.9051 5.74356L56.3618 7.95325C56.3121 8.02461 56.246 8.08286 56.1689 8.12303C56.0919 8.16319 56.0063 8.18406 55.9195 8.18388Z" fill="black"/>
<path d="M59.6203 18.2293C59.5098 18.2295 59.4021 18.1954 59.3117 18.1317L57.1071 16.5846C57.0484 16.5442 56.9982 16.4926 56.9595 16.4327C56.9208 16.3727 56.8944 16.3057 56.8817 16.2355C56.869 16.1652 56.8703 16.0932 56.8855 16.0235C56.9008 15.9537 56.9296 15.8877 56.9704 15.8293C57.0113 15.7708 57.0633 15.721 57.1234 15.6827C57.1835 15.6445 57.2505 15.6186 57.3207 15.6065C57.3909 15.5944 57.4628 15.5963 57.5323 15.6122C57.6017 15.6281 57.6673 15.6576 57.7252 15.699L59.9299 17.2461C60.0239 17.312 60.0945 17.4063 60.1314 17.5152C60.1683 17.6241 60.1696 17.742 60.1351 17.8516C60.1006 17.9613 60.0321 18.0571 59.9395 18.125C59.8469 18.193 59.735 18.2295 59.6203 18.2293Z" fill="black"/>
</svg>
