<svg width="197" height="242" viewBox="0 0 197 242" fill="none" xmlns="http://www.w3.org/2000/svg">
<g clip-path="url(#clip0_1449_2920)">
<g clip-path="url(#clip1_1449_2920)">
<path d="M98.4809 136.636C99.647 136.636 100.771 136.202 101.635 135.419C102.499 134.635 103.041 133.559 103.155 132.398C103.269 131.238 102.947 130.076 102.252 129.14C101.557 128.203 100.539 127.559 99.3949 127.332C98.2512 127.105 97.0639 127.311 96.0639 127.911C95.0639 128.511 94.3228 129.461 93.9848 130.577C93.6467 131.693 93.7359 132.895 94.2349 133.949C94.7339 135.003 95.6071 135.834 96.6846 136.279C97.2542 136.515 97.8646 136.636 98.4809 136.636ZM112.074 153.825L106.218 141.177L106.207 141.156L106.13 141.006C106.078 140.917 106.02 140.832 105.956 140.75C105.471 140.034 104.819 139.447 104.055 139.041C103.291 138.635 102.439 138.422 101.574 138.421H95.3875C94.582 138.422 93.7875 138.607 93.0645 138.963C92.3415 139.318 91.7092 139.833 91.2157 140.47C91.0476 140.627 90.9037 140.807 90.7887 141.006L84.8443 153.825C84.6905 154.092 84.5909 154.387 84.551 154.692C84.5111 154.998 84.5318 155.308 84.6119 155.606C84.6919 155.903 84.8298 156.182 85.0177 156.426C85.2055 156.671 85.4396 156.875 85.7066 157.029C85.9735 157.183 86.2682 157.283 86.5737 157.322C86.8792 157.362 87.1895 157.342 87.487 157.261C87.7845 157.181 88.0633 157.044 88.3075 156.856C88.5518 156.668 88.7566 156.434 88.9103 156.167L93.1023 146.754V175.62C93.1023 176.242 93.3496 176.839 93.7898 177.279C94.2299 177.72 94.8269 177.967 95.4493 177.967C96.0718 177.967 96.6688 177.72 97.1089 177.279C97.5491 176.839 97.7963 176.242 97.7963 175.62V160.847H99.1653V175.62C99.1653 176.242 99.4126 176.839 99.8528 177.279C100.293 177.72 100.89 177.967 101.512 177.967C102.135 177.967 102.732 177.72 103.172 177.279C103.612 176.839 103.859 176.242 103.859 175.62V146.837L108.008 156.167C108.162 156.434 108.366 156.669 108.61 156.858C108.855 157.047 109.134 157.185 109.432 157.266C109.73 157.347 110.04 157.368 110.346 157.328C110.653 157.288 110.948 157.188 111.215 157.035C111.483 156.881 111.717 156.675 111.905 156.43C112.093 156.186 112.231 155.906 112.311 155.608C112.39 155.31 112.411 154.999 112.37 154.693C112.33 154.387 112.229 154.092 112.074 153.825Z" fill="#569FD6"/>
<path d="M140.02 136.636C141.105 136.635 142.157 136.258 142.995 135.569C143.833 134.88 144.407 133.922 144.618 132.858C144.829 131.793 144.664 130.689 144.152 129.732C143.64 128.775 142.812 128.026 141.809 127.611C140.807 127.196 139.691 127.142 138.653 127.458C137.615 127.773 136.718 128.439 136.116 129.341C135.513 130.244 135.242 131.327 135.349 132.407C135.456 133.487 135.934 134.496 136.701 135.263C137.582 136.143 138.776 136.636 140.02 136.636ZM153.614 153.825L147.757 141.177L147.746 141.156L147.669 141.006C147.617 140.917 147.559 140.832 147.495 140.75C147.01 140.034 146.358 139.447 145.594 139.041C144.83 138.635 143.978 138.422 143.113 138.421H136.926C136.121 138.422 135.326 138.607 134.603 138.963C133.88 139.318 133.248 139.833 132.754 140.47C132.586 140.627 132.442 140.807 132.327 141.006L126.383 153.825C126.23 154.092 126.13 154.387 126.09 154.692C126.05 154.998 126.071 155.308 126.151 155.606C126.231 155.903 126.369 156.182 126.557 156.426C126.745 156.671 126.979 156.875 127.246 157.029C127.513 157.183 127.807 157.282 128.113 157.322C128.418 157.362 128.729 157.342 129.026 157.261C129.324 157.181 129.602 157.044 129.847 156.856C130.091 156.668 130.296 156.434 130.449 156.167L134.641 146.754V175.62C134.641 176.242 134.889 176.839 135.329 177.28C135.769 177.72 136.366 177.967 136.988 177.967C137.611 177.967 138.208 177.72 138.648 177.28C139.088 176.839 139.335 176.242 139.335 175.62V160.847H140.704V175.62C140.704 176.242 140.952 176.839 141.392 177.28C141.832 177.72 142.429 177.967 143.051 177.967C143.674 177.967 144.271 177.72 144.711 177.28C145.151 176.839 145.398 176.242 145.398 175.62V146.837L149.547 156.167C149.701 156.434 149.905 156.669 150.15 156.858C150.394 157.046 150.673 157.185 150.971 157.265C151.269 157.346 151.579 157.367 151.885 157.327C152.191 157.287 152.487 157.188 152.754 157.034C153.021 156.88 153.256 156.675 153.444 156.43C153.632 156.185 153.77 155.906 153.85 155.608C153.93 155.31 153.95 154.999 153.91 154.693C153.869 154.387 153.769 154.092 153.614 153.825Z" fill="#569FD6"/>
<path d="M181.561 136.636C182.646 136.635 183.698 136.258 184.536 135.569C185.374 134.88 185.948 133.922 186.159 132.858C186.37 131.793 186.205 130.689 185.693 129.732C185.181 128.775 184.353 128.026 183.35 127.611C182.348 127.196 181.232 127.142 180.194 127.458C179.156 127.773 178.259 128.439 177.657 129.341C177.054 130.244 176.783 131.327 176.89 132.407C176.997 133.487 177.475 134.496 178.242 135.263C179.123 136.143 180.317 136.636 181.561 136.636ZM195.155 153.825L189.298 141.177L189.287 141.156L189.21 141.006C189.158 140.917 189.1 140.832 189.036 140.75C188.551 140.034 187.899 139.447 187.135 139.041C186.371 138.635 185.519 138.422 184.654 138.421H178.467C177.662 138.422 176.867 138.608 176.144 138.963C175.421 139.318 174.789 139.834 174.295 140.47C174.127 140.627 173.983 140.807 173.868 141.006L167.924 153.825C167.614 154.365 167.53 155.005 167.692 155.606C167.854 156.207 168.247 156.719 168.787 157.029C169.326 157.34 169.966 157.423 170.567 157.261C171.168 157.1 171.68 156.706 171.99 156.167L176.182 146.754V175.62C176.182 175.928 176.243 176.234 176.36 176.519C176.478 176.804 176.651 177.063 176.869 177.281C177.087 177.499 177.346 177.672 177.631 177.79C177.916 177.908 178.221 177.969 178.529 177.969C178.838 177.969 179.144 177.908 179.429 177.79C179.714 177.672 179.973 177.499 180.191 177.28C180.409 177.062 180.582 176.803 180.699 176.518C180.817 176.233 180.877 175.928 180.876 175.62V160.847H182.245V175.62C182.245 176.242 182.493 176.839 182.933 177.279C183.373 177.72 183.97 177.967 184.592 177.967C185.215 177.967 185.812 177.72 186.252 177.279C186.692 176.839 186.939 176.242 186.939 175.62V146.837L191.088 156.167C191.242 156.434 191.446 156.669 191.691 156.858C191.935 157.046 192.214 157.185 192.512 157.265C192.81 157.346 193.12 157.367 193.426 157.327C193.732 157.287 194.028 157.188 194.295 157.034C194.562 156.88 194.797 156.675 194.985 156.43C195.173 156.185 195.311 155.906 195.391 155.608C195.471 155.31 195.491 154.999 195.451 154.693C195.41 154.387 195.31 154.092 195.155 153.825Z" fill="#569FD6"/>
<path d="M15.4002 199.697C16.4852 199.696 17.5363 199.319 18.3746 198.63C19.2128 197.942 19.7862 196.983 19.9972 195.919C20.2082 194.855 20.0437 193.75 19.5316 192.794C19.0196 191.837 18.1917 191.088 17.1891 190.673C16.1864 190.258 15.071 190.204 14.0329 190.52C12.9948 190.835 12.0982 191.501 11.4958 192.403C10.8934 193.305 10.6225 194.389 10.7292 195.469C10.836 196.548 11.3138 197.558 12.0813 198.325C12.9622 199.203 14.1558 199.697 15.4002 199.697ZM28.9941 216.887L23.1374 204.238L23.127 204.217L23.0497 204.067C22.9973 203.978 22.939 203.893 22.8752 203.812C22.3903 203.095 21.7375 202.508 20.9737 202.102C20.2099 201.696 19.3584 201.483 18.4934 201.482H12.3068C11.5013 201.483 10.7067 201.669 9.98367 202.024C9.26067 202.379 8.62835 202.895 8.13494 203.531C7.96685 203.688 7.82297 203.869 7.708 204.067L1.76348 216.887C1.45465 217.426 1.37229 218.065 1.53445 218.665C1.69661 219.265 2.09006 219.776 2.62847 220.086C3.16689 220.396 3.80629 220.48 4.40643 220.319C5.00657 220.158 5.51842 219.766 5.82968 219.228L10.0217 209.815V238.681C10.0217 239.303 10.269 239.9 10.7091 240.341C11.1493 240.781 11.7462 241.028 12.3687 241.028C12.9911 241.028 13.5881 240.781 14.0283 240.341C14.4684 239.9 14.7157 239.303 14.7157 238.681V223.908H16.0846V238.681C16.0846 239.303 16.3318 239.9 16.772 240.341C17.2122 240.781 17.8092 241.028 18.4316 241.028C19.0541 241.028 19.6511 240.781 20.0912 240.341C20.5314 239.9 20.7787 239.303 20.7787 238.681V209.898L24.928 219.228C25.0816 219.495 25.2864 219.73 25.5306 219.918C25.7748 220.106 26.0537 220.244 26.3513 220.324C26.6489 220.404 26.9594 220.425 27.2651 220.385C27.5707 220.345 27.8655 220.246 28.1326 220.092C28.3997 219.938 28.6339 219.733 28.8217 219.489C29.0096 219.244 29.1475 218.965 29.2275 218.668C29.3075 218.37 29.3281 218.059 29.288 217.754C29.248 217.448 29.1481 217.154 28.9941 216.887Z" fill="#569FD6"/>
<path d="M56.9399 199.697C58.0249 199.696 59.076 199.319 59.9142 198.63C60.7524 197.942 61.3258 196.983 61.5368 195.919C61.7478 194.855 61.5832 193.75 61.0712 192.794C60.5592 191.837 59.7313 191.088 58.7287 190.673C57.7261 190.259 56.6108 190.204 55.5727 190.52C54.5346 190.835 53.638 191.501 53.0356 192.403C52.4332 193.306 52.1623 194.389 52.2691 195.469C52.3758 196.548 52.8536 197.558 53.621 198.325C54.5019 199.203 55.6955 199.697 56.9399 199.697ZM70.5339 216.887L64.6771 204.238L64.6667 204.217L64.5894 204.067C64.5371 203.978 64.4788 203.893 64.4149 203.812C63.9301 203.095 63.2773 202.508 62.5135 202.102C61.7497 201.696 60.8982 201.483 60.0331 201.482H53.8465C53.041 201.483 52.2464 201.669 51.5234 202.024C50.8004 202.379 50.1681 202.895 49.6747 203.531C49.5066 203.688 49.3627 203.869 49.2477 204.067L43.3032 216.887C43.1495 217.154 43.0498 217.448 43.01 217.754C42.9701 218.059 42.9908 218.37 43.0708 218.667C43.1509 218.965 43.2888 219.243 43.4767 219.488C43.6645 219.732 43.8986 219.937 44.1656 220.09C44.4326 220.244 44.7272 220.344 45.0327 220.384C45.3382 220.424 45.6486 220.403 45.9461 220.323C46.2436 220.243 46.5224 220.105 46.7666 219.917C47.0109 219.729 47.2157 219.495 47.3694 219.228L51.5614 209.815V238.681C51.5614 239.303 51.8087 239.9 52.2489 240.34C52.689 240.781 53.286 241.028 53.9084 241.028C54.5309 241.028 55.1279 240.781 55.568 240.34C56.0082 239.9 56.2554 239.303 56.2554 238.681V223.908H57.6244V238.681C57.6244 239.303 57.8717 239.9 58.3118 240.34C58.752 240.781 59.349 241.028 59.9714 241.028C60.5939 241.028 61.1909 240.781 61.631 240.34C62.0711 239.9 62.3184 239.303 62.3184 238.681V209.898L66.4677 219.228C66.6211 219.496 66.8257 219.731 67.07 219.919C67.3142 220.108 67.5933 220.246 67.8911 220.327C68.189 220.408 68.4999 220.429 68.8059 220.389C69.1119 220.349 69.4071 220.249 69.6745 220.095C69.9419 219.941 70.1763 219.736 70.3643 219.491C70.5523 219.247 70.6901 218.967 70.77 218.669C70.8498 218.371 70.87 218.06 70.8295 217.754C70.789 217.448 70.6886 217.154 70.5339 216.887Z" fill="#569FD6"/>
<path d="M98.4809 199.697C99.647 199.697 100.771 199.263 101.635 198.48C102.499 197.697 103.041 196.62 103.155 195.459C103.269 194.299 102.947 193.138 102.252 192.201C101.557 191.265 100.539 190.62 99.395 190.393C98.2512 190.166 97.0639 190.372 96.0639 190.972C95.064 191.572 94.3229 192.523 93.9848 193.638C93.6468 194.754 93.7359 195.956 94.2349 197.01C94.7339 198.064 95.6071 198.895 96.6846 199.341C97.2542 199.576 97.8646 199.697 98.4809 199.697ZM112.074 216.887L106.218 204.238L106.207 204.218L106.13 204.068C106.078 203.979 106.02 203.893 105.956 203.812C105.471 203.095 104.819 202.509 104.055 202.102C103.291 201.696 102.439 201.483 101.574 201.482H95.3875C94.582 201.483 93.7874 201.669 93.0644 202.024C92.3414 202.379 91.7091 202.895 91.2157 203.531C91.0476 203.688 90.9037 203.869 90.7887 204.068L84.8443 216.887C84.6905 217.154 84.5909 217.448 84.551 217.754C84.5111 218.059 84.5318 218.37 84.6119 218.667C84.6919 218.965 84.8298 219.243 85.0177 219.488C85.2055 219.732 85.4396 219.937 85.7066 220.09C85.9735 220.244 86.2682 220.344 86.5737 220.384C86.8792 220.424 87.1895 220.403 87.487 220.323C87.7845 220.243 88.0633 220.105 88.3075 219.917C88.5518 219.729 88.7566 219.495 88.9103 219.228L93.1023 209.815V238.681C93.1023 239.303 93.3496 239.9 93.7898 240.341C94.2299 240.781 94.8269 241.028 95.4493 241.028C96.0718 241.028 96.6688 240.781 97.1089 240.341C97.5491 239.9 97.7963 239.303 97.7963 238.681V223.908H99.1653V238.681C99.1653 239.303 99.4126 239.9 99.8528 240.341C100.293 240.781 100.89 241.028 101.512 241.028C102.135 241.028 102.732 240.781 103.172 240.341C103.612 239.9 103.859 239.303 103.859 238.681V209.898L108.008 219.228C108.319 219.767 108.831 220.161 109.432 220.323C110.032 220.484 110.673 220.401 111.212 220.09C111.751 219.78 112.145 219.268 112.307 218.667C112.468 218.066 112.385 217.426 112.074 216.887Z" fill="#569FD6"/>
<path d="M140.02 199.697C141.105 199.696 142.157 199.319 142.995 198.63C143.833 197.941 144.407 196.983 144.618 195.919C144.829 194.854 144.664 193.75 144.152 192.793C143.64 191.836 142.812 191.087 141.809 190.672C140.807 190.258 139.691 190.203 138.653 190.519C137.615 190.834 136.718 191.5 136.116 192.403C135.513 193.305 135.242 194.388 135.349 195.468C135.456 196.548 135.934 197.557 136.701 198.324C137.582 199.204 138.776 199.697 140.02 199.697ZM153.614 216.886L147.757 204.238L147.746 204.217L147.669 204.067C147.617 203.978 147.559 203.893 147.495 203.812C147.01 203.095 146.358 202.508 145.594 202.102C144.83 201.696 143.978 201.483 143.113 201.482H136.926C136.121 201.483 135.326 201.669 134.603 202.024C133.88 202.379 133.248 202.895 132.754 203.531C132.586 203.688 132.442 203.869 132.327 204.067L126.383 216.886C126.073 217.426 125.989 218.066 126.151 218.667C126.313 219.268 126.706 219.78 127.246 220.09C127.785 220.401 128.425 220.484 129.026 220.323C129.627 220.161 130.139 219.767 130.449 219.228L134.641 209.815V238.681C134.641 239.303 134.889 239.9 135.329 240.34C135.769 240.781 136.366 241.028 136.988 241.028C137.611 241.028 138.208 240.781 138.648 240.34C139.088 239.9 139.335 239.303 139.335 238.681V223.908H140.704V238.681C140.704 239.303 140.952 239.9 141.392 240.34C141.832 240.781 142.429 241.028 143.051 241.028C143.674 241.028 144.271 240.781 144.711 240.34C145.151 239.9 145.398 239.303 145.398 238.681V209.898L149.547 219.228C149.701 219.495 149.906 219.73 150.15 219.918C150.394 220.106 150.673 220.244 150.971 220.324C151.268 220.404 151.579 220.425 151.885 220.385C152.19 220.346 152.485 220.246 152.752 220.092C153.02 219.938 153.254 219.733 153.442 219.489C153.63 219.245 153.768 218.966 153.848 218.668C153.928 218.37 153.948 218.06 153.908 217.754C153.868 217.448 153.768 217.154 153.614 216.886Z" fill="#569FD6"/>
<path d="M181.561 199.697C182.646 199.696 183.698 199.319 184.536 198.63C185.374 197.941 185.948 196.983 186.159 195.919C186.37 194.854 186.205 193.75 185.693 192.793C185.181 191.836 184.353 191.087 183.35 190.672C182.348 190.258 181.232 190.203 180.194 190.519C179.156 190.834 178.259 191.5 177.657 192.403C177.054 193.305 176.783 194.388 176.89 195.468C176.997 196.548 177.475 197.557 178.242 198.324C179.123 199.204 180.317 199.697 181.561 199.697ZM195.155 216.886L189.298 204.238L189.287 204.217L189.21 204.067C189.158 203.978 189.1 203.893 189.036 203.812C188.551 203.095 187.899 202.508 187.135 202.102C186.371 201.696 185.519 201.483 184.654 201.482H178.467C177.662 201.483 176.867 201.669 176.144 202.024C175.421 202.379 174.789 202.895 174.295 203.531C174.127 203.688 173.983 203.869 173.868 204.067L167.924 216.886C167.614 217.426 167.53 218.066 167.692 218.667C167.854 219.268 168.247 219.78 168.787 220.09C169.326 220.401 169.966 220.484 170.567 220.323C171.168 220.161 171.68 219.767 171.99 219.228L176.182 209.815V238.681C176.182 238.989 176.243 239.295 176.36 239.58C176.478 239.865 176.651 240.124 176.869 240.342C177.087 240.56 177.346 240.733 177.631 240.851C177.916 240.969 178.221 241.03 178.529 241.03C179.153 241.03 179.75 240.782 180.191 240.342C180.409 240.124 180.582 239.865 180.699 239.58C180.817 239.295 180.877 238.989 180.876 238.681V223.908H182.245V238.681C182.245 239.303 182.493 239.9 182.933 240.34C183.373 240.781 183.97 241.028 184.592 241.028C185.215 241.028 185.812 240.781 186.252 240.34C186.692 239.9 186.939 239.303 186.939 238.681V209.898L191.088 219.228C191.242 219.495 191.447 219.73 191.691 219.918C191.935 220.106 192.214 220.244 192.512 220.324C192.809 220.404 193.12 220.425 193.426 220.385C193.731 220.346 194.026 220.246 194.293 220.092C194.561 219.938 194.795 219.733 194.983 219.489C195.171 219.245 195.309 218.966 195.389 218.668C195.469 218.37 195.489 218.06 195.449 217.754C195.409 217.448 195.309 217.154 195.155 216.886Z" fill="#569FD6"/>
<path d="M15.4494 9.46914C16.6278 9.46871 17.7639 9.02996 18.6367 8.23824C19.5095 7.44653 20.0566 6.35847 20.1716 5.18571C20.2866 4.01294 19.9612 2.83935 19.2587 1.89321C18.5563 0.947075 17.5271 0.296052 16.3712 0.0667886C15.2153 -0.162474 14.0155 0.0464047 13.0051 0.65281C11.9947 1.25922 11.246 2.21979 10.9047 3.34765C10.5633 4.47551 10.6537 5.69002 11.1583 6.75492C11.6628 7.81983 12.5454 8.65898 13.6345 9.10914C14.21 9.34713 14.8267 9.46946 15.4494 9.46914Z" fill="#F47D39"/>
<path d="M30.539 26.8532L23.2684 14.0582L23.2574 14.0372L23.1793 13.8862C23.1264 13.796 23.0676 13.7095 23.0032 13.6272C22.5133 12.9032 21.8536 12.3102 21.0818 11.8998C20.31 11.4895 19.4494 11.2744 18.5753 11.2732H12.3239C11.5099 11.2747 10.707 11.462 9.97643 11.8209C9.24585 12.1798 8.60686 12.7008 8.10823 13.3442C7.93841 13.5025 7.79309 13.6852 7.67702 13.8862L0.317339 26.8532C0.00412849 27.398 -0.0799098 28.0449 0.0836962 28.6517C0.247302 29.2584 0.645159 29.7754 1.18981 30.0889C1.73445 30.4024 2.38129 30.4868 2.98815 30.3235C3.595 30.1603 4.11218 29.7627 4.42598 29.2182L8.3199 22.9882L5.30022 38.0992C5.22489 38.4007 5.25844 38.7191 5.39495 38.9983C5.53145 39.2775 5.76213 39.4995 6.04634 39.6252C6.23496 39.7085 6.44037 39.7469 6.64635 39.7372H10.0145V48.8892C10.0145 49.2006 10.0759 49.509 10.1951 49.7968C10.3142 50.0845 10.4889 50.346 10.7092 50.5662C10.9294 50.7864 11.1909 50.9611 11.4786 51.0803C11.7663 51.1995 12.0747 51.2608 12.3862 51.2608C12.6976 51.2608 13.006 51.1995 13.2938 51.0803C13.5815 50.9611 13.843 50.7864 14.0632 50.5662C14.2834 50.346 14.4581 50.0845 14.5773 49.7968C14.6965 49.509 14.7578 49.2006 14.7578 48.8892V39.7372H16.1409V48.8892C16.1409 49.2006 16.2023 49.509 16.3215 49.7968C16.4406 50.0845 16.6153 50.346 16.8356 50.5662C17.0558 50.7864 17.3173 50.9611 17.605 51.0803C17.8927 51.1995 18.2011 51.2608 18.5126 51.2608C18.824 51.2608 19.1324 51.1995 19.4202 51.0803C19.7079 50.9611 19.9694 50.7864 20.1896 50.5662C20.4098 50.346 20.5845 50.0845 20.7037 49.7968C20.8229 49.509 20.8842 49.2006 20.8842 48.8892V39.7372H24.2096C24.5202 39.7525 24.8263 39.6577 25.0739 39.4694C25.3214 39.2812 25.4946 39.0116 25.5629 38.7082C25.6081 38.5074 25.6056 38.2988 25.5555 38.0992L22.5362 22.9882L26.43 29.2182C26.5851 29.4884 26.7919 29.7254 27.0387 29.9156C27.2854 30.1059 27.5672 30.2456 27.868 30.3268C28.1687 30.4081 28.4826 30.4292 28.7915 30.3891C29.1005 30.3489 29.3985 30.2483 29.6685 30.0928C29.9385 29.9374 30.1753 29.7303 30.3652 29.4833C30.5551 29.2363 30.6944 28.9543 30.7753 28.6534C30.8561 28.3526 30.8769 28.0387 30.8363 27.7298C30.7958 27.4209 30.6947 27.123 30.539 26.8532Z" fill="#F47D39"/>
<path d="M56.9885 9.46914C58.1669 9.46871 59.303 9.02996 60.1758 8.23824C61.0486 7.44653 61.5957 6.35847 61.7106 5.18571C61.8256 4.01294 61.5002 2.83935 60.7978 1.89321C60.0954 0.947075 59.0661 0.296052 57.9102 0.0667886C56.7543 -0.162474 55.5545 0.0464047 54.5442 0.65281C53.5338 1.25922 52.7851 2.21979 52.4438 3.34765C52.1024 4.47551 52.1928 5.69002 52.6973 6.75492C53.2019 7.81983 54.0845 8.65898 55.1735 9.10914C55.749 9.34713 56.3657 9.46946 56.9885 9.46914Z" fill="#F47D39"/>
<path d="M72.0767 26.8532L64.8061 14.0582L64.7951 14.0372L64.717 13.8862C64.6642 13.7961 64.6053 13.7095 64.541 13.6272C64.0511 12.9032 63.3915 12.3102 62.6196 11.8998C61.8477 11.4895 60.9872 11.2743 60.113 11.2732H53.8617C53.0477 11.2746 52.2448 11.462 51.5143 11.8209C50.7837 12.1798 50.1447 12.7008 49.6461 13.3442C49.4762 13.5025 49.3308 13.6851 49.2147 13.8862L41.8551 26.8532C41.5415 27.398 41.4571 28.0452 41.6206 28.6522C41.7841 29.2592 42.1821 29.7764 42.727 30.09C43.2718 30.4037 43.9189 30.488 44.5259 30.3245C45.133 30.161 45.6502 29.763 45.9638 29.2182L49.8576 22.9882L46.838 38.0992C46.7627 38.4007 46.7962 38.7191 46.9327 38.9983C47.0693 39.2775 47.3 39.4995 47.5842 39.6252C47.7728 39.7085 47.9782 39.7469 48.1842 39.7372H51.5524V48.8892C51.5537 49.5173 51.8041 50.1193 52.2487 50.563C52.6934 51.0067 53.2958 51.2559 53.924 51.2559C54.5521 51.2559 55.1546 51.0067 55.5992 50.563C56.0439 50.1193 56.2943 49.5173 56.2956 48.8892V39.7372H57.6788V48.8892C57.6801 49.5173 57.9305 50.1193 58.3752 50.563C58.8198 51.0067 59.4222 51.2559 60.0504 51.2559C60.6785 51.2559 61.281 51.0067 61.7256 50.563C62.1703 50.1193 62.4207 49.5173 62.422 48.8892V39.7372H65.7474C65.9533 39.7471 66.1587 39.7088 66.3472 39.6253C66.5356 39.5418 66.702 39.4154 66.833 39.2562C66.9637 39.097 67.0553 38.9095 67.1005 38.7086C67.1457 38.5077 67.1433 38.299 67.0934 38.0992L64.074 22.9882L67.9678 29.2182C68.1227 29.4888 68.3294 29.7261 68.5762 29.9166C68.8229 30.1072 69.1048 30.2472 69.4058 30.3286C69.7067 30.41 70.0207 30.4313 70.3299 30.3912C70.6391 30.3511 70.9373 30.2504 71.2075 30.0949C71.4777 29.9394 71.7145 29.7321 71.9045 29.4849C72.0945 29.2377 72.2338 28.9555 72.3146 28.6544C72.3953 28.3532 72.4158 28.0392 72.375 27.7301C72.3342 27.421 72.2328 27.123 72.0767 26.8532Z" fill="#F47D39"/>
<path d="M98.5238 9.46916C99.7022 9.46868 100.838 9.02989 101.711 8.23816C102.584 7.44643 103.131 6.35837 103.246 5.18562C103.361 4.01288 103.035 2.83931 102.333 1.89321C101.63 0.947105 100.601 0.296123 99.4452 0.0668884C98.2894 -0.162346 97.0896 0.0465615 96.0792 0.652971C95.0689 1.25938 94.3202 2.21994 93.9789 3.34778C93.6376 4.47562 93.728 5.69011 94.2325 6.75499C94.737 7.81988 95.6196 8.65901 96.7086 9.10916C97.2842 9.34722 97.901 9.46955 98.5238 9.46916Z" fill="#F47D39"/>
<path d="M113.613 26.8532L106.342 14.0582L106.332 14.0372L106.253 13.8862C106.201 13.7957 106.142 13.7091 106.077 13.6272C105.587 12.9031 104.928 12.3099 104.156 11.8995C103.384 11.4892 102.523 11.2741 101.649 11.2732H95.3981C94.5841 11.2747 93.7812 11.462 93.0506 11.8209C92.32 12.1798 91.681 12.7008 91.1823 13.3442C91.0125 13.5025 90.8672 13.6852 90.7511 13.8862L83.3914 26.8532C83.0795 27.3979 82.9965 28.0441 83.1604 28.65C83.3244 29.256 83.722 29.7721 84.266 30.0852C84.81 30.3984 85.456 30.483 86.0623 30.3204C86.6686 30.1579 87.1856 29.7615 87.5 29.2182L91.394 22.9882L88.3743 38.0992C88.2991 38.4007 88.3326 38.7191 88.4692 38.9983C88.6057 39.2774 88.8363 39.4995 89.1205 39.6252C89.3091 39.7085 89.5145 39.7469 89.7204 39.7372H93.0887V48.8892C93.09 49.5173 93.3405 50.1193 93.7851 50.563C94.2297 51.0067 94.8322 51.2559 95.4603 51.2559C96.0885 51.2559 96.691 51.0067 97.1356 50.563C97.5802 50.1193 97.8307 49.5173 97.8319 48.8892V39.7372H99.215V48.8892C99.2144 49.201 99.2753 49.5099 99.3941 49.7982C99.513 50.0865 99.6876 50.3485 99.9079 50.5692C100.128 50.7899 100.39 50.9651 100.678 51.0845C100.966 51.204 101.275 51.2655 101.586 51.2655C101.898 51.2655 102.207 51.204 102.495 51.0845C102.783 50.9651 103.045 50.7899 103.265 50.5692C103.485 50.3485 103.66 50.0865 103.779 49.7982C103.898 49.5099 103.959 49.201 103.958 48.8892V39.7372H107.284C107.49 39.7472 107.695 39.7089 107.883 39.6254C108.072 39.5419 108.238 39.4154 108.369 39.2562C108.5 39.0971 108.591 38.9096 108.637 38.7087C108.682 38.5078 108.68 38.299 108.63 38.0992L105.61 22.9882L109.504 29.2182C109.659 29.488 109.866 29.7246 110.113 29.9144C110.36 30.1042 110.641 30.2436 110.942 30.3246C111.242 30.4056 111.556 30.4266 111.865 30.3863C112.173 30.3461 112.471 30.2455 112.741 30.0902C113.011 29.9349 113.247 29.728 113.437 29.4813C113.627 29.2346 113.766 28.9529 113.847 28.6523C113.928 28.3517 113.949 28.0381 113.909 27.7294C113.869 27.4207 113.768 27.123 113.613 26.8532Z" fill="#F47D39"/>
<path d="M140.062 9.46912C141.239 9.46851 142.374 9.02998 143.246 8.23882C144.118 7.44766 144.665 6.36044 144.78 5.18864C144.894 4.01683 144.569 2.84423 143.867 1.8989C143.165 0.953573 142.137 0.303115 140.982 0.0740417C139.827 -0.155032 138.628 0.0536563 137.619 0.659521C136.609 1.26539 135.861 2.22511 135.52 3.35201C135.179 4.47891 135.269 5.69242 135.773 6.75651C136.277 7.82059 137.159 8.65916 138.247 9.10912C138.822 9.34712 139.439 9.46944 140.062 9.46912Z" fill="#F47D39"/>
<path d="M155.151 26.8531L147.881 14.0581L147.87 14.0371L147.791 13.8861C147.739 13.7956 147.68 13.709 147.615 13.6271C147.125 12.9031 146.466 12.31 145.694 11.8996C144.922 11.4893 144.062 11.2742 143.188 11.2731H136.936C136.122 11.2745 135.319 11.4618 134.589 11.8207C133.858 12.1796 133.219 12.7007 132.721 13.3441C132.551 13.5022 132.405 13.6849 132.289 13.8861L124.93 26.8531C124.774 27.1218 124.673 27.4189 124.633 27.7271C124.563 28.2706 124.683 28.8217 124.973 29.2867C125.263 29.7517 125.705 30.1018 126.224 30.2775C126.744 30.4532 127.308 30.4437 127.82 30.2506C128.333 30.0574 128.764 29.6926 129.038 29.2181L132.932 22.9881L129.913 38.0991C129.863 38.299 129.861 38.5078 129.906 38.7087C129.952 38.9097 130.043 39.0972 130.174 39.2564C130.305 39.4155 130.471 39.5419 130.66 39.6254C130.848 39.7088 131.053 39.7471 131.259 39.7371H134.627V48.8891C134.629 49.5168 134.879 50.1183 135.324 50.5615C135.768 51.0048 136.371 51.2537 136.998 51.2537C137.626 51.2537 138.228 51.0048 138.673 50.5615C139.117 50.1183 139.368 49.5168 139.37 48.8891V39.7371H140.753V48.8891C140.753 49.5182 141.003 50.1215 141.448 50.5663C141.892 51.0112 142.496 51.2611 143.125 51.2611C143.754 51.2611 144.357 51.0112 144.802 50.5663C145.247 50.1215 145.497 49.5182 145.497 48.8891V39.7371H148.822C149.028 39.7472 149.233 39.709 149.421 39.6256C149.61 39.5421 149.776 39.4158 149.907 39.2566C150.038 39.0974 150.129 38.9098 150.175 38.7088C150.22 38.5078 150.218 38.299 150.168 38.0991L147.148 22.9881L151.042 29.2181C151.197 29.4879 151.404 29.7245 151.651 29.9143C151.898 30.1041 152.179 30.2435 152.48 30.3245C152.78 30.4055 153.094 30.4264 153.403 30.3862C153.711 30.346 154.009 30.2454 154.279 30.0901C154.549 29.9348 154.785 29.7279 154.975 29.4812C155.165 29.2344 155.304 28.9528 155.385 28.6522C155.466 28.3516 155.487 28.038 155.447 27.7293C155.407 27.4206 155.306 27.1229 155.151 26.8531Z" fill="#F47D39"/>
<path d="M181.6 9.46912C182.777 9.46826 183.912 9.02952 184.784 8.23823C185.656 7.44694 186.202 6.35967 186.317 5.18789C186.431 4.01611 186.106 2.8436 185.404 1.8984C184.702 0.953198 183.674 0.302887 182.519 0.0739433C181.364 -0.155 180.165 0.0537981 179.155 0.659721C178.146 1.26564 177.398 2.22536 177.057 3.35224C176.716 4.47912 176.806 5.69258 177.31 6.75661C177.814 7.82065 178.696 8.65918 179.784 9.10912C180.36 9.34725 180.977 9.46958 181.6 9.46912Z" fill="#F47D39"/>
<path d="M196.687 26.8531L189.417 14.0581L189.406 14.0371L189.328 13.8861C189.275 13.796 189.216 13.7095 189.152 13.6271C188.662 12.9032 188.002 12.3102 187.231 11.8998C186.459 11.4895 185.598 11.2743 184.724 11.2731H178.472C177.658 11.2745 176.855 11.4618 176.125 11.8207C175.394 12.1796 174.756 12.7007 174.257 13.3441C174.087 13.5025 173.942 13.6851 173.825 13.8861L166.466 26.8531C166.272 27.1905 166.164 27.5707 166.152 27.9598C166.139 28.349 166.223 28.7352 166.396 29.0842C166.568 29.4332 166.824 29.7344 167.141 29.9609C167.457 30.1875 167.825 30.3325 168.211 30.3831C168.52 30.4234 168.834 30.4027 169.135 30.3221C169.436 30.2418 169.718 30.1029 169.965 29.9135C170.212 29.724 170.419 29.4877 170.574 29.2181L174.468 22.9881L171.449 38.0991C171.399 38.299 171.397 38.5078 171.442 38.7087C171.488 38.9097 171.58 39.0972 171.71 39.2564C171.841 39.4155 172.007 39.5419 172.196 39.6254C172.384 39.7088 172.589 39.7471 172.795 39.7371H176.163V48.8891C176.162 49.3585 176.3 49.8177 176.561 50.2082C176.821 50.5987 177.192 50.9029 177.626 51.0821C178.06 51.262 178.538 51.3091 178.998 51.2174C179.459 51.1257 179.882 50.8994 180.214 50.5671C180.434 50.3466 180.608 50.0849 180.727 49.797C180.846 49.509 180.907 49.2005 180.906 48.8891V39.7371H182.289V48.8891C182.289 49.5182 182.539 50.1215 182.984 50.5663C183.429 51.0112 184.032 51.2611 184.661 51.2611C185.29 51.2611 185.894 51.0112 186.338 50.5663C186.783 50.1215 187.033 49.5182 187.033 48.8891V39.7371H190.358C190.564 39.7472 190.769 39.709 190.958 39.6256C191.146 39.5421 191.312 39.4158 191.443 39.2566C191.574 39.0974 191.666 38.9098 191.711 38.7088C191.756 38.5078 191.754 38.299 191.704 38.0991L188.685 22.9881L192.578 29.2181C192.733 29.4879 192.94 29.7245 193.187 29.9143C193.434 30.1041 193.715 30.2435 194.016 30.3245C194.317 30.4055 194.63 30.4264 194.939 30.3862C195.248 30.346 195.545 30.2454 195.815 30.0901C196.085 29.9348 196.321 29.7279 196.511 29.4812C196.701 29.2344 196.841 28.9528 196.921 28.6522C197.002 28.3516 197.023 28.038 196.983 27.7293C196.943 27.4206 196.842 27.1229 196.687 26.8531Z" fill="#F47D39"/>
<path d="M15.4494 73.1011C16.6277 73.1006 17.7638 72.6619 18.6366 71.8702C19.5094 71.0785 20.0565 69.9904 20.1714 68.8177C20.2864 67.645 19.961 66.4714 19.2586 65.5253C18.5562 64.5791 17.5269 63.9281 16.3711 63.6989C15.2152 63.4696 14.0154 63.6785 13.0051 64.2849C11.9947 64.8913 11.246 65.8518 10.9047 66.9797C10.5633 68.1075 10.6537 69.322 11.1583 70.3869C11.6628 71.4518 12.5454 72.2909 13.6344 72.7411C14.2099 72.9791 14.8266 73.1014 15.4494 73.1011Z" fill="#F47D39"/>
<path d="M30.5381 90.485L23.2675 77.69L23.2565 77.669L23.1784 77.518C23.1255 77.4279 23.0667 77.3414 23.0023 77.259C22.5124 76.5351 21.8528 75.942 21.0809 75.5317C20.3091 75.1213 19.4485 74.9062 18.5744 74.905H12.323C11.509 74.9065 10.7061 75.0938 9.97555 75.4527C9.24497 75.8116 8.60598 76.3327 8.10736 76.976C7.93753 77.1343 7.79222 77.317 7.67614 77.518L0.316463 90.485C0.00505686 91.0297 -0.0776883 91.6757 0.0863908 92.2813C0.25047 92.8869 0.647977 93.4028 1.19177 93.7158C1.73556 94.0288 2.38127 94.1134 2.98736 93.9512C3.59345 93.7889 4.11049 93.3929 4.42511 92.85L8.31903 86.62L5.29934 101.731C5.22401 102.033 5.25756 102.351 5.39407 102.63C5.53058 102.909 5.76125 103.131 6.04547 103.257C6.23408 103.34 6.4395 103.379 6.64547 103.369H10.0136V112.521C10.0136 112.832 10.075 113.141 10.1942 113.429C10.3134 113.716 10.488 113.978 10.7083 114.198C10.9285 114.418 11.19 114.593 11.4777 114.712C11.7655 114.831 12.0739 114.893 12.3853 114.893C12.6968 114.893 13.0052 114.831 13.2929 114.712C13.5806 114.593 13.8421 114.418 14.0623 114.198C14.2825 113.978 14.4572 113.716 14.5764 113.429C14.6956 113.141 14.757 112.832 14.757 112.521V103.369H16.14V112.521C16.14 112.832 16.2014 113.141 16.3206 113.429C16.4398 113.716 16.6145 113.978 16.8347 114.198C17.0549 114.418 17.3164 114.593 17.6041 114.712C17.8919 114.831 18.2003 114.893 18.5117 114.893C18.8232 114.893 19.1315 114.831 19.4193 114.712C19.707 114.593 19.9685 114.418 20.1887 114.198C20.4089 113.978 20.5836 113.716 20.7028 113.429C20.822 113.141 20.8834 112.832 20.8834 112.521V103.369H24.2087C24.4146 103.379 24.62 103.341 24.8084 103.258C24.9969 103.174 25.1632 103.048 25.294 102.889C25.4249 102.73 25.5166 102.542 25.5619 102.341C25.6071 102.14 25.6046 101.931 25.5547 101.731L22.5353 86.62L26.4292 92.85C26.5842 93.1203 26.791 93.3573 27.0378 93.5475C27.2845 93.7377 27.5663 93.8774 27.8671 93.9587C28.1679 94.0399 28.4817 94.0611 28.7906 94.0209C29.0996 93.9807 29.3976 93.8801 29.6676 93.7247C29.9376 93.5692 30.1744 93.3621 30.3643 93.1151C30.5542 92.8682 30.6936 92.5862 30.7744 92.2853C30.8552 91.9844 30.876 91.6705 30.8354 91.3616C30.7949 91.0527 30.6939 90.7548 30.5381 90.485Z" fill="#F47D39"/>
<path d="M56.9865 73.1011C58.1649 73.1006 59.3009 72.6619 60.1737 71.8702C61.0465 71.0785 61.5936 69.9904 61.7086 68.8177C61.8235 67.645 61.4982 66.4714 60.7957 65.5253C60.0933 64.5791 59.064 63.9281 57.9082 63.6989C56.7523 63.4696 55.5526 63.6785 54.5422 64.2849C53.5318 64.8913 52.7831 65.8518 52.4418 66.9797C52.1004 68.1075 52.1908 69.322 52.6954 70.3869C53.1999 71.4518 54.0825 72.2909 55.1715 72.7411C55.747 72.9791 56.3637 73.1014 56.9865 73.1011Z" fill="#F47D39"/>
<path d="M72.0754 90.485L64.8048 77.69L64.7938 77.669L64.7157 77.518C64.6629 77.4279 64.6041 77.3414 64.5397 77.259C64.0498 76.535 63.3902 75.942 62.6183 75.5316C61.8465 75.1213 60.9859 74.9062 60.1117 74.905H53.8604C53.0465 74.9065 52.2436 75.0938 51.513 75.4527C50.7824 75.8116 50.1434 76.3326 49.6448 76.976C49.4749 77.1343 49.3295 77.317 49.2134 77.518L41.8538 90.485C41.5423 91.0298 41.4594 91.6758 41.6234 92.2816C41.7875 92.8873 42.185 93.4033 42.7289 93.7163C43.2728 94.0294 43.9186 94.114 44.5248 93.9516C45.1309 93.7892 45.648 93.3931 45.9625 92.85L49.8563 86.62L46.8367 101.731C46.7614 102.033 46.795 102.351 46.9315 102.63C47.068 102.909 47.2987 103.131 47.5829 103.257C47.7716 103.34 47.977 103.379 48.1829 103.369H51.5511V112.521C51.5524 113.149 51.8029 113.751 52.2475 114.195C52.6921 114.639 53.2946 114.888 53.9227 114.888C54.5509 114.888 55.1534 114.639 55.598 114.195C56.0426 113.751 56.293 113.149 56.2943 112.521V103.369H57.6775V112.521C57.6788 113.149 57.9293 113.751 58.3739 114.195C58.8185 114.639 59.421 114.888 60.0491 114.888C60.6773 114.888 61.2798 114.639 61.7244 114.195C62.169 113.751 62.4194 113.149 62.4207 112.521V103.369H65.7461C65.952 103.379 66.1574 103.341 66.3459 103.257C66.5344 103.174 66.7007 103.047 66.8317 102.888C66.9624 102.729 67.054 102.541 67.0992 102.34C67.1445 102.14 67.142 101.931 67.0921 101.731L64.0727 86.62L67.9665 92.85C68.1214 93.1206 68.3282 93.3579 68.5749 93.5485C68.8217 93.739 69.1036 93.879 69.4045 93.9604C69.7054 94.0419 70.0195 94.0632 70.3286 94.0231C70.6378 93.983 70.936 93.8822 71.2062 93.7267C71.4764 93.5712 71.7133 93.3639 71.9032 93.1167C72.0932 92.8696 72.2326 92.5873 72.3133 92.2862C72.3941 91.9851 72.4146 91.671 72.3738 91.3619C72.333 91.0529 72.2316 90.7549 72.0754 90.485Z" fill="#F47D39"/>
<path d="M98.5238 73.1012C99.7021 73.1008 100.838 72.662 101.711 71.8703C102.584 71.0785 103.131 69.9905 103.246 68.8178C103.361 67.645 103.035 66.4715 102.333 65.5254C101.63 64.5793 100.601 63.9283 99.4452 63.6991C98.2893 63.4699 97.0896 63.6788 96.0792 64.2852C95.0689 64.8916 94.3202 65.8521 93.9789 66.9799C93.6376 68.1078 93.728 69.3222 94.2325 70.3871C94.737 71.452 95.6196 72.2911 96.7086 72.7412C97.2841 72.9793 97.9009 73.1016 98.5238 73.1012Z" fill="#F47D39"/>
<path d="M113.613 90.4853L106.342 77.6903L106.332 77.6693L106.253 77.5183C106.201 77.4278 106.142 77.3412 106.077 77.2593C105.587 76.5351 104.928 75.942 104.156 75.5316C103.384 75.1212 102.523 74.9062 101.649 74.9053H95.3981C94.5841 74.9067 93.7812 75.0941 93.0506 75.453C92.32 75.8119 91.681 76.3329 91.1823 76.9763C91.0125 77.1346 90.8672 77.3172 90.7511 77.5183L83.3914 90.4853C83.0795 91.03 82.9965 91.6762 83.1604 92.2821C83.3244 92.888 83.722 93.4042 84.266 93.7173C84.81 94.0305 85.456 94.115 86.0623 93.9525C86.6686 93.79 87.1856 93.3936 87.5 92.8503L91.394 86.6203L88.3743 101.731C88.2991 102.033 88.3326 102.351 88.4692 102.63C88.6057 102.91 88.8363 103.132 89.1205 103.257C89.3091 103.341 89.5145 103.379 89.7204 103.369H93.0887V112.521C93.09 113.149 93.3405 113.751 93.7851 114.195C94.2297 114.639 94.8322 114.888 95.4603 114.888C96.0885 114.888 96.691 114.639 97.1356 114.195C97.5802 113.751 97.8307 113.149 97.8319 112.521V103.369H99.215V112.521C99.2144 112.833 99.2753 113.142 99.3941 113.43C99.513 113.719 99.6876 113.981 99.9079 114.201C100.128 114.422 100.39 114.597 100.678 114.717C100.966 114.836 101.275 114.898 101.586 114.898C101.898 114.898 102.207 114.836 102.495 114.717C102.783 114.597 103.045 114.422 103.265 114.201C103.485 113.981 103.66 113.719 103.779 113.43C103.898 113.142 103.959 112.833 103.958 112.521V103.369H107.284C107.49 103.379 107.695 103.341 107.883 103.257C108.072 103.174 108.238 103.048 108.369 102.888C108.5 102.729 108.591 102.542 108.637 102.341C108.682 102.14 108.68 101.931 108.63 101.731L105.61 86.6203L109.504 92.8503C109.659 93.121 109.865 93.3584 110.112 93.5491C110.359 93.7398 110.641 93.8799 110.942 93.9614C111.243 94.0429 111.557 94.0643 111.866 94.0242C112.176 93.9841 112.474 93.8834 112.744 93.7278C113.014 93.5723 113.251 93.3649 113.441 93.1177C113.631 92.8704 113.771 92.588 113.851 92.2868C113.932 91.9856 113.953 91.6714 113.912 91.3623C113.871 91.0532 113.769 90.7551 113.613 90.4853Z" fill="#F47D39"/>
<path d="M140.062 73.1011C141.239 73.1004 142.374 72.6619 143.246 71.8708C144.118 71.0796 144.665 69.9924 144.779 68.8206C144.894 67.6489 144.569 66.4763 143.867 65.531C143.165 64.5856 142.137 63.9352 140.982 63.7061C139.827 63.4771 138.628 63.6857 137.619 64.2916C136.609 64.8974 135.861 65.8571 135.52 66.984C135.179 68.1109 135.269 69.3244 135.773 70.3885C136.277 71.4525 137.159 72.2911 138.247 72.7411C138.822 72.9791 139.439 73.1014 140.062 73.1011Z" fill="#F47D39"/>
<path d="M155.151 90.485L147.881 77.69L147.87 77.669L147.791 77.518C147.739 77.4275 147.68 77.341 147.615 77.259C147.125 76.535 146.466 75.9419 145.694 75.5316C144.922 75.1212 144.062 74.9061 143.188 74.905H136.936C136.122 74.9064 135.319 75.0937 134.589 75.4527C133.858 75.8116 133.219 76.3326 132.721 76.976C132.551 77.1342 132.405 77.3169 132.289 77.518L124.93 90.485C124.774 90.7538 124.673 91.0509 124.633 91.359C124.563 91.9026 124.683 92.4537 124.973 92.9187C125.263 93.3836 125.705 93.7337 126.224 93.9094C126.744 94.0852 127.308 94.0756 127.82 93.8825C128.333 93.6894 128.764 93.3245 129.038 92.85L132.932 86.62L129.913 101.731C129.863 101.931 129.861 102.14 129.906 102.341C129.952 102.542 130.043 102.729 130.174 102.888C130.305 103.047 130.471 103.174 130.66 103.257C130.848 103.341 131.053 103.379 131.259 103.369H134.627V112.521C134.629 113.149 134.879 113.75 135.324 114.193C135.768 114.637 136.371 114.886 136.998 114.886C137.626 114.886 138.228 114.637 138.673 114.193C139.117 113.75 139.368 113.149 139.37 112.521V103.369H140.753V112.521C140.753 113.15 141.003 113.753 141.448 114.198C141.892 114.643 142.496 114.893 143.125 114.893C143.754 114.893 144.357 114.643 144.802 114.198C145.247 113.753 145.497 113.15 145.497 112.521V103.369H148.822C149.028 103.379 149.233 103.341 149.421 103.258C149.61 103.174 149.776 103.048 149.907 102.889C150.038 102.729 150.129 102.542 150.175 102.341C150.22 102.14 150.218 101.931 150.168 101.731L147.148 86.62L151.042 92.85C151.197 93.1198 151.404 93.3564 151.651 93.5462C151.897 93.7361 152.179 93.8755 152.48 93.9564C152.78 94.0374 153.094 94.0584 153.403 94.0182C153.711 93.9779 154.009 93.8773 154.279 93.722C154.549 93.5667 154.785 93.3598 154.975 93.1131C155.165 92.8664 155.304 92.5847 155.385 92.2841C155.466 91.9836 155.487 91.67 155.447 91.3613C155.407 91.0526 155.306 90.7548 155.151 90.485Z" fill="#F47D39"/>
<path d="M181.6 73.1011C182.777 73.1002 183.912 72.6615 184.784 71.8702C185.656 71.0789 186.202 69.9917 186.317 68.8199C186.431 67.6481 186.106 66.4756 185.404 65.5305C184.702 64.5853 183.673 63.935 182.519 63.706C181.364 63.4771 180.165 63.6859 179.155 64.2918C178.146 64.8977 177.398 65.8574 177.057 66.9843C176.716 68.1111 176.806 69.3246 177.31 70.3886C177.814 71.4526 178.696 72.2911 179.784 72.7411C180.36 72.9792 180.977 73.1015 181.6 73.1011Z" fill="#F47D39"/>
<path d="M196.687 90.485L189.417 77.69L189.406 77.669L189.328 77.518C189.275 77.428 189.216 77.3415 189.152 77.259C188.662 76.5351 188.002 75.9421 187.231 75.5318C186.459 75.1214 185.598 74.9063 184.724 74.905H178.472C177.658 74.9064 176.855 75.0937 176.125 75.4526C175.394 75.8116 174.756 76.3326 174.257 76.976C174.087 77.1344 173.942 77.3171 173.825 77.518L166.466 90.485C166.272 90.8225 166.164 91.2026 166.152 91.5918C166.139 91.9809 166.223 92.3671 166.396 92.7162C166.568 93.0652 166.824 93.3663 167.141 93.5929C167.457 93.8194 167.825 93.9644 168.211 94.015C168.52 94.0554 168.834 94.0347 169.135 93.954C169.436 93.8737 169.718 93.7349 169.965 93.5454C170.212 93.356 170.419 93.1197 170.574 92.85L174.468 86.62L171.449 101.731C171.399 101.931 171.397 102.14 171.442 102.341C171.488 102.542 171.58 102.729 171.71 102.888C171.841 103.047 172.007 103.174 172.196 103.257C172.384 103.341 172.589 103.379 172.795 103.369H176.163V112.521C176.162 112.99 176.3 113.45 176.561 113.84C176.821 114.231 177.192 114.535 177.626 114.714C178.06 114.894 178.538 114.941 178.998 114.849C179.459 114.758 179.882 114.531 180.214 114.199C180.434 113.979 180.608 113.717 180.727 113.429C180.846 113.141 180.907 112.832 180.906 112.521V103.369H182.289V112.521C182.289 113.15 182.539 113.753 182.984 114.198C183.429 114.643 184.032 114.893 184.661 114.893C185.29 114.893 185.894 114.643 186.338 114.198C186.783 113.753 187.033 113.15 187.033 112.521V103.369H190.358C190.564 103.379 190.769 103.341 190.958 103.258C191.146 103.174 191.312 103.048 191.443 102.889C191.574 102.729 191.666 102.542 191.711 102.341C191.756 102.14 191.754 101.931 191.704 101.731L188.685 86.62L192.578 92.85C192.733 93.1198 192.94 93.3564 193.187 93.5462C193.434 93.7361 193.715 93.8755 194.016 93.9564C194.317 94.0374 194.63 94.0584 194.939 94.0182C195.248 93.9779 195.545 93.8773 195.815 93.722C196.085 93.5667 196.321 93.3598 196.511 93.1131C196.701 92.8664 196.841 92.5847 196.921 92.2841C197.002 91.9836 197.023 91.67 196.983 91.3613C196.943 91.0526 196.842 90.7548 196.687 90.485Z" fill="#F47D39"/>
<path d="M15.4494 136.328C16.6277 136.327 17.7638 135.889 18.6366 135.097C19.5094 134.305 20.0565 133.217 20.1714 132.045C20.2864 130.872 19.961 129.698 19.2586 128.752C18.5562 127.806 17.5269 127.155 16.3711 126.926C15.2152 126.696 14.0154 126.905 13.0051 127.512C11.9947 128.118 11.246 129.079 10.9047 130.206C10.5633 131.334 10.6537 132.549 11.1583 133.614C11.6628 134.679 12.5454 135.518 13.6344 135.968C14.2099 136.206 14.8266 136.328 15.4494 136.328Z" fill="#F47D39"/>
<path d="M30.5381 153.712L23.2675 140.917L23.2565 140.896L23.1784 140.745C23.1255 140.655 23.0667 140.568 23.0023 140.486C22.5124 139.762 21.8528 139.169 21.0809 138.758C20.3091 138.348 19.4485 138.133 18.5744 138.132H12.323C11.509 138.133 10.7061 138.321 9.97555 138.68C9.24497 139.038 8.60598 139.559 8.10736 140.203C7.93754 140.361 7.79222 140.544 7.67614 140.745L0.316463 153.712C0.00505686 154.257 -0.0776883 154.903 0.0863908 155.508C0.25047 156.114 0.647977 156.63 1.19177 156.943C1.73556 157.256 2.38127 157.34 2.98736 157.178C3.59345 157.016 4.11049 156.62 4.42511 156.077L8.31903 149.847L5.29934 164.958C5.22401 165.259 5.25756 165.578 5.39407 165.857C5.53058 166.136 5.76125 166.358 6.04547 166.484C6.23408 166.567 6.4395 166.605 6.64547 166.596H10.0136V175.748C10.0136 176.059 10.075 176.368 10.1942 176.655C10.3134 176.943 10.488 177.205 10.7083 177.425C10.9285 177.645 11.19 177.82 11.4777 177.939C11.7655 178.058 12.0739 178.119 12.3853 178.119C12.6968 178.119 13.0052 178.058 13.2929 177.939C13.5806 177.82 13.8421 177.645 14.0623 177.425C14.2825 177.205 14.4572 176.943 14.5764 176.655C14.6956 176.368 14.757 176.059 14.757 175.748V166.596H16.14V175.748C16.14 176.059 16.2014 176.368 16.3206 176.655C16.4398 176.943 16.6145 177.205 16.8347 177.425C17.0549 177.645 17.3164 177.82 17.6041 177.939C17.8919 178.058 18.2003 178.119 18.5117 178.119C18.8232 178.119 19.1315 178.058 19.4193 177.939C19.707 177.82 19.9685 177.645 20.1887 177.425C20.4089 177.205 20.5836 176.943 20.7028 176.655C20.822 176.368 20.8834 176.059 20.8834 175.748V166.596H24.2087C24.5194 166.611 24.8254 166.516 25.073 166.328C25.3206 166.14 25.4937 165.87 25.562 165.567C25.6072 165.366 25.6047 165.157 25.5547 164.958L22.5353 149.847L26.4292 156.077C26.5842 156.347 26.791 156.584 27.0378 156.774C27.2845 156.965 27.5663 157.104 27.8671 157.185C28.1679 157.267 28.4817 157.288 28.7906 157.248C29.0996 157.208 29.3976 157.107 29.6676 156.951C29.9376 156.796 30.1744 156.589 30.3643 156.342C30.5542 156.095 30.6936 155.813 30.7744 155.512C30.8552 155.211 30.876 154.897 30.8354 154.588C30.7949 154.28 30.6939 153.982 30.5381 153.712Z" fill="#F47D39"/>
<path d="M56.9865 136.328C58.1649 136.327 59.3009 135.889 60.1737 135.097C61.0465 134.305 61.5936 133.217 61.7086 132.045C61.8235 130.872 61.4982 129.698 60.7957 128.752C60.0933 127.806 59.064 127.155 57.9082 126.926C56.7523 126.696 55.5526 126.905 54.5422 127.512C53.5318 128.118 52.7831 129.079 52.4418 130.206C52.1004 131.334 52.1908 132.549 52.6954 133.614C53.1999 134.679 54.0825 135.518 55.1715 135.968C55.747 136.206 56.3637 136.328 56.9865 136.328Z" fill="#F47D39"/>
<path d="M72.0754 153.712L64.8048 140.917L64.7938 140.896L64.7157 140.745C64.6629 140.655 64.6041 140.568 64.5397 140.486C64.0498 139.762 63.3902 139.169 62.6183 138.758C61.8465 138.348 60.9859 138.133 60.1117 138.132H53.8604C53.0465 138.133 52.2436 138.321 51.513 138.68C50.7824 139.038 50.1434 139.559 49.6448 140.203C49.4749 140.361 49.3296 140.544 49.2134 140.745L41.8538 153.712C41.5423 154.257 41.4594 154.903 41.6234 155.508C41.7875 156.114 42.185 156.63 42.7289 156.943C43.2728 157.256 43.9186 157.341 44.5248 157.178C45.1309 157.016 45.648 156.62 45.9625 156.077L49.8563 149.847L46.8367 164.958C46.7614 165.259 46.795 165.578 46.9315 165.857C47.068 166.136 47.2987 166.358 47.5829 166.484C47.7716 166.567 47.977 166.605 48.1829 166.596H51.5511V175.748C51.5524 176.376 51.8029 176.978 52.2475 177.422C52.6921 177.865 53.2946 178.115 53.9227 178.115C54.5509 178.115 55.1534 177.865 55.598 177.422C56.0426 176.978 56.293 176.376 56.2943 175.748V166.596H57.6775V175.748C57.6788 176.376 57.9293 176.978 58.3739 177.422C58.8185 177.865 59.421 178.115 60.0491 178.115C60.6773 178.115 61.2798 177.865 61.7244 177.422C62.169 176.978 62.4194 176.376 62.4207 175.748V166.596H65.7461C65.952 166.606 66.1574 166.567 66.3459 166.484C66.5344 166.4 66.7007 166.274 66.8317 166.115C66.9624 165.956 67.054 165.768 67.0992 165.567C67.1445 165.366 67.142 165.158 67.0921 164.958L64.0727 149.847L67.9665 156.077C68.1214 156.347 68.3282 156.585 68.5749 156.775C68.8217 156.966 69.1036 157.106 69.4045 157.187C69.7054 157.269 70.0195 157.29 70.3286 157.25C70.6378 157.21 70.936 157.109 71.2062 156.954C71.4764 156.798 71.7133 156.591 71.9032 156.344C72.0932 156.096 72.2326 155.814 72.3133 155.513C72.3941 155.212 72.4146 154.898 72.3738 154.589C72.333 154.28 72.2316 153.982 72.0754 153.712Z" fill="#F47D39"/>
</g>
</g>
<defs>
<clipPath id="clip0_1449_2920">
<rect width="197" height="241" fill="white" transform="translate(0 0.0720215)"/>
</clipPath>
<clipPath id="clip1_1449_2920">
<rect width="197.004" height="241.03" fill="white"/>
</clipPath>
</defs>
</svg>
