<svg width="197" height="241" viewBox="0 0 197 241" fill="none" xmlns="http://www.w3.org/2000/svg">
<g clip-path="url(#clip0_1466_2045)">
<path d="M97.9865 136.256C99.1649 136.256 100.301 135.817 101.174 135.025C102.047 134.233 102.594 133.145 102.709 131.973C102.824 130.8 102.498 129.626 101.796 128.68C101.093 127.734 100.064 127.083 98.9082 126.854C97.7523 126.624 96.5526 126.833 95.5422 127.44C94.5318 128.046 93.7831 129.007 93.4418 130.135C93.1004 131.262 93.1908 132.477 93.6954 133.542C94.1999 134.607 95.0825 135.446 96.1715 135.896C96.747 136.134 97.3637 136.256 97.9865 136.256Z" fill="#F47D39"/>
<path d="M113.075 153.64L105.805 140.845L105.794 140.824L105.716 140.673C105.663 140.583 105.604 140.496 105.54 140.414C105.05 139.69 104.39 139.097 103.618 138.687C102.846 138.276 101.986 138.061 101.112 138.06H94.8604C94.0465 138.061 93.2436 138.249 92.513 138.608C91.7824 138.967 91.1434 139.488 90.6448 140.131C90.4749 140.289 90.3296 140.472 90.2134 140.673L82.8538 153.64C82.5423 154.185 82.4594 154.831 82.6234 155.436C82.7875 156.042 83.185 156.558 83.7289 156.871C84.2728 157.184 84.9186 157.269 85.5248 157.107C86.1309 156.944 86.648 156.548 86.9625 156.005L90.8563 149.775L87.8367 164.886C87.7614 165.187 87.795 165.506 87.9315 165.785C88.068 166.064 88.2987 166.286 88.5829 166.412C88.7716 166.495 88.977 166.534 89.1829 166.524H92.5511V175.676C92.5524 176.304 92.8029 176.906 93.2475 177.35C93.6921 177.794 94.2946 178.043 94.9227 178.043C95.5509 178.043 96.1534 177.794 96.598 177.35C97.0426 176.906 97.293 176.304 97.2943 175.676V166.524H98.6775V175.676C98.6788 176.304 98.9293 176.906 99.3739 177.35C99.8185 177.794 100.421 178.043 101.049 178.043C101.677 178.043 102.28 177.794 102.724 177.35C103.169 176.906 103.419 176.304 103.421 175.676V166.524H106.746C106.952 166.534 107.157 166.496 107.346 166.412C107.534 166.329 107.701 166.202 107.832 166.043C107.962 165.884 108.054 165.696 108.099 165.495C108.144 165.294 108.142 165.086 108.092 164.886L105.073 149.775L108.967 156.005C109.121 156.275 109.328 156.513 109.575 156.703C109.822 156.894 110.104 157.034 110.405 157.115C110.705 157.197 111.019 157.218 111.329 157.178C111.638 157.138 111.936 157.037 112.206 156.882C112.476 156.726 112.713 156.519 112.903 156.272C113.093 156.024 113.233 155.742 113.313 155.441C113.394 155.14 113.415 154.826 113.374 154.517C113.333 154.208 113.232 153.91 113.075 153.64Z" fill="#F47D39"/>
<path d="M140.02 136.564C141.105 136.563 142.157 136.186 142.995 135.497C143.833 134.808 144.407 133.85 144.618 132.785C144.829 131.721 144.664 130.617 144.152 129.66C143.64 128.703 142.812 127.954 141.809 127.539C140.807 127.124 139.691 127.07 138.653 127.386C137.615 127.701 136.718 128.367 136.116 129.269C135.513 130.172 135.242 131.255 135.349 132.335C135.456 133.415 135.934 134.424 136.701 135.191C137.582 136.071 138.776 136.564 140.02 136.564ZM153.614 153.753L147.757 141.105L147.746 141.084L147.669 140.934C147.617 140.845 147.559 140.76 147.495 140.678C147.01 139.962 146.358 139.375 145.594 138.969C144.83 138.563 143.978 138.35 143.113 138.348H136.926C136.121 138.35 135.326 138.535 134.603 138.89C133.88 139.246 133.248 139.761 132.754 140.398C132.586 140.555 132.442 140.735 132.327 140.934L126.383 153.753C126.23 154.02 126.13 154.315 126.09 154.62C126.05 154.926 126.071 155.236 126.151 155.534C126.231 155.831 126.369 156.11 126.557 156.354C126.745 156.598 126.979 156.803 127.246 156.957C127.513 157.111 127.807 157.21 128.113 157.25C128.418 157.29 128.729 157.269 129.026 157.189C129.324 157.109 129.602 156.971 129.847 156.784C130.091 156.596 130.296 156.362 130.449 156.095L134.641 146.682V175.548C134.641 176.17 134.889 176.767 135.329 177.207C135.769 177.648 136.366 177.895 136.988 177.895C137.611 177.895 138.208 177.648 138.648 177.207C139.088 176.767 139.335 176.17 139.335 175.548V160.775H140.704V175.548C140.704 176.17 140.952 176.767 141.392 177.207C141.832 177.648 142.429 177.895 143.051 177.895C143.674 177.895 144.271 177.648 144.711 177.207C145.151 176.767 145.398 176.17 145.398 175.548V146.765L149.547 156.094C149.701 156.362 149.905 156.597 150.15 156.786C150.394 156.974 150.673 157.113 150.971 157.193C151.269 157.274 151.579 157.295 151.885 157.255C152.191 157.215 152.487 157.116 152.754 156.962C153.021 156.808 153.256 156.603 153.444 156.358C153.632 156.113 153.77 155.834 153.85 155.536C153.93 155.238 153.95 154.927 153.91 154.621C153.869 154.315 153.769 154.02 153.614 153.753Z" fill="#569FD6"/>
<path d="M181.561 136.564C182.646 136.563 183.698 136.186 184.536 135.497C185.374 134.808 185.948 133.85 186.159 132.785C186.37 131.721 186.205 130.617 185.693 129.66C185.181 128.703 184.353 127.954 183.35 127.539C182.348 127.124 181.232 127.07 180.194 127.386C179.156 127.701 178.259 128.367 177.657 129.269C177.054 130.172 176.783 131.255 176.89 132.335C176.997 133.415 177.475 134.424 178.242 135.191C179.123 136.071 180.317 136.564 181.561 136.564ZM195.155 153.753L189.298 141.105L189.287 141.084L189.21 140.934C189.158 140.845 189.1 140.76 189.036 140.678C188.551 139.962 187.899 139.375 187.135 138.969C186.371 138.563 185.519 138.35 184.654 138.348H178.467C177.662 138.35 176.867 138.536 176.144 138.891C175.421 139.246 174.789 139.762 174.295 140.398C174.127 140.555 173.983 140.735 173.868 140.934L167.924 153.753C167.614 154.292 167.53 154.933 167.692 155.534C167.854 156.135 168.247 156.646 168.787 156.957C169.326 157.268 169.966 157.351 170.567 157.189C171.168 157.028 171.68 156.634 171.99 156.095L176.182 146.682V175.548C176.182 175.856 176.243 176.162 176.36 176.447C176.478 176.732 176.651 176.991 176.869 177.209C177.087 177.427 177.346 177.6 177.631 177.718C177.916 177.836 178.221 177.897 178.529 177.897C178.838 177.897 179.144 177.836 179.429 177.718C179.714 177.6 179.973 177.427 180.191 177.208C180.409 176.99 180.582 176.731 180.699 176.446C180.817 176.161 180.877 175.856 180.876 175.548V160.775H182.245V175.548C182.245 176.17 182.493 176.767 182.933 177.207C183.373 177.647 183.97 177.895 184.592 177.895C185.215 177.895 185.812 177.647 186.252 177.207C186.692 176.767 186.939 176.17 186.939 175.548V146.765L191.088 156.094C191.242 156.362 191.446 156.597 191.691 156.786C191.935 156.974 192.214 157.113 192.512 157.193C192.81 157.274 193.12 157.295 193.426 157.255C193.732 157.215 194.028 157.116 194.295 156.962C194.562 156.808 194.797 156.603 194.985 156.358C195.173 156.113 195.311 155.834 195.391 155.536C195.471 155.238 195.491 154.927 195.451 154.621C195.41 154.315 195.31 154.02 195.155 153.753Z" fill="#569FD6"/>
<path d="M15.4002 199.625C16.4852 199.624 17.5363 199.247 18.3746 198.558C19.2128 197.87 19.7862 196.911 19.9972 195.847C20.2082 194.783 20.0437 193.678 19.5316 192.722C19.0196 191.765 18.1917 191.016 17.1891 190.601C16.1864 190.186 15.071 190.132 14.0329 190.448C12.9948 190.763 12.0982 191.429 11.4958 192.331C10.8934 193.233 10.6225 194.317 10.7292 195.397C10.836 196.476 11.3138 197.486 12.0813 198.253C12.9622 199.131 14.1558 199.625 15.4002 199.625ZM28.9941 216.815L23.1374 204.166L23.127 204.145L23.0497 203.995C22.9973 203.906 22.939 203.821 22.8752 203.74C22.3903 203.023 21.7375 202.436 20.9737 202.03C20.2099 201.624 19.3584 201.411 18.4934 201.41H12.3068C11.5013 201.411 10.7067 201.597 9.98367 201.952C9.26067 202.307 8.62835 202.823 8.13494 203.459C7.96685 203.616 7.82297 203.797 7.708 203.995L1.76348 216.815C1.45465 217.354 1.37229 217.993 1.53445 218.593C1.69661 219.193 2.09006 219.704 2.62847 220.014C3.16689 220.324 3.80629 220.408 4.40643 220.247C5.00657 220.086 5.51842 219.694 5.82968 219.156L10.0217 209.743V238.609C10.0217 239.231 10.269 239.828 10.7091 240.269C11.1493 240.709 11.7462 240.956 12.3687 240.956C12.9911 240.956 13.5881 240.709 14.0283 240.269C14.4684 239.828 14.7157 239.231 14.7157 238.609V223.836H16.0846V238.609C16.0846 239.231 16.3318 239.828 16.772 240.269C17.2122 240.709 17.8092 240.956 18.4316 240.956C19.0541 240.956 19.6511 240.709 20.0912 240.269C20.5314 239.828 20.7787 239.231 20.7787 238.609V209.826L24.928 219.156C25.0816 219.423 25.2864 219.658 25.5306 219.846C25.7748 220.034 26.0537 220.172 26.3513 220.252C26.6489 220.332 26.9594 220.353 27.2651 220.313C27.5707 220.273 27.8655 220.174 28.1326 220.02C28.3997 219.866 28.6339 219.661 28.8217 219.417C29.0096 219.172 29.1475 218.893 29.2275 218.596C29.3075 218.298 29.3281 217.987 29.288 217.682C29.248 217.376 29.1481 217.082 28.9941 216.815Z" fill="#569FD6"/>
<path d="M56.9399 199.625C58.0249 199.624 59.076 199.247 59.9142 198.558C60.7524 197.87 61.3258 196.911 61.5368 195.847C61.7478 194.783 61.5832 193.678 61.0712 192.722C60.5592 191.765 59.7313 191.016 58.7287 190.601C57.7261 190.187 56.6108 190.132 55.5727 190.448C54.5346 190.763 53.638 191.429 53.0356 192.331C52.4332 193.234 52.1623 194.317 52.2691 195.397C52.3758 196.476 52.8536 197.486 53.621 198.253C54.5019 199.131 55.6955 199.625 56.9399 199.625ZM70.5339 216.815L64.6771 204.166L64.6667 204.145L64.5894 203.995C64.5371 203.906 64.4788 203.821 64.4149 203.74C63.9301 203.023 63.2773 202.436 62.5135 202.03C61.7497 201.624 60.8982 201.411 60.0331 201.41H53.8465C53.041 201.411 52.2464 201.597 51.5234 201.952C50.8004 202.307 50.1681 202.823 49.6747 203.459C49.5066 203.616 49.3627 203.797 49.2477 203.995L43.3032 216.815C43.1495 217.082 43.0498 217.376 43.01 217.682C42.9701 217.987 42.9908 218.298 43.0708 218.595C43.1509 218.893 43.2888 219.171 43.4767 219.416C43.6645 219.66 43.8986 219.865 44.1656 220.018C44.4326 220.172 44.7272 220.272 45.0327 220.312C45.3382 220.352 45.6486 220.331 45.9461 220.251C46.2436 220.171 46.5224 220.033 46.7666 219.845C47.0109 219.657 47.2157 219.423 47.3694 219.156L51.5614 209.743V238.609C51.5614 239.231 51.8087 239.828 52.2489 240.269C52.689 240.709 53.286 240.956 53.9084 240.956C54.5309 240.956 55.1279 240.709 55.568 240.269C56.0082 239.828 56.2554 239.231 56.2554 238.609V223.836H57.6244V238.609C57.6244 239.231 57.8717 239.828 58.3118 240.269C58.752 240.709 59.349 240.956 59.9714 240.956C60.5939 240.956 61.1909 240.709 61.631 240.269C62.0711 239.828 62.3184 239.231 62.3184 238.609V209.826L66.4677 219.156C66.6211 219.424 66.8257 219.659 67.07 219.847C67.3142 220.036 67.5933 220.174 67.8911 220.255C68.189 220.336 68.4999 220.357 68.8059 220.317C69.1119 220.277 69.4071 220.177 69.6745 220.023C69.9419 219.869 70.1763 219.664 70.3643 219.42C70.5523 219.175 70.6901 218.895 70.77 218.597C70.8498 218.299 70.87 217.988 70.8295 217.682C70.789 217.377 70.6886 217.082 70.5339 216.815Z" fill="#569FD6"/>
<path d="M98.4809 199.625C99.647 199.625 100.771 199.191 101.635 198.408C102.499 197.624 103.041 196.548 103.155 195.387C103.269 194.227 102.947 193.065 102.252 192.129C101.557 191.193 100.539 190.548 99.395 190.321C98.2512 190.094 97.0639 190.3 96.0639 190.9C95.064 191.5 94.3229 192.45 93.9848 193.566C93.6468 194.682 93.7359 195.884 94.2349 196.938C94.7339 197.992 95.6071 198.823 96.6846 199.268C97.2542 199.504 97.8646 199.625 98.4809 199.625ZM112.074 216.815L106.218 204.166L106.207 204.145L106.13 203.995C106.078 203.906 106.02 203.821 105.956 203.74C105.471 203.023 104.819 202.437 104.055 202.03C103.291 201.624 102.439 201.411 101.574 201.41H95.3875C94.582 201.411 93.7874 201.597 93.0644 201.952C92.3414 202.307 91.7091 202.823 91.2157 203.459C91.0476 203.616 90.9037 203.797 90.7887 203.995L84.8443 216.815C84.6905 217.082 84.5909 217.376 84.551 217.682C84.5111 217.987 84.5318 218.298 84.6119 218.595C84.6919 218.893 84.8298 219.171 85.0177 219.416C85.2055 219.66 85.4396 219.865 85.7066 220.018C85.9735 220.172 86.2682 220.272 86.5737 220.312C86.8792 220.351 87.1895 220.331 87.487 220.251C87.7845 220.171 88.0633 220.033 88.3075 219.845C88.5518 219.657 88.7566 219.423 88.9103 219.156L93.1023 209.743V238.609C93.1023 239.231 93.3496 239.828 93.7898 240.269C94.2299 240.709 94.8269 240.956 95.4493 240.956C96.0718 240.956 96.6688 240.709 97.1089 240.269C97.5491 239.828 97.7963 239.231 97.7963 238.609V223.836H99.1653V238.609C99.1653 239.231 99.4126 239.828 99.8528 240.269C100.293 240.709 100.89 240.956 101.512 240.956C102.135 240.956 102.732 240.709 103.172 240.269C103.612 239.828 103.859 239.231 103.859 238.609V209.826L108.008 219.156C108.319 219.695 108.831 220.089 109.432 220.251C110.032 220.412 110.673 220.329 111.212 220.018C111.751 219.708 112.145 219.196 112.307 218.595C112.468 217.994 112.385 217.354 112.074 216.815Z" fill="#569FD6"/>
<path d="M140.02 199.625C141.105 199.624 142.157 199.247 142.995 198.558C143.833 197.869 144.407 196.911 144.618 195.847C144.829 194.782 144.664 193.678 144.152 192.721C143.64 191.764 142.812 191.015 141.809 190.6C140.807 190.186 139.691 190.131 138.653 190.447C137.615 190.762 136.718 191.428 136.116 192.331C135.513 193.233 135.242 194.317 135.349 195.396C135.456 196.476 135.934 197.486 136.701 198.253C137.582 199.132 138.776 199.626 140.02 199.625ZM153.614 216.815L147.757 204.166L147.746 204.145L147.669 203.995C147.617 203.906 147.559 203.821 147.495 203.74C147.01 203.023 146.358 202.437 145.594 202.03C144.83 201.624 143.978 201.411 143.113 201.41H136.926C136.121 201.411 135.326 201.597 134.603 201.952C133.88 202.307 133.248 202.823 132.754 203.459C132.586 203.616 132.442 203.797 132.327 203.995L126.383 216.815C126.073 217.354 125.989 217.994 126.151 218.595C126.313 219.196 126.706 219.708 127.246 220.018C127.785 220.329 128.425 220.412 129.026 220.251C129.627 220.089 130.139 219.695 130.449 219.156L134.641 209.743V238.609C134.641 239.231 134.889 239.828 135.329 240.269C135.769 240.709 136.366 240.956 136.988 240.956C137.611 240.956 138.208 240.709 138.648 240.269C139.088 239.828 139.335 239.231 139.335 238.609V223.836H140.704V238.609C140.704 239.231 140.952 239.828 141.392 240.269C141.832 240.709 142.429 240.956 143.051 240.956C143.674 240.956 144.271 240.709 144.711 240.269C145.151 239.828 145.398 239.231 145.398 238.609V209.826L149.547 219.156C149.701 219.423 149.906 219.658 150.15 219.846C150.394 220.034 150.673 220.172 150.971 220.252C151.268 220.333 151.579 220.353 151.885 220.314C152.19 220.274 152.485 220.174 152.752 220.02C153.02 219.866 153.254 219.661 153.442 219.417C153.63 219.173 153.768 218.894 153.848 218.596C153.928 218.298 153.948 217.988 153.908 217.682C153.868 217.376 153.768 217.082 153.614 216.815Z" fill="#569FD6"/>
<path d="M181.561 199.625C182.646 199.624 183.698 199.247 184.536 198.558C185.374 197.869 185.948 196.911 186.159 195.847C186.37 194.782 186.205 193.678 185.693 192.721C185.181 191.764 184.353 191.015 183.35 190.6C182.348 190.186 181.232 190.131 180.194 190.447C179.156 190.762 178.259 191.428 177.657 192.331C177.054 193.233 176.783 194.317 176.89 195.396C176.997 196.476 177.475 197.486 178.242 198.253C179.123 199.132 180.317 199.626 181.561 199.625ZM195.155 216.815L189.298 204.166L189.287 204.145L189.21 203.995C189.158 203.906 189.1 203.821 189.036 203.74C188.551 203.023 187.899 202.437 187.135 202.03C186.371 201.624 185.519 201.411 184.654 201.41H178.467C177.662 201.411 176.867 201.597 176.144 201.952C175.421 202.307 174.789 202.823 174.295 203.459C174.127 203.616 173.983 203.797 173.868 203.995L167.924 216.815C167.614 217.354 167.53 217.994 167.692 218.595C167.854 219.196 168.247 219.708 168.787 220.018C169.326 220.329 169.966 220.412 170.567 220.251C171.168 220.089 171.68 219.695 171.99 219.156L176.182 209.743V238.609C176.182 238.917 176.243 239.223 176.36 239.508C176.478 239.793 176.651 240.052 176.869 240.27C177.087 240.488 177.346 240.661 177.631 240.779C177.916 240.897 178.221 240.958 178.529 240.958C179.153 240.958 179.75 240.711 180.191 240.27C180.409 240.052 180.582 239.793 180.699 239.508C180.817 239.223 180.877 238.917 180.876 238.609V223.836H182.245V238.609C182.245 239.231 182.493 239.828 182.933 240.269C183.373 240.709 183.97 240.956 184.592 240.956C185.215 240.956 185.812 240.709 186.252 240.269C186.692 239.828 186.939 239.231 186.939 238.609V209.826L191.088 219.156C191.242 219.423 191.447 219.658 191.691 219.846C191.935 220.034 192.214 220.172 192.512 220.252C192.809 220.333 193.12 220.353 193.426 220.314C193.731 220.274 194.026 220.174 194.293 220.02C194.561 219.866 194.795 219.661 194.983 219.417C195.171 219.173 195.309 218.894 195.389 218.596C195.469 218.298 195.489 217.988 195.449 217.682C195.409 217.376 195.309 217.082 195.155 216.815Z" fill="#569FD6"/>
<path d="M15.4494 9.39711C16.6278 9.39668 17.7639 8.95793 18.6367 8.16621C19.5095 7.3745 20.0566 6.28644 20.1716 5.11368C20.2866 3.94092 19.9612 2.76732 19.2587 1.82118C18.5563 0.875046 17.5271 0.224022 16.3712 -0.00524054C15.2153 -0.234504 14.0155 -0.0256244 13.0051 0.580781C11.9947 1.18719 11.246 2.14776 10.9047 3.27562C10.5633 4.40348 10.6537 5.61799 11.1583 6.68289C11.6628 7.7478 12.5454 8.58695 13.6345 9.03711C14.21 9.2751 14.8267 9.39743 15.4494 9.39711Z" fill="#F47D39"/>
<path d="M30.539 26.7811L23.2684 13.9861L23.2574 13.9651L23.1793 13.8141C23.1264 13.724 23.0676 13.6374 23.0032 13.5551C22.5133 12.8311 21.8536 12.2381 21.0818 11.8278C20.31 11.4174 19.4494 11.2023 18.5753 11.2011H12.3239C11.5099 11.2026 10.707 11.3899 9.97643 11.7488C9.24585 12.1077 8.60686 12.6287 8.10823 13.2721C7.93841 13.4304 7.79309 13.6131 7.67702 13.8141L0.317339 26.7811C0.00412849 27.3259 -0.0799098 27.9728 0.0836962 28.5796C0.247302 29.1864 0.645159 29.7033 1.18981 30.0168C1.73445 30.3303 2.38129 30.4147 2.98815 30.2514C3.595 30.0882 4.11218 29.6906 4.42598 29.1461L8.3199 22.9161L5.30022 38.0271C5.22489 38.3286 5.25844 38.647 5.39495 38.9262C5.53145 39.2054 5.76213 39.4274 6.04634 39.5531C6.23496 39.6364 6.44037 39.6748 6.64635 39.6651H10.0145V48.8171C10.0145 49.1286 10.0759 49.437 10.1951 49.7247C10.3142 50.0124 10.4889 50.2739 10.7092 50.4941C10.9294 50.7144 11.1909 50.8891 11.4786 51.0082C11.7663 51.1274 12.0747 51.1888 12.3862 51.1888C12.6976 51.1888 13.006 51.1274 13.2938 51.0082C13.5815 50.8891 13.843 50.7144 14.0632 50.4941C14.2834 50.2739 14.4581 50.0124 14.5773 49.7247C14.6965 49.437 14.7578 49.1286 14.7578 48.8171V39.6651H16.1409V48.8171C16.1409 49.1286 16.2023 49.437 16.3215 49.7247C16.4406 50.0124 16.6153 50.2739 16.8356 50.4941C17.0558 50.7144 17.3173 50.8891 17.605 51.0082C17.8927 51.1274 18.2011 51.1888 18.5126 51.1888C18.824 51.1888 19.1324 51.1274 19.4202 51.0082C19.7079 50.8891 19.9694 50.7144 20.1896 50.4941C20.4098 50.2739 20.5845 50.0124 20.7037 49.7247C20.8229 49.437 20.8842 49.1286 20.8842 48.8171V39.6651H24.2096C24.5202 39.6804 24.8263 39.5856 25.0739 39.3974C25.3214 39.2091 25.4946 38.9395 25.5629 38.6361C25.6081 38.4353 25.6056 38.2267 25.5555 38.0271L22.5362 22.9161L26.43 29.1461C26.5851 29.4163 26.7919 29.6533 27.0387 29.8436C27.2854 30.0338 27.5672 30.1735 27.868 30.2548C28.1687 30.336 28.4826 30.3571 28.7915 30.317C29.1005 30.2768 29.3985 30.1762 29.6685 30.0208C29.9385 29.8653 30.1753 29.6582 30.3652 29.4112C30.5551 29.1642 30.6944 28.8822 30.7753 28.5814C30.8561 28.2805 30.8769 27.9666 30.8363 27.6577C30.7958 27.3488 30.6947 27.0509 30.539 26.7811Z" fill="#F47D39"/>
<path d="M56.9885 9.39711C58.1669 9.39668 59.303 8.95793 60.1758 8.16621C61.0486 7.3745 61.5957 6.28644 61.7106 5.11368C61.8256 3.94092 61.5002 2.76732 60.7978 1.82118C60.0954 0.875046 59.0661 0.224022 57.9102 -0.00524054C56.7543 -0.234504 55.5545 -0.0256244 54.5442 0.580781C53.5338 1.18719 52.7851 2.14776 52.4438 3.27562C52.1024 4.40348 52.1928 5.61799 52.6973 6.68289C53.2019 7.7478 54.0845 8.58695 55.1735 9.03711C55.749 9.2751 56.3657 9.39743 56.9885 9.39711Z" fill="#F47D39"/>
<path d="M72.0767 26.7811L64.8061 13.9861L64.7951 13.9651L64.717 13.8141C64.6642 13.724 64.6053 13.6374 64.541 13.5551C64.0511 12.8311 63.3915 12.2381 62.6196 11.8277C61.8477 11.4174 60.9872 11.2023 60.113 11.2011H53.8617C53.0477 11.2026 52.2448 11.3899 51.5143 11.7488C50.7837 12.1077 50.1447 12.6287 49.6461 13.2721C49.4762 13.4304 49.3308 13.6131 49.2147 13.8141L41.8551 26.7811C41.5415 27.326 41.4571 27.9731 41.6206 28.5801C41.7841 29.1871 42.1821 29.7043 42.727 30.018C43.2718 30.3316 43.9189 30.4159 44.5259 30.2524C45.133 30.0889 45.6502 29.691 45.9638 29.1461L49.8576 22.9161L46.838 38.0271C46.7627 38.3286 46.7962 38.647 46.9327 38.9262C47.0693 39.2054 47.3 39.4274 47.5842 39.5531C47.7728 39.6365 47.9782 39.6748 48.1842 39.6651H51.5524V48.8171C51.5537 49.4453 51.8041 50.0472 52.2487 50.4909C52.6934 50.9346 53.2958 51.1838 53.924 51.1838C54.5521 51.1838 55.1546 50.9346 55.5992 50.4909C56.0439 50.0472 56.2943 49.4453 56.2956 48.8171V39.6651H57.6788V48.8171C57.6801 49.4453 57.9305 50.0472 58.3752 50.4909C58.8198 50.9346 59.4222 51.1838 60.0504 51.1838C60.6785 51.1838 61.281 50.9346 61.7256 50.4909C62.1703 50.0472 62.4207 49.4453 62.422 48.8171V39.6651H65.7474C65.9533 39.675 66.1587 39.6367 66.3472 39.5532C66.5356 39.4697 66.702 39.3433 66.833 39.1841C66.9637 39.025 67.0553 38.8374 67.1005 38.6365C67.1457 38.4356 67.1433 38.2269 67.0934 38.0271L64.074 22.9161L67.9678 29.1461C68.1227 29.4167 68.3294 29.654 68.5762 29.8446C68.8229 30.0351 69.1048 30.1751 69.4058 30.2565C69.7067 30.338 70.0207 30.3592 70.3299 30.3191C70.6391 30.279 70.9373 30.1783 71.2075 30.0228C71.4777 29.8673 71.7145 29.66 71.9045 29.4128C72.0945 29.1656 72.2338 28.8834 72.3146 28.5823C72.3953 28.2812 72.4158 27.9671 72.375 27.658C72.3342 27.3489 72.2328 27.0509 72.0767 26.7811Z" fill="#F47D39"/>
<path d="M98.5238 9.39711C99.7022 9.39663 100.838 8.95784 101.711 8.16611C102.584 7.37438 103.131 6.28632 103.246 5.11357C103.361 3.94083 103.035 2.76725 102.333 1.82115C101.63 0.875053 100.601 0.224071 99.4452 -0.00516357C98.2894 -0.234398 97.0896 -0.0254905 96.0792 0.580919C95.0689 1.18733 94.3202 2.14789 93.9789 3.27573C93.6376 4.40357 93.728 5.61805 94.2325 6.68294C94.737 7.74782 95.6196 8.58695 96.7086 9.03711C97.2842 9.27516 97.901 9.39749 98.5238 9.39711Z" fill="#F47D39"/>
<path d="M113.613 26.7811L106.342 13.9861L106.332 13.9651L106.253 13.8141C106.201 13.7236 106.142 13.637 106.077 13.5551C105.587 12.831 104.928 12.2378 104.156 11.8275C103.384 11.4171 102.523 11.202 101.649 11.2011H95.3981C94.5841 11.2026 93.7812 11.3899 93.0506 11.7488C92.32 12.1077 91.681 12.6287 91.1823 13.2721C91.0125 13.4304 90.8672 13.6131 90.7511 13.8141L83.3914 26.7811C83.0795 27.3258 82.9965 27.972 83.1604 28.578C83.3244 29.1839 83.722 29.7 84.266 30.0132C84.81 30.3263 85.456 30.4109 86.0623 30.2483C86.6686 30.0858 87.1856 29.6894 87.5 29.1461L91.394 22.9161L88.3743 38.0271C88.2991 38.3286 88.3326 38.647 88.4692 38.9262C88.6057 39.2054 88.8363 39.4274 89.1205 39.5531C89.3091 39.6365 89.5145 39.6748 89.7204 39.6651H93.0887V48.8171C93.09 49.4453 93.3405 50.0472 93.7851 50.491C94.2297 50.9347 94.8322 51.1839 95.4603 51.1839C96.0885 51.1839 96.691 50.9347 97.1356 50.491C97.5802 50.0472 97.8307 49.4453 97.8319 48.8171V39.6651H99.215V48.8171C99.2144 49.1289 99.2753 49.4379 99.3941 49.7261C99.513 50.0144 99.6876 50.2764 99.9079 50.4971C100.128 50.7179 100.39 50.893 100.678 51.0125C100.966 51.1319 101.275 51.1935 101.586 51.1935C101.898 51.1935 102.207 51.1319 102.495 51.0125C102.783 50.893 103.045 50.7179 103.265 50.4971C103.485 50.2764 103.66 50.0144 103.779 49.7261C103.898 49.4379 103.959 49.1289 103.958 48.8171V39.6651H107.284C107.49 39.6751 107.695 39.6368 107.883 39.5533C108.072 39.4698 108.238 39.3434 108.369 39.1841C108.5 39.025 108.591 38.8375 108.637 38.6366C108.682 38.4357 108.68 38.227 108.63 38.0271L105.61 22.9161L109.504 29.1461C109.659 29.4159 109.866 29.6525 110.113 29.8423C110.36 30.0322 110.641 30.1715 110.942 30.2525C111.242 30.3335 111.556 30.3545 111.865 30.3143C112.173 30.274 112.471 30.1734 112.741 30.0181C113.011 29.8628 113.247 29.6559 113.437 29.4092C113.627 29.1625 113.766 28.8808 113.847 28.5802C113.928 28.2796 113.949 27.966 113.909 27.6573C113.869 27.3487 113.768 27.0509 113.613 26.7811Z" fill="#F47D39"/>
<path d="M140.062 9.39711C141.239 9.39649 142.374 8.95797 143.246 8.16681C144.118 7.37565 144.665 6.28842 144.78 5.11662C144.894 3.94482 144.569 2.77222 143.867 1.82689C143.165 0.88156 142.137 0.231101 140.982 0.00202788C139.827 -0.227046 138.628 -0.0183576 137.619 0.587508C136.609 1.19337 135.861 2.1531 135.52 3.28C135.179 4.4069 135.269 5.62041 135.773 6.68449C136.277 7.74858 137.159 8.58715 138.247 9.03711C138.822 9.2751 139.439 9.39743 140.062 9.39711Z" fill="#F47D39"/>
<path d="M155.151 26.7811L147.881 13.9861L147.87 13.9651L147.791 13.8141C147.739 13.7236 147.68 13.637 147.615 13.5551C147.125 12.8311 146.466 12.238 145.694 11.8277C144.922 11.4173 144.062 11.2022 143.188 11.2011H136.936C136.122 11.2025 135.319 11.3898 134.589 11.7487C133.858 12.1077 133.219 12.6287 132.721 13.2721C132.551 13.4303 132.405 13.6129 132.289 13.8141L124.93 26.7811C124.774 27.0499 124.673 27.347 124.633 27.6551C124.563 28.1987 124.683 28.7498 124.973 29.2148C125.263 29.6797 125.705 30.0298 126.224 30.2056C126.744 30.3813 127.308 30.3718 127.82 30.1786C128.333 29.9855 128.764 29.6206 129.038 29.1461L132.932 22.9161L129.913 38.0271C129.863 38.227 129.861 38.4358 129.906 38.6367C129.952 38.8377 130.043 39.0253 130.174 39.1844C130.305 39.3436 130.471 39.4699 130.66 39.5534C130.848 39.6369 131.053 39.6751 131.259 39.6651H134.627V48.8171C134.629 49.4449 134.879 50.0463 135.324 50.4896C135.768 50.9328 136.371 51.1817 136.998 51.1817C137.626 51.1817 138.228 50.9328 138.673 50.4896C139.117 50.0463 139.368 49.4449 139.37 48.8171V39.6651H140.753V48.8171C140.753 49.4462 141.003 50.0495 141.448 50.4944C141.892 50.9392 142.496 51.1891 143.125 51.1891C143.754 51.1891 144.357 50.9392 144.802 50.4944C145.247 50.0495 145.497 49.4462 145.497 48.8171V39.6651H148.822C149.028 39.6752 149.233 39.6371 149.421 39.5536C149.61 39.4702 149.776 39.3438 149.907 39.1846C150.038 39.0254 150.129 38.8379 150.175 38.6369C150.22 38.4359 150.218 38.227 150.168 38.0271L147.148 22.9161L151.042 29.1461C151.197 29.4159 151.404 29.6525 151.651 29.8423C151.898 30.0322 152.179 30.1715 152.48 30.2525C152.78 30.3335 153.094 30.3545 153.403 30.3143C153.711 30.274 154.009 30.1734 154.279 30.0181C154.549 29.8628 154.785 29.6559 154.975 29.4092C155.165 29.1625 155.304 28.8808 155.385 28.5802C155.466 28.2796 155.487 27.966 155.447 27.6573C155.407 27.3487 155.306 27.0509 155.151 26.7811Z" fill="#F47D39"/>
<path d="M181.6 9.39711C182.777 9.39625 183.912 8.95751 184.784 8.16621C185.656 7.37492 186.202 6.28765 186.317 5.11587C186.431 3.9441 186.106 2.77159 185.404 1.82638C184.702 0.881184 183.674 0.230873 182.519 0.00192947C181.364 -0.227014 180.165 -0.0182157 179.155 0.587707C178.146 1.19363 177.398 2.15335 177.057 3.28023C176.716 4.40711 176.806 5.62057 177.31 6.6846C177.814 7.74863 178.696 8.58717 179.784 9.03711C180.36 9.27523 180.977 9.39756 181.6 9.39711Z" fill="#F47D39"/>
<path d="M196.687 26.7811L189.417 13.9861L189.406 13.9651L189.328 13.8141C189.275 13.7241 189.216 13.6375 189.152 13.5551C188.662 12.8312 188.002 12.2382 187.231 11.8279C186.459 11.4175 185.598 11.2024 184.724 11.2011H178.472C177.658 11.2025 176.855 11.3898 176.125 11.7487C175.394 12.1077 174.756 12.6287 174.257 13.2721C174.087 13.4305 173.942 13.6132 173.825 13.8141L166.466 26.7811C166.272 27.1186 166.164 27.4987 166.152 27.8879C166.139 28.277 166.223 28.6632 166.396 29.0123C166.568 29.3613 166.824 29.6624 167.141 29.8889C167.457 30.1155 167.825 30.2605 168.211 30.3111C168.52 30.3515 168.834 30.3308 169.135 30.2501C169.436 30.1698 169.718 30.0309 169.965 29.8415C170.212 29.652 170.419 29.4157 170.574 29.1461L174.468 22.9161L171.449 38.0271C171.399 38.227 171.397 38.4358 171.442 38.6367C171.488 38.8377 171.58 39.0253 171.71 39.1844C171.841 39.3436 172.007 39.4699 172.196 39.5534C172.384 39.6369 172.589 39.6751 172.795 39.6651H176.163V48.8171C176.162 49.2865 176.3 49.7457 176.561 50.1362C176.821 50.5267 177.192 50.8309 177.626 51.0101C178.06 51.19 178.538 51.2371 178.998 51.1455C179.459 51.0538 179.882 50.8274 180.214 50.4951C180.434 50.2746 180.608 50.0129 180.727 49.725C180.846 49.4371 180.907 49.1286 180.906 48.8171V39.6651H182.289V48.8171C182.289 49.4462 182.539 50.0495 182.984 50.4944C183.429 50.9392 184.032 51.1891 184.661 51.1891C185.29 51.1891 185.894 50.9392 186.338 50.4944C186.783 50.0495 187.033 49.4462 187.033 48.8171V39.6651H190.358C190.564 39.6752 190.769 39.6371 190.958 39.5536C191.146 39.4702 191.312 39.3438 191.443 39.1846C191.574 39.0254 191.666 38.8379 191.711 38.6369C191.756 38.4359 191.754 38.227 191.704 38.0271L188.685 22.9161L192.578 29.1461C192.733 29.4159 192.94 29.6525 193.187 29.8423C193.434 30.0322 193.715 30.1715 194.016 30.2525C194.317 30.3335 194.63 30.3545 194.939 30.3143C195.248 30.274 195.545 30.1734 195.815 30.0181C196.085 29.8628 196.321 29.6559 196.511 29.4092C196.701 29.1625 196.841 28.8808 196.921 28.5802C197.002 28.2796 197.023 27.966 196.983 27.6573C196.943 27.3487 196.842 27.0509 196.687 26.7811Z" fill="#F47D39"/>
<path d="M15.4494 73.0291C16.6277 73.0287 17.7638 72.5899 18.6366 71.7982C19.5094 71.0065 20.0565 69.9185 20.1714 68.7457C20.2864 67.573 19.961 66.3994 19.2586 65.4533C18.5562 64.5072 17.5269 63.8561 16.3711 63.6269C15.2152 63.3976 14.0154 63.6065 13.0051 64.2129C11.9947 64.8193 11.246 65.7799 10.9047 66.9077C10.5633 68.0355 10.6537 69.25 11.1583 70.3149C11.6628 71.3798 12.5454 72.2189 13.6344 72.6691C14.2099 72.9071 14.8266 73.0294 15.4494 73.0291Z" fill="#F47D39"/>
<path d="M30.5381 90.4131L23.2675 77.6181L23.2565 77.5971L23.1784 77.4461C23.1255 77.356 23.0667 77.2694 23.0023 77.1871C22.5124 76.4631 21.8528 75.8701 21.0809 75.4598C20.3091 75.0494 19.4485 74.8343 18.5744 74.8331H12.323C11.509 74.8346 10.7061 75.0219 9.97555 75.3808C9.24497 75.7397 8.60598 76.2607 8.10736 76.9041C7.93753 77.0624 7.79222 77.2451 7.67614 77.4461L0.316463 90.4131C0.00505686 90.9578 -0.0776883 91.6038 0.0863908 92.2094C0.25047 92.815 0.647977 93.3309 1.19177 93.6439C1.73556 93.9569 2.38127 94.0415 2.98736 93.8792C3.59345 93.7169 4.11049 93.321 4.42511 92.7781L8.31903 86.5481L5.29934 101.659C5.22401 101.961 5.25756 102.279 5.39407 102.558C5.53058 102.837 5.76125 103.059 6.04547 103.185C6.23408 103.268 6.4395 103.307 6.64547 103.297H10.0136V112.449C10.0136 112.761 10.075 113.069 10.1942 113.357C10.3134 113.644 10.488 113.906 10.7083 114.126C10.9285 114.346 11.19 114.521 11.4777 114.64C11.7655 114.759 12.0739 114.821 12.3853 114.821C12.6968 114.821 13.0052 114.759 13.2929 114.64C13.5806 114.521 13.8421 114.346 14.0623 114.126C14.2825 113.906 14.4572 113.644 14.5764 113.357C14.6956 113.069 14.757 112.761 14.757 112.449V103.297H16.14V112.449C16.14 112.761 16.2014 113.069 16.3206 113.357C16.4398 113.644 16.6145 113.906 16.8347 114.126C17.0549 114.346 17.3164 114.521 17.6041 114.64C17.8919 114.759 18.2003 114.821 18.5117 114.821C18.8232 114.821 19.1315 114.759 19.4193 114.64C19.707 114.521 19.9685 114.346 20.1887 114.126C20.4089 113.906 20.5836 113.644 20.7028 113.357C20.822 113.069 20.8834 112.761 20.8834 112.449V103.297H24.2087C24.4146 103.307 24.62 103.269 24.8084 103.186C24.9969 103.103 25.1632 102.976 25.294 102.817C25.4249 102.658 25.5166 102.47 25.5619 102.269C25.6071 102.068 25.6046 101.859 25.5547 101.659L22.5353 86.5481L26.4292 92.7781C26.5842 93.0483 26.791 93.2853 27.0378 93.4756C27.2845 93.6658 27.5663 93.8055 27.8671 93.8868C28.1679 93.968 28.4817 93.9891 28.7906 93.949C29.0996 93.9088 29.3976 93.8082 29.6676 93.6527C29.9376 93.4973 30.1744 93.2902 30.3643 93.0432C30.5542 92.7962 30.6936 92.5142 30.7744 92.2134C30.8552 91.9125 30.876 91.5986 30.8354 91.2897C30.7949 90.9808 30.6939 90.6829 30.5381 90.4131Z" fill="#F47D39"/>
<path d="M56.9865 73.0291C58.1649 73.0287 59.3009 72.5899 60.1737 71.7982C61.0465 71.0065 61.5936 69.9185 61.7086 68.7457C61.8235 67.573 61.4982 66.3994 60.7957 65.4533C60.0933 64.5072 59.064 63.8561 57.9082 63.6269C56.7523 63.3976 55.5526 63.6065 54.5422 64.2129C53.5318 64.8193 52.7831 65.7799 52.4418 66.9077C52.1004 68.0355 52.1908 69.25 52.6954 70.3149C53.1999 71.3798 54.0825 72.2189 55.1715 72.6691C55.747 72.9071 56.3637 73.0294 56.9865 73.0291Z" fill="#F47D39"/>
<path d="M72.0754 90.4131L64.8048 77.6181L64.7938 77.5971L64.7157 77.4461C64.6629 77.356 64.6041 77.2694 64.5397 77.1871C64.0498 76.4631 63.3902 75.8701 62.6183 75.4597C61.8465 75.0494 60.9859 74.8343 60.1117 74.8331H53.8604C53.0465 74.8346 52.2436 75.0219 51.513 75.3808C50.7824 75.7397 50.1434 76.2607 49.6448 76.9041C49.4749 77.0624 49.3295 77.2451 49.2134 77.4461L41.8538 90.4131C41.5423 90.9578 41.4594 91.6039 41.6234 92.2096C41.7875 92.8154 42.185 93.3313 42.7289 93.6444C43.2728 93.9575 43.9186 94.0421 44.5248 93.8797C45.1309 93.7173 45.648 93.3212 45.9625 92.7781L49.8563 86.5481L46.8367 101.659C46.7614 101.961 46.795 102.279 46.9315 102.558C47.068 102.837 47.2987 103.059 47.5829 103.185C47.7716 103.268 47.977 103.307 48.1829 103.297H51.5511V112.449C51.5524 113.077 51.8029 113.679 52.2475 114.123C52.6921 114.567 53.2946 114.816 53.9227 114.816C54.5509 114.816 55.1534 114.567 55.598 114.123C56.0426 113.679 56.293 113.077 56.2943 112.449V103.297H57.6775V112.449C57.6788 113.077 57.9293 113.679 58.3739 114.123C58.8185 114.567 59.421 114.816 60.0491 114.816C60.6773 114.816 61.2798 114.567 61.7244 114.123C62.169 113.679 62.4194 113.077 62.4207 112.449V103.297H65.7461C65.952 103.307 66.1574 103.269 66.3459 103.185C66.5344 103.102 66.7007 102.975 66.8317 102.816C66.9624 102.657 67.054 102.469 67.0992 102.269C67.1445 102.068 67.142 101.859 67.0921 101.659L64.0727 86.5481L67.9665 92.7781C68.1214 93.0487 68.3282 93.286 68.5749 93.4765C68.8217 93.6671 69.1036 93.8071 69.4045 93.8885C69.7054 93.97 70.0195 93.9912 70.3286 93.9511C70.6378 93.911 70.936 93.8103 71.2062 93.6548C71.4764 93.4993 71.7133 93.292 71.9032 93.0448C72.0932 92.7976 72.2326 92.5154 72.3133 92.2143C72.3941 91.9132 72.4146 91.5991 72.3738 91.29C72.333 90.9809 72.2316 90.6829 72.0754 90.4131Z" fill="#F47D39"/>
<path d="M98.5238 73.0291C99.7021 73.0286 100.838 72.5898 101.711 71.7981C102.584 71.0064 103.131 69.9183 103.246 68.7456C103.361 67.5729 103.035 66.3993 102.333 65.4532C101.63 64.5072 100.601 63.8562 99.4452 63.6269C98.2893 63.3977 97.0896 63.6066 96.0792 64.213C95.0689 64.8194 94.3202 65.78 93.9789 66.9078C93.6376 68.0356 93.728 69.2501 94.2325 70.3149C94.737 71.3798 95.6196 72.219 96.7086 72.6691C97.2841 72.9072 97.9009 73.0295 98.5238 73.0291Z" fill="#F47D39"/>
<path d="M113.613 90.4131L106.342 77.6181L106.332 77.5971L106.253 77.4461C106.201 77.3556 106.142 77.269 106.077 77.1871C105.587 76.463 104.928 75.8698 104.156 75.4594C103.384 75.0491 102.523 74.834 101.649 74.8331H95.3981C94.5841 74.8346 93.7812 75.0219 93.0506 75.3808C92.32 75.7397 91.681 76.2607 91.1823 76.9041C91.0125 77.0624 90.8672 77.2451 90.7511 77.4461L83.3914 90.4131C83.0795 90.9578 82.9965 91.604 83.1604 92.21C83.3244 92.8159 83.722 93.332 84.266 93.6452C84.81 93.9583 85.456 94.0429 86.0623 93.8803C86.6686 93.7178 87.1856 93.3214 87.5 92.7781L91.394 86.5481L88.3743 101.659C88.2991 101.961 88.3326 102.279 88.4692 102.558C88.6057 102.837 88.8363 103.059 89.1205 103.185C89.3091 103.268 89.5145 103.307 89.7204 103.297H93.0887V112.449C93.09 113.077 93.3405 113.679 93.7851 114.123C94.2297 114.567 94.8322 114.816 95.4603 114.816C96.0885 114.816 96.691 114.567 97.1356 114.123C97.5802 113.679 97.8307 113.077 97.8319 112.449V103.297H99.215V112.449C99.2144 112.761 99.2753 113.07 99.3941 113.358C99.513 113.646 99.6876 113.908 99.9079 114.129C100.128 114.35 100.39 114.525 100.678 114.644C100.966 114.764 101.275 114.825 101.586 114.825C101.898 114.825 102.207 114.764 102.495 114.644C102.783 114.525 103.045 114.35 103.265 114.129C103.485 113.908 103.66 113.646 103.779 113.358C103.898 113.07 103.959 112.761 103.958 112.449V103.297H107.284C107.49 103.307 107.695 103.269 107.883 103.185C108.072 103.102 108.238 102.975 108.369 102.816C108.5 102.657 108.591 102.47 108.637 102.269C108.682 102.068 108.68 101.859 108.63 101.659L105.61 86.5481L109.504 92.7781C109.659 93.0488 109.865 93.2863 110.112 93.477C110.359 93.6676 110.641 93.8077 110.942 93.8892C111.243 93.9708 111.557 93.9921 111.866 93.952C112.176 93.9119 112.474 93.8112 112.744 93.6557C113.014 93.5001 113.251 93.2928 113.441 93.0455C113.631 92.7982 113.771 92.5159 113.851 92.2147C113.932 91.9135 113.953 91.5993 113.912 91.2901C113.871 90.981 113.769 90.683 113.613 90.4131Z" fill="#F47D39"/>
<path d="M140.062 73.0291C141.239 73.0285 142.374 72.59 143.246 71.7988C144.118 71.0077 144.665 69.9205 144.779 68.7487C144.894 67.5769 144.569 66.4043 143.867 65.459C143.165 64.5137 142.137 63.8632 140.982 63.6342C139.827 63.4051 138.628 63.6138 137.619 64.2196C136.609 64.8255 135.861 65.7852 135.52 66.9121C135.179 68.039 135.269 69.2525 135.773 70.3165C136.277 71.3806 137.159 72.2192 138.247 72.6691C138.822 72.9071 139.439 73.0294 140.062 73.0291Z" fill="#F47D39"/>
<path d="M155.151 90.4131L147.881 77.6181L147.87 77.5971L147.791 77.4461C147.739 77.3556 147.68 77.269 147.615 77.1871C147.125 76.4631 146.466 75.87 145.694 75.4597C144.922 75.0493 144.062 74.8342 143.188 74.8331H136.936C136.122 74.8345 135.319 75.0218 134.589 75.3807C133.858 75.7397 133.219 76.2607 132.721 76.9041C132.551 77.0623 132.405 77.2449 132.289 77.4461L124.93 90.4131C124.774 90.6819 124.673 90.979 124.633 91.2871C124.563 91.8307 124.683 92.3818 124.973 92.8467C125.263 93.3117 125.705 93.6618 126.224 93.8375C126.744 94.0132 127.308 94.0037 127.82 93.8106C128.333 93.6174 128.764 93.2526 129.038 92.7781L132.932 86.5481L129.913 101.659C129.863 101.859 129.861 102.068 129.906 102.269C129.952 102.47 130.043 102.657 130.174 102.816C130.305 102.976 130.471 103.102 130.66 103.185C130.848 103.269 131.053 103.307 131.259 103.297H134.627V112.449C134.629 113.077 134.879 113.678 135.324 114.122C135.768 114.565 136.371 114.814 136.998 114.814C137.626 114.814 138.228 114.565 138.673 114.122C139.117 113.678 139.368 113.077 139.37 112.449V103.297H140.753V112.449C140.753 113.078 141.003 113.682 141.448 114.126C141.892 114.571 142.496 114.821 143.125 114.821C143.754 114.821 144.357 114.571 144.802 114.126C145.247 113.682 145.497 113.078 145.497 112.449V103.297H148.822C149.028 103.307 149.233 103.269 149.421 103.186C149.61 103.102 149.776 102.976 149.907 102.817C150.038 102.657 150.129 102.47 150.175 102.269C150.22 102.068 150.218 101.859 150.168 101.659L147.148 86.5481L151.042 92.7781C151.197 93.0479 151.404 93.2845 151.651 93.4743C151.897 93.6642 152.179 93.8035 152.48 93.8845C152.78 93.9655 153.094 93.9865 153.403 93.9462C153.711 93.906 154.009 93.8054 154.279 93.6501C154.549 93.4948 154.785 93.2879 154.975 93.0412C155.165 92.7945 155.304 92.5128 155.385 92.2122C155.466 91.9116 155.487 91.598 155.447 91.2893C155.407 90.9807 155.306 90.6829 155.151 90.4131Z" fill="#F47D39"/>
<path d="M181.6 73.0291C182.777 73.0282 183.912 72.5895 184.784 71.7982C185.656 71.0069 186.202 69.9197 186.317 68.7479C186.431 67.5762 186.106 66.4037 185.404 65.4585C184.702 64.5133 183.673 63.863 182.519 63.634C181.364 63.4051 180.165 63.6139 179.155 64.2198C178.146 64.8257 177.398 65.7854 177.057 66.9123C176.716 68.0392 176.806 69.2526 177.31 70.3166C177.814 71.3807 178.696 72.2192 179.784 72.6691C180.36 72.9072 180.977 73.0296 181.6 73.0291Z" fill="#F47D39"/>
<path d="M196.687 90.4131L189.417 77.6181L189.406 77.5971L189.328 77.4461C189.275 77.3561 189.216 77.2695 189.152 77.1871C188.662 76.4632 188.002 75.8702 187.231 75.4599C186.459 75.0495 185.598 74.8344 184.724 74.8331H178.472C177.658 74.8345 176.855 75.0218 176.125 75.3807C175.394 75.7396 174.756 76.2607 174.257 76.9041C174.087 77.0625 173.942 77.2452 173.825 77.4461L166.466 90.4131C166.272 90.7506 166.164 91.1307 166.152 91.5199C166.139 91.909 166.223 92.2952 166.396 92.6442C166.568 92.9933 166.824 93.2944 167.141 93.5209C167.457 93.7475 167.825 93.8925 168.211 93.9431C168.52 93.9835 168.834 93.9627 169.135 93.8821C169.436 93.8018 169.718 93.6629 169.965 93.4735C170.212 93.284 170.419 93.0477 170.574 92.7781L174.468 86.5481L171.449 101.659C171.399 101.859 171.397 102.068 171.442 102.269C171.488 102.47 171.58 102.657 171.71 102.816C171.841 102.976 172.007 103.102 172.196 103.185C172.384 103.269 172.589 103.307 172.795 103.297H176.163V112.449C176.162 112.919 176.3 113.378 176.561 113.768C176.821 114.159 177.192 114.463 177.626 114.642C178.06 114.822 178.538 114.869 178.998 114.777C179.459 114.686 179.882 114.459 180.214 114.127C180.434 113.907 180.608 113.645 180.727 113.357C180.846 113.069 180.907 112.761 180.906 112.449V103.297H182.289V112.449C182.289 113.078 182.539 113.682 182.984 114.126C183.429 114.571 184.032 114.821 184.661 114.821C185.29 114.821 185.894 114.571 186.338 114.126C186.783 113.682 187.033 113.078 187.033 112.449V103.297H190.358C190.564 103.307 190.769 103.269 190.958 103.186C191.146 103.102 191.312 102.976 191.443 102.817C191.574 102.657 191.666 102.47 191.711 102.269C191.756 102.068 191.754 101.859 191.704 101.659L188.685 86.5481L192.578 92.7781C192.733 93.0479 192.94 93.2845 193.187 93.4743C193.434 93.6642 193.715 93.8035 194.016 93.8845C194.317 93.9655 194.63 93.9865 194.939 93.9462C195.248 93.906 195.545 93.8054 195.815 93.6501C196.085 93.4948 196.321 93.2879 196.511 93.0412C196.701 92.7945 196.841 92.5128 196.921 92.2122C197.002 91.9116 197.023 91.598 196.983 91.2893C196.943 90.9807 196.842 90.6829 196.687 90.4131Z" fill="#F47D39"/>
<path d="M15.4494 136.256C16.6277 136.256 17.7638 135.817 18.6366 135.025C19.5094 134.233 20.0565 133.145 20.1714 131.973C20.2864 130.8 19.961 129.626 19.2586 128.68C18.5562 127.734 17.5269 127.083 16.3711 126.854C15.2152 126.624 14.0154 126.833 13.0051 127.44C11.9947 128.046 11.246 129.007 10.9047 130.135C10.5633 131.262 10.6537 132.477 11.1583 133.542C11.6628 134.607 12.5454 135.446 13.6344 135.896C14.2099 136.134 14.8266 136.256 15.4494 136.256Z" fill="#F47D39"/>
<path d="M30.5381 153.64L23.2675 140.845L23.2565 140.824L23.1784 140.673C23.1255 140.583 23.0667 140.496 23.0023 140.414C22.5124 139.69 21.8528 139.097 21.0809 138.687C20.3091 138.276 19.4485 138.061 18.5744 138.06H12.323C11.509 138.061 10.7061 138.249 9.97555 138.608C9.24497 138.967 8.60598 139.488 8.10736 140.131C7.93754 140.289 7.79222 140.472 7.67614 140.673L0.316463 153.64C0.00505686 154.185 -0.0776883 154.831 0.0863908 155.436C0.25047 156.042 0.647977 156.558 1.19177 156.871C1.73556 157.184 2.38127 157.268 2.98736 157.106C3.59345 156.944 4.11049 156.548 4.42511 156.005L8.31903 149.775L5.29934 164.886C5.22401 165.187 5.25756 165.506 5.39407 165.785C5.53058 166.064 5.76125 166.286 6.04547 166.412C6.23408 166.495 6.4395 166.534 6.64547 166.524H10.0136V175.676C10.0136 175.987 10.075 176.296 10.1942 176.584C10.3134 176.871 10.488 177.133 10.7083 177.353C10.9285 177.573 11.19 177.748 11.4777 177.867C11.7655 177.986 12.0739 178.048 12.3853 178.048C12.6968 178.048 13.0052 177.986 13.2929 177.867C13.5806 177.748 13.8421 177.573 14.0623 177.353C14.2825 177.133 14.4572 176.871 14.5764 176.584C14.6956 176.296 14.757 175.987 14.757 175.676V166.524H16.14V175.676C16.14 175.987 16.2014 176.296 16.3206 176.584C16.4398 176.871 16.6145 177.133 16.8347 177.353C17.0549 177.573 17.3164 177.748 17.6041 177.867C17.8919 177.986 18.2003 178.048 18.5117 178.048C18.8232 178.048 19.1315 177.986 19.4193 177.867C19.707 177.748 19.9685 177.573 20.1887 177.353C20.4089 177.133 20.5836 176.871 20.7028 176.584C20.822 176.296 20.8834 175.987 20.8834 175.676V166.524H24.2087C24.5194 166.539 24.8254 166.444 25.073 166.256C25.3206 166.068 25.4937 165.798 25.562 165.495C25.6072 165.294 25.6047 165.086 25.5547 164.886L22.5353 149.775L26.4292 156.005C26.5842 156.275 26.791 156.512 27.0378 156.702C27.2845 156.893 27.5663 157.032 27.8671 157.114C28.1679 157.195 28.4817 157.216 28.7906 157.176C29.0996 157.136 29.3976 157.035 29.6676 156.88C29.9376 156.724 30.1744 156.517 30.3643 156.27C30.5542 156.023 30.6936 155.741 30.7744 155.44C30.8552 155.139 30.876 154.825 30.8354 154.517C30.7949 154.208 30.6939 153.91 30.5381 153.64Z" fill="#F47D39"/>
<path d="M56.9865 136.256C58.1649 136.256 59.3009 135.817 60.1737 135.025C61.0465 134.233 61.5936 133.145 61.7086 131.973C61.8235 130.8 61.4982 129.626 60.7957 128.68C60.0933 127.734 59.064 127.083 57.9082 126.854C56.7523 126.624 55.5526 126.833 54.5422 127.44C53.5318 128.046 52.7831 129.007 52.4418 130.135C52.1004 131.262 52.1908 132.477 52.6954 133.542C53.1999 134.607 54.0825 135.446 55.1715 135.896C55.747 136.134 56.3637 136.256 56.9865 136.256Z" fill="#F47D39"/>
<path d="M72.0754 153.64L64.8048 140.845L64.7938 140.824L64.7157 140.673C64.6629 140.583 64.6041 140.496 64.5397 140.414C64.0498 139.69 63.3902 139.097 62.6183 138.687C61.8465 138.276 60.9859 138.061 60.1117 138.06H53.8604C53.0465 138.061 52.2436 138.249 51.513 138.608C50.7824 138.967 50.1434 139.488 49.6448 140.131C49.4749 140.289 49.3296 140.472 49.2134 140.673L41.8538 153.64C41.5423 154.185 41.4594 154.831 41.6234 155.436C41.7875 156.042 42.185 156.558 42.7289 156.871C43.2728 157.184 43.9186 157.269 44.5248 157.107C45.1309 156.944 45.648 156.548 45.9625 156.005L49.8563 149.775L46.8367 164.886C46.7614 165.187 46.795 165.506 46.9315 165.785C47.068 166.064 47.2987 166.286 47.5829 166.412C47.7716 166.495 47.977 166.534 48.1829 166.524H51.5511V175.676C51.5524 176.304 51.8029 176.906 52.2475 177.35C52.6921 177.794 53.2946 178.043 53.9227 178.043C54.5509 178.043 55.1534 177.794 55.598 177.35C56.0426 176.906 56.293 176.304 56.2943 175.676V166.524H57.6775V175.676C57.6788 176.304 57.9293 176.906 58.3739 177.35C58.8185 177.794 59.421 178.043 60.0491 178.043C60.6773 178.043 61.2798 177.794 61.7244 177.35C62.169 176.906 62.4194 176.304 62.4207 175.676V166.524H65.7461C65.952 166.534 66.1574 166.496 66.3459 166.412C66.5344 166.329 66.7007 166.202 66.8317 166.043C66.9624 165.884 67.054 165.696 67.0992 165.495C67.1445 165.294 67.142 165.086 67.0921 164.886L64.0727 149.775L67.9665 156.005C68.1214 156.275 68.3282 156.513 68.5749 156.703C68.8217 156.894 69.1036 157.034 69.4045 157.115C69.7054 157.197 70.0195 157.218 70.3286 157.178C70.6378 157.138 70.936 157.037 71.2062 156.882C71.4764 156.726 71.7133 156.519 71.9032 156.272C72.0932 156.024 72.2326 155.742 72.3133 155.441C72.3941 155.14 72.4146 154.826 72.3738 154.517C72.333 154.208 72.2316 153.91 72.0754 153.64Z" fill="#F47D39"/>
</g>
<defs>
<clipPath id="clip0_1466_2045">
<rect width="197.004" height="241.03" fill="white" transform="translate(0 -0.0720215)"/>
</clipPath>
</defs>
</svg>
