<svg width="458" height="129" viewBox="0 0 458 129" fill="none" xmlns="http://www.w3.org/2000/svg">
<g clip-path="url(#clip0_1445_2572)">
<path d="M111.452 80.7548C112.782 80.7552 114.064 80.2611 115.05 79.3685C116.035 78.476 116.653 77.2488 116.784 75.9257C116.915 74.6026 116.549 73.2781 115.758 72.2098C114.966 71.1415 113.806 70.4058 112.502 70.1457C111.198 69.8856 109.844 70.1198 108.703 70.8026C107.562 71.4855 106.716 72.5683 106.329 73.8404C105.943 75.1124 106.043 76.4829 106.61 77.6852C107.178 78.8876 108.172 79.8358 109.4 80.3456C110.051 80.6156 110.748 80.7547 111.452 80.7548Z" fill="#F47D39"/>
<path d="M128.516 100.497L120.294 85.9666L120.281 85.9422L120.193 85.7702C120.133 85.6681 120.067 85.57 119.994 85.4766C119.442 84.6554 118.696 83.9821 117.823 83.516C116.95 83.0498 115.976 82.805 114.986 82.8029H107.916C106.995 82.8052 106.086 83.0184 105.26 83.4261C104.433 83.8338 103.711 84.4252 103.149 85.155C102.957 85.3351 102.793 85.5423 102.661 85.7702L94.3379 100.497C94.1606 100.802 94.0452 101.139 93.9984 101.489C93.9515 101.838 93.9741 102.194 94.0648 102.535C94.1556 102.876 94.3127 103.196 94.5272 103.476C94.7417 103.756 95.0094 103.991 95.3149 104.168C95.6204 104.345 95.9577 104.459 96.3076 104.506C96.6575 104.552 97.013 104.528 97.3538 104.437C97.6947 104.345 98.0142 104.188 98.294 103.973C98.5737 103.758 98.8084 103.489 98.9844 103.184L103.388 96.1072L99.9732 113.269C99.916 113.495 99.9127 113.732 99.9635 113.96C100.014 114.188 100.118 114.401 100.266 114.582C100.414 114.763 100.602 114.907 100.816 115.002C101.029 115.097 101.262 115.141 101.496 115.13H105.305V125.524C105.305 126.235 105.587 126.917 106.09 127.42C106.593 127.923 107.276 128.206 107.987 128.206C108.698 128.206 109.38 127.923 109.883 127.42C110.386 126.917 110.669 126.235 110.669 125.524V115.13H112.233V125.524C112.233 126.235 112.516 126.917 113.019 127.42C113.522 127.923 114.204 128.206 114.915 128.206C115.627 128.206 116.309 127.923 116.812 127.42C117.315 126.917 117.598 126.235 117.598 125.524V115.13H121.358C121.591 115.141 121.824 115.097 122.037 115.002C122.25 114.907 122.438 114.764 122.586 114.583C122.734 114.402 122.838 114.189 122.889 113.96C122.94 113.732 122.937 113.495 122.88 113.269L119.466 96.1072L123.869 103.184C124.227 103.796 124.813 104.241 125.499 104.422C126.185 104.604 126.915 104.506 127.529 104.151C128.143 103.796 128.591 103.212 128.776 102.527C128.961 101.843 128.868 101.112 128.516 100.497Z" fill="#F47D39"/>
<path d="M158.409 81.0653C159.639 81.0671 160.831 80.6422 161.783 79.8631C162.735 79.0841 163.387 77.9991 163.628 76.793C163.87 75.587 163.685 74.3345 163.107 73.2492C162.528 72.1638 161.591 71.3128 160.455 70.841C159.319 70.3692 158.055 70.306 156.877 70.662C155.7 71.0181 154.683 71.7714 153.999 72.7936C153.315 73.8158 153.006 75.0435 153.126 76.2677C153.246 77.4918 153.786 78.6365 154.656 79.5066C155.148 80.0005 155.733 80.3924 156.377 80.6598C157.021 80.9273 157.711 81.0651 158.409 81.0653ZM173.783 100.587L167.16 86.2225L167.148 86.199L167.06 86.0286C167.001 85.9275 166.935 85.8304 166.863 85.7381C166.316 84.9255 165.578 84.2594 164.714 83.7982C163.85 83.3369 162.886 83.0946 161.907 83.0923H154.911C153.999 83.0945 153.1 83.3053 152.282 83.7087C151.464 84.1121 150.749 84.6974 150.193 85.4197C150.003 85.5977 149.84 85.8029 149.71 86.0286L142.988 100.587C142.812 100.889 142.697 101.223 142.651 101.569C142.604 101.915 142.626 102.267 142.716 102.605C142.806 102.943 142.961 103.26 143.173 103.537C143.386 103.815 143.651 104.048 143.953 104.223C144.256 104.398 144.59 104.511 144.936 104.557C145.283 104.602 145.635 104.579 145.972 104.488C146.31 104.398 146.626 104.241 146.903 104.028C147.18 103.815 147.412 103.549 147.586 103.246L152.327 92.5564V125.339C152.327 126.043 152.606 126.718 153.104 127.216C153.602 127.713 154.277 127.993 154.981 127.993C155.685 127.993 156.36 127.713 156.857 127.216C157.355 126.718 157.635 126.043 157.635 125.339V108.561H159.183V125.339C159.182 125.688 159.25 126.034 159.383 126.357C159.516 126.68 159.711 126.973 159.958 127.221C160.204 127.468 160.497 127.664 160.82 127.798C161.142 127.932 161.488 128.001 161.837 128.001C162.186 128.001 162.532 127.932 162.855 127.798C163.177 127.664 163.47 127.468 163.717 127.221C163.963 126.973 164.159 126.68 164.292 126.357C164.425 126.034 164.493 125.688 164.492 125.339V92.6505L169.184 103.246C169.536 103.856 170.117 104.301 170.797 104.483C171.478 104.665 172.203 104.569 172.813 104.216C173.423 103.864 173.867 103.283 174.049 102.603C174.231 101.922 174.135 101.197 173.783 100.587Z" fill="#569FD6"/>
<path d="M205.384 81.0653C206.614 81.0667 207.806 80.6416 208.757 79.8626C209.708 79.0837 210.36 77.9989 210.601 76.7933C210.842 75.5877 210.657 74.3358 210.079 73.251C209.5 72.1662 208.563 71.3155 207.428 70.8441C206.292 70.3726 205.028 70.3095 203.852 70.6654C202.675 71.0214 201.658 71.7744 200.974 72.7962C200.29 73.8179 199.982 75.0452 200.102 76.2688C200.221 77.4924 200.762 78.6367 201.63 79.5066C202.123 80.0008 202.708 80.3928 203.352 80.6603C203.996 80.9278 204.687 81.0654 205.384 81.0653ZM220.758 100.587L214.134 86.2225L214.122 86.199L214.035 86.0286C213.976 85.9275 213.91 85.8305 213.838 85.7381C213.291 84.9256 212.554 84.2595 211.69 83.7982C210.826 83.3369 209.862 83.0946 208.882 83.0924H201.886C200.974 83.0944 200.075 83.3052 199.257 83.7087C198.439 84.1121 197.725 84.6974 197.168 85.4197C196.978 85.5975 196.815 85.8027 196.685 86.0286L189.962 100.587C189.786 100.889 189.672 101.223 189.625 101.569C189.579 101.915 189.601 102.268 189.691 102.605C189.78 102.943 189.936 103.26 190.148 103.537C190.36 103.815 190.625 104.048 190.928 104.223C191.23 104.398 191.564 104.511 191.911 104.557C192.257 104.602 192.609 104.579 192.947 104.488C193.284 104.398 193.6 104.241 193.877 104.028C194.154 103.815 194.386 103.549 194.56 103.246L199.301 92.5564V125.339C199.301 126.043 199.581 126.718 200.079 127.216C200.577 127.714 201.252 127.994 201.956 127.994C202.66 127.994 203.335 127.714 203.833 127.216C204.331 126.718 204.61 126.043 204.61 125.339V108.561H206.158V125.339C206.158 126.043 206.438 126.718 206.936 127.216C207.434 127.714 208.109 127.994 208.813 127.994C209.517 127.994 210.192 127.714 210.69 127.216C211.188 126.718 211.467 126.043 211.467 125.339V92.6506L216.159 103.246C216.513 103.854 217.093 104.297 217.773 104.478C218.453 104.658 219.176 104.562 219.785 104.21C220.394 103.858 220.838 103.279 221.021 102.6C221.203 101.921 221.109 101.197 220.758 100.587Z" fill="#569FD6"/>
<path d="M252.365 81.0654C253.595 81.0668 254.787 80.6418 255.739 79.8626C256.69 79.0834 257.342 77.9983 257.584 76.7923C257.825 75.5862 257.64 74.3339 257.061 73.2486C256.483 72.1634 255.545 71.3124 254.41 70.8408C253.274 70.3692 252.009 70.306 250.832 70.6622C249.655 71.0183 248.638 71.7716 247.954 72.7938C247.27 73.816 246.961 75.0437 247.081 76.2678C247.201 77.4919 247.742 78.6365 248.611 79.5066C249.103 80.0007 249.688 80.3926 250.332 80.6601C250.977 80.9276 251.667 81.0653 252.365 81.0654ZM267.738 100.587L261.115 86.2225L261.103 86.199L261.015 86.0286C260.956 85.9275 260.89 85.8305 260.818 85.7381C260.271 84.9257 259.533 84.2597 258.67 83.7984C257.806 83.3372 256.842 83.0948 255.863 83.0924H248.866C247.954 83.0944 247.055 83.3052 246.237 83.7087C245.419 84.1121 244.704 84.6974 244.148 85.4198C243.958 85.5977 243.795 85.8029 243.665 86.0286L236.943 100.587C236.767 100.889 236.652 101.223 236.606 101.569C236.559 101.915 236.581 102.268 236.671 102.605C236.761 102.943 236.916 103.26 237.128 103.537C237.341 103.815 237.606 104.048 237.908 104.223C238.211 104.398 238.545 104.511 238.891 104.557C239.238 104.602 239.59 104.579 239.927 104.488C240.265 104.398 240.581 104.241 240.858 104.028C241.135 103.815 241.367 103.549 241.541 103.246L246.282 92.5564V125.339C246.282 125.688 246.35 126.033 246.484 126.355C246.617 126.677 246.813 126.969 247.059 127.216C247.306 127.462 247.598 127.658 247.92 127.791C248.242 127.924 248.587 127.993 248.936 127.993C249.284 127.993 249.629 127.924 249.951 127.791C250.273 127.658 250.566 127.462 250.812 127.216C251.059 126.969 251.254 126.677 251.388 126.355C251.521 126.033 251.59 125.688 251.59 125.339V108.561H253.138V125.339C253.137 125.688 253.205 126.034 253.338 126.357C253.471 126.68 253.666 126.974 253.913 127.221C254.159 127.468 254.452 127.664 254.775 127.798C255.097 127.932 255.443 128.001 255.792 128.001C256.141 128.001 256.487 127.932 256.81 127.798C257.132 127.664 257.425 127.468 257.672 127.221C257.918 126.974 258.114 126.68 258.247 126.357C258.38 126.034 258.448 125.688 258.447 125.339V92.6506L263.14 103.246C263.314 103.548 263.547 103.813 263.824 104.025C264.1 104.237 264.416 104.392 264.753 104.482C265.09 104.572 265.442 104.595 265.787 104.549C266.133 104.504 266.466 104.39 266.768 104.216C267.07 104.041 267.335 103.809 267.547 103.532C267.759 103.255 267.915 102.939 268.005 102.602C268.095 102.265 268.117 101.914 268.072 101.568C268.026 101.222 267.912 100.889 267.738 100.587Z" fill="#569FD6"/>
<path d="M299.343 81.0654C300.572 81.0667 301.764 80.6416 302.715 79.8627C303.666 79.0837 304.318 77.9989 304.559 76.7933C304.8 75.5877 304.616 74.3358 304.037 73.2509C303.459 72.1661 302.522 71.3155 301.386 70.844C300.251 70.3725 298.987 70.3094 297.81 70.6654C296.633 71.0213 295.616 71.7744 294.932 72.7961C294.249 73.8179 293.94 75.0451 294.06 76.2688C294.18 77.4924 294.72 78.6367 295.589 79.5066C296.081 80.0008 296.666 80.3928 297.31 80.6603C297.955 80.9278 298.645 81.0654 299.343 81.0654ZM314.716 100.587L308.093 86.2225L308.081 86.199L307.994 86.0286C307.935 85.9275 307.869 85.8305 307.797 85.7381C307.25 84.9256 306.512 84.2595 305.648 83.7982C304.784 83.3369 303.82 83.0946 302.841 83.0924H295.845C294.933 83.0945 294.034 83.3053 293.216 83.7088C292.398 84.1122 291.683 84.6974 291.127 85.4198C290.936 85.5975 290.773 85.8027 290.644 86.0286L283.921 100.587C283.745 100.889 283.631 101.223 283.584 101.569C283.538 101.915 283.56 102.268 283.65 102.605C283.74 102.943 283.895 103.26 284.107 103.537C284.32 103.814 284.585 104.047 284.887 104.222C285.19 104.397 285.524 104.511 285.87 104.556C286.217 104.602 286.569 104.579 286.906 104.488C287.243 104.397 287.56 104.241 287.837 104.028C288.113 103.815 288.346 103.549 288.52 103.246L293.26 92.5564V125.339C293.26 126.043 293.539 126.718 294.037 127.216C294.535 127.714 295.21 127.994 295.914 127.994C296.618 127.994 297.293 127.714 297.791 127.216C298.289 126.718 298.569 126.043 298.569 125.339V108.561H300.117V125.339C300.117 126.043 300.396 126.718 300.894 127.216C301.392 127.713 302.067 127.993 302.771 127.993C303.475 127.993 304.15 127.713 304.647 127.216C305.145 126.718 305.425 126.043 305.425 125.339V92.6506L310.118 103.246C310.292 103.548 310.525 103.813 310.802 104.025C311.078 104.237 311.394 104.392 311.731 104.482C312.068 104.572 312.42 104.595 312.765 104.549C313.111 104.504 313.444 104.39 313.746 104.216C314.048 104.041 314.313 103.809 314.525 103.532C314.737 103.255 314.892 102.939 314.982 102.602C315.073 102.265 315.095 101.914 315.05 101.568C315.004 101.222 314.89 100.889 314.716 100.587Z" fill="#569FD6"/>
<path d="M346.322 81.0653C347.552 81.0668 348.744 80.6418 349.696 79.8626C350.647 79.0834 351.299 77.9983 351.541 76.7922C351.782 75.5862 351.597 74.3338 351.019 73.2486C350.44 72.1633 349.503 71.3123 348.367 70.8407C347.231 70.369 345.966 70.3059 344.789 70.662C343.612 71.0182 342.595 71.7715 341.911 72.7937C341.227 73.8159 340.918 75.0437 341.038 76.2677C341.158 77.4918 341.699 78.6365 342.568 79.5066C343.06 80.0006 343.645 80.3926 344.289 80.6601C344.934 80.9276 345.624 81.0653 346.322 81.0653ZM361.695 100.587L355.072 86.2225L355.06 86.199L354.972 86.0286C354.913 85.9275 354.847 85.8304 354.775 85.7381C354.228 84.9257 353.491 84.2597 352.627 83.7984C351.763 83.3372 350.799 83.0947 349.82 83.0923H342.823C341.911 83.0944 341.012 83.3053 340.194 83.7087C339.376 84.1121 338.661 84.6974 338.105 85.4197C337.915 85.5977 337.752 85.8029 337.622 86.0286L330.9 100.587C330.724 100.889 330.609 101.223 330.563 101.569C330.516 101.915 330.538 102.267 330.628 102.605C330.718 102.943 330.873 103.26 331.085 103.537C331.298 103.815 331.563 104.048 331.865 104.223C332.168 104.398 332.502 104.511 332.848 104.557C333.195 104.602 333.547 104.579 333.884 104.488C334.222 104.398 334.538 104.241 334.815 104.028C335.092 103.815 335.324 103.549 335.498 103.246L340.239 92.5564V125.339C340.239 126.043 340.518 126.718 341.016 127.216C341.514 127.713 342.189 127.993 342.893 127.993C343.597 127.993 344.272 127.713 344.769 127.216C345.267 126.718 345.547 126.043 345.547 125.339V108.561H347.095V125.339C347.094 125.688 347.162 126.034 347.295 126.357C347.428 126.68 347.623 126.973 347.87 127.221C348.116 127.468 348.409 127.664 348.732 127.798C349.054 127.932 349.4 128.001 349.749 128.001C350.099 128.001 350.444 127.932 350.767 127.798C351.089 127.664 351.382 127.468 351.629 127.221C351.876 126.973 352.071 126.68 352.204 126.357C352.337 126.034 352.405 125.688 352.404 125.339V92.6505L357.097 103.246C357.359 103.702 357.75 104.069 358.221 104.302C358.692 104.535 359.221 104.623 359.742 104.555C360.263 104.486 360.752 104.265 361.147 103.918C361.542 103.571 361.825 103.115 361.96 102.607C362.142 101.925 362.047 101.199 361.695 100.587Z" fill="#569FD6"/>
<path d="M393.3 81.0653C394.53 81.0671 395.722 80.6422 396.674 79.8631C397.626 79.0841 398.278 77.9991 398.519 76.793C398.761 75.587 398.576 74.3345 397.998 73.2492C397.419 72.1638 396.482 71.3128 395.346 70.841C394.21 70.3692 392.946 70.306 391.768 70.662C390.591 71.0181 389.574 71.7714 388.89 72.7936C388.206 73.8158 387.897 75.0435 388.017 76.2677C388.137 77.4918 388.677 78.6365 389.547 79.5066C390.039 80.0006 390.624 80.3926 391.268 80.6601C391.912 80.9275 392.602 81.0653 393.3 81.0653ZM408.674 100.587L402.05 86.2225L402.038 86.199L401.951 86.0286C401.892 85.9275 401.826 85.8304 401.754 85.7381C401.207 84.9255 400.469 84.2594 399.605 83.7982C398.741 83.3369 397.777 83.0946 396.798 83.0923H389.802C388.89 83.0945 387.991 83.3053 387.173 83.7087C386.355 84.1122 385.64 84.6974 385.084 85.4197C384.893 85.5975 384.73 85.8027 384.601 86.0286L377.878 100.587C377.702 100.889 377.588 101.223 377.541 101.569C377.495 101.915 377.517 102.268 377.607 102.605C377.697 102.943 377.852 103.26 378.064 103.537C378.277 103.814 378.542 104.047 378.844 104.222C379.147 104.397 379.481 104.511 379.827 104.556C380.174 104.602 380.526 104.579 380.863 104.488C381.2 104.397 381.517 104.241 381.794 104.028C382.07 103.815 382.303 103.549 382.477 103.246L387.217 92.5564V125.339C387.216 125.688 387.284 126.034 387.417 126.357C387.55 126.68 387.745 126.973 387.992 127.221C388.238 127.468 388.531 127.664 388.854 127.798C389.176 127.932 389.522 128.001 389.871 128.001C390.22 128.001 390.566 127.932 390.889 127.798C391.211 127.664 391.504 127.468 391.751 127.221C391.997 126.973 392.193 126.68 392.326 126.357C392.459 126.034 392.527 125.688 392.526 125.339V108.561H394.074V125.339C394.073 125.688 394.141 126.034 394.274 126.357C394.407 126.68 394.602 126.973 394.849 127.221C395.095 127.468 395.388 127.664 395.711 127.798C396.033 127.932 396.379 128.001 396.728 128.001C397.077 128.001 397.423 127.932 397.746 127.798C398.068 127.664 398.361 127.468 398.608 127.221C398.854 126.973 399.05 126.68 399.183 126.357C399.316 126.034 399.384 125.688 399.383 125.339V92.6505L404.075 103.246C404.428 103.854 405.009 104.297 405.688 104.478C406.368 104.658 407.091 104.562 407.7 104.21C408.309 103.858 408.754 103.279 408.936 102.6C409.118 101.921 409.024 101.197 408.674 100.587Z" fill="#569FD6"/>
<path d="M440.278 81.0653C441.508 81.0671 442.7 80.6422 443.652 79.8631C444.604 79.0841 445.256 77.9991 445.497 76.793C445.739 75.5869 445.554 74.3345 444.976 73.2491C444.397 72.1638 443.46 71.3127 442.324 70.8409C441.188 70.3691 439.924 70.3059 438.747 70.6619C437.569 71.018 436.552 71.7713 435.868 72.7935C435.184 73.8157 434.875 75.0435 434.995 76.2676C435.115 77.4918 435.656 78.6365 436.525 79.5066C437.017 80.0005 437.602 80.3923 438.246 80.6598C438.89 80.9273 439.58 81.0651 440.278 81.0653ZM455.652 100.587L449.028 86.2225L449.017 86.199L448.929 86.0286C448.87 85.9275 448.804 85.8304 448.732 85.7381C448.185 84.9256 447.447 84.2595 446.583 83.7982C445.719 83.3369 444.755 83.0946 443.776 83.0923H436.78C435.868 83.0944 434.969 83.3052 434.151 83.7086C433.333 84.1121 432.618 84.6974 432.062 85.4197C431.872 85.5977 431.709 85.8029 431.579 86.0286L424.856 100.587C424.593 101.043 424.471 101.567 424.506 102.092C424.54 102.617 424.73 103.121 425.05 103.538C425.315 103.885 425.662 104.161 426.06 104.342C426.458 104.522 426.895 104.602 427.331 104.573C427.767 104.544 428.189 104.407 428.559 104.176C428.93 103.945 429.237 103.625 429.455 103.246L434.196 92.5564V125.339C434.196 126.043 434.475 126.718 434.973 127.216C435.471 127.713 436.146 127.993 436.85 127.993C437.554 127.993 438.229 127.713 438.726 127.216C439.224 126.718 439.504 126.043 439.504 125.339V108.561H441.052V125.339C441.051 125.688 441.119 126.034 441.252 126.357C441.385 126.68 441.58 126.973 441.827 127.221C442.073 127.468 442.366 127.664 442.689 127.798C443.011 127.932 443.357 128.001 443.706 128.001C444.056 128.001 444.401 127.932 444.724 127.798C445.046 127.664 445.339 127.468 445.586 127.221C445.832 126.973 446.028 126.68 446.161 126.357C446.294 126.034 446.362 125.688 446.361 125.339V92.6505L451.053 103.246C451.405 103.856 451.986 104.301 452.666 104.483C453.347 104.665 454.072 104.569 454.682 104.216C455.292 103.864 455.737 103.283 455.918 102.603C456.1 101.922 456.004 101.197 455.652 100.587Z" fill="#569FD6"/>
<path d="M252.376 10.7548C253.706 10.7552 254.988 10.2611 255.974 9.36853C256.959 8.47598 257.577 7.24879 257.708 5.92566C257.839 4.60253 257.473 3.27802 256.682 2.20972C255.89 1.14141 254.729 0.405676 253.426 0.1456C252.122 -0.114476 250.768 0.119703 249.627 0.802582C248.486 1.48546 247.64 2.56821 247.253 3.8403C246.866 5.11239 246.967 6.48288 247.534 7.68521C248.102 8.88755 249.096 9.8358 250.324 10.3456C250.975 10.6155 251.672 10.7545 252.376 10.7548Z" fill="#F47D39"/>
<path d="M269.442 30.4965L261.22 15.9666L261.207 15.9422L261.119 15.7702C261.059 15.6683 260.993 15.5702 260.92 15.4766C260.368 14.6556 259.622 13.9825 258.749 13.5164C257.876 13.0503 256.902 12.8053 255.912 12.8029H248.842C247.921 12.8052 247.012 13.0184 246.186 13.4261C245.36 13.8338 244.638 14.4252 244.075 15.155C243.883 15.3348 243.719 15.5421 243.587 15.7702L235.264 30.4965C235.086 30.8017 234.97 31.139 234.923 31.4891C234.875 31.8392 234.897 32.1953 234.988 32.5368C235.078 32.8784 235.236 33.1987 235.45 33.4794C235.665 33.7601 235.933 33.9956 236.238 34.1725C236.544 34.3494 236.882 34.4641 237.232 34.5102C237.583 34.5562 237.939 34.5326 238.28 34.4407C238.621 34.3488 238.941 34.1904 239.221 33.9747C239.5 33.759 239.735 33.4901 239.91 33.1835L244.314 26.1072L240.899 43.2685C240.843 43.4955 240.841 43.7324 240.891 43.9605C240.968 44.3045 241.163 44.6105 241.443 44.8244C241.723 45.0383 242.07 45.1463 242.421 45.1295H246.231V55.5235C246.231 56.2348 246.514 56.917 247.017 57.42C247.52 57.923 248.202 58.2055 248.913 58.2055C249.625 58.2055 250.307 57.923 250.81 57.42C251.313 56.917 251.595 56.2348 251.595 55.5235V45.1295H253.159V55.5235C253.159 55.8757 253.229 56.2245 253.364 56.5499C253.498 56.8753 253.696 57.1709 253.945 57.42C254.194 57.669 254.49 57.8666 254.815 58.0014C255.14 58.1362 255.489 58.2055 255.841 58.2055C256.194 58.2055 256.542 58.1362 256.868 58.0014C257.193 57.8666 257.489 57.669 257.738 57.42C257.987 57.1709 258.185 56.8753 258.319 56.5499C258.454 56.2245 258.523 55.8757 258.523 55.5235V45.1295H262.284C262.518 45.1399 262.75 45.0958 262.963 45.0005C263.176 44.9052 263.364 44.7615 263.512 44.5808C263.66 44.4001 263.764 44.1873 263.815 43.9595C263.866 43.7317 263.863 43.4951 263.806 43.2685L260.392 26.1072L264.795 33.1835C265.154 33.7957 265.74 34.241 266.426 34.4223C267.111 34.6036 267.841 34.506 268.455 34.151C269.069 33.7959 269.518 33.2122 269.703 32.5274C269.888 31.8427 269.794 31.1125 269.442 30.4965Z" fill="#F47D39"/>
<path d="M346.328 10.7548C347.658 10.755 348.94 10.2606 349.925 9.36795C350.911 8.47528 351.529 7.24807 351.659 5.92499C351.79 4.6019 351.424 3.27751 350.632 2.20935C349.841 1.14119 348.68 0.40563 347.376 0.145689C346.072 -0.114252 344.718 0.119992 343.578 0.802916C342.437 1.48584 341.591 2.56862 341.204 3.84067C340.818 5.11271 340.918 6.4831 341.485 7.68536C342.053 8.88762 343.047 9.83582 344.275 10.3455C344.926 10.6156 345.624 10.7547 346.328 10.7548Z" fill="#F47D39"/>
<path d="M363.391 30.4965L355.169 15.9666L355.156 15.9422L355.068 15.7702C355.009 15.6681 354.942 15.57 354.869 15.4766C354.317 14.6554 353.572 13.9821 352.699 13.516C351.825 13.0498 350.851 12.805 349.861 12.8029H342.792C341.871 12.8051 340.962 13.0181 340.136 13.4258C339.309 13.8335 338.587 14.4251 338.024 15.155C337.833 15.3351 337.668 15.5423 337.536 15.7702L329.213 30.4965C329.035 30.8018 328.918 31.1393 328.87 31.4897C328.823 31.8402 328.844 32.1966 328.935 32.5386C329.025 32.8805 329.182 33.2012 329.397 33.4822C329.612 33.7633 329.88 33.9991 330.186 34.1761C330.492 34.3532 330.831 34.468 331.181 34.5139C331.532 34.5598 331.888 34.536 332.23 34.4437C332.571 34.3515 332.891 34.1926 333.171 33.9764C333.451 33.7601 333.685 33.4907 333.86 33.1835L338.263 26.1072L334.848 43.2685C334.792 43.4955 334.79 43.7324 334.84 43.9605C334.917 44.3047 335.112 44.6108 335.392 44.8247C335.673 45.0386 336.019 45.1466 336.371 45.1295H340.18V55.5235C340.18 55.8757 340.25 56.2245 340.385 56.5499C340.519 56.8753 340.717 57.1709 340.966 57.42C341.215 57.669 341.511 57.8666 341.836 58.0014C342.162 58.1362 342.51 58.2055 342.862 58.2055C343.215 58.2055 343.563 58.1362 343.889 58.0014C344.214 57.8666 344.51 57.669 344.759 57.42C345.008 57.1709 345.206 56.8753 345.34 56.5499C345.475 56.2245 345.544 55.8757 345.544 55.5235V45.1295H347.108V55.5235C347.108 56.2348 347.391 56.917 347.894 57.42C348.397 57.923 349.079 58.2055 349.79 58.2055C350.502 58.2055 351.184 57.923 351.687 57.42C352.19 56.917 352.472 56.2348 352.472 55.5235V45.1295H356.233C356.467 45.1404 356.699 45.0965 356.913 45.0013C357.126 44.9062 357.314 44.7624 357.462 44.5816C357.61 44.4008 357.714 44.1878 357.765 43.9598C357.816 43.7318 357.812 43.4951 357.755 43.2685L354.341 26.1072L358.744 33.1835C359.103 33.7957 359.689 34.241 360.375 34.4223C361.061 34.6036 361.79 34.506 362.404 34.151C363.018 33.7959 363.467 33.2122 363.652 32.5274C363.837 31.8427 363.743 31.1125 363.391 30.4965Z" fill="#F47D39"/>
<path d="M393.303 10.7548C394.633 10.755 395.915 10.2606 396.9 9.36795C397.885 8.47528 398.503 7.24807 398.634 5.92499C398.765 4.6019 398.398 3.27751 397.607 2.20935C396.815 1.14119 395.655 0.40563 394.351 0.145689C393.047 -0.114252 391.693 0.119992 390.552 0.802916C389.412 1.48584 388.566 2.56862 388.179 3.84067C387.792 5.11271 387.892 6.4831 388.46 7.68536C389.028 8.88762 390.022 9.83582 391.25 10.3455C391.901 10.6157 392.598 10.7548 393.303 10.7548Z" fill="#F47D39"/>
<path d="M410.367 30.4965L402.144 15.9666L402.132 15.9422L402.044 15.7702C401.984 15.668 401.917 15.5699 401.844 15.4766C401.292 14.6555 400.546 13.9824 399.673 13.5162C398.8 13.0501 397.826 12.8052 396.837 12.8029H389.767C388.845 12.8052 387.937 13.0184 387.111 13.4261C386.284 13.8338 385.562 14.4252 385 15.155C384.808 15.3348 384.643 15.5421 384.512 15.7702L376.189 30.4965C376.011 30.8016 375.895 31.1388 375.848 31.4888C375.801 31.8387 375.823 32.1945 375.914 32.5357C376.005 32.877 376.162 33.197 376.376 33.4775C376.591 33.7579 376.859 33.9933 377.164 34.17C377.47 34.3468 377.807 34.4615 378.158 34.5076C378.508 34.5537 378.863 34.5302 379.204 34.4386C379.545 34.347 379.865 34.1889 380.145 33.9736C380.424 33.7582 380.659 33.4897 380.835 33.1835L385.239 26.1072L381.824 43.2685C381.767 43.4951 381.763 43.732 381.814 43.9601C381.865 44.1882 381.969 44.4012 382.116 44.5821C382.264 44.763 382.453 44.9067 382.666 45.0018C382.88 45.0968 383.112 45.1406 383.346 45.1295H387.155V55.5235C387.154 55.8764 387.223 56.226 387.357 56.5523C387.491 56.8786 387.689 57.1752 387.938 57.4251C388.187 57.675 388.483 57.8732 388.809 58.0085C389.135 58.1437 389.484 58.2134 389.837 58.2134C390.19 58.2134 390.54 58.1437 390.866 58.0085C391.192 57.8732 391.488 57.675 391.737 57.4251C391.986 57.1752 392.183 56.8786 392.318 56.5523C392.452 56.226 392.521 55.8764 392.52 55.5235V45.1295H394.084V55.5235C394.084 55.8757 394.153 56.2245 394.288 56.5499C394.423 56.8753 394.62 57.1709 394.869 57.42C395.118 57.669 395.414 57.8666 395.739 58.0014C396.065 58.1362 396.414 58.2055 396.766 58.2055C397.118 58.2055 397.467 58.1362 397.792 58.0014C398.118 57.8666 398.413 57.669 398.662 57.42C398.911 57.1709 399.109 56.8753 399.244 56.5499C399.378 56.2245 399.448 55.8757 399.448 55.5235V45.1295H403.209C403.442 45.1399 403.675 45.0958 403.888 45.0005C404.101 44.9052 404.289 44.7615 404.437 44.5808C404.584 44.4001 404.688 44.1873 404.739 43.9595C404.79 43.7317 404.787 43.4951 404.731 43.2685L401.316 26.1072L405.72 33.1835C405.985 33.6431 406.38 34.0137 406.856 34.2485C407.332 34.4833 407.867 34.5717 408.393 34.5025C408.919 34.4334 409.412 34.2098 409.811 33.86C410.21 33.5102 410.496 33.05 410.634 32.5375C410.818 31.8487 410.722 31.1147 410.367 30.4965Z" fill="#F47D39"/>
<path d="M440.278 10.7548C441.607 10.755 442.889 10.2606 443.874 9.36795C444.86 8.47528 445.478 7.24807 445.608 5.92499C445.739 4.6019 445.373 3.27751 444.581 2.20935C443.79 1.14119 442.629 0.40563 441.325 0.145689C440.022 -0.114252 438.668 0.119992 437.527 0.802916C436.386 1.48584 435.54 2.56862 435.153 3.84067C434.767 5.11271 434.867 6.4831 435.435 7.68536C436.002 8.88762 436.997 9.83582 438.225 10.3455C438.875 10.6157 439.573 10.7548 440.278 10.7548Z" fill="#F47D39"/>
<path d="M457.341 30.4965L449.119 15.9666L449.107 15.9422L449.018 15.7702C448.958 15.6681 448.891 15.57 448.819 15.4766C448.266 14.6554 447.521 13.9821 446.648 13.516C445.775 13.0498 444.8 12.805 443.811 12.8029H436.742C435.82 12.8051 434.911 13.0182 434.085 13.4259C433.258 13.8336 432.536 14.4251 431.974 15.155C431.782 15.3348 431.618 15.5422 431.487 15.7702L423.163 30.4966C422.984 30.8018 422.867 31.1393 422.82 31.4897C422.772 31.8402 422.794 32.1966 422.884 32.5386C422.974 32.8805 423.132 33.2012 423.346 33.4823C423.561 33.7633 423.829 33.9991 424.135 34.1761C424.442 34.3532 424.78 34.468 425.13 34.5139C425.481 34.5598 425.837 34.536 426.179 34.4437C426.52 34.3515 426.84 34.1927 427.12 33.9764C427.4 33.7601 427.634 33.4907 427.81 33.1835L432.213 26.1072L428.799 43.2685C428.741 43.4951 428.738 43.732 428.789 43.9602C428.839 44.1884 428.943 44.4015 429.091 44.5825C429.239 44.7634 429.427 44.9071 429.641 45.0021C429.854 45.0971 430.087 45.1408 430.321 45.1295H434.13V55.5235C434.13 56.2348 434.412 56.917 434.915 57.42C435.418 57.923 436.1 58.2055 436.812 58.2055C437.523 58.2055 438.205 57.923 438.708 57.42C439.211 56.917 439.494 56.2348 439.494 55.5235V45.1295H441.059V55.5235C441.059 56.2348 441.341 56.917 441.844 57.42C442.347 57.923 443.029 58.2055 443.741 58.2055C444.452 58.2055 445.134 57.923 445.637 57.42C446.14 56.917 446.423 56.2348 446.423 55.5235V45.1295H450.183C450.535 45.1459 450.881 45.0376 451.161 44.8238C451.441 44.61 451.637 44.3043 451.714 43.9605C451.765 43.7324 451.762 43.4955 451.706 43.2685L448.291 26.1072L452.695 33.1835C452.87 33.4894 453.104 33.7576 453.383 33.9727C453.662 34.1879 453.981 34.3459 454.321 34.4375C454.662 34.5291 455.017 34.5526 455.366 34.5066C455.716 34.4606 456.053 34.3461 456.358 34.1695C456.663 33.9924 456.93 33.7573 457.145 33.4775C457.468 33.0554 457.659 32.5471 457.694 32.0167C457.729 31.4863 457.606 30.9573 457.341 30.4965Z" fill="#F47D39"/>
<path d="M64.4524 10.7548C65.782 10.7552 67.0642 10.2611 68.0497 9.36853C69.0351 8.47599 69.6534 7.24882 69.7843 5.92569C69.9151 4.60257 69.5492 3.27808 68.7577 2.20978C67.9662 1.14148 66.8056 0.405769 65.5017 0.145695C64.1978 -0.114379 62.8438 0.119774 61.703 0.802647C60.5621 1.48552 59.7161 2.56829 59.3293 3.84037C58.9425 5.11245 59.0427 6.48292 59.6103 7.68525C60.1779 8.88757 61.1724 9.83581 62.4004 10.3456C63.0508 10.6156 63.7482 10.7547 64.4524 10.7548Z" fill="#F47D39"/>
<path d="M81.5159 30.4965L73.2939 15.9666L73.2809 15.9422L73.1929 15.7702C73.1332 15.6681 73.0667 15.57 72.9939 15.4766C72.4415 14.6554 71.6961 13.9821 70.8229 13.516C69.9498 13.0498 68.9757 12.805 67.9859 12.8029H60.9159C59.9945 12.8052 59.0859 13.0184 58.2596 13.4261C57.4333 13.8338 56.7113 14.4252 56.1489 15.155C55.957 15.3351 55.7925 15.5423 55.6609 15.7702L47.3379 30.4965C47.1606 30.8017 47.0452 31.1388 46.9984 31.4886C46.9515 31.8383 46.9741 32.1939 47.0648 32.5349C47.1556 32.876 47.3127 33.1958 47.5272 33.476C47.7417 33.7563 48.0094 33.9915 48.3149 34.1681C48.6204 34.3448 48.9577 34.4595 49.3076 34.5056C49.6575 34.5517 50.013 34.5284 50.3538 34.4369C50.6947 34.3455 51.0142 34.1877 51.294 33.9726C51.5737 33.7576 51.8084 33.4894 51.9844 33.1835L56.3879 26.1072L52.9732 43.2685C52.916 43.4951 52.9127 43.732 52.9635 43.9601C53.0143 44.1883 53.1179 44.4013 53.2659 44.5822C53.4138 44.7632 53.6021 44.9069 53.8157 45.002C54.0292 45.097 54.262 45.1407 54.4955 45.1295H58.3049V55.5235C58.3049 56.2348 58.5875 56.917 59.0904 57.42C59.5934 57.923 60.2756 58.2055 60.9869 58.2055C61.6982 58.2055 62.3804 57.923 62.8834 57.42C63.3863 56.917 63.6689 56.2348 63.6689 55.5235V45.1295H65.2329V55.5235C65.2329 56.235 65.5155 56.9173 66.0186 57.4204C66.5217 57.9234 67.204 58.206 67.9154 58.206C68.6269 58.206 69.3092 57.9234 69.8122 57.4204C70.3153 56.9173 70.5979 56.235 70.5979 55.5235V45.1295H74.3579C74.5911 45.141 74.8238 45.0975 75.0371 45.0024C75.2504 44.9074 75.4384 44.7636 75.5859 44.5825C75.7341 44.4017 75.8379 44.1886 75.8889 43.9605C75.94 43.7323 75.9369 43.4953 75.8799 43.2685L72.4659 26.1072L76.8689 33.1835C77.2273 33.7957 77.8134 34.241 78.4992 34.4223C79.1849 34.6036 79.9146 34.506 80.5286 34.151C81.1427 33.7959 81.5912 33.2122 81.7762 32.5274C81.9612 31.8427 81.8676 31.1125 81.5159 30.4965Z" fill="#F47D39"/>
<path d="M17.4739 10.7548C18.8035 10.7552 20.0857 10.2611 21.0712 9.36853C22.0566 8.47599 22.6749 7.24882 22.8058 5.92569C22.9366 4.60257 22.5707 3.27808 21.7792 2.20978C20.9876 1.14148 19.8271 0.405769 18.5232 0.145695C17.2193 -0.114379 15.8653 0.119774 14.7245 0.802647C13.5836 1.48552 12.7376 2.56829 12.3508 3.84037C11.964 5.11245 12.0642 6.48292 12.6318 7.68525C13.1994 8.88757 14.1939 9.83581 15.4219 10.3456C16.0723 10.6156 16.7696 10.7547 17.4739 10.7548Z" fill="#F47D39"/>
<path d="M34.5376 30.4965L26.3156 15.9666L26.3026 15.9422L26.2146 15.7702C26.1549 15.6681 26.0884 15.57 26.0156 15.4766C25.4632 14.6554 24.7178 13.9821 23.8447 13.516C22.9715 13.0498 21.9974 12.805 21.0076 12.8029H13.9376C13.0162 12.8052 12.1076 13.0184 11.2813 13.4261C10.455 13.8338 9.73304 14.4252 9.17063 15.155C8.97867 15.3351 8.81425 15.5423 8.68263 15.7702L0.359631 30.4965C0.00362045 31.1141 -0.0928 31.8478 0.091533 32.5364C0.275866 33.225 0.725891 33.8124 1.34283 34.1695C1.64777 34.346 1.98455 34.4605 2.33386 34.5065C2.68316 34.5525 3.03811 34.5291 3.37833 34.4375C4.06565 34.2517 4.65112 33.8007 5.00613 33.1835L9.40963 26.1072L5.99493 43.2685C5.93773 43.4951 5.9344 43.732 5.98523 43.9601C6.03605 44.1883 6.1396 44.4013 6.28758 44.5822C6.43557 44.7632 6.62387 44.9069 6.83741 45.002C7.05094 45.097 7.28377 45.1407 7.51723 45.1295H11.3266V55.5235C11.3266 56.2348 11.6092 56.917 12.1122 57.42C12.6151 57.923 13.2973 58.2055 14.0086 58.2055C14.7199 58.2055 15.4021 57.923 15.9051 57.42C16.4081 56.917 16.6906 56.2348 16.6906 55.5235V45.1295H18.2546V55.5235C18.2546 56.235 18.5373 56.9173 19.0403 57.4204C19.5434 57.9234 20.2257 58.206 20.9371 58.206C21.6486 58.206 22.3309 57.9234 22.8339 57.4204C23.337 56.9173 23.6196 56.235 23.6196 55.5235V45.1295H27.3796C27.6129 45.141 27.8455 45.0975 28.0588 45.0024C28.2722 44.9074 28.4601 44.7636 28.6076 44.5825C28.7558 44.4017 28.8596 44.1886 28.9106 43.9605C28.9617 43.7323 28.9586 43.4953 28.9016 43.2685L25.4876 26.1072L29.8906 33.1835C30.249 33.7957 30.8351 34.241 31.5209 34.4223C32.2067 34.6036 32.9363 34.506 33.5504 34.151C34.1644 33.7959 34.613 33.2122 34.798 32.5274C34.983 31.8427 34.8894 31.1125 34.5376 30.4965Z" fill="#F47D39"/>
<path d="M64.4525 81.1767C65.7821 81.1771 67.0643 80.683 68.0498 79.7904C69.0353 78.8979 69.6536 77.6707 69.7845 76.3475C69.9154 75.0244 69.5494 73.6999 68.7579 72.6315C67.9664 71.5632 66.8058 70.8275 65.5019 70.5674C64.1979 70.3073 62.8439 70.5415 61.703 71.2243C60.5622 71.9072 59.7161 72.99 59.3293 74.2621C58.9425 75.5342 59.0427 76.9047 59.6103 78.1071C60.178 79.3094 61.1725 80.2577 62.4005 80.7674C63.0509 81.0375 63.7482 81.1766 64.4525 81.1767Z" fill="#F47D39"/>
<path d="M81.5159 100.918L73.2939 86.3885L73.2809 86.3641L73.1929 86.1921C73.1332 86.09 73.0667 85.9919 72.9939 85.8985C72.4415 85.0773 71.6961 84.404 70.8229 83.9379C69.9498 83.4717 68.9757 83.2269 67.9859 83.2248H60.9159C59.9945 83.2271 59.0859 83.4403 58.2596 83.848C57.4333 84.2557 56.7113 84.8471 56.1489 85.5769C55.957 85.757 55.7925 85.9642 55.6609 86.1921L47.3379 100.918C47.1606 101.224 47.0452 101.561 46.9984 101.91C46.9515 102.26 46.9741 102.616 47.0648 102.957C47.1556 103.298 47.3127 103.618 47.5272 103.898C47.7417 104.178 48.0094 104.413 48.3149 104.59C48.6204 104.767 48.9577 104.881 49.3076 104.927C49.6575 104.974 50.013 104.95 50.3538 104.859C50.6947 104.767 51.0142 104.61 51.294 104.395C51.5737 104.179 51.8084 103.911 51.9844 103.605L56.3879 96.5291L52.9732 113.69C52.916 113.917 52.9127 114.154 52.9635 114.382C53.0143 114.61 53.1179 114.823 53.2659 115.004C53.4138 115.185 53.6021 115.329 53.8157 115.424C54.0292 115.519 54.262 115.563 54.4955 115.551H58.3049V125.945C58.3049 126.657 58.5875 127.339 59.0904 127.842C59.5934 128.345 60.2756 128.627 60.9869 128.627C61.6982 128.627 62.3804 128.345 62.8834 127.842C63.3863 127.339 63.6689 126.657 63.6689 125.945V115.551H65.2329V125.945C65.2329 126.657 65.5155 127.339 66.0186 127.842C66.5217 128.345 67.204 128.628 67.9154 128.628C68.6269 128.628 69.3092 128.345 69.8122 127.842C70.3153 127.339 70.5979 126.657 70.5979 125.945V115.551H74.3579C74.5911 115.563 74.8238 115.519 75.0371 115.424C75.2504 115.329 75.4384 115.185 75.5859 115.004C75.7341 114.824 75.8379 114.611 75.8889 114.382C75.94 114.154 75.9369 113.917 75.8799 113.69L72.4659 96.5291L76.8689 103.605C77.2273 104.218 77.8134 104.663 78.4992 104.844C79.1849 105.025 79.9146 104.928 80.5286 104.573C81.1427 104.218 81.5912 103.634 81.7762 102.949C81.9612 102.265 81.8676 101.534 81.5159 100.918Z" fill="#F47D39"/>
<path d="M17.474 81.1767C18.8036 81.1771 20.0858 80.683 21.0713 79.7904C22.0568 78.8979 22.6751 77.6707 22.806 76.3475C22.9368 75.0244 22.5709 73.6999 21.7794 72.6315C20.9878 71.5632 19.8273 70.8275 18.5233 70.5674C17.2194 70.3073 15.8654 70.5415 14.7245 71.2243C13.5837 71.9072 12.7376 72.99 12.3508 74.2621C11.964 75.5342 12.0642 76.9047 12.6318 78.1071C13.1994 79.3094 14.194 80.2577 15.422 80.7674C16.0724 81.0375 16.7697 81.1766 17.474 81.1767Z" fill="#F47D39"/>
<path d="M34.5376 100.918L26.3156 86.3885L26.3026 86.3641L26.2146 86.1921C26.1549 86.09 26.0884 85.9919 26.0156 85.8985C25.4632 85.0773 24.7178 84.404 23.8447 83.9379C22.9715 83.4717 21.9974 83.2269 21.0076 83.2248H13.9376C13.0162 83.2271 12.1076 83.4403 11.2813 83.848C10.455 84.2557 9.73304 84.8471 9.17063 85.5769C8.97867 85.757 8.81425 85.9642 8.68263 86.1921L0.359631 100.918C0.00362045 101.536 -0.0928 102.27 0.091533 102.958C0.275866 103.647 0.725891 104.234 1.34283 104.591C1.64777 104.768 1.98455 104.882 2.33386 104.928C2.68316 104.974 3.03811 104.951 3.37833 104.859C4.06565 104.674 4.65111 104.223 5.00613 103.605L9.40963 96.5291L5.99493 113.69C5.93773 113.917 5.9344 114.154 5.98523 114.382C6.03605 114.61 6.1396 114.823 6.28758 115.004C6.43557 115.185 6.62387 115.329 6.83741 115.424C7.05094 115.519 7.28377 115.563 7.51723 115.551H11.3266V125.945C11.3266 126.657 11.6092 127.339 12.1122 127.842C12.6151 128.345 13.2973 128.627 14.0086 128.627C14.7199 128.627 15.4021 128.345 15.9051 127.842C16.4081 127.339 16.6906 126.657 16.6906 125.945V115.551H18.2546V125.945C18.2546 126.657 18.5373 127.339 19.0403 127.842C19.5434 128.345 20.2257 128.628 20.9371 128.628C21.6486 128.628 22.3309 128.345 22.8339 127.842C23.337 127.339 23.6196 126.657 23.6196 125.945V115.551H27.3796C27.6129 115.563 27.8455 115.519 28.0588 115.424C28.2722 115.329 28.4601 115.185 28.6076 115.004C28.7558 114.824 28.8596 114.611 28.9107 114.382C28.9617 114.154 28.9586 113.917 28.9016 113.69L25.4876 96.5291L29.8906 103.605C30.249 104.218 30.8351 104.663 31.5209 104.844C32.2067 105.025 32.9363 104.928 33.5504 104.573C34.1644 104.218 34.613 103.634 34.798 102.949C34.983 102.265 34.8894 101.534 34.5376 100.918Z" fill="#F47D39"/>
<path d="M111.456 10.7548C112.786 10.7552 114.068 10.2611 115.054 9.36853C116.039 8.47599 116.657 7.24882 116.788 5.92569C116.919 4.60257 116.553 3.27808 115.762 2.20978C114.97 1.14148 113.81 0.405769 112.506 0.145695C111.202 -0.114379 109.848 0.119774 108.707 0.802647C107.566 1.48552 106.72 2.56829 106.333 3.84037C105.946 5.11245 106.047 6.48292 106.614 7.68525C107.182 8.88757 108.176 9.83581 109.404 10.3456C110.055 10.6156 110.752 10.7547 111.456 10.7548Z" fill="#F47D39"/>
<path d="M128.52 30.4965L120.298 15.9666L120.285 15.9422L120.197 15.7702C120.137 15.6681 120.071 15.57 119.998 15.4766C119.445 14.6554 118.7 13.9821 117.827 13.516C116.954 13.0498 115.98 12.805 114.99 12.8029H107.92C106.998 12.8052 106.09 13.0184 105.264 13.4261C104.437 13.8338 103.715 14.4252 103.153 15.155C102.961 15.3351 102.796 15.5423 102.665 15.7702L94.3418 30.4965C94.1645 30.8017 94.0491 31.1388 94.0023 31.4886C93.9554 31.8383 93.978 32.1939 94.0688 32.5349C94.1595 32.876 94.3166 33.1958 94.5311 33.476C94.7456 33.7563 95.0133 33.9915 95.3188 34.1681C95.6243 34.3448 95.9616 34.4595 96.3115 34.5056C96.6614 34.5517 97.0169 34.5284 97.3578 34.4369C97.6986 34.3455 98.0181 34.1877 98.2979 33.9726C98.5777 33.7576 98.8123 33.4894 98.9883 33.1835L103.392 26.1072L99.9771 43.2685C99.9199 43.4951 99.9166 43.732 99.9674 43.9601C100.018 44.1883 100.122 44.4013 100.27 44.5822C100.418 44.7632 100.606 44.9069 100.82 45.002C101.033 45.097 101.266 45.1407 101.499 45.1295H105.309V55.5235C105.309 56.2348 105.591 56.917 106.094 57.42C106.597 57.923 107.28 58.2055 107.991 58.2055C108.702 58.2055 109.384 57.923 109.887 57.42C110.39 56.917 110.673 56.2348 110.673 55.5235V45.1295H112.237V55.5235C112.237 56.235 112.519 56.9173 113.023 57.4204C113.526 57.9234 114.208 58.206 114.919 58.206C115.631 58.206 116.313 57.9234 116.816 57.4204C117.319 56.9173 117.602 56.235 117.602 55.5235V45.1295H121.362C121.595 45.141 121.828 45.0975 122.041 45.0024C122.254 44.9074 122.442 44.7636 122.59 44.5825C122.738 44.4017 122.842 44.1886 122.893 43.9605C122.944 43.7323 122.941 43.4953 122.884 43.2685L119.47 26.1072L123.873 33.1835C124.231 33.7957 124.817 34.241 125.503 34.4223C126.189 34.6036 126.918 34.506 127.533 34.151C128.147 33.7959 128.595 33.2122 128.78 32.5274C128.965 31.8427 128.872 31.1125 128.52 30.4965Z" fill="#F47D39"/>
<path d="M158.43 10.7548C159.759 10.755 161.042 10.2606 162.027 9.36795C163.012 8.47528 163.63 7.24807 163.761 5.92499C163.891 4.6019 163.525 3.27751 162.734 2.20935C161.942 1.14119 160.782 0.40563 159.478 0.145689C158.174 -0.114252 156.82 0.119992 155.679 0.802916C154.538 1.48584 153.692 2.56862 153.306 3.84067C152.919 5.11271 153.019 6.4831 153.587 7.68536C154.155 8.88762 155.149 9.83582 156.377 10.3455C157.028 10.6157 157.725 10.7548 158.43 10.7548Z" fill="#F47D39"/>
<path d="M175.494 30.4965L167.271 15.9666L167.259 15.9422L167.17 15.7702C167.111 15.6678 167.044 15.5697 166.971 15.4766C166.419 14.6555 165.673 13.9823 164.801 13.5162C163.928 13.0501 162.954 12.8052 161.964 12.8029H154.894C153.973 12.8049 153.064 13.018 152.238 13.4257C151.411 13.8334 150.689 14.425 150.127 15.155C149.935 15.3348 149.77 15.5421 149.639 15.7702L141.315 30.4965C141.136 30.8018 141.02 31.1393 140.972 31.4897C140.924 31.8402 140.946 32.1966 141.036 32.5386C141.127 32.8805 141.284 33.2012 141.499 33.4822C141.713 33.7633 141.982 33.9991 142.288 34.1761C142.594 34.3532 142.932 34.468 143.283 34.5139C143.634 34.5598 143.99 34.536 144.331 34.4437C144.673 34.3515 144.993 34.1926 145.272 33.9764C145.552 33.7601 145.787 33.4907 145.962 33.1835L150.366 26.1072L146.951 43.2685C146.894 43.4951 146.891 43.732 146.941 43.9601C146.992 44.1882 147.096 44.4012 147.244 44.5821C147.392 44.763 147.58 44.9067 147.793 45.0018C148.007 45.0968 148.24 45.1406 148.473 45.1295H152.282V55.5235C152.281 55.8764 152.35 56.226 152.484 56.5523C152.619 56.8786 152.816 57.1752 153.065 57.4251C153.314 57.675 153.61 57.8732 153.936 58.0085C154.262 58.1437 154.612 58.2134 154.965 58.2134C155.317 58.2134 155.667 58.1437 155.993 58.0085C156.319 57.8732 156.615 57.675 156.864 57.4251C157.113 57.1752 157.311 56.8786 157.445 56.5523C157.579 56.226 157.648 55.8764 157.647 55.5235V45.1295H159.211V55.5235C159.211 56.2348 159.494 56.917 159.997 57.42C160.5 57.923 161.182 58.2055 161.893 58.2055C162.604 58.2055 163.287 57.923 163.79 57.42C164.292 56.917 164.575 56.2348 164.575 55.5235V45.1295H168.336C168.569 45.1407 168.802 45.097 169.015 45.002C169.228 44.907 169.416 44.7634 169.564 44.5825C169.712 44.4013 169.815 44.1883 169.866 43.9602C169.917 43.7322 169.914 43.4953 169.858 43.2685L166.443 26.1072L170.847 33.1835C171.205 33.7957 171.792 34.241 172.477 34.4223C173.163 34.6036 173.893 34.506 174.507 34.151C175.121 33.7959 175.569 33.2122 175.754 32.5274C175.939 31.8427 175.846 31.1125 175.494 30.4965Z" fill="#F47D39"/>
<path d="M205.405 10.7548C206.734 10.755 208.016 10.2606 209.002 9.36795C209.987 8.47526 210.605 7.24803 210.736 5.92492C210.866 4.60181 210.5 3.27737 209.709 2.20919C208.917 1.14102 207.756 0.40545 206.452 0.145505C205.149 -0.114441 203.795 0.119825 202.654 0.802762C201.513 1.4857 200.667 2.56848 200.28 3.84054C199.894 5.11261 199.994 6.48305 200.562 7.68533C201.129 8.88761 202.124 9.83582 203.352 10.3455C204.002 10.6157 204.7 10.7548 205.405 10.7548Z" fill="#F47D39"/>
<path d="M222.468 30.4965L214.246 15.9666L214.233 15.9422L214.145 15.7702C214.085 15.6681 214.018 15.57 213.946 15.4766C213.393 14.6555 212.648 13.9823 211.775 13.5162C210.902 13.0501 209.928 12.8052 208.939 12.8029H201.869C200.947 12.8051 200.038 13.0182 199.212 13.4259C198.385 13.8336 197.663 14.4251 197.101 15.155C196.909 15.3351 196.744 15.5424 196.613 15.7702L188.29 30.4965C188.111 30.8018 187.994 31.1393 187.947 31.4897C187.899 31.8402 187.921 32.1966 188.011 32.5386C188.101 32.8805 188.258 33.2012 188.473 33.4822C188.688 33.7633 188.956 33.9991 189.262 34.1761C189.569 34.3532 189.907 34.468 190.257 34.5139C190.608 34.5598 190.964 34.536 191.306 34.4437C191.647 34.3515 191.967 34.1926 192.247 33.9764C192.527 33.7601 192.761 33.4907 192.937 33.1835L197.34 26.1072L193.925 43.2685C193.869 43.4955 193.866 43.7324 193.917 43.9605C193.993 44.3047 194.188 44.6108 194.469 44.8247C194.749 45.0386 195.096 45.1466 195.448 45.1295H199.257V55.5235C199.257 56.2348 199.539 56.917 200.042 57.42C200.545 57.923 201.227 58.2055 201.939 58.2055C202.65 58.2055 203.332 57.923 203.835 57.42C204.338 56.917 204.621 56.2348 204.621 55.5235V45.1295H206.185V55.5235C206.187 56.2337 206.47 56.9141 206.973 57.4156C207.476 57.9171 208.157 58.1987 208.867 58.1987C209.577 58.1987 210.259 57.9171 210.761 57.4156C211.264 56.9141 211.548 56.2337 211.55 55.5235V45.1295H215.31C215.662 45.1458 216.008 45.0376 216.288 44.8238C216.568 44.61 216.764 44.3043 216.841 43.9605C216.892 43.7324 216.889 43.4955 216.833 43.2685L213.418 26.1072L217.822 33.1835C218.178 33.7987 218.765 34.247 219.452 34.4301C220.139 34.6132 220.871 34.5161 221.486 34.16C222.102 33.804 222.551 33.2182 222.735 32.5313C222.919 31.8444 222.823 31.1126 222.468 30.4965Z" fill="#F47D39"/>
<path d="M299.354 10.7548C300.683 10.755 301.965 10.2606 302.951 9.36795C303.936 8.47528 304.554 7.24807 304.685 5.92499C304.815 4.6019 304.449 3.27751 303.658 2.20935C302.866 1.14119 301.705 0.40563 300.402 0.145689C299.098 -0.114252 297.744 0.119992 296.603 0.802916C295.462 1.48584 294.616 2.56862 294.23 3.84067C293.843 5.11271 293.943 6.4831 294.511 7.68536C295.078 8.88762 296.073 9.83582 297.301 10.3455C297.951 10.6157 298.649 10.7548 299.354 10.7548Z" fill="#F47D39"/>
<path d="M316.417 30.4965L308.195 15.9666L308.183 15.9422L308.094 15.7702C308.034 15.6681 307.968 15.57 307.895 15.4766C307.343 14.6555 306.597 13.9824 305.724 13.5162C304.851 13.0501 303.877 12.8052 302.888 12.8029H295.818C294.896 12.8051 293.987 13.0181 293.161 13.4258C292.335 13.8335 291.612 14.4251 291.05 15.155C290.858 15.3348 290.694 15.5422 290.563 15.7702L282.239 30.4965C282.06 30.8018 281.944 31.1393 281.896 31.4897C281.848 31.8402 281.87 32.1966 281.96 32.5386C282.051 32.8805 282.208 33.2012 282.422 33.4822C282.637 33.7633 282.905 33.9991 283.212 34.1761C283.518 34.3532 283.856 34.468 284.207 34.5139C284.557 34.5598 284.914 34.536 285.255 34.4437C285.597 34.3515 285.916 34.1926 286.196 33.9764C286.476 33.7601 286.71 33.4907 286.886 33.1835L291.29 26.1072L287.875 43.2685C287.818 43.4951 287.814 43.732 287.865 43.9602C287.916 44.1884 288.019 44.4015 288.167 44.5824C288.315 44.7634 288.503 44.9071 288.717 45.0021C288.931 45.0971 289.163 45.1408 289.397 45.1295H293.206V55.5235C293.206 56.2348 293.488 56.917 293.991 57.42C294.494 57.923 295.177 58.2055 295.888 58.2055C296.599 58.2055 297.281 57.923 297.784 57.42C298.287 56.917 298.57 56.2348 298.57 55.5235V45.1295H300.135V55.5235C300.135 56.2348 300.417 56.917 300.92 57.42C301.423 57.923 302.106 58.2055 302.817 58.2055C303.528 58.2055 304.21 57.923 304.713 57.42C305.216 56.917 305.499 56.2348 305.499 55.5235V45.1295H309.259C309.611 45.1458 309.957 45.0376 310.237 44.8238C310.517 44.61 310.713 44.3043 310.79 43.9605C310.841 43.7324 310.838 43.4955 310.782 43.2685L307.367 26.1072L311.771 33.1835C312.128 33.7987 312.714 34.247 313.401 34.4301C314.088 34.6132 314.82 34.5161 315.436 34.16C316.051 33.804 316.5 33.2182 316.684 32.5313C316.868 31.8444 316.772 31.1126 316.417 30.4965Z" fill="#F47D39"/>
</g>
<defs>
<clipPath id="clip0_1445_2572">
<rect width="457.699" height="128.627" fill="white"/>
</clipPath>
</defs>
</svg>
