<svg width="50" height="50" viewBox="0 0 50 50" fill="none" xmlns="http://www.w3.org/2000/svg">
<g clip-path="url(#clip0_650_2812)">
<path d="M32.9908 17.5358C31.6516 12.2704 28.9422 8.51991 25.7598 8V19.0985C28.2456 19.0259 30.6968 18.4961 32.9908 17.5358Z" fill="#00476B"/>
<path d="M24.2407 19.0983V8.00293C21.1188 8.53848 18.4005 12.3299 17.04 17.5478C19.3254 18.5001 21.7659 19.0256 24.2407 19.0983Z" fill="#00476B"/>
<path d="M24.2407 41.9967V30.9014C21.7659 30.9741 19.3254 31.4996 17.04 32.4519C18.4005 37.6697 21.1188 41.4612 24.2407 41.9967Z" fill="#00476B"/>
<path d="M16.1133 24.9999C16.1107 27.0019 16.3063 28.9993 16.6973 30.9628C19.0983 29.9935 21.6525 29.4588 24.2407 29.3836V20.6164C21.6525 20.5411 19.0983 20.0064 16.6973 19.0371C16.3063 21.0006 16.1107 22.9979 16.1133 24.9999Z" fill="#00476B"/>
<path d="M39.2519 14.8789C37.9968 16.3316 36.466 17.521 34.748 18.378C35.6256 22.7489 35.6256 27.2506 34.748 31.6214C36.4659 32.4784 37.9967 33.6678 39.2517 35.1205C41.354 32.1645 42.4837 28.6272 42.4838 24.9998C42.4838 21.3724 41.3542 17.835 39.2519 14.8789Z" fill="#00476B"/>
<path d="M34.3889 16.8538C35.8946 16.0632 37.2244 14.9755 38.2976 13.6563C35.9649 10.9173 32.8438 8.96486 29.3604 8.06543C31.5715 9.84422 33.3479 12.9521 34.3889 16.8538Z" fill="#00476B"/>
<path d="M34.3889 33.1465C33.3479 37.0481 31.5715 40.1559 29.3604 41.9347C32.8438 41.0353 35.9649 39.0829 38.2976 36.344C37.2243 35.0248 35.8946 33.9371 34.3889 33.1465Z" fill="#00476B"/>
<path d="M15.2533 31.6215C14.3758 27.2507 14.3758 22.749 15.2533 18.3781C13.5354 17.521 12.0045 16.3317 10.7494 14.8789C8.64715 17.835 7.51758 21.3724 7.51758 24.9998C7.51758 28.6272 8.64715 32.1646 10.7494 35.1207C12.0045 33.6679 13.5353 32.4785 15.2533 31.6215Z" fill="#00476B"/>
<path d="M25.7598 30.9014V41.9998C28.9422 41.4799 31.6516 37.7294 32.9908 32.4641C30.6968 31.5038 28.2456 30.974 25.7598 30.9014Z" fill="#00476B"/>
<path d="M15.6119 33.1465C14.1061 33.937 12.7764 35.0248 11.7031 36.344C14.0358 39.083 17.1568 41.0354 20.6402 41.9348C18.4293 40.156 16.6528 37.0481 15.6119 33.1465Z" fill="#00476B"/>
<path d="M15.6119 16.8537C16.6528 12.9521 18.4293 9.84421 20.6402 8.06543C17.1568 8.9649 14.0358 10.9173 11.7031 13.6561C12.7764 14.9753 14.1061 16.0631 15.6119 16.8537Z" fill="#00476B"/>
<path d="M33.8877 24.9997C33.8918 22.9958 33.7034 20.9962 33.3249 19.0283C30.9177 20.0033 28.3559 20.541 25.7598 20.6163V29.3834C28.3559 29.4587 30.9177 29.9965 33.3249 30.9715C33.7034 29.0035 33.8918 27.0037 33.8877 24.9997Z" fill="#00476B"/>
</g>
<defs>
<clipPath id="clip0_650_2812">
<rect width="34.9658" height="34" fill="white" transform="translate(7.51758 8)"/>
</clipPath>
</defs>
</svg>
