<svg width="50" height="50" viewBox="0 0 50 50" fill="none" xmlns="http://www.w3.org/2000/svg">
<g clip-path="url(#clip0_650_2796)">
<path d="M18.0173 26.0046C17.4061 24.8683 17.0861 23.5983 17.0858 22.3081C17.0862 21.016 17.4039 19.7437 18.0111 18.6031C18.6182 17.4625 19.4962 16.4885 20.5679 15.7666C20.5784 15.6302 20.5851 15.4926 20.5851 15.3534C20.5899 14.4074 20.344 13.477 19.8724 12.657C19.4008 11.837 18.7203 11.1566 17.9003 10.685C17.0802 10.2135 16.1498 9.96775 15.2038 9.97273C14.2579 9.97771 13.3301 10.2333 12.515 10.7134C11.7 11.1935 11.0267 11.8811 10.5637 12.706C10.1008 13.531 9.86474 14.4639 9.87958 15.4097C9.89442 16.3556 10.1596 17.2807 10.6482 18.0907C11.1368 18.9007 11.8314 19.5668 12.6611 20.0211C10.6462 20.3964 8.82606 21.4646 7.5159 23.0407C6.20574 24.6169 5.48811 26.6016 5.4873 28.6511V33.0455H12.9943C13.672 30.1268 15.4781 27.5952 18.0173 26.0046Z" fill="#569FD6"/>
<path d="M37.3382 20.0208C38.1636 19.5654 38.8538 18.8997 39.3387 18.0912C39.8236 17.2828 40.086 16.3605 40.0993 15.4179C40.1125 14.4753 39.8761 13.546 39.4141 12.7243C38.9521 11.9026 38.2809 11.2178 37.4687 10.7393C36.6564 10.2609 35.732 10.0058 34.7894 10.0001C33.8467 9.99438 32.9193 10.2382 32.1013 10.7067C31.2833 11.1753 30.6038 11.8519 30.1319 12.668C29.6599 13.484 29.4123 14.4104 29.4141 15.3531C29.4141 15.5052 29.4225 15.6551 29.4351 15.8038C30.4926 16.5275 31.3578 17.498 31.9558 18.6312C32.5539 19.7645 32.8668 21.0264 32.8674 22.3078C32.8674 23.5981 32.5472 24.8682 31.9355 26.0043C34.475 27.5948 36.2813 30.1264 36.959 33.0452H44.5118V28.6509C44.5111 26.6013 43.7935 24.6166 42.4834 23.0405C41.1733 21.4643 39.3531 20.3961 37.3382 20.0208Z" fill="#569FD6"/>
<path d="M34.7445 40.0004V35.6061C34.7437 33.5565 34.0261 31.5717 32.7159 29.9956C31.4058 28.4195 29.5856 27.3513 27.5707 26.976C28.6133 26.4051 29.4363 25.5033 29.9098 24.4129C30.3833 23.3225 30.4803 22.1055 30.1857 20.9539C29.891 19.8022 29.2214 18.7814 28.2824 18.0524C27.3434 17.3234 26.1884 16.9277 24.9997 16.9277C23.8109 16.9277 22.656 17.3234 21.717 18.0524C20.778 18.7814 20.1083 19.8022 19.8137 20.9539C19.519 22.1055 19.6161 23.3225 20.0895 24.4129C20.563 25.5033 21.386 26.4051 22.4287 26.976C20.4138 27.3514 18.5937 28.4196 17.2835 29.9957C15.9734 31.5718 15.2557 33.5565 15.2549 35.6061V40.0004H34.7445Z" fill="#569FD6"/>
</g>
<defs>
<clipPath id="clip0_650_2796">
<rect width="39.0247" height="30" fill="white" transform="translate(5.4873 10)"/>
</clipPath>
</defs>
</svg>
