<svg width="48" height="54" viewBox="0 0 48 54" fill="none" xmlns="http://www.w3.org/2000/svg">
<path d="M38.7295 53.2638L47.4992 39.2374V33.2529L38.7295 47.2793" fill="white"/>
<path d="M38.7289 53.7594C38.6397 53.7593 38.5522 53.7356 38.4754 53.6908C38.3986 53.6461 38.3352 53.5818 38.2918 53.5047C38.2485 53.4275 38.2267 53.3404 38.2288 53.2521C38.2308 53.1639 38.2566 53.0778 38.3035 53.0027L46.9987 39.0961V34.9953L39.1552 47.54C39.0853 47.6518 38.9734 47.7316 38.8441 47.7617C38.7148 47.7919 38.5787 47.7699 38.4658 47.7007C38.3528 47.6315 38.2723 47.5207 38.2419 47.3927C38.2114 47.2647 38.2336 47.1299 38.3035 47.0181L47.0735 32.9917C47.1308 32.9 47.2168 32.8293 47.3184 32.7903C47.4199 32.7514 47.5315 32.7462 47.6363 32.7758C47.7411 32.8053 47.8333 32.8678 47.8989 32.9538C47.9646 33.0399 48.0001 33.1448 48.0001 33.2526V39.2373C48.0001 39.3294 47.9742 39.4198 47.9253 39.4982L39.1552 53.5246C39.1103 53.5965 39.0475 53.6558 38.9729 53.6969C38.8983 53.738 38.8143 53.7595 38.7289 53.7594Z" fill="black"/>
<path d="M5.4463 47.2783H38.7527V53.2627H5.4463C4.76823 53.2627 4.11794 52.996 3.63847 52.5212C3.15901 52.0465 2.88965 51.4026 2.88965 50.7312V49.8098C2.88965 49.4774 2.95578 49.1482 3.08426 48.8411C3.21274 48.5339 3.40107 48.2549 3.63847 48.0198C3.87588 47.7847 4.15772 47.5982 4.46791 47.471C4.7781 47.3438 5.11055 47.2783 5.4463 47.2783Z" fill="white"/>
<path d="M38.7533 53.7581H5.44701C4.63642 53.7572 3.8593 53.438 3.28613 52.8704C2.71295 52.3029 2.39055 51.5334 2.38965 50.7308V49.8095C2.39055 49.0069 2.71295 48.2374 3.28613 47.6699C3.8593 47.1024 4.63642 46.7831 5.44701 46.7822H38.7533C38.8191 46.7822 38.8842 46.795 38.945 46.8199C39.0057 46.8448 39.0609 46.8814 39.1074 46.9274C39.1539 46.9734 39.1908 47.0281 39.2159 47.0882C39.2411 47.1484 39.254 47.2129 39.254 47.278V53.2623C39.254 53.3274 39.2411 53.3919 39.2159 53.4521C39.1908 53.5122 39.1539 53.5669 39.1074 53.6129C39.0609 53.659 39.0057 53.6955 38.9449 53.7204C38.8842 53.7453 38.8191 53.7581 38.7533 53.7581ZM5.44701 47.7737C4.90191 47.7743 4.37932 47.989 3.99387 48.3706C3.60843 48.7523 3.39161 49.2697 3.391 49.8095V50.7308C3.39161 51.2705 3.60842 51.788 3.99387 52.1696C4.37932 52.5513 4.90191 52.766 5.44701 52.7666H38.2526V47.7737H5.44701Z" fill="black"/>
<path d="M38.7278 47.7749C38.6386 47.7748 38.5511 47.7511 38.4743 47.7064C38.3975 47.6616 38.3341 47.5973 38.2907 47.5202C38.2474 47.4431 38.2256 47.3559 38.2277 47.2676C38.2297 47.1794 38.2555 47.0933 38.3024 47.0182L47.0724 32.9918C47.1425 32.8803 47.2543 32.8008 47.3835 32.7709C47.5126 32.7409 47.6485 32.7629 47.7612 32.832C47.874 32.9011 47.9545 33.0117 47.9851 33.1395C48.0156 33.2673 47.9937 33.4019 47.9242 33.5137L39.1541 47.5401C39.1092 47.612 39.0464 47.6713 38.9718 47.7124C38.8972 47.7535 38.8132 47.775 38.7278 47.7749Z" fill="black"/>
<path d="M38.7295 47.2775L47.4992 33.2511V27.2666L38.7295 41.293" fill="white"/>
<path d="M38.7288 47.7731C38.6397 47.773 38.5522 47.7493 38.4754 47.7045C38.3985 47.6597 38.3352 47.5955 38.2918 47.5183C38.2485 47.4412 38.2267 47.354 38.2287 47.2658C38.2308 47.1775 38.2566 47.0914 38.3034 47.0164L46.9987 33.1098V29.009L39.1552 41.5537C39.1206 41.609 39.0753 41.6571 39.022 41.6952C38.9686 41.7332 38.9081 41.7605 38.8441 41.7754C38.7801 41.7903 38.7137 41.7926 38.6488 41.7822C38.5839 41.7717 38.5217 41.7487 38.4658 41.7144C38.4098 41.6801 38.3613 41.6353 38.3229 41.5824C38.2844 41.5296 38.2569 41.4698 38.2418 41.4064C38.2268 41.343 38.2245 41.2773 38.235 41.213C38.2456 41.1487 38.2688 41.0871 38.3034 41.0317L47.0735 27.0054C47.1308 26.9137 47.2168 26.843 47.3183 26.804C47.4199 26.765 47.5315 26.7599 47.6363 26.7894C47.741 26.8189 47.8333 26.8815 47.8989 26.9675C47.9646 27.0536 48.0001 27.1585 48.0001 27.2663V33.2509C48.0001 33.3431 47.9742 33.4335 47.9253 33.5119L39.1552 47.5383C39.1103 47.6102 39.0475 47.6695 38.9729 47.7106C38.8983 47.7517 38.8142 47.7732 38.7288 47.7731Z" fill="black"/>
<path d="M5.4463 41.2939H38.7527V47.2783H5.4463C5.11055 47.2783 4.7781 47.2128 4.46791 47.0856C4.15772 46.9584 3.87588 46.7719 3.63847 46.5368C3.40107 46.3018 3.21275 46.0227 3.08426 45.7156C2.95578 45.4084 2.88965 45.0792 2.88965 44.7468V43.8254C2.88965 43.154 3.15901 42.5102 3.63847 42.0354C4.11794 41.5607 4.76823 41.2939 5.4463 41.2939Z" fill="white"/>
<path d="M38.7523 47.7737H5.44603C4.63545 47.7728 3.85832 47.4536 3.28515 46.8861C2.71198 46.3185 2.38957 45.549 2.38867 44.7464V43.8251C2.38958 43.0225 2.71198 42.253 3.28515 41.6855C3.85832 41.118 4.63545 40.7987 5.44603 40.7979H38.7523C38.8181 40.7978 38.8833 40.8106 38.944 40.8356C39.0048 40.8605 39.0599 40.897 39.1064 40.943C39.1529 40.9891 39.1898 41.0437 39.2149 41.1039C39.2401 41.164 39.253 41.2285 39.253 41.2936V47.278C39.253 47.3431 39.2401 47.4075 39.2149 47.4677C39.1898 47.5279 39.1529 47.5825 39.1064 47.6286C39.0599 47.6746 39.0047 47.7111 38.9439 47.736C38.8832 47.7609 38.8181 47.7737 38.7523 47.7737ZM5.44603 41.7894C4.90093 41.79 4.37834 42.0046 3.99289 42.3863C3.60745 42.7679 3.39063 43.2854 3.39003 43.8251V44.7464C3.39063 45.2862 3.60745 45.8036 3.99289 46.1853C4.37834 46.5669 4.90093 46.7816 5.44603 46.7822H38.2517V41.7894H5.44603Z" fill="black"/>
<path d="M38.7278 41.7886C38.6386 41.7885 38.5511 41.7648 38.4743 41.72C38.3975 41.6752 38.3341 41.611 38.2907 41.5339C38.2474 41.4567 38.2256 41.3695 38.2277 41.2813C38.2297 41.1931 38.2555 41.107 38.3024 41.0319L47.0724 27.0055C47.1425 26.894 47.2543 26.8145 47.3835 26.7846C47.5126 26.7546 47.6485 26.7766 47.7612 26.8457C47.874 26.9148 47.9545 27.0254 47.9851 27.1532C48.0156 27.281 47.9937 27.4156 47.9242 27.5274L39.1541 41.5538C39.1092 41.6257 39.0464 41.685 38.9718 41.7261C38.8972 41.7672 38.8132 41.7887 38.7278 41.7886Z" fill="black"/>
<path d="M38.7295 41.2955L47.4992 27.2691V21.2842L38.7295 35.3111" fill="white"/>
<path d="M38.7289 41.7907C38.6397 41.7905 38.5522 41.7669 38.4754 41.7221C38.3986 41.6773 38.3352 41.613 38.2918 41.5359C38.2485 41.4588 38.2267 41.3716 38.2288 41.2834C38.2308 41.1951 38.2566 41.109 38.3035 41.0339L46.9987 27.1274V23.0266L39.1552 35.5712C39.0853 35.6831 38.9734 35.7628 38.8441 35.793C38.7148 35.8231 38.5787 35.8012 38.4658 35.732C38.3528 35.6628 38.2723 35.552 38.2419 35.4239C38.2114 35.2959 38.2336 35.1612 38.3035 35.0493L47.0735 21.0229C47.1308 20.9312 47.2168 20.8605 47.3184 20.8216C47.4199 20.7826 47.5315 20.7775 47.6363 20.807C47.7411 20.8365 47.8333 20.899 47.8989 20.9851C47.9646 21.0711 48.0001 21.176 48.0001 21.2839V27.2685C48.0001 27.3607 47.9742 27.451 47.9253 27.5295L39.1552 41.5558C39.1103 41.6277 39.0475 41.6871 38.9729 41.7282C38.8983 41.7693 38.8143 41.7908 38.7289 41.7907Z" fill="black"/>
<path d="M38.7308 35.3105L47.5002 21.2842H12.8738L3.65234 36.0333" fill="white"/>
<path d="M3.65156 36.5284C3.56243 36.5283 3.47492 36.5046 3.39811 36.4599C3.32129 36.4151 3.25792 36.3508 3.21457 36.2737C3.17122 36.1966 3.14946 36.1094 3.1515 36.0212C3.15353 35.9329 3.17932 35.8468 3.22618 35.7717L12.4476 21.0229C12.4926 20.9511 12.5553 20.8918 12.6298 20.8507C12.7044 20.8097 12.7882 20.7881 12.8735 20.7881H47.5C47.5892 20.788 47.6768 20.8116 47.7537 20.8563C47.8307 20.901 47.8942 20.9653 47.9376 21.0425C47.981 21.1196 48.0028 21.2069 48.0008 21.2952C47.9987 21.3835 47.9728 21.4697 47.9258 21.5448L39.1562 35.5706C39.1216 35.626 39.0763 35.674 39.0229 35.7121C38.9696 35.7501 38.9091 35.7774 38.8451 35.7923C38.7811 35.8072 38.7147 35.8095 38.6498 35.7991C38.5849 35.7886 38.5227 35.7656 38.4668 35.7313C38.4108 35.697 38.3623 35.6522 38.3239 35.5994C38.2854 35.5465 38.2579 35.4867 38.2428 35.4233C38.2277 35.3599 38.2254 35.2942 38.236 35.2299C38.2465 35.1656 38.2698 35.1041 38.3044 35.0487L46.6013 21.7796H13.1522L4.07792 36.2936C4.03298 36.3655 3.97024 36.4248 3.89561 36.4659C3.82098 36.507 3.73696 36.5286 3.65156 36.5284Z" fill="black"/>
<path d="M5.44728 35.3096H38.7537V41.2939H5.44728C5.11153 41.2939 4.77908 41.2284 4.46889 41.1012C4.1587 40.974 3.87686 40.7875 3.63945 40.5525C3.40204 40.3174 3.21372 40.0383 3.08524 39.7312C2.95675 39.424 2.89062 39.0949 2.89063 38.7624V37.8411C2.89062 37.1697 3.15999 36.5258 3.63945 36.051C4.11892 35.5763 4.76921 35.3096 5.44728 35.3096Z" fill="white"/>
<path d="M38.7533 41.7893H5.44701C4.63642 41.7884 3.8593 41.4692 3.28613 40.9017C2.71295 40.3341 2.39055 39.5647 2.38965 38.7621V37.8408C2.39055 37.0381 2.71295 36.2687 3.28613 35.7011C3.8593 35.1336 4.63642 34.8144 5.44701 34.8135H38.7533C38.8191 34.8135 38.8842 34.8263 38.945 34.8512C39.0057 34.8761 39.0609 34.9126 39.1074 34.9586C39.1539 35.0047 39.1908 35.0593 39.2159 35.1195C39.2411 35.1796 39.254 35.2441 39.254 35.3092V41.2936C39.254 41.3587 39.2411 41.4232 39.2159 41.4833C39.1908 41.5435 39.1539 41.5981 39.1074 41.6442C39.0609 41.6902 39.0057 41.7267 38.9449 41.7516C38.8842 41.7765 38.8191 41.7894 38.7533 41.7893ZM5.44701 35.805C4.90191 35.8056 4.37932 36.0203 3.99387 36.4019C3.60842 36.7836 3.39161 37.301 3.391 37.8408V38.7621C3.39161 39.3018 3.60842 39.8193 3.99387 40.2009C4.37932 40.5826 4.90191 40.7972 5.44701 40.7978H38.2526V35.805H5.44701Z" fill="black"/>
<path d="M38.7278 35.8062C38.6386 35.8061 38.5511 35.7824 38.4743 35.7376C38.3975 35.6928 38.3341 35.6286 38.2907 35.5514C38.2474 35.4743 38.2256 35.3871 38.2277 35.2989C38.2297 35.2106 38.2555 35.1245 38.3024 35.0495L47.0724 21.0231C47.1425 20.9115 47.2543 20.8321 47.3835 20.8021C47.5126 20.7722 47.6485 20.7942 47.7612 20.8633C47.874 20.9324 47.9545 21.043 47.9851 21.1708C48.0156 21.2986 47.9937 21.4331 47.9242 21.545L39.1541 35.5714C39.1092 35.6433 39.0464 35.7026 38.9718 35.7437C38.8972 35.7848 38.8132 35.8063 38.7278 35.8062Z" fill="black"/>
<path d="M38.9407 12.7734V25.8523C38.9407 28.8428 32.3245 31.2671 24.1633 31.2671C16.0019 31.2671 9.38574 28.8428 9.38574 25.8523V12.7734" fill="white"/>
<path d="M24.1633 31.7625C15.596 31.7625 8.88477 29.1663 8.88477 25.8519V12.7731C8.88477 12.6416 8.93749 12.5155 9.03139 12.4225C9.12528 12.3296 9.25266 12.2773 9.38544 12.2773C9.51823 12.2773 9.6456 12.3296 9.7395 12.4225C9.83339 12.5155 9.88612 12.6416 9.88612 12.7731V25.8519C9.88612 28.2276 15.6229 30.7709 24.1633 30.7709C32.7031 30.7709 38.4399 28.2276 38.4399 25.8519V12.7731C38.4399 12.6416 38.4926 12.5155 38.5865 12.4225C38.6804 12.3296 38.8078 12.2773 38.9406 12.2773C39.0734 12.2773 39.2007 12.3296 39.2946 12.4225C39.3885 12.5155 39.4413 12.6416 39.4413 12.7731V25.8519C39.4413 29.1663 32.7305 31.7625 24.1633 31.7625Z" fill="black"/>
<path d="M25.256 18.374L46.656 10.4777C46.8507 10.4059 47.0185 10.2768 47.137 10.1079C47.2555 9.93895 47.319 9.73818 47.319 9.53249C47.319 9.32679 47.2555 9.12602 47.137 8.95708C47.0185 8.78813 46.8507 8.6591 46.656 8.58727L25.256 0.690946C24.5519 0.431143 23.7769 0.431143 23.0728 0.690946L1.67277 8.58727C1.47812 8.6591 1.31027 8.78814 1.19177 8.95708C1.07328 9.12602 1.00977 9.32679 1.00977 9.53249C1.00977 9.73818 1.07328 9.93895 1.19177 10.1079C1.31027 10.2768 1.47812 10.4059 1.67277 10.4777L23.0728 18.374C23.7769 18.6338 24.5519 18.6338 25.256 18.374Z" fill="white"/>
<path d="M24.1643 19.0643C23.7318 19.0643 23.3028 18.9877 22.8975 18.8382L1.49743 10.9418C1.20712 10.8347 0.956797 10.6422 0.780091 10.3902C0.603386 10.1382 0.508735 9.83874 0.508789 9.53196C0.508844 9.22518 0.603602 8.92576 0.780397 8.67383C0.957192 8.4219 1.20757 8.22951 1.49792 8.12247L22.8975 0.226031C23.7145 -0.0753436 24.6137 -0.0753436 25.4307 0.226031L46.8308 8.12247C47.1211 8.22962 47.3714 8.42209 47.5481 8.67408C47.7248 8.92607 47.8195 9.22553 47.8194 9.53231C47.8194 9.83908 47.7246 10.1385 47.5478 10.3904C47.371 10.6424 47.1206 10.8348 46.8303 10.9418L25.4307 18.8382C25.0255 18.9877 24.5967 19.0642 24.1643 19.0643ZM24.1643 0.991436C23.8513 0.991442 23.5409 1.04686 23.2476 1.15507L1.84752 9.05151C1.74851 9.08798 1.6631 9.15355 1.6028 9.23942C1.54249 9.3253 1.5102 9.42737 1.51014 9.53197C1.51009 9.63656 1.54228 9.73868 1.60249 9.82461C1.66271 9.91055 1.74806 9.9762 1.84703 10.0128L23.2476 17.9092C23.8388 18.1271 24.4894 18.1271 25.0806 17.9092L46.4807 10.0128C46.5797 9.9763 46.665 9.91074 46.7253 9.82486C46.7856 9.73899 46.818 9.63691 46.8181 9.53231C46.8181 9.42772 46.7859 9.32561 46.7256 9.23967C46.6654 9.15373 46.5801 9.08808 46.4812 9.05151L25.0806 1.15507C24.7875 1.0469 24.4772 0.991485 24.1643 0.991436Z" fill="black"/>
<path d="M2.89132 20.2014C2.82557 20.2014 2.76047 20.1886 2.69971 20.1637C2.63896 20.1387 2.58375 20.1022 2.53725 20.0562C2.49076 20.0101 2.45386 19.9555 2.4287 19.8953C2.40355 19.8352 2.39061 19.7707 2.39063 19.7056V11.1842C2.39063 11.0528 2.44335 10.9267 2.53725 10.8337C2.63115 10.7407 2.75853 10.6885 2.89132 10.6885C3.02412 10.6885 3.1515 10.7407 3.24539 10.8337C3.33929 10.9267 3.39202 11.0528 3.39202 11.1842V19.7056C3.39204 19.7707 3.3791 19.8352 3.35394 19.8953C3.32879 19.9555 3.29189 20.0101 3.24539 20.0562C3.1989 20.1022 3.14369 20.1387 3.08294 20.1637C3.02218 20.1886 2.95708 20.2014 2.89132 20.2014Z" fill="black"/>
<path d="M5.2832 27.002H0.501627L0.501627 21.8426C0.501627 21.2761 0.728941 20.7329 1.13349 20.3323C1.53804 19.9317 2.08669 19.7067 2.65881 19.7067H3.12602C3.69814 19.7067 4.24685 19.9317 4.6514 20.3323C5.05595 20.7329 5.2832 21.2761 5.2832 21.8426L5.2832 27.002Z" fill="white"/>
<path d="M5.28227 27.4979H0.500699C0.434941 27.498 0.369841 27.4851 0.309086 27.4602C0.248331 27.4353 0.193126 27.3988 0.146628 27.3528C0.10013 27.3067 0.0632345 27.2521 0.0380781 27.1919C0.0129217 27.1317 -1.70867e-05 27.0673 1.69347e-08 27.0022V21.8428C0.000824249 21.145 0.281114 20.4761 0.779408 19.9827C1.2777 19.4893 1.95331 19.2118 2.65801 19.2109H3.12546C3.8301 19.2118 4.50566 19.4893 5.00387 19.9827C5.50208 20.4761 5.78226 21.1451 5.78297 21.8428V27.0022C5.78299 27.0673 5.77005 27.1317 5.7449 27.1919C5.71974 27.2521 5.68284 27.3067 5.63635 27.3528C5.58985 27.3988 5.53464 27.4353 5.47389 27.4602C5.41313 27.4851 5.34803 27.498 5.28227 27.4979ZM1.0014 26.5064H4.78158V21.8428C4.78117 21.408 4.60658 20.9911 4.2961 20.6835C3.98562 20.376 3.5646 20.203 3.12546 20.2025H2.65801C2.21881 20.203 1.79774 20.376 1.48718 20.6835C1.17662 20.991 1.00192 21.4079 1.0014 21.8428V26.5064Z" fill="black"/>
</svg>
