<svg width="50" height="50" viewBox="0 0 50 50" fill="none" xmlns="http://www.w3.org/2000/svg">
<g clip-path="url(#clip0_650_2805)">
<path d="M25.4945 26.4084L45.7978 18.8423C45.9104 18.8002 46.0075 18.7248 46.0761 18.6261C46.1446 18.5273 46.1813 18.4099 46.1813 18.2897C46.1813 18.1695 46.1446 18.0522 46.0761 17.9534C46.0075 17.8547 45.9104 17.7792 45.7978 17.7372L25.4945 10.1711C24.8813 9.94297 24.2064 9.94297 23.5931 10.1711L3.28983 17.7372C3.1772 17.7792 3.08011 17.8547 3.01156 17.9534C2.943 18.0522 2.90625 18.1695 2.90625 18.2897C2.90625 18.4099 2.943 18.5273 3.01156 18.6261C3.08011 18.7248 3.1772 18.8002 3.28983 18.8423L23.5931 26.4084C24.2064 26.6365 24.8813 26.6365 25.4945 26.4084ZM24.5438 28.4043C24.0017 28.4043 23.464 28.3075 22.956 28.1183L10.504 23.478V35.3792C10.504 37.5604 16.5081 40 24.5438 40C32.5795 40 38.5836 37.5604 38.5836 35.3792V23.478L26.1316 28.1183C25.6236 28.3074 25.0859 28.4043 24.5438 28.4043ZM45.359 29.2436V20.9665L43.9904 21.4749V29.2437C43.4966 29.3626 43.0571 29.644 42.7425 30.0427C42.4279 30.4415 42.2565 30.9344 42.2558 31.4423V36.6283H47.0938V31.4423C47.093 30.9343 46.9216 30.4414 46.6069 30.0427C46.2923 29.6439 45.8528 29.3625 45.359 29.2436Z" fill="#969696"/>
</g>
<defs>
<clipPath id="clip0_650_2805">
<rect width="44.1875" height="30" fill="white" transform="translate(2.90625 10)"/>
</clipPath>
</defs>
</svg>
