<svg width="59" height="47" viewBox="0 0 59 47" fill="none" xmlns="http://www.w3.org/2000/svg">
<path d="M50.7165 5.17478C50.7165 4.35289 50.4727 3.54953 50.0161 2.86617C49.5595 2.18281 48.9105 1.65016 48.1511 1.33565C47.3918 1.02114 46.5563 0.938855 45.7502 1.09921C44.9441 1.25956 44.2037 1.6554 43.6225 2.23656C43.0414 2.81773 42.6456 3.55816 42.4853 4.36425C42.3249 5.17034 42.4072 6.00586 42.7217 6.76518C43.0363 7.5245 43.5689 8.17349 44.2523 8.63011C44.9356 9.08672 45.7391 9.33041 46.5609 9.33041C47.1067 9.33041 47.647 9.22291 48.1512 9.01407C48.6554 8.80523 49.1135 8.4992 49.4994 8.11332C49.8853 7.72743 50.1914 7.26936 50.4002 6.76518C50.609 6.26099 50.7165 5.7205 50.7165 5.17478ZM35.2875 27.4129C35.7653 27.6866 36.332 27.7601 36.8637 27.6174C37.3955 27.4746 37.8492 27.1271 38.1257 26.6509L41.7993 18.3771V43.9029C41.7993 44.454 42.0182 44.9824 42.4079 45.3721C42.7975 45.7618 43.3261 45.9807 43.8772 45.9807C44.4283 45.9807 44.9568 45.7618 45.3465 45.3721C45.7362 44.9824 45.9551 44.454 45.9551 43.9029V30.8014H47.167V43.9029C47.167 44.454 47.386 44.9826 47.7757 45.3722C48.1653 45.7619 48.6938 45.9807 49.2449 45.9807C49.796 45.9807 50.3246 45.7619 50.7142 45.3722C51.1039 44.9826 51.3229 44.454 51.3229 43.9029V18.3037L55.0341 26.6511C55.1704 26.8875 55.352 27.0947 55.5684 27.2609C55.7848 27.4271 56.0318 27.5491 56.2954 27.6198C56.5589 27.6905 56.8338 27.7086 57.1044 27.6731C57.3749 27.6376 57.6359 27.5491 57.8722 27.4127C58.1086 27.2764 58.3158 27.0949 58.482 26.8785C58.6482 26.6621 58.7702 26.415 58.8409 26.1514C58.9117 25.8879 58.9298 25.6131 58.8943 25.3425C58.8588 25.072 58.7703 24.811 58.634 24.5746L53.3711 13.2062C53.2694 13.0298 53.142 12.8696 52.9931 12.7307C52.5567 12.1663 51.997 11.7092 51.3569 11.3942C50.7168 11.0792 50.0131 10.9147 49.2996 10.9132H43.8225C43.0563 10.9146 42.3021 11.1037 41.6258 11.4639C40.9496 11.8241 40.3718 12.3444 39.9431 12.9794C39.8865 13.0515 39.8349 13.1272 39.7886 13.2062L39.7202 13.3393L39.7109 13.3576L34.5258 24.5746C34.252 25.0523 34.1785 25.619 34.3212 26.1508C34.464 26.6826 34.8114 27.1364 35.2875 27.4129Z" fill="#569FD6"/>
<path d="M13.7332 9.16982C12.9027 9.1698 12.0908 8.92351 11.4003 8.4621C10.7098 8.00068 10.1716 7.34476 9.85379 6.57747C9.53598 5.81019 9.45285 4.96591 9.61488 4.15137C9.77691 3.33683 10.1768 2.58866 10.7641 2.00141C11.3514 1.41417 12.0996 1.01429 12.9141 0.852271C13.7286 0.690255 14.5729 0.773477 15.3402 1.0913C16.1075 1.40912 16.7633 1.94726 17.2247 2.6378C17.6861 3.32833 17.9323 4.14012 17.9323 4.97061C17.9324 5.52206 17.8238 6.06816 17.6127 6.57763C17.4017 7.08711 17.0924 7.55005 16.7025 7.93998C16.3126 8.32991 15.8496 8.63924 15.3402 8.85025C14.8307 9.06127 14.2846 9.16984 13.7332 9.16982Z" fill="#F47D39"/>
<path d="M0.374637 24.5859L6.81156 13.2396L6.82128 13.2205L6.89044 13.0861C6.93728 13.0064 6.98933 12.9298 7.04627 12.8569C7.47954 12.2153 8.06341 11.6895 8.74677 11.3256C9.43014 10.9617 10.1922 10.7705 10.9665 10.7691H16.501C17.2219 10.7706 17.933 10.9369 18.5799 11.2552C19.2267 11.5735 19.7923 12.0355 20.2333 12.6058C20.3836 12.7462 20.5123 12.908 20.6152 13.0861L27.1309 24.5859C27.2687 24.8247 27.358 25.0883 27.3939 25.3617C27.4298 25.6351 27.4115 25.9129 27.34 26.1792C27.2685 26.4455 27.1453 26.6952 26.9773 26.9139C26.8094 27.1326 26.6 27.316 26.3612 27.4537C26.1223 27.5915 25.8587 27.6808 25.5853 27.7167C25.3119 27.7525 25.0341 27.7342 24.7678 27.6628C24.5015 27.5913 24.2519 27.468 24.0332 27.3001C23.8146 27.1321 23.6311 26.9229 23.4934 26.684L20.046 21.1582L22.7194 34.5592C22.7636 34.7364 22.7658 34.9216 22.7258 35.0997C22.6857 35.2779 22.6045 35.4442 22.4887 35.5854C22.3729 35.7265 22.2257 35.8387 22.0588 35.9128C21.8919 35.9869 21.7099 36.0208 21.5275 36.0121H18.5456V44.1287C18.5442 44.6847 18.3223 45.2175 17.9287 45.6102C17.5351 46.0028 17.0019 46.2231 16.4459 46.2231C15.8899 46.2231 15.3566 46.0028 14.963 45.6102C14.5694 45.2175 14.3476 44.6847 14.3462 44.1287V36.0121H13.1217V44.1287C13.1217 44.6856 12.9005 45.2198 12.5067 45.6135C12.1129 46.0073 11.5788 46.2285 11.022 46.2285C10.4651 46.2285 9.93102 46.0073 9.53725 45.6135C9.14348 45.2198 8.92229 44.6856 8.92229 44.1287V36.0121H5.97823C5.79583 36.0209 5.61389 35.9869 5.44699 35.9128C5.2801 35.8387 5.13288 35.7266 5.01707 35.5854C4.90127 35.4442 4.82012 35.2777 4.7801 35.0996C4.74009 34.9214 4.7423 34.7364 4.7866 34.5592L7.45956 21.1582L4.01218 26.684C3.87442 26.9229 3.69095 27.1321 3.47227 27.3001C3.25359 27.468 3.00398 27.5913 2.73768 27.6628C2.47137 27.7342 2.19359 27.7525 1.92021 27.7167C1.64682 27.6808 1.38318 27.5915 1.14434 27.4537C0.905489 27.316 0.696111 27.1326 0.528165 26.9139C0.36022 26.6952 0.236985 26.4455 0.165508 26.1792C0.0940314 25.9129 0.0757286 25.6351 0.111602 25.3617C0.147476 25.0883 0.236875 24.8247 0.374637 24.5859Z" fill="#F47D39"/>
</svg>
