<svg width="127" height="86" viewBox="0 0 127 86" fill="none" xmlns="http://www.w3.org/2000/svg">
<g clip-path="url(#clip0_1331_2823)">
<g clip-path="url(#clip1_1331_2823)">
<mask id="mask0_1331_2823" style="mask-type:luminance" maskUnits="userSpaceOnUse" x="-1" y="0" width="127" height="86">
<path d="M126 0H-1V86H126V0Z" fill="white"/>
</mask>
<g mask="url(#mask0_1331_2823)">
<path d="M125.056 0.940918H17.9297V67.1089H125.056V0.940918Z" fill="white"/>
<path d="M125.056 68.05H17.9296C17.8059 68.0502 17.6833 68.026 17.5689 67.9789C17.4545 67.9317 17.3506 67.8624 17.2629 67.775C17.1753 67.6876 17.1058 67.5838 17.0584 67.4695C17.0109 67.3552 16.9864 67.2327 16.9863 67.109V0.940997C16.9863 0.817419 17.0107 0.69507 17.0581 0.58095C17.1056 0.466831 17.1751 0.363194 17.2626 0.276003C17.4398 0.0995352 17.6796 0.000315112 17.9296 2.46088e-06H125.056C125.18 -0.000282613 125.303 0.0242028 125.417 0.0720087C125.532 0.118654 125.636 0.188043 125.723 0.276003C125.811 0.36297 125.881 0.466561 125.928 0.580737C125.975 0.694912 125.999 0.817379 125.999 0.940997V67.109C125.999 67.2326 125.975 67.3551 125.928 67.4693C125.881 67.5834 125.811 67.687 125.723 67.774C125.636 67.862 125.532 67.9314 125.417 67.978C125.303 68.0258 125.18 68.0503 125.056 68.05ZM18.8729 66.167H124.113V1.883H18.8729V66.167Z" fill="#5DACE7"/>
<path d="M116.064 9.91699H8.9375V76.084H116.064V9.91699Z" fill="white"/>
<path d="M116.064 77.0251H8.93743C8.81368 77.0253 8.6911 77.0012 8.57669 76.954C8.46229 76.9068 8.35831 76.8375 8.27069 76.7502C8.18308 76.6628 8.11356 76.5589 8.06611 76.4447C8.01866 76.3304 7.9942 76.2078 7.99414 76.0841V9.91609C7.99411 9.79252 8.0185 9.67015 8.06591 9.55603C8.11331 9.44191 8.1828 9.33828 8.27038 9.2511C8.44754 9.0746 8.68735 8.97537 8.93743 8.9751H116.064C116.314 8.9749 116.553 9.07391 116.73 9.25037C116.907 9.42682 117.007 9.66628 117.007 9.91609V76.0841C117.006 76.3338 116.907 76.5731 116.73 76.7495C116.553 76.9258 116.314 77.025 116.064 77.0251ZM9.8807 75.1421H115.121V10.8581H9.8807V75.1421Z" fill="#5DACE7"/>
<path d="M107.07 18.8921H-0.0566406V85.0591H107.07V18.8921Z" fill="white"/>
<path d="M107.07 86H-0.0567092C-0.180459 86.0002 -0.303043 85.976 -0.417448 85.9289C-0.531853 85.8817 -0.635835 85.8124 -0.723445 85.725C-0.811056 85.6376 -0.880577 85.5338 -0.928031 85.4195C-0.975485 85.3052 -0.99994 85.1827 -0.999999 85.059V18.892C-1.00016 18.7682 -0.975831 18.6457 -0.928421 18.5314C-0.881011 18.4171 -0.811455 18.3133 -0.723759 18.226C-0.546602 18.0495 -0.306818 17.9503 -0.0567592 17.95H107.07C107.194 17.9499 107.316 17.9741 107.431 18.0214C107.545 18.0687 107.649 18.1381 107.737 18.2256C107.824 18.3131 107.894 18.4169 107.941 18.5313C107.989 18.6456 108.013 18.7682 108.013 18.892V85.059C108.013 85.1826 107.989 85.3049 107.941 85.419C107.869 85.5909 107.748 85.7378 107.593 85.8412C107.438 85.9446 107.256 85.9998 107.07 86ZM0.886571 84.117H106.127V19.8329H0.886571V84.117Z" fill="#5DACE7"/>
<path d="M90.9108 79.722H16.102C15.9781 79.7225 15.8553 79.6983 15.7408 79.651C15.6262 79.6036 15.5223 79.5339 15.4349 79.446C15.3473 79.3589 15.2778 79.2552 15.2304 79.1411C15.183 79.027 15.1586 78.9046 15.1587 78.781C15.1538 76.4173 14.2114 74.1521 12.5382 72.4825C10.8651 70.8128 8.59799 69.8751 6.2343 69.875C5.98421 69.8747 5.7444 69.7755 5.5672 69.599C5.47951 69.5117 5.40997 69.4079 5.36257 69.2936C5.31517 69.1793 5.29085 69.0568 5.29102 68.933V35.017C5.29099 34.8933 5.31538 34.7707 5.36281 34.6564C5.41023 34.542 5.47975 34.4382 5.56737 34.3508C5.655 34.2634 5.75902 34.1941 5.87346 34.1469C5.9879 34.0998 6.11052 34.0757 6.2343 34.076C8.59803 34.0755 10.8651 33.1375 12.5381 31.4677C14.2111 29.798 15.1536 27.5328 15.1587 25.169C15.1594 24.9193 15.2591 24.68 15.4359 24.5036C15.6127 24.3273 15.8523 24.2281 16.102 24.228H90.9108C91.0345 24.2278 91.1571 24.252 91.2715 24.2992C91.3859 24.3464 91.4899 24.4156 91.5775 24.503C91.6651 24.5904 91.7346 24.6942 91.7821 24.8085C91.8295 24.9228 91.854 25.0453 91.8541 25.169C91.8591 27.5327 92.8014 29.7979 94.4744 31.4677C96.1473 33.1375 98.4143 34.0755 100.778 34.076C100.902 34.0754 101.025 34.0996 101.139 34.147C101.37 34.2426 101.554 34.426 101.65 34.657C101.697 34.7712 101.721 34.8935 101.721 35.017V68.933C101.721 69.0568 101.697 69.1795 101.65 69.294C101.602 69.4082 101.533 69.5118 101.445 69.599C101.268 69.7755 101.028 69.8747 100.778 69.875C98.4143 69.8751 96.1473 70.8128 94.4742 72.4825C92.8012 74.1522 91.8589 76.4174 91.8541 78.781C91.8535 78.9673 91.798 79.1492 91.6944 79.304C91.5908 79.4588 91.4438 79.5795 91.2718 79.651C91.1572 79.698 91.0346 79.7221 90.9108 79.722ZM17.0043 77.839H90.0085C90.2358 75.3113 91.3447 72.944 93.141 71.1512C94.9373 69.3585 97.3069 68.2543 99.835 68.032V35.918C97.3068 35.6957 94.9373 34.5916 93.141 32.7988C91.3447 31.006 90.2358 28.6387 90.0085 26.111H17.0043C16.7769 28.6387 15.668 31.006 13.8716 32.7988C12.0752 34.5916 9.70574 35.6957 7.17759 35.918V68.032C9.70574 68.2544 12.0752 69.3585 13.8716 71.1513C15.668 72.944 16.7769 75.3113 17.0043 77.839Z" fill="#5DACE7"/>
<path d="M21.4664 55.5919C22.1814 55.5904 22.88 55.377 23.4738 54.9786C24.0676 54.5803 24.53 54.0149 24.8026 53.3538C25.0752 52.6928 25.1458 51.9657 25.0054 51.2646C24.8649 50.5635 24.5199 49.9197 24.0137 49.4146C23.5076 48.9095 22.8631 48.5658 22.1616 48.4269C21.4602 48.2879 20.7334 48.36 20.0729 48.634C19.4124 48.9079 18.848 49.3715 18.4508 49.9662C18.0537 50.5608 17.8418 51.2599 17.8418 51.9749C17.8423 52.4504 17.9364 52.9211 18.1188 53.3603C18.3012 53.7994 18.5683 54.1983 18.9049 54.5342C19.2415 54.87 19.6409 55.1363 20.0805 55.3178C20.52 55.4993 20.9909 55.5924 21.4664 55.5919Z" fill="white"/>
<path d="M21.4666 56.534C20.4094 56.5343 19.3849 56.168 18.5676 55.4975C17.7502 54.827 17.1907 53.8938 16.9844 52.857C16.778 51.8201 16.9376 50.7438 17.4359 49.8115C17.9342 48.8791 18.7405 48.1484 19.7172 47.7439C20.6939 47.3394 21.7807 47.2861 22.7923 47.5932C23.8039 47.9002 24.6777 48.5485 25.2648 49.4276C25.852 50.3067 26.1161 51.3623 26.0122 52.4143C25.9082 53.4663 25.4427 54.4498 24.6949 55.197C23.8376 56.0516 22.677 56.5323 21.4666 56.534ZM21.4666 49.299C20.846 49.2988 20.2446 49.5138 19.7648 49.9074C19.285 50.3009 18.9565 50.8487 18.8353 51.4573C18.7141 52.0659 18.8077 52.6977 19.1002 53.2451C19.3927 53.7924 19.8659 54.2214 20.4392 54.4589C21.0126 54.6964 21.6505 54.7277 22.2443 54.5475C22.8382 54.3673 23.3512 53.9868 23.6959 53.4708C24.0406 52.9548 24.1957 52.3352 24.1347 51.7176C24.0737 51.1001 23.8005 50.5227 23.3616 50.084C22.8586 49.582 22.1772 49.2998 21.4666 49.299Z" fill="#5DACE7"/>
<path d="M85.5465 55.5919C86.2617 55.5905 86.9604 55.3772 87.5544 54.9788C88.1483 54.5804 88.6109 54.0149 88.8836 53.3538C89.1563 52.6926 89.2269 51.9654 89.0865 51.2642C88.9461 50.5629 88.6009 49.919 88.0947 49.4138C87.5884 48.9086 86.9438 48.5648 86.2422 48.4259C85.5406 48.2869 84.8136 48.359 84.153 48.6331C83.4924 48.9072 82.9279 49.371 82.5308 49.9658C82.1337 50.5606 81.9218 51.2598 81.9219 51.975C81.923 52.9352 82.3055 53.8557 82.9852 54.534C83.6649 55.2123 84.5862 55.5928 85.5465 55.5919Z" fill="white"/>
<path d="M85.5466 56.5339C84.4894 56.5341 83.4649 56.1677 82.6475 55.4972C81.8302 54.8266 81.2707 53.8934 81.0644 52.8565C80.8581 51.8196 81.0177 50.7433 81.5161 49.8109C82.0145 48.8786 82.8207 48.1479 83.7975 47.7434C84.7743 47.3389 85.8611 47.2857 86.8727 47.5927C87.8843 47.8998 88.7581 48.5481 89.3453 49.4273C89.9324 50.3065 90.1965 51.362 90.0926 52.4141C89.9886 53.4662 89.5231 54.4496 88.7752 55.1969C87.9183 56.0522 86.7573 56.533 85.5466 56.5339ZM85.5466 49.2989C84.9264 49.2991 84.3255 49.5144 83.8463 49.908C83.3671 50.3016 83.0391 50.8493 82.9184 51.4576C82.7977 52.0659 82.8916 52.6972 83.1842 53.244C83.4768 53.7908 83.9499 54.2193 84.523 54.4563C85.0961 54.6934 85.7336 54.7244 86.327 54.5441C86.9204 54.3637 87.4329 53.9832 87.7771 53.4674C88.1214 52.9516 88.2762 52.3323 88.2151 51.7152C88.1539 51.098 87.8807 50.5212 87.4419 50.0829C86.9387 49.5811 86.2572 49.2992 85.5466 49.2989Z" fill="#5DACE7"/>
<path d="M65.7842 42.9967C64.6558 41.8682 63.1257 41.2335 61.5299 41.2319H56.0676C55.9095 41.2319 55.7529 41.263 55.6068 41.3235C55.4608 41.3839 55.328 41.4726 55.2162 41.5844C55.1044 41.6962 55.0158 41.8289 54.9553 41.975C54.8948 42.1211 54.8637 42.2777 54.8637 42.4358V61.5133C54.8636 61.6714 54.8947 61.828 54.9552 61.9742C55.0156 62.1203 55.1043 62.253 55.2161 62.3648C55.3279 62.4766 55.4607 62.5653 55.6068 62.6258C55.7529 62.6862 55.9095 62.7173 56.0676 62.7172H61.5299C63.1258 62.7154 64.6558 62.0807 65.7843 60.9522C66.9128 59.8237 67.5475 58.2937 67.5492 56.6978V47.2514C67.5476 45.6554 66.9128 44.1252 65.7842 42.9967ZM65.1415 56.6977C65.1405 57.6553 64.7596 58.5733 64.0825 59.2504C63.4054 59.9275 62.4874 60.3084 61.5299 60.3094H57.2715V43.6396H61.5299C62.4874 43.6407 63.4055 44.0216 64.0825 44.6987C64.7596 45.3758 65.1405 46.2938 65.1415 47.2514V56.6977ZM46.4787 52.1726L51.9595 43.4739C52.1298 43.2039 52.1858 42.8773 52.1152 42.566C52.0447 42.2547 51.8534 41.9841 51.5834 41.8139C51.3133 41.6436 50.9868 41.5876 50.6755 41.6582C50.3642 41.7287 50.0936 41.9201 49.9234 42.1901L44.392 50.9688H41.8687V42.832C41.8687 42.5127 41.7419 42.2064 41.5161 41.9807C41.2903 41.7549 40.9841 41.6281 40.6648 41.6281C40.3455 41.6281 40.0393 41.7549 39.8135 41.9807C39.5878 42.2064 39.4609 42.5127 39.4609 42.832V61.5133C39.4609 61.8326 39.5878 62.1388 39.8135 62.3646C40.0393 62.5903 40.3455 62.7172 40.6648 62.7172C40.9841 62.7172 41.2903 62.5903 41.5161 62.3646C41.7419 62.1388 41.8687 61.8326 41.8687 61.5133V53.3765H44.3921L49.9236 62.1553C50.0942 62.4245 50.3646 62.615 50.6755 62.685C50.9864 62.7551 51.3124 62.699 51.582 62.529C51.8516 62.359 52.0427 62.089 52.1135 61.7783C52.1843 61.4676 52.129 61.1414 51.9597 60.8714L46.4787 52.1726Z" fill="#5DACE7"/>
</g>
</g>
</g>
<defs>
<clipPath id="clip0_1331_2823">
<rect width="127" height="86" fill="white"/>
</clipPath>
<clipPath id="clip1_1331_2823">
<rect width="126.999" height="86" fill="white" transform="translate(-1)"/>
</clipPath>
</defs>
</svg>
