<svg width="120" height="92" viewBox="0 0 120 92" fill="none" xmlns="http://www.w3.org/2000/svg">
<mask id="mask0_1331_2846" style="mask-type:luminance" maskUnits="userSpaceOnUse" x="0" y="0" width="120" height="92">
<path d="M120 0H0V92H120V0Z" fill="white"/>
</mask>
<g mask="url(#mask0_1331_2846)">
<path fill-rule="evenodd" clip-rule="evenodd" d="M30.5455 50.5239L44.7813 49.8893C53.7196 49.8893 58.1518 53.3115 65.3251 58.1753H85.1393C86.8208 58.1753 88.4335 58.8432 89.6226 60.0323C90.8116 61.2213 91.4796 62.834 91.4796 64.5156C91.4796 66.1971 90.8116 67.8098 89.6226 68.9988C88.4335 70.1879 86.8208 70.8559 85.1393 70.8559H65.332M90.6207 61.3277L107.613 53.1342C116.669 49.7456 122.766 59.5787 116.274 66.5235C100.796 75.5761 84.2873 84.1201 76.069 88.6989C72.0602 90.9312 67.3482 91.5418 62.9028 90.4049L31.2013 81.3246M1.0332 46.723L30.2812 44.7354L31.5791 86.943L2.3311 88.9189L1.0332 46.723Z" fill="white"/>
<path d="M67.3626 92C65.7722 91.9993 64.1882 91.7997 62.6474 91.406L32.4837 82.7671L32.6113 86.912C32.6193 87.1792 32.5235 87.4391 32.344 87.6371C32.1645 87.8351 31.9152 87.9559 31.6485 87.974L2.40016 89.95C2.1209 89.9651 1.84689 89.8699 1.63708 89.685C1.53431 89.5916 1.45135 89.4785 1.39313 89.3524C1.33491 89.2263 1.30261 89.0898 1.29816 88.951L0.000463614 46.7541C-0.00753517 46.487 0.0882282 46.2273 0.267653 46.0293C0.447078 45.8313 0.696213 45.7106 0.962763 45.6924L30.2106 43.7051C30.49 43.6905 30.764 43.7856 30.9742 43.9703C31.0772 44.0635 31.1603 44.1766 31.2185 44.3027C31.2767 44.4288 31.3089 44.5654 31.3131 44.7043L31.4589 49.4503L44.7349 48.8584H44.7389C53.4894 48.8584 58.1531 52.0386 64.6093 56.4407L65.6427 57.1435H85.139C86.2661 57.1434 87.3782 57.4019 88.3897 57.899C89.4012 58.3961 90.2852 59.1187 90.9737 60.0111L107.164 52.2049C111.738 50.4868 116.17 51.6907 118.539 55.2358C120.551 58.2486 120.865 63.1257 117.028 67.2284C116.96 67.3018 116.882 67.3647 116.795 67.4149C106.217 73.6018 95.3394 79.4538 86.599 84.1555C82.6156 86.299 79.175 88.15 76.5715 89.6C73.757 91.1729 70.5868 91.9991 67.3626 92ZM32.4172 80.5993L63.1871 89.414C67.3681 90.4809 71.7992 89.9021 75.5659 87.797C78.183 86.339 81.6292 84.4852 85.6202 82.3375C94.3091 77.6631 105.114 71.8494 115.619 65.7099C118.782 62.2394 118.251 58.5248 116.82 56.3823C115.376 54.2205 112.292 52.4862 107.975 54.1015L91.9997 61.8088C92.4407 62.9271 92.6017 64.1363 92.4685 65.331C92.3354 66.5257 91.9122 67.6698 91.2358 68.6636C90.5594 69.6574 89.6503 70.4707 88.5877 71.0328C87.525 71.5949 86.3411 71.8888 85.139 71.8887H65.3315C65.0577 71.8887 64.795 71.7799 64.6014 71.5863C64.4078 71.3926 64.299 71.13 64.299 70.8562C64.299 70.5823 64.4078 70.3197 64.6014 70.1261C64.795 69.9325 65.0577 69.8237 65.3315 69.8237H85.1389C86.5466 69.8237 87.8966 69.2645 88.8919 68.2691C89.8873 67.2738 90.4465 65.9237 90.4465 64.5161C90.4465 63.1084 89.8873 61.7584 88.8919 60.763C87.8966 59.7677 86.5466 59.2085 85.1389 59.2085H65.3245C65.1177 59.2082 64.9157 59.146 64.7445 59.03L63.4453 58.1468C57.0648 53.796 52.8499 50.9224 44.7808 50.9224L31.5224 51.5142L32.4172 80.5993ZM2.09604 47.6858L3.33019 87.818L30.5157 85.9805L30.3927 81.9675C30.2543 81.7933 30.1758 81.5792 30.1689 81.3568C30.1619 81.1344 30.227 80.9158 30.3543 80.7334L29.2811 45.8386L2.09604 47.6858Z" fill="#F47D39"/>
<path d="M78.6972 48.6531C83.406 48.6512 88.0085 47.2531 91.9229 44.6356C95.8372 42.0181 98.8875 38.2988 100.688 33.9478C102.489 29.5968 102.959 24.8097 102.039 20.1915C101.119 15.5734 98.8508 11.3317 95.5205 8.00273C92.1902 4.67375 87.9475 2.40699 83.329 1.48904C78.7105 0.571094 73.9235 1.04318 69.5733 2.84562C65.2231 4.64805 61.505 7.69989 58.8891 11.6153C56.2732 15.5307 54.877 20.1338 54.877 24.8426C54.8775 27.9701 55.4941 31.0669 56.6916 33.9561C57.889 36.8452 59.6437 39.4703 61.8556 41.6813C64.0676 43.8923 66.6933 45.646 69.583 46.8422C72.4727 48.0385 75.5697 48.6538 78.6972 48.6531Z" fill="white"/>
<path d="M78.6967 49.6853C72.94 49.6909 67.3595 47.6998 62.9065 44.0516C58.4534 40.4033 55.4035 35.3236 54.2764 29.6783C53.1493 24.033 54.015 18.1716 56.7258 13.0931C59.4365 8.01462 63.8246 4.0334 69.1422 1.82807C74.4597 -0.37726 80.3774 -0.670203 85.8867 0.999175C91.3961 2.66855 96.1559 6.19692 99.355 10.9829C102.554 15.7688 103.994 21.5161 103.43 27.2451C102.866 32.9741 100.333 38.3302 96.2621 42.4004C91.6037 47.0606 85.2858 49.6808 78.6967 49.6853ZM78.6967 2.06499C73.4187 2.06003 68.3023 3.88564 64.2197 7.23065C60.137 10.5757 57.3408 15.233 56.3076 20.4089C55.2744 25.5848 56.0682 30.9588 58.5537 35.6149C61.0392 40.271 65.0625 43.9211 69.9379 45.9429C74.8132 47.9647 80.2389 48.2332 85.29 46.7025C90.3412 45.1718 94.7052 41.9367 97.6381 37.5487C100.571 33.1607 101.892 27.8913 101.374 22.6387C100.857 17.3861 98.5343 12.4755 94.8018 8.74379C90.5306 4.47119 84.738 2.06898 78.6967 2.06499Z" fill="#F47D39"/>
<path d="M90.1146 16.4948C89.0654 15.4454 87.6428 14.8553 86.1589 14.8538H81.0799C80.9329 14.8537 80.7873 14.8826 80.6515 14.9389C80.5157 14.9951 80.3923 15.0775 80.2883 15.1815C80.1844 15.2854 80.1019 15.4089 80.0457 15.5447C79.9894 15.6805 79.9605 15.8261 79.9606 15.9731V33.7119C79.9605 33.8589 79.9894 34.0045 80.0456 34.1404C80.1018 34.2762 80.1842 34.3997 80.2882 34.5036C80.3922 34.6076 80.5156 34.6901 80.6515 34.7463C80.7873 34.8025 80.9329 34.8314 81.0799 34.8313H86.1589C87.6428 34.8296 89.0655 34.2394 90.1148 33.1901C91.164 32.1409 91.7542 30.7182 91.7558 29.2343V20.4509C91.7543 18.9669 91.1641 17.5441 90.1146 16.4948ZM89.5171 29.2343C89.5161 30.1246 89.162 30.9782 88.5324 31.6078C87.9028 32.2374 87.0492 32.5915 86.1589 32.5925H82.1993V17.0925H86.1589C87.0493 17.0935 87.9029 17.4477 88.5324 18.0773C89.162 18.7069 89.5161 19.5605 89.5171 20.4509V29.2343ZM72.164 25.0267L77.2601 16.9384C77.417 16.6874 77.468 16.3844 77.402 16.0959C77.336 15.8073 77.1584 15.5567 76.908 15.3988C76.6576 15.2409 76.3548 15.1887 76.066 15.2535C75.7772 15.3183 75.5258 15.495 75.3669 15.7447L70.2237 23.9073H67.8775V16.3416C67.8779 16.1943 67.8493 16.0484 67.7932 15.9122C67.7372 15.776 67.6548 15.6522 67.5508 15.5479C67.4468 15.4436 67.3233 15.3608 67.1872 15.3043C67.0512 15.2479 66.9054 15.2188 66.7581 15.2188C66.6108 15.2188 66.465 15.2479 66.3289 15.3043C66.1929 15.3608 66.0694 15.4436 65.9654 15.5479C65.8614 15.6522 65.779 15.776 65.7229 15.9122C65.6669 16.0484 65.6382 16.1943 65.6387 16.3416V33.7119C65.6382 33.8592 65.6669 34.0051 65.7229 34.1413C65.779 34.2775 65.8614 34.4013 65.9654 34.5056C66.0694 34.6099 66.1929 34.6926 66.3289 34.7491C66.465 34.8056 66.6108 34.8346 66.7581 34.8346C66.9054 34.8346 67.0512 34.8056 67.1872 34.7491C67.3233 34.6926 67.4468 34.6099 67.5508 34.5056C67.6548 34.4013 67.7372 34.2775 67.7932 34.1413C67.8493 34.0051 67.8779 33.8592 67.8775 33.7119V26.1462H70.2238L75.3671 34.3089C75.5256 34.5594 75.7771 34.7367 76.0663 34.802C76.3555 34.8672 76.6588 34.8151 76.9095 34.657C77.1603 34.4988 77.3381 34.2477 77.4039 33.9586C77.4696 33.6695 77.418 33.3662 77.2603 33.1151L72.164 25.0267Z" fill="#F47D39"/>
</g>
</svg>
