<svg width="30" height="7" viewBox="0 0 30 7" fill="none" xmlns="http://www.w3.org/2000/svg">
<path d="M3.10447 6.20893C4.81902 6.20893 6.20893 4.81902 6.20893 3.10447C6.20893 1.38992 4.81902 0 3.10447 0C1.38992 0 0 1.38992 0 3.10447C0 4.81902 1.38992 6.20893 3.10447 6.20893Z" fill="black"/>
<path d="M15 6.20893C16.7145 6.20893 18.1044 4.81902 18.1044 3.10447C18.1044 1.38992 16.7145 0 15 0C13.2854 0 11.8955 1.38992 11.8955 3.10447C11.8955 4.81902 13.2854 6.20893 15 6.20893Z" fill="black"/>
<path d="M26.8955 6.20893C28.61 6.20893 29.9999 4.81902 29.9999 3.10447C29.9999 1.38992 28.61 0 26.8955 0C25.1809 0 23.791 1.38992 23.791 3.10447C23.791 4.81902 25.1809 6.20893 26.8955 6.20893Z" fill="black"/>
</svg>
