<svg width="81" height="57" viewBox="0 0 81 57" fill="none" xmlns="http://www.w3.org/2000/svg">
<g clip-path="url(#clip0_656_4835)">
<path d="M39.0723 32.551C36.8135 28.0049 32.0883 26.2245 32.0883 26.2245L21.3035 24.3301L10.5189 26.2245C10.5189 26.2245 5.79365 28.0049 3.53504 32.551C1.70058 36.2432 1.31152 43.8408 1.31152 43.8408H41.2956C41.2956 43.8408 40.9066 36.2432 39.0723 32.551Z" fill="white"/>
<path d="M41.2957 44.4288H1.31158C1.23185 44.4288 1.15296 44.4126 1.0797 44.3811C1.00643 44.3497 0.940332 44.3036 0.88541 44.2458C0.830488 44.188 0.787891 44.1197 0.760211 44.0449C0.732531 43.9701 0.720343 43.8905 0.724391 43.8109C0.740475 43.4956 1.14103 36.048 3.00854 32.2894C5.34322 27.5908 10.1096 25.7505 10.3115 25.6747C10.3457 25.6618 10.3811 25.6521 10.4172 25.6457L21.2019 23.7512C21.2691 23.7392 21.3379 23.7392 21.4052 23.7512L32.1899 25.6457C32.2259 25.6521 32.2613 25.6618 32.2955 25.6747C32.4974 25.7505 37.2641 27.5908 39.5988 32.2894C41.4663 36.048 41.8668 43.4956 41.8829 43.8109C41.8869 43.8905 41.8748 43.9701 41.8471 44.0449C41.8194 44.1197 41.7768 44.188 41.7219 44.2458C41.667 44.3036 41.6009 44.3497 41.5276 44.3811C41.4543 44.4126 41.3754 44.4288 41.2957 44.4288ZM1.93952 43.2527H40.6677C40.5299 41.3846 40.0059 35.7522 38.5455 32.8131C36.5387 28.7738 32.4138 26.9921 31.9271 26.7937L21.3034 24.9273L10.6798 26.7937C10.1937 26.9921 6.06875 28.7738 4.0617 32.8131C2.60136 35.7522 2.07734 41.3846 1.93952 43.2527Z" fill="black"/>
<path d="M28.8333 23.5538C28.2794 23.1668 27.9011 22.5763 27.7809 21.9114C27.6607 21.2464 27.8084 20.5609 28.1918 20.0045C29.803 17.5359 30.6285 14.6371 30.5595 11.69C30.5595 1.84248 23.5479 1.32812 21.3035 1.32812C19.0589 1.32812 12.0473 1.84248 12.0473 11.69C11.9783 14.6371 12.8039 17.5358 14.4151 20.0044C14.7985 20.5608 14.9463 21.2464 14.8261 21.9113C14.7059 22.5763 14.3276 23.1668 13.7736 23.5538L9.90723 26.2246C14.1518 30.3699 21.3035 30.2781 21.3035 30.2781C21.3035 30.2781 28.455 30.3699 32.6995 26.2246L28.8333 23.5538Z" fill="white"/>
<path d="M21.3644 30.8671H21.2297C20.4441 30.8671 13.691 30.7425 9.49658 26.6456C9.43448 26.585 9.38657 26.5114 9.35629 26.4301C9.32601 26.3488 9.31411 26.2618 9.32144 26.1753C9.32877 26.0889 9.35515 26.0051 9.39868 25.93C9.44222 25.8549 9.50184 25.7905 9.57326 25.7412L13.4395 23.0703C13.6516 22.9228 13.8326 22.735 13.972 22.5175C14.1113 22.2999 14.2064 22.057 14.2517 21.8027C14.297 21.5484 14.2916 21.2876 14.2359 21.0354C14.1802 20.7831 14.0752 20.5443 13.927 20.3327C12.2516 17.7668 11.3914 14.7541 11.4594 11.6903C11.4594 1.80722 18.3437 0.740234 21.3038 0.740234C24.2635 0.740234 31.1475 1.80722 31.1475 11.6903C31.2155 14.7542 30.3553 17.7669 28.6799 20.333C28.5318 20.5446 28.4269 20.7834 28.3712 21.0356C28.3155 21.2879 28.3102 21.5486 28.3555 21.8029C28.4009 22.0572 28.4959 22.3001 28.6353 22.5176C28.7747 22.735 28.9556 22.9229 29.1678 23.0703L33.034 25.7412C33.1054 25.7905 33.1651 25.855 33.2086 25.93C33.2521 26.0051 33.2785 26.0889 33.2858 26.1753C33.2932 26.2618 33.2813 26.3488 33.251 26.4301C33.2207 26.5114 33.1728 26.585 33.1107 26.6456C28.916 30.7419 22.164 30.8671 21.3644 30.8671ZM21.2966 29.6904C21.3753 29.6881 27.6919 29.7243 31.7563 26.2879L28.4993 24.0379C28.1602 23.8043 27.8704 23.506 27.6468 23.1602C27.4231 22.8143 27.27 22.4277 27.196 22.0226C27.1221 21.6174 27.1289 21.2017 27.216 20.7992C27.3032 20.3966 27.4689 20.0153 27.7037 19.6769C29.2476 17.3043 30.0381 14.5203 29.9715 11.6903C29.9715 3.18603 24.5409 1.91633 21.3038 1.91633C18.0664 1.91633 12.6355 3.18603 12.6355 11.6903C12.5688 14.5201 13.3593 17.3039 14.9033 19.6764C15.1382 20.0147 15.3039 20.3961 15.3911 20.7987C15.4782 21.2012 15.485 21.6171 15.4111 22.0223C15.3372 22.4275 15.1841 22.8141 14.9605 23.16C14.7368 23.5059 14.4471 23.8042 14.108 24.0379L10.851 26.2879C14.9122 29.722 21.2283 29.6852 21.2966 29.6904Z" fill="black"/>
<path d="M21.3037 21.4274C20.1937 21.4274 14.8027 19.5455 14.8027 11.904C14.8027 4.26247 19.7273 3.86328 21.3037 3.86328C22.8802 3.86328 27.8047 4.26248 27.8047 11.904C27.8047 19.5455 22.4137 21.4274 21.3037 21.4274Z" fill="white"/>
<path d="M21.3039 22.0157C20.2021 22.0157 14.2148 20.151 14.2148 11.9043C14.2148 4.11612 19.1725 3.27539 21.3039 3.27539C23.4353 3.27539 28.3929 4.11612 28.3929 11.9043C28.3929 20.151 22.4056 22.0157 21.3039 22.0157ZM21.3039 4.45149C19.0955 4.45149 15.3909 5.4197 15.3909 11.9043C15.3909 19.1739 20.5286 20.8396 21.3039 20.8396C22.0791 20.8396 27.2168 19.1739 27.2168 11.9043C27.2168 5.4197 23.5122 4.45149 21.3039 4.45149Z" fill="black"/>
<path d="M15.3789 8.26209C17.2691 6.44773 20.1014 6.30762 21.3034 6.30762C22.5662 6.30762 25.4943 6.32818 27.3731 8.41654" fill="white"/>
<path d="M27.3733 9.00481C27.2908 9.00491 27.2092 8.98764 27.1338 8.9541C27.0584 8.92055 26.9909 8.8715 26.9357 8.81014C25.2141 6.89582 22.4737 6.89582 21.3033 6.89582C19.6374 6.89582 17.328 7.2065 15.7861 8.68638C15.7304 8.73985 15.6647 8.78184 15.5928 8.80992C15.5209 8.83801 15.4441 8.85166 15.3669 8.85008C15.2897 8.84851 15.2136 8.83172 15.1429 8.80073C15.0722 8.76974 15.0083 8.72513 14.9548 8.66944C14.9014 8.61375 14.8594 8.54808 14.8313 8.47617C14.8032 8.40425 14.7896 8.32749 14.7911 8.2503C14.7927 8.17311 14.8095 8.09701 14.8405 8.0263C14.8715 7.95559 14.9161 7.89166 14.9718 7.83819C16.4155 6.4522 18.6049 5.71973 21.3033 5.71973C22.5162 5.71973 25.7381 5.71973 27.8103 8.02339C27.8864 8.10788 27.9363 8.21258 27.9541 8.32485C27.9718 8.43711 27.9567 8.55215 27.9104 8.65598C27.8642 8.75982 27.7888 8.848 27.6935 8.90991C27.5982 8.97183 27.487 9.0048 27.3733 9.00481Z" fill="black"/>
<path d="M15.9779 29.5068C16.3848 34.2874 16.2228 39.0994 15.4951 43.8418L15.9779 29.5068Z" fill="white"/>
<path d="M15.4958 44.4292C15.4626 44.4291 15.4295 44.4264 15.3967 44.4212C15.243 44.395 15.106 44.3088 15.0158 44.1816C14.9255 44.0545 14.8895 43.8967 14.9155 43.743C15.6298 39.0524 15.7902 34.2941 15.3933 29.5661C15.3775 29.4109 15.424 29.2559 15.5224 29.135C15.6209 29.0141 15.7633 28.9372 15.9184 28.9212C16.0731 28.9078 16.2269 28.9551 16.3473 29.0532C16.4676 29.1513 16.545 29.2924 16.563 29.4466C16.9698 34.28 16.8059 39.1444 16.0749 43.9394C16.0518 44.0763 15.9809 44.2005 15.8749 44.2902C15.7689 44.3798 15.6346 44.4291 15.4958 44.4292Z" fill="black"/>
<path d="M26.653 29.5068C26.2461 34.2874 26.4081 39.0994 27.1358 43.8418L26.653 29.5068Z" fill="white"/>
<path d="M27.1353 44.4292C26.9965 44.4291 26.8622 44.3798 26.7562 44.2901C26.6502 44.2005 26.5793 44.0762 26.5562 43.9393C25.8252 39.1443 25.6615 34.2799 26.0683 29.4466C26.076 29.3697 26.0988 29.295 26.1354 29.2268C26.1719 29.1587 26.2216 29.0985 26.2815 29.0496C26.3414 29.0007 26.4103 28.964 26.4844 28.9418C26.5584 28.9196 26.6362 28.9122 26.7131 28.92C26.79 28.9279 26.8646 28.9508 26.9327 28.9876C27.0007 29.0243 27.0609 29.0741 27.1096 29.1341C27.1584 29.1941 27.1948 29.2632 27.2169 29.3373C27.2389 29.4114 27.2461 29.4891 27.2381 29.566C26.841 34.2941 27.0013 39.0524 27.7156 43.7429C27.7416 43.8967 27.7056 44.0544 27.6153 44.1816C27.5251 44.3088 27.3881 44.3949 27.2344 44.4211C27.2016 44.4264 27.1685 44.429 27.1353 44.4292Z" fill="black"/>
<path d="M47.8676 35.6594H49.709C50.4635 35.6672 51.1928 35.3874 51.7484 34.8768C54.7225 32.0707 57.1832 25.5318 55.9897 21.2119H41.4908C40.4818 25.5033 42.9486 32.1623 45.8363 34.8835C46.3903 35.3906 47.1165 35.668 47.8676 35.6594Z" fill="white"/>
<path d="M49.7091 36.2478H47.8678C46.9664 36.2587 46.0951 35.9237 45.4332 35.3117C42.4573 32.507 39.8369 25.6784 40.9186 21.0774C40.9489 20.9484 41.022 20.8334 41.1259 20.7511C41.2299 20.6688 41.3585 20.624 41.4911 20.624H55.9899C56.1186 20.624 56.2437 20.6662 56.3461 20.7442C56.4485 20.8221 56.5224 20.9315 56.5567 21.0556C57.8229 25.6382 55.2758 32.3583 52.1521 35.3048C51.4886 35.9205 50.6142 36.258 49.7091 36.2478ZM41.9718 21.8001C41.2614 25.959 43.6446 32.0097 46.24 34.4561C46.6857 34.8589 47.267 35.0787 47.8678 35.0717H49.7091C50.3134 35.078 50.8977 34.8556 51.3449 34.4492C54.0701 31.8782 56.3982 25.9205 55.5279 21.8001H41.9718Z" fill="black"/>
<path d="M58.1583 38.5518C56.4146 40.1901 52.8754 41.3121 48.7897 41.3121C44.7039 41.3121 41.1647 40.1901 39.421 38.5518C33.9285 39.2117 28.1836 43.8846 28.1836 49.5551V55.6386H69.3958V49.5551C69.3957 43.8846 63.6508 39.2117 58.1583 38.5518Z" fill="white"/>
<path d="M69.3959 56.2265H28.1838C28.1065 56.2265 28.03 56.2114 27.9587 56.1818C27.8873 56.1523 27.8225 56.1089 27.7679 56.0543C27.7133 55.9997 27.67 55.9349 27.6404 55.8635C27.6109 55.7922 27.5957 55.7157 27.5957 55.6385V49.5547C27.5957 43.4686 33.674 38.65 39.3512 37.9672C39.4366 37.9569 39.5232 37.9655 39.6048 37.9924C39.6865 38.0193 39.7613 38.0638 39.8238 38.1228C41.5056 39.7026 45.0249 40.7237 48.7898 40.7237C52.555 40.7237 56.0744 39.7026 57.7561 38.1228C57.8186 38.0637 57.8934 38.0191 57.9751 37.9922C58.0568 37.9653 58.1434 37.9568 58.2287 37.9672C63.9056 38.65 69.984 43.4686 69.984 49.5547V55.6385C69.984 55.7157 69.9688 55.7922 69.9392 55.8635C69.9097 55.9349 69.8664 55.9997 69.8118 56.0543C69.7572 56.1089 69.6923 56.1523 69.621 56.1818C69.5496 56.2114 69.4731 56.2265 69.3959 56.2265ZM28.7718 55.0504H68.8079V49.5547C68.8079 44.2663 63.3503 39.8967 58.3496 39.1697C56.377 40.8592 52.7537 41.8998 48.7898 41.8998C44.8263 41.8998 41.2029 40.8592 39.2303 39.1697C34.2293 39.8967 28.7718 44.2663 28.7718 49.5547V55.0504Z" fill="black"/>
<path d="M57.5047 19.3939C57.9651 13.5786 52.5686 12.16 48.7894 12.1919C45.0101 12.16 39.6136 13.5786 40.074 19.3939C32.3959 30.1594 37.8409 32.8273 33.2588 41.3116C33.2588 41.3116 43.7244 43.8058 42.391 31.5511L41.9554 22.7871C46.411 21.4348 51.1677 21.4348 55.6234 22.7871L55.1877 31.5511C54.2472 44.2535 64.3199 41.3116 64.3199 41.3116C59.7378 32.8273 65.1828 30.1594 57.5047 19.3939Z" fill="white"/>
<path d="M61.9575 42.1985C60.2893 42.2476 58.6549 41.7212 57.329 40.7077C55.195 38.9809 54.2773 35.8856 54.6015 31.508L55.0129 23.2248C50.9439 22.0733 46.6351 22.0732 42.566 23.2245L42.9783 31.5223C43.4223 35.5922 42.6289 38.5726 40.6172 40.3459C37.683 42.933 33.3074 41.9275 33.1225 41.8838C33.0348 41.8629 32.9531 41.822 32.8837 41.7644C32.8143 41.7069 32.759 41.6342 32.7222 41.5519C32.6854 41.4696 32.668 41.3799 32.6713 41.2898C32.6746 41.1997 32.6986 41.1115 32.7415 41.0322C34.6629 37.4746 34.7603 35.0099 34.8634 32.4004C34.9998 28.9387 35.141 25.3611 39.473 19.2247C39.3827 18.3291 39.4807 17.4245 39.7609 16.569C40.0411 15.7136 40.4972 14.9263 41.0999 14.2576C43.3685 11.823 47.2428 11.5882 48.7942 11.6042C50.3453 11.5907 54.2101 11.8233 56.479 14.2579C57.0816 14.9265 57.5377 15.7138 57.8178 16.5692C58.098 17.4246 58.196 18.3292 58.1056 19.2247C62.4379 25.3611 62.5789 28.9393 62.7155 32.4004C62.8186 35.0099 62.916 37.4746 64.8374 41.0322C64.8792 41.1093 64.9031 41.1948 64.9075 41.2825C64.9119 41.3701 64.8966 41.4575 64.8628 41.5385C64.829 41.6194 64.7775 41.6918 64.7121 41.7502C64.6467 41.8087 64.5691 41.8518 64.4848 41.8764C63.66 42.0933 62.8104 42.2017 61.9575 42.1985ZM48.7893 21.185C51.163 21.2097 53.522 21.5602 55.8003 22.2267C55.9243 22.2658 56.0319 22.3449 56.1061 22.4517C56.1804 22.5585 56.2171 22.6869 56.2106 22.8168L55.775 31.5809C55.4801 35.5652 56.2522 38.3234 58.0689 39.7935C59.8606 41.2429 62.2639 41.0885 63.4432 40.8973C61.7382 37.4568 61.6377 34.9123 61.5403 32.447C61.4094 29.126 61.2739 25.6916 57.026 19.7356C56.9456 19.623 56.9074 19.4856 56.9184 19.3477C57.0214 18.5815 56.9587 17.8022 56.7344 17.0624C56.5102 16.3226 56.1296 15.6396 55.6185 15.0596C53.6674 12.9661 50.1816 12.7625 48.7942 12.7803C47.3741 12.7686 43.9104 12.9667 41.9604 15.0596C41.4492 15.6395 41.0686 16.3225 40.8443 17.0623C40.62 17.8021 40.5572 18.5815 40.6603 19.3477C40.6712 19.4856 40.6331 19.623 40.5526 19.7356C36.3051 25.6913 36.1695 29.1254 36.0383 32.447C35.9416 34.9037 35.8413 37.4385 34.1539 40.8605C35.4273 41.0075 38.031 41.0627 39.8446 39.4593C41.5487 37.9524 42.2091 35.3137 41.8065 31.6154L41.3684 22.8168C41.3618 22.6869 41.3986 22.5585 41.4728 22.4517C41.5471 22.3449 41.6546 22.2658 41.7787 22.2267C44.0569 21.5602 46.4158 21.2097 48.7893 21.185Z" fill="black"/>
<path d="M57.1005 18.1507H40.425C40.269 18.1507 40.1194 18.0887 40.0091 17.9785C39.8989 17.8682 39.8369 17.7186 39.8369 17.5627C39.8369 17.4067 39.8989 17.2571 40.0091 17.1469C40.1194 17.0366 40.269 16.9746 40.425 16.9746H57.1005C57.2564 16.9746 57.406 17.0366 57.5163 17.1469C57.6266 17.2571 57.6885 17.4067 57.6885 17.5627C57.6885 17.7186 57.6266 17.8682 57.5163 17.9785C57.406 18.0887 57.2564 18.1507 57.1005 18.1507Z" fill="black"/>
<path d="M57.1005 20.096H40.425C40.269 20.096 40.1194 20.0341 40.0091 19.9238C39.8989 19.8135 39.8369 19.6639 39.8369 19.508C39.8369 19.352 39.8989 19.2024 40.0091 19.0922C40.1194 18.9819 40.269 18.9199 40.425 18.9199H57.1005C57.2564 18.9199 57.406 18.9819 57.5163 19.0922C57.6266 19.2024 57.6885 19.352 57.6885 19.508C57.6885 19.6639 57.6266 19.8135 57.5163 19.9238C57.406 20.0341 57.2564 20.096 57.1005 20.096Z" fill="black"/>
<path d="M52.7809 34.0161C51.4248 33.9536 50.1306 33.4306 49.1119 32.5334C49.0137 32.4517 48.8901 32.407 48.7624 32.407C48.6348 32.407 48.5111 32.4517 48.413 32.5334C47.3943 33.4305 46.1002 33.9535 44.7443 34.0161C44.5883 34.0161 44.4388 33.9542 44.3285 33.8439C44.2182 33.7336 44.1562 33.584 44.1562 33.4281C44.1562 33.2721 44.2182 33.1225 44.3285 33.0123C44.4388 32.902 44.5883 32.84 44.7443 32.84C45.8277 32.7751 46.8576 32.3465 47.6673 31.6237C47.9767 31.3719 48.3635 31.2344 48.7624 31.2344C49.1614 31.2344 49.5481 31.3719 49.8576 31.6237C50.6673 32.3466 51.6973 32.7752 52.7809 32.84C52.9368 32.84 53.0864 32.902 53.1967 33.0123C53.307 33.1225 53.3689 33.2721 53.3689 33.4281C53.3689 33.584 53.307 33.7336 53.1967 33.8439C53.0864 33.9542 52.9368 34.0161 52.7809 34.0161Z" fill="black"/>
<path d="M35.7033 56.2269C35.6261 56.2269 35.5496 56.2117 35.4782 56.1822C35.4069 56.1526 35.342 56.1093 35.2874 56.0547C35.2328 56.0001 35.1895 55.9352 35.16 55.8639C35.1304 55.7925 35.1152 55.7161 35.1152 55.6388V48.4709C35.1152 48.3149 35.1772 48.1653 35.2875 48.055C35.3977 47.9447 35.5473 47.8828 35.7033 47.8828C35.8592 47.8828 36.0088 47.9447 36.1191 48.055C36.2294 48.1653 36.2913 48.3149 36.2913 48.4709V55.6388C36.2914 55.7161 36.2762 55.7925 36.2466 55.8639C36.2171 55.9352 36.1737 56.0001 36.1191 56.0547C36.0645 56.1093 35.9997 56.1526 35.9283 56.1822C35.857 56.2117 35.7805 56.2269 35.7033 56.2269Z" fill="black"/>
<path d="M61.8761 56.2269C61.7989 56.2269 61.7224 56.2117 61.6511 56.1822C61.5797 56.1526 61.5149 56.1093 61.4603 56.0547C61.4057 56.0001 61.3624 55.9352 61.3328 55.8639C61.3033 55.7925 61.2881 55.7161 61.2881 55.6388V48.4709C61.2881 48.3149 61.35 48.1653 61.4603 48.055C61.5706 47.9447 61.7202 47.8828 61.8761 47.8828C62.0321 47.8828 62.1817 47.9447 62.2919 48.055C62.4022 48.1653 62.4642 48.3149 62.4642 48.4709V55.6388C62.4642 55.7161 62.449 55.7925 62.4195 55.8639C62.3899 55.9352 62.3466 56.0001 62.292 56.0547C62.2374 56.1093 62.1725 56.1526 62.1012 56.1822C62.0298 56.2117 61.9534 56.2269 61.8761 56.2269Z" fill="black"/>
<path d="M80.1352 1.32812H63.7139V17.7495H80.1352V1.32812Z" fill="white"/>
<path d="M80.1354 18.3377H63.714C63.5581 18.3377 63.4085 18.2758 63.2982 18.1655C63.1879 18.0552 63.126 17.9057 63.126 17.7497V1.32828C63.126 1.17232 63.1879 1.02276 63.2982 0.912478C63.4085 0.802199 63.5581 0.740242 63.714 0.740234H80.1354C80.2914 0.740242 80.441 0.802199 80.5512 0.912478C80.6615 1.02276 80.7235 1.17232 80.7235 1.32828V17.7497C80.7235 17.9057 80.6615 18.0552 80.5512 18.1655C80.441 18.2758 80.2914 18.3377 80.1354 18.3377ZM64.3021 17.1616H79.5474V1.91633H64.3021V17.1616Z" fill="black"/>
<path d="M70.7368 14.2631C70.649 14.2631 70.5623 14.2434 70.4831 14.2055C70.404 14.1677 70.3342 14.1126 70.2791 14.0443L67.3276 10.388C67.2792 10.3279 67.243 10.2588 67.2212 10.1847C67.1994 10.1106 67.1924 10.033 67.2006 9.9562C67.2088 9.87941 67.2321 9.80499 67.269 9.73719C67.306 9.66939 67.356 9.60952 67.4161 9.56103C67.4762 9.51254 67.5453 9.47638 67.6193 9.45458C67.6934 9.43278 67.7711 9.42576 67.8479 9.43397C67.9247 9.44219 67.9991 9.46545 68.0669 9.50242C68.1347 9.53939 68.1945 9.58936 68.243 9.64947L70.6868 12.677L75.5727 5.20465C75.6149 5.14002 75.6695 5.08438 75.7333 5.04084C75.7971 4.99731 75.8688 4.96675 75.9444 4.95093C76.02 4.93512 76.098 4.93435 76.1739 4.94867C76.2497 4.96299 76.3221 4.99211 76.3867 5.03438C76.4513 5.07665 76.507 5.13125 76.5505 5.19503C76.5941 5.25882 76.6246 5.33056 76.6404 5.40615C76.6562 5.48174 76.657 5.55972 76.6427 5.6356C76.6284 5.71149 76.5992 5.78381 76.557 5.84844L71.2289 13.9969C71.1782 14.0746 71.1098 14.1391 71.0294 14.1852C70.9489 14.2313 70.8587 14.2577 70.7661 14.2623C70.7563 14.2628 70.7465 14.2631 70.7368 14.2631Z" fill="black"/>
</g>
<defs>
<clipPath id="clip0_656_4835">
<rect width="80" height="55.4864" fill="white" transform="translate(0.723633 0.740234)"/>
</clipPath>
</defs>
</svg>
