<svg width="80" height="61" viewBox="0 0 80 61" fill="none" xmlns="http://www.w3.org/2000/svg">
<path d="M46.1877 25.9492H55.5933C59.0044 25.9492 62.2758 27.3063 64.6878 29.7219C67.0998 32.1376 68.4548 35.4138 68.4548 38.83V49.978H33.3262V38.83C33.3262 35.4138 34.6812 32.1376 37.0932 29.7219C39.5052 27.3063 42.7766 25.9492 46.1877 25.9492Z" fill="white"/>
<path d="M68.4548 50.5629H33.3262C33.2495 50.563 33.1735 50.5478 33.1027 50.5185C33.0318 50.4891 32.9674 50.446 32.9132 50.3917C32.8589 50.3374 32.816 50.2729 32.7867 50.2019C32.7573 50.1309 32.7422 50.0548 32.7422 49.978V38.8301C32.7462 35.26 34.1641 31.8373 36.6848 29.3128C39.2055 26.7883 42.6231 25.3683 46.1879 25.3643H55.5931C59.1579 25.3683 62.5755 26.7883 65.0962 29.3128C67.6169 31.8373 69.0348 35.26 69.0388 38.8301V49.978C69.0389 50.0548 69.0237 50.1309 68.9943 50.2019C68.965 50.2729 68.9221 50.3374 68.8679 50.3917C68.8136 50.446 68.7492 50.4891 68.6784 50.5185C68.6075 50.5478 68.5315 50.563 68.4548 50.5629ZM33.9103 49.3931H67.8707V38.8301C67.867 35.5702 66.5723 32.4448 64.2706 30.1397C61.9689 27.8345 58.8482 26.5378 55.5931 26.5341H46.1879C42.9328 26.5378 39.8121 27.8345 37.5104 30.1397C35.2087 32.4448 33.914 35.5702 33.9103 38.8301V49.3931Z" fill="black"/>
<path d="M50.8911 23.9688C54.8442 23.9688 58.0488 20.7593 58.0488 16.8003C58.0488 12.8413 54.8442 9.63184 50.8911 9.63184C46.938 9.63184 43.7334 12.8413 43.7334 16.8003C43.7334 20.7593 46.938 23.9688 50.8911 23.9688Z" fill="white"/>
<path d="M50.891 24.5537C49.3598 24.5537 47.863 24.0989 46.5899 23.2469C45.3168 22.3949 44.3246 21.184 43.7387 19.7672C43.1527 18.3505 42.9995 16.7915 43.2982 15.2875C43.597 13.7835 44.3344 12.402 45.4171 11.3177C46.4998 10.2334 47.8792 9.49498 49.381 9.19584C50.8827 8.89669 52.4394 9.05025 53.854 9.6371C55.2686 10.2239 56.4777 11.2177 57.3284 12.4928C58.179 13.7678 58.6331 15.2668 58.6331 16.8003C58.6308 18.856 57.8143 20.8268 56.3629 22.2804C54.9115 23.7339 52.9436 24.5515 50.891 24.5537ZM50.891 10.2167C49.5908 10.2168 48.32 10.603 47.239 11.3264C46.158 12.0499 45.3154 13.0781 44.8179 14.2811C44.3204 15.4841 44.1902 16.8078 44.4439 18.0849C44.6976 19.3619 45.3238 20.535 46.2431 21.4557C47.1625 22.3764 48.3338 23.0034 49.609 23.2574C50.8841 23.5114 52.2058 23.381 53.407 22.8827C54.6082 22.3844 55.6349 21.5406 56.3572 20.4579C57.0795 19.3753 57.465 18.1024 57.465 16.8003C57.463 15.0548 56.7697 13.3813 55.5373 12.1471C54.3048 10.9128 52.6339 10.2186 50.891 10.2167Z" fill="black"/>
<path d="M50.8909 46.2409C50.8035 46.2409 50.7172 46.2213 50.6385 46.1835C50.5597 46.1457 50.4904 46.0906 50.4357 46.0224L47.451 42.3041C47.3585 42.1886 47.3131 42.0424 47.3238 41.8948L48.4925 25.9058C48.4979 25.8291 48.5184 25.7542 48.5528 25.6854C48.5872 25.6166 48.6347 25.5553 48.6928 25.5049C48.7509 25.4546 48.8184 25.4162 48.8913 25.392C48.9642 25.3678 49.0411 25.3582 49.1177 25.3639C49.1944 25.3695 49.269 25.3902 49.3376 25.4249C49.4062 25.4595 49.4675 25.5073 49.5176 25.5656C49.5677 25.6239 49.6057 25.6915 49.6296 25.7646C49.6536 25.8377 49.663 25.9148 49.6572 25.9915L48.5056 41.7505L50.8909 44.7223L53.2761 41.7505L52.1245 25.9915C52.1187 25.9148 52.1281 25.8377 52.1521 25.7646C52.176 25.6915 52.2142 25.6239 52.2643 25.5656C52.3144 25.5073 52.3755 25.4595 52.4441 25.4249C52.5127 25.3902 52.5874 25.3695 52.664 25.3639C52.7406 25.3582 52.8176 25.3678 52.8905 25.392C52.9635 25.4162 53.0308 25.4546 53.0889 25.5049C53.147 25.5553 53.1945 25.6166 53.2289 25.6854C53.2633 25.7542 53.2838 25.8291 53.2892 25.9058L54.4579 41.8948C54.4687 42.0424 54.4232 42.1886 54.3307 42.3041L51.346 46.0224C51.2913 46.0906 51.222 46.1457 51.1432 46.1835C51.0645 46.2213 50.9782 46.2409 50.8909 46.2409Z" fill="black"/>
<path d="M39.7559 50.5622C39.6792 50.5622 39.6032 50.5471 39.5323 50.5177C39.4615 50.4884 39.3971 50.4453 39.3428 50.391C39.2886 50.3366 39.2456 50.2722 39.2162 50.2012C39.1869 50.1302 39.1719 50.0541 39.1719 49.9773V37.0849C39.1719 36.9298 39.2335 36.781 39.343 36.6713C39.4525 36.5616 39.601 36.5 39.7559 36.5C39.9108 36.5 40.0593 36.5616 40.1689 36.6713C40.2784 36.781 40.34 36.9298 40.34 37.0849V49.9773C40.34 50.0541 40.3248 50.1302 40.2955 50.2012C40.2661 50.2722 40.2232 50.3366 40.169 50.391C40.1148 50.4453 40.0504 50.4884 39.9795 50.5177C39.9086 50.5471 39.8326 50.5622 39.7559 50.5622Z" fill="black"/>
<path d="M62.0264 50.5622C61.9497 50.5622 61.8737 50.5471 61.8029 50.5177C61.732 50.4884 61.6676 50.4453 61.6133 50.391C61.5591 50.3366 61.5162 50.2722 61.4869 50.2012C61.4575 50.1302 61.4424 50.0541 61.4424 49.9773V37.0849C61.4424 36.9298 61.504 36.781 61.6135 36.6713C61.723 36.5616 61.8715 36.5 62.0264 36.5C62.1813 36.5 62.3298 36.5616 62.4394 36.6713C62.5489 36.781 62.6105 36.9298 62.6105 37.0849V49.9773C62.6105 50.0541 62.5955 50.1302 62.5661 50.2012C62.5368 50.2722 62.4938 50.3366 62.4395 50.391C62.3853 50.4453 62.3209 50.4884 62.25 50.5177C62.1791 50.5471 62.1031 50.5622 62.0264 50.5622Z" fill="black"/>
<path d="M79.4158 47.6367H13.8779V54.5883H79.4158V47.6367Z" fill="white"/>
<path d="M79.4159 55.173H13.878C13.8013 55.1731 13.7253 55.1579 13.6544 55.1286C13.5835 55.0992 13.5191 55.0561 13.4649 55.0017C13.4107 54.9474 13.3676 54.8829 13.3383 54.812C13.3089 54.741 13.2939 54.6649 13.2939 54.5881V47.6367C13.2939 47.5599 13.3089 47.4838 13.3383 47.4128C13.3676 47.3418 13.4107 47.2774 13.4649 47.2231C13.5191 47.1687 13.5835 47.1256 13.6544 47.0962C13.7253 47.0669 13.8013 47.0517 13.878 47.0518H79.4159C79.4926 47.0517 79.5686 47.0669 79.6395 47.0962C79.7104 47.1256 79.7748 47.1687 79.829 47.2231C79.8832 47.2774 79.9261 47.3418 79.9555 47.4128C79.9848 47.4838 80 47.5599 80 47.6367V54.5881C80 54.6649 79.9848 54.741 79.9555 54.812C79.9261 54.8829 79.8832 54.9474 79.829 55.0017C79.7748 55.0561 79.7104 55.0992 79.6395 55.1286C79.5686 55.1579 79.4926 55.1731 79.4159 55.173ZM14.462 54.0032H78.8319V48.2216H14.462V54.0032Z" fill="black"/>
<path d="M18.6789 35.6455H28.0845C31.4956 35.6455 34.767 37.0026 37.179 39.4182C39.591 41.8338 40.9461 45.1101 40.9461 48.5263V59.6742H5.81738V48.5263C5.81739 45.1101 7.17244 41.8338 9.58444 39.4182C11.9964 37.0026 15.2678 35.6455 18.6789 35.6455Z" fill="white"/>
<path d="M40.946 60.2592H5.81745C5.74074 60.2592 5.66488 60.2441 5.59401 60.2147C5.52314 60.1854 5.45874 60.1423 5.40451 60.0879C5.35027 60.0336 5.30723 59.9691 5.27789 59.8981C5.24854 59.8272 5.23338 59.7511 5.2334 59.6743V48.5264C5.23743 44.9563 6.65534 41.5335 9.17602 39.0091C11.6967 36.4846 15.1143 35.0646 18.6791 35.0605H28.0844C31.6491 35.0646 35.0667 36.4846 37.5874 39.0091C40.1081 41.5335 41.526 44.9563 41.53 48.5264V59.6743C41.5301 59.7511 41.515 59.8272 41.4857 59.8981C41.4564 59.9691 41.4133 60.0336 41.3591 60.0879C41.3048 60.1423 41.2404 60.1854 41.1696 60.2147C41.0987 60.2441 41.0227 60.2592 40.946 60.2592ZM6.4015 59.0894H40.3619V48.5264C40.3582 45.2665 39.0635 42.1411 36.7618 39.836C34.4601 37.5308 31.3394 36.2341 28.0844 36.2304H18.6791C15.424 36.2341 12.3033 37.5308 10.0016 39.8359C7.69993 42.1411 6.40522 45.2665 6.4015 48.5264V59.0894Z" fill="black"/>
<path d="M23.3823 33.665C27.3354 33.665 30.54 30.4556 30.54 26.4966C30.54 22.5375 27.3354 19.3281 23.3823 19.3281C19.4292 19.3281 16.2246 22.5375 16.2246 26.4966C16.2246 30.4556 19.4292 33.665 23.3823 33.665Z" fill="white"/>
<path d="M23.3818 34.25C21.8506 34.25 20.3537 33.7954 19.0805 32.9434C17.8073 32.0915 16.815 30.8806 16.229 29.4639C15.643 28.0471 15.4897 26.4882 15.7884 24.9841C16.0871 23.4801 16.8244 22.0985 17.9071 21.0142C18.9898 19.9298 20.3692 19.1914 21.871 18.8922C23.3728 18.593 24.9294 18.7465 26.3441 19.3333C27.7587 19.9202 28.9679 20.9139 29.8186 22.189C30.6693 23.464 31.1233 24.9631 31.1233 26.4966C31.121 28.5522 30.3047 30.5229 28.8534 31.9764C27.4021 33.43 25.4342 34.2476 23.3818 34.25ZM23.3818 19.913C22.0816 19.913 20.8107 20.299 19.7296 21.0224C18.6485 21.7458 17.8059 22.774 17.3083 23.977C16.8107 25.18 16.6805 26.5037 16.9341 27.7808C17.1877 29.0579 17.8137 30.231 18.733 31.1517C19.6524 32.0725 20.8237 32.6996 22.0989 32.9536C23.374 33.2077 24.6958 33.0773 25.897 32.579C27.0982 32.0807 28.1249 31.2369 28.8472 30.1542C29.5696 29.0716 29.9552 27.7987 29.9552 26.4966C29.9532 24.7511 29.2601 23.0778 28.0278 21.8435C26.7954 20.6093 25.1246 19.915 23.3818 19.913Z" fill="black"/>
<path d="M12.2462 60.2585C12.1695 60.2585 12.0934 60.2434 12.0226 60.214C11.9517 60.1846 11.8873 60.1415 11.8331 60.0872C11.7788 60.0329 11.7359 59.9684 11.7066 59.8975C11.6773 59.8265 11.6621 59.7504 11.6621 59.6736V46.7812C11.6621 46.6261 11.7237 46.4773 11.8332 46.3676C11.9427 46.2579 12.0913 46.1963 12.2462 46.1963C12.4011 46.1963 12.5496 46.2579 12.6591 46.3676C12.7686 46.4773 12.8302 46.6261 12.8302 46.7812V59.6736C12.8302 59.7504 12.8152 59.8265 12.7859 59.8974C12.7565 59.9684 12.7135 60.0329 12.6592 60.0872C12.605 60.1415 12.5406 60.1846 12.4697 60.214C12.3989 60.2434 12.3229 60.2585 12.2462 60.2585Z" fill="black"/>
<path d="M34.5176 60.2585C34.4409 60.2585 34.3649 60.2434 34.2941 60.214C34.2232 60.1846 34.1588 60.1415 34.1046 60.0872C34.0503 60.0329 34.0074 59.9684 33.9781 59.8974C33.9487 59.8265 33.9336 59.7504 33.9336 59.6736V46.7812C33.9336 46.6261 33.9952 46.4773 34.1047 46.3676C34.2142 46.2579 34.3627 46.1963 34.5176 46.1963C34.6725 46.1963 34.8211 46.2579 34.9306 46.3676C35.0401 46.4773 35.1017 46.6261 35.1017 46.7812V59.6736C35.1017 59.7504 35.0865 59.8265 35.0572 59.8974C35.0279 59.9684 34.985 60.0329 34.9307 60.0872C34.8765 60.1415 34.8121 60.1846 34.7412 60.214C34.6704 60.2434 34.5943 60.2585 34.5176 60.2585Z" fill="black"/>
<path d="M79.4162 0.584961H61.5215V12.27H65.5508V17.573L69.6772 12.27H79.4162V0.584961Z" fill="white"/>
<path d="M65.5506 18.1576C65.4739 18.1576 65.3979 18.1425 65.327 18.1131C65.2561 18.0837 65.1917 18.0407 65.1375 17.9863C65.0833 17.932 65.0402 17.8675 65.0109 17.7965C64.9815 17.7255 64.9665 17.6495 64.9665 17.5726V12.8544H61.5215C61.4448 12.8544 61.3688 12.8393 61.298 12.8099C61.2271 12.7805 61.1627 12.7374 61.1085 12.6831C61.0542 12.6288 61.0113 12.5643 60.982 12.4933C60.9526 12.4224 60.9375 12.3463 60.9375 12.2695V0.584926C60.9375 0.508107 60.9526 0.432056 60.982 0.361081C61.0113 0.290105 61.0542 0.225613 61.1085 0.171294C61.1627 0.116974 61.2271 0.0738718 61.298 0.0444836C61.3688 0.0150953 61.4448 -1.99595e-05 61.5215 2.13328e-08H79.4161C79.4928 -2.07283e-05 79.5688 0.0150956 79.6396 0.0444836C79.7105 0.0738715 79.7749 0.116974 79.8291 0.171294C79.8834 0.225613 79.9263 0.290069 79.9556 0.361045C79.985 0.432021 80.0001 0.508107 80.0001 0.584926V12.2695C80.0001 12.3463 79.985 12.4224 79.9556 12.4933C79.9263 12.5643 79.8834 12.6288 79.8291 12.6831C79.7749 12.7374 79.7105 12.7805 79.6396 12.8099C79.5688 12.8393 79.4928 12.8544 79.4161 12.8544H69.9623L66.0114 17.9322C65.9568 18.0024 65.8868 18.0591 65.807 18.0982C65.7271 18.1372 65.6394 18.1576 65.5506 18.1576ZM62.1056 11.6845H65.5506C65.6273 11.6845 65.7033 11.6996 65.7742 11.729C65.845 11.7584 65.9094 11.8015 65.9637 11.8558C66.0179 11.9101 66.0609 11.9746 66.0903 12.0456C66.1196 12.1166 66.1347 12.1926 66.1346 12.2695V15.8704L69.2163 11.9099C69.2709 11.8397 69.3409 11.7829 69.4208 11.7438C69.5006 11.7048 69.5883 11.6845 69.6771 11.6845H78.832V1.16985H62.1056V11.6845Z" fill="black"/>
<path d="M0.584961 0.584961H18.4791V12.27H14.4503V17.573L10.324 12.27H0.584961V0.584961Z" fill="white"/>
<path d="M14.4495 18.1576C14.3607 18.1576 14.2729 18.1374 14.193 18.0983C14.1131 18.0593 14.0433 18.0024 13.9887 17.9322L10.0378 12.8544H0.58405C0.507346 12.8544 0.431337 12.8393 0.360468 12.8099C0.289599 12.7805 0.225204 12.7374 0.170966 12.6831C0.116728 12.6288 0.0736898 12.5643 0.0443456 12.4933C0.0150014 12.4224 -1.9931e-05 12.3463 1.98474e-08 12.2695V0.584926C-1.9931e-05 0.508107 0.0150014 0.432056 0.0443456 0.361081C0.0736898 0.290105 0.116728 0.225613 0.170966 0.171294C0.225204 0.116974 0.289599 0.0738718 0.360468 0.0444836C0.431337 0.0150953 0.507346 -1.9961e-05 0.58405 1.97835e-08H18.4786C18.5553 -1.9961e-05 18.6313 0.0150953 18.7021 0.0444836C18.773 0.0738718 18.8374 0.116974 18.8916 0.171294C18.9459 0.225613 18.9889 0.290105 19.0183 0.361081C19.0476 0.432056 19.0626 0.508107 19.0626 0.584926V12.2695C19.0626 12.3463 19.0476 12.4224 19.0183 12.4933C18.9889 12.5643 18.9459 12.6288 18.8916 12.6831C18.8374 12.7374 18.773 12.7805 18.7021 12.8099C18.6313 12.8393 18.5553 12.8544 18.4786 12.8544H15.0336V17.5726C15.0336 17.6495 15.0186 17.7255 14.9892 17.7965C14.9599 17.8675 14.9169 17.932 14.8626 17.9863C14.8084 18.0407 14.744 18.0837 14.6731 18.1131C14.6022 18.1425 14.5262 18.1576 14.4495 18.1576ZM1.1681 11.6845H10.323C10.4118 11.6845 10.4995 11.7048 10.5793 11.7438C10.6592 11.7829 10.7292 11.8397 10.7838 11.9099L13.8655 15.8704V12.2695C13.8655 12.1926 13.8806 12.1166 13.91 12.0456C13.9393 11.9746 13.9822 11.9101 14.0364 11.8558C14.0907 11.8015 14.1551 11.7584 14.2259 11.729C14.2968 11.6996 14.3728 11.6845 14.4495 11.6845H17.8945V1.16985H1.1681V11.6845Z" fill="black"/>
</svg>
