<svg width="54" height="52" viewBox="0 0 54 52" fill="none" xmlns="http://www.w3.org/2000/svg">
<path d="M10.3285 11.8892H16.9434C19.3424 11.8892 21.6431 12.8436 23.3394 14.5424C25.0357 16.2413 25.9887 18.5455 25.9887 20.9481V28.7883H1.2832V20.9481C1.28321 18.5455 2.2362 16.2413 3.93253 14.5425C5.62886 12.8436 7.92957 11.8892 10.3285 11.8892Z" fill="white"/>
<path d="M25.9873 29.1987H1.28185C1.2279 29.1987 1.17455 29.1881 1.12471 29.1674C1.07487 29.1468 1.02958 29.1164 0.991432 29.0782C0.953287 29.04 0.923019 28.9947 0.902382 28.9448C0.881744 28.8948 0.87108 28.8414 0.871094 28.7873V20.9472C0.873928 18.4364 1.87112 16.0292 3.64389 14.2537C5.41665 12.4783 7.82021 11.4796 10.3273 11.4768H16.9419C19.4489 11.4796 21.8525 12.4783 23.6252 14.2537C25.398 16.0292 26.3952 18.4364 26.398 20.9472V28.7873C26.3981 28.8414 26.3875 28.8948 26.3669 28.9448C26.3462 28.9947 26.316 29.04 26.2778 29.0782C26.2397 29.1164 26.1944 29.1468 26.1445 29.1674C26.0947 29.1881 26.0412 29.1987 25.9873 29.1987ZM1.6926 28.376H25.5765V20.9472C25.5739 18.6545 24.6634 16.4565 23.0446 14.8353C21.4259 13.2141 19.2311 12.3022 16.9419 12.2995H10.3273C8.03802 12.3022 5.84327 13.2141 4.22452 14.8353C2.60577 16.4564 1.69522 18.6545 1.6926 20.9472V28.376Z" fill="black"/>
<path d="M13.6355 10.4948C16.4157 10.4948 18.6694 8.23768 18.6694 5.45334C18.6694 2.66901 16.4157 0.411865 13.6355 0.411865C10.8553 0.411865 8.60156 2.66901 8.60156 5.45334C8.60156 8.23768 10.8553 10.4948 13.6355 10.4948Z" fill="white"/>
<path d="M13.6344 10.9067C12.5575 10.9068 11.5048 10.587 10.6094 9.98784C9.71397 9.38869 9.01606 8.53708 8.60393 7.5407C8.19181 6.54432 8.084 5.44793 8.29406 4.39016C8.50412 3.3324 9.0227 2.36076 9.78415 1.59815C10.5456 0.835527 11.5157 0.316187 12.5719 0.10577C13.6281 -0.104646 14.7228 0.00332177 15.7177 0.416031C16.7126 0.828741 17.563 1.52765 18.1613 2.42438C18.7596 3.3211 19.0789 4.37536 19.0789 5.45384C19.0773 6.89951 18.5032 8.2855 17.4825 9.30776C16.4618 10.33 15.0779 10.9051 13.6344 10.9067ZM13.6344 0.823711C12.72 0.823672 11.8262 1.0952 11.0659 1.60395C10.3055 2.11269 9.71291 2.8358 9.36297 3.68184C9.01302 4.52788 8.92146 5.45884 9.09983 6.35701C9.27819 7.25518 9.71842 8.08021 10.365 8.72776C11.0115 9.37532 11.8353 9.81632 12.7321 9.995C13.629 10.1737 14.5586 10.082 15.4033 9.73156C16.2481 9.38112 16.9702 8.78764 17.4782 8.02622C17.9862 7.26479 18.2574 6.36961 18.2574 5.45384C18.256 4.22631 17.7685 3.04945 16.9019 2.18143C16.0352 1.31342 14.8601 0.825131 13.6344 0.823711Z" fill="black"/>
<path d="M5.80333 29.1981C5.74939 29.1981 5.69593 29.1875 5.64609 29.1668C5.59625 29.1462 5.55096 29.1159 5.51282 29.0777C5.47467 29.0395 5.4445 28.9941 5.42387 28.9442C5.40323 28.8943 5.39256 28.8408 5.39258 28.7868V19.7197C5.39258 19.6106 5.43588 19.506 5.51292 19.4288C5.58995 19.3517 5.69439 19.3083 5.80333 19.3083C5.91227 19.3083 6.01672 19.3517 6.09375 19.4288C6.17078 19.506 6.21409 19.6106 6.21409 19.7197V28.7868C6.2141 28.8408 6.20354 28.8943 6.1829 28.9442C6.16226 28.9941 6.13199 29.0395 6.09385 29.0777C6.0557 29.1159 6.01042 29.1462 5.96057 29.1668C5.91073 29.1875 5.85728 29.1981 5.80333 29.1981Z" fill="black"/>
<path d="M21.4654 29.1981C21.4115 29.1981 21.358 29.1875 21.3082 29.1668C21.2584 29.1462 21.2131 29.1159 21.1749 29.0777C21.1368 29.0395 21.1066 28.9941 21.086 28.9442C21.0653 28.8943 21.0547 28.8408 21.0547 28.7868V19.7197C21.0547 19.6106 21.098 19.506 21.175 19.4288C21.2521 19.3517 21.3565 19.3083 21.4654 19.3083C21.5744 19.3083 21.6788 19.3517 21.7559 19.4288C21.8329 19.506 21.8762 19.6106 21.8762 19.7197V28.7868C21.8762 28.8408 21.8655 28.8943 21.8449 28.9442C21.8243 28.9941 21.7941 29.0395 21.756 29.0777C21.7178 29.1159 21.6725 29.1462 21.6227 29.1668C21.5728 29.1875 21.5194 29.1981 21.4654 29.1981Z" fill="black"/>
<path d="M29.434 11.8889H36.0489C38.4478 11.8889 40.7485 12.8433 42.4449 14.5422C44.1412 16.2411 45.0942 18.5452 45.0942 20.9478V28.788H20.3887V20.9478C20.3887 18.5452 21.3417 16.2411 23.038 14.5422C24.7343 12.8433 27.035 11.8889 29.434 11.8889Z" fill="white"/>
<path d="M45.0928 29.1985H20.3873C20.3334 29.1985 20.28 29.1878 20.2302 29.1672C20.1803 29.1465 20.135 29.1162 20.0969 29.078C20.0588 29.0398 20.0285 28.9944 20.0079 28.9445C19.9872 28.8946 19.9765 28.8411 19.9766 28.7871V20.9469C19.9794 18.4361 20.9766 16.0289 22.7494 14.2535C24.5221 12.4781 26.9257 11.4794 29.4327 11.4766H36.0473C38.5544 11.4794 40.958 12.4781 42.7307 14.2535C44.5035 16.0289 45.5007 18.4361 45.5035 20.9469V28.7871C45.5035 28.8411 45.493 28.8946 45.4723 28.9445C45.4517 28.9944 45.4214 29.0398 45.3833 29.078C45.3451 29.1162 45.2998 29.1465 45.25 29.1672C45.2002 29.1878 45.1467 29.1985 45.0928 29.1985ZM20.7981 28.3757H44.682V20.9469C44.6794 18.6542 43.7688 16.4562 42.1501 14.835C40.5313 13.2139 38.3366 12.3019 36.0473 12.2993H29.4327C27.1435 12.3019 24.9487 13.2138 23.33 14.835C21.7112 16.4562 20.8007 18.6542 20.7981 20.9469V28.3757Z" fill="black"/>
<path d="M32.741 10.4948C35.5211 10.4948 37.7749 8.23768 37.7749 5.45334C37.7749 2.66901 35.5211 0.411865 32.741 0.411865C29.9608 0.411865 27.707 2.66901 27.707 5.45334C27.707 8.23768 29.9608 10.4948 32.741 10.4948Z" fill="white"/>
<path d="M32.7398 10.9067C31.663 10.9068 30.6102 10.587 29.7148 9.98784C28.8194 9.38869 28.1215 8.53708 27.7094 7.5407C27.2973 6.54432 27.1895 5.44793 27.3995 4.39016C27.6096 3.3324 28.1282 2.36076 28.8896 1.59815C29.6511 0.835527 30.6212 0.316187 31.6774 0.10577C32.7335 -0.104646 33.8283 0.00332177 34.8232 0.416031C35.8181 0.828741 36.6685 1.52765 37.2668 2.42438C37.865 3.3211 38.1843 4.37536 38.1843 5.45384C38.1827 6.89951 37.6086 8.2855 36.588 9.30776C35.5673 10.33 34.1833 10.9051 32.7398 10.9067ZM32.7398 0.823711C31.8255 0.823672 30.9316 1.0952 30.1713 1.60395C29.411 2.11269 28.8184 2.8358 28.4684 3.68184C28.1185 4.52788 28.0269 5.45884 28.2053 6.35701C28.3837 7.25518 28.8239 8.08021 29.4705 8.72776C30.117 9.37532 30.9408 9.81632 31.8376 9.995C32.7344 10.1737 33.664 10.082 34.5088 9.73156C35.3536 9.38112 36.0756 8.78764 36.5836 8.02622C37.0917 7.26479 37.3628 6.36961 37.3628 5.45384C37.3615 4.22631 36.874 3.04945 36.0073 2.18143C35.1406 1.31342 33.9655 0.825131 32.7398 0.823711Z" fill="black"/>
<path d="M24.9088 29.1981C24.8549 29.1981 24.8014 29.1875 24.7516 29.1668C24.7017 29.1462 24.6564 29.1159 24.6183 29.0777C24.5801 29.0395 24.55 28.9941 24.5293 28.9442C24.5087 28.8943 24.498 28.8408 24.498 28.7868V19.7197C24.498 19.6106 24.5414 19.506 24.6184 19.4288C24.6954 19.3517 24.7999 19.3083 24.9088 19.3083C25.0177 19.3083 25.1222 19.3517 25.1992 19.4288C25.2762 19.506 25.3196 19.6106 25.3196 19.7197V28.7868C25.3196 28.8408 25.309 28.8943 25.2884 28.9442C25.2677 28.9941 25.2375 29.0395 25.1993 29.0777C25.1612 29.1159 25.1159 29.1462 25.066 29.1668C25.0162 29.1875 24.9627 29.1981 24.9088 29.1981Z" fill="black"/>
<path d="M40.5709 29.1981C40.517 29.1981 40.4635 29.1875 40.4137 29.1668C40.3638 29.1462 40.3185 29.1159 40.2804 29.0777C40.2422 29.0395 40.2121 28.9941 40.1914 28.9442C40.1708 28.8943 40.1601 28.8408 40.1602 28.7868V19.7197C40.1602 19.6106 40.2035 19.506 40.2805 19.4288C40.3575 19.3517 40.462 19.3083 40.5709 19.3083C40.6798 19.3083 40.7843 19.3517 40.8613 19.4288C40.9384 19.506 40.9817 19.6106 40.9817 19.7197V28.7868C40.9817 28.8408 40.971 28.8943 40.9504 28.9442C40.9297 28.9941 40.8996 29.0395 40.8614 29.0777C40.8233 29.1159 40.778 29.1462 40.7282 29.1668C40.6783 29.1875 40.6249 29.1981 40.5709 29.1981Z" fill="black"/>
<path d="M10.3285 11.8892H16.9434C19.3424 11.8892 21.6431 12.8436 23.3394 14.5424C25.0357 16.2413 25.9887 18.5455 25.9887 20.9481V28.7883H1.2832V20.9481C1.28321 18.5455 2.2362 16.2413 3.93253 14.5425C5.62886 12.8436 7.92957 11.8892 10.3285 11.8892Z" fill="white"/>
<path d="M25.9873 29.1987H1.28185C1.2279 29.1987 1.17455 29.1881 1.12471 29.1674C1.07487 29.1468 1.02958 29.1164 0.991432 29.0782C0.953287 29.04 0.923019 28.9947 0.902382 28.9448C0.881744 28.8948 0.87108 28.8414 0.871094 28.7873V20.9472C0.873928 18.4364 1.87112 16.0292 3.64389 14.2537C5.41665 12.4783 7.82021 11.4796 10.3273 11.4768H16.9419C19.4489 11.4796 21.8525 12.4783 23.6252 14.2537C25.398 16.0292 26.3952 18.4364 26.398 20.9472V28.7873C26.3981 28.8414 26.3875 28.8948 26.3669 28.9448C26.3462 28.9947 26.316 29.04 26.2778 29.0782C26.2397 29.1164 26.1944 29.1468 26.1445 29.1674C26.0947 29.1881 26.0412 29.1987 25.9873 29.1987ZM1.6926 28.376H25.5765V20.9472C25.5739 18.6545 24.6634 16.4565 23.0446 14.8353C21.4259 13.2141 19.2311 12.3022 16.9419 12.2995H10.3273C8.03802 12.3022 5.84327 13.2141 4.22452 14.8353C2.60577 16.4564 1.69522 18.6545 1.6926 20.9472V28.376Z" fill="black"/>
<path d="M13.6355 10.4948C16.4157 10.4948 18.6694 8.23768 18.6694 5.45334C18.6694 2.66901 16.4157 0.411865 13.6355 0.411865C10.8553 0.411865 8.60156 2.66901 8.60156 5.45334C8.60156 8.23768 10.8553 10.4948 13.6355 10.4948Z" fill="white"/>
<path d="M13.6344 10.9067C12.5575 10.9068 11.5048 10.587 10.6094 9.98784C9.71397 9.38869 9.01606 8.53708 8.60393 7.5407C8.19181 6.54432 8.084 5.44793 8.29406 4.39016C8.50412 3.3324 9.0227 2.36076 9.78415 1.59815C10.5456 0.835527 11.5157 0.316187 12.5719 0.10577C13.6281 -0.104646 14.7228 0.00332177 15.7177 0.416031C16.7126 0.828741 17.563 1.52765 18.1613 2.42438C18.7596 3.3211 19.0789 4.37536 19.0789 5.45384C19.0773 6.89951 18.5032 8.2855 17.4825 9.30776C16.4618 10.33 15.0779 10.9051 13.6344 10.9067ZM13.6344 0.823711C12.72 0.823672 11.8262 1.0952 11.0659 1.60395C10.3055 2.11269 9.71291 2.8358 9.36297 3.68184C9.01302 4.52788 8.92146 5.45884 9.09983 6.35701C9.27819 7.25518 9.71842 8.08021 10.365 8.72776C11.0115 9.37532 11.8353 9.81632 12.7321 9.995C13.629 10.1737 14.5586 10.082 15.4033 9.73156C16.2481 9.38112 16.9702 8.78764 17.4782 8.02622C17.9862 7.26479 18.2574 6.36961 18.2574 5.45384C18.256 4.22631 17.7685 3.04945 16.9019 2.18143C16.0352 1.31342 14.8601 0.825131 13.6344 0.823711Z" fill="black"/>
<path d="M5.80333 29.1981C5.74939 29.1981 5.69593 29.1875 5.64609 29.1668C5.59625 29.1462 5.55096 29.1159 5.51282 29.0777C5.47467 29.0395 5.4445 28.9941 5.42387 28.9442C5.40323 28.8943 5.39256 28.8408 5.39258 28.7868V19.7197C5.39258 19.6106 5.43588 19.506 5.51292 19.4288C5.58995 19.3517 5.69439 19.3083 5.80333 19.3083C5.91227 19.3083 6.01672 19.3517 6.09375 19.4288C6.17078 19.506 6.21409 19.6106 6.21409 19.7197V28.7868C6.2141 28.8408 6.20354 28.8943 6.1829 28.9442C6.16226 28.9941 6.13199 29.0395 6.09385 29.0777C6.0557 29.1159 6.01042 29.1462 5.96057 29.1668C5.91073 29.1875 5.85728 29.1981 5.80333 29.1981Z" fill="black"/>
<path d="M21.4654 29.1981C21.4115 29.1981 21.358 29.1875 21.3082 29.1668C21.2584 29.1462 21.2131 29.1159 21.1749 29.0777C21.1368 29.0395 21.1066 28.9941 21.086 28.9442C21.0653 28.8943 21.0547 28.8408 21.0547 28.7868V19.7197C21.0547 19.6106 21.098 19.506 21.175 19.4288C21.2521 19.3517 21.3565 19.3083 21.4654 19.3083C21.5744 19.3083 21.6788 19.3517 21.7559 19.4288C21.8329 19.506 21.8762 19.6106 21.8762 19.7197V28.7868C21.8762 28.8408 21.8655 28.8943 21.8449 28.9442C21.8243 28.9941 21.7941 29.0395 21.756 29.0777C21.7178 29.1159 21.6725 29.1462 21.6227 29.1668C21.5728 29.1875 21.5194 29.1981 21.4654 29.1981Z" fill="black"/>
<path d="M29.434 11.8889H36.0489C38.4478 11.8889 40.7485 12.8433 42.4449 14.5422C44.1412 16.2411 45.0942 18.5452 45.0942 20.9478V28.788H20.3887V20.9478C20.3887 18.5452 21.3417 16.2411 23.038 14.5422C24.7343 12.8433 27.035 11.8889 29.434 11.8889Z" fill="white"/>
<path d="M45.0928 29.1985H20.3873C20.3334 29.1985 20.28 29.1878 20.2302 29.1672C20.1803 29.1465 20.135 29.1162 20.0969 29.078C20.0588 29.0398 20.0285 28.9944 20.0079 28.9445C19.9872 28.8946 19.9765 28.8411 19.9766 28.7871V20.9469C19.9794 18.4361 20.9766 16.0289 22.7494 14.2535C24.5221 12.4781 26.9257 11.4794 29.4327 11.4766H36.0473C38.5544 11.4794 40.958 12.4781 42.7307 14.2535C44.5035 16.0289 45.5007 18.4361 45.5035 20.9469V28.7871C45.5035 28.8411 45.493 28.8946 45.4723 28.9445C45.4517 28.9944 45.4214 29.0398 45.3833 29.078C45.3451 29.1162 45.2998 29.1465 45.25 29.1672C45.2002 29.1878 45.1467 29.1985 45.0928 29.1985ZM20.7981 28.3757H44.682V20.9469C44.6794 18.6542 43.7688 16.4562 42.1501 14.835C40.5313 13.2139 38.3366 12.3019 36.0473 12.2993H29.4327C27.1435 12.3019 24.9487 13.2138 23.33 14.835C21.7112 16.4562 20.8007 18.6542 20.7981 20.9469V28.3757Z" fill="black"/>
<path d="M32.741 10.4948C35.5211 10.4948 37.7749 8.23768 37.7749 5.45334C37.7749 2.66901 35.5211 0.411865 32.741 0.411865C29.9608 0.411865 27.707 2.66901 27.707 5.45334C27.707 8.23768 29.9608 10.4948 32.741 10.4948Z" fill="white"/>
<path d="M32.7398 10.9067C31.663 10.9068 30.6102 10.587 29.7148 9.98784C28.8194 9.38869 28.1215 8.53708 27.7094 7.5407C27.2973 6.54432 27.1895 5.44793 27.3995 4.39016C27.6096 3.3324 28.1282 2.36076 28.8896 1.59815C29.6511 0.835527 30.6212 0.316187 31.6774 0.10577C32.7335 -0.104646 33.8283 0.00332177 34.8232 0.416031C35.8181 0.828741 36.6685 1.52765 37.2668 2.42438C37.865 3.3211 38.1843 4.37536 38.1843 5.45384C38.1827 6.89951 37.6086 8.2855 36.588 9.30776C35.5673 10.33 34.1833 10.9051 32.7398 10.9067ZM32.7398 0.823711C31.8255 0.823672 30.9316 1.0952 30.1713 1.60395C29.411 2.11269 28.8184 2.8358 28.4684 3.68184C28.1185 4.52788 28.0269 5.45884 28.2053 6.35701C28.3837 7.25518 28.8239 8.08021 29.4705 8.72776C30.117 9.37532 30.9408 9.81632 31.8376 9.995C32.7344 10.1737 33.664 10.082 34.5088 9.73156C35.3536 9.38112 36.0756 8.78764 36.5836 8.02622C37.0917 7.26479 37.3628 6.36961 37.3628 5.45384C37.3615 4.22631 36.874 3.04945 36.0073 2.18143C35.1406 1.31342 33.9655 0.825131 32.7398 0.823711Z" fill="black"/>
<path d="M24.9088 29.1981C24.8549 29.1981 24.8014 29.1875 24.7516 29.1668C24.7017 29.1462 24.6564 29.1159 24.6183 29.0777C24.5801 29.0395 24.55 28.9941 24.5293 28.9442C24.5087 28.8943 24.498 28.8408 24.498 28.7868V19.7197C24.498 19.6106 24.5414 19.506 24.6184 19.4288C24.6954 19.3517 24.7999 19.3083 24.9088 19.3083C25.0177 19.3083 25.1222 19.3517 25.1992 19.4288C25.2762 19.506 25.3196 19.6106 25.3196 19.7197V28.7868C25.3196 28.8408 25.309 28.8943 25.2884 28.9442C25.2677 28.9941 25.2375 29.0395 25.1993 29.0777C25.1612 29.1159 25.1159 29.1462 25.066 29.1668C25.0162 29.1875 24.9627 29.1981 24.9088 29.1981Z" fill="black"/>
<path d="M40.5709 29.1981C40.517 29.1981 40.4635 29.1875 40.4137 29.1668C40.3638 29.1462 40.3185 29.1159 40.2804 29.0777C40.2422 29.0395 40.2121 28.9941 40.1914 28.9442C40.1708 28.8943 40.1601 28.8408 40.1602 28.7868V19.7197C40.1602 19.6106 40.2035 19.506 40.2805 19.4288C40.3575 19.3517 40.462 19.3083 40.5709 19.3083C40.6798 19.3083 40.7843 19.3517 40.8613 19.4288C40.9384 19.506 40.9817 19.6106 40.9817 19.7197V28.7868C40.9817 28.8408 40.971 28.8943 40.9504 28.9442C40.9297 28.9941 40.8996 29.0395 40.8614 29.0777C40.8233 29.1159 40.778 29.1462 40.7282 29.1668C40.6783 29.1875 40.6249 29.1981 40.5709 29.1981Z" fill="black"/>
<path d="M18.8227 34.1799H25.4375C27.8365 34.1799 30.1372 35.1343 31.8336 36.8332C33.5299 38.5321 34.4829 40.8363 34.4829 43.2388V51.079H9.77734V43.2388C9.77735 40.8363 10.7303 38.5321 12.4267 36.8332C14.123 35.1344 16.4237 34.1799 18.8227 34.1799Z" fill="white"/>
<path d="M34.4814 51.4905H9.77599C9.72204 51.4905 9.66869 51.4798 9.61885 51.4592C9.56901 51.4385 9.52372 51.4082 9.48557 51.37C9.44743 51.3318 9.41716 51.2864 9.39652 51.2365C9.37588 51.1866 9.36522 51.1331 9.36523 51.0791V43.2389C9.36807 40.7281 10.3653 38.3209 12.138 36.5455C13.9108 34.7701 16.3143 33.7714 18.8214 33.7686H25.436C27.9431 33.7714 30.3466 34.7701 32.1194 36.5455C33.8922 38.3209 34.8894 40.7281 34.8922 43.2389V51.0791C34.8922 51.1331 34.8816 51.1866 34.861 51.2365C34.8404 51.2864 34.8101 51.3318 34.7719 51.37C34.7338 51.4082 34.6885 51.4385 34.6387 51.4592C34.5888 51.4798 34.5354 51.4905 34.4814 51.4905ZM10.1867 50.6677H34.0707V43.2389C34.0681 40.9462 33.1575 38.7482 31.5388 37.127C29.92 35.5059 27.7253 34.5939 25.436 34.5913H18.8214C16.5322 34.5939 14.3374 35.5058 12.7187 37.127C11.0999 38.7482 10.1894 40.9462 10.1867 43.2389V50.6677Z" fill="black"/>
<path d="M22.1277 32.7863C24.9078 32.7863 27.1616 30.5292 27.1616 27.7448C27.1616 24.9605 24.9078 22.7034 22.1277 22.7034C19.3475 22.7034 17.0938 24.9605 17.0938 27.7448C17.0938 30.5292 19.3475 32.7863 22.1277 32.7863Z" fill="white"/>
<path d="M22.1266 33.1982C21.0497 33.1983 19.997 32.8785 19.1016 32.2793C18.2062 31.6802 17.5082 30.8286 17.0961 29.8322C16.684 28.8358 16.5762 27.7394 16.7862 26.6817C16.9963 25.6239 17.5149 24.6523 18.2763 23.8896C19.0378 23.127 20.0079 22.6077 21.0641 22.3973C22.1202 22.1869 23.215 22.2948 24.2099 22.7075C25.2048 23.1202 26.0552 23.8192 26.6535 24.7159C27.2518 25.6126 27.5711 26.6669 27.5711 27.7453C27.5694 29.191 26.9954 30.577 25.9747 31.5993C24.954 32.6215 23.5701 33.1966 22.1266 33.1982ZM22.1266 23.1152C21.2122 23.1152 20.3183 23.3867 19.558 23.8954C18.7977 24.4042 18.2051 25.1273 17.8552 25.9733C17.5052 26.8194 17.4136 27.7503 17.592 28.6485C17.7704 29.5467 18.2106 30.3717 18.8572 31.0193C19.5037 31.6668 20.3275 32.1078 21.2243 32.2865C22.1211 32.4652 23.0507 32.3735 23.8955 32.0231C24.7403 31.6726 25.4624 31.0791 25.9704 30.3177C26.4784 29.5563 26.7496 28.6611 26.7496 27.7453C26.7482 26.5178 26.2607 25.341 25.394 24.4729C24.5274 23.6049 23.3523 23.1166 22.1266 23.1152Z" fill="black"/>
<path d="M14.2975 51.4899C14.2435 51.4899 14.1901 51.4793 14.1402 51.4586C14.0904 51.4379 14.0451 51.4076 14.007 51.3694C13.9688 51.3312 13.9386 51.2859 13.918 51.236C13.8974 51.186 13.8867 51.1325 13.8867 51.0785V42.0115C13.8867 41.9024 13.93 41.7977 14.0071 41.7206C14.0841 41.6434 14.1885 41.6001 14.2975 41.6001C14.4064 41.6001 14.5109 41.6434 14.5879 41.7206C14.6649 41.7977 14.7082 41.9024 14.7082 42.0115V51.0785C14.7082 51.1325 14.6977 51.186 14.677 51.2359C14.6564 51.2858 14.6261 51.3312 14.588 51.3694C14.5498 51.4076 14.5046 51.4379 14.4547 51.4586C14.4049 51.4793 14.3514 51.4899 14.2975 51.4899Z" fill="black"/>
<path d="M29.9576 51.4899C29.9037 51.4899 29.8502 51.4793 29.8004 51.4586C29.7505 51.4379 29.7053 51.4076 29.6671 51.3694C29.629 51.3312 29.5988 51.2858 29.5782 51.2359C29.5575 51.186 29.5469 51.1325 29.5469 51.0785V42.0115C29.5469 41.9024 29.5902 41.7977 29.6672 41.7206C29.7442 41.6434 29.8487 41.6001 29.9576 41.6001C30.0666 41.6001 30.171 41.6434 30.248 41.7206C30.3251 41.7977 30.3684 41.9024 30.3684 42.0115V51.0785C30.3684 51.1325 30.3577 51.186 30.3371 51.2359C30.3165 51.2858 30.2863 51.3312 30.2481 51.3694C30.21 51.4076 30.1647 51.4379 30.1149 51.4586C30.065 51.4793 30.0116 51.4899 29.9576 51.4899Z" fill="black"/>
<path d="M37.9321 34.1799H44.5469C46.9459 34.1799 49.2466 35.1343 50.9429 36.8332C52.6393 38.5321 53.5922 40.8363 53.5923 43.2388V51.079H28.8867V43.2388C28.8867 40.8363 29.8397 38.5321 31.536 36.8332C33.2324 35.1344 35.5331 34.1799 37.9321 34.1799Z" fill="white"/>
<path d="M53.5908 51.4905H28.8854C28.8314 51.4905 28.7781 51.4798 28.7282 51.4592C28.6784 51.4385 28.6331 51.4082 28.5949 51.37C28.5568 51.3318 28.5265 51.2864 28.5059 51.2365C28.4853 51.1866 28.4746 51.1331 28.4746 51.0791V43.2389C28.4774 40.7281 29.4746 38.3209 31.2474 36.5455C33.0202 34.7701 35.4237 33.7714 37.9308 33.7686H44.5454C47.0524 33.7714 49.456 34.7701 51.2288 36.5455C53.0015 38.3209 53.9987 40.7281 54.0016 43.2389V51.0791C54.0016 51.1331 53.991 51.1866 53.9704 51.2365C53.9497 51.2864 53.9195 51.3318 53.8813 51.37C53.8432 51.4082 53.7979 51.4385 53.748 51.4592C53.6982 51.4798 53.6448 51.4905 53.5908 51.4905ZM29.2961 50.6677H53.18V43.2389C53.1774 40.9462 52.2669 38.7482 50.6481 37.127C49.0294 35.5059 46.8346 34.5939 44.5454 34.5913H37.9308C35.6415 34.5939 33.4468 35.5058 31.828 37.127C30.2093 38.7482 29.2987 40.9462 29.2961 43.2389V50.6677Z" fill="black"/>
<path d="M41.239 32.7863C44.0192 32.7863 46.2729 30.5292 46.2729 27.7448C46.2729 24.9605 44.0192 22.7034 41.239 22.7034C38.4588 22.7034 36.2051 24.9605 36.2051 27.7448C36.2051 30.5292 38.4588 32.7863 41.239 32.7863Z" fill="white"/>
<path d="M41.2379 33.1982C40.161 33.1983 39.1083 32.8785 38.2129 32.2793C37.3175 31.6802 36.6196 30.8286 36.2074 29.8322C35.7953 28.8358 35.6875 27.7394 35.8976 26.6817C36.1076 25.6239 36.6262 24.6523 37.3877 23.8896C38.1491 23.127 39.1192 22.6077 40.1754 22.3973C41.2316 22.1869 42.3263 22.2948 43.3212 22.7075C44.3161 23.1202 45.1665 23.8192 45.7648 24.7159C46.3631 25.6126 46.6824 26.6669 46.6824 27.7453C46.6808 29.191 46.1067 30.577 45.086 31.5993C44.0653 32.6215 42.6814 33.1966 41.2379 33.1982ZM41.2379 23.1152C40.3235 23.1152 39.4297 23.3867 38.6694 23.8954C37.9091 24.4042 37.3164 25.1273 36.9665 25.9733C36.6165 26.8194 36.525 27.7503 36.7033 28.6485C36.8817 29.5467 37.3219 30.3717 37.9685 31.0193C38.6151 31.6668 39.4388 32.1078 40.3357 32.2865C41.2325 32.4652 42.1621 32.3735 43.0069 32.0231C43.8516 31.6726 44.5737 31.0791 45.0817 30.3177C45.5897 29.5563 45.8609 28.6611 45.8609 27.7453C45.8595 26.5178 45.372 25.341 44.5054 24.4729C43.6387 23.6049 42.4636 23.1166 41.2379 23.1152Z" fill="black"/>
<path d="M33.4049 51.4899C33.3509 51.4899 33.2975 51.4793 33.2477 51.4586C33.1978 51.4379 33.1525 51.4076 33.1144 51.3694C33.0762 51.3312 33.0461 51.2859 33.0254 51.236C33.0048 51.186 32.9941 51.1325 32.9941 51.0785V42.0115C32.9941 41.9024 33.0374 41.7977 33.1145 41.7206C33.1915 41.6434 33.296 41.6001 33.4049 41.6001C33.5138 41.6001 33.6183 41.6434 33.6953 41.7206C33.7723 41.7977 33.8156 41.9024 33.8156 42.0115V51.0785C33.8157 51.1325 33.8051 51.186 33.7845 51.2359C33.7638 51.2858 33.7336 51.3312 33.6954 51.3694C33.6573 51.4076 33.612 51.4379 33.5621 51.4586C33.5123 51.4793 33.4588 51.4899 33.4049 51.4899Z" fill="black"/>
<path d="M49.067 51.4899C49.0131 51.4899 48.9596 51.4793 48.9098 51.4586C48.8599 51.4379 48.8146 51.4076 48.7765 51.3694C48.7383 51.3312 48.7082 51.2858 48.6875 51.2359C48.6669 51.186 48.6562 51.1325 48.6563 51.0785V42.0115C48.6563 41.9024 48.6996 41.7977 48.7766 41.7206C48.8536 41.6434 48.9581 41.6001 49.067 41.6001C49.1759 41.6001 49.2804 41.6434 49.3574 41.7206C49.4345 41.7977 49.4778 41.9024 49.4778 42.0115V51.0785C49.4778 51.1325 49.4671 51.186 49.4465 51.2359C49.4258 51.2858 49.3957 51.3312 49.3575 51.3694C49.3194 51.4076 49.2741 51.4379 49.2242 51.4586C49.1744 51.4793 49.1209 51.4899 49.067 51.4899Z" fill="black"/>
</svg>
