<svg width="50" height="50" viewBox="0 0 50 50" fill="none" xmlns="http://www.w3.org/2000/svg">
<g clip-path="url(#clip0_650_2791)">
<path d="M37.6858 39.9996V34.2791C37.6848 31.611 36.7506 29.0273 35.0451 26.9755C33.3395 24.9238 30.97 23.5332 28.347 23.0446C29.7044 22.3014 30.7757 21.1275 31.392 19.708C32.0084 18.2885 32.1348 16.7043 31.7512 15.2051C31.3676 13.7058 30.4959 12.377 29.2735 11.428C28.0511 10.479 26.5476 9.96387 25.0001 9.96387C23.4526 9.96387 21.9491 10.479 20.7267 11.428C19.5044 12.377 18.6326 13.7058 18.249 15.2051C17.8654 16.7043 17.9918 18.2885 18.6082 19.708C19.2246 21.1275 20.2959 22.3014 21.6532 23.0446C19.0303 23.5333 16.6608 24.9239 14.9553 26.9756C13.2497 29.0274 12.3155 31.6111 12.3145 34.2791V39.9996H37.6858Z" fill="#F47D39"/>
</g>
<defs>
<clipPath id="clip0_650_2791">
<rect width="25.3713" height="30" fill="white" transform="translate(12.3145 10)"/>
</clipPath>
</defs>
</svg>
