<svg width="50" height="50" viewBox="0 0 50 50" fill="none" xmlns="http://www.w3.org/2000/svg">
<g clip-path="url(#clip0_1302_3577)">
<path d="M37.6858 40.0001V34.2796C37.6848 31.6115 36.7506 29.0278 35.0451 26.976C33.3395 24.9242 30.97 23.5337 28.347 23.0451C29.7044 22.3019 30.7757 21.128 31.392 19.7085C32.0084 18.289 32.1348 16.7048 31.7512 15.2055C31.3676 13.7063 30.4959 12.3774 29.2735 11.4285C28.0511 10.4795 26.5476 9.96436 25.0001 9.96436C23.4526 9.96436 21.9491 10.4795 20.7267 11.4285C19.5044 12.3774 18.6326 13.7063 18.249 15.2055C17.8654 16.7048 17.9918 18.289 18.6082 19.7085C19.2246 21.128 20.2959 22.3019 21.6532 23.0451C19.0303 23.5337 16.6608 24.9244 14.9553 26.9761C13.2497 29.0279 12.3155 31.6116 12.3145 34.2796V40.0001H37.6858Z" fill="#FFB455"/>
</g>
<defs>
<clipPath id="clip0_1302_3577">
<rect width="25.3713" height="30" fill="white" transform="translate(12.3145 10)"/>
</clipPath>
</defs>
</svg>
