<svg width="55" height="72" viewBox="0 0 55 72" fill="none" xmlns="http://www.w3.org/2000/svg">
<g clip-path="url(#clip0_650_3001)">
<path d="M50.7007 65.4471L43.349 64.9812L38.9789 70.9373C38.892 71.0558 38.7759 71.1494 38.642 71.2092C38.5082 71.2689 38.3612 71.2927 38.2154 71.2781C38.0697 71.2635 37.9302 71.211 37.8108 71.1258C37.6913 71.0407 37.5959 70.9259 37.534 70.7926L27.5 49.179L41.4847 42.6289L51.5189 64.2425C51.5808 64.3758 51.607 64.523 51.5951 64.6696C51.5832 64.8162 51.5337 64.9572 51.4511 65.0787C51.3686 65.2002 51.2559 65.298 51.1244 65.3626C50.9928 65.4272 50.8469 65.4564 50.7007 65.4471Z" fill="white"/>
<path d="M38.3044 71.9996C38.2515 71.9996 38.1985 71.9967 38.1441 71.9925C37.8748 71.9664 37.6171 71.8698 37.3967 71.7123C37.1762 71.5548 37.0009 71.3419 36.888 71.0949L26.5518 48.8325L41.8302 41.6768L52.1665 63.9406C52.2819 64.1861 52.331 64.4577 52.309 64.7283C52.287 64.9989 52.1946 65.259 52.041 65.4824C51.8881 65.706 51.6802 65.886 51.4377 66.0053C51.1951 66.1245 50.9262 66.1788 50.6566 66.163L43.6928 65.7219L39.5536 71.3638C39.41 71.5611 39.2219 71.7215 39.0048 71.832C38.7877 71.9425 38.5478 71.9999 38.3044 71.9996ZM28.4478 49.527L38.1817 70.49L38.9792 70.9381L38.4048 70.5124L43.0041 64.2403L50.7458 64.7318C50.7686 64.7355 50.792 64.732 50.8127 64.7217C50.8335 64.7114 50.8505 64.695 50.8615 64.6746L41.1373 43.5828L28.4478 49.527Z" fill="#2B2B2B"/>
<path d="M4.29964 65.4471L11.6512 64.9812L16.0215 70.9373C16.1084 71.0558 16.2243 71.1494 16.3582 71.2092C16.492 71.2689 16.639 71.2927 16.7848 71.2781C16.9305 71.2635 17.07 71.211 17.1894 71.1258C17.3089 71.0407 17.4043 70.9259 17.4662 70.7926L27.5002 49.179L13.5155 42.6289L3.48145 64.2425C3.41956 64.3758 3.39325 64.523 3.40512 64.6696C3.417 64.8162 3.46654 64.9572 3.54907 65.0787C3.6316 65.2002 3.74425 65.298 3.87582 65.3626C4.0074 65.4272 4.15349 65.4564 4.29964 65.4471Z" fill="white"/>
<path d="M16.6965 71.9996C16.4527 72.0002 16.2122 71.9428 15.9949 71.832C15.7775 71.7213 15.5892 71.5603 15.4457 71.3624L11.3079 65.7219L4.34413 66.163C4.07448 66.18 3.80512 66.1265 3.56236 66.0074C3.3196 65.8882 3.11186 65.7076 2.95956 65.4835C2.80727 65.2593 2.71559 64.9992 2.69363 64.7287C2.67167 64.4582 2.72013 64.1866 2.83426 63.9406L13.1691 41.6768L28.4476 48.8325L18.1127 71.0949C18 71.3422 17.8244 71.5554 17.6037 71.713C17.383 71.8706 17.1248 71.9669 16.8552 71.9925C16.8009 71.9967 16.748 71.9996 16.6965 71.9996ZM11.994 64.2403L16.5961 70.5124L16.8191 70.49L26.5517 49.527L13.8608 43.5812L4.12821 64.5456L4.25508 64.7318L11.994 64.2403Z" fill="#2B2B2B"/>
<path d="M29.2187 1.32554L30.6332 2.47941C30.9933 2.77308 31.422 2.96968 31.8787 3.05057C32.3355 3.13146 32.8051 3.09397 33.2434 2.94169L34.9656 2.3434C35.5572 2.13787 36.2012 2.14305 36.7895 2.35811C37.3777 2.57316 37.8743 2.98499 38.196 3.52441L39.1323 5.09453C39.3706 5.49417 39.7066 5.82609 40.1082 6.05901C40.5099 6.29193 40.9641 6.41823 41.4278 6.42572L43.2498 6.45513C43.8757 6.46523 44.4791 6.69125 44.9586 7.09543C45.4382 7.49961 45.7647 8.05726 45.8833 8.67465L46.2285 10.4718C46.3164 10.9292 46.5189 11.3565 46.817 11.7134C47.1152 12.0702 47.499 12.3449 47.9322 12.5112L49.6343 13.1648C50.219 13.3894 50.709 13.8092 51.022 14.3537C51.335 14.8982 51.4519 15.5343 51.3531 16.1552L51.0655 17.9625C50.9924 18.4225 51.0373 18.8938 51.1959 19.3315C51.3545 19.7693 51.6216 20.1591 51.9721 20.4642L53.349 21.6631C53.822 22.0749 54.1395 22.6378 54.2482 23.257C54.3569 23.8762 54.2501 24.5141 53.9459 25.0636L53.0602 26.6633C52.8348 27.0704 52.7166 27.5285 52.7166 27.9943C52.7166 28.4602 52.8348 28.9184 53.0602 29.3255L53.9459 30.9251C54.2501 31.4746 54.3569 32.1126 54.2482 32.7318C54.1395 33.3511 53.822 33.9137 53.349 34.3256L51.9721 35.5244C51.6216 35.8296 51.3545 36.2196 51.1959 36.6573C51.0373 37.0951 50.9924 37.5661 51.0655 38.0261L51.3531 39.8336C51.4519 40.4545 51.335 41.0906 51.022 41.6351C50.709 42.1797 50.219 42.5995 49.6343 42.824L47.9322 43.4775C47.499 43.6438 47.1152 43.9184 46.817 44.2753C46.5189 44.6322 46.3164 45.0595 46.2285 45.5169L45.8833 47.314C45.7647 47.9314 45.4382 48.4891 44.9586 48.8932C44.4791 49.2974 43.8757 49.5236 43.2498 49.5337L41.4278 49.5631C40.9641 49.5706 40.5099 49.6967 40.1082 49.9297C39.7066 50.1626 39.3706 50.4945 39.1323 50.8941L38.196 52.4643C37.8743 53.0037 37.3777 53.4155 36.7895 53.6306C36.2012 53.8456 35.5572 53.8508 34.9656 53.6453L33.2434 53.0472C32.8051 52.8949 32.3355 52.8574 31.8787 52.9383C31.422 53.0192 30.9933 53.2158 30.6332 53.5094L29.2187 54.6631C28.7328 55.0595 28.1257 55.276 27.4997 55.276C26.8737 55.276 26.2669 55.0595 25.7809 54.6631L24.3664 53.5094C24.0063 53.2158 23.5776 53.0192 23.1209 52.9383C22.6641 52.8574 22.1945 52.8949 21.7562 53.0472L20.0341 53.6453C19.4424 53.8508 18.7984 53.8456 18.2102 53.6306C17.6219 53.4155 17.1253 53.0037 16.8036 52.4643L15.8673 50.8941C15.629 50.4945 15.293 50.1626 14.8914 49.9297C14.4897 49.6967 14.0356 49.5706 13.5718 49.5631L11.7498 49.5337C11.1239 49.5236 10.5205 49.2974 10.041 48.8932C9.56142 48.4891 9.2349 47.9314 9.1163 47.314L8.77107 45.5169C8.68321 45.0595 8.48069 44.6322 8.18257 44.2753C7.88445 43.9184 7.50064 43.6438 7.06742 43.4775L5.36534 42.824C4.7806 42.5995 4.29065 42.1797 3.97764 41.6351C3.66464 41.0906 3.54775 40.4545 3.64653 39.8336L3.93407 38.0261C4.00726 37.5661 3.96235 37.0951 3.80372 36.6573C3.64509 36.2196 3.37798 35.8296 3.02753 35.5244L1.65063 34.3256C1.17761 33.9137 0.860112 33.3511 0.751407 32.7318C0.642702 32.1126 0.749336 31.4746 1.05359 30.9251L1.93922 29.3255C2.16463 28.9184 2.28305 28.4602 2.28305 27.9943C2.28305 27.5285 2.16463 27.0704 1.93922 26.6633L1.05359 25.0636C0.749336 24.5141 0.642702 23.8762 0.751407 23.257C0.860112 22.6378 1.17761 22.075 1.65063 21.6631L3.02753 20.4642C3.37798 20.1591 3.64509 19.7693 3.80372 19.3315C3.96235 18.8938 4.00726 18.4225 3.93407 17.9625L3.64653 16.1552C3.54775 15.5343 3.66464 14.8981 3.97764 14.3535C4.29065 13.809 4.7806 13.3893 5.36534 13.1648L7.06742 12.5112C7.50064 12.3449 7.88445 12.0702 8.18257 11.7134C8.48069 11.3565 8.68321 10.9292 8.77107 10.4718L9.1163 8.67465C9.2349 8.05725 9.56142 7.49961 10.041 7.09543C10.5205 6.69125 11.1239 6.46523 11.7498 6.45513L13.5718 6.42572C14.0356 6.41823 14.4897 6.29193 14.8914 6.05901C15.293 5.82609 15.629 5.49417 15.8673 5.09453L16.8036 3.52441C17.1253 2.98499 17.6219 2.57316 18.2102 2.35811C18.7984 2.14305 19.4424 2.13787 20.0341 2.3434L21.7562 2.94169C22.1945 3.09397 22.6641 3.13146 23.1209 3.05057C23.5776 2.96968 24.0063 2.77307 24.3664 2.47941L25.7809 1.32554C26.2669 0.929154 26.8737 0.712891 27.4997 0.712891C28.1257 0.712891 28.7328 0.929154 29.2187 1.32554Z" fill="white"/>
<path d="M27.5006 55.9884C26.7103 55.9903 25.9437 55.7182 25.3299 55.2183L23.9162 54.0672C23.6511 53.8487 23.3345 53.7024 22.9968 53.6423C22.6591 53.5823 22.3118 53.6104 21.9881 53.7241L20.2677 54.3234C19.5207 54.5779 18.7096 54.5689 17.9684 54.2977C17.2273 54.0266 16.6004 53.5097 16.1913 52.8323L15.2544 51.2625C15.0775 50.9684 14.8294 50.724 14.5333 50.5522C14.2371 50.3803 13.9025 50.2865 13.5605 50.2795L11.7383 50.25C10.9492 50.2349 10.1889 49.9486 9.58421 49.4391C8.97949 48.9295 8.56676 48.2274 8.41469 47.4494L8.06894 45.6528C8.00558 45.3147 7.85673 44.9986 7.63675 44.735C7.41678 44.4714 7.13309 44.2691 6.81281 44.1474L5.11056 43.4934C4.37434 43.2077 3.75763 42.6774 3.36299 41.9909C2.96835 41.3043 2.81954 40.5028 2.94126 39.7195L3.22846 37.9131C3.28428 37.5736 3.252 37.2254 3.13505 36.9019C3.0181 36.5784 2.82039 36.2905 2.56066 36.0661L1.18324 34.8674C0.588504 34.3463 0.18939 33.6363 0.0524113 32.8556C-0.0845675 32.075 0.0488492 31.2707 0.4304 30.5768L1.31429 28.9762C1.48213 28.6763 1.57039 28.3381 1.57064 27.994C1.57089 27.65 1.48308 27.3117 1.31568 27.0115L0.4304 25.4124C0.0488492 24.7184 -0.0845675 23.9142 0.0524113 23.1335C0.18939 22.3528 0.588504 21.6428 1.18324 21.1217L2.56066 19.9217C2.82027 19.6974 3.0181 19.4099 3.13505 19.0867C3.252 18.7635 3.28415 18.4154 3.22846 18.076L2.94126 16.2682C2.81969 15.4851 2.96852 14.6838 3.36317 13.9975C3.75781 13.3112 4.37449 12.7812 5.11056 12.4957L6.81142 11.8417C7.13201 11.7203 7.416 11.5181 7.63623 11.2545C7.85647 10.9908 8.00554 10.6746 8.06894 10.3364L8.41469 8.53835C8.56704 7.7605 8.97972 7.05852 9.58438 6.549C10.189 6.03949 10.9492 5.75315 11.7383 5.73769L13.5605 5.70828C13.9029 5.70415 14.2386 5.61166 14.5352 5.43977C14.8318 5.26787 15.0794 5.02234 15.2544 4.72665L16.1913 3.15547C16.6001 2.47819 17.2268 1.96148 17.9677 1.69055C18.7087 1.41962 19.5197 1.41072 20.2663 1.66552L21.9881 2.26346C22.3115 2.37816 22.6588 2.40709 22.9966 2.34748C23.3344 2.28787 23.6512 2.14174 23.9162 1.92318L25.3299 0.769307C25.9443 0.271495 26.7098 0 27.4992 0C28.2886 0 29.0541 0.271495 29.6685 0.769307L31.0835 1.92178C31.3486 2.13995 31.6649 2.28607 32.0023 2.34591C32.3397 2.40574 32.6869 2.37729 33.0103 2.26346L34.732 1.66552C35.4786 1.40991 36.2898 1.41833 37.031 1.68933C37.7722 1.96032 38.3988 2.47761 38.8071 3.15547L39.744 4.72665C39.9194 5.02227 40.1673 5.26772 40.4641 5.43959C40.7609 5.61146 41.0967 5.70399 41.4393 5.70828L43.26 5.73769C44.0491 5.75315 44.8092 6.03949 45.4138 6.549C46.0185 7.05852 46.4314 7.7605 46.5837 8.53835L46.9294 10.3364C46.9928 10.6744 47.1415 10.9903 47.3615 11.2539C47.5814 11.5176 47.8653 11.72 48.1856 11.8417L49.8892 12.4957C50.6253 12.7812 51.2418 13.3112 51.6364 13.9975C52.0311 14.6838 52.1801 15.4851 52.0585 16.2682L51.7713 18.076C51.7156 18.4154 51.7478 18.7635 51.8647 19.0867C51.9817 19.4099 52.1795 19.6974 52.4391 19.9217L53.8165 21.1217C54.4106 21.6429 54.8093 22.3526 54.9465 23.1328C55.0837 23.913 54.9511 24.7169 54.5708 25.411L53.6827 27.0115C53.516 27.3122 53.4285 27.6506 53.4288 27.9947C53.429 28.3389 53.5169 28.6772 53.6841 28.9776L54.5694 30.5768C54.9505 31.2709 55.0835 32.0752 54.9463 32.8558C54.8091 33.6364 54.4099 34.3463 53.8151 34.8674L52.4391 36.0661C52.1794 36.2905 51.9815 36.5784 51.8646 36.9019C51.7476 37.2254 51.7155 37.5736 51.7713 37.9131L52.0585 39.7195C52.1801 40.5028 52.0311 41.3044 51.6364 41.9909C51.2418 42.6774 50.6253 43.2076 49.8892 43.4934L48.187 44.1474C47.8664 44.2689 47.5822 44.471 47.362 44.7347C47.1417 44.9983 46.9928 45.3145 46.9294 45.6528L46.5837 47.4494C46.4316 48.2274 46.0189 48.9295 45.4142 49.4391C44.8095 49.9486 44.0492 50.2349 43.26 50.25L41.4393 50.2795C41.0966 50.2842 40.7609 50.3769 40.4641 50.549C40.1673 50.7211 39.9194 50.9668 39.744 51.2625L38.8071 52.8323C38.399 53.5104 37.7724 54.0279 37.0312 54.2991C36.29 54.5704 35.4788 54.5789 34.732 54.3234L33.0089 53.7241C32.6858 53.6102 32.3388 53.5818 32.0016 53.6417C31.6644 53.7015 31.3482 53.8475 31.0835 54.0658L29.6671 55.2197C29.0544 55.7186 28.2893 55.9901 27.5006 55.9884ZM22.6531 52.1767C23.4421 52.1772 24.2065 52.4518 24.8169 52.9539L26.2305 54.105C26.5893 54.397 27.037 54.5565 27.4988 54.5568C27.9607 54.557 28.4087 54.398 28.7679 54.1064L30.1843 52.9527C30.6369 52.5798 31.1775 52.3301 31.754 52.2278C32.3305 52.1256 32.9235 52.1741 33.4759 52.3687L35.1989 52.9681C35.6358 53.1173 36.1104 53.112 36.5439 52.9534C36.9775 52.7947 37.3439 52.4922 37.5829 52.0957L38.5198 50.5259C38.819 50.0201 39.2427 49.5999 39.7499 49.3057C40.2572 49.0115 40.8311 48.8531 41.4168 48.8455L43.2376 48.8161C43.6992 48.8076 44.1442 48.6403 44.4979 48.3421C44.8516 48.0439 45.0926 47.6329 45.181 47.1777L45.5268 45.3811C45.6358 44.8031 45.8911 44.263 46.2677 43.8125C46.6444 43.3621 47.13 43.0164 47.6779 42.8087L49.3788 42.1547C49.8096 41.9875 50.1704 41.6772 50.4012 41.2755C50.632 40.8737 50.7189 40.4047 50.6475 39.9464L50.3603 38.14C50.2657 37.5592 50.3212 36.9639 50.5216 36.4109C50.7221 35.8579 51.0607 35.3659 51.5049 34.9822L52.8809 33.7835C53.2286 33.4784 53.4621 33.063 53.5422 32.6062C53.6224 32.1494 53.5444 31.6789 53.3214 31.2727L52.4362 29.6736C52.1504 29.1606 52.0002 28.5826 52 27.9947C51.9997 27.4069 52.1494 26.8288 52.4348 26.3156L53.3228 24.715C53.5452 24.3088 53.6226 23.8385 53.5422 23.382C53.4619 22.9256 53.2284 22.5105 52.8809 22.2056L51.5035 21.0055C51.0601 20.6215 50.7221 20.1296 50.522 19.577C50.3218 19.0244 50.2662 18.4296 50.3603 17.8492L50.6475 16.0413C50.7191 15.5832 50.6323 15.1143 50.4014 14.7128C50.1705 14.3112 49.8096 14.0011 49.3788 13.8344L47.6765 13.1805C47.1289 12.9725 46.6437 12.6267 46.2672 12.1762C45.8908 11.7258 45.6358 11.1858 45.5268 10.608L45.181 8.81001C45.0921 8.35502 44.8508 7.94425 44.4972 7.64616C44.1436 7.34808 43.6991 7.18065 43.2376 7.17163L41.4168 7.14222C40.8313 7.13465 40.2575 6.97635 39.7503 6.68239C39.2431 6.38842 38.8193 5.96863 38.5198 5.46322L37.5829 3.89205C37.3442 3.49502 36.9774 3.19211 36.5434 3.03364C36.1094 2.87518 35.6344 2.87069 35.1975 3.02104L33.4757 3.61898C32.923 3.81302 32.3299 3.86127 31.7533 3.75902C31.1767 3.65677 30.6359 3.40746 30.1828 3.03504L28.7677 1.88117C28.4074 1.59144 27.9597 1.43368 27.4981 1.43394C27.0366 1.4342 26.5889 1.59244 26.2289 1.88257L24.8167 3.03504C24.3633 3.40764 23.8223 3.65694 23.2455 3.75919C22.6686 3.86144 22.0752 3.81321 21.5223 3.61898L19.8005 3.02104C19.3635 2.87104 18.8886 2.87581 18.4547 3.03452C18.0207 3.19323 17.6538 3.49632 17.4151 3.89345L16.4783 5.46322C16.1794 5.96893 15.7561 6.38889 15.249 6.68291C14.7419 6.97693 14.1681 7.13515 13.5826 7.14222L11.7605 7.17163C11.2989 7.18066 10.8544 7.34808 10.5009 7.64616C10.1473 7.94425 9.90591 8.35502 9.81703 8.81001L9.47128 10.608C9.36221 11.186 9.10716 11.7261 8.73046 12.1766C8.35377 12.627 7.86808 12.9728 7.32011 13.1805L5.62064 13.8344C5.18974 14.001 4.82874 14.311 4.59786 14.7126C4.36698 15.1142 4.28019 15.5832 4.35197 16.0413L4.63916 17.8492C4.73331 18.4297 4.6775 19.0247 4.47709 19.5773C4.27668 20.13 3.93837 20.6218 3.49456 21.0055L2.11715 22.2056C1.76957 22.5105 1.53629 22.9257 1.45614 23.3822C1.376 23.8387 1.45382 24.309 1.67659 24.715L2.56188 26.3142C2.84845 26.8272 2.99894 27.4056 2.99894 27.9939C2.99894 28.5821 2.84845 29.1605 2.56188 29.6736L1.67799 31.2741C1.45467 31.6799 1.37641 32.1501 1.45632 32.6067C1.53622 33.0633 1.76947 33.4786 2.11715 33.7835L3.49456 34.9822C3.93876 35.3659 4.27736 35.8579 4.47779 36.4109C4.67822 36.9639 4.73377 37.5592 4.63916 38.14L4.35197 39.9464C4.28036 40.4047 4.3672 40.8737 4.59803 41.2755C4.82887 41.6773 5.18978 41.9877 5.62064 42.1547L7.3215 42.8087C7.86916 43.0167 8.35439 43.3625 8.73081 43.8129C9.10724 44.2633 9.36225 44.8033 9.47128 45.3811L9.81703 47.1777C9.90543 47.6329 10.1466 48.0439 10.5003 48.3421C10.854 48.6403 11.2988 48.8076 11.7605 48.8161L13.5826 48.8455C14.1682 48.853 14.7419 49.0115 15.249 49.3057C15.756 49.5999 16.1793 50.0201 16.4783 50.5259L17.4151 52.0957C17.6544 52.4923 18.0212 52.7949 18.455 52.9536C18.8888 53.1122 19.3635 53.1173 19.8005 52.9681L21.5209 52.3686C21.8851 52.2419 22.2678 52.1771 22.6531 52.1767Z" fill="#2B2B2B"/>
<path d="M27.499 47.3142C38.1219 47.3142 46.7334 38.6645 46.7334 27.9945C46.7334 17.3245 38.1219 8.6748 27.499 8.6748C16.8762 8.6748 8.26465 17.3245 8.26465 27.9945C8.26465 38.6645 16.8762 47.3142 27.499 47.3142Z" fill="white"/>
<path d="M27.4993 48.0303C23.5539 48.0302 19.6971 46.855 16.4167 44.6532C13.1363 42.4515 10.5796 39.3221 9.06989 35.6608C7.56018 31.9995 7.16539 27.9708 7.93523 24.0841C8.70507 20.1974 10.605 16.6272 13.3949 13.8251C16.1848 11.023 19.7394 9.1149 23.6089 8.34191C27.4785 7.56893 31.4894 7.96583 35.1344 9.48248C38.7794 10.9991 41.8947 13.5673 44.0866 16.8624C46.2784 20.1575 47.4483 24.0315 47.4482 27.9943C47.442 33.3065 45.3382 38.3994 41.5983 42.1556C37.8585 45.9117 32.7881 48.0244 27.4993 48.0303ZM27.4993 9.39094C23.8364 9.39107 20.2556 10.4823 17.21 12.5265C14.1644 14.5706 11.7908 17.4759 10.3891 20.8751C8.98741 24.2742 8.62066 28.0146 9.3353 31.6231C10.0499 35.2316 11.8138 38.5462 14.4039 41.1478C16.994 43.7494 20.294 45.5211 23.8866 46.2389C27.4791 46.9567 31.203 46.5884 34.5872 45.1804C37.9713 43.7725 40.8638 41.3882 42.8989 38.3291C44.934 35.2701 46.0205 31.6736 46.0206 27.9943C46.0152 23.0621 44.0619 18.3334 40.5897 14.8458C37.1174 11.3581 32.4098 9.39639 27.4993 9.39094Z" fill="#2B2B2B"/>
<path d="M28.1731 16.2579L31.2155 22.6413C31.269 22.7537 31.3497 22.851 31.45 22.9242C31.5504 22.9974 31.6672 23.0443 31.7902 23.0607L38.7745 23.9946C38.9141 24.0132 39.0456 24.071 39.1538 24.1616C39.2619 24.2521 39.3424 24.3715 39.3859 24.506C39.4294 24.6405 39.4342 24.7847 39.3996 24.9218C39.3651 25.0589 39.2927 25.1834 39.1907 25.2809L34.0867 30.1597C33.9969 30.2456 33.9297 30.3528 33.8914 30.4713C33.853 30.5898 33.8447 30.716 33.8671 30.8385L35.1412 37.7989C35.1667 37.938 35.1525 38.0815 35.1003 38.2128C35.048 38.3442 34.9597 38.4579 34.8458 38.541C34.7319 38.6242 34.597 38.6733 34.4565 38.6827C34.316 38.692 34.1757 38.6612 34.0519 38.5939L27.855 35.2259C27.7459 35.1666 27.6239 35.1356 27.4999 35.1356C27.3758 35.1356 27.2537 35.1666 27.1446 35.2259L20.9477 38.5939C20.8239 38.6612 20.6836 38.692 20.5431 38.6827C20.4026 38.6733 20.2677 38.6242 20.1538 38.541C20.0399 38.4579 19.9516 38.3442 19.8993 38.2128C19.8471 38.0815 19.8329 37.938 19.8584 37.7989L21.1325 30.8385C21.1549 30.716 21.1466 30.5898 21.1082 30.4713C21.0699 30.3528 21.0027 30.2456 20.9129 30.1597L15.8089 25.2809C15.7069 25.1834 15.6345 25.0589 15.6 24.9218C15.5654 24.7847 15.5702 24.6405 15.6137 24.506C15.6572 24.3715 15.7377 24.2522 15.8458 24.1617C15.954 24.0712 16.0855 24.0132 16.2251 23.9946L23.2094 23.0607C23.3324 23.0443 23.4492 22.9974 23.5496 22.9242C23.6499 22.851 23.7306 22.7537 23.7841 22.6413L26.8265 16.2579C26.8873 16.1303 26.9827 16.0228 27.1019 15.9474C27.221 15.872 27.3591 15.832 27.4999 15.832C27.6407 15.832 27.7786 15.872 27.8977 15.9474C28.0169 16.0228 28.1123 16.1303 28.1731 16.2579Z" fill="white"/>
<path d="M34.4085 39.403C34.1649 39.4029 33.9252 39.3413 33.7114 39.2238L27.5144 35.856L21.2882 39.2238C21.046 39.3554 20.7717 39.4156 20.497 39.3974C20.2223 39.3793 19.9582 39.2837 19.7353 39.1214C19.5123 38.9591 19.3395 38.7368 19.2369 38.4802C19.1342 38.2236 19.106 37.9429 19.1551 37.6708L20.4294 30.7084L15.317 25.8002C15.1174 25.6095 14.9757 25.366 14.908 25.0978C14.8404 24.8295 14.8495 24.5475 14.9347 24.2843C15.0198 24.0212 15.1775 23.7876 15.3892 23.6106C15.6009 23.4336 15.8581 23.3202 16.1312 23.2838L23.1145 22.3498L26.1816 15.9489C26.3004 15.699 26.4872 15.4881 26.7203 15.3404C26.9535 15.1927 27.2235 15.1143 27.4991 15.1143C27.7748 15.1143 28.0448 15.1927 28.2779 15.3404C28.5111 15.4881 28.6978 15.699 28.8166 15.9489L31.8586 22.3316L38.8684 23.2838C39.1414 23.3203 39.3985 23.4337 39.6101 23.6108C39.8217 23.7878 39.9793 24.0214 40.0644 24.2845C40.1495 24.5476 40.1588 24.8296 40.0912 25.0978C40.0237 25.3659 39.882 25.6094 39.6826 25.8002L34.5786 30.679L35.8431 37.6694C35.8814 37.8808 35.873 38.0982 35.8187 38.306C35.7643 38.5139 35.6653 38.7072 35.5285 38.8725C35.3918 39.0377 35.2205 39.171 35.027 39.2626C34.8335 39.3543 34.6225 39.4021 34.4085 39.403ZM27.4991 34.4178C27.7421 34.4179 27.9813 34.4791 28.1948 34.5957L34.3918 37.9635L33.1635 30.9688C33.1199 30.729 33.1364 30.482 33.2116 30.2503C33.2868 30.0185 33.4184 29.8092 33.5943 29.6413L38.6983 24.7611L31.6955 23.7725C31.4554 23.74 31.2269 23.6482 31.0308 23.5052C30.8347 23.3623 30.677 23.1726 30.5718 22.9533L27.5284 16.5678C27.5228 16.5552 27.52 16.5482 27.4991 16.5482L24.4278 22.9505C24.3234 23.1705 24.1659 23.3607 23.9696 23.504C23.7734 23.6473 23.5446 23.7392 23.3041 23.7711L16.3194 24.7065L21.4053 29.6399C21.5812 29.808 21.7125 30.0177 21.7873 30.2497C21.862 30.4818 21.8779 30.729 21.8333 30.9688L20.5604 37.9299L26.8033 34.5957C27.0167 34.4789 27.256 34.4178 27.4991 34.4178Z" fill="#2B2B2B"/>
</g>
<defs>
<clipPath id="clip0_650_3001">
<rect width="55" height="72" fill="white"/>
</clipPath>
</defs>
</svg>
