<svg width="50" height="50" viewBox="0 0 50 50" fill="none" xmlns="http://www.w3.org/2000/svg">
<path d="M32.4711 50H1.50677C1.40789 50.0001 1.30993 49.9807 1.21856 49.9428C1.1272 49.905 1.04421 49.8495 0.974288 49.7796C0.904367 49.7096 0.848884 49.6266 0.81107 49.5352C0.773255 49.4438 0.753849 49.3459 0.753906 49.2469V0.753063C0.753849 0.654153 0.773255 0.556173 0.81107 0.464781C0.848884 0.37339 0.904367 0.29038 0.974288 0.22044C1.04421 0.1505 1.1272 0.0950031 1.21856 0.0571785C1.30993 0.0193539 1.40789 -5.72906e-05 1.50677 1.27008e-07H38.0793C38.1782 -5.72906e-05 38.2762 0.0193539 38.3675 0.0571785C38.4589 0.0950031 38.542 0.1505 38.6119 0.22044C38.6818 0.29038 38.7372 0.37339 38.775 0.464781C38.8129 0.556173 38.8323 0.654153 38.8322 0.753063V42.1311C38.832 42.3002 38.7751 42.4644 38.6706 42.5973L33.0623 49.7132C32.9919 49.8026 32.902 49.8749 32.7997 49.9245C32.6973 49.9742 32.5849 50 32.4711 50ZM2.25963 48.4939H32.1064L37.3265 41.8699V1.50603H2.25963V48.4939Z" fill="black"/>
<path d="M32.8046 42.8841V49.2468C32.8046 49.4466 32.7253 49.6382 32.5841 49.7794C32.4429 49.9206 32.2514 49.9999 32.0517 49.9999C31.852 49.9999 31.6606 49.9206 31.5194 49.7794C31.3782 49.6382 31.2988 49.4466 31.2988 49.2468V42.131C31.2988 42.0321 31.3183 41.9341 31.3561 41.8427C31.3939 41.7513 31.4494 41.6683 31.5193 41.5984C31.5892 41.5284 31.6722 41.4729 31.7636 41.4351C31.8549 41.3973 31.9528 41.3779 32.0517 41.3779H38.079C38.2787 41.3779 38.4702 41.4572 38.6114 41.5985C38.7526 41.7397 38.8319 41.9313 38.8319 42.131C38.8319 42.3307 38.7526 42.5223 38.6114 42.6635C38.4702 42.8048 38.2787 42.8841 38.079 42.8841" fill="black"/>
<path d="M17.9953 10.5486H8.39935C8.19968 10.5486 8.00824 10.4693 7.86705 10.3281C7.72586 10.1868 7.64648 9.99527 7.64648 9.79554C7.64648 9.59582 7.72586 9.40424 7.86705 9.26301C8.00824 9.12179 8.19968 9.04248 8.39935 9.04248H17.9953C18.195 9.04248 18.3865 9.12179 18.5277 9.26301C18.6689 9.40424 18.7482 9.59582 18.7482 9.79554C18.7482 9.99527 18.6689 10.1868 18.5277 10.3281C18.3865 10.4693 18.195 10.5486 17.9953 10.5486Z" fill="black"/>
<path d="M17.9953 18.1511H8.39935C8.19968 18.1511 8.00824 18.0718 7.86705 17.9306C7.72586 17.7894 7.64648 17.5978 7.64648 17.3981C7.64648 17.1984 7.72586 17.0068 7.86705 16.8656C8.00824 16.7243 8.19968 16.645 8.39935 16.645H17.9953C18.195 16.645 18.3865 16.7243 18.5277 16.8656C18.6689 17.0068 18.7482 17.1984 18.7482 17.3981C18.7482 17.5978 18.6689 17.7894 18.5277 17.9306C18.3865 18.0718 18.195 18.1511 17.9953 18.1511Z" fill="black"/>
<path d="M22.5155 25.7532H8.39935C8.19968 25.7532 8.00815 25.6739 7.86696 25.5327C7.72577 25.3914 7.64648 25.1999 7.64648 25.0001C7.64648 24.8004 7.72577 24.6088 7.86696 24.4676C8.00815 24.3264 8.19968 24.2471 8.39935 24.2471H22.5155C22.7152 24.2471 22.9066 24.3264 23.0478 24.4676C23.189 24.6088 23.2684 24.8004 23.2684 25.0001C23.2684 25.1999 23.189 25.3914 23.0478 25.5327C22.9066 25.6739 22.7152 25.7532 22.5155 25.7532Z" fill="black"/>
<path d="M24.9902 33.3552H8.39935C8.19968 33.3552 8.00815 33.2759 7.86696 33.1347C7.72577 32.9935 7.64648 32.8019 7.64648 32.6022C7.64648 32.4025 7.72577 32.2109 7.86696 32.0697C8.00815 31.9284 8.19968 31.8491 8.39935 31.8491H24.9902C25.1898 31.8491 25.3814 31.9284 25.5226 32.0697C25.6638 32.2109 25.743 32.4025 25.743 32.6022C25.743 32.8019 25.6638 32.9935 25.5226 33.1347C25.3814 33.2759 25.1898 33.3552 24.9902 33.3552Z" fill="black"/>
<path d="M24.9902 40.9578H8.39935C8.19968 40.9578 8.00815 40.8785 7.86696 40.7373C7.72577 40.596 7.64648 40.4044 7.64648 40.2047C7.64648 40.005 7.72577 39.8134 7.86696 39.6722C8.00815 39.531 8.19968 39.4517 8.39935 39.4517H24.9902C25.1898 39.4517 25.3814 39.531 25.5226 39.6722C25.6638 39.8134 25.743 40.005 25.743 40.2047C25.743 40.4044 25.6638 40.596 25.5226 40.7373C25.3814 40.8785 25.1898 40.9578 24.9902 40.9578Z" fill="black"/>
<path d="M44.5118 9.16282C43.5002 7.53759 42.0514 6.2303 40.3313 5.39068C38.6112 4.55106 36.6895 4.21307 34.7863 4.41548C32.883 4.6179 31.0752 5.3525 29.57 6.53512C28.0649 7.71775 26.9232 9.30053 26.2758 11.1022C25.6284 12.9038 25.5015 14.8515 25.9096 16.722C26.3177 18.5924 27.2444 20.31 28.5834 21.678C29.9223 23.046 31.6195 24.0091 33.4804 24.4568C35.3413 24.9046 37.2906 24.8189 39.1051 24.2096L44.499 32.8591C44.8304 33.3905 45.3592 33.7684 45.9691 33.9098C46.5791 34.0511 47.2202 33.9443 47.7514 33.6128C48.2827 33.2814 48.6605 32.7524 48.8018 32.1423C48.9432 31.5322 48.8364 30.8909 48.5051 30.3595L43.1111 21.71C44.721 20.0807 45.7348 17.9562 45.989 15.6796C46.2432 13.403 45.7227 11.1071 44.5118 9.16282ZM39.3948 20.2125C38.2764 20.9103 36.9763 21.2607 35.6588 21.2193C34.3414 21.178 33.0658 20.7468 31.9933 19.9803C30.9208 19.2138 30.0997 18.1465 29.6337 16.9132C29.1677 15.6799 29.0778 14.336 29.3753 13.0516C29.6729 11.7671 30.3445 10.5998 31.3053 9.69718C32.2661 8.79454 33.4729 8.19714 34.7731 7.98054C36.0733 7.76394 37.4085 7.93788 38.6099 8.48032C39.8113 9.02276 40.8249 9.90936 41.5225 11.028C41.9857 11.7708 42.2982 12.5975 42.4419 13.4611C42.5857 14.3247 42.558 15.2081 42.3604 16.061C42.1628 16.9139 41.7993 17.7194 41.2904 18.4317C40.7816 19.1441 40.1375 19.7492 39.3948 20.2125Z" fill="#F47D39"/>
</svg>
