<svg width="42" height="58" viewBox="0 0 42 58" fill="none" xmlns="http://www.w3.org/2000/svg">
<g clip-path="url(#clip0_1355_1951)">
<path d="M41.3673 58.0001H0.632706C0.464916 58.0001 0.304009 57.9328 0.185363 57.813C0.0667174 57.6933 4.47262e-05 57.5309 0 57.3615V3.55973C4.47262e-05 3.39038 0.0667174 3.22798 0.185363 3.10823C0.304009 2.98848 0.464916 2.92119 0.632706 2.92114H11.1803C11.3481 2.92114 11.509 2.98842 11.6277 3.10818C11.7463 3.22793 11.813 3.39037 11.813 3.55973C11.813 3.72909 11.7463 3.89152 11.6277 4.01128C11.509 4.13104 11.3481 4.19832 11.1803 4.19832H1.26541V56.7229H40.7346V4.19832H30.8197C30.6519 4.19832 30.491 4.13104 30.3723 4.01128C30.2537 3.89152 30.187 3.72909 30.187 3.55973C30.187 3.39037 30.2537 3.22793 30.3723 3.10818C30.491 2.98842 30.6519 2.92114 30.8197 2.92114H41.3673C41.5351 2.92119 41.696 2.98848 41.8146 3.10823C41.9333 3.22798 42 3.39038 42 3.55973V57.3615C42 57.5309 41.9333 57.6933 41.8146 57.813C41.696 57.9328 41.5351 58.0001 41.3673 58.0001Z" fill="black"/>
<path d="M30.819 7.49841H11.1796C11.0118 7.49836 10.8509 7.43107 10.7322 7.31132C10.6136 7.19157 10.5469 7.02917 10.5469 6.85982V4.21817C10.5482 3.09985 10.9889 2.02772 11.7724 1.23695C12.5559 0.446179 13.6182 0.00132947 14.7262 0H27.2725C28.3805 0.00132947 29.4427 0.446179 30.2262 1.23695C31.0097 2.02772 31.4505 3.09985 31.4518 4.21817V6.85982C31.4517 7.02918 31.385 7.19157 31.2664 7.31132C31.1477 7.43107 30.9868 7.49837 30.819 7.49841ZM11.8123 6.22123H30.1863V4.21817C30.1854 3.43846 29.878 2.69097 29.3318 2.13964C28.7855 1.58831 28.0449 1.27814 27.2724 1.27717H14.7262C13.9537 1.27814 13.2131 1.58831 12.6668 2.13964C12.1206 2.69097 11.8132 3.43846 11.8123 4.21817V6.22123Z" fill="black"/>
<path d="M14.3434 47.6554C14.2099 47.6553 14.0798 47.6125 13.9719 47.5332C11.8766 45.9877 10.3338 43.7987 9.57443 41.2941C8.81506 38.7895 8.88002 36.104 9.75958 33.6398C9.78804 33.5609 9.83161 33.4885 9.88779 33.4266C9.94397 33.3648 10.0117 33.3147 10.087 33.2793C10.1624 33.2439 10.2439 33.2237 10.3269 33.2201C10.41 33.2165 10.4929 33.2294 10.5711 33.2581C10.6492 33.2868 10.7209 33.3308 10.7822 33.3875C10.8435 33.4442 10.8931 33.5125 10.9282 33.5886C10.9633 33.6646 10.9832 33.7469 10.9868 33.8307C10.9904 33.9146 10.9777 33.9983 10.9492 34.0771C10.1992 36.178 10.1105 38.4614 10.695 40.6151C11.2795 42.7688 12.5088 44.6878 14.2149 46.1097L20.3681 37.5602V26.9928C18.8765 27.0653 17.4177 27.4601 16.0903 28.1505C14.7628 28.841 13.5976 29.8109 12.6735 30.9948C12.6216 31.0603 12.5573 31.1148 12.4845 31.1553C12.4117 31.1958 12.3317 31.2214 12.2491 31.2307C12.1665 31.2399 12.0828 31.2327 12.003 31.2094C11.9231 31.186 11.8487 31.147 11.7837 31.0946C11.7188 31.0421 11.6648 30.9774 11.6247 30.9039C11.5846 30.8304 11.5592 30.7496 11.55 30.6662C11.5409 30.5828 11.5481 30.4985 11.5712 30.4179C11.5943 30.3373 11.633 30.2621 11.6849 30.1965C12.7936 28.7778 14.21 27.6346 15.825 26.8548C17.44 26.0749 19.2107 25.6792 21.0009 25.6982C21.1687 25.6982 21.3296 25.7655 21.4482 25.8852C21.5669 26.005 21.6335 26.1674 21.6336 26.3367V37.7681C21.6338 37.9029 21.5913 38.0343 21.5125 38.1431L14.8551 47.3918C14.8063 47.4598 14.7448 47.5175 14.674 47.5614C14.6031 47.6053 14.5244 47.6347 14.4423 47.6479C14.4096 47.6529 14.3765 47.6554 14.3434 47.6554Z" fill="black"/>
<path d="M21.0013 49.839C18.4678 49.8898 15.9913 49.0775 13.9715 47.5333C13.9042 47.484 13.8473 47.4219 13.804 47.3504C13.7606 47.2789 13.7316 47.1995 13.7186 47.1167C13.7057 47.0339 13.7091 46.9493 13.7286 46.8679C13.7481 46.7864 13.7833 46.7096 13.8323 46.6419L20.3685 37.5603V26.3368C20.3686 26.1675 20.4353 26.0051 20.5539 25.8853C20.6726 25.7656 20.8335 25.6983 21.0013 25.6982C22.9151 25.6994 24.8008 26.1638 26.5001 27.0526C28.1994 27.9414 29.6627 29.2285 30.7672 30.8061C31.8717 32.3836 32.5851 34.2056 32.8477 36.119C33.1103 38.0324 32.9143 39.9814 32.2763 41.8026C32.2487 41.8819 32.206 41.9548 32.1504 42.0174C32.0949 42.0799 32.0277 42.1308 31.9527 42.1671C31.8776 42.2034 31.7962 42.2244 31.7131 42.2289C31.63 42.2334 31.5469 42.2213 31.4684 42.1933C31.3899 42.1653 31.3177 42.1219 31.2559 42.0657C31.1941 42.0095 31.1438 41.9415 31.1081 41.8657C31.0723 41.7899 31.0517 41.7077 31.0475 41.6238C31.0432 41.5399 31.0554 41.456 31.0834 41.3769C31.636 39.7992 31.818 38.1135 31.6148 36.4527C31.4117 34.7919 30.829 33.2014 29.9127 31.8068C28.9965 30.4121 27.7717 29.2514 26.335 28.4161C24.8983 27.5809 23.289 27.094 21.634 26.9938V37.7683C21.6341 37.9031 21.5917 38.0344 21.5129 38.1433L15.236 46.8631C16.9399 48.0123 18.9524 48.6053 21.0013 48.5619C22.5994 48.565 24.1779 48.2052 25.6195 47.5089C27.0612 46.8127 28.3291 45.798 29.3294 44.5399C29.3816 44.4746 29.446 44.4203 29.5189 44.3801C29.5918 44.3399 29.6719 44.3147 29.7545 44.3057C29.8371 44.2968 29.9207 44.3043 30.0004 44.3279C30.0802 44.3515 30.1545 44.3908 30.2192 44.4434C30.2839 44.4961 30.3377 44.5611 30.3775 44.6347C30.4173 44.7083 30.4424 44.7891 30.4513 44.8725C30.4601 44.9559 30.4527 45.0402 30.4292 45.1207C30.4058 45.2012 30.3669 45.2762 30.3148 45.3415C29.1961 46.7484 27.7781 47.8831 26.1659 48.6617C24.5536 49.4402 22.7885 49.8426 21.0013 49.839Z" fill="black"/>
<path d="M16.5289 14.7215H6.99794C6.83014 14.7215 6.6692 14.6542 6.55055 14.5345C6.43189 14.4147 6.36523 14.2523 6.36523 14.0829C6.36523 13.9136 6.43189 13.7511 6.55055 13.6314C6.6692 13.5116 6.83014 13.4443 6.99794 13.4443H16.5289C16.6967 13.4443 16.8576 13.5116 16.9763 13.6314C17.095 13.7511 17.1616 13.9136 17.1616 14.0829C17.1616 14.2523 17.095 14.4147 16.9763 14.5345C16.8576 14.6542 16.6967 14.7215 16.5289 14.7215Z" fill="black"/>
<path d="M16.5289 19.8253H6.99794C6.83014 19.8253 6.6692 19.758 6.55055 19.6382C6.43189 19.5185 6.36523 19.356 6.36523 19.1867C6.36523 19.0173 6.43189 18.8549 6.55055 18.7351C6.6692 18.6154 6.83014 18.5481 6.99794 18.5481H16.5289C16.6967 18.5481 16.8576 18.6154 16.9763 18.7351C17.095 18.8549 17.1616 19.0173 17.1616 19.1867C17.1616 19.356 17.095 19.5185 16.9763 19.6382C16.8576 19.758 16.6967 19.8253 16.5289 19.8253Z" fill="black"/>
<path d="M35.0016 14.7215H25.4706C25.3028 14.7215 25.1419 14.6542 25.0232 14.5345C24.9045 14.4147 24.8379 14.2523 24.8379 14.0829C24.8379 13.9136 24.9045 13.7511 25.0232 13.6314C25.1419 13.5116 25.3028 13.4443 25.4706 13.4443H35.0016C35.1694 13.4443 35.3303 13.5116 35.449 13.6314C35.5676 13.7511 35.6343 13.9136 35.6343 14.0829C35.6343 14.2523 35.5676 14.4147 35.449 14.5345C35.3303 14.6542 35.1694 14.7215 35.0016 14.7215Z" fill="black"/>
<path d="M35.0016 19.8253H25.4706C25.3028 19.8253 25.1419 19.758 25.0232 19.6382C24.9045 19.5185 24.8379 19.356 24.8379 19.1867C24.8379 19.0173 24.9045 18.8549 25.0232 18.7351C25.1419 18.6154 25.3028 18.5481 25.4706 18.5481H35.0016C35.1694 18.5481 35.3303 18.6154 35.449 18.7351C35.5676 18.8549 35.6343 19.0173 35.6343 19.1867C35.6343 19.356 35.5676 19.5185 35.449 19.6382C35.3303 19.758 35.1694 19.8253 35.0016 19.8253Z" fill="black"/>
<path d="M16.265 34.4969H7.25966C7.09187 34.4968 6.93096 34.4295 6.81232 34.3098C6.69367 34.1901 6.627 34.0276 6.62695 33.8583V30.5964C6.627 30.427 6.69367 30.2646 6.81232 30.1448C6.93096 30.0251 7.09187 29.9578 7.25966 29.9578H16.265C16.4328 29.9578 16.5937 30.0251 16.7124 30.1448C16.831 30.2646 16.8977 30.427 16.8977 30.5964V33.8583C16.8977 34.0276 16.831 34.1901 16.7124 34.3098C16.5937 34.4295 16.4328 34.4968 16.265 34.4969ZM7.89237 33.2197H15.6323V31.2349H7.89237V33.2197Z" fill="black"/>
<path d="M34.2357 45.5792H25.2304C25.0626 45.5792 24.9017 45.5119 24.783 45.3921C24.6644 45.2724 24.5977 45.11 24.5977 44.9406V41.6786C24.5977 41.5093 24.6644 41.3469 24.783 41.2271C24.9017 41.1074 25.0626 41.0401 25.2304 41.04H34.2357C34.4035 41.0401 34.5644 41.1074 34.6831 41.2272C34.8017 41.3469 34.8684 41.5093 34.8684 41.6786V44.9406C34.8684 45.11 34.8017 45.2724 34.6831 45.3921C34.5644 45.5119 34.4035 45.5792 34.2357 45.5792ZM25.8631 44.302H33.603V42.3172H25.8631V44.302Z" fill="black"/>
</g>
<defs>
<clipPath id="clip0_1355_1951">
<rect width="42" height="58" fill="white"/>
</clipPath>
</defs>
</svg>
