<svg width="39" height="38" viewBox="0 0 39 38" fill="none" xmlns="http://www.w3.org/2000/svg">
<path d="M29.4995 10.3745C30.4995 11.3745 30.2495 13.1245 30.2495 13.1245C30.2495 13.1245 28.4995 13.2495 27.4995 12.3745C26.4995 11.3745 26.7495 9.62446 26.7495 9.62446C26.7495 9.62446 28.4995 9.37446 29.4995 10.3745Z" fill="white"/>
<path d="M29.9999 13.7499C29.3749 13.7499 27.9999 13.6249 27.1249 12.7499C25.8749 11.6249 26.1249 9.4999 26.1249 9.4999C26.1249 9.2499 26.3749 8.9999 26.6249 8.9999C26.7499 8.9999 28.7499 8.7499 29.8749 9.9999C31.1249 11.1249 30.8749 13.2499 30.8749 13.2499C30.8749 13.4999 30.6249 13.7499 30.3749 13.7499C30.3749 13.7499 30.2499 13.7499 29.9999 13.7499ZM27.3749 10.1249C27.3749 10.6249 27.4999 11.3749 27.9999 11.8749C28.4999 12.3749 29.2499 12.4999 29.7499 12.4999C29.7499 11.9999 29.6249 11.2499 29.1249 10.7499C28.6249 10.2499 27.8749 10.1249 27.3749 10.1249Z" fill="black"/>
<path d="M31.1254 10.3754C30.1254 11.3754 30.3754 13.1254 30.3754 13.1254C30.3754 13.1254 32.1254 13.2504 33.1254 12.3754C34.1254 11.3754 33.8754 9.62543 33.8754 9.62543C33.8754 9.62543 32.1254 9.37543 31.1254 10.3754Z" fill="white"/>
<path d="M30.6249 13.7502C30.3749 13.7502 30.2499 13.7502 30.2499 13.7502C29.9999 13.7502 29.7499 13.5002 29.7499 13.2502C29.7499 13.1252 29.4999 11.1252 30.7499 10.0002C31.9999 8.87523 33.9999 9.00023 33.9999 9.00023C34.2499 9.00023 34.4999 9.25023 34.4999 9.50023C34.4999 9.62523 34.7499 11.6252 33.4999 12.7502C32.7499 13.6252 31.3749 13.7502 30.6249 13.7502ZM33.3749 10.1252C32.8749 10.1252 32.1249 10.2502 31.6249 10.7502C31.1249 11.2502 30.9999 12.0002 30.9999 12.5002C31.4999 12.5002 32.2499 12.3752 32.7499 11.8752C33.1249 11.3752 33.2499 10.6252 33.3749 10.1252Z" fill="black"/>
<path d="M30.375 17.5C30 17.5 29.75 17.25 29.75 16.875V13.125C29.75 12.75 30 12.5 30.375 12.5C30.75 12.5 31 12.75 31 13.125V16.875C31 17.25 30.75 17.5 30.375 17.5Z" fill="black"/>
<path d="M18.3754 10.3745C19.3754 11.3745 19.1254 13.1245 19.1254 13.1245C19.1254 13.1245 17.3754 13.2495 16.3754 12.3745C15.3754 11.3745 15.6254 9.62446 15.6254 9.62446C15.6254 9.62446 17.5004 9.37446 18.3754 10.3745Z" fill="white"/>
<path d="M18.8749 13.7499C18.2499 13.7499 16.8749 13.6249 15.9999 12.7499C14.7499 11.4999 14.9999 9.4999 14.9999 9.4999C14.9999 9.2499 15.2499 8.9999 15.4999 8.9999C15.6249 8.9999 17.6249 8.7499 18.7499 9.9999C19.9999 11.2499 19.7499 13.2499 19.7499 13.2499C19.7499 13.4999 19.4999 13.7499 19.2499 13.7499C19.2499 13.7499 19.1249 13.7499 18.8749 13.7499ZM16.2499 10.1249C16.2499 10.6249 16.3749 11.3749 16.8749 11.8749C17.3749 12.3749 18.1249 12.4999 18.6249 12.4999C18.6249 11.9999 18.4999 11.2499 17.9999 10.7499C17.4999 10.2499 16.7499 10.1249 16.2499 10.1249Z" fill="black"/>
<path d="M19.9995 10.3745C18.9995 11.3745 19.2495 13.1245 19.2495 13.1245C19.2495 13.1245 20.9995 13.2495 21.9995 12.3745C22.9995 11.3745 22.7495 9.62446 22.7495 9.62446C22.7495 9.62446 20.9995 9.37446 19.9995 10.3745Z" fill="white"/>
<path d="M19.6249 13.7499C19.3749 13.7499 19.2499 13.7499 19.2499 13.7499C18.9999 13.7499 18.7499 13.4999 18.7499 13.2499C18.7499 13.1249 18.4999 11.1249 19.7499 9.9999C20.9999 8.7499 22.9999 8.9999 22.9999 8.9999C23.2499 8.9999 23.4999 9.2499 23.4999 9.4999C23.4999 9.6249 23.7499 11.6249 22.4999 12.7499C21.6249 13.6249 20.2499 13.7499 19.6249 13.7499ZM22.2499 10.1249C21.7499 10.1249 20.9999 10.2499 20.4999 10.7499C19.9999 11.2499 19.8749 11.9999 19.8749 12.4999C20.3749 12.4999 21.1249 12.3749 21.6249 11.8749C22.1249 11.3749 22.1249 10.6249 22.2499 10.1249Z" fill="black"/>
<path d="M19.25 17.5C18.875 17.5 18.625 17.25 18.625 16.875V13.125C18.625 12.75 18.875 12.5 19.25 12.5C19.625 12.5 19.875 12.75 19.875 13.125V16.875C19.875 17.25 19.625 17.5 19.25 17.5Z" fill="black"/>
<path d="M7.37446 10.3745C8.37446 11.3745 8.12446 13.1245 8.12446 13.1245C8.12446 13.1245 6.37446 13.2495 5.37446 12.3745C4.37446 11.4995 4.62446 9.62446 4.62446 9.62446C4.62446 9.62446 6.37446 9.37446 7.37446 10.3745Z" fill="white"/>
<path d="M7.7499 13.7499C7.1249 13.7499 5.7499 13.6249 4.8749 12.7499C3.6249 11.6249 3.8749 9.4999 3.8749 9.4999C3.8749 9.2499 4.1249 8.9999 4.3749 8.9999C4.4999 8.9999 6.4999 8.7499 7.6249 9.9999C8.8749 11.1249 8.6249 13.2499 8.6249 13.2499C8.6249 13.4999 8.3749 13.7499 8.1249 13.7499C8.1249 13.7499 7.9999 13.7499 7.7499 13.7499ZM5.1249 10.1249C5.1249 10.6249 5.2499 11.3749 5.7499 11.8749C6.2499 12.3749 6.9999 12.4999 7.4999 12.4999C7.4999 11.9999 7.3749 11.2499 6.8749 10.7499C6.3749 10.2499 5.6249 10.1249 5.1249 10.1249Z" fill="black"/>
<path d="M8.99946 10.3745C7.99946 11.3745 8.24946 13.1245 8.24946 13.1245C8.24946 13.1245 9.99946 13.2495 10.9995 12.3745C11.9995 11.4995 11.7495 9.62446 11.7495 9.62446C11.7495 9.62446 9.87446 9.37446 8.99946 10.3745Z" fill="white"/>
<path d="M8.4999 13.7499C8.2499 13.7499 8.1249 13.7499 8.1249 13.7499C7.8749 13.7499 7.6249 13.4999 7.6249 13.2499C7.6249 13.1249 7.3749 11.1249 8.6249 9.9999C9.7499 8.7499 11.8749 8.9999 11.8749 8.9999C12.1249 8.9999 12.3749 9.2499 12.3749 9.4999C12.3749 9.6249 12.6249 11.6249 11.3749 12.7499C10.4999 13.6249 9.1249 13.7499 8.4999 13.7499ZM11.1249 10.1249C10.6249 10.1249 9.8749 10.2499 9.3749 10.7499C8.8749 11.2499 8.7499 11.9999 8.7499 12.4999C9.2499 12.4999 9.9999 12.3749 10.4999 11.8749C10.9999 11.3749 11.1249 10.6249 11.1249 10.1249Z" fill="black"/>
<path d="M8.125 17.5C7.75 17.5 7.5 17.25 7.5 16.875V13.125C7.5 12.75 7.75 12.5 8.125 12.5C8.5 12.5 8.75 12.75 8.75 13.125V16.875C8.75 17.25 8.5 17.5 8.125 17.5Z" fill="black"/>
<path d="M37.875 5.25H0.625C0.25 5.25 0 4.875 0 4.625V0.625C0 0.25 0.25 0 0.625 0H38C38.375 0 38.625 0.25 38.625 0.625V4.625C38.5 4.875 38.25 5.25 37.875 5.25ZM1.25 4H37.375V1.25H1.25V4Z" fill="black"/>
<path d="M37.875 21.75H0.625C0.25 21.75 0 21.5 0 21.125V17.125C0 16.75 0.25 16.5 0.625 16.5H38C38.375 16.5 38.625 16.75 38.625 17.125V21.125C38.5 21.5 38.25 21.75 37.875 21.75ZM1.25 20.5H37.375V17.75H1.25V20.5Z" fill="black"/>
<path d="M36.625 17.5C36.25 17.5 36 17.25 36 16.875V5.375H2.5V16.875C2.5 17.25 2.25 17.5 1.875 17.5C1.5 17.5 1.25 17.25 1.25 16.875V4.75C1.25 4.375 1.5 4.125 1.875 4.125H36.5C36.875 4.125 37.125 4.375 37.125 4.75V16.875C37.25 17.25 36.875 17.5 36.625 17.5Z" fill="black"/>
<path d="M29.4995 26.6254C30.4995 27.6254 30.2495 29.3754 30.2495 29.3754C30.2495 29.3754 28.4995 29.5004 27.4995 28.6254C26.4995 27.6254 26.7495 25.8754 26.7495 25.8754C26.7495 25.8754 28.4995 25.6254 29.4995 26.6254Z" fill="white"/>
<path d="M29.9999 29.9999C29.3749 29.9999 27.9999 29.8749 27.1249 28.9999C25.8749 27.8749 26.1249 25.7499 26.1249 25.7499C26.1249 25.4999 26.3749 25.2499 26.6249 25.2499C26.7499 25.2499 28.7499 24.9999 29.8749 26.2499C31.1249 27.3749 30.8749 29.4999 30.8749 29.4999C30.8749 29.7499 30.6249 29.9999 30.3749 29.9999C30.3749 29.9999 30.2499 29.9999 29.9999 29.9999ZM27.3749 26.4999C27.3749 26.9999 27.4999 27.7499 27.9999 28.2499C28.4999 28.7499 29.2499 28.8749 29.7499 28.8749C29.7499 28.3749 29.6249 27.6249 29.1249 27.1249C28.6249 26.6249 27.8749 26.4999 27.3749 26.4999Z" fill="black"/>
<path d="M31.1254 26.6254C30.1254 27.6254 30.3754 29.3754 30.3754 29.3754C30.3754 29.3754 32.1254 29.5004 33.1254 28.6254C34.1254 27.6254 33.8754 25.8754 33.8754 25.8754C33.8754 25.8754 32.1254 25.6254 31.1254 26.6254Z" fill="white"/>
<path d="M30.6249 29.9999C30.3749 29.9999 30.2499 29.9999 30.2499 29.9999C29.9999 29.9999 29.7499 29.7499 29.7499 29.4999C29.7499 29.3749 29.4999 27.3749 30.7499 26.2499C31.9999 24.9999 33.9999 25.2499 33.9999 25.2499C34.2499 25.2499 34.4999 25.4999 34.4999 25.7499C34.4999 25.8749 34.7499 27.8749 33.4999 28.9999C32.7499 29.8749 31.3749 29.9999 30.6249 29.9999ZM33.3749 26.4999C32.8749 26.4999 32.1249 26.6249 31.6249 27.1249C31.1249 27.6249 30.9999 28.3749 30.9999 28.8749C31.4999 28.8749 32.2499 28.7499 32.7499 28.2499C33.1249 27.7499 33.2499 26.9999 33.3749 26.4999Z" fill="black"/>
<path d="M30.375 33.875C30 33.875 29.75 33.625 29.75 33.25V29.5C29.75 29.125 30 28.875 30.375 28.875C30.75 28.875 31 29.125 31 29.5V33.25C31 33.5 30.75 33.875 30.375 33.875Z" fill="black"/>
<path d="M18.3754 26.6254C19.3754 27.6254 19.1254 29.3754 19.1254 29.3754C19.1254 29.3754 17.3754 29.5004 16.3754 28.6254C15.3754 27.6254 15.6254 25.8754 15.6254 25.8754C15.6254 25.8754 17.5004 25.6254 18.3754 26.6254Z" fill="white"/>
<path d="M18.8749 29.9999C18.2499 29.9999 16.8749 29.8749 15.9999 28.9999C14.7499 27.7499 14.9999 25.7499 14.9999 25.7499C14.9999 25.4999 15.2499 25.2499 15.4999 25.2499C15.6249 25.2499 17.6249 24.9999 18.7499 26.2499C19.9999 27.4999 19.7499 29.4999 19.7499 29.4999C19.7499 29.7499 19.4999 29.9999 19.2499 29.9999C19.2499 29.9999 19.1249 29.9999 18.8749 29.9999ZM16.2499 26.4999C16.2499 26.9999 16.3749 27.7499 16.8749 28.2499C17.3749 28.7499 18.1249 28.8749 18.6249 28.8749C18.6249 28.3749 18.4999 27.6249 17.9999 27.1249C17.4999 26.6249 16.7499 26.4999 16.2499 26.4999Z" fill="black"/>
<path d="M19.9995 26.6254C18.9995 27.6254 19.2495 29.3754 19.2495 29.3754C19.2495 29.3754 20.9995 29.5004 21.9995 28.6254C22.9995 27.6254 22.7495 25.8754 22.7495 25.8754C22.7495 25.8754 20.9995 25.6254 19.9995 26.6254Z" fill="white"/>
<path d="M19.6249 29.9999C19.3749 29.9999 19.2499 29.9999 19.2499 29.9999C18.9999 29.9999 18.7499 29.7499 18.7499 29.4999C18.7499 29.3749 18.4999 27.3749 19.7499 26.2499C20.9999 24.9999 22.9999 25.2499 22.9999 25.2499C23.2499 25.2499 23.4999 25.4999 23.4999 25.7499C23.4999 25.8749 23.7499 27.8749 22.4999 28.9999C21.6249 29.8749 20.2499 29.9999 19.6249 29.9999ZM22.2499 26.4999C21.7499 26.4999 20.9999 26.6249 20.4999 27.1249C19.9999 27.6249 19.8749 28.3749 19.8749 28.8749C20.3749 28.8749 21.1249 28.7499 21.6249 28.2499C21.9999 27.7499 22.1249 26.9999 22.2499 26.4999Z" fill="black"/>
<path d="M19.25 33.875C18.875 33.875 18.625 33.625 18.625 33.25V29.5C18.625 29.125 18.875 28.875 19.25 28.875C19.625 28.875 19.875 29.125 19.875 29.5V33.25C19.875 33.5 19.625 33.875 19.25 33.875Z" fill="black"/>
<path d="M7.37446 26.6254C8.37446 27.6254 8.12446 29.3754 8.12446 29.3754C8.12446 29.3754 6.37446 29.5004 5.37446 28.6254C4.37446 27.6254 4.62446 25.8754 4.62446 25.8754C4.62446 25.8754 6.37446 25.6254 7.37446 26.6254Z" fill="white"/>
<path d="M7.7499 29.9999C7.1249 29.9999 5.7499 29.8749 4.8749 28.9999C3.6249 27.8749 3.8749 25.7499 3.8749 25.7499C3.8749 25.4999 4.1249 25.2499 4.3749 25.2499C4.4999 25.2499 6.4999 24.9999 7.6249 26.2499C8.8749 27.3749 8.6249 29.4999 8.6249 29.4999C8.6249 29.7499 8.3749 29.9999 8.1249 29.9999C8.1249 29.9999 7.9999 29.9999 7.7499 29.9999ZM5.1249 26.4999C5.1249 26.9999 5.2499 27.7499 5.7499 28.2499C6.2499 28.7499 6.9999 28.8749 7.4999 28.8749C7.4999 28.3749 7.3749 27.6249 6.8749 27.1249C6.3749 26.6249 5.6249 26.4999 5.1249 26.4999Z" fill="black"/>
<path d="M8.99946 26.6254C7.99946 27.6254 8.24946 29.3754 8.24946 29.3754C8.24946 29.3754 9.99946 29.5004 10.9995 28.6254C11.9995 27.6254 11.7495 25.8754 11.7495 25.8754C11.7495 25.8754 9.87446 25.6254 8.99946 26.6254Z" fill="white"/>
<path d="M8.4999 30.0002C8.2499 30.0002 8.1249 30.0002 8.1249 30.0002C7.8749 30.0002 7.6249 29.7502 7.6249 29.5002C7.6249 29.3752 7.3749 27.3752 8.6249 26.2502C9.8749 25.1252 11.7499 25.2502 11.7499 25.2502C11.9999 25.2502 12.2499 25.5002 12.2499 25.7502C12.2499 25.8752 12.4999 27.8752 11.2499 29.0002C10.4999 29.8752 9.1249 30.0002 8.4999 30.0002ZM11.1249 26.5002C10.6249 26.5002 9.8749 26.6252 9.3749 27.1252C8.8749 27.6252 8.7499 28.3752 8.7499 28.8752C9.2499 28.8752 9.9999 28.7502 10.4999 28.2502C10.9999 27.7502 11.1249 27.0002 11.1249 26.5002Z" fill="black"/>
<path d="M8.125 33.875C7.75 33.875 7.5 33.625 7.5 33.25V29.5C7.5 29.125 7.75 28.875 8.125 28.875C8.5 28.875 8.75 29.125 8.75 29.5V33.25C8.75 33.5 8.5 33.875 8.125 33.875Z" fill="black"/>
<path d="M37.875 38H0.625C0.25 38 0 37.75 0 37.375V33.375C0 33 0.25 32.75 0.625 32.75H38C38.375 32.75 38.625 33 38.625 33.375V37.375C38.5 37.75 38.25 38 37.875 38ZM1.25 36.75H37.375V34H1.25V36.75Z" fill="black"/>
<path d="M36.625 33.875C36.25 33.875 36 33.625 36 33.25V21.75H2.5V33.25C2.5 33.625 2.25 33.875 1.875 33.875C1.5 33.875 1.25 33.625 1.25 33.25V21.125C1.25 20.75 1.5 20.5 1.875 20.5H36.5C36.875 20.5 37.125 20.75 37.125 21.125V33.25C37.25 33.5 36.875 33.875 36.625 33.875Z" fill="black"/>
</svg>
