<svg width="65" height="65" viewBox="0 0 65 65" fill="none" xmlns="http://www.w3.org/2000/svg">
<path d="M32.5 65C50.4493 65 65 50.4493 65 32.5C65 14.5507 50.4493 0 32.5 0C14.5507 0 0 14.5507 0 32.5C0 50.4493 14.5507 65 32.5 65Z" fill="#FFC735"/>
<path d="M54.5187 29.6989L57.6592 27.9544C57.0703 25.7565 57.1502 26.0549 56.5613 23.857L52.9694 23.9165C52.398 23.926 51.8345 23.7824 51.3373 23.5008C50.84 23.2192 50.4271 22.8097 50.1414 22.3148C49.8556 21.8199 49.7074 21.2575 49.7122 20.6861C49.7169 20.1146 49.8743 19.5549 50.1682 19.0648L52.0157 15.9838C50.4067 14.3748 50.6251 14.5933 49.0162 12.9843L45.9353 14.8317C45.4452 15.1256 44.8854 15.2831 44.3139 15.2878C43.7424 15.2925 43.1801 15.1443 42.6852 14.8586C42.1903 14.5728 41.7808 14.16 41.4992 13.6627C41.2175 13.1654 41.074 12.6019 41.0835 12.0305L41.143 8.43873C38.9451 7.84975 39.2436 7.9297 37.0457 7.34076L35.3011 10.4813C35.0236 10.9808 34.6175 11.3971 34.125 11.6869C33.6325 11.9767 33.0714 12.1295 32.5 12.1295C31.9285 12.1295 31.3674 11.9767 30.8749 11.6869C30.3824 11.3971 29.9763 10.9808 29.6988 10.4813L27.9542 7.34076C25.7563 7.9297 26.0548 7.84975 23.8569 8.43873L23.9165 12.0303C23.926 12.6018 23.7824 13.1653 23.5008 13.6626C23.2192 14.1599 22.8097 14.5728 22.3148 14.8586C21.8199 15.1443 21.2575 15.2925 20.686 15.2878C20.1146 15.2831 19.5548 15.1256 19.0646 14.8317L15.9838 12.9843C14.3748 14.5933 14.5933 14.3748 12.9843 15.9838L14.8317 19.0648C15.1256 19.5549 15.2831 20.1147 15.2878 20.6861C15.2925 21.2575 15.1443 21.8199 14.8586 22.3148C14.5729 22.8097 14.16 23.2192 13.6627 23.5008C13.1655 23.7824 12.602 23.9259 12.0306 23.9165L8.43872 23.857C7.84975 26.055 7.92972 25.7565 7.34082 27.9545L10.4811 29.6989C10.9807 29.9764 11.3969 30.3824 11.6868 30.8749C11.9766 31.3675 12.1294 31.9286 12.1294 32.5C12.1294 33.0715 11.9766 33.6326 11.6868 34.1251C11.3969 34.6176 10.9807 35.0236 10.4811 35.3011L7.34082 37.0456C7.9298 39.2435 7.84975 38.9451 8.43872 41.143L12.0308 41.0836C12.6021 41.0741 13.1656 41.2177 13.6629 41.4993C14.1601 41.7809 14.573 42.1904 14.8587 42.6853C15.1444 43.1802 15.2926 43.7425 15.2879 44.3139C15.2831 44.8853 15.1257 45.4451 14.8318 45.9352L12.9843 49.0163C14.5933 50.6253 14.3748 50.4068 15.9838 52.0158L19.0648 50.1683C19.5549 49.8744 20.1147 49.7169 20.6861 49.7122C21.2576 49.7075 21.8199 49.8556 22.3148 50.1414C22.8097 50.4271 23.2192 50.8401 23.5008 51.3373C23.7824 51.8346 23.926 52.3981 23.9165 52.9695L23.8569 56.5614C26.0549 57.1504 25.7563 57.0703 27.9543 57.6593L29.6989 54.5188C29.9764 54.0192 30.3825 53.603 30.875 53.3132C31.3675 53.0234 31.9286 52.8705 32.5 52.8705C33.0715 52.8705 33.6326 53.0234 34.1251 53.3132C34.6176 53.603 35.0237 54.0192 35.3012 54.5188L37.0457 57.6593C39.2436 57.0703 38.9451 57.1503 41.1431 56.5613L41.0836 52.9695C41.0741 52.3981 41.2176 51.8346 41.4992 51.3373C41.7809 50.8401 42.1903 50.4272 42.6852 50.1414C43.1801 49.8557 43.7425 49.7075 44.3139 49.7122C44.8853 49.7169 45.4451 49.8744 45.9352 50.1683L49.0162 52.0158L52.0158 49.0163L50.1684 45.9353C49.8745 45.4452 49.717 44.8854 49.7123 44.314C49.7076 43.7425 49.8557 43.1802 50.1415 42.6853C50.4272 42.1904 50.8401 41.7809 51.3373 41.4993C51.8346 41.2177 52.3981 41.0741 52.9695 41.0836L56.5614 41.143C57.1503 38.9452 57.0704 39.2436 57.6593 37.0457L54.5187 35.3011C54.0192 35.0237 53.6029 34.6176 53.3131 34.1251C53.0232 33.6326 52.8704 33.0715 52.8704 32.5C52.8704 31.9286 53.0232 31.3675 53.313 30.8749C53.6028 30.3824 54.0191 29.9764 54.5187 29.6989ZM32.4999 46.7968C29.6722 46.7968 26.9081 45.9583 24.557 44.3873C22.2059 42.8164 20.3735 40.5836 19.2914 37.9712C18.2093 35.3588 17.9262 32.4841 18.4778 29.7109C19.0295 26.9376 20.3911 24.3901 22.3905 22.3907C24.39 20.3913 26.9374 19.0296 29.7107 18.478C32.484 17.9263 35.3586 18.2095 37.971 19.2915C40.5834 20.3736 42.8162 22.206 44.3872 24.5571C45.9581 26.9082 46.7966 29.6724 46.7966 32.5C46.7966 36.2918 45.2903 39.9281 42.6092 42.6093C39.928 45.2905 36.2916 46.7968 32.4999 46.7968Z" fill="#006DBF"/>
</svg>
