<svg width="37" height="38" viewBox="0 0 37 38" fill="none" xmlns="http://www.w3.org/2000/svg">
<g clip-path="url(#clip0_620_2553)">
<path d="M37.0003 19.4221C37.0228 18.1159 36.8891 16.8118 36.6019 15.5378H18.8779V22.5888H29.2813C29.0843 23.8252 28.6408 25.0086 27.9776 26.068C27.3143 27.1274 26.445 28.0406 25.422 28.7531L25.3868 28.9893L30.9908 33.3588L31.379 33.3978C33.2345 31.5932 34.6935 29.417 35.6617 27.0098C36.63 24.6026 37.086 22.0177 37.0003 19.4221Z" fill="#4285F4"/>
<path d="M18.8778 37.9999C23.4761 38.1307 27.9495 36.484 31.3788 33.3979L25.4219 28.7532C23.4901 30.0566 21.2025 30.7208 18.8778 30.6532C16.4906 30.6392 14.1684 29.8689 12.2407 28.4517C10.3131 27.0345 8.87777 25.0423 8.13843 22.7578L7.91698 22.7767L2.08988 27.3156L2.01367 27.5288C3.58307 30.6768 5.99155 33.3233 8.96973 35.1725C11.9479 37.0217 15.3785 38.0006 18.8778 37.9999Z" fill="#34A853"/>
<path d="M8.13832 22.7577C7.72592 21.5482 7.51338 20.2787 7.50917 18.9999C7.51675 17.7232 7.72189 16.4554 8.1173 15.2422L8.10671 14.9904L2.20665 10.3785L2.01356 10.4711C0.689616 13.1167 0 16.0377 0 18.9999C0 21.9622 0.689616 24.8832 2.01356 27.5288L8.13832 22.7577Z" fill="#FBBC05"/>
<path d="M18.8778 7.34663C21.5828 7.30435 24.1988 8.31819 26.1769 10.1755L31.5046 4.93993C28.0875 1.71357 23.5625 -0.0567005 18.8776 -5.46227e-05C15.3783 -0.000760042 11.9479 0.978305 8.96973 2.82749C5.99155 4.67667 3.58307 7.3231 2.01367 10.471L8.11741 15.2421C8.86403 12.958 10.3041 10.9673 12.2346 9.55074C14.1651 8.13419 16.4888 7.36333 18.8778 7.34663Z" fill="#EB4335"/>
</g>
<defs>
<clipPath id="clip0_620_2553">
<rect width="37" height="38" fill="white"/>
</clipPath>
</defs>
</svg>
