<svg width="56" height="55" viewBox="0 0 56 55" fill="none" xmlns="http://www.w3.org/2000/svg">
<g clip-path="url(#clip0_620_2572)">
<path d="M35.8012 18.68C35.8006 17.0379 35.226 15.4478 34.177 14.185C33.1281 12.9222 31.6708 12.0664 30.0577 11.7658C30.8924 11.3084 31.5512 10.586 31.9303 9.71243C32.3093 8.83885 32.387 7.86382 32.1511 6.94115C31.9152 6.01848 31.3792 5.20068 30.6275 4.61663C29.8758 4.03259 28.9511 3.71548 27.9994 3.71548C27.0477 3.71548 26.1233 4.03259 25.3716 4.61663C24.6198 5.20068 24.0836 6.01848 23.8477 6.94115C23.6118 7.86382 23.6897 8.83885 24.0687 9.71243C24.4478 10.586 25.1066 11.3084 25.9414 11.7658C24.3283 12.0665 22.8711 12.9222 21.8222 14.185C20.7733 15.4477 20.1988 17.0379 20.1982 18.68V22.2007H35.8012V18.68Z" fill="white"/>
<path d="M35.8016 23.0462H20.1993C20.0885 23.0462 19.9787 23.0243 19.8763 22.9819C19.7739 22.9394 19.6808 22.8774 19.6025 22.799C19.5241 22.7206 19.4619 22.6273 19.4195 22.5248C19.3772 22.4223 19.3554 22.3126 19.3555 22.2017V18.6802C19.3556 17.1302 19.8124 15.6145 20.669 14.3231C21.5256 13.0317 22.7438 12.0218 24.1711 11.4199C23.5122 10.6807 23.081 9.76649 22.9295 8.78756C22.7781 7.80864 22.9128 6.80692 23.3174 5.9029C23.7221 4.99888 24.3795 4.23116 25.2103 3.6926C26.041 3.15404 27.0098 2.86752 27.9996 2.86752C28.9895 2.86752 29.9582 3.15404 30.789 3.6926C31.6198 4.23116 32.2771 4.99888 32.6818 5.9029C33.0865 6.80692 33.2212 7.80864 33.0697 8.78756C32.9183 9.76649 32.4871 10.6807 31.8281 11.4199C33.2559 12.0213 34.4746 13.031 35.3315 14.3225C36.1884 15.614 36.6456 17.1299 36.6454 18.6802V22.2017C36.6455 22.3126 36.6238 22.4223 36.5814 22.5248C36.539 22.6273 36.4768 22.7206 36.3984 22.799C36.3201 22.8774 36.2271 22.9394 36.1246 22.9819C36.0222 23.0243 35.9125 23.0462 35.8016 23.0462ZM21.0431 21.3573H34.9578V18.6802C34.9577 17.2352 34.4524 15.836 33.5295 14.7247C32.6067 13.6135 31.3243 12.8602 29.9048 12.5959C29.734 12.5642 29.577 12.4806 29.4555 12.3563C29.334 12.232 29.2537 12.0731 29.2258 11.9015C29.1978 11.7299 29.2235 11.5539 29.2993 11.3974C29.3752 11.2409 29.4974 11.1117 29.6494 11.0273C30.3203 10.6606 30.85 10.0808 31.1551 9.37926C31.4601 8.67772 31.523 7.89438 31.3339 7.15308C31.1448 6.41179 30.7144 5.75455 30.1106 5.28523C29.5069 4.8159 28.7641 4.56117 27.9996 4.56117C27.2351 4.56117 26.4924 4.8159 25.8886 5.28523C25.2849 5.75455 24.8545 6.41179 24.6654 7.15308C24.4762 7.89438 24.5391 8.67772 24.8442 9.37926C25.1492 10.0808 25.679 10.6606 26.3499 11.0273C26.5019 11.1117 26.6241 11.2409 26.6999 11.3974C26.7757 11.5539 26.8014 11.7299 26.7735 11.9015C26.7455 12.0731 26.6653 12.232 26.5438 12.3563C26.4222 12.4806 26.2653 12.5642 26.0945 12.5959C24.6751 12.8603 23.3929 13.6134 22.4703 14.7247C21.5477 15.836 21.0429 17.2354 21.0431 18.6802V21.3573Z" fill="black"/>
<path d="M35.8012 45.6307C35.8006 43.9886 35.226 42.3983 34.177 41.1355C33.1281 39.8727 31.6708 39.0169 30.0577 38.7163C30.8924 38.2589 31.5512 37.5365 31.9303 36.6629C32.3093 35.7894 32.387 34.8143 32.1511 33.8917C31.9152 32.969 31.3792 32.1512 30.6275 31.5671C29.8758 30.9831 28.9511 30.6662 27.9994 30.6662C27.0477 30.6662 26.1233 30.9831 25.3716 31.5671C24.6198 32.1512 24.0836 32.969 23.8477 33.8917C23.6118 34.8143 23.6897 35.7894 24.0688 36.6629C24.4478 37.5365 25.1066 38.2589 25.9414 38.7163C24.3283 39.017 22.8711 39.8729 21.8222 41.1357C20.7733 42.3985 20.1988 43.9886 20.1982 45.6307V49.1514H35.8012V45.6307Z" fill="white"/>
<path d="M35.8016 49.9959H20.1993C20.0885 49.996 19.9787 49.9742 19.8763 49.9318C19.7739 49.8894 19.6808 49.8271 19.6025 49.7487C19.5241 49.6703 19.4619 49.5772 19.4195 49.4747C19.3772 49.3722 19.3554 49.2624 19.3555 49.1514V45.6301C19.3556 44.0801 19.8124 42.5645 20.669 41.273C21.5256 39.9816 22.7438 38.9718 24.1711 38.3698C23.5122 37.6306 23.081 36.7164 22.9295 35.7375C22.7781 34.7586 22.9128 33.7566 23.3174 32.8526C23.7221 31.9486 24.3795 31.1811 25.2103 30.6425C26.041 30.104 27.0098 29.8174 27.9996 29.8174C28.9895 29.8174 29.9582 30.104 30.789 30.6425C31.6198 31.1811 32.2771 31.9486 32.6818 32.8526C33.0865 33.7566 33.2212 34.7586 33.0697 35.7375C32.9183 36.7164 32.4871 37.6306 31.8281 38.3698C33.2558 38.9714 34.4744 39.9811 35.3313 41.2726C36.1882 42.5641 36.6454 44.0799 36.6454 45.6301V49.1514C36.6455 49.2624 36.6238 49.3722 36.5814 49.4747C36.539 49.5772 36.4768 49.6703 36.3984 49.7487C36.3201 49.8271 36.2271 49.8894 36.1246 49.9318C36.0222 49.9742 35.9125 49.996 35.8016 49.9959ZM21.0431 48.307H34.9578V45.6301C34.9577 44.1852 34.4524 42.7857 33.5295 41.6744C32.6067 40.5632 31.3243 39.8102 29.9048 39.5458C29.734 39.5141 29.577 39.4305 29.4555 39.3062C29.334 39.1819 29.2537 39.023 29.2258 38.8514C29.1978 38.6798 29.2235 38.5038 29.2993 38.3473C29.3752 38.1909 29.4974 38.0616 29.6494 37.9773C30.3203 37.6105 30.85 37.0305 31.1551 36.329C31.4601 35.6274 31.523 34.8443 31.3339 34.103C31.1448 33.3617 30.7144 32.7045 30.1106 32.2351C29.5069 31.7658 28.7641 31.5111 27.9996 31.5111C27.2351 31.5111 26.4924 31.7658 25.8886 32.2351C25.2849 32.7045 24.8545 33.3617 24.6654 34.103C24.4762 34.8443 24.5391 35.6274 24.8442 36.329C25.1492 37.0305 25.679 37.6105 26.3499 37.9773C26.5019 38.0616 26.6241 38.1909 26.6999 38.3473C26.7757 38.5038 26.8014 38.6798 26.7735 38.8514C26.7455 39.023 26.6653 39.1819 26.5438 39.3062C26.4222 39.4305 26.2653 39.5141 26.0945 39.5458C24.6751 39.8102 23.3929 40.5634 22.4703 41.6746C21.5477 42.7859 21.0429 44.1853 21.0431 45.6301V48.307Z" fill="black"/>
<path d="M16.4457 32.1554C16.4451 30.5132 15.8705 28.9231 14.8216 27.6604C13.7726 26.3976 12.3154 25.5418 10.7022 25.2412C11.5369 24.7838 12.1958 24.0612 12.5748 23.1876C12.9539 22.314 13.0315 21.3392 12.7957 20.4165C12.5598 19.4939 12.0237 18.676 11.272 18.092C10.5203 17.508 9.59561 17.1909 8.64394 17.1909C7.69228 17.1909 6.7678 17.508 6.01609 18.092C5.26437 18.676 4.72833 19.4939 4.49244 20.4165C4.25655 21.3392 4.33422 22.314 4.71328 23.1876C5.09234 24.0612 5.75118 24.7838 6.58591 25.2412C4.97281 25.5419 3.51564 26.3976 2.46675 27.6604C1.41786 28.9231 0.843373 30.5133 0.842773 32.1554V35.6761H16.4457V32.1554Z" fill="white"/>
<path d="M16.4462 36.5209H0.843815C0.732986 36.521 0.623197 36.4992 0.520792 36.4568C0.418388 36.4144 0.325373 36.3522 0.247006 36.2738C0.168638 36.1953 0.106453 36.1022 0.0640691 35.9998C0.0216854 35.8973 -6.19837e-05 35.7874 1.3269e-07 35.6765V32.1552C9.59299e-05 30.6051 0.456931 29.0895 1.31352 27.7981C2.1701 26.5067 3.38838 25.4968 4.81568 24.8949C4.15674 24.1557 3.72553 23.2415 3.57406 22.2625C3.42259 21.2836 3.55729 20.2817 3.96198 19.3777C4.36666 18.4736 5.02402 17.7061 5.85479 17.1676C6.68556 16.629 7.65432 16.3425 8.64416 16.3425C9.634 16.3425 10.6028 16.629 11.4335 17.1676C12.2643 17.7061 12.9217 18.4736 13.3263 19.3777C13.731 20.2817 13.8657 21.2836 13.7143 22.2625C13.5628 23.2415 13.1316 24.1557 12.4726 24.8949C13.9005 25.4963 15.1191 26.506 15.976 27.7975C16.833 29.089 17.2901 30.6049 17.29 32.1552V35.6765C17.29 35.7874 17.2683 35.8973 17.2259 35.9998C17.1835 36.1022 17.1213 36.1953 17.043 36.2738C16.9646 36.3522 16.8716 36.4144 16.7692 36.4568C16.6668 36.4992 16.557 36.521 16.4462 36.5209ZM1.68763 34.832H15.6023V32.1552C15.6022 30.7102 15.097 29.3107 14.1741 28.1995C13.2512 27.0882 11.9688 26.3352 10.5493 26.0708C10.3785 26.0392 10.2216 25.9553 10.1 25.8311C9.9785 25.7068 9.89828 25.5481 9.87033 25.3765C9.84238 25.2048 9.86807 25.0289 9.94388 24.8724C10.0197 24.7159 10.1419 24.5866 10.2939 24.5023C10.9648 24.1355 11.4946 23.5556 11.7996 22.854C12.1046 22.1525 12.1676 21.3694 11.9784 20.6281C11.7893 19.8868 11.3589 19.2295 10.7551 18.7602C10.1514 18.2909 9.40866 18.0361 8.64416 18.0361C7.87966 18.0361 7.13694 18.2909 6.53318 18.7602C5.92942 19.2295 5.49902 19.8868 5.3099 20.6281C5.12077 21.3694 5.18368 22.1525 5.48871 22.854C5.79375 23.5556 6.32351 24.1355 6.99444 24.5023C7.1464 24.5866 7.26864 24.7159 7.34445 24.8724C7.42026 25.0289 7.44594 25.2048 7.41799 25.3765C7.39004 25.5481 7.30982 25.7068 7.18829 25.8311C7.06676 25.9553 6.90983 26.0392 6.73898 26.0708C5.31967 26.3353 4.03748 27.0884 3.11486 28.1997C2.19225 29.311 1.68739 30.7104 1.68763 32.1552V34.832Z" fill="black"/>
<path d="M55.1557 32.1554C55.1551 30.5132 54.5807 28.9231 53.5317 27.6604C52.4828 26.3976 51.0253 25.5418 49.4121 25.2412C50.2469 24.7838 50.9057 24.0612 51.2848 23.1876C51.6638 22.314 51.7417 21.3392 51.5058 20.4165C51.2699 19.4939 50.7337 18.676 49.982 18.092C49.2303 17.508 48.3058 17.1909 47.3541 17.1909C46.4024 17.1909 45.4778 17.508 44.726 18.092C43.9743 18.676 43.4383 19.4939 43.2024 20.4165C42.9665 21.3392 43.0442 22.314 43.4232 23.1876C43.8023 24.0612 44.4611 24.7838 45.2959 25.2412C43.6828 25.5419 42.2256 26.3976 41.1767 27.6604C40.1278 28.9231 39.5533 30.5133 39.5527 32.1554V35.6761H55.1557V32.1554Z" fill="white"/>
<path d="M55.1561 36.5209H39.5538C39.4429 36.521 39.3332 36.4992 39.2308 36.4568C39.1283 36.4144 39.0353 36.3522 38.957 36.2738C38.8786 36.1953 38.8164 36.1022 38.774 35.9998C38.7316 35.8973 38.7099 35.7874 38.71 35.6765V32.1552C38.7101 30.6051 39.1669 29.0895 40.0235 27.7981C40.8801 26.5067 42.0983 25.4968 43.5256 24.8949C42.8667 24.1557 42.4355 23.2415 42.284 22.2625C42.1326 21.2836 42.2673 20.2817 42.6719 19.3777C43.0766 18.4736 43.734 17.7061 44.5648 17.1676C45.3955 16.629 46.3643 16.3425 47.3541 16.3425C48.344 16.3425 49.3127 16.629 50.1435 17.1676C50.9743 17.7061 51.6316 18.4736 52.0363 19.3777C52.441 20.2817 52.5757 21.2836 52.4242 22.2625C52.2728 23.2415 51.8415 24.1557 51.1826 24.8949C52.6104 25.4963 53.8293 26.5059 54.6862 27.7975C55.5431 29.089 56.0001 30.6049 55.9999 32.1552V35.6765C56 35.7874 55.9782 35.8973 55.9359 35.9998C55.8935 36.1022 55.8313 36.1953 55.7529 36.2738C55.6746 36.3522 55.5815 36.4144 55.4791 36.4568C55.3767 36.4992 55.2669 36.521 55.1561 36.5209ZM40.3976 34.832H54.3123V32.1552C54.3122 30.7102 53.8069 29.3107 52.884 28.1995C51.9611 27.0882 50.6788 26.3352 49.2593 26.0708C49.0884 26.0392 48.9315 25.9553 48.81 25.8311C48.6885 25.7068 48.6082 25.5481 48.5803 25.3765C48.5523 25.2048 48.578 25.0289 48.6538 24.8724C48.7296 24.7159 48.8519 24.5866 49.0038 24.5023C49.6748 24.1355 50.2045 23.5556 50.5096 22.854C50.8146 22.1525 50.8775 21.3694 50.6884 20.6281C50.4993 19.8868 50.0689 19.2295 49.4651 18.7602C48.8613 18.2909 48.1186 18.0361 47.3541 18.0361C46.5896 18.0361 45.8469 18.2909 45.2431 18.7602C44.6394 19.2295 44.209 19.8868 44.0199 20.6281C43.8307 21.3694 43.8936 22.1525 44.1987 22.854C44.5037 23.5556 45.0335 24.1355 45.7044 24.5023C45.8564 24.5866 45.9786 24.7159 46.0544 24.8724C46.1302 25.0289 46.1559 25.2048 46.128 25.3765C46.1 25.5481 46.0198 25.7068 45.8983 25.8311C45.7767 25.9553 45.6198 26.0392 45.4489 26.0708C44.0296 26.3353 42.7474 27.0884 41.8248 28.1997C40.9022 29.311 40.3974 30.7104 40.3976 32.1552V34.832Z" fill="black"/>
<path d="M54.4988 1.68888H40.21C39.9862 1.68888 39.7717 1.60005 39.6134 1.44168C39.4552 1.28332 39.3662 1.06839 39.3662 0.844423C39.3662 0.62046 39.4552 0.405734 39.6134 0.247368C39.7717 0.0890023 39.9862 -3.05176e-05 40.21 -3.05176e-05H54.4988C54.7226 -3.05176e-05 54.9372 0.0890023 55.0955 0.247368C55.2537 0.405734 55.3427 0.62046 55.3427 0.844423C55.3427 1.06839 55.2537 1.28332 55.0955 1.44168C54.9372 1.60005 54.7226 1.68888 54.4988 1.68888Z" fill="black"/>
<path d="M54.4988 6.69294H46.3985C46.1747 6.69294 45.9601 6.60411 45.8019 6.44574C45.6437 6.28738 45.5547 6.07245 45.5547 5.84848C45.5547 5.62452 45.6437 5.40979 45.8019 5.25143C45.9601 5.09306 46.1747 5.00403 46.3985 5.00403H54.4988C54.7226 5.00403 54.9372 5.09306 55.0954 5.25143C55.2536 5.40979 55.3426 5.62452 55.3426 5.84848C55.3426 6.07245 55.2536 6.28738 55.0954 6.44574C54.9372 6.60411 54.7226 6.69294 54.4988 6.69294Z" fill="black"/>
<path d="M43.1139 6.69294H40.21C39.9862 6.69294 39.7717 6.60411 39.6134 6.44574C39.4552 6.28738 39.3662 6.07245 39.3662 5.84848C39.3662 5.62452 39.4552 5.40979 39.6134 5.25143C39.7717 5.09306 39.9862 5.00403 40.21 5.00403H43.1139C43.3377 5.00403 43.5523 5.09306 43.7105 5.25143C43.8688 5.40979 43.9578 5.62452 43.9578 5.84848C43.9578 6.07245 43.8688 6.28738 43.7105 6.44574C43.5523 6.60411 43.3377 6.69294 43.1139 6.69294Z" fill="black"/>
<path d="M50.8154 11.697H40.21C39.9862 11.697 39.7717 11.6079 39.6134 11.4496C39.4552 11.2912 39.3662 11.0765 39.3662 10.8525C39.3662 10.6285 39.4552 10.4138 39.6134 10.2555C39.7717 10.0971 39.9862 10.0081 40.21 10.0081H50.8154C51.0392 10.0081 51.2538 10.0971 51.412 10.2555C51.5702 10.4138 51.6592 10.6285 51.6592 10.8525C51.6592 11.0765 51.5702 11.2912 51.412 11.4496C51.2538 11.6079 51.0392 11.697 50.8154 11.697Z" fill="black"/>
<path d="M12.4113 44.9919H11.0665C10.8427 44.9919 10.6281 44.9031 10.4699 44.7447C10.3116 44.5863 10.2227 44.3714 10.2227 44.1474C10.2227 43.9235 10.3116 43.7087 10.4699 43.5504C10.6281 43.392 10.8427 43.303 11.0665 43.303H12.4113C12.6351 43.303 12.8497 43.392 13.0079 43.5504C13.1662 43.7087 13.2551 43.9235 13.2551 44.1474C13.2551 44.3714 13.1662 44.5863 13.0079 44.7447C12.8497 44.9031 12.6351 44.9919 12.4113 44.9919Z" fill="black"/>
<path d="M7.68792 44.9919H1.50104C1.27725 44.9919 1.06268 44.9031 0.904438 44.7447C0.746192 44.5863 0.657227 44.3714 0.657227 44.1474C0.657227 43.9235 0.746192 43.7087 0.904438 43.5504C1.06268 43.392 1.27725 43.303 1.50104 43.303H7.68792C7.91171 43.303 8.12628 43.392 8.28452 43.5504C8.44277 43.7087 8.53174 43.9235 8.53174 44.1474C8.53174 44.3714 8.44277 44.5863 8.28452 44.7447C8.12628 44.9031 7.91171 44.9919 7.68792 44.9919Z" fill="black"/>
<path d="M15.7879 49.9959H7.68757C7.46377 49.9959 7.24921 49.9071 7.09096 49.7487C6.93272 49.5904 6.84375 49.3754 6.84375 49.1515C6.84375 48.9275 6.93272 48.7128 7.09096 48.5544C7.24921 48.396 7.46377 48.307 7.68757 48.307H15.7879C16.0117 48.307 16.2262 48.396 16.3845 48.5544C16.5427 48.7128 16.6317 48.9275 16.6317 49.1515C16.6317 49.3754 16.5427 49.5904 16.3845 49.7487C16.2262 49.9071 16.0117 49.9959 15.7879 49.9959Z" fill="black"/>
<path d="M4.4033 49.9959H1.50104C1.27725 49.9959 1.06248 49.9071 0.904232 49.7487C0.745986 49.5904 0.657227 49.3754 0.657227 49.1515C0.657227 48.9275 0.745986 48.7128 0.904232 48.5544C1.06248 48.396 1.27725 48.307 1.50104 48.307H4.4033C4.6271 48.307 4.84166 48.396 4.99991 48.5544C5.15815 48.7128 5.24712 48.9275 5.24712 49.1515C5.24712 49.3754 5.15815 49.5904 4.99991 49.7487C4.84166 49.9071 4.6271 49.9959 4.4033 49.9959Z" fill="black"/>
<path d="M15.7882 55H1.50104C1.27725 55 1.06248 54.9112 0.904232 54.7528C0.745986 54.5944 0.657227 54.3795 0.657227 54.1555C0.657227 53.9316 0.745986 53.7169 0.904232 53.5585C1.06248 53.4001 1.27725 53.3111 1.50104 53.3111H15.7882C16.012 53.3111 16.2266 53.4001 16.3848 53.5585C16.5431 53.7169 16.632 53.9316 16.632 54.1555C16.632 54.3795 16.5431 54.5944 16.3848 54.7528C16.2266 54.9112 16.012 55 15.7882 55Z" fill="black"/>
</g>
<defs>
<clipPath id="clip0_620_2572">
<rect width="56" height="55" fill="white"/>
</clipPath>
</defs>
</svg>
