<svg width="60" height="50" viewBox="0 0 60 50" fill="none" xmlns="http://www.w3.org/2000/svg">
<path d="M39.4489 40.7603V2.69275H5.79456V47.3075H34.2888L39.4489 40.7603Z" fill="white"/>
<path d="M34.2895 48H5.79462C5.70363 48 5.61349 47.9822 5.52941 47.9474C5.44532 47.9126 5.36896 47.8615 5.30461 47.7972C5.24027 47.7328 5.18921 47.6564 5.15441 47.5724C5.11961 47.4883 5.10175 47.3982 5.10181 47.3072V2.69282C5.10175 2.60182 5.11961 2.51172 5.15441 2.42764C5.18921 2.34356 5.24027 2.26715 5.30461 2.2028C5.36896 2.13846 5.44532 2.08745 5.52941 2.05265C5.61349 2.01785 5.70363 1.99995 5.79462 2H39.4491C39.5401 1.99995 39.6301 2.01785 39.7142 2.05265C39.7983 2.08745 39.8747 2.13846 39.9391 2.2028C40.0034 2.26715 40.0544 2.34356 40.0892 2.42764C40.124 2.51172 40.1419 2.60182 40.1419 2.69282V40.7606C40.1417 40.9162 40.0893 41.0673 39.993 41.1895L34.8334 47.7361C34.7686 47.8184 34.686 47.8849 34.5917 47.9306C34.4975 47.9763 34.3942 48 34.2895 48ZM6.48744 46.6144H33.9539L38.7563 40.5204V3.38564H6.48744V46.6144Z" fill="black"/>
<path d="M33.9038 48C33.8128 48 33.7226 47.9821 33.6385 47.9473C33.5545 47.9125 33.4781 47.8615 33.4137 47.7972C33.3494 47.7328 33.2983 47.6564 33.2635 47.5723C33.2287 47.4883 33.2109 47.3982 33.2109 47.3072V40.7606C33.2109 40.6696 33.2287 40.5795 33.2635 40.4954C33.2983 40.4113 33.3494 40.3349 33.4137 40.2706C33.4781 40.2062 33.5545 40.1552 33.6385 40.1204C33.7226 40.0856 33.8128 40.0677 33.9038 40.0677H39.449C39.6328 40.0677 39.809 40.1408 39.9389 40.2707C40.0689 40.4006 40.1418 40.5768 40.1418 40.7606C40.1418 40.9443 40.0689 41.1205 39.9389 41.2505C39.809 41.3804 39.6328 41.4534 39.449 41.4534H34.5966V47.3072C34.5966 47.3982 34.5787 47.4883 34.5439 47.5723C34.5091 47.6564 34.4581 47.7328 34.3938 47.7972C34.3294 47.8615 34.253 47.9125 34.1689 47.9473C34.0848 47.9821 33.9948 48 33.9038 48Z" fill="black"/>
<path d="M43.5363 26.6265C49.4289 26.6265 54.2058 21.8496 54.2058 15.957C54.2058 10.0644 49.4289 5.28748 43.5363 5.28748C37.6437 5.28748 32.8668 10.0644 32.8668 15.957C32.8668 21.8496 37.6437 26.6265 43.5363 26.6265Z" fill="#FFC47A"/>
<path d="M43.537 27.3197C41.2896 27.32 39.0926 26.6538 37.2239 25.4055C35.3552 24.1571 33.8986 22.3826 33.0384 20.3064C32.1782 18.2302 31.953 15.9455 32.3913 13.7413C32.8295 11.5371 33.9116 9.51243 35.5007 7.92322C37.0897 6.33401 39.1143 5.25169 41.3184 4.81315C43.5225 4.37462 45.8072 4.59958 47.8835 5.45954C49.9598 6.3195 51.7345 7.77586 52.9831 9.64444C54.2316 11.513 54.8981 13.7099 54.8981 15.9572C54.8947 18.9695 53.6966 21.8573 51.5667 23.9874C49.4369 26.1175 46.5492 27.3159 43.537 27.3197ZM43.537 5.98038C41.5637 5.98011 39.6346 6.56502 37.9938 7.66113C36.3529 8.75724 35.0739 10.3153 34.3186 12.1383C33.5633 13.9613 33.3655 15.9674 33.7503 17.9028C34.1351 19.8382 35.0852 21.616 36.4804 23.0115C37.8757 24.4069 39.6533 25.3572 41.5887 25.7423C43.524 26.1273 45.5301 25.9299 47.3532 25.1748C49.1763 24.4197 50.7346 23.1409 51.8309 21.5002C52.9273 19.8595 53.5125 17.9305 53.5125 15.9572C53.5094 13.3124 52.4574 10.7768 50.5874 8.90646C48.7173 7.03615 46.1818 5.98383 43.537 5.98038Z" fill="black"/>
<path d="M42.3421 20.5417C42.2446 20.5415 42.1482 20.5209 42.0592 20.4812C41.9701 20.4414 41.8905 20.3835 41.8252 20.311L38.464 16.5519L39.4978 15.6277L42.2907 18.7522L47.5342 11.6542L48.6492 12.4769L42.8996 20.2603C42.8385 20.3431 42.7596 20.4113 42.6688 20.4599C42.5779 20.5085 42.4775 20.5362 42.3746 20.5411L42.3421 20.5417Z" fill="black"/>
<path d="M25.6468 38.2465H19.5969C19.5059 38.2466 19.4157 38.2287 19.3317 38.1939C19.2476 38.1591 19.1712 38.108 19.1069 38.0437C19.0425 37.9794 18.9915 37.9029 18.9567 37.8189C18.9219 37.7348 18.904 37.6447 18.9041 37.5537V22.9754C18.904 22.8844 18.9219 22.7943 18.9567 22.7102C18.9915 22.6262 19.0425 22.5497 19.1069 22.4854C19.1712 22.4211 19.2476 22.37 19.3317 22.3352C19.4157 22.3004 19.5059 22.2825 19.5969 22.2826H25.6468C25.7378 22.2825 25.8279 22.3004 25.912 22.3352C25.9961 22.37 26.0725 22.4211 26.1369 22.4854C26.2012 22.5497 26.2522 22.6262 26.287 22.7102C26.3218 22.7943 26.3397 22.8844 26.3397 22.9754V37.5537C26.3397 37.6447 26.3218 37.7348 26.287 37.8189C26.2522 37.9029 26.2012 37.9794 26.1369 38.0437C26.0725 38.108 25.9961 38.1591 25.912 38.1939C25.8279 38.2287 25.7378 38.2466 25.6468 38.2465ZM20.2897 36.8609H24.954V23.6682H20.2897V36.8609Z" fill="black"/>
<path d="M19.5969 38.2464H13.5483C13.4573 38.2465 13.3671 38.2286 13.2831 38.1938C13.199 38.159 13.1226 38.108 13.0583 38.0436C12.9939 37.9793 12.9429 37.9028 12.9081 37.8188C12.8733 37.7347 12.8554 37.6446 12.8555 37.5536V30.7952C12.8554 30.7042 12.8733 30.6141 12.9081 30.5301C12.9429 30.446 12.9939 30.3696 13.0583 30.3052C13.1226 30.2409 13.199 30.1899 13.2831 30.1551C13.3671 30.1203 13.4573 30.1024 13.5483 30.1024H19.5969C19.6879 30.1024 19.778 30.1203 19.862 30.1551C19.9461 30.1899 20.0226 30.2409 20.0869 30.3052C20.1513 30.3696 20.2022 30.446 20.237 30.5301C20.2718 30.6141 20.2898 30.7042 20.2897 30.7952V37.5536C20.2898 37.6446 20.2718 37.7347 20.237 37.8188C20.2022 37.9028 20.1513 37.9793 20.0869 38.0436C20.0226 38.108 19.9461 38.159 19.862 38.1938C19.778 38.2286 19.6879 38.2465 19.5969 38.2464ZM14.2411 36.8608H18.9041V31.4881H14.2411V36.8608Z" fill="black"/>
<path d="M31.6954 38.2464H25.6468C25.5558 38.2465 25.4657 38.2286 25.3816 38.1938C25.2975 38.159 25.2211 38.108 25.1568 38.0436C25.0924 37.9793 25.0414 37.9029 25.0066 37.8188C24.9718 37.7347 24.9539 37.6446 24.954 37.5536V27.3244C24.9539 27.2334 24.9718 27.1433 25.0066 27.0592C25.0414 26.9752 25.0924 26.8987 25.1568 26.8344C25.2211 26.7701 25.2975 26.719 25.3816 26.6842C25.4657 26.6494 25.5558 26.6315 25.6468 26.6316H31.6954C31.7864 26.6315 31.8765 26.6494 31.9606 26.6842C32.0446 26.719 32.121 26.7701 32.1854 26.8344C32.2497 26.8987 32.3008 26.9752 32.3356 27.0592C32.3704 27.1433 32.3883 27.2334 32.3882 27.3244V37.5536C32.3883 37.6446 32.3704 37.7347 32.3356 37.8188C32.3008 37.9029 32.2497 37.9793 32.1854 38.0436C32.121 38.108 32.0446 38.159 31.9606 38.1938C31.8765 38.2286 31.7864 38.2465 31.6954 38.2464ZM26.3396 36.8608H31.0026V28.0172H26.3396V36.8608Z" fill="black"/>
<path d="M33.7997 38.2465H11.4442C11.2604 38.2465 11.0842 38.1735 10.9542 38.0435C10.8243 37.9136 10.7513 37.7374 10.7513 37.5537C10.7513 37.3699 10.8243 37.1937 10.9542 37.0638C11.0842 36.9338 11.2604 36.8608 11.4442 36.8608H33.7997C33.9835 36.8608 34.1596 36.9338 34.2896 37.0638C34.4195 37.1937 34.4925 37.3699 34.4925 37.5537C34.4925 37.7374 34.4195 37.9136 34.2896 38.0435C34.1596 38.1735 33.9835 38.2465 33.7997 38.2465Z" fill="black"/>
<path d="M27.2721 9.87062H11.4442C11.2604 9.87062 11.0842 9.79762 10.9542 9.66769C10.8243 9.53776 10.7513 9.36155 10.7513 9.1778C10.7513 8.99406 10.8243 8.81785 10.9542 8.68792C11.0842 8.55799 11.2604 8.48499 11.4442 8.48499H27.2721C27.4558 8.48499 27.632 8.55799 27.7619 8.68792C27.8918 8.81785 27.9649 8.99406 27.9649 9.1778C27.9649 9.36155 27.8918 9.53776 27.7619 9.66769C27.632 9.79762 27.4558 9.87062 27.2721 9.87062Z" fill="black"/>
<path d="M24.4994 14.4478H11.4442C11.2604 14.4478 11.0842 14.3748 10.9542 14.2448C10.8243 14.1149 10.7513 13.9387 10.7513 13.755C10.7513 13.5712 10.8243 13.395 10.9542 13.2651C11.0842 13.1351 11.2604 13.0621 11.4442 13.0621H24.4994C24.6832 13.0621 24.8594 13.1351 24.9893 13.2651C25.1192 13.395 25.1923 13.5712 25.1923 13.755C25.1923 13.9387 25.1192 14.1149 24.9893 14.2448C24.8594 14.3748 24.6832 14.4478 24.4994 14.4478Z" fill="black"/>
<path d="M21.7268 19.0248H11.4442C11.2604 19.0248 11.0842 18.9518 10.9542 18.8219C10.8243 18.6919 10.7513 18.5157 10.7513 18.332C10.7513 18.1482 10.8243 17.972 10.9542 17.8421C11.0842 17.7122 11.2604 17.6392 11.4442 17.6392H21.7268C21.9106 17.6392 22.0867 17.7122 22.2167 17.8421C22.3466 17.972 22.4196 18.1482 22.4196 18.332C22.4196 18.5157 22.3466 18.6919 22.2167 18.8219C22.0867 18.9518 21.9106 19.0248 21.7268 19.0248Z" fill="black"/>
</svg>
