<svg width="64" height="50" viewBox="0 0 64 50" fill="none" xmlns="http://www.w3.org/2000/svg">
<path d="M43.1877 48H14.6928C14.6018 48 14.5117 47.9822 14.4276 47.9474C14.3435 47.9126 14.2671 47.8615 14.2028 47.7972C14.1385 47.7328 14.0874 47.6564 14.0526 47.5724C14.0178 47.4883 13.9999 47.3982 14 47.3072V2.69282C13.9999 2.60182 14.0178 2.51172 14.0526 2.42764C14.0874 2.34356 14.1385 2.26715 14.2028 2.2028C14.2671 2.13846 14.3435 2.08745 14.4276 2.05265C14.5117 2.01785 14.6018 1.99995 14.6928 2H48.3473C48.4383 1.99995 48.5283 2.01785 48.6124 2.05265C48.6965 2.08745 48.7729 2.13846 48.8373 2.2028C48.9016 2.26715 48.9526 2.34356 48.9874 2.42764C49.0222 2.51172 49.0401 2.60182 49.0401 2.69282V40.7606C49.0399 40.9162 48.9875 41.0673 48.8912 41.1895L43.7316 47.7361C43.6668 47.8184 43.5841 47.8849 43.4899 47.9306C43.3957 47.9763 43.2924 48 43.1877 48ZM15.3856 46.6144H42.8521L47.6544 40.5204V3.38564H15.3856V46.6144Z" fill="black"/>
<path d="M42.8022 48.0001C42.7112 48.0001 42.6211 47.9822 42.537 47.9474C42.4529 47.9126 42.3765 47.8616 42.3122 47.7973C42.2478 47.7329 42.1968 47.6565 42.162 47.5725C42.1272 47.4884 42.1093 47.3983 42.1094 47.3073V40.7607C42.1093 40.6697 42.1272 40.5796 42.162 40.4955C42.1968 40.4114 42.2478 40.335 42.3122 40.2707C42.3765 40.2063 42.4529 40.1553 42.537 40.1205C42.6211 40.0857 42.7112 40.0678 42.8022 40.0679H48.3474C48.5312 40.0679 48.7074 40.1409 48.8374 40.2708C48.9673 40.4007 49.0403 40.5769 49.0403 40.7607C49.0403 40.9444 48.9673 41.1206 48.8374 41.2506C48.7074 41.3805 48.5312 41.4535 48.3474 41.4535H43.495V47.3073C43.4951 47.3983 43.4771 47.4884 43.4423 47.5725C43.4075 47.6565 43.3566 47.7329 43.2922 47.7973C43.2279 47.8616 43.1514 47.9127 43.0673 47.9474C42.9832 47.9822 42.8932 48.0001 42.8022 48.0001Z" fill="black"/>
<path d="M52.4342 26.6264C58.3268 26.6264 63.1037 21.8495 63.1037 15.9569C63.1037 10.0643 58.3268 5.28735 52.4342 5.28735C46.5416 5.28735 41.7646 10.0643 41.7646 15.9569C41.7646 21.8495 46.5416 26.6264 52.4342 26.6264Z" fill="#F47D39"/>
<path d="M51.24 20.7916L51.24 20.7917L51.2457 20.7916L51.2781 20.7909L51.2782 20.791L51.2847 20.7907C51.4247 20.784 51.5614 20.7463 51.685 20.6802C51.8085 20.6142 51.9159 20.5214 51.9991 20.4086L57.7486 12.6253L57.8972 12.4241L57.696 12.2756L56.581 11.4529L56.3799 11.3045L56.2315 11.5055L51.1706 18.3563L48.5825 15.461L48.4159 15.2746L48.2295 15.4412L47.1957 16.3654L47.0093 16.5321L47.1759 16.7185L50.5372 20.4775L50.5378 20.4782C50.6264 20.5765 50.7346 20.6553 50.8556 20.7093C50.9766 20.7633 51.1076 20.7913 51.24 20.7916Z" fill="white" stroke="white" stroke-width="0.5"/>
<path d="M34.5446 38.2464H28.4946C28.4036 38.2464 28.3134 38.2285 28.2294 38.1937C28.1453 38.1589 28.0689 38.1079 28.0046 38.0436C27.9402 37.9792 27.8892 37.9028 27.8544 37.8187C27.8196 37.7347 27.8017 37.6446 27.8018 37.5536V22.9753C27.8017 22.8843 27.8196 22.7942 27.8544 22.7101C27.8892 22.626 27.9402 22.5496 28.0046 22.4853C28.0689 22.4209 28.1453 22.3699 28.2294 22.3351C28.3134 22.3003 28.4036 22.2824 28.4946 22.2825H34.5446C34.6356 22.2824 34.7256 22.3003 34.8097 22.3351C34.8938 22.3699 34.9702 22.4209 35.0346 22.4853C35.0989 22.5496 35.1499 22.626 35.1847 22.7101C35.2195 22.7942 35.2374 22.8843 35.2374 22.9753V37.5536C35.2374 37.6446 35.2195 37.7347 35.1847 37.8187C35.1499 37.9028 35.0989 37.9792 35.0346 38.0436C34.9702 38.1079 34.8938 38.1589 34.8097 38.1937C34.7256 38.2285 34.6356 38.2464 34.5446 38.2464ZM29.1874 36.8607H33.8517V23.6681H29.1874V36.8607Z" fill="black"/>
<path d="M28.4953 38.2463H22.4467C22.3557 38.2463 22.2656 38.2284 22.1815 38.1936C22.0974 38.1588 22.0211 38.1078 21.9567 38.0435C21.8924 37.9791 21.8413 37.9027 21.8065 37.8186C21.7717 37.7346 21.7539 37.6445 21.7539 37.5535V30.7951C21.7539 30.7041 21.7717 30.614 21.8065 30.5299C21.8413 30.4459 21.8924 30.3694 21.9567 30.3051C22.0211 30.2408 22.0974 30.1897 22.1815 30.1549C22.2656 30.1201 22.3557 30.1022 22.4467 30.1023H28.4953C28.5863 30.1022 28.6764 30.1201 28.7605 30.1549C28.8446 30.1897 28.921 30.2408 28.9854 30.3051C29.0497 30.3694 29.1007 30.4459 29.1355 30.5299C29.1703 30.614 29.1882 30.7041 29.1882 30.7951V37.5535C29.1882 37.6445 29.1703 37.7346 29.1355 37.8186C29.1007 37.9027 29.0497 37.9791 28.9854 38.0435C28.921 38.1078 28.8446 38.1588 28.7605 38.1936C28.6764 38.2284 28.5863 38.2463 28.4953 38.2463ZM23.1395 36.8607H27.8025V31.4879H23.1395V36.8607Z" fill="black"/>
<path d="M40.594 38.2462H34.5454C34.4544 38.2462 34.3642 38.2283 34.2801 38.1936C34.1961 38.1588 34.1197 38.1077 34.0553 38.0434C33.991 37.979 33.9399 37.9026 33.9051 37.8186C33.8703 37.7345 33.8525 37.6444 33.8525 37.5534V27.3242C33.8525 27.2332 33.8703 27.1431 33.9051 27.059C33.9399 26.9749 33.991 26.8985 34.0553 26.8342C34.1197 26.7698 34.1961 26.7188 34.2801 26.684C34.3642 26.6492 34.4544 26.6313 34.5454 26.6313H40.594C40.685 26.6313 40.775 26.6492 40.8591 26.684C40.9432 26.7188 41.0196 26.7698 41.0839 26.8342C41.1483 26.8985 41.1993 26.9749 41.2341 27.059C41.2689 27.1431 41.2869 27.2332 41.2868 27.3242V37.5534C41.2869 37.6444 41.2689 37.7345 41.2341 37.8186C41.1993 37.9026 41.1483 37.979 41.0839 38.0434C41.0196 38.1077 40.9432 38.1588 40.8591 38.1936C40.775 38.2283 40.685 38.2462 40.594 38.2462ZM35.2382 36.8606H39.9012V28.017H35.2382V36.8606Z" fill="black"/>
<path d="M42.6978 38.2462H20.3422C20.1585 38.2462 19.9822 38.1732 19.8523 38.0433C19.7224 37.9134 19.6494 37.7372 19.6494 37.5534C19.6494 37.3697 19.7224 37.1935 19.8523 37.0635C19.9822 36.9336 20.1585 36.8606 20.3422 36.8606H42.6978C42.8815 36.8606 43.0577 36.9336 43.1876 37.0635C43.3176 37.1935 43.3906 37.3697 43.3906 37.5534C43.3906 37.7372 43.3176 37.9134 43.1876 38.0433C43.0577 38.1732 42.8815 38.2462 42.6978 38.2462Z" fill="black"/>
<path d="M36.1701 9.87074H20.3422C20.1585 9.87074 19.9822 9.79774 19.8523 9.66781C19.7224 9.53788 19.6494 9.36167 19.6494 9.17793C19.6494 8.99418 19.7224 8.81797 19.8523 8.68804C19.9822 8.55811 20.1585 8.48511 20.3422 8.48511H36.1701C36.3539 8.48511 36.5301 8.55811 36.66 8.68804C36.7899 8.81797 36.863 8.99418 36.863 9.17793C36.863 9.36167 36.7899 9.53788 36.66 9.66781C36.5301 9.79774 36.3539 9.87074 36.1701 9.87074Z" fill="black"/>
<path d="M33.3975 14.4476H20.3422C20.1585 14.4476 19.9822 14.3746 19.8523 14.2447C19.7224 14.1148 19.6494 13.9386 19.6494 13.7548C19.6494 13.5711 19.7224 13.3949 19.8523 13.2649C19.9822 13.135 20.1585 13.062 20.3422 13.062H33.3975C33.5813 13.062 33.7574 13.135 33.8874 13.2649C34.0173 13.3949 34.0903 13.5711 34.0903 13.7548C34.0903 13.9386 34.0173 14.1148 33.8874 14.2447C33.7574 14.3746 33.5813 14.4476 33.3975 14.4476Z" fill="black"/>
<path d="M30.6249 19.0248H20.3422C20.1585 19.0248 19.9822 18.9518 19.8523 18.8219C19.7224 18.6919 19.6494 18.5157 19.6494 18.332C19.6494 18.1482 19.7224 17.972 19.8523 17.8421C19.9822 17.7122 20.1585 17.6392 20.3422 17.6392H30.6249C30.8086 17.6392 30.9848 17.7122 31.1147 17.8421C31.2447 17.972 31.3177 18.1482 31.3177 18.332C31.3177 18.5157 31.2447 18.6919 31.1147 18.8219C30.9848 18.9518 30.8086 19.0248 30.6249 19.0248Z" fill="black"/>
</svg>
