<svg width="60" height="50" viewBox="0 0 60 50" fill="none" xmlns="http://www.w3.org/2000/svg">
<path d="M38.7891 44.6L33.9652 47.304L29.1469 44.6L24.323 47.304L19.4977 44.6L14.6724 47.304L9.83877 44.6L5.00513 47.304V2.69543H38.7891V44.6Z" fill="white"/>
<path d="M14.6727 48C14.5539 48 14.4369 47.9697 14.3331 47.9117L9.83828 45.3967L5.34477 47.9117C5.23889 47.9708 5.1193 48.0012 4.99805 47.9999C4.87679 47.9986 4.75813 47.9657 4.65353 47.9043C4.54894 47.843 4.46202 47.7553 4.40172 47.6501C4.34142 47.5449 4.30977 47.4258 4.30969 47.3045V2.69549C4.30964 2.60414 4.32757 2.51365 4.3625 2.42925C4.39743 2.34484 4.44869 2.26818 4.51328 2.20359C4.57787 2.13899 4.65454 2.08774 4.73894 2.05281C4.82334 2.01787 4.91383 1.99995 5.00518 2H38.7893C38.8807 1.99995 38.9712 2.01787 39.0556 2.05281C39.14 2.08774 39.2166 2.13899 39.2812 2.20359C39.3458 2.26818 39.3971 2.34484 39.432 2.42925C39.4669 2.51365 39.4849 2.60414 39.4848 2.69549V44.6C39.4848 44.7236 39.4518 44.8449 39.3892 44.9516C39.3267 45.0582 39.2368 45.1462 39.1289 45.2065L34.3053 47.911C34.2013 47.9691 34.0842 47.9997 33.965 47.9997C33.8459 47.9997 33.7288 47.9691 33.6248 47.911L29.1462 45.3974L24.6622 47.911C24.5585 47.9691 24.4415 47.9997 24.3226 47.9997C24.2037 47.9997 24.0868 47.9691 23.983 47.911L19.4977 45.3974L15.0123 47.911C14.9086 47.9694 14.7917 48 14.6727 48ZM9.83828 43.9045C9.95716 43.9045 10.0741 43.9348 10.1779 43.9928L14.6727 46.5071L19.1581 43.9935C19.2618 43.9354 19.3788 43.9048 19.4977 43.9048C19.6166 43.9048 19.7335 43.9354 19.8373 43.9935L24.3226 46.5071L28.8066 43.9935C28.9106 43.9354 29.0278 43.9048 29.1469 43.9048C29.266 43.9048 29.3832 43.9354 29.4872 43.9935L33.9657 46.5071L38.0938 44.1925V3.39098H5.70067V46.1187L9.49868 43.9928C9.60249 43.9348 9.71939 43.9044 9.83828 43.9045Z" fill="black"/>
<path d="M24.7845 21.4533H17.0784C16.894 21.4533 16.7171 21.3801 16.5867 21.2497C16.4563 21.1192 16.3829 20.9423 16.3829 20.7578C16.3829 20.5734 16.4563 20.3965 16.5867 20.266C16.7171 20.1356 16.894 20.0624 17.0784 20.0624H24.7845C25.1123 20.0619 25.4265 19.9315 25.6583 19.6996C25.89 19.4677 26.0204 19.1534 26.0206 18.8256V16.8872C26.0203 16.5594 25.89 16.2451 25.6583 16.0134C25.4265 15.7816 25.1122 15.6513 24.7845 15.651H19.01C18.3135 15.65 17.6458 15.3728 17.1533 14.8802C16.6608 14.3876 16.3838 13.7198 16.3829 13.0233V11.0849C16.3838 10.3884 16.6608 9.72062 17.1533 9.22813C17.6458 8.73564 18.3135 8.45862 19.01 8.45776H26.7159C26.9004 8.45776 27.0774 8.53101 27.2078 8.66143C27.3383 8.79186 27.4114 8.9688 27.4114 9.15325C27.4114 9.33771 27.3383 9.51464 27.2078 9.64507C27.0774 9.7755 26.9004 9.84874 26.7159 9.84874H19.01C18.6823 9.849 18.368 9.97933 18.1363 10.2111C17.9045 10.4428 17.7742 10.7571 17.7739 11.0849V13.0233C17.7741 13.3511 17.9043 13.6654 18.1361 13.8973C18.3678 14.1292 18.6822 14.2596 19.01 14.2601H24.7845C25.481 14.2609 26.1487 14.5379 26.6412 15.0304C27.1337 15.5229 27.4107 16.1907 27.4116 16.8872V18.8256C27.4107 19.5221 27.1337 20.1899 26.6412 20.6825C26.1487 21.1751 25.481 21.4523 24.7845 21.4533Z" fill="black"/>
<path d="M21.8965 23.4549C21.8052 23.4549 21.7147 23.437 21.6303 23.4021C21.5459 23.3671 21.4692 23.3159 21.4046 23.2513C21.34 23.1867 21.2888 23.11 21.2539 23.0256C21.2189 22.9412 21.201 22.8507 21.201 22.7594V7.15166C21.201 6.96721 21.2742 6.79028 21.4046 6.65985C21.5351 6.52942 21.7121 6.45618 21.8965 6.45618C22.081 6.45618 22.2578 6.52942 22.3883 6.65985C22.5187 6.79028 22.592 6.96721 22.592 7.15166V22.7594C22.5921 22.8507 22.5742 22.9412 22.5392 23.0256C22.5043 23.11 22.453 23.1867 22.3884 23.2513C22.3238 23.3159 22.2472 23.3671 22.1628 23.4021C22.0784 23.437 21.9879 23.4549 21.8965 23.4549Z" fill="black"/>
<path d="M21.4971 30.17H10.8801C10.6956 30.17 10.5186 30.0968 10.3882 29.9664C10.2577 29.8359 10.1846 29.659 10.1846 29.4745C10.1846 29.2901 10.2577 29.1132 10.3882 28.9827C10.5186 28.8523 10.6956 28.7791 10.8801 28.7791H21.4971C21.6816 28.7791 21.8584 28.8523 21.9888 28.9827C22.1193 29.1132 22.1926 29.2901 22.1926 29.4745C22.1926 29.659 22.1193 29.8359 21.9888 29.9664C21.8584 30.0968 21.6816 30.17 21.4971 30.17Z" fill="black"/>
<path d="M32.9144 30.17H27.7363C27.5518 30.17 27.375 30.0968 27.2445 29.9664C27.1141 29.8359 27.0408 29.659 27.0408 29.4745C27.0408 29.2901 27.1141 29.1132 27.2445 28.9827C27.375 28.8523 27.5518 28.7791 27.7363 28.7791H32.9144C33.0988 28.7791 33.2757 28.8523 33.4061 28.9827C33.5365 29.1132 33.6099 29.2901 33.6099 29.4745C33.6099 29.659 33.5365 29.8359 33.4061 29.9664C33.2757 30.0968 33.0988 30.17 32.9144 30.17Z" fill="black"/>
<path d="M21.4971 34.7743H10.8801C10.6956 34.7743 10.5186 34.701 10.3882 34.5706C10.2577 34.4402 10.1846 34.2632 10.1846 34.0788C10.1846 33.8943 10.2577 33.7174 10.3882 33.587C10.5186 33.4565 10.6956 33.3833 10.8801 33.3833H21.4971C21.6816 33.3833 21.8584 33.4565 21.9888 33.587C22.1193 33.7174 22.1926 33.8943 22.1926 34.0788C22.1926 34.2632 22.1193 34.4402 21.9888 34.5706C21.8584 34.701 21.6816 34.7743 21.4971 34.7743Z" fill="black"/>
<path d="M32.9144 34.7743H27.7363C27.5518 34.7743 27.375 34.701 27.2445 34.5706C27.1141 34.4402 27.0408 34.2632 27.0408 34.0788C27.0408 33.8943 27.1141 33.7174 27.2445 33.587C27.375 33.4565 27.5518 33.3833 27.7363 33.3833H32.9144C33.0988 33.3833 33.2757 33.4565 33.4061 33.587C33.5365 33.7174 33.6099 33.8943 33.6099 34.0788C33.6099 34.2632 33.5365 34.4402 33.4061 34.5706C33.2757 34.701 33.0988 34.7743 32.9144 34.7743Z" fill="black"/>
<path d="M21.4971 39.3784H10.8801C10.6956 39.3784 10.5186 39.3052 10.3882 39.1747C10.2577 39.0443 10.1846 38.8674 10.1846 38.6829C10.1846 38.4985 10.2577 38.3215 10.3882 38.1911C10.5186 38.0607 10.6956 37.9874 10.8801 37.9874H21.4971C21.6816 37.9874 21.8584 38.0607 21.9888 38.1911C22.1193 38.3215 22.1926 38.4985 22.1926 38.6829C22.1926 38.8674 22.1193 39.0443 21.9888 39.1747C21.8584 39.3052 21.6816 39.3784 21.4971 39.3784Z" fill="black"/>
<path d="M32.9144 39.3784H27.7363C27.5518 39.3784 27.375 39.3052 27.2445 39.1747C27.1141 39.0443 27.0408 38.8674 27.0408 38.6829C27.0408 38.4985 27.1141 38.3215 27.2445 38.1911C27.375 38.0607 27.5518 37.9874 27.7363 37.9874H32.9144C33.0988 37.9874 33.2757 38.0607 33.4061 38.1911C33.5365 38.3215 33.6099 38.4985 33.6099 38.6829C33.6099 38.8674 33.5365 39.0443 33.4061 39.1747C33.2757 39.3052 33.0988 39.3784 32.9144 39.3784Z" fill="black"/>
<path d="M44.284 26.7215C50.1993 26.7215 54.9946 21.9262 54.9946 16.0109C54.9946 10.0956 50.1993 5.30029 44.284 5.30029C38.3687 5.30029 33.5734 10.0956 33.5734 16.0109C33.5734 21.9262 38.3687 26.7215 44.284 26.7215Z" fill="#FFA18C"/>
<path d="M44.284 27.4173C42.028 27.4173 39.8227 26.7484 37.947 25.495C36.0712 24.2417 34.6092 22.4602 33.7459 20.376C32.8825 18.2918 32.6568 15.9984 33.0969 13.7858C33.537 11.5732 34.6232 9.54081 36.2184 7.94561C37.8136 6.35042 39.846 5.26401 42.0586 4.8239C44.2712 4.38378 46.5647 4.60971 48.6489 5.47303C50.7331 6.33635 52.5146 7.7983 53.768 9.67406C55.0213 11.5498 55.6902 13.7551 55.6902 16.011C55.6867 19.0351 54.4839 21.9343 52.3456 24.0727C50.2072 26.211 47.308 27.4138 44.284 27.4173ZM44.284 5.99575C42.3031 5.99575 40.3667 6.58312 38.7197 7.68361C37.0727 8.78411 35.7891 10.3483 35.031 12.1784C34.273 14.0084 34.0746 16.0221 34.461 17.9649C34.8475 19.9077 35.8014 21.6923 37.2021 23.0929C38.6027 24.4936 40.3873 25.4474 42.3301 25.8339C44.2729 26.2203 46.2866 26.022 48.1166 25.264C49.9467 24.5059 51.5108 23.2223 52.6113 21.5753C53.7118 19.9283 54.2993 17.9919 54.2993 16.011C54.2961 13.3558 53.24 10.8101 51.3624 8.93256C49.4849 7.055 46.9392 5.99886 44.284 5.99575Z" fill="black"/>
<path d="M43.0859 20.6131C42.988 20.6129 42.8913 20.5922 42.802 20.5523C42.7126 20.5124 42.6324 20.4542 42.567 20.3815L39.1927 16.6079L40.2305 15.6802L43.0342 18.8166L48.2966 11.6913L49.4159 12.5172L43.6455 20.3305C43.584 20.4136 43.5049 20.482 43.4137 20.5307C43.3226 20.5795 43.2217 20.6074 43.1185 20.6124L43.0859 20.6131Z" fill="black"/>
</svg>
