<svg width="52" height="46" viewBox="0 0 52 46" fill="none" xmlns="http://www.w3.org/2000/svg">
<path d="M34.7891 42.6L29.9652 45.304L25.1469 42.6L20.323 45.304L15.4977 42.6L10.6724 45.304L5.83877 42.6L1.00513 45.304V0.695435H34.7891V42.6Z" fill="white"/>
<path d="M10.6727 46C10.5539 46 10.4369 45.9697 10.3331 45.9117L5.83828 43.3967L1.34477 45.9117C1.23889 45.9708 1.1193 46.0012 0.998049 45.9999C0.876794 45.9986 0.758125 45.9657 0.653531 45.9043C0.548937 45.843 0.462025 45.7553 0.401722 45.6501C0.34142 45.5449 0.309774 45.4258 0.309692 45.3045V0.695488C0.309641 0.604141 0.327566 0.51365 0.362499 0.429247C0.397433 0.344843 0.448687 0.268179 0.513279 0.203587C0.577871 0.138994 0.654535 0.0877403 0.738939 0.0528069C0.823343 0.0178735 0.913833 -5.10881e-05 1.00518 1.09365e-07H34.7893C34.8807 -5.10881e-05 34.9712 0.0178735 35.0556 0.0528069C35.14 0.0877403 35.2166 0.138994 35.2812 0.203587C35.3458 0.268179 35.3971 0.344843 35.432 0.429247C35.4669 0.51365 35.4849 0.604141 35.4848 0.695488V42.6C35.4848 42.7236 35.4518 42.8449 35.3892 42.9516C35.3267 43.0582 35.2368 43.1462 35.1289 43.2065L30.3053 45.911C30.2013 45.9691 30.0842 45.9997 29.965 45.9997C29.8459 45.9997 29.7288 45.9691 29.6248 45.911L25.1462 43.3974L20.6622 45.911C20.5585 45.9691 20.4415 45.9997 20.3226 45.9997C20.2037 45.9997 20.0868 45.9691 19.983 45.911L15.4977 43.3974L11.0123 45.911C10.9086 45.9694 10.7917 46 10.6727 46ZM5.83828 41.9045C5.95716 41.9045 6.07407 41.9348 6.17787 41.9928L10.6727 44.5071L15.1581 41.9935C15.2618 41.9354 15.3788 41.9048 15.4977 41.9048C15.6166 41.9048 15.7335 41.9354 15.8373 41.9935L20.3226 44.5071L24.8066 41.9935C24.9106 41.9354 25.0278 41.9048 25.1469 41.9048C25.266 41.9048 25.3832 41.9354 25.4872 41.9935L29.9657 44.5071L34.0938 42.1925V1.39098H1.70067V44.1187L5.49868 41.9928C5.60249 41.9348 5.71939 41.9044 5.83828 41.9045Z" fill="black"/>
<path d="M20.7845 19.4533H13.0784C12.894 19.4533 12.7171 19.3801 12.5867 19.2497C12.4563 19.1192 12.3829 18.9423 12.3829 18.7578C12.3829 18.5734 12.4563 18.3965 12.5867 18.266C12.7171 18.1356 12.894 18.0624 13.0784 18.0624H20.7845C21.1123 18.0619 21.4265 17.9315 21.6583 17.6996C21.89 17.4677 22.0204 17.1534 22.0206 16.8256V14.8872C22.0203 14.5594 21.89 14.2451 21.6583 14.0134C21.4265 13.7816 21.1122 13.6513 20.7845 13.651H15.01C14.3135 13.65 13.6458 13.3728 13.1533 12.8802C12.6608 12.3876 12.3838 11.7198 12.3829 11.0233V9.08486C12.3838 8.38837 12.6608 7.72062 13.1533 7.22813C13.6458 6.73564 14.3135 6.45862 15.01 6.45776H22.7159C22.9004 6.45776 23.0774 6.53101 23.2078 6.66143C23.3383 6.79186 23.4114 6.9688 23.4114 7.15325C23.4114 7.33771 23.3383 7.51464 23.2078 7.64507C23.0774 7.7755 22.9004 7.84874 22.7159 7.84874H15.01C14.6823 7.849 14.368 7.97933 14.1363 8.21109C13.9045 8.44285 13.7742 8.7571 13.7739 9.08486V11.0233C13.7741 11.3511 13.9043 11.6654 14.1361 11.8973C14.3678 12.1292 14.6822 12.2596 15.01 12.2601H20.7845C21.481 12.2609 22.1487 12.5379 22.6412 13.0304C23.1337 13.5229 23.4107 14.1907 23.4116 14.8872V16.8256C23.4107 17.5221 23.1337 18.1899 22.6412 18.6825C22.1487 19.1751 21.481 19.4523 20.7845 19.4533Z" fill="black"/>
<path d="M17.8965 21.4549C17.8052 21.4549 17.7147 21.437 17.6303 21.4021C17.5459 21.3671 17.4692 21.3159 17.4046 21.2513C17.34 21.1867 17.2888 21.11 17.2539 21.0256C17.2189 20.9412 17.201 20.8507 17.201 20.7594V5.15166C17.201 4.96721 17.2742 4.79028 17.4046 4.65985C17.5351 4.52942 17.7121 4.45618 17.8965 4.45618C18.081 4.45618 18.2578 4.52942 18.3883 4.65985C18.5187 4.79028 18.592 4.96721 18.592 5.15166V20.7594C18.5921 20.8507 18.5742 20.9412 18.5392 21.0256C18.5043 21.11 18.453 21.1867 18.3884 21.2513C18.3238 21.3159 18.2472 21.3671 18.1628 21.4021C18.0784 21.437 17.9879 21.4549 17.8965 21.4549Z" fill="black"/>
<path d="M17.4971 28.17H6.88006C6.6956 28.17 6.51859 28.0968 6.38816 27.9664C6.25773 27.8359 6.18457 27.659 6.18457 27.4745C6.18457 27.2901 6.25773 27.1132 6.38816 26.9827C6.51859 26.8523 6.6956 26.7791 6.88006 26.7791H17.4971C17.6816 26.7791 17.8584 26.8523 17.9888 26.9827C18.1193 27.1132 18.1926 27.2901 18.1926 27.4745C18.1926 27.659 18.1193 27.8359 17.9888 27.9664C17.8584 28.0968 17.6816 28.17 17.4971 28.17Z" fill="black"/>
<path d="M28.9144 28.17H23.7363C23.5518 28.17 23.375 28.0968 23.2445 27.9664C23.1141 27.8359 23.0408 27.659 23.0408 27.4745C23.0408 27.2901 23.1141 27.1132 23.2445 26.9827C23.375 26.8523 23.5518 26.7791 23.7363 26.7791H28.9144C29.0988 26.7791 29.2757 26.8523 29.4061 26.9827C29.5365 27.1132 29.6099 27.2901 29.6099 27.4745C29.6099 27.659 29.5365 27.8359 29.4061 27.9664C29.2757 28.0968 29.0988 28.17 28.9144 28.17Z" fill="black"/>
<path d="M17.4971 32.7743H6.88006C6.6956 32.7743 6.51859 32.701 6.38816 32.5706C6.25773 32.4402 6.18457 32.2632 6.18457 32.0788C6.18457 31.8943 6.25773 31.7174 6.38816 31.587C6.51859 31.4565 6.6956 31.3833 6.88006 31.3833H17.4971C17.6816 31.3833 17.8584 31.4565 17.9888 31.587C18.1193 31.7174 18.1926 31.8943 18.1926 32.0788C18.1926 32.2632 18.1193 32.4402 17.9888 32.5706C17.8584 32.701 17.6816 32.7743 17.4971 32.7743Z" fill="black"/>
<path d="M28.9144 32.7743H23.7363C23.5518 32.7743 23.375 32.701 23.2445 32.5706C23.1141 32.4402 23.0408 32.2632 23.0408 32.0788C23.0408 31.8943 23.1141 31.7174 23.2445 31.587C23.375 31.4565 23.5518 31.3833 23.7363 31.3833H28.9144C29.0988 31.3833 29.2757 31.4565 29.4061 31.587C29.5365 31.7174 29.6099 31.8943 29.6099 32.0788C29.6099 32.2632 29.5365 32.4402 29.4061 32.5706C29.2757 32.701 29.0988 32.7743 28.9144 32.7743Z" fill="black"/>
<path d="M17.4971 37.3784H6.88006C6.6956 37.3784 6.51859 37.3052 6.38816 37.1747C6.25773 37.0443 6.18457 36.8674 6.18457 36.6829C6.18457 36.4985 6.25773 36.3215 6.38816 36.1911C6.51859 36.0607 6.6956 35.9874 6.88006 35.9874H17.4971C17.6816 35.9874 17.8584 36.0607 17.9888 36.1911C18.1193 36.3215 18.1926 36.4985 18.1926 36.6829C18.1926 36.8674 18.1193 37.0443 17.9888 37.1747C17.8584 37.3052 17.6816 37.3784 17.4971 37.3784Z" fill="black"/>
<path d="M28.9144 37.3784H23.7363C23.5518 37.3784 23.375 37.3052 23.2445 37.1747C23.1141 37.0443 23.0408 36.8674 23.0408 36.6829C23.0408 36.4985 23.1141 36.3215 23.2445 36.1911C23.375 36.0607 23.5518 35.9874 23.7363 35.9874H28.9144C29.0988 35.9874 29.2757 36.0607 29.4061 36.1911C29.5365 36.3215 29.6099 36.4985 29.6099 36.6829C29.6099 36.8674 29.5365 37.0443 29.4061 37.1747C29.2757 37.3052 29.0988 37.3784 28.9144 37.3784Z" fill="black"/>
<path d="M40.284 24.7215C46.1993 24.7215 50.9946 19.9262 50.9946 14.0109C50.9946 8.0956 46.1993 3.30029 40.284 3.30029C34.3687 3.30029 29.5734 8.0956 29.5734 14.0109C29.5734 19.9262 34.3687 24.7215 40.284 24.7215Z" fill="#A5D4F8"/>
<path d="M40.284 25.4173C38.028 25.4173 35.8227 24.7484 33.947 23.495C32.0712 22.2417 30.6092 20.4602 29.7459 18.376C28.8825 16.2918 28.6568 13.9984 29.0969 11.7858C29.537 9.57317 30.6232 7.54081 32.2184 5.94561C33.8136 4.35042 35.846 3.26401 38.0586 2.8239C40.2712 2.38378 42.5647 2.60971 44.6489 3.47303C46.7331 4.33635 48.5146 5.7983 49.768 7.67406C51.0213 9.54981 51.6902 11.7551 51.6902 14.011C51.6867 17.0351 50.4839 19.9343 48.3456 22.0727C46.2072 24.211 43.308 25.4138 40.284 25.4173ZM40.284 3.99575C38.3031 3.99575 36.3667 4.58312 34.7197 5.68361C33.0727 6.78411 31.7891 8.34833 31.031 10.1784C30.273 12.0084 30.0746 14.0221 30.461 15.9649C30.8475 17.9077 31.8014 19.6923 33.2021 21.0929C34.6027 22.4936 36.3873 23.4474 38.3301 23.8339C40.2729 24.2203 42.2866 24.022 44.1166 23.264C45.9467 22.5059 47.5108 21.2223 48.6113 19.5753C49.7118 17.9283 50.2993 15.9919 50.2993 14.011C50.2961 11.3558 49.24 8.81011 47.3624 6.93256C45.4849 5.055 42.9392 3.99886 40.284 3.99575Z" fill="black"/>
<path d="M39.0859 18.6131C38.988 18.6129 38.8913 18.5922 38.802 18.5523C38.7126 18.5124 38.6324 18.4542 38.567 18.3815L35.1927 14.6079L36.2305 13.6802L39.0342 16.8166L44.2966 9.69128L45.4159 10.5172L39.6455 18.3305C39.584 18.4136 39.5049 18.482 39.4137 18.5307C39.3226 18.5795 39.2217 18.6074 39.1185 18.6124L39.0859 18.6131Z" fill="black"/>
</svg>
