<svg width="60" height="50" viewBox="0 0 60 50" fill="none" xmlns="http://www.w3.org/2000/svg">
<g clip-path="url(#clip0_313_961)">
<path d="M30.0001 21.2054C35.111 21.2054 39.2542 17.0413 39.2542 11.9046C39.2542 6.76788 35.111 2.60376 30.0001 2.60376C24.8892 2.60376 20.746 6.76788 20.746 11.9046C20.746 17.0413 24.8892 21.2054 30.0001 21.2054Z" fill="#FFC47A"/>
<path d="M30 21.8092C28.0509 21.8092 26.1455 21.2283 24.5249 20.1399C22.9043 19.0515 21.6412 17.5047 20.8954 15.6948C20.1495 13.885 19.9544 11.8935 20.3346 9.97217C20.7149 8.05087 21.6535 6.28605 23.0317 4.90087C24.4099 3.51569 26.1659 2.57238 28.0775 2.1902C29.9892 1.80802 31.9706 2.00418 33.7713 2.75382C35.5721 3.50345 37.1112 4.77288 38.1941 6.40166C39.277 8.03044 39.855 9.94538 39.8551 11.9043C39.8521 14.5303 38.8128 17.0479 36.9653 18.9048C35.1177 20.7617 32.6128 21.8062 30 21.8092ZM30 3.20788C28.2885 3.20793 26.6155 3.71807 25.1925 4.67373C23.7696 5.62939 22.6605 6.98765 22.0056 8.5768C21.3507 10.166 21.1793 11.9146 21.5133 13.6016C21.8472 15.2886 22.6715 16.8382 23.8817 18.0544C25.0919 19.2706 26.6337 20.0989 28.3122 20.4344C29.9908 20.7699 31.7307 20.5976 33.3118 19.9393C34.893 19.281 36.2443 18.1663 37.195 16.7361C38.1458 15.3059 38.6533 13.6244 38.6533 11.9043C38.6505 9.59864 37.7378 7.38821 36.1155 5.75791C34.4933 4.1276 32.294 3.21055 30 3.20788Z" fill="black"/>
<path d="M19.3344 37.505C19.3339 36.0741 18.8354 34.6885 17.9253 33.5882C17.0152 32.4878 15.7508 31.7421 14.3511 31.4802C15.0754 31.0816 15.647 30.4521 15.9759 29.6909C16.3048 28.9297 16.3722 28.0801 16.1675 27.2762C15.9628 26.4722 15.4977 25.7595 14.8455 25.2506C14.1933 24.7417 13.3911 24.4655 12.5654 24.4655C11.7397 24.4655 10.9375 24.7417 10.2853 25.2506C9.63309 25.7595 9.16785 26.4722 8.96319 27.2762C8.75852 28.0801 8.82604 28.9297 9.15493 29.6909C9.48383 30.4521 10.0555 31.0816 10.7797 31.4802C9.38008 31.7422 8.11561 32.4879 7.2055 33.5882C6.29539 34.6886 5.79697 36.0741 5.79639 37.505V40.5728H19.3344V37.505Z" fill="white"/>
<path d="M19.3338 41.1767H5.79695C5.71803 41.1767 5.63984 41.1612 5.56692 41.1308C5.49399 41.1005 5.42775 41.056 5.37195 40.9999C5.31614 40.9438 5.27185 40.8772 5.24167 40.8039C5.21149 40.7306 5.196 40.6521 5.19605 40.5727V37.5052C5.19626 36.1479 5.60445 34.8223 6.3672 33.7022C7.12995 32.5821 8.21166 31.7197 9.47048 31.2281C8.87809 30.6165 8.47815 29.8429 8.32089 29.0041C8.16363 28.1653 8.256 27.2985 8.58628 26.5121C8.91656 25.7257 9.47016 25.0547 10.1779 24.5828C10.8856 24.111 11.7161 23.8594 12.5654 23.8594C13.4147 23.8594 14.245 24.111 14.9527 24.5828C15.6605 25.0547 16.2141 25.7257 16.5444 26.5121C16.8746 27.2985 16.967 28.1653 16.8098 29.0041C16.6525 29.8429 16.2527 30.6165 15.6603 31.2281C16.9191 31.7197 18.0007 32.5821 18.7634 33.7022C19.5262 34.8223 19.9345 36.1479 19.9347 37.5052V40.5727C19.9348 40.6521 19.9192 40.7306 19.889 40.8039C19.8588 40.8772 19.8145 40.9438 19.7587 40.9999C19.7029 41.056 19.6367 41.1005 19.5637 41.1308C19.4908 41.1612 19.4128 41.1767 19.3338 41.1767ZM6.39786 39.9688H18.7329V37.5052C18.7329 36.2153 18.2837 34.966 17.4633 33.974C16.643 32.982 15.5032 32.3098 14.2414 32.0739C14.1196 32.0511 14.0077 31.9911 13.9211 31.902C13.8346 31.813 13.7776 31.6992 13.7578 31.5763C13.738 31.4534 13.7564 31.3274 13.8106 31.2154C13.8648 31.1035 13.9522 31.0111 14.0606 30.9509C14.6682 30.6171 15.1478 30.0894 15.424 29.4512C15.7001 28.813 15.757 28.1006 15.5856 27.4263C15.4142 26.7521 15.0243 26.1543 14.4774 25.7275C13.9305 25.3006 13.2578 25.0688 12.5654 25.0688C11.8729 25.0688 11.2001 25.3006 10.6532 25.7275C10.1063 26.1543 9.71641 26.7521 9.54501 27.4263C9.3736 28.1006 9.43054 28.813 9.70668 29.4512C9.98282 30.0894 10.4626 30.6171 11.0702 30.9509C11.1786 31.0111 11.2658 31.1035 11.32 31.2154C11.3742 31.3274 11.3926 31.4534 11.3728 31.5763C11.353 31.6992 11.2961 31.813 11.2095 31.902C11.123 31.9911 11.0112 32.0511 10.8894 32.0739C9.62763 32.3098 8.48768 32.982 7.66731 33.974C6.84695 34.966 6.3979 36.2153 6.39786 37.5052V39.9688Z" fill="black"/>
<path d="M36.769 44.3284C36.7684 42.8975 36.27 41.5119 35.3598 40.4115C34.4497 39.3112 33.1853 38.5655 31.7856 38.3035C32.5099 37.905 33.0815 37.2755 33.4104 36.5143C33.7393 35.7531 33.8067 34.9035 33.602 34.0995C33.3973 33.2956 32.9323 32.5829 32.28 32.074C31.6278 31.5651 30.8256 31.2888 29.9999 31.2888C29.1742 31.2888 28.372 31.5651 27.7198 32.074C27.0676 32.5829 26.6024 33.2956 26.3977 34.0995C26.193 34.9035 26.2606 35.7531 26.5895 36.5143C26.9183 37.2755 27.49 37.905 28.2142 38.3035C26.8146 38.5655 25.5502 39.3113 24.6402 40.4116C23.7301 41.5119 23.2317 42.8975 23.2312 44.3284V47.3962H36.769V44.3284Z" fill="white"/>
<path d="M36.7696 48.0001H23.2315C23.1526 48.0001 23.0744 47.9845 23.0015 47.9542C22.9286 47.9239 22.8623 47.8794 22.8065 47.8233C22.7507 47.7672 22.7064 47.7006 22.6762 47.6273C22.6461 47.554 22.6306 47.4754 22.6306 47.3961V44.3286C22.6308 42.9713 23.039 41.6457 23.8018 40.5256C24.5645 39.4055 25.6462 38.5431 26.905 38.0515C26.313 37.4398 25.9135 36.6663 25.7565 35.8277C25.5995 34.9891 25.692 34.1226 26.0223 33.3365C26.3526 32.5504 26.9062 31.8796 27.6138 31.408C28.3214 30.9363 29.1515 30.6848 30.0006 30.6848C30.8496 30.6848 31.6797 30.9363 32.3873 31.408C33.0949 31.8796 33.6485 32.5504 33.9788 33.3365C34.3091 34.1226 34.4015 34.9891 34.2445 35.8277C34.0875 36.6663 33.6881 37.4398 33.0961 38.0515C34.3549 38.5431 35.4366 39.4055 36.1993 40.5256C36.9621 41.6457 37.3703 42.9713 37.3705 44.3286V47.3961C37.3705 47.4754 37.355 47.554 37.3249 47.6273C37.2947 47.7006 37.2504 47.7672 37.1946 47.8233C37.1388 47.8794 37.0725 47.9239 36.9996 47.9542C36.9267 47.9845 36.8485 48.0001 36.7696 48.0001ZM23.8324 46.7922H36.1687V44.3286C36.1685 43.0387 35.7193 41.7896 34.8989 40.7976C34.0786 39.8057 32.9388 39.1334 31.6771 38.8973C31.5554 38.8746 31.4436 38.8146 31.357 38.7256C31.2704 38.6366 31.2134 38.5229 31.1936 38.4001C31.1738 38.2772 31.1922 38.1512 31.2464 38.0393C31.3006 37.9274 31.3879 37.835 31.4964 37.7749C32.104 37.441 32.5837 36.9132 32.8599 36.2748C33.136 35.6365 33.1928 34.924 33.0214 34.2496C32.8499 33.5753 32.4598 32.9775 31.9129 32.5505C31.3659 32.1236 30.6931 31.8918 30.0006 31.8918C29.308 31.8918 28.6351 32.1236 28.0881 32.5505C27.5411 32.9775 27.1512 33.5753 26.9797 34.2496C26.8083 34.924 26.8651 35.6365 27.1412 36.2748C27.4174 36.9132 27.8971 37.441 28.5047 37.7749C28.6129 37.8353 28.7 37.9278 28.754 38.0397C28.808 38.1516 28.8261 38.2776 28.8062 38.4004C28.7863 38.5231 28.7293 38.6367 28.6428 38.7256C28.5563 38.8146 28.4445 38.8745 28.3228 38.8973C27.0612 39.1332 25.9215 39.8055 25.1013 40.7976C24.2811 41.7896 23.8322 43.0388 23.8324 44.3286V46.7922Z" fill="black"/>
<path d="M49.2205 31.4802C49.9448 31.0816 50.5164 30.452 50.8453 29.6908C51.1742 28.9296 51.2416 28.0799 51.0369 27.2759C50.8322 26.4719 50.3672 25.7593 49.7149 25.2504C49.0627 24.7414 48.2604 24.4652 47.4347 24.4652C46.6089 24.4652 45.8066 24.7414 45.1544 25.2504C44.5022 25.7593 44.0371 26.4719 43.8324 27.2759C43.6277 28.0799 43.6951 28.9296 44.024 29.6908C44.3529 30.452 44.9245 31.0816 45.6488 31.4802C44.2492 31.7422 42.9849 32.488 42.0749 33.5883C41.1648 34.6886 40.6663 36.0742 40.6658 37.505V40.5728H54.2035V37.505C54.203 36.0742 53.7046 34.6885 52.7946 33.5882C51.8845 32.4879 50.6201 31.7421 49.2205 31.4802Z" fill="white"/>
<path d="M54.203 41.1767H40.6661C40.5872 41.1767 40.509 41.1612 40.4361 41.1308C40.3631 41.1005 40.2969 41.056 40.2411 40.9999C40.1853 40.9438 40.141 40.8772 40.1108 40.8039C40.0806 40.7307 40.0651 40.6521 40.0652 40.5728V37.5053C40.0654 36.1479 40.4736 34.8223 41.2363 33.7022C41.9991 32.5821 43.0808 31.7197 44.3396 31.2281C43.7476 30.6165 43.3481 29.8429 43.1911 29.0043C43.034 28.1657 43.1264 27.2992 43.4567 26.5131C43.7871 25.727 44.3406 25.0562 45.0482 24.5846C45.7558 24.113 46.5861 23.8615 47.4351 23.8615C48.2842 23.8615 49.1143 24.113 49.8219 24.5846C50.5295 25.0562 51.083 25.727 51.4134 26.5131C51.7437 27.2992 51.8361 28.1657 51.679 29.0043C51.522 29.8429 51.1226 30.6165 50.5306 31.2281C51.7892 31.72 52.8705 32.5824 53.633 33.7025C54.3955 34.8226 54.8037 36.1481 54.8039 37.5053V40.5728C54.8039 40.6521 54.7883 40.7307 54.7581 40.8039C54.7279 40.8772 54.6838 40.9438 54.628 40.9999C54.5722 41.056 54.5059 41.1005 54.433 41.1308C54.3601 41.1612 54.2819 41.1767 54.203 41.1767ZM41.267 39.9688H53.6021V37.5053C53.6023 36.2155 53.1534 34.9662 52.3332 33.9742C51.513 32.9822 50.3734 32.3099 49.1117 32.0739C48.9899 32.0512 48.8781 31.9913 48.7916 31.9023C48.705 31.8133 48.6479 31.6995 48.6281 31.5766C48.6084 31.4538 48.6267 31.3278 48.681 31.2159C48.7352 31.104 48.8225 31.0117 48.9309 30.9515C49.5388 30.6177 50.0188 30.0899 50.2952 29.4515C50.5715 28.8132 50.6285 28.1005 50.4571 27.4259C50.2858 26.7514 49.8959 26.1533 49.3489 25.7262C48.8019 25.2991 48.1288 25.0672 47.4362 25.0671C46.7435 25.0669 46.0706 25.2986 45.5234 25.7255C44.9762 26.1524 44.586 26.7503 44.4144 27.4248C44.2428 28.0993 44.2996 28.8119 44.5757 29.4504C44.8518 30.0889 45.3316 30.6169 45.9393 30.9509C46.0477 31.0111 46.135 31.1035 46.1891 31.2155C46.2433 31.3274 46.2619 31.4534 46.2421 31.5763C46.2223 31.6992 46.1652 31.813 46.0787 31.902C45.9921 31.9911 45.8803 32.0511 45.7586 32.0739C44.4968 32.3098 43.3568 32.982 42.5365 33.974C41.7161 34.9661 41.267 36.2153 41.267 37.5053V39.9688Z" fill="black"/>
<path d="M32.068 16.6857H26.5483C26.3889 16.6857 26.2361 16.6221 26.1234 16.5088C26.0107 16.3955 25.9474 16.2419 25.9474 16.0817C25.9474 15.9215 26.0107 15.7679 26.1234 15.6546C26.2361 15.5414 26.3889 15.4778 26.5483 15.4778H32.068C32.2755 15.4776 32.4746 15.3947 32.6213 15.2472C32.7681 15.0996 32.8506 14.8996 32.8508 14.691V13.2956C32.8507 13.0869 32.7683 12.8868 32.6215 12.7392C32.4747 12.5915 32.2756 12.5085 32.068 12.5082H27.932C27.4059 12.5075 26.9014 12.2971 26.5294 11.9232C26.1573 11.5493 25.9481 11.0423 25.9474 10.5135V9.11808C25.9481 8.58926 26.1573 8.08226 26.5294 7.70834C26.9014 7.33441 27.4059 7.12408 27.932 7.12341H33.4517C33.6111 7.12341 33.7639 7.18701 33.8766 7.30028C33.9893 7.41354 34.0526 7.56718 34.0526 7.72736C34.0526 7.88753 33.9893 8.04118 33.8766 8.15444C33.7639 8.2677 33.6111 8.3313 33.4517 8.3313H27.932C27.7245 8.33145 27.5254 8.41439 27.3787 8.56191C27.2319 8.70943 27.1494 8.90946 27.1492 9.11808V10.5135C27.1494 10.7221 27.2319 10.9222 27.3787 11.0697C27.5254 11.2172 27.7245 11.3001 27.932 11.3003H32.068C32.5942 11.3011 33.0986 11.5116 33.4706 11.8856C33.8427 12.2596 34.052 12.7667 34.0526 13.2956V14.691C34.052 15.2198 33.8427 15.7268 33.4706 16.1007C33.0986 16.4747 32.5941 16.685 32.068 16.6857Z" fill="black"/>
<path d="M30 18.1266C29.921 18.1266 29.8428 18.1111 29.7699 18.0807C29.697 18.0504 29.6308 18.0059 29.5749 17.9498C29.5191 17.8937 29.4749 17.8271 29.4447 17.7538C29.4145 17.6805 29.399 17.602 29.399 17.5226V6.28656C29.399 6.12639 29.4623 5.97274 29.5749 5.85948C29.6876 5.74622 29.8406 5.68262 30 5.68262C30.1593 5.68262 30.3121 5.74622 30.4248 5.85948C30.5375 5.97274 30.6009 6.12639 30.6009 6.28656V17.5226C30.6009 17.602 30.5853 17.6805 30.5551 17.7538C30.5249 17.8271 30.4808 17.8937 30.425 17.9498C30.3692 18.0059 30.3028 18.0504 30.2298 18.0807C30.1569 18.1111 30.0789 18.1266 30 18.1266Z" fill="black"/>
<path d="M30 29.0465C29.921 29.0465 29.8428 29.031 29.7699 29.0006C29.697 28.9703 29.6308 28.9258 29.5749 28.8697C29.5191 28.8136 29.4749 28.7471 29.4447 28.6738C29.4145 28.6005 29.399 28.5219 29.399 28.4426V21.2053C29.399 21.0451 29.4623 20.8914 29.5749 20.7782C29.6876 20.6649 29.8406 20.6013 30 20.6013C30.1593 20.6013 30.3121 20.6649 30.4248 20.7782C30.5375 20.8914 30.6009 21.0451 30.6009 21.2053V28.4426C30.6009 28.5219 30.5853 28.6005 30.5551 28.6738C30.5249 28.7471 30.4806 28.8136 30.4248 28.8697C30.369 28.9258 30.3028 28.9703 30.2298 29.0006C30.1569 29.031 30.0789 29.0465 30 29.0465Z" fill="black"/>
<path d="M47.4346 21.8093C47.3556 21.8093 47.2775 21.7938 47.2045 21.7634C47.1316 21.7331 47.0654 21.6886 47.0096 21.6325C46.9538 21.5764 46.9095 21.5098 46.8793 21.4365C46.8491 21.3632 46.8336 21.2847 46.8337 21.2053V13.9775C46.8333 13.588 46.6792 13.2147 46.4053 12.9393C46.1314 12.6639 45.7599 12.5089 45.3725 12.5083H39.2542C39.0949 12.5083 38.9419 12.4447 38.8292 12.3314C38.7165 12.2182 38.6533 12.0645 38.6533 11.9044C38.6533 11.7442 38.7165 11.5905 38.8292 11.4773C38.9419 11.364 39.0949 11.3004 39.2542 11.3004H45.3725C46.0786 11.3013 46.7555 11.5836 47.2547 12.0855C47.7539 12.5874 48.0348 13.2678 48.0355 13.9775V21.2053C48.0355 21.2847 48.02 21.3632 47.9899 21.4365C47.9597 21.5098 47.9154 21.5764 47.8596 21.6325C47.8038 21.6886 47.7375 21.7331 47.6646 21.7634C47.5917 21.7938 47.5135 21.8093 47.4346 21.8093Z" fill="black"/>
<path d="M12.5654 21.2596C12.4865 21.2596 12.4083 21.2441 12.3354 21.2137C12.2624 21.1834 12.1962 21.1389 12.1404 21.0828C12.0846 21.0267 12.0403 20.9601 12.0101 20.8868C11.9799 20.8135 11.9644 20.735 11.9645 20.6556V13.9775C11.9652 13.2678 12.246 12.5874 12.7452 12.0855C13.2445 11.5836 13.9214 11.3013 14.6275 11.3004H20.7457C20.9051 11.3004 21.0579 11.364 21.1706 11.4773C21.2833 11.5905 21.3466 11.7442 21.3466 11.9044C21.3466 12.0645 21.2833 12.2182 21.1706 12.3314C21.0579 12.4447 20.9051 12.5083 20.7457 12.5083H14.6275C14.24 12.5089 13.8686 12.6639 13.5947 12.9393C13.3208 13.2147 13.1667 13.588 13.1663 13.9775V20.6556C13.1663 20.735 13.1507 20.8135 13.1205 20.8868C13.0903 20.9601 13.0462 21.0267 12.9904 21.0828C12.9346 21.1389 12.8683 21.1833 12.7954 21.2137C12.7225 21.244 12.6443 21.2596 12.5654 21.2596Z" fill="black"/>
<path d="M47.4346 22.2321C47.3363 22.2321 47.2395 22.2079 47.1528 22.1615C47.066 22.1151 46.9919 22.048 46.9369 21.9661L45.0403 19.1434C44.996 19.0777 44.965 19.0039 44.9491 18.9262C44.9332 18.8485 44.9327 18.7684 44.9476 18.6904C44.9625 18.6125 44.9927 18.5384 45.0362 18.4721C45.0797 18.4059 45.1357 18.3489 45.2011 18.3045C45.2665 18.2601 45.34 18.2291 45.4174 18.2132C45.4947 18.1974 45.5744 18.197 45.6519 18.2121C45.7294 18.2273 45.8033 18.2576 45.8691 18.3014C45.9349 18.3452 45.9915 18.4017 46.0356 18.4675L47.4346 20.5489L48.8336 18.4675C48.8777 18.4017 48.9343 18.3452 49.0001 18.3014C49.0659 18.2576 49.1396 18.2273 49.2171 18.2121C49.2946 18.197 49.3743 18.1974 49.4516 18.2132C49.529 18.2291 49.6025 18.2601 49.6679 18.3045C49.7333 18.3489 49.7894 18.4059 49.8329 18.4721C49.8764 18.5384 49.9065 18.6125 49.9214 18.6904C49.9363 18.7684 49.9358 18.8485 49.9199 18.9262C49.904 19.0039 49.8731 19.0777 49.8288 19.1434L47.9322 21.9661C47.8773 22.048 47.8032 22.1151 47.7164 22.1615C47.6296 22.2079 47.5328 22.2321 47.4346 22.2321Z" fill="black"/>
<path d="M30.0001 29.5048C29.9018 29.5048 29.805 29.4805 29.7183 29.4341C29.6315 29.3878 29.5574 29.3207 29.5024 29.2388L27.6058 26.416C27.5613 26.3504 27.5299 26.2765 27.5138 26.1987C27.4978 26.1209 27.4972 26.0406 27.5121 25.9625C27.5269 25.8844 27.5569 25.8101 27.6004 25.7437C27.6439 25.6773 27.7002 25.6202 27.7657 25.5757C27.8313 25.5312 27.9048 25.5002 27.9823 25.4844C28.0598 25.4686 28.1397 25.4682 28.2173 25.4835C28.2949 25.4988 28.3687 25.5293 28.4346 25.5734C28.5004 25.6174 28.5571 25.6741 28.6011 25.7401L30.0001 27.8215L31.3991 25.7401C31.4431 25.6741 31.4996 25.6174 31.5654 25.5734C31.6313 25.5293 31.7051 25.4988 31.7827 25.4835C31.8603 25.4682 31.9402 25.4686 32.0177 25.4844C32.0952 25.5002 32.1689 25.5312 32.2344 25.5757C32.2999 25.6202 32.3561 25.6773 32.3996 25.7437C32.4431 25.8101 32.4731 25.8844 32.4879 25.9625C32.5028 26.0406 32.5022 26.1209 32.4862 26.1987C32.4701 26.2765 32.4389 26.3504 32.3943 26.416L30.4977 29.2388C30.4428 29.3207 30.3687 29.3878 30.2819 29.4341C30.1951 29.4805 30.0984 29.5048 30.0001 29.5048Z" fill="black"/>
<path d="M12.5654 22.2321C12.4672 22.2321 12.3704 22.2079 12.2836 22.1615C12.1968 22.1151 12.1227 22.048 12.0678 21.9661L10.1712 19.1434C10.1269 19.0777 10.0958 19.0039 10.0799 18.9262C10.064 18.8485 10.0635 18.7684 10.0785 18.6904C10.0934 18.6125 10.1236 18.5384 10.1671 18.4721C10.2106 18.4059 10.2666 18.3489 10.332 18.3045C10.3974 18.2601 10.4709 18.2291 10.5482 18.2132C10.6256 18.1974 10.7053 18.197 10.7828 18.2121C10.8603 18.2273 10.9341 18.2576 10.9999 18.3014C11.0657 18.3452 11.1223 18.4017 11.1664 18.4675L12.5654 20.5489L13.9644 18.4675C14.0085 18.4017 14.0651 18.3452 14.1309 18.3014C14.1968 18.2576 14.2704 18.2273 14.3479 18.2121C14.4254 18.197 14.5051 18.1974 14.5825 18.2132C14.6599 18.2291 14.7333 18.2601 14.7987 18.3045C14.8642 18.3489 14.9203 18.4059 14.9638 18.4721C15.0073 18.5384 15.0373 18.6125 15.0523 18.6904C15.0672 18.7684 15.0667 18.8485 15.0508 18.9262C15.0349 19.0039 15.004 19.0777 14.9597 19.1434L13.0631 21.9661C13.0081 22.048 12.934 22.1151 12.8473 22.1615C12.7605 22.2079 12.6637 22.2321 12.5654 22.2321Z" fill="black"/>
</g>
<defs>
<clipPath id="clip0_313_961">
<rect width="49.6078" height="46" fill="white" transform="translate(5.19604 2)"/>
</clipPath>
</defs>
</svg>
