<svg width="80" height="50" viewBox="0 0 80 50" fill="none" xmlns="http://www.w3.org/2000/svg">
<path d="M64.4066 2.67676H31.1387C29.2548 2.67676 27.7275 4.20398 27.7275 6.0879V24.6254C27.7275 26.5093 29.2548 28.0366 31.1387 28.0366H64.4066C66.2906 28.0366 67.8178 26.5093 67.8178 24.6254V6.0879C67.8178 4.20398 66.2906 2.67676 64.4066 2.67676Z" fill="white"/>
<path d="M64.4069 28.7127H31.1383C30.0547 28.7112 29.0159 28.28 28.2498 27.5136C27.4837 26.7473 27.0529 25.7084 27.0518 24.6248V6.08723C27.0529 5.00371 27.4838 3.96492 28.2499 3.19869C29.0161 2.43246 30.0548 2.00137 31.1383 2H64.4069C65.4907 2.00109 66.5296 2.43202 67.296 3.19827C68.0624 3.96452 68.4936 5.0035 68.4948 6.08723V24.6248C68.4936 25.7086 68.0625 26.7476 67.2961 27.514C66.5298 28.2803 65.4907 28.7114 64.4069 28.7127ZM31.1383 3.35298C30.4135 3.35387 29.7185 3.64224 29.206 4.15485C28.6935 4.66745 28.4054 5.36243 28.4047 6.08727V24.6248C28.4053 25.3498 28.6934 26.0449 29.2059 26.5576C29.7184 27.0703 30.4134 27.3588 31.1383 27.3598H64.4069C65.132 27.3589 65.827 27.0704 66.3397 26.5577C66.8524 26.045 67.141 25.3499 67.1419 24.6248V6.08723C67.1409 5.36225 66.8523 4.66726 66.3396 4.15468C65.8269 3.6421 65.1319 3.35379 64.4069 3.35294L31.1383 3.35298Z" fill="black"/>
<path d="M60.9276 8.24064H42.6814C42.5019 8.24064 42.3298 8.16936 42.2029 8.04249C42.076 7.91563 42.0049 7.74358 42.0049 7.56417C42.0049 7.38475 42.076 7.2127 42.2029 7.08584C42.3298 6.95898 42.5019 6.8877 42.6814 6.8877H60.9276C61.107 6.8877 61.279 6.95898 61.4058 7.08584C61.5327 7.2127 61.604 7.38475 61.604 7.56417C61.604 7.74358 61.5327 7.91563 61.4058 8.04249C61.279 8.16936 61.107 8.24064 60.9276 8.24064Z" fill="black"/>
<path d="M60.9281 13.435H46.5319C46.3525 13.435 46.1804 13.3637 46.0535 13.2368C45.9266 13.11 45.8555 12.9379 45.8555 12.7585C45.8555 12.5791 45.9266 12.407 46.0535 12.2801C46.1804 12.1533 46.3525 12.082 46.5319 12.082H60.9281C61.1075 12.082 61.2795 12.1533 61.4064 12.2801C61.5332 12.407 61.6045 12.5791 61.6045 12.7585C61.6045 12.9379 61.5332 13.11 61.4064 13.2368C61.2795 13.3637 61.1075 13.435 60.9281 13.435Z" fill="black"/>
<path d="M60.9276 18.6293H42.6814C42.5019 18.6293 42.3298 18.558 42.2029 18.4312C42.076 18.3043 42.0049 18.1322 42.0049 17.9528C42.0049 17.7734 42.076 17.6014 42.2029 17.4745C42.3298 17.3476 42.5019 17.2764 42.6814 17.2764H60.9276C61.107 17.2764 61.279 17.3476 61.4058 17.4745C61.5327 17.6014 61.604 17.7734 61.604 17.9528C61.604 18.1322 61.5327 18.3043 61.4058 18.4312C61.279 18.558 61.107 18.6293 60.9276 18.6293Z" fill="black"/>
<path d="M60.9281 23.8236H46.5319C46.3525 23.8236 46.1804 23.7524 46.0535 23.6255C45.9266 23.4986 45.8555 23.3266 45.8555 23.1472C45.8555 22.9678 45.9266 22.7957 46.0535 22.6688C46.1804 22.542 46.3525 22.4707 46.5319 22.4707H60.9281C61.1075 22.4707 61.2795 22.542 61.4064 22.6688C61.5332 22.7957 61.6045 22.9678 61.6045 23.1472C61.6045 23.3266 61.5332 23.4986 61.4064 23.6255C61.2795 23.7524 61.1075 23.8236 60.9281 23.8236Z" fill="black"/>
<path d="M17.5386 12.0635C19.9518 12.0635 21.9082 10.1071 21.9082 7.69384C21.9082 5.28056 19.9518 3.32422 17.5386 3.32422C15.1253 3.32422 13.1689 5.28056 13.1689 7.69384C13.1689 10.1071 15.1253 12.0635 17.5386 12.0635Z" fill="white"/>
<path d="M17.5387 12.7397C16.5407 12.7398 15.5651 12.4439 14.7353 11.8894C13.9054 11.335 13.2584 10.547 12.8764 9.62493C12.4945 8.7029 12.3944 7.68833 12.5891 6.70946C12.7837 5.7306 13.2643 4.83143 13.9699 4.12567C14.6756 3.41991 15.5748 2.93926 16.5536 2.74449C17.5324 2.54972 18.547 2.64958 19.4691 3.03144C20.3911 3.41331 21.1793 4.06001 21.7338 4.8898C22.2883 5.71959 22.5845 6.69518 22.5845 7.6932C22.5831 9.03107 22.051 10.3138 21.1051 11.2598C20.1591 12.2059 18.8766 12.7381 17.5387 12.7397ZM17.5387 4.0004C16.8083 4.00034 16.0941 4.21692 15.4867 4.6227C14.8793 5.02849 14.4059 5.60525 14.1263 6.28011C13.8468 6.95496 13.7736 7.69758 13.9161 8.41402C14.0586 9.13046 14.4103 9.78855 14.9268 10.3051C15.4434 10.8216 16.1016 11.1733 16.818 11.3158C17.5344 11.4583 18.2769 11.3851 18.9518 11.1056C19.6267 10.826 20.2035 10.3526 20.6093 9.7452C21.0151 9.13781 21.2317 8.42371 21.2316 7.69324C21.2304 6.7142 20.841 5.7756 20.1487 5.08332C19.4564 4.39103 18.5178 4.00158 17.5387 4.0004Z" fill="black"/>
<path d="M17.5382 12.0625C18.9586 12.0625 20.3209 12.6268 21.3252 13.6311C22.3296 14.6355 22.8939 15.9977 22.8939 17.4181V33.8745H12.1826V17.4181C12.1826 15.9977 12.7469 14.6355 13.7512 13.6311C14.7556 12.6268 16.1178 12.0625 17.5382 12.0625Z" fill="white"/>
<path d="M22.8936 34.5512H12.1823C12.0935 34.5513 12.0055 34.5338 11.9234 34.4998C11.8413 34.4658 11.7667 34.416 11.7039 34.3532C11.6411 34.2904 11.5912 34.2158 11.5572 34.1337C11.5232 34.0516 11.5058 33.9636 11.5059 33.8747V17.4188C11.5059 15.819 12.1413 14.2847 13.2725 13.1535C14.4037 12.0223 15.9381 11.3867 17.5379 11.3867C19.1378 11.3867 20.672 12.0223 21.8032 13.1535C22.9344 14.2847 23.57 15.819 23.57 17.4188V33.8747C23.5701 33.9636 23.5526 34.0516 23.5187 34.1337C23.4847 34.2158 23.4348 34.2904 23.372 34.3532C23.3092 34.416 23.2346 34.4658 23.1525 34.4998C23.0704 34.5338 22.9824 34.5513 22.8936 34.5512ZM12.8588 33.1983H22.2171V17.4188C22.2171 16.1778 21.7241 14.9877 20.8466 14.1101C19.9691 13.2326 18.7789 12.7397 17.5379 12.7397C16.297 12.7397 15.1068 13.2326 14.2292 14.1101C13.3517 14.9877 12.8588 16.1778 12.8588 17.4188V33.1983Z" fill="black"/>
<path d="M31.2429 16.7197C31.1124 16.7198 30.9846 16.682 30.8751 16.6111C30.7656 16.5402 30.6789 16.4391 30.6256 16.3201C30.5722 16.201 30.5544 16.069 30.5744 15.9401C30.5943 15.8111 30.6513 15.6907 30.7382 15.5934L38.1794 7.24317C38.2382 7.17604 38.3097 7.12124 38.3898 7.0819C38.4699 7.04256 38.5572 7.01947 38.6463 7.01398C38.7354 7.00848 38.8247 7.02066 38.909 7.04986C38.9934 7.07905 39.0711 7.12465 39.1378 7.18405C39.2044 7.24344 39.2585 7.31544 39.2971 7.3959C39.3358 7.47635 39.3583 7.5637 39.363 7.65284C39.3678 7.74198 39.3548 7.83116 39.3249 7.91527C39.295 7.99937 39.2487 8.07675 39.1888 8.14289L31.7476 16.4931C31.6843 16.5644 31.6066 16.6215 31.5195 16.6606C31.4325 16.6997 31.3383 16.7198 31.2429 16.7197Z" fill="black"/>
<path d="M17.1504 18.5987L19.1279 24.1559C19.2648 24.5408 19.4897 24.8884 19.7848 25.1709C20.0798 25.4535 20.4368 25.6632 20.8272 25.7833C21.2176 25.9035 21.6307 25.9307 22.0335 25.863C22.4363 25.7952 22.8179 25.6342 23.1475 25.3929L31.9982 18.9129C32.5562 18.5008 32.9282 17.8844 33.0328 17.1986C33.1373 16.5128 32.9659 15.8136 32.5561 15.2539C32.1463 14.6942 31.5314 14.3197 30.8461 14.2123C30.1608 14.1049 29.4608 14.2734 28.8994 14.6809L22.8935 18.8269L17.1504 18.5987Z" fill="white"/>
<path d="M21.5989 26.5751C20.9179 26.5748 20.2538 26.3638 19.6975 25.9711C19.1411 25.5785 18.7198 25.0234 18.4913 24.3819L16.5148 18.8248C16.485 18.7412 16.4719 18.6525 16.4765 18.5638C16.481 18.4752 16.5029 18.3883 16.541 18.3081C16.5791 18.2279 16.6325 18.156 16.6984 18.0965C16.7643 18.037 16.8414 17.9911 16.925 17.9614C17.0086 17.9316 17.0973 17.9186 17.186 17.9231C17.2746 17.9276 17.3614 17.9495 17.4416 17.9876C17.5218 18.0257 17.5937 18.0792 17.6532 18.1451C17.7127 18.211 17.7587 18.2879 17.7884 18.3716L19.765 23.9287C19.8668 24.2143 20.0339 24.4723 20.253 24.6819C20.4722 24.8915 20.7372 25.0471 21.0271 25.1362C21.317 25.2252 21.6239 25.2453 21.9229 25.1949C22.2219 25.1444 22.505 25.0248 22.7497 24.8456L31.5993 18.3663C32.0143 18.0607 32.2912 17.603 32.3692 17.0936C32.4472 16.5841 32.32 16.0645 32.0155 15.6488C31.7109 15.233 31.2538 14.9549 30.7446 14.8756C30.2354 14.7963 29.7156 14.9222 29.299 15.2257L23.2782 19.383C23.1304 19.4846 22.9484 19.5234 22.7721 19.4909C22.5958 19.4585 22.4395 19.3574 22.3376 19.2099C22.2357 19.0624 22.1966 18.8804 22.2288 18.7041C22.2609 18.5277 22.3618 18.3713 22.5092 18.2692L28.5155 14.1231C29.223 13.6108 30.1048 13.4 30.9676 13.5369C31.8303 13.6738 32.6036 14.1474 33.1177 14.8536C33.6318 15.5599 33.8447 16.4412 33.7099 17.3043C33.5751 18.1673 33.1036 18.9418 32.3986 19.4576L23.5477 25.9376C22.9829 26.3529 22.2999 26.5764 21.5989 26.5751Z" fill="black"/>
<path d="M67.8171 47.3232V47.3127C67.8165 45.7594 67.2727 44.2552 66.2798 43.0608C65.2869 41.8663 63.9074 41.0568 62.3804 40.7724C63.1706 40.3397 63.7943 39.6563 64.1531 38.8299C64.512 38.0035 64.5855 37.0812 64.3622 36.2084C64.1389 35.3357 63.6314 34.5621 62.9198 34.0096C62.2082 33.4571 61.3328 33.1572 60.4319 33.1572C59.531 33.1572 58.6558 33.4571 57.9442 34.0096C57.2326 34.5621 56.725 35.3357 56.5017 36.2084C56.2784 37.0812 56.352 38.0035 56.7108 38.8299C57.0696 39.6563 57.6934 40.3397 58.4836 40.7724C56.9566 41.0568 55.5772 41.8664 54.5843 43.0608C53.5914 44.2553 53.0475 45.7594 53.0469 47.3127V47.3232H67.8171Z" fill="white"/>
<path d="M67.8176 47.9997H53.0476C52.9587 47.9997 52.8707 47.9822 52.7886 47.9483C52.7065 47.9143 52.6319 47.8645 52.5691 47.8016C52.5063 47.7388 52.4564 47.6642 52.4225 47.5821C52.3885 47.5 52.371 47.412 52.3711 47.3232C52.3697 45.8494 52.8123 44.4094 53.6411 43.1907C54.47 41.9721 55.6467 41.0314 57.0179 40.4911C56.3749 39.8217 55.9428 38.9781 55.7754 38.0651C55.6081 37.1521 55.7128 36.21 56.0767 35.3561C56.4405 34.5022 57.0473 33.774 57.8217 33.2622C58.596 32.7504 59.5037 32.4775 60.4319 32.4775C61.3601 32.4775 62.2678 32.7504 63.0422 33.2622C63.8165 33.774 64.4234 34.5022 64.7872 35.3561C65.151 36.21 65.2556 37.1521 65.0883 38.0651C64.9209 38.9781 64.489 39.8217 63.846 40.4911C65.2163 41.0298 66.3925 41.9686 67.2216 43.1853C68.0506 44.4021 68.4941 45.8403 68.4941 47.3126C68.4946 47.4932 68.4237 47.6666 68.2971 47.7953C68.1704 47.9239 67.9981 47.9974 67.8176 47.9997ZM53.761 46.6467H67.1041C66.9615 45.3737 66.4134 44.1802 65.5408 43.2423C64.6682 42.3044 63.5173 41.6718 62.2579 41.4378C62.1209 41.4123 61.9951 41.3452 61.8977 41.2456C61.8003 41.1459 61.7359 41.0187 61.7135 40.8812C61.6911 40.7436 61.7117 40.6026 61.7725 40.4772C61.8333 40.3518 61.9313 40.2482 62.0531 40.1806C62.7118 39.8205 63.232 39.2513 63.5314 38.5628C63.8308 37.8744 63.8924 37.1058 63.7066 36.3784C63.5208 35.651 63.0979 35.0062 62.5049 34.5457C61.912 34.0852 61.1827 33.8353 60.4319 33.8353C59.6812 33.8353 58.9519 34.0852 58.3589 34.5457C57.766 35.0062 57.3433 35.651 57.1574 36.3784C56.9716 37.1058 57.0331 37.8744 57.3325 38.5628C57.6319 39.2513 58.152 39.8205 58.8108 40.1806C58.9326 40.2482 59.0306 40.3518 59.0914 40.4772C59.1521 40.6026 59.1727 40.7436 59.1503 40.8812C59.1279 41.0187 59.0636 41.1459 58.9662 41.2456C58.8688 41.3452 58.743 41.4123 58.606 41.4378C57.3467 41.6719 56.1961 42.3046 55.3237 43.2425C54.4514 44.1804 53.9035 45.3738 53.761 46.6467Z" fill="black"/>
<path d="M38.2772 47.3233V47.3127C38.2766 45.7594 37.7327 44.2553 36.7398 43.0608C35.7469 41.8663 34.3675 41.0568 32.8405 40.7724C33.6307 40.3397 34.2543 39.6563 34.6131 38.8299C34.9719 38.0036 35.0455 37.0813 34.8222 36.2085C34.5989 35.3357 34.0915 34.5621 33.3799 34.0096C32.6683 33.4571 31.7929 33.1572 30.892 33.1572C29.9911 33.1572 29.1158 33.4571 28.4041 34.0096C27.6925 34.5621 27.1852 35.3357 26.9619 36.2085C26.7385 37.0813 26.8121 38.0036 27.1709 38.8299C27.5298 39.6563 28.1533 40.3397 28.9435 40.7724C27.4166 41.0569 26.0372 41.8664 25.0443 43.0609C24.0514 44.2554 23.5075 45.7594 23.5068 47.3127V47.3233H38.2772Z" fill="white"/>
<path d="M38.2766 47.9997H23.5066C23.4177 47.9997 23.3297 47.9823 23.2476 47.9483C23.1655 47.9143 23.0909 47.8645 23.0281 47.8017C22.9653 47.7388 22.9154 47.6642 22.8814 47.5821C22.8475 47.5 22.83 47.4121 22.8301 47.3232C22.8287 45.8492 23.2713 44.4091 24.1004 43.1904C24.9295 41.9717 26.1067 41.0311 27.4782 40.4911C26.8352 39.8218 26.4031 38.9783 26.2357 38.0654C26.0684 37.1525 26.1731 36.2106 26.5368 35.3568C26.9005 34.5029 27.5072 33.7748 28.2815 33.2631C29.0557 32.7513 29.9635 32.4785 30.8916 32.4785C31.8197 32.4785 32.7272 32.7513 33.5015 33.2631C34.2758 33.7748 34.8824 34.5029 35.2462 35.3568C35.6099 36.2106 35.7146 37.1525 35.5473 38.0654C35.3799 38.9783 34.948 39.8218 34.305 40.4911C35.6752 41.0298 36.8515 41.9686 37.6806 43.1854C38.5096 44.4021 38.9531 45.8403 38.9531 47.3126C38.9536 47.4932 38.8827 47.6667 38.756 47.7953C38.6294 47.924 38.4571 47.9974 38.2766 47.9997ZM24.22 46.6467H37.5631C37.4205 45.3737 36.8724 44.1802 35.9998 43.2423C35.1272 42.3044 33.9763 41.6718 32.7169 41.4378C32.5799 41.4123 32.4541 41.3452 32.3567 41.2456C32.2592 41.146 32.1949 41.0187 32.1725 40.8812C32.1501 40.7437 32.1707 40.6026 32.2315 40.4772C32.2922 40.3518 32.3902 40.2483 32.5121 40.1806C33.1711 39.8206 33.6915 39.2514 33.9912 38.5628C34.2908 37.8742 34.3527 37.1054 34.1669 36.3777C33.9811 35.6501 33.5583 35.005 32.9652 34.5443C32.3722 34.0836 31.6426 33.8335 30.8916 33.8335C30.1406 33.8335 29.411 34.0836 28.8179 34.5443C28.2248 35.005 27.802 35.6501 27.6162 36.3777C27.4305 37.1054 27.4923 37.8742 27.792 38.5628C28.0916 39.2514 28.612 39.8206 29.2711 40.1806C29.3929 40.2483 29.4909 40.3518 29.5517 40.4772C29.6124 40.6026 29.633 40.7437 29.6106 40.8812C29.5882 41.0187 29.5239 41.146 29.4265 41.2456C29.3291 41.3452 29.2033 41.4123 29.0663 41.4378C27.8068 41.6718 26.656 42.3044 25.7834 43.2423C24.9108 44.1801 24.3627 45.3737 24.22 46.6467Z" fill="black"/>
<path d="M53.0476 47.3232V47.3127C53.047 45.7594 52.5031 44.2552 51.5101 43.0608C50.5172 41.8663 49.1379 41.0568 47.6109 40.7724C48.401 40.3397 49.0248 39.6563 49.3836 38.8299C49.7424 38.0035 49.816 37.0812 49.5927 36.2084C49.3694 35.3357 48.8619 34.562 48.1502 34.0095C47.4386 33.4571 46.5633 33.1572 45.6624 33.1572C44.7615 33.1572 43.8863 33.4571 43.1747 34.0095C42.463 34.562 41.9555 35.3357 41.7322 36.2084C41.5089 37.0812 41.5825 38.0035 41.9413 38.8299C42.3001 39.6563 42.9237 40.3397 43.7139 40.7724C42.1869 41.0568 40.8075 41.8664 39.8146 43.0608C38.8217 44.2553 38.278 45.7594 38.2773 47.3127V47.3232H53.0476Z" fill="white"/>
<path d="M53.0484 47.9993H38.2771C38.1882 47.9994 38.1002 47.9819 38.0181 47.9479C37.936 47.9139 37.8614 47.8641 37.7986 47.8013C37.7358 47.7385 37.6859 47.6639 37.652 47.5818C37.618 47.4997 37.6005 47.4117 37.6006 47.3229C37.5992 45.8489 38.0418 44.4087 38.871 43.19C39.7001 41.9714 40.8772 41.0307 42.2487 40.4908C41.6061 39.8215 41.1745 38.9781 41.0074 38.0654C40.8403 37.1527 40.9452 36.2111 41.309 35.3576C41.6727 34.504 42.2794 33.7763 43.0535 33.2647C43.8276 32.7532 44.7349 32.4805 45.6627 32.4805C46.5906 32.4805 47.4978 32.7532 48.2718 33.2647C49.0459 33.7763 49.6526 34.504 50.0164 35.3576C50.3801 36.2111 50.485 37.1527 50.3179 38.0654C50.1509 38.9781 49.7194 39.8215 49.0768 40.4908C50.4471 41.0294 51.6233 41.9683 52.4524 43.185C53.2815 44.4017 53.7249 45.8399 53.7249 47.3123C53.7254 47.4928 53.6545 47.6663 53.5279 47.7949C53.4012 47.9236 53.2289 47.997 53.0484 47.9993ZM38.9905 46.6464H52.335C52.1923 45.3733 51.6442 44.1798 50.7716 43.2419C49.899 42.3041 48.7482 41.6714 47.4887 41.4374C47.3517 41.412 47.2259 41.3448 47.1285 41.2452C47.0311 41.1456 46.9667 41.0183 46.9443 40.8808C46.9219 40.7433 46.9425 40.6022 47.0033 40.4769C47.0641 40.3515 47.1621 40.2479 47.2839 40.1803C47.943 39.8201 48.4635 39.2508 48.7632 38.562C49.0628 37.8733 49.1246 37.1044 48.9387 36.3766C48.7529 35.6489 48.3299 35.0037 47.7367 34.543C47.1436 34.0822 46.4139 33.8321 45.6627 33.8321C44.9116 33.8321 44.1819 34.0822 43.5887 34.543C42.9955 35.0037 42.5726 35.6489 42.3868 36.3766C42.2009 37.1044 42.2627 37.8733 42.5623 38.562C42.862 39.2508 43.3825 39.8201 44.0416 40.1803C44.1634 40.2479 44.2614 40.3515 44.3222 40.4769C44.383 40.6022 44.4036 40.7433 44.3811 40.8809C44.3587 41.0184 44.2944 41.1456 44.197 41.2452C44.0996 41.3448 43.9738 41.412 43.8368 41.4374C42.5773 41.6714 41.4263 42.304 40.5537 43.2419C39.6811 44.1798 39.1332 45.3733 38.9905 46.6464Z" fill="black"/>
</svg>
