<svg width="70" height="50" viewBox="0 0 70 50" fill="none" xmlns="http://www.w3.org/2000/svg">
<path d="M56.086 11.4388H13.9144C11.9715 11.4388 10.3965 13.0138 10.3965 14.9567V43.8079C10.3965 45.7508 11.9715 47.3259 13.9144 47.3259H56.086C58.0289 47.3259 59.6039 45.7508 59.6039 43.8079V14.9567C59.6039 13.0138 58.0289 11.4388 56.086 11.4388Z" fill="white"/>
<path d="M56.086 48H13.9138C12.8025 47.9987 11.737 47.5567 10.9513 46.7708C10.1655 45.9849 9.72374 44.9195 9.72266 43.8082V14.9564C9.72374 13.8451 10.1655 12.7797 10.9513 11.9938C11.737 11.2079 12.8025 10.7659 13.9138 10.7646H56.086C57.1973 10.7659 58.2627 11.2079 59.0484 11.9938C59.8342 12.7797 60.2761 13.8451 60.2772 14.9564V43.8082C60.2761 44.9195 59.8342 45.9849 59.0484 46.7708C58.2627 47.5567 57.1973 47.9987 56.086 48ZM13.9138 12.1125C13.1599 12.1134 12.4372 12.4133 11.9041 12.9465C11.3711 13.4797 11.0713 14.2025 11.0706 14.9564V43.8082C11.0713 44.5621 11.3711 45.2849 11.9041 45.818C12.4372 46.3512 13.1599 46.6512 13.9138 46.6521H56.086C56.84 46.6512 57.5627 46.3512 58.0957 45.818C58.6288 45.2849 58.9286 44.5621 58.9293 43.8082V14.9564C58.9286 14.2025 58.6288 13.4797 58.0957 12.9465C57.5627 12.4133 56.84 12.1134 56.086 12.1125H13.9138Z" fill="black"/>
<path d="M56.086 7.14633H13.9144C11.9715 7.14633 10.3965 8.72137 10.3965 10.6643V39.5155C10.3965 41.4584 11.9715 43.0334 13.9144 43.0334H56.086C58.0289 43.0334 59.6039 41.4584 59.6039 39.5155V10.6643C59.6039 8.72137 58.0289 7.14633 56.086 7.14633Z" fill="white"/>
<path d="M56.086 43.7076H13.9138C12.8025 43.7063 11.737 43.2643 10.9513 42.4784C10.1655 41.6925 9.72374 40.6271 9.72266 39.5158V10.6646C9.72371 9.55325 10.1655 8.48772 10.9513 7.70174C11.737 6.91577 12.8025 6.47354 13.9138 6.47214H56.086C57.1974 6.47354 58.2628 6.91577 59.0486 7.70174C59.8343 8.48772 60.2761 9.55325 60.2772 10.6646V39.5157C60.2761 40.627 59.8342 41.6925 59.0484 42.4784C58.2627 43.2643 57.1973 43.7063 56.086 43.7076ZM13.9138 7.82013C13.1598 7.82118 12.437 8.12124 11.904 8.65451C11.3709 9.18778 11.0713 9.91072 11.0706 10.6647V39.5158C11.0713 40.2697 11.3711 40.9925 11.9041 41.5256C12.4372 42.0588 13.1599 42.3588 13.9138 42.3597H56.086C56.84 42.3588 57.5627 42.0588 58.0957 41.5256C58.6288 40.9925 58.9286 40.2697 58.9293 39.5158V10.6646C58.9286 9.91063 58.6288 9.1877 58.0957 8.65443C57.5627 8.12116 56.84 7.8211 56.086 7.82005L13.9138 7.82013Z" fill="black"/>
<path d="M59.6036 15.822H10.755C10.5763 15.822 10.4047 15.7511 10.2783 15.6247C10.1519 15.4983 10.0811 15.3268 10.0811 15.1481C10.0811 14.9693 10.1519 14.798 10.2783 14.6716C10.4047 14.5452 10.5763 14.4741 10.755 14.4741H59.6036C59.7824 14.4741 59.9537 14.5452 60.0801 14.6716C60.2065 14.798 60.2776 14.9693 60.2776 15.1481C60.2776 15.3268 60.2065 15.4983 60.0801 15.6247C59.9537 15.7511 59.7824 15.822 59.6036 15.822Z" fill="black"/>
<path d="M21.1287 4.39297C21.1287 3.44351 20.359 2.67383 19.4096 2.67383C18.4601 2.67383 17.6904 3.44351 17.6904 4.39297V9.90006C17.6904 10.8495 18.4601 11.6192 19.4096 11.6192C20.359 11.6192 21.1287 10.8495 21.1287 9.90006V4.39297Z" fill="white"/>
<path d="M19.4097 12.293C18.7752 12.2922 18.167 12.0398 17.7184 11.5912C17.2698 11.1425 17.0174 10.5344 17.0166 9.89993V4.39319C17.0166 3.75851 17.2688 3.14977 17.7175 2.70098C18.1663 2.25219 18.775 2.00012 19.4097 2.00012C20.0443 2.00012 20.653 2.25219 21.1018 2.70098C21.5506 3.14977 21.8027 3.75851 21.8027 4.39319V9.90001C21.8019 10.5344 21.5494 11.1426 21.1008 11.5912C20.6522 12.0398 20.0441 12.2922 19.4097 12.293ZM19.4097 3.34795C19.1325 3.34817 18.8668 3.45837 18.6709 3.65432C18.4749 3.85028 18.3647 4.11598 18.3645 4.39311V9.89993C18.3645 10.1771 18.4746 10.443 18.6706 10.639C18.8666 10.835 19.1325 10.9451 19.4097 10.9451C19.6869 10.9451 19.9526 10.835 20.1486 10.639C20.3446 10.443 20.4548 10.1771 20.4548 9.89993V4.39319C20.4546 4.11606 20.3444 3.85029 20.1485 3.65432C19.9525 3.45836 19.6868 3.34817 19.4097 3.34795Z" fill="black"/>
<path d="M52.3094 4.39297C52.3094 3.44351 51.5397 2.67383 50.5902 2.67383C49.6408 2.67383 48.8711 3.44351 48.8711 4.39297V9.90006C48.8711 10.8495 49.6408 11.6192 50.5902 11.6192C51.5397 11.6192 52.3094 10.8495 52.3094 9.90006V4.39297Z" fill="white"/>
<path d="M50.5903 12.293C49.9559 12.2922 49.3476 12.0398 48.899 11.5912C48.4504 11.1426 48.1981 10.5344 48.1973 9.89993V4.39319C48.1973 3.75851 48.4494 3.14977 48.8982 2.70098C49.347 2.25219 49.9557 2.00012 50.5903 2.00012C51.225 2.00012 51.8337 2.25219 52.2825 2.70098C52.7312 3.14977 52.9834 3.75851 52.9834 4.39319V9.90001C52.9826 10.5344 52.7301 11.1426 52.2815 11.5912C51.8329 12.0398 51.2248 12.2922 50.5903 12.293ZM50.5903 3.34795C50.3132 3.34817 50.0475 3.45837 49.8515 3.65432C49.6556 3.85028 49.5454 4.11598 49.5452 4.39311V9.89993C49.5452 10.1771 49.6552 10.443 49.8512 10.639C50.0472 10.835 50.3131 10.9451 50.5903 10.9451C50.8675 10.9451 51.1333 10.835 51.3293 10.639C51.5253 10.443 51.6355 10.1771 51.6355 9.89993V4.39319C51.6353 4.11606 51.5251 3.85029 51.3291 3.65432C51.1332 3.45836 50.8675 3.34817 50.5903 3.34795Z" fill="black"/>
<path d="M36.7185 4.39297C36.7185 3.44351 35.9489 2.67383 34.9994 2.67383C34.05 2.67383 33.2803 3.44351 33.2803 4.39297V9.90006C33.2803 10.8495 34.05 11.6192 34.9994 11.6192C35.9489 11.6192 36.7185 10.8495 36.7185 9.90006V4.39297Z" fill="white"/>
<path d="M34.9995 12.293C34.3651 12.2922 33.7568 12.0398 33.3082 11.5912C32.8596 11.1426 32.6073 10.5344 32.6064 9.89993V4.39319C32.6064 3.75851 32.8586 3.14977 33.3074 2.70098C33.7562 2.25219 34.3648 2.00012 34.9995 2.00012C35.6342 2.00012 36.2429 2.25219 36.6916 2.70098C37.1404 3.14977 37.3926 3.75851 37.3926 4.39319V9.90001C37.3918 10.5344 37.1393 11.1426 36.6907 11.5912C36.242 12.0398 35.6339 12.2922 34.9995 12.293ZM34.9995 3.34795C34.7224 3.34817 34.4567 3.45837 34.2607 3.65432C34.0648 3.85028 33.9546 4.11598 33.9544 4.39311V9.89993C33.9544 10.1771 34.0644 10.443 34.2604 10.639C34.4564 10.835 34.7223 10.9451 34.9995 10.9451C35.2767 10.9451 35.5425 10.835 35.7385 10.639C35.9345 10.443 36.0447 10.1771 36.0447 9.89993V4.39319C36.0445 4.11606 35.9343 3.85029 35.7383 3.65432C35.5423 3.45836 35.2766 3.34817 34.9995 3.34795Z" fill="black"/>
<path d="M35.958 20.9194L37.7745 24.794C37.8503 24.9558 37.9659 25.0957 38.1105 25.2008C38.255 25.3058 38.4239 25.3725 38.6013 25.3946L42.8474 25.9249C43.0469 25.9498 43.2352 26.0311 43.3902 26.1591C43.5452 26.2872 43.6605 26.4566 43.7226 26.6478C43.7847 26.839 43.791 27.0439 43.7409 27.2386C43.6907 27.4333 43.5861 27.6096 43.4394 27.747L40.316 30.6719C40.1855 30.794 40.088 30.9473 40.0328 31.1173C39.9776 31.2873 39.9663 31.4684 40 31.6439L40.8079 35.8462C40.8459 36.0436 40.8268 36.2478 40.753 36.4347C40.6791 36.6217 40.5535 36.7837 40.3908 36.9019C40.2282 37.02 40.0353 37.0894 39.8347 37.1019C39.634 37.1143 39.434 37.0694 39.258 36.9723L35.5111 34.9055C35.3546 34.8192 35.1787 34.7739 35 34.7739C34.8213 34.7739 34.6454 34.8192 34.4889 34.9055L30.742 36.9723C30.566 37.0694 30.366 37.1143 30.1653 37.1019C29.9647 37.0894 29.7718 37.02 29.6092 36.9019C29.4465 36.7837 29.3209 36.6217 29.247 36.4347C29.1732 36.2478 29.1541 36.0436 29.1921 35.8462L29.9998 31.6439C30.0335 31.4684 30.0223 31.2873 29.9671 31.1173C29.9118 30.9473 29.8145 30.794 29.684 30.6719L26.5604 27.747C26.4137 27.6096 26.3091 27.4333 26.259 27.2386C26.2088 27.0439 26.2153 26.839 26.2774 26.6478C26.3395 26.4566 26.4548 26.2871 26.6098 26.1591C26.7648 26.031 26.953 25.9498 27.1524 25.9249L31.3987 25.3946C31.5761 25.3725 31.745 25.3058 31.8895 25.2008C32.0341 25.0957 32.1497 24.9558 32.2255 24.794L34.042 20.9194C34.1274 20.7374 34.2628 20.5834 34.4325 20.4756C34.6022 20.3678 34.799 20.3105 35 20.3105C35.201 20.3105 35.3978 20.3678 35.5675 20.4756C35.7372 20.5834 35.8726 20.7374 35.958 20.9194Z" fill="#569FD6"/>
</svg>
