<svg width="60" height="50" viewBox="0 0 60 50" fill="none" xmlns="http://www.w3.org/2000/svg">
<path d="M51.0857 11.4388H8.91419C6.97128 11.4388 5.39624 13.0139 5.39624 14.9568V43.808C5.39624 45.7509 6.97128 47.3259 8.91419 47.3259H51.0857C53.0286 47.3259 54.6037 45.7509 54.6037 43.808V14.9568C54.6037 13.0139 53.0286 11.4388 51.0857 11.4388Z" fill="white"/>
<path d="M51.0862 48H8.91394C7.80265 47.9988 6.73714 47.5567 5.9514 46.7708C5.16566 45.985 4.72386 44.9195 4.72278 43.8082V14.9565C4.72386 13.8452 5.16566 12.7797 5.9514 11.9938C6.73714 11.208 7.80265 10.7659 8.91394 10.7646H51.0862C52.1975 10.7659 53.2628 11.208 54.0485 11.9938C54.8343 12.7797 55.2762 13.8452 55.2773 14.9565V43.8082C55.2762 44.9195 54.8343 45.985 54.0485 46.7708C53.2628 47.5567 52.1975 47.9988 51.0862 48ZM8.91394 12.1126C8.16003 12.1135 7.43728 12.4134 6.90425 12.9465C6.37121 13.4797 6.07142 14.2026 6.07069 14.9565V43.8082C6.07142 44.5621 6.37121 45.2849 6.90425 45.8181C7.43728 46.3512 8.16003 46.6512 8.91394 46.6521H51.0862C51.8401 46.6512 52.5628 46.3512 53.0959 45.8181C53.6289 45.2849 53.9287 44.5621 53.9294 43.8082V14.9565C53.9287 14.2026 53.6289 13.4797 53.0959 12.9465C52.5628 12.4134 51.8401 12.1135 51.0862 12.1126H8.91394Z" fill="black"/>
<path d="M51.0857 7.14636H8.91419C6.97128 7.14636 5.39624 8.7214 5.39624 10.6643V39.5155C5.39624 41.4584 6.97128 43.0334 8.91419 43.0334H51.0857C53.0286 43.0334 54.6037 41.4584 54.6037 39.5155V10.6643C54.6037 8.7214 53.0286 7.14636 51.0857 7.14636Z" fill="white"/>
<path d="M51.0862 43.7076H8.91394C7.80265 43.7064 6.73714 43.2643 5.9514 42.4784C5.16566 41.6926 4.72386 40.6271 4.72278 39.5158V10.6646C4.72383 9.55328 5.16567 8.48775 5.9514 7.70177C6.73712 6.9158 7.80258 6.47357 8.91394 6.47217H51.0862C52.1975 6.47357 53.263 6.9158 54.0487 7.70177C54.8344 8.48775 55.2763 9.55328 55.2773 10.6646V39.5157C55.2763 40.627 54.8343 41.6926 54.0485 42.4784C53.2628 43.2643 52.1975 43.7064 51.0862 43.7076ZM8.91394 7.82016C8.15996 7.82121 7.4371 8.12127 6.90408 8.65454C6.37106 9.18781 6.07139 9.91075 6.07069 10.6647V39.5158C6.07142 40.2697 6.37121 40.9925 6.90425 41.5257C7.43728 42.0588 8.16003 42.3588 8.91394 42.3597H51.0862C51.8401 42.3588 52.5628 42.0588 53.0959 41.5257C53.6289 40.9925 53.9287 40.2697 53.9294 39.5158V10.6646C53.9287 9.91066 53.6289 9.18773 53.0959 8.65446C52.5628 8.12119 51.8401 7.82113 51.0862 7.82008L8.91394 7.82016Z" fill="black"/>
<path d="M54.6034 15.822H5.75477C5.57602 15.822 5.40448 15.7511 5.27809 15.6247C5.1517 15.4983 5.08081 15.3268 5.08081 15.1481C5.08081 14.9693 5.1517 14.798 5.27809 14.6716C5.40448 14.5452 5.57602 14.4741 5.75477 14.4741H54.6034C54.7821 14.4741 54.9535 14.5452 55.0799 14.6716C55.2063 14.798 55.2773 14.9693 55.2773 15.1481C55.2773 15.3268 55.2063 15.4983 55.0799 15.6247C54.9535 15.7511 54.7821 15.822 54.6034 15.822Z" fill="black"/>
<path d="M16.1282 4.39297C16.1282 3.44351 15.3585 2.67383 14.4091 2.67383C13.4596 2.67383 12.6899 3.44351 12.6899 4.39297V9.90006C12.6899 10.8495 13.4596 11.6192 14.4091 11.6192C15.3585 11.6192 16.1282 10.8495 16.1282 9.90006V4.39297Z" fill="white"/>
<path d="M14.4095 12.293C13.7751 12.2922 13.1669 12.0398 12.7182 11.5912C12.2696 11.1425 12.0173 10.5344 12.0165 9.89993V4.39319C12.0165 3.75851 12.2686 3.14977 12.7174 2.70098C13.1662 2.25219 13.7749 2.00012 14.4095 2.00012C15.0442 2.00012 15.6529 2.25219 16.1017 2.70098C16.5505 3.14977 16.8026 3.75851 16.8026 4.39319V9.90001C16.8018 10.5344 16.5493 11.1426 16.1007 11.5912C15.6521 12.0398 15.044 12.2922 14.4095 12.293ZM14.4095 3.34795C14.1324 3.34817 13.8667 3.45837 13.6708 3.65432C13.4748 3.85028 13.3646 4.11598 13.3644 4.39311V9.89993C13.3644 10.1771 13.4744 10.443 13.6704 10.639C13.8664 10.835 14.1324 10.9451 14.4095 10.9451C14.6867 10.9451 14.9525 10.835 15.1485 10.639C15.3445 10.443 15.4547 10.1771 15.4547 9.89993V4.39319C15.4545 4.11606 15.3443 3.85029 15.1483 3.65432C14.9524 3.45836 14.6867 3.34817 14.4095 3.34795Z" fill="black"/>
<path d="M47.3101 4.39297C47.3101 3.44351 46.5404 2.67383 45.591 2.67383C44.6415 2.67383 43.8718 3.44351 43.8718 4.39297V9.90006C43.8718 10.8495 44.6415 11.6192 45.591 11.6192C46.5404 11.6192 47.3101 10.8495 47.3101 9.90006V4.39297Z" fill="white"/>
<path d="M45.5906 12.293C44.9561 12.2922 44.3479 12.0398 43.8993 11.5912C43.4507 11.1426 43.1983 10.5344 43.1975 9.89993V4.39319C43.1975 3.75851 43.4497 3.14977 43.8984 2.70098C44.3472 2.25219 44.9559 2.00012 45.5906 2.00012C46.2253 2.00012 46.8339 2.25219 47.2827 2.70098C47.7315 3.14977 47.9836 3.75851 47.9836 4.39319V9.90001C47.9828 10.5344 47.7303 11.1426 47.2817 11.5912C46.8331 12.0398 46.225 12.2922 45.5906 12.293ZM45.5906 3.34795C45.3135 3.34817 45.0478 3.45837 44.8518 3.65432C44.6558 3.85028 44.5456 4.11598 44.5454 4.39311V9.89993C44.5454 10.1771 44.6555 10.443 44.8515 10.639C45.0475 10.835 45.3134 10.9451 45.5906 10.9451C45.8678 10.9451 46.1335 10.835 46.3295 10.639C46.5255 10.443 46.6357 10.1771 46.6357 9.89993V4.39319C46.6355 4.11606 46.5253 3.85029 46.3294 3.65432C46.1334 3.45836 45.8677 3.34817 45.5906 3.34795Z" fill="black"/>
<path d="M31.7193 4.39297C31.7193 3.44351 30.9496 2.67383 30.0001 2.67383C29.0507 2.67383 28.281 3.44351 28.281 4.39297V9.90006C28.281 10.8495 29.0507 11.6192 30.0001 11.6192C30.9496 11.6192 31.7193 10.8495 31.7193 9.90006V4.39297Z" fill="white"/>
<path d="M30.0001 12.293C29.3657 12.2922 28.7574 12.0398 28.3088 11.5912C27.8602 11.1426 27.6079 10.5344 27.6071 9.89993V4.39319C27.6071 3.75851 27.8592 3.14977 28.308 2.70098C28.7568 2.25219 29.3654 2.00012 30.0001 2.00012C30.6348 2.00012 31.2435 2.25219 31.6923 2.70098C32.141 3.14977 32.3932 3.75851 32.3932 4.39319V9.90001C32.3924 10.5344 32.1399 11.1426 31.6913 11.5912C31.2427 12.0398 30.6345 12.2922 30.0001 12.293ZM30.0001 3.34795C29.723 3.34817 29.4573 3.45837 29.2613 3.65432C29.0654 3.85028 28.9552 4.11598 28.955 4.39311V9.89993C28.955 10.1771 29.065 10.443 29.261 10.639C29.457 10.835 29.7229 10.9451 30.0001 10.9451C30.2773 10.9451 30.5431 10.835 30.7391 10.639C30.9351 10.443 31.0453 10.1771 31.0453 9.89993V4.39319C31.0451 4.11606 30.9349 3.85029 30.7389 3.65432C30.5429 3.45836 30.2773 3.34817 30.0001 3.34795Z" fill="black"/>
<path d="M30.9581 20.9194L32.7746 24.794C32.8505 24.9558 32.966 25.0958 33.1106 25.2008C33.2552 25.3059 33.4241 25.3725 33.6014 25.3947L37.8475 25.925C38.047 25.9499 38.2354 26.0312 38.3903 26.1592C38.5453 26.2872 38.6606 26.4567 38.7227 26.6479C38.7848 26.8391 38.7911 27.044 38.741 27.2387C38.6908 27.4333 38.5863 27.6097 38.4395 27.7471L35.3161 30.672C35.1856 30.7941 35.0881 30.9474 35.0329 31.1174C34.9777 31.2873 34.9664 31.4685 35.0002 31.644L35.808 35.8462C35.846 36.0436 35.827 36.2478 35.7531 36.4348C35.6792 36.6218 35.5536 36.7838 35.3909 36.9019C35.2283 37.0201 35.0354 37.0894 34.8348 37.1019C34.6342 37.1144 34.4341 37.0694 34.2581 36.9723L30.5112 34.9056C30.3547 34.8192 30.1788 34.7739 30.0001 34.7739C29.8214 34.7739 29.6456 34.8192 29.4891 34.9056L25.7422 36.9723C25.5661 37.0694 25.3661 37.1144 25.1654 37.1019C24.9648 37.0894 24.7719 37.0201 24.6093 36.9019C24.4467 36.7838 24.321 36.6218 24.2471 36.4348C24.1733 36.2478 24.1542 36.0436 24.1922 35.8462L24.9999 31.644C25.0337 31.4685 25.0224 31.2873 24.9672 31.1174C24.9119 30.9474 24.8146 30.7941 24.6842 30.672L21.5605 27.7471C21.4138 27.6097 21.3092 27.4333 21.2591 27.2387C21.209 27.044 21.2154 26.8391 21.2775 26.6479C21.3397 26.4567 21.4549 26.2871 21.6099 26.1591C21.7649 26.0311 21.9531 25.9499 22.1526 25.925L26.3988 25.3947C26.5762 25.3725 26.7451 25.3059 26.8897 25.2008C27.0342 25.0958 27.1498 24.9558 27.2256 24.794L29.0422 20.9194C29.1275 20.7374 29.263 20.5835 29.4326 20.4757C29.6023 20.3678 29.7991 20.3105 30.0001 20.3105C30.2011 20.3105 30.398 20.3678 30.5676 20.4757C30.7373 20.5835 30.8727 20.7374 30.9581 20.9194Z" fill="#FFC47A"/>
<path d="M25.2298 37.7809C24.9748 37.7797 24.7231 37.7225 24.4927 37.6132C24.2622 37.5039 24.0587 37.3452 23.8965 37.1484C23.7343 36.9516 23.6174 36.7215 23.5541 36.4744C23.4909 36.2274 23.4828 35.9694 23.5304 35.7188L24.3373 31.5172C24.3503 31.4537 24.3466 31.388 24.3268 31.3263C24.307 31.2646 24.2716 31.2091 24.2241 31.165L21.1005 28.2389C20.8601 28.0142 20.6887 27.7256 20.6064 27.4069C20.5241 27.0883 20.5343 26.7529 20.6358 26.4399C20.7374 26.1269 20.926 25.8493 21.1797 25.6396C21.4333 25.43 21.7415 25.2969 22.068 25.2561L26.3158 24.7263C26.38 24.7183 26.441 24.6942 26.4933 24.6561C26.5456 24.618 26.5874 24.5671 26.6146 24.5084L28.4311 20.6332C28.571 20.3353 28.7928 20.0834 29.0707 19.9069C29.3485 19.7304 29.671 19.6367 30.0001 19.6367C30.3293 19.6367 30.6516 19.7304 30.9295 19.9069C31.2073 20.0834 31.4292 20.3353 31.5692 20.6332L33.3857 24.5078C33.4129 24.5668 33.4548 24.6179 33.5073 24.6562C33.5598 24.6944 33.6213 24.7185 33.6858 24.7263L37.931 25.2561C38.2577 25.2967 38.5659 25.4297 38.8198 25.6393C39.0737 25.8489 39.2626 26.1266 39.3643 26.4397C39.466 26.7528 39.4762 27.0884 39.3939 27.4072C39.3116 27.726 39.1403 28.0147 38.8998 28.2395L35.7775 31.1637C35.7299 31.2075 35.6942 31.2628 35.674 31.3242C35.6537 31.3855 35.6495 31.451 35.6616 31.5145L36.4699 35.7195C36.5319 36.0425 36.5006 36.3766 36.3797 36.6825C36.2588 36.9884 36.0531 37.2535 35.787 37.4468C35.5209 37.6402 35.2052 37.7537 34.8769 37.7742C34.5486 37.7946 34.2214 37.7212 33.9333 37.5624L30.1857 35.4957C30.1288 35.4646 30.065 35.4483 30.0001 35.4483C29.9353 35.4483 29.8715 35.4646 29.8145 35.4957L26.067 37.563C25.8108 37.7052 25.5228 37.7801 25.2298 37.7809ZM30.0001 20.9846C29.9269 20.9833 29.8548 21.0036 29.793 21.0429C29.7312 21.0822 29.6824 21.1389 29.6526 21.2058L27.8361 25.0804C27.7124 25.3455 27.5233 25.5749 27.2866 25.7469C27.0498 25.9189 26.7734 26.0279 26.4829 26.0636L22.2352 26.5935C22.1628 26.6025 22.0944 26.6321 22.0382 26.6786C21.982 26.7252 21.9402 26.7869 21.9178 26.8563C21.8954 26.9258 21.8934 27.0002 21.9119 27.0708C21.9303 27.1414 21.9685 27.2053 22.0219 27.2549L25.1442 30.1804C25.3594 30.3797 25.5197 30.6309 25.6101 30.9098C25.7004 31.1888 25.7177 31.4863 25.6602 31.7738L24.8547 35.9736C24.8409 36.0452 24.8478 36.1192 24.8746 36.187C24.9013 36.2548 24.9469 36.3136 25.0059 36.3565C25.0648 36.3994 25.1347 36.4247 25.2074 36.4294C25.2802 36.4341 25.3528 36.4179 25.4167 36.3829L29.1643 34.315C29.4201 34.1732 29.7077 34.0988 30.0001 34.0988C30.2926 34.0988 30.5802 34.1732 30.836 34.315L34.5836 36.3823C34.6474 36.4174 34.7198 36.4337 34.7925 36.4292C34.8652 36.4246 34.9351 36.3995 34.9941 36.3567C35.053 36.3139 35.0986 36.2552 35.1254 36.1875C35.1522 36.1197 35.1593 36.0458 35.1456 35.9742L34.3387 31.7712C34.282 31.4836 34.2999 31.1863 34.3907 30.9076C34.4815 30.6289 34.6421 30.3781 34.8574 30.1791L37.9784 27.2555C38.032 27.2057 38.0702 27.1417 38.0886 27.071C38.107 27.0002 38.1049 26.9256 38.0823 26.856C38.0598 26.7864 38.0178 26.7247 37.9614 26.6782C37.905 26.6317 37.8364 26.6022 37.7638 26.5934L33.5187 26.0636C33.2279 26.028 32.951 25.9191 32.7141 25.7469C32.4771 25.5748 32.2878 25.3451 32.1642 25.0796L30.3477 21.2057C30.3178 21.1388 30.2689 21.0822 30.2071 21.0429C30.1453 21.0036 30.0734 20.9833 30.0001 20.9846Z" fill="black"/>
</svg>
