<svg width="70" height="50" viewBox="0 0 70 50" fill="none" xmlns="http://www.w3.org/2000/svg">
<path d="M50.4812 44.6007L45.6572 47.3047L40.8374 44.6007L36.0135 47.3047L31.1895 44.6007L26.3627 47.3047L21.529 44.6007L16.6953 47.3047V2.6955H50.4812V44.6007Z" fill="white"/>
<path d="M16.6955 48C16.5111 47.9999 16.3342 47.9266 16.2038 47.7962C16.0734 47.6658 16.0001 47.4889 16 47.3045V2.6955C15.9999 2.60415 16.0179 2.51366 16.0528 2.42925C16.0877 2.34485 16.139 2.26818 16.2036 2.20359C16.2682 2.139 16.3448 2.08774 16.4293 2.05281C16.5137 2.01787 16.6041 1.99995 16.6955 2H50.4815C50.5728 1.99995 50.6632 2.01787 50.7477 2.05281C50.8321 2.08774 50.9088 2.139 50.9734 2.20359C51.038 2.26818 51.0892 2.34485 51.1241 2.42925C51.159 2.51366 51.177 2.60415 51.177 2.6955V44.6C51.1771 44.7237 51.1441 44.845 51.0815 44.9516C51.0189 45.0582 50.9291 45.1462 50.8211 45.2065L45.9961 47.911C45.8921 47.9692 45.7749 47.9997 45.6558 47.9997C45.5367 47.9997 45.4194 47.9692 45.3154 47.911L40.8382 45.3973L36.3542 47.911C36.2504 47.9691 36.1335 47.9997 36.0146 47.9997C35.8957 47.9997 35.7787 47.9691 35.675 47.911L31.1896 45.3973L26.7028 47.911C26.5991 47.9692 26.4822 47.9999 26.3633 48C26.2444 48.0001 26.1274 47.9697 26.0236 47.9117L21.53 45.3966L17.0351 47.9117C16.9313 47.9697 16.8144 48.0001 16.6955 48ZM21.53 43.9044C21.6489 43.9044 21.7658 43.9348 21.8696 43.9927L26.3631 46.5071L30.85 43.9934C30.9537 43.9353 31.0707 43.9048 31.1896 43.9048C31.3085 43.9048 31.4254 43.9353 31.5292 43.9934L36.0146 46.5071L40.4987 43.9934C40.6026 43.9353 40.7198 43.9048 40.8389 43.9048C40.9581 43.9048 41.0752 43.9353 41.1792 43.9934L45.6565 46.5071L49.786 44.1924V3.391H17.391V46.1186L21.1903 43.9927C21.2941 43.9348 21.4111 43.9044 21.53 43.9044Z" fill="black"/>
<path d="M33.1891 29.6066H22.5705C22.386 29.6066 22.2091 29.5334 22.0787 29.403C21.9482 29.2725 21.875 29.0956 21.875 28.9111C21.875 28.7267 21.9482 28.5497 22.0787 28.4193C22.2091 28.2889 22.386 28.2156 22.5705 28.2156H33.1891C33.3735 28.2156 33.5504 28.2889 33.6808 28.4193C33.8112 28.5497 33.8846 28.7267 33.8846 28.9111C33.8846 29.0956 33.8112 29.2725 33.6808 29.403C33.5504 29.5334 33.3735 29.6066 33.1891 29.6066Z" fill="black"/>
<path d="M44.6061 29.6066H39.4279C39.2435 29.6066 39.0665 29.5334 38.9361 29.403C38.8057 29.2725 38.7324 29.0956 38.7324 28.9111C38.7324 28.7267 38.8057 28.5497 38.9361 28.4193C39.0665 28.2889 39.2435 28.2156 39.4279 28.2156H44.6061C44.7906 28.2156 44.9674 28.2889 45.0979 28.4193C45.2283 28.5497 45.3016 28.7267 45.3016 28.9111C45.3016 29.0956 45.2283 29.2725 45.0979 29.403C44.9674 29.5334 44.7906 29.6066 44.6061 29.6066Z" fill="black"/>
<path d="M33.1891 34.2109H22.5705C22.386 34.2109 22.2091 34.1377 22.0787 34.0073C21.9482 33.8768 21.875 33.6999 21.875 33.5154C21.875 33.331 21.9482 33.1541 22.0787 33.0236C22.2091 32.8932 22.386 32.8199 22.5705 32.8199H33.1891C33.3735 32.8199 33.5504 32.8932 33.6808 33.0236C33.8112 33.1541 33.8846 33.331 33.8846 33.5154C33.8846 33.6999 33.8112 33.8768 33.6808 34.0073C33.5504 34.1377 33.3735 34.2109 33.1891 34.2109Z" fill="black"/>
<path d="M44.6061 34.2109H39.4279C39.2435 34.2109 39.0665 34.1377 38.9361 34.0073C38.8057 33.8768 38.7324 33.6999 38.7324 33.5154C38.7324 33.331 38.8057 33.1541 38.9361 33.0236C39.0665 32.8932 39.2435 32.8199 39.4279 32.8199H44.6061C44.7906 32.8199 44.9674 32.8932 45.0979 33.0236C45.2283 33.1541 45.3016 33.331 45.3016 33.5154C45.3016 33.6999 45.2283 33.8768 45.0979 34.0073C44.9674 34.1377 44.7906 34.2109 44.6061 34.2109Z" fill="black"/>
<path d="M33.1891 38.8152H22.5705C22.386 38.8152 22.2091 38.7419 22.0787 38.6115C21.9482 38.4811 21.875 38.3042 21.875 38.1197C21.875 37.9352 21.9482 37.7583 22.0787 37.6279C22.2091 37.4974 22.386 37.4242 22.5705 37.4242H33.1891C33.3735 37.4242 33.5504 37.4974 33.6808 37.6279C33.8112 37.7583 33.8846 37.9352 33.8846 38.1197C33.8846 38.3042 33.8112 38.4811 33.6808 38.6115C33.5504 38.7419 33.3735 38.8152 33.1891 38.8152Z" fill="black"/>
<path d="M44.6061 38.8152H39.4279C39.2435 38.8152 39.0665 38.7419 38.9361 38.6115C38.8057 38.4811 38.7324 38.3042 38.7324 38.1197C38.7324 37.9352 38.8057 37.7583 38.9361 37.6279C39.0665 37.4974 39.2435 37.4242 39.4279 37.4242H44.6061C44.7906 37.4242 44.9674 37.4974 45.0979 37.6279C45.2283 37.7583 45.3016 37.9352 45.3016 38.1197C45.3016 38.3042 45.2283 38.4811 45.0979 38.6115C44.9674 38.7419 44.7906 38.8152 44.6061 38.8152Z" fill="black"/>
<path d="M55.9764 26.7216C61.8918 26.7216 66.6872 21.9262 66.6872 16.0108C66.6872 10.0954 61.8918 5.30005 55.9764 5.30005C50.061 5.30005 45.2656 10.0954 45.2656 16.0108C45.2656 21.9262 50.061 26.7216 55.9764 26.7216Z" fill="#569FD6"/>
<path d="M54.7761 20.8627L54.7761 20.8628L55.3362 20.3302L55.5373 20.4787L55.5374 20.4786L61.3091 12.6659L61.4578 12.4647L61.2565 12.3162L60.1372 11.4903L59.9361 11.342L59.7877 11.5429L54.7065 18.4205L52.109 15.5145L51.9425 15.3282L51.7561 15.4946L50.7183 16.421L50.5316 16.5876L50.6984 16.7741L54.0713 20.5471L54.0715 20.5473C54.1603 20.6463 54.2689 20.7256 54.3902 20.7799C54.5117 20.8343 54.6432 20.8625 54.7761 20.8627Z" fill="white" stroke="white" stroke-width="0.5"/>
<path d="M26.1701 20.9958C26.0788 20.9958 25.9883 20.9779 25.9039 20.943C25.8195 20.908 25.7428 20.8568 25.6782 20.7922C25.6136 20.7276 25.5624 20.6509 25.5274 20.5665C25.4925 20.4821 25.4746 20.3916 25.4746 20.3003V9.50782C25.4746 9.32336 25.5479 9.14642 25.6783 9.01599C25.8087 8.88556 25.9857 8.81232 26.1701 8.81232C26.3546 8.81232 26.5314 8.88556 26.6618 9.01599C26.7923 9.14642 26.8656 9.32336 26.8656 9.50782V20.3003C26.8657 20.3916 26.8476 20.4821 26.8127 20.5665C26.7778 20.6509 26.7266 20.7276 26.662 20.7922C26.5974 20.8568 26.5207 20.908 26.4363 20.943C26.3519 20.9779 26.2615 20.9958 26.1701 20.9958Z" fill="black"/>
<path d="M28.7076 15.5996H26.1701C25.9856 15.5996 25.8087 15.5263 25.6783 15.3959C25.5479 15.2654 25.4746 15.0885 25.4746 14.9041C25.4746 14.7196 25.5479 14.5427 25.6783 14.4122C25.8087 14.2818 25.9856 14.2086 26.1701 14.2086H28.7076C28.892 14.2086 29.0689 14.2818 29.1993 14.4122C29.3298 14.5427 29.4031 14.7196 29.4031 14.9041C29.4031 15.0885 29.3298 15.2654 29.1993 15.3959C29.0689 15.5263 28.892 15.5996 28.7076 15.5996Z" fill="black"/>
<path d="M28.7076 15.5996H26.1701C25.9856 15.5996 25.8087 15.5263 25.6783 15.3959C25.5479 15.2654 25.4746 15.0885 25.4746 14.9041C25.4746 14.7196 25.5479 14.5427 25.6783 14.4122C25.8087 14.2818 25.9856 14.2086 26.1701 14.2086H28.7076C28.892 14.2086 29.0689 14.2818 29.1993 14.4122C29.3298 14.5427 29.4031 14.7196 29.4031 14.9041C29.4031 15.0885 29.3298 15.2654 29.1993 15.3959C29.0689 15.5263 28.892 15.5996 28.7076 15.5996Z" fill="black"/>
<path d="M28.707 15.5995C28.5827 15.5995 28.4605 15.5661 28.3535 15.5028C28.2464 15.4396 28.1583 15.3488 28.0983 15.2399C28.0382 15.131 28.0084 15.008 28.012 14.8837C28.0156 14.7594 28.0525 14.6384 28.1188 14.5332L31.5189 9.13696C31.6175 8.98158 31.7737 8.87164 31.9532 8.83124C32.1328 8.79083 32.321 8.82325 32.4767 8.9214C32.6324 9.01956 32.7428 9.17547 32.7838 9.3549C32.8248 9.53433 32.7929 9.72266 32.6952 9.87865L29.2952 15.2749C29.2327 15.3744 29.1459 15.4565 29.043 15.5133C28.9401 15.5701 28.8245 15.5998 28.707 15.5995Z" fill="black"/>
<path d="M32.1072 20.9958C31.9896 20.9961 31.8739 20.9664 31.771 20.9096C31.6681 20.8528 31.5814 20.7707 31.519 20.6712L28.1189 15.275C28.0205 15.119 27.9882 14.9303 28.0289 14.7504C28.0697 14.5706 28.1802 14.4143 28.3362 14.3159C28.4922 14.2176 28.6809 14.1852 28.8608 14.2259C29.0406 14.2667 29.1969 14.3773 29.2953 14.5333L32.6953 19.9295C32.7616 20.0347 32.7984 20.1557 32.8021 20.28C32.8057 20.4043 32.7759 20.5273 32.7158 20.6362C32.6557 20.7451 32.5676 20.8359 32.4606 20.8991C32.3535 20.9624 32.2315 20.9958 32.1072 20.9958Z" fill="black"/>
<path d="M35.0684 9.27893H38.2242C38.9621 9.27893 39.6697 9.57203 40.1914 10.0938C40.7131 10.6155 41.0062 11.3231 41.0062 12.0609V17.5185C41.0062 18.2563 40.7131 18.964 40.1914 19.4857C39.6697 20.0074 38.9621 20.3005 38.2242 20.3005H35.0684V9.27893Z" fill="white"/>
<path d="M38.2241 20.9958H35.0685C34.9772 20.9958 34.8867 20.9779 34.8023 20.943C34.7179 20.908 34.6412 20.8568 34.5766 20.7922C34.512 20.7276 34.4608 20.6509 34.4259 20.5665C34.3909 20.4821 34.373 20.3916 34.373 20.3003V9.27893C34.373 9.18758 34.3909 9.09709 34.4259 9.01269C34.4608 8.92828 34.512 8.85162 34.5766 8.78702C34.6412 8.72243 34.7179 8.67118 34.8023 8.63624C34.8867 8.60131 34.9772 8.58338 35.0685 8.58344H38.2241C39.1461 8.5844 40.03 8.95105 40.6819 9.603C41.3339 10.2549 41.7006 11.1389 41.7016 12.0609V17.5183C41.7006 18.4403 41.3339 19.3242 40.6819 19.9761C40.03 20.6281 39.1461 20.9948 38.2241 20.9958ZM35.764 19.6048H38.2241C38.7773 19.6042 39.3076 19.3841 39.6988 18.993C40.09 18.6018 40.31 18.0715 40.3106 17.5183V12.0609C40.31 11.5077 40.09 10.9774 39.6988 10.5862C39.3076 10.1951 38.7773 9.97504 38.2241 9.97443H35.764V19.6048Z" fill="black"/>
</svg>
