<svg width="60" height="50" viewBox="0 0 60 50" fill="none" xmlns="http://www.w3.org/2000/svg">
<path d="M38.4815 44.6007L33.6575 47.3048L28.8377 44.6007L24.0137 47.3048L19.1897 44.6007L14.363 47.3048L9.52927 44.6007L4.69556 47.3048V2.69556H38.4815V44.6007Z" fill="white"/>
<path d="M4.6955 48C4.51108 47.9999 4.33425 47.9266 4.20384 47.7962C4.07344 47.6658 4.00013 47.4889 4 47.3045V2.6955C3.99995 2.60415 4.01787 2.51366 4.05281 2.42925C4.08774 2.34485 4.139 2.26818 4.20359 2.20359C4.26818 2.139 4.34485 2.08774 4.42925 2.05281C4.51366 2.01787 4.60415 1.99995 4.6955 2H38.4815C38.5728 1.99995 38.6632 2.01787 38.7477 2.05281C38.8321 2.08774 38.9088 2.139 38.9734 2.20359C39.038 2.26818 39.0892 2.34485 39.1241 2.42925C39.159 2.51366 39.177 2.60415 39.177 2.6955V44.6C39.1771 44.7237 39.1441 44.845 39.0815 44.9516C39.0189 45.0582 38.9291 45.1462 38.8211 45.2065L33.9961 47.911C33.8921 47.9692 33.7749 47.9997 33.6558 47.9997C33.5367 47.9997 33.4194 47.9692 33.3154 47.911L28.8382 45.3973L24.3542 47.911C24.2504 47.9691 24.1335 47.9997 24.0146 47.9997C23.8957 47.9997 23.7787 47.9691 23.675 47.911L19.1896 45.3973L14.7028 47.911C14.5991 47.9692 14.4822 47.9999 14.3633 48C14.2444 48.0001 14.1274 47.9697 14.0236 47.9117L9.53003 45.3966L5.0351 47.9117C4.93129 47.9697 4.81438 48.0001 4.6955 48ZM9.53003 43.9044C9.64891 43.9044 9.76582 43.9348 9.86962 43.9927L14.3631 46.5071L18.85 43.9934C18.9537 43.9353 19.0707 43.9048 19.1896 43.9048C19.3085 43.9048 19.4254 43.9353 19.5292 43.9934L24.0146 46.5071L28.4987 43.9934C28.6026 43.9353 28.7198 43.9048 28.8389 43.9048C28.9581 43.9048 29.0752 43.9353 29.1792 43.9934L33.6565 46.5071L37.786 44.1924V3.391H5.391V46.1186L9.19034 43.9927C9.29415 43.9348 9.41114 43.9044 9.53003 43.9044Z" fill="black"/>
<path d="M21.1892 29.6067H10.5706C10.3862 29.6067 10.2092 29.5335 10.0788 29.403C9.94837 29.2726 9.87512 29.0957 9.87512 28.9112C9.87512 28.7267 9.94837 28.5498 10.0788 28.4194C10.2092 28.2889 10.3862 28.2157 10.5706 28.2157H21.1892C21.3737 28.2157 21.5505 28.2889 21.6809 28.4194C21.8114 28.5498 21.8847 28.7267 21.8847 28.9112C21.8847 29.0957 21.8114 29.2726 21.6809 29.403C21.5505 29.5335 21.3737 29.6067 21.1892 29.6067Z" fill="black"/>
<path d="M32.6065 29.6067H27.4283C27.2438 29.6067 27.0669 29.5335 26.9365 29.403C26.806 29.2726 26.7328 29.0957 26.7328 28.9112C26.7328 28.7267 26.806 28.5498 26.9365 28.4194C27.0669 28.2889 27.2438 28.2157 27.4283 28.2157H32.6065C32.7909 28.2157 32.9678 28.2889 33.0982 28.4194C33.2287 28.5498 33.302 28.7267 33.302 28.9112C33.302 29.0957 33.2287 29.2726 33.0982 29.403C32.9678 29.5335 32.7909 29.6067 32.6065 29.6067Z" fill="black"/>
<path d="M21.1892 34.2109H10.5706C10.3862 34.2109 10.2092 34.1377 10.0788 34.0073C9.94837 33.8768 9.87512 33.6999 9.87512 33.5154C9.87512 33.331 9.94837 33.1541 10.0788 33.0236C10.2092 32.8932 10.3862 32.8199 10.5706 32.8199H21.1892C21.3737 32.8199 21.5505 32.8932 21.6809 33.0236C21.8114 33.1541 21.8847 33.331 21.8847 33.5154C21.8847 33.6999 21.8114 33.8768 21.6809 34.0073C21.5505 34.1377 21.3737 34.2109 21.1892 34.2109Z" fill="black"/>
<path d="M32.6065 34.2109H27.4283C27.2438 34.2109 27.0669 34.1377 26.9365 34.0073C26.806 33.8768 26.7328 33.6999 26.7328 33.5154C26.7328 33.331 26.806 33.1541 26.9365 33.0236C27.0669 32.8932 27.2438 32.8199 27.4283 32.8199H32.6065C32.7909 32.8199 32.9678 32.8932 33.0982 33.0236C33.2287 33.1541 33.302 33.331 33.302 33.5154C33.302 33.6999 33.2287 33.8768 33.0982 34.0073C32.9678 34.1377 32.7909 34.2109 32.6065 34.2109Z" fill="black"/>
<path d="M21.1892 38.8153H10.5706C10.3862 38.8153 10.2092 38.7421 10.0788 38.6116C9.94837 38.4812 9.87512 38.3043 9.87512 38.1198C9.87512 37.9354 9.94837 37.7584 10.0788 37.628C10.2092 37.4976 10.3862 37.4243 10.5706 37.4243H21.1892C21.3737 37.4243 21.5505 37.4976 21.6809 37.628C21.8114 37.7584 21.8847 37.9354 21.8847 38.1198C21.8847 38.3043 21.8114 38.4812 21.6809 38.6116C21.5505 38.7421 21.3737 38.8153 21.1892 38.8153Z" fill="black"/>
<path d="M32.6065 38.8153H27.4283C27.2438 38.8153 27.0669 38.7421 26.9365 38.6116C26.806 38.4812 26.7328 38.3043 26.7328 38.1198C26.7328 37.9354 26.806 37.7584 26.9365 37.628C27.0669 37.4976 27.2438 37.4243 27.4283 37.4243H32.6065C32.7909 37.4243 32.9678 37.4976 33.0982 37.628C33.2287 37.7584 33.302 37.9354 33.302 38.1198C33.302 38.3043 33.2287 38.4812 33.0982 38.6116C32.9678 38.7421 32.7909 38.8153 32.6065 38.8153Z" fill="black"/>
<path d="M43.9758 26.7215C49.8912 26.7215 54.6866 21.9261 54.6866 16.0107C54.6866 10.0953 49.8912 5.29993 43.9758 5.29993C38.0604 5.29993 33.265 10.0953 33.265 16.0107C33.265 21.9261 38.0604 26.7215 43.9758 26.7215Z" fill="#FFC47A"/>
<path d="M43.9762 27.4169C41.7203 27.4168 39.5151 26.7478 37.6394 25.4945C35.7637 24.2411 34.3018 22.4597 33.4385 20.3755C32.5752 18.2913 32.3494 15.9979 32.7895 13.7854C33.2296 11.5728 34.3159 9.54044 35.9111 7.94528C37.5063 6.35011 39.5386 5.2638 41.7512 4.82369C43.9637 4.38357 46.2571 4.60939 48.3413 5.47266C50.4255 6.33593 52.2069 7.79789 53.4602 9.67358C54.7135 11.5493 55.3826 13.7545 55.3827 16.0104C55.3792 19.0345 54.1763 21.9338 52.038 24.0721C49.8996 26.2105 47.0003 27.4134 43.9762 27.4169ZM43.9762 5.99564C41.9954 5.99569 40.059 6.58317 38.4121 7.6837C36.7651 8.78423 35.4815 10.3484 34.7235 12.1785C33.9655 14.0085 33.7673 16.0222 34.1538 17.965C34.5403 19.9077 35.4942 21.6922 36.8949 23.0928C38.2956 24.4934 40.0802 25.4473 42.0229 25.8336C43.9657 26.22 45.9794 26.0215 47.8094 25.2635C49.6395 24.5054 51.2035 23.2217 52.304 21.5746C53.4044 19.9276 53.9918 17.9912 53.9917 16.0104C53.9884 13.3552 52.9321 10.8097 51.0546 8.93224C49.177 7.05478 46.6314 5.99872 43.9762 5.99564Z" fill="black"/>
<path d="M42.7768 20.6128C42.6789 20.6126 42.582 20.5918 42.4927 20.5518C42.4033 20.5118 42.3233 20.4534 42.2579 20.3805L38.885 16.6076L39.9228 15.6811L42.7252 18.8163L47.989 11.6915L49.1083 12.5174L43.3365 20.3302C43.2751 20.4134 43.196 20.4819 43.1048 20.5307C43.0136 20.5794 42.9127 20.6072 42.8094 20.6121L42.7768 20.6128Z" fill="black"/>
<path d="M14.1704 20.9958C14.079 20.9959 13.9885 20.9779 13.9041 20.943C13.8197 20.9081 13.743 20.8568 13.6784 20.7922C13.6138 20.7276 13.5626 20.651 13.5277 20.5666C13.4927 20.4822 13.4748 20.3917 13.4749 20.3003V9.50788C13.4749 9.32342 13.5481 9.14648 13.6785 9.01605C13.809 8.88562 13.9859 8.81238 14.1704 8.81238C14.3548 8.81238 14.5317 8.88562 14.6621 9.01605C14.7925 9.14648 14.8659 9.32342 14.8659 9.50788V20.3003C14.8659 20.3917 14.8479 20.4822 14.813 20.5666C14.778 20.651 14.7269 20.7276 14.6623 20.7922C14.5977 20.8568 14.5209 20.9081 14.4365 20.943C14.3521 20.9779 14.2617 20.9959 14.1704 20.9958Z" fill="black"/>
<path d="M16.7078 15.5996H14.1704C13.9859 15.5996 13.809 15.5264 13.6785 15.3959C13.5481 15.2655 13.4749 15.0886 13.4749 14.9041C13.4749 14.7197 13.5481 14.5427 13.6785 14.4123C13.809 14.2819 13.9859 14.2086 14.1704 14.2086H16.7078C16.8923 14.2086 17.0691 14.2819 17.1996 14.4123C17.33 14.5427 17.4033 14.7197 17.4033 14.9041C17.4033 15.0886 17.33 15.2655 17.1996 15.3959C17.0691 15.5264 16.8923 15.5996 16.7078 15.5996Z" fill="black"/>
<path d="M16.7078 15.5996H14.1704C13.9859 15.5996 13.809 15.5264 13.6785 15.3959C13.5481 15.2655 13.4749 15.0886 13.4749 14.9041C13.4749 14.7197 13.5481 14.5427 13.6785 14.4123C13.809 14.2819 13.9859 14.2086 14.1704 14.2086H16.7078C16.8923 14.2086 17.0691 14.2819 17.1996 14.4123C17.33 14.5427 17.4033 14.7197 17.4033 14.9041C17.4033 15.0886 17.33 15.2655 17.1996 15.3959C17.0691 15.5264 16.8923 15.5996 16.7078 15.5996Z" fill="black"/>
<path d="M16.7079 15.5996C16.5835 15.5995 16.4614 15.5661 16.3543 15.5029C16.2473 15.4396 16.1592 15.3488 16.0991 15.24C16.0391 15.1311 16.0093 15.0081 16.0129 14.8838C16.0165 14.7595 16.0534 14.6385 16.1197 14.5332L19.5197 9.13702C19.6184 8.98164 19.7745 8.8717 19.9541 8.8313C20.1336 8.7909 20.3219 8.82331 20.4776 8.92146C20.6333 9.01962 20.7437 9.17553 20.7847 9.35496C20.8256 9.53439 20.7938 9.72272 20.6961 9.87871L17.296 15.2749C17.2336 15.3745 17.1468 15.4565 17.0439 15.5133C16.941 15.5701 16.8254 15.5998 16.7079 15.5996Z" fill="black"/>
<path d="M20.1079 20.9958C19.9904 20.9961 19.8747 20.9664 19.7718 20.9096C19.6689 20.8528 19.5821 20.7707 19.5197 20.6712L16.1196 15.275C16.0213 15.119 15.9889 14.9303 16.0296 14.7504C16.0704 14.5706 16.1809 14.4143 16.3369 14.3159C16.4929 14.2176 16.6816 14.1852 16.8615 14.2259C17.0413 14.2667 17.1977 14.3773 17.296 14.5333L20.6961 19.9295C20.7623 20.0347 20.7992 20.1557 20.8028 20.28C20.8064 20.4043 20.7766 20.5273 20.7165 20.6362C20.6565 20.7451 20.5684 20.8359 20.4613 20.8991C20.3543 20.9624 20.2322 20.9958 20.1079 20.9958Z" fill="black"/>
<path d="M23.069 9.27905H26.2248C26.9627 9.27905 27.6703 9.57215 28.192 10.0939C28.7137 10.6156 29.0068 11.3232 29.0068 12.061V17.5186C29.0068 18.2565 28.7137 18.9641 28.192 19.4858C27.6703 20.0075 26.9627 20.3006 26.2248 20.3006H23.069V9.27905Z" fill="white"/>
<path d="M26.2247 20.9958H23.0692C22.9778 20.9959 22.8873 20.978 22.8029 20.943C22.7185 20.9081 22.6418 20.8568 22.5772 20.7922C22.5127 20.7276 22.4614 20.651 22.4265 20.5666C22.3915 20.4822 22.3736 20.3917 22.3737 20.3003V9.27899C22.3736 9.18765 22.3915 9.09715 22.4265 9.01275C22.4614 8.92834 22.5127 8.85168 22.5772 8.78709C22.6418 8.72249 22.7185 8.67124 22.8029 8.6363C22.8873 8.60137 22.9778 8.58345 23.0692 8.5835H26.2247C27.1467 8.58446 28.0306 8.95111 28.6826 9.60306C29.3345 10.255 29.7012 11.139 29.7022 12.061V17.5183C29.7012 18.4403 29.3345 19.3242 28.6826 19.9762C28.0306 20.6281 27.1467 20.9949 26.2247 20.9958ZM23.7647 19.6048H26.2247C26.7779 19.6042 27.3083 19.3842 27.6994 18.993C28.0906 18.6019 28.3106 18.0715 28.3112 17.5183V12.061C28.3106 11.5078 28.0906 10.9774 27.6994 10.5863C27.3083 10.1951 26.7779 9.9751 26.2247 9.97449H23.7647V19.6048Z" fill="black"/>
</svg>
