<svg width="66" height="50" viewBox="0 0 66 50" fill="none" xmlns="http://www.w3.org/2000/svg">
<path d="M40.7839 27.5308H25.1752C25.0842 27.5308 24.9941 27.513 24.91 27.4782C24.8259 27.4434 24.7496 27.3923 24.6852 27.328C24.6209 27.2636 24.5698 27.1873 24.535 27.1032C24.5002 27.0191 24.4824 26.9289 24.4824 26.838V23.3191C24.4827 21.762 24.9534 20.2413 25.8328 18.9564C26.7122 17.6714 27.9593 16.6822 29.4106 16.1182C28.7276 15.4165 28.2666 14.5289 28.0853 13.5665C27.904 12.6041 28.0105 11.6097 28.3914 10.7075C28.7722 9.80534 29.4106 9.03548 30.2267 8.49418C31.0428 7.95287 32.0003 7.66418 32.9796 7.66418C33.9589 7.66418 34.9164 7.95287 35.7325 8.49418C36.5486 9.03548 37.187 9.80534 37.5679 10.7075C37.9488 11.6097 38.0552 12.6041 37.8739 13.5665C37.6926 14.5289 37.2316 15.4165 36.5485 16.1182C37.9999 16.6822 39.2471 17.6714 40.1265 18.9564C41.0059 20.2413 41.4765 21.762 41.4768 23.3191V26.838C41.4768 26.9289 41.459 27.0191 41.4242 27.1032C41.3894 27.1873 41.3383 27.2636 41.274 27.328C41.2096 27.3923 41.1332 27.4434 41.0492 27.4782C40.9651 27.513 40.8749 27.5308 40.7839 27.5308ZM25.8681 26.1451H40.0911V23.3191C40.0911 21.8393 39.5733 20.4062 38.6274 19.2682C37.6816 18.1302 36.3674 17.3591 34.9126 17.0884C34.7722 17.0624 34.6433 16.9937 34.5435 16.8916C34.4437 16.7894 34.3779 16.6589 34.3551 16.518C34.3323 16.3771 34.3536 16.2326 34.4161 16.1042C34.4785 15.9758 34.5792 15.8699 34.7042 15.8009C35.4047 15.418 35.9578 14.8127 36.2761 14.0805C36.5945 13.3484 36.6601 12.5312 36.4625 11.7577C36.2648 10.9842 35.8154 10.2984 35.1848 9.80869C34.5543 9.31899 33.7786 9.0532 32.9803 9.0532C32.1819 9.0532 31.4062 9.31899 30.7757 9.80869C30.1452 10.2984 29.6957 10.9842 29.4981 11.7577C29.3005 12.5312 29.366 13.3484 29.6844 14.0805C30.0028 14.8127 30.5558 15.418 31.2563 15.8009C31.3811 15.8702 31.4815 15.9762 31.5437 16.1046C31.606 16.233 31.627 16.3776 31.6041 16.5184C31.5812 16.6593 31.5153 16.7895 31.4155 16.8916C31.3157 16.9936 31.1869 17.0624 31.0466 17.0884C29.5919 17.3593 28.2778 18.1305 27.332 19.2685C26.3862 20.4064 25.8683 21.8394 25.8681 23.3191V26.1451Z" fill="black"/>
<path d="M44.6476 48H16.1528C16.0618 48 15.9716 47.9822 15.8876 47.9474C15.8035 47.9126 15.7271 47.8615 15.6628 47.7972C15.5984 47.7328 15.5474 47.6565 15.5126 47.5724C15.4778 47.4883 15.4599 47.3982 15.46 47.3072V2.69282C15.4599 2.60182 15.4778 2.51168 15.5126 2.4276C15.5474 2.34352 15.5984 2.26715 15.6628 2.2028C15.7271 2.13846 15.8035 2.0874 15.8876 2.0526C15.9716 2.0178 16.0618 1.99995 16.1528 2H49.8072C49.8982 1.99995 49.9884 2.0178 50.0724 2.0526C50.1565 2.0874 50.2329 2.13846 50.2972 2.2028C50.3616 2.26715 50.4126 2.34352 50.4474 2.4276C50.4822 2.51168 50.5001 2.60182 50.5 2.69282V40.7606C50.4998 40.9162 50.4474 41.0672 50.3512 41.1895L45.1916 47.7361C45.1268 47.8184 45.0441 47.8849 44.9499 47.9306C44.8557 47.9763 44.7523 48 44.6476 48ZM16.8456 46.6144H44.3121L49.1145 40.5203V3.38564H16.8456V46.6144Z" fill="black"/>
<path d="M44.2622 33.2202H21.6997C21.5159 33.2202 21.3397 33.1472 21.2097 33.0173C21.0798 32.8873 21.0068 32.7112 21.0068 32.5274C21.0068 32.3437 21.0798 32.1674 21.2097 32.0375C21.3397 31.9076 21.5159 31.8346 21.6997 31.8346H44.2622C44.446 31.8346 44.6222 31.9076 44.7522 32.0375C44.8821 32.1674 44.9551 32.3437 44.9551 32.5274C44.9551 32.7112 44.8821 32.8873 44.7522 33.0173C44.6222 33.1472 44.446 33.2202 44.2622 33.2202Z" fill="black"/>
<path d="M40.1022 38.766H25.8588C25.6751 38.766 25.4988 38.693 25.3689 38.5631C25.239 38.4332 25.166 38.2569 25.166 38.0732C25.166 37.8894 25.239 37.7132 25.3689 37.5833C25.4988 37.4533 25.6751 37.3804 25.8588 37.3804H40.1022C40.2859 37.3804 40.4622 37.4533 40.5921 37.5833C40.7221 37.7132 40.795 37.8894 40.795 38.0732C40.795 38.2569 40.7221 38.4332 40.5921 38.5631C40.4622 38.693 40.2859 38.766 40.1022 38.766Z" fill="black"/>
<path d="M44.2622 48C44.1712 48 44.081 47.9822 43.9969 47.9474C43.9129 47.9126 43.8365 47.8615 43.7721 47.7972C43.7078 47.7328 43.6567 47.6565 43.6219 47.5724C43.5871 47.4883 43.5693 47.3982 43.5693 47.3072V40.7606C43.5693 40.6696 43.5871 40.5794 43.6219 40.4953C43.6567 40.4113 43.7078 40.3349 43.7721 40.2706C43.8365 40.2062 43.9129 40.1552 43.9969 40.1204C44.081 40.0856 44.1712 40.0677 44.2622 40.0677H49.8075C49.9912 40.0677 50.1674 40.1407 50.2973 40.2706C50.4273 40.4006 50.5003 40.5768 50.5003 40.7606C50.5003 40.9443 50.4273 41.1206 50.2973 41.2505C50.1674 41.3804 49.9912 41.4534 49.8075 41.4534H44.955V47.3072C44.955 47.3982 44.9372 47.4883 44.9024 47.5724C44.8676 47.6565 44.8165 47.7328 44.7522 47.7972C44.6878 47.8615 44.6115 47.9126 44.5274 47.9474C44.4433 47.9822 44.3532 48 44.2622 48Z" fill="black"/>
<path d="M55.2818 26.6266C61.1744 26.6266 65.9513 21.8497 65.9513 15.9571C65.9513 10.0645 61.1744 5.2876 55.2818 5.2876C49.3892 5.2876 44.6123 10.0645 44.6123 15.9571C44.6123 21.8497 49.3892 26.6266 55.2818 26.6266Z" fill="#F47D39"/>
<path d="M54.0875 20.7917V20.7918L54.0932 20.7917L54.1257 20.791L54.1257 20.7911L54.1326 20.7908C54.2725 20.784 54.4091 20.7461 54.5325 20.6802L54.4146 20.4597L54.5325 20.6802C54.6559 20.6142 54.7632 20.5216 54.8465 20.409L54.8466 20.4088L60.5949 12.6254L60.7434 12.4242L60.5422 12.2757L59.4272 11.453L59.2261 11.3046L59.0777 11.5057L54.0182 18.3564L51.4302 15.4611L51.2635 15.2747L51.0772 15.4413L50.0433 16.3656L49.8569 16.5322L50.0236 16.7186L53.3848 20.4777L53.3855 20.4783C53.474 20.5767 53.5822 20.6555 53.7032 20.7095C53.8242 20.7635 53.9551 20.7915 54.0875 20.7917Z" fill="white" stroke="white" stroke-width="0.5"/>
</svg>
