<svg width="64" height="46" viewBox="0 0 64 46" fill="none" xmlns="http://www.w3.org/2000/svg">
<path d="M37.7839 25.5306H22.1752C22.0842 25.5307 21.9941 25.5128 21.91 25.478C21.8259 25.4432 21.7496 25.3922 21.6852 25.3278C21.6209 25.2635 21.5698 25.1871 21.535 25.1031C21.5002 25.019 21.4824 24.9288 21.4824 24.8378V21.3189C21.4827 19.7619 21.9534 18.2412 22.8328 16.9563C23.7122 15.6713 24.9593 14.682 26.4106 14.1181C25.7276 13.4163 25.2666 12.5287 25.0853 11.5664C24.904 10.604 25.0105 9.60959 25.3914 8.7074C25.7722 7.80522 26.4106 7.03536 27.2267 6.49406C28.0428 5.95275 29.0003 5.66406 29.9796 5.66406C30.9589 5.66406 31.9164 5.95275 32.7325 6.49406C33.5486 7.03536 34.187 7.80522 34.5679 8.7074C34.9488 9.60959 35.0552 10.604 34.8739 11.5664C34.6926 12.5287 34.2316 13.4163 33.5485 14.1181C34.9999 14.682 36.2471 15.6713 37.1265 16.9563C38.0059 18.2412 38.4765 19.7619 38.4768 21.3189V24.8378C38.4768 24.9288 38.459 25.019 38.4242 25.1031C38.3894 25.1871 38.3383 25.2635 38.274 25.3278C38.2096 25.3922 38.1332 25.4432 38.0492 25.478C37.9651 25.5128 37.8749 25.5307 37.7839 25.5306ZM22.8681 24.145H37.0911V21.3189C37.0911 19.8392 36.5733 18.4061 35.6274 17.2681C34.6816 16.1301 33.3674 15.359 31.9126 15.0883C31.7722 15.0623 31.6433 14.9935 31.5435 14.8914C31.4437 14.7893 31.3779 14.6588 31.3551 14.5179C31.3323 14.3769 31.3536 14.2324 31.4161 14.1041C31.4785 13.9757 31.5792 13.8698 31.7042 13.8008C32.4047 13.4178 32.9578 12.8125 33.2761 12.0804C33.5945 11.3483 33.6601 10.5311 33.4625 9.75754C33.2648 8.98403 32.8154 8.29826 32.1848 7.80857C31.5543 7.31887 30.7786 7.05308 29.9803 7.05308C29.1819 7.05308 28.4062 7.31887 27.7757 7.80857C27.1452 8.29826 26.6957 8.98403 26.4981 9.75754C26.3005 10.5311 26.366 11.3483 26.6844 12.0804C27.0028 12.8125 27.5558 13.4178 28.2563 13.8008C28.3811 13.87 28.4815 13.9761 28.5437 14.1045C28.606 14.2329 28.627 14.3775 28.6041 14.5183C28.5812 14.6591 28.5153 14.7894 28.4155 14.8914C28.3157 14.9935 28.1869 15.0622 28.0466 15.0883C26.5919 15.3592 25.2778 16.1304 24.332 17.2683C23.3862 18.4063 22.8683 19.8393 22.8681 21.3189V24.145Z" fill="black"/>
<path d="M41.6476 46H13.1528C13.0618 46 12.9716 45.9822 12.8876 45.9474C12.8035 45.9126 12.7271 45.8615 12.6628 45.7972C12.5984 45.7328 12.5474 45.6565 12.5126 45.5724C12.4778 45.4883 12.4599 45.3982 12.46 45.3072V0.692818C12.4599 0.601822 12.4778 0.511678 12.5126 0.427599C12.5474 0.343519 12.5984 0.267149 12.6628 0.202805C12.7271 0.138461 12.8035 0.0874035 12.8876 0.0526042C12.9716 0.0178049 13.0618 -5.08919e-05 13.1528 1.08946e-07H46.8072C46.8982 -5.08919e-05 46.9884 0.0178049 47.0724 0.0526042C47.1565 0.0874035 47.2329 0.138461 47.2972 0.202805C47.3616 0.267149 47.4126 0.343519 47.4474 0.427599C47.4822 0.511678 47.5001 0.601822 47.5 0.692818V38.7606C47.4998 38.9162 47.4474 39.0672 47.3512 39.1895L42.1916 45.7361C42.1268 45.8184 42.0441 45.8849 41.9499 45.9306C41.8557 45.9763 41.7523 46 41.6476 46ZM13.8456 44.6144H41.3121L46.1145 38.5203V1.38564H13.8456V44.6144Z" fill="black"/>
<path d="M41.2622 31.2201H18.6997C18.5159 31.2201 18.3397 31.1471 18.2097 31.0171C18.0798 30.8872 18.0068 30.711 18.0068 30.5273C18.0068 30.3435 18.0798 30.1673 18.2097 30.0374C18.3397 29.9074 18.5159 29.8345 18.6997 29.8345H41.2622C41.446 29.8345 41.6222 29.9074 41.7522 30.0374C41.8821 30.1673 41.9551 30.3435 41.9551 30.5273C41.9551 30.711 41.8821 30.8872 41.7522 31.0171C41.6222 31.1471 41.446 31.2201 41.2622 31.2201Z" fill="black"/>
<path d="M37.1022 36.766H22.8588C22.6751 36.766 22.4988 36.693 22.3689 36.5631C22.239 36.4332 22.166 36.2569 22.166 36.0732C22.166 35.8894 22.239 35.7132 22.3689 35.5833C22.4988 35.4533 22.6751 35.3804 22.8588 35.3804H37.1022C37.2859 35.3804 37.4622 35.4533 37.5921 35.5833C37.7221 35.7132 37.795 35.8894 37.795 36.0732C37.795 36.2569 37.7221 36.4332 37.5921 36.5631C37.4622 36.693 37.2859 36.766 37.1022 36.766Z" fill="black"/>
<path d="M41.2622 46.0001C41.1712 46.0001 41.081 45.9823 40.9969 45.9475C40.9129 45.9127 40.8365 45.8616 40.7721 45.7973C40.7078 45.7329 40.6567 45.6566 40.6219 45.5725C40.5871 45.4884 40.5693 45.3983 40.5693 45.3073V38.7607C40.5693 38.6697 40.5871 38.5795 40.6219 38.4955C40.6567 38.4114 40.7078 38.335 40.7721 38.2707C40.8365 38.2063 40.9129 38.1553 40.9969 38.1205C41.081 38.0857 41.1712 38.0678 41.2622 38.0679H46.8075C46.9912 38.0679 47.1674 38.1408 47.2973 38.2708C47.4273 38.4007 47.5003 38.5769 47.5003 38.7607C47.5003 38.9444 47.4273 39.1207 47.2973 39.2506C47.1674 39.3805 46.9912 39.4535 46.8075 39.4535H41.955V45.3073C41.955 45.3983 41.9372 45.4884 41.9024 45.5725C41.8676 45.6566 41.8165 45.7329 41.7522 45.7973C41.6878 45.8616 41.6115 45.9127 41.5274 45.9475C41.4433 45.9823 41.3532 46.0001 41.2622 46.0001Z" fill="black"/>
<path d="M52.2818 24.6266C58.1744 24.6266 62.9513 19.8497 62.9513 13.9571C62.9513 8.0645 58.1744 3.2876 52.2818 3.2876C46.3892 3.2876 41.6123 8.0645 41.6123 13.9571C41.6123 19.8497 46.3892 24.6266 52.2818 24.6266Z" fill="#A5D4F8"/>
<path d="M52.2814 25.3197C50.0341 25.3197 47.8373 24.6533 45.9687 23.4048C44.1002 22.1562 42.6438 20.3817 41.7838 18.3055C40.9238 16.2292 40.6989 13.9446 41.1373 11.7405C41.5757 9.53641 42.6579 7.51176 44.2469 5.92269C45.836 4.33362 47.8607 3.25147 50.0648 2.81305C52.2689 2.37462 54.5534 2.59968 56.6296 3.45969C58.7058 4.31969 60.4805 5.77603 61.729 7.64459C62.9775 9.51314 63.6439 11.71 63.6439 13.9572C63.6404 16.9697 62.4422 19.8578 60.3121 21.9879C58.1819 24.118 55.2939 25.3163 52.2814 25.3197ZM52.2814 3.9804C50.3082 3.9804 48.3793 4.56551 46.7386 5.66179C45.0979 6.75806 43.8191 8.31619 43.064 10.1392C42.3089 11.9623 42.1113 13.9683 42.4963 15.9036C42.8812 17.8389 43.8314 19.6167 45.2267 21.0119C46.622 22.4072 48.3997 23.3574 50.3351 23.7424C52.2704 24.1273 54.2763 23.9298 56.0993 23.1746C57.9224 22.4195 59.4807 21.1407 60.577 19.5C61.6732 17.8594 62.2583 15.9305 62.2583 13.9572C62.2552 11.3122 61.2031 8.77628 59.3327 6.90593C57.4624 5.03558 54.9265 3.9835 52.2814 3.9804Z" fill="black"/>
<path d="M51.088 18.5416C50.9905 18.5414 50.8942 18.5208 50.8051 18.4811C50.7161 18.4413 50.6365 18.3833 50.5712 18.3109L47.21 14.5518L48.2438 13.6276L51.0367 16.7521L56.2788 9.65405L57.3938 10.4768L51.6455 18.2601C51.5843 18.3429 51.5054 18.411 51.4146 18.4596C51.3238 18.5081 51.2234 18.5359 51.1205 18.5409L51.088 18.5416Z" fill="black"/>
</svg>
