<svg width="80" height="50" viewBox="0 0 80 50" fill="none" xmlns="http://www.w3.org/2000/svg">
<path d="M45.7847 27.5308H30.176C30.085 27.5308 29.9948 27.513 29.9108 27.4782C29.8267 27.4434 29.7503 27.3923 29.686 27.328C29.6216 27.2636 29.5706 27.1873 29.5358 27.1032C29.501 27.0191 29.4831 26.9289 29.4832 26.838V23.3191C29.4834 21.762 29.9541 20.2413 30.8335 18.9564C31.7129 17.6714 32.96 16.6822 34.4114 16.1182C33.7283 15.4165 33.2673 14.5289 33.086 13.5665C32.9047 12.6041 33.0112 11.6097 33.3921 10.7075C33.773 9.80534 34.4113 9.03548 35.2274 8.49418C36.0435 7.95287 37.001 7.66418 37.9803 7.66418C38.9596 7.66418 39.9172 7.95287 40.7332 8.49418C41.5493 9.03548 42.1878 9.80534 42.5686 10.7075C42.9495 11.6097 43.0559 12.6041 42.8746 13.5665C42.6933 14.5289 42.2323 15.4165 41.5493 16.1182C43.0006 16.6822 44.2478 17.6714 45.1272 18.9564C46.0066 20.2413 46.4772 21.762 46.4775 23.3191V26.838C46.4775 26.9289 46.4597 27.0191 46.4249 27.1032C46.3901 27.1873 46.339 27.2636 46.2747 27.328C46.2103 27.3923 46.134 27.4434 46.0499 27.4782C45.9658 27.513 45.8757 27.5308 45.7847 27.5308ZM30.8688 26.1451H45.0919V23.3191C45.0918 21.8393 44.574 20.4062 43.6282 19.2682C42.6823 18.1302 41.3681 17.3591 39.9133 17.0884C39.7729 17.0624 39.644 16.9937 39.5442 16.8916C39.4444 16.7894 39.3786 16.6589 39.3558 16.518C39.333 16.3771 39.3543 16.2326 39.4168 16.1042C39.4793 15.9758 39.5799 15.8699 39.7049 15.8009C40.4054 15.418 40.9585 14.8127 41.2769 14.0805C41.5953 13.3484 41.6608 12.5312 41.4632 11.7577C41.2656 10.9842 40.8161 10.2984 40.1856 9.80869C39.555 9.31899 38.7794 9.0532 37.981 9.0532C37.1826 9.0532 36.407 9.31899 35.7764 9.80869C35.1459 10.2984 34.6964 10.9842 34.4988 11.7577C34.3012 12.5312 34.3667 13.3484 34.6851 14.0805C35.0035 14.8127 35.5566 15.418 36.2571 15.8009C36.3818 15.8702 36.4822 15.9762 36.5445 16.1046C36.6067 16.233 36.6278 16.3776 36.6048 16.5184C36.5819 16.6593 36.516 16.7895 36.4162 16.8916C36.3165 16.9936 36.1876 17.0624 36.0473 17.0884C34.5926 17.3593 33.2785 18.1305 32.3327 19.2685C31.3869 20.4064 30.869 21.8394 30.8688 23.3191V26.1451Z" fill="black"/>
<path d="M49.648 48H21.1531C21.0621 48 20.972 47.9822 20.8879 47.9474C20.8038 47.9126 20.7275 47.8615 20.6631 47.7972C20.5988 47.7328 20.5477 47.6565 20.5129 47.5724C20.4781 47.4883 20.4603 47.3982 20.4603 47.3072V2.69282C20.4603 2.60182 20.4781 2.51168 20.5129 2.4276C20.5477 2.34352 20.5988 2.26715 20.6631 2.2028C20.7275 2.13846 20.8038 2.0874 20.8879 2.0526C20.972 2.0178 21.0621 1.99995 21.1531 2H54.8076C54.8986 1.99995 54.9887 2.0178 55.0728 2.0526C55.1569 2.0874 55.2333 2.13846 55.2976 2.2028C55.3619 2.26715 55.413 2.34352 55.4478 2.4276C55.4826 2.51168 55.5005 2.60182 55.5004 2.69282V40.7606C55.5002 40.9162 55.4478 41.0672 55.3516 41.1895L50.192 47.7361C50.1271 47.8184 50.0445 47.8849 49.9503 47.9306C49.856 47.9763 49.7527 48 49.648 48ZM21.846 46.6144H49.3125L54.1149 40.5203V3.38564H21.846V46.6144Z" fill="black"/>
<path d="M49.2624 33.2202H26.6998C26.516 33.2202 26.3398 33.1472 26.2098 33.0173C26.0799 32.8873 26.007 32.7112 26.007 32.5274C26.007 32.3437 26.0799 32.1674 26.2098 32.0375C26.3398 31.9076 26.516 31.8346 26.6998 31.8346H49.2624C49.4461 31.8346 49.6224 31.9076 49.7523 32.0375C49.8822 32.1674 49.9552 32.3437 49.9552 32.5274C49.9552 32.7112 49.8822 32.8873 49.7523 33.0173C49.6224 33.1472 49.4461 33.2202 49.2624 33.2202Z" fill="black"/>
<path d="M45.1027 38.766H30.8593C30.6756 38.766 30.4993 38.693 30.3694 38.5631C30.2395 38.4332 30.1665 38.2569 30.1665 38.0732C30.1665 37.8894 30.2395 37.7132 30.3694 37.5833C30.4993 37.4533 30.6756 37.3804 30.8593 37.3804H45.1027C45.2864 37.3804 45.4627 37.4533 45.5926 37.5833C45.7225 37.7132 45.7955 37.8894 45.7955 38.0732C45.7955 38.2569 45.7225 38.4332 45.5926 38.5631C45.4627 38.693 45.2864 38.766 45.1027 38.766Z" fill="black"/>
<path d="M49.2623 48C49.1713 48 49.0811 47.9822 48.9971 47.9474C48.913 47.9126 48.8366 47.8615 48.7723 47.7972C48.7079 47.7328 48.6569 47.6565 48.6221 47.5724C48.5873 47.4883 48.5694 47.3982 48.5695 47.3072V40.7606C48.5694 40.6696 48.5873 40.5794 48.6221 40.4953C48.6569 40.4113 48.7079 40.3349 48.7723 40.2706C48.8366 40.2062 48.913 40.1552 48.9971 40.1204C49.0811 40.0856 49.1713 40.0677 49.2623 40.0677H54.8076C54.9914 40.0677 55.1675 40.1407 55.2975 40.2706C55.4274 40.4006 55.5004 40.5768 55.5004 40.7606C55.5004 40.9443 55.4274 41.1206 55.2975 41.2505C55.1675 41.3804 54.9914 41.4534 54.8076 41.4534H49.9551V47.3072C49.9551 47.3982 49.9373 47.4883 49.9025 47.5724C49.8677 47.6565 49.8166 47.7328 49.7523 47.7972C49.6879 47.8615 49.6116 47.9126 49.5275 47.9474C49.4434 47.9822 49.3533 48 49.2623 48Z" fill="black"/>
<path d="M60.2816 26.6266C66.1742 26.6266 70.9511 21.8497 70.9511 15.9571C70.9511 10.0645 66.1742 5.2876 60.2816 5.2876C54.389 5.2876 49.6121 10.0645 49.6121 15.9571C49.6121 21.8497 54.389 26.6266 60.2816 26.6266Z" fill="#FFC47A"/>
<path d="M60.281 27.3197C58.0338 27.3197 55.8369 26.6533 53.9684 25.4048C52.0998 24.1562 50.6435 22.3817 49.7835 20.3055C48.9235 18.2292 48.6985 15.9446 49.1369 13.7405C49.5753 11.5364 50.6575 9.51176 52.2466 7.92269C53.8356 6.33362 55.8603 5.25147 58.0644 4.81305C60.2685 4.37462 62.553 4.59968 64.6293 5.45969C66.7055 6.31969 68.4801 7.77603 69.7286 9.64459C70.9772 11.5131 71.6435 13.71 71.6435 15.9572C71.6401 18.9697 70.4418 21.8578 68.3117 23.9879C66.1816 26.118 63.2935 27.3163 60.281 27.3197ZM60.281 5.9804C58.3078 5.9804 56.3789 6.56551 54.7382 7.66179C53.0976 8.75806 51.8188 10.3162 51.0637 12.1392C50.3085 13.9623 50.111 15.9683 50.4959 17.9036C50.8809 19.8389 51.8311 21.6167 53.2263 23.0119C54.6216 24.4072 56.3994 25.3574 58.3347 25.7424C60.27 26.1273 62.2759 25.9298 64.099 25.1746C65.922 24.4195 67.4803 23.1407 68.5766 21.5C69.6729 19.8594 70.2579 17.9305 70.2579 15.9572C70.2548 13.3122 69.2027 10.7763 67.3324 8.90593C65.462 7.03558 62.9261 5.9835 60.281 5.9804Z" fill="black"/>
<path d="M59.0877 20.5417C58.9902 20.5415 58.8938 20.5209 58.8048 20.4812C58.7157 20.4414 58.6361 20.3835 58.5708 20.311L55.2096 16.5519L56.2434 15.6277L59.0363 18.7522L64.2784 11.6542L65.3934 12.4769L59.6452 20.2603C59.5839 20.343 59.505 20.4111 59.4142 20.4597C59.3234 20.5083 59.223 20.5361 59.1201 20.5411L59.0877 20.5417Z" fill="black"/>
</svg>
