<svg width="80" height="50" viewBox="0 0 80 50" fill="none" xmlns="http://www.w3.org/2000/svg">
<path d="M48.1492 27.5309H32.5405C32.4495 27.5309 32.3593 27.513 32.2753 27.4782C32.1912 27.4434 32.1148 27.3924 32.0505 27.328C31.9861 27.2637 31.9351 27.1873 31.9003 27.1032C31.8655 27.0191 31.8476 26.929 31.8477 26.838V23.3185C31.8478 21.7615 32.3184 20.2409 33.1979 18.956C34.0773 17.6712 35.3245 16.6821 36.7759 16.1183C36.0928 15.4166 35.6318 14.529 35.4505 13.5667C35.2692 12.6043 35.3756 11.6099 35.7565 10.7077C36.1374 9.8055 36.7758 9.03561 37.5919 8.4943C38.408 7.953 39.3655 7.66431 40.3448 7.66431C41.3241 7.66431 42.2817 7.953 43.0977 8.4943C43.9138 9.03561 44.5522 9.8055 44.9331 10.7077C45.3139 11.6099 45.4203 12.6043 45.239 13.5667C45.0577 14.529 44.5968 15.4166 43.9138 16.1183C45.3652 16.682 46.6124 17.6711 47.4918 18.956C48.3712 20.2408 48.8419 21.7615 48.842 23.3185V26.838C48.842 26.929 48.8241 27.0191 48.7893 27.1032C48.7545 27.1873 48.7035 27.2637 48.6392 27.328C48.5748 27.3924 48.4984 27.4434 48.4143 27.4782C48.3302 27.513 48.2402 27.5309 48.1492 27.5309ZM33.2333 26.1452H47.4564V23.3185C47.4564 21.8388 46.9385 20.4058 45.9927 19.2679C45.0468 18.13 43.7326 17.359 42.2778 17.0886C42.1374 17.0625 42.0085 16.9938 41.9087 16.8917C41.8089 16.7896 41.743 16.6591 41.7202 16.5182C41.6974 16.3772 41.7188 16.2327 41.7813 16.1043C41.8438 15.9759 41.9444 15.87 42.0694 15.801C42.7699 15.4181 43.323 14.8128 43.6414 14.0807C43.9598 13.3486 44.0253 12.5313 43.8277 11.7578C43.6301 10.9843 43.1805 10.2985 42.55 9.80885C41.9194 9.31916 41.1439 9.05337 40.3455 9.05337C39.5471 9.05337 38.7715 9.31916 38.1409 9.80885C37.5104 10.2985 37.0608 10.9843 36.8632 11.7578C36.6656 12.5313 36.7312 13.3486 37.0495 14.0807C37.3679 14.8128 37.9211 15.4181 38.6216 15.801C38.7463 15.8703 38.8466 15.9764 38.9089 16.1048C38.9711 16.2332 38.9922 16.3777 38.9693 16.5185C38.9463 16.6594 38.8804 16.7897 38.7807 16.8917C38.6809 16.9937 38.5521 17.0625 38.4118 17.0886C36.9571 17.359 35.6428 18.1301 34.697 19.268C33.7511 20.4059 33.2334 21.8388 33.2333 23.3185V26.1452Z" fill="black"/>
<path d="M52.0129 48H23.518C23.427 48 23.3369 47.9822 23.2528 47.9474C23.1687 47.9126 23.0923 47.8615 23.028 47.7972C22.9637 47.7328 22.9126 47.6565 22.8778 47.5724C22.843 47.4883 22.8251 47.3982 22.8252 47.3072V2.69282C22.8251 2.60182 22.843 2.51172 22.8778 2.42764C22.9126 2.34356 22.9637 2.26715 23.028 2.2028C23.0923 2.13846 23.1687 2.08745 23.2528 2.05265C23.3369 2.01785 23.427 1.99995 23.518 2H57.1725C57.2635 1.99995 57.3535 2.01785 57.4376 2.05265C57.5217 2.08745 57.5981 2.13846 57.6625 2.2028C57.7268 2.26715 57.7778 2.34356 57.8126 2.42764C57.8474 2.51172 57.8653 2.60182 57.8653 2.69282V40.7599C57.8651 40.9155 57.8127 41.0666 57.7164 41.1889L52.5567 47.7361C52.4919 47.8184 52.4093 47.8849 52.3151 47.9306C52.2209 47.9763 52.1176 48 52.0129 48ZM24.2108 46.6144H51.6773L56.4796 40.5197V3.38564H24.2108V46.6144Z" fill="black"/>
<path d="M51.6275 33.2201H29.0649C28.8811 33.2201 28.7049 33.1471 28.575 33.0172C28.445 32.8873 28.3721 32.711 28.3721 32.5273C28.3721 32.3435 28.445 32.1673 28.575 32.0374C28.7049 31.9074 28.8811 31.8345 29.0649 31.8345H51.6275C51.8112 31.8345 51.9875 31.9074 52.1174 32.0374C52.2473 32.1673 52.3203 32.3435 52.3203 32.5273C52.3203 32.711 52.2473 32.8873 52.1174 33.0172C51.9875 33.1471 51.8112 33.2201 51.6275 33.2201Z" fill="black"/>
<path d="M47.4674 38.766H33.2241C33.0403 38.766 32.8641 38.693 32.7341 38.5631C32.6042 38.4332 32.5312 38.2569 32.5312 38.0732C32.5312 37.8894 32.6042 37.7132 32.7341 37.5833C32.8641 37.4533 33.0403 37.3804 33.2241 37.3804H47.4674C47.6512 37.3804 47.8273 37.4533 47.9573 37.5833C48.0872 37.7132 48.1602 37.8894 48.1602 38.0732C48.1602 38.2569 48.0872 38.4332 47.9573 38.5631C47.8273 38.693 47.6512 38.766 47.4674 38.766Z" fill="black"/>
<path d="M51.6274 48C51.5364 48.0001 51.4463 47.9822 51.3623 47.9474C51.2782 47.9126 51.2017 47.8616 51.1374 47.7972C51.073 47.7329 51.0221 47.6565 50.9873 47.5724C50.9525 47.4884 50.9345 47.3982 50.9346 47.3072V40.76C50.9345 40.669 50.9525 40.5788 50.9873 40.4947C51.0221 40.4107 51.073 40.3343 51.1374 40.2699C51.2017 40.2056 51.2782 40.1545 51.3623 40.1197C51.4463 40.0849 51.5364 40.0671 51.6274 40.0671H57.1726C57.3564 40.0671 57.5326 40.1401 57.6626 40.27C57.7925 40.4 57.8655 40.5762 57.8655 40.76C57.8655 40.9437 57.7925 41.12 57.6626 41.2499C57.5326 41.3798 57.3564 41.4528 57.1726 41.4528H52.3202V47.3072C52.3203 47.3982 52.3024 47.4884 52.2676 47.5724C52.2328 47.6565 52.1817 47.7329 52.1174 47.7972C52.0531 47.8616 51.9767 47.9126 51.8926 47.9474C51.8085 47.9822 51.7184 48.0001 51.6274 48Z" fill="black"/>
<path d="M29.065 15.956L19.0053 6.91333V11.4347H8.70312V20.4787H19.0053V25L29.065 15.956Z" fill="#A5D4F8"/>
<path d="M19.0042 25.6924C18.9071 25.6926 18.8112 25.6721 18.7227 25.6322C18.6003 25.5778 18.4963 25.4892 18.4233 25.3769C18.3502 25.2646 18.3114 25.1335 18.3114 24.9996V21.1708H8.70258C8.61159 21.1709 8.52153 21.153 8.43745 21.1182C8.35337 21.0834 8.27691 21.0323 8.21257 20.968C8.14823 20.9037 8.09725 20.8272 8.06245 20.7432C8.02766 20.6591 8.00971 20.569 8.00977 20.478V11.4355C8.00971 11.3445 8.02766 11.2544 8.06245 11.1703C8.09725 11.0862 8.14823 11.0098 8.21257 10.9455C8.27692 10.8811 8.35337 10.8301 8.43745 10.7953C8.52153 10.7605 8.61159 10.7426 8.70258 10.7427H18.3114V6.91391C18.3115 6.78011 18.3504 6.64921 18.4233 6.53701C18.4961 6.42481 18.6 6.33607 18.7221 6.28156C18.8443 6.22705 18.9797 6.20908 19.1119 6.2298C19.244 6.25052 19.3674 6.30907 19.4671 6.39835L29.5278 15.4408C29.6002 15.5058 29.658 15.5853 29.6976 15.6741C29.7372 15.763 29.7578 15.8591 29.7578 15.9564C29.7578 16.0537 29.7372 16.1498 29.6976 16.2387C29.658 16.3275 29.6002 16.407 29.5278 16.472L19.4671 25.5151C19.3399 25.6293 19.175 25.6924 19.0042 25.6924ZM9.3954 19.7852H19.0042C19.0952 19.7851 19.1853 19.803 19.2694 19.8378C19.3535 19.8726 19.4299 19.9236 19.4942 19.988C19.5585 20.0523 19.6096 20.1287 19.6444 20.2128C19.6792 20.2969 19.6971 20.387 19.697 20.478V23.4455L28.0284 15.9564L19.697 8.46801V11.4355C19.6971 11.5265 19.6792 11.6166 19.6444 11.7007C19.6096 11.7847 19.5585 11.8612 19.4942 11.9255C19.4299 11.9898 19.3535 12.0409 19.2694 12.0757C19.1853 12.1105 19.0952 12.1284 19.0042 12.1283H9.3954V19.7852Z" fill="black"/>
</svg>
