<svg width="80" height="50" viewBox="0 0 80 50" fill="none" xmlns="http://www.w3.org/2000/svg">
<path d="M27.3209 23.4192H11.2274C11.1336 23.4192 11.0406 23.4008 10.9539 23.3649C10.8672 23.329 10.7885 23.2764 10.7222 23.2101C10.6558 23.1437 10.6032 23.065 10.5673 22.9783C10.5314 22.8916 10.513 22.7987 10.5131 22.7048V19.0759C10.5132 17.4706 10.9985 15.9028 11.9053 14.578C12.812 13.2533 14.0979 12.2334 15.5943 11.6522C14.8901 10.9286 14.4147 10.0135 14.2277 9.02127C14.0408 8.02902 14.1507 7.00371 14.5434 6.0735C14.9361 5.14329 15.5942 4.34944 16.4356 3.79132C17.2771 3.2332 18.2644 2.93555 19.2741 2.93555C20.2838 2.93555 21.271 3.2332 22.1125 3.79132C22.9539 4.34944 23.6122 5.14329 24.0049 6.0735C24.3976 7.00371 24.5073 8.02902 24.3204 9.02127C24.1334 10.0135 23.6582 10.9286 22.9539 11.6522C24.4505 12.2333 25.7364 13.2532 26.6432 14.5779C27.5499 15.9027 28.0351 17.4706 28.0352 19.0759V22.7048C28.0353 22.7987 28.0169 22.8916 27.981 22.9783C27.9451 23.065 27.8925 23.1437 27.8261 23.2101C27.7598 23.2764 27.681 23.329 27.5943 23.3649C27.5076 23.4008 27.4147 23.4192 27.3209 23.4192ZM11.9417 21.9905H26.6065V19.0759C26.6066 17.5503 26.0727 16.0728 25.0975 14.8995C24.1222 13.7263 22.7671 12.9314 21.2672 12.6526C21.1225 12.6257 20.9897 12.5548 20.8868 12.4496C20.7839 12.3444 20.716 12.21 20.6923 12.0648C20.6687 11.9196 20.6904 11.7706 20.7546 11.6382C20.8188 11.5058 20.9223 11.3965 21.0509 11.3251C21.7728 10.9303 22.3426 10.3064 22.6705 9.55179C22.9985 8.79722 23.0661 7.95488 22.8624 7.15773C22.6586 6.36058 22.1952 5.654 21.5453 5.14936C20.8955 4.64472 20.0962 4.37076 19.2734 4.37076C18.4507 4.37076 17.6512 4.64472 17.0014 5.14936C16.3515 5.654 15.8882 6.36058 15.6845 7.15773C15.4808 7.95488 15.5482 8.79722 15.8762 9.55179C16.2042 10.3064 16.7741 10.9303 17.496 11.3251C17.6249 11.3962 17.7285 11.5054 17.793 11.6378C17.8574 11.7701 17.8795 11.9191 17.8559 12.0644C17.8324 12.2098 17.7646 12.3442 17.6617 12.4495C17.5588 12.5548 17.4259 12.6258 17.2811 12.6526C15.7812 12.9315 14.4262 13.7264 13.451 14.8996C12.4758 16.0729 11.9418 17.5503 11.9417 19.0759V21.9905Z" fill="black"/>
<path d="M48.0464 23.4192H31.9543C31.8605 23.4192 31.7676 23.4007 31.6809 23.3648C31.5942 23.329 31.5154 23.2764 31.4491 23.2101C31.3828 23.1437 31.3301 23.0649 31.2942 22.9782C31.2583 22.8915 31.2399 22.7987 31.24 22.7048V19.0759C31.2399 17.4707 31.7248 15.903 32.6313 14.5782C33.5378 13.2534 34.8236 12.2334 36.3199 11.6522C35.6156 10.9286 35.1402 10.0135 34.9533 9.02127C34.7664 8.02902 34.8762 7.00371 35.2689 6.0735C35.6616 5.14329 36.3197 4.34944 37.1612 3.79132C38.0026 3.2332 38.99 2.93555 39.9997 2.93555C41.0094 2.93555 41.9966 3.2332 42.838 3.79132C43.6794 4.34944 44.3377 5.14329 44.7304 6.0735C45.1231 7.00371 45.2328 8.02902 45.0459 9.02127C44.859 10.0135 44.3837 10.9286 43.6795 11.6522C45.1759 12.2335 46.4616 13.2534 47.3684 14.5781C48.2751 15.9029 48.7605 17.4706 48.7608 19.0759V22.7048C48.7608 22.7987 48.7424 22.8916 48.7065 22.9783C48.6706 23.065 48.618 23.1437 48.5516 23.2101C48.4853 23.2764 48.4066 23.329 48.3199 23.3649C48.2332 23.4008 48.1402 23.4192 48.0464 23.4192ZM32.6687 21.9905H47.3321V19.0759C47.3321 17.5503 46.7983 16.0728 45.823 14.8995C44.8478 13.7263 43.4927 12.9314 41.9927 12.6526C41.8479 12.6257 41.7149 12.5547 41.612 12.4493C41.5091 12.344 41.4412 12.2095 41.4177 12.0641C41.3942 11.9187 41.4162 11.7696 41.4807 11.6372C41.5451 11.5047 41.6489 11.3955 41.7778 11.3243C42.4995 10.9292 43.0691 10.3052 43.3968 9.55057C43.7245 8.79593 43.7917 7.95363 43.5877 7.1566C43.3838 6.35957 42.9203 5.65319 42.2703 5.14875C41.6204 4.64431 40.821 4.37051 39.9983 4.37067C39.1756 4.37083 38.3763 4.64492 37.7266 5.14962C37.0768 5.65432 36.6137 6.36097 36.41 7.15808C36.2064 7.95519 36.2739 8.79737 36.6019 9.55187C36.9299 10.3064 37.4997 10.9303 38.2215 11.3251C38.3504 11.3962 38.4541 11.5054 38.5185 11.6378C38.5829 11.7701 38.605 11.9191 38.5815 12.0644C38.5579 12.2097 38.4901 12.3442 38.3872 12.4495C38.2843 12.5548 38.1514 12.6258 38.0066 12.6526C36.5068 12.9314 35.1519 13.7264 34.1769 14.8997C33.2019 16.073 32.6683 17.5504 32.6687 19.0759V21.9905Z" fill="black"/>
<path d="M68.7719 23.4192H52.6798C52.586 23.4192 52.493 23.4008 52.4063 23.3649C52.3196 23.329 52.2409 23.2764 52.1746 23.2101C52.1082 23.1437 52.0556 23.065 52.0197 22.9783C51.9838 22.8916 51.9654 22.7986 51.9655 22.7048V19.0759C51.9653 17.4707 52.4503 15.903 53.3568 14.5782C54.2633 13.2534 55.549 12.2334 57.0453 11.6522C56.3415 10.9286 55.8666 10.0136 55.68 9.02162C55.4933 8.0296 55.6032 7.00459 55.996 6.07472C56.3887 5.14484 57.047 4.3513 57.8882 3.79341C58.7294 3.23553 59.7164 2.93799 60.7258 2.93799C61.7352 2.93799 62.7222 3.23553 63.5635 3.79341C64.4047 4.3513 65.0628 5.14484 65.4555 6.07472C65.8483 7.00459 65.9583 8.0296 65.7717 9.02162C65.5851 10.0136 65.1101 10.9286 64.4063 11.6522C65.9026 12.2334 67.1884 13.2534 68.0949 14.5782C69.0014 15.903 69.4863 17.4707 69.4862 19.0759V22.7048C69.4863 22.7986 69.4679 22.8916 69.432 22.9783C69.3961 23.065 69.3435 23.1437 69.2771 23.2101C69.2108 23.2764 69.132 23.329 69.0453 23.3649C68.9586 23.4008 68.8657 23.4192 68.7719 23.4192ZM53.3941 21.9905H68.0575V19.0759C68.0579 17.5504 67.5242 16.073 66.5492 14.8997C65.5742 13.7264 64.2194 12.9314 62.7196 12.6526C62.5748 12.6258 62.4419 12.5548 62.339 12.4495C62.2361 12.3442 62.1683 12.2097 62.1447 12.0644C62.1212 11.9191 62.1431 11.7701 62.2075 11.6378C62.272 11.5054 62.3758 11.3962 62.5047 11.3251C63.2267 10.93 63.7965 10.3058 64.1245 9.55091C64.4525 8.79607 64.5199 7.95352 64.316 7.15616C64.1121 6.3588 63.6485 5.65202 62.9984 5.14727C62.3484 4.64252 61.5489 4.36849 60.7258 4.36849C59.9028 4.36849 59.1031 4.64252 58.4531 5.14727C57.803 5.65202 57.3396 6.3588 57.1357 7.15616C56.9318 7.95352 56.999 8.79607 57.327 9.55091C57.655 10.3058 58.225 10.93 58.947 11.3251C59.0759 11.3962 59.1795 11.5054 59.244 11.6378C59.3084 11.7701 59.3304 11.9191 59.3069 12.0644C59.2834 12.2097 59.2155 12.3442 59.1126 12.4495C59.0098 12.5548 58.8769 12.6258 58.7321 12.6526C57.2323 12.9314 55.8773 13.7264 54.9023 14.8997C53.9273 16.073 53.3938 17.5504 53.3941 19.0759V21.9905Z" fill="black"/>
<path d="M37.6843 47.0389H21.5908C21.497 47.039 21.404 47.0206 21.3173 46.9847C21.2307 46.9488 21.1519 46.8962 21.0856 46.8298C21.0192 46.7635 20.9666 46.6847 20.9307 46.598C20.8948 46.5113 20.8764 46.4184 20.8765 46.3246V42.6958C20.8765 41.0904 21.3618 39.5225 22.2685 38.1977C23.1753 36.8729 24.4612 35.8531 25.9577 35.272C25.2535 34.5484 24.7781 33.6333 24.5912 32.641C24.4042 31.6488 24.5141 30.6235 24.9068 29.6932C25.2995 28.763 25.9576 27.9693 26.799 27.4112C27.6405 26.853 28.6278 26.5553 29.6375 26.5553C30.6472 26.5553 31.6344 26.853 32.4759 27.4112C33.3173 27.9693 33.9756 28.763 34.3683 29.6932C34.761 30.6235 34.8707 31.6488 34.6838 32.641C34.4968 33.6333 34.0216 34.5484 33.3174 35.272C34.8139 35.8531 36.0998 36.8729 37.0066 38.1977C37.9133 39.5225 38.3985 41.0904 38.3986 42.6958V46.3246C38.3987 46.4184 38.3803 46.5113 38.3444 46.598C38.3085 46.6847 38.2559 46.7635 38.1895 46.8298C38.1232 46.8962 38.0444 46.9488 37.9577 46.9847C37.8711 47.0206 37.7781 47.039 37.6843 47.0389ZM22.3051 45.6102H36.97V42.6958C36.97 41.1701 36.4361 39.6925 35.4609 38.5193C34.4856 37.346 33.1305 36.5511 31.6306 36.2723C31.4859 36.2455 31.3531 36.1745 31.2502 36.0693C31.1473 35.9642 31.0794 35.8297 31.0558 35.6845C31.0321 35.5393 31.0538 35.3904 31.118 35.258C31.1822 35.1256 31.2857 35.0162 31.4143 34.9448C32.1366 34.55 32.7067 33.9259 33.035 33.171C33.3633 32.4161 33.4309 31.5734 33.2272 30.7759C33.0234 29.9784 32.5599 29.2714 31.9098 28.7665C31.2597 28.2616 30.46 27.9875 29.6368 27.9875C28.8137 27.9875 28.0139 28.2616 27.3637 28.7665C26.7136 29.2714 26.2503 29.9784 26.0465 30.7759C25.8427 31.5734 25.9103 32.4161 26.2385 33.171C26.5668 33.9259 27.1371 34.55 27.8594 34.9448C27.9883 35.0159 28.0919 35.1252 28.1564 35.2575C28.2208 35.3899 28.2429 35.5389 28.2193 35.6842C28.1958 35.8295 28.1279 35.964 28.0251 36.0693C27.9222 36.1745 27.7893 36.2455 27.6445 36.2723C26.1446 36.5511 24.7894 37.346 23.8142 38.5193C22.839 39.6925 22.3051 41.1701 22.3051 42.6958V45.6102Z" fill="black"/>
<path d="M58.4097 47.0389H42.3163C42.2224 47.039 42.1295 47.0206 42.0428 46.9847C41.9561 46.9488 41.8774 46.8962 41.811 46.8298C41.7447 46.7635 41.692 46.6848 41.6562 46.5981C41.6203 46.5114 41.6019 46.4184 41.6019 46.3246V42.6958C41.602 41.0904 42.0872 39.5225 42.994 38.1977C43.9007 36.873 45.1867 35.8532 46.6832 35.272C45.979 34.5485 45.5035 33.6333 45.3166 32.6411C45.1297 31.6488 45.2396 30.6235 45.6323 29.6933C46.025 28.7631 46.6831 27.9693 47.5245 27.4112C48.3659 26.8531 49.3533 26.5554 50.363 26.5554C51.3727 26.5554 52.3599 26.8531 53.2013 27.4112C54.0428 27.9693 54.701 28.7631 55.0937 29.6933C55.4864 30.6235 55.5962 31.6488 55.4092 32.6411C55.2223 33.6333 54.7471 34.5485 54.0428 35.272C55.5393 35.8532 56.8253 36.873 57.732 38.1977C58.6388 39.5225 59.124 41.0904 59.1241 42.6958V46.3246C59.1241 46.4184 59.1057 46.5114 59.0698 46.5981C59.034 46.6848 58.9813 46.7635 58.915 46.8298C58.8486 46.8962 58.7699 46.9488 58.6832 46.9847C58.5965 47.0206 58.5036 47.039 58.4097 47.0389ZM43.0306 45.6103H57.6954V42.6958C57.6955 41.1702 57.1616 39.6926 56.1863 38.5193C55.2111 37.3461 53.856 36.5512 52.356 36.2724C52.2113 36.2455 52.0784 36.1746 51.9755 36.0693C51.8726 35.964 51.8047 35.8295 51.7812 35.6842C51.7577 35.5389 51.7796 35.3899 51.844 35.2576C51.9084 35.1252 52.0123 35.016 52.1412 34.9449C52.8639 34.55 53.4345 33.9257 53.7631 33.1705C54.0916 32.4154 54.1592 31.5723 53.9554 30.7744C53.7517 29.9765 53.2881 29.2691 52.6377 28.7639C51.9873 28.2587 51.1872 27.9845 50.3637 27.9845C49.5402 27.9845 48.7401 28.2587 48.0897 28.7639C47.4393 29.2691 46.9756 29.9765 46.7718 30.7744C46.568 31.5723 46.6358 32.4154 46.9643 33.1705C47.2929 33.9257 47.8635 34.55 48.5862 34.9449C48.7149 35.0163 48.8184 35.1256 48.8825 35.258C48.9467 35.3904 48.9683 35.5394 48.9446 35.6846C48.921 35.8298 48.8532 35.9642 48.7503 36.0694C48.6475 36.1746 48.5146 36.2455 48.37 36.2724C46.87 36.5512 45.5149 37.3461 44.5397 38.5193C43.5644 39.6926 43.0306 41.1702 43.0306 42.6958V45.6103Z" fill="black"/>
</svg>
