<svg width="80" height="50" viewBox="0 0 80 50" fill="none" xmlns="http://www.w3.org/2000/svg">
<path d="M48.1504 27.5307H32.5417C32.4507 27.5308 32.3606 27.5129 32.2765 27.4781C32.1924 27.4433 32.116 27.3923 32.0517 27.3279C31.9873 27.2636 31.9363 27.1872 31.9015 27.1031C31.8667 27.019 31.8488 26.9289 31.8489 26.8379V23.3184C31.849 21.7614 32.3196 20.2408 33.1991 18.9559C34.0785 17.6711 35.3257 16.6819 36.7771 16.1182C36.0941 15.4165 35.633 14.5289 35.4518 13.5665C35.2705 12.6042 35.3769 11.6098 35.7577 10.7076C36.1386 9.80538 36.777 9.03548 37.5931 8.49418C38.4092 7.95287 39.3668 7.66418 40.346 7.66418C41.3253 7.66418 42.2829 7.95287 43.099 8.49418C43.915 9.03548 44.5534 9.80538 44.9343 10.7076C45.3151 11.6098 45.4216 12.6042 45.2403 13.5665C45.059 14.5289 44.598 15.4165 43.915 16.1182C45.3664 16.6819 46.6136 17.671 47.493 18.9558C48.3725 20.2407 48.8431 21.7614 48.8432 23.3184V26.8379C48.8433 26.9289 48.8253 27.019 48.7905 27.1031C48.7557 27.1872 48.7048 27.2636 48.6404 27.3279C48.5761 27.3923 48.4996 27.4433 48.4155 27.4781C48.3314 27.5129 48.2414 27.5308 48.1504 27.5307ZM33.2345 26.1451H47.4576V23.3184C47.4576 21.8387 46.9397 20.4056 45.9939 19.2677C45.048 18.1298 43.7338 17.3588 42.279 17.0884C42.1386 17.0624 42.0097 16.9937 41.9099 16.8916C41.8101 16.7894 41.7443 16.659 41.7214 16.518C41.6986 16.3771 41.72 16.2326 41.7825 16.1042C41.845 15.9758 41.9456 15.8699 42.0706 15.8009C42.7712 15.418 43.3242 14.8127 43.6426 14.0806C43.961 13.3484 44.0265 12.5312 43.8289 11.7577C43.6313 10.9842 43.1817 10.2984 42.5512 9.80873C41.9207 9.31904 41.1451 9.05325 40.3467 9.05325C39.5484 9.05325 38.7727 9.31904 38.1422 9.80873C37.5116 10.2984 37.0621 10.9842 36.8644 11.7577C36.6668 12.5312 36.7324 13.3484 37.0508 14.0806C37.3691 14.8127 37.9223 15.418 38.6228 15.8009C38.7476 15.8702 38.8479 15.9762 38.9101 16.1046C38.9723 16.2331 38.9934 16.3776 38.9705 16.5184C38.9475 16.6593 38.8816 16.7896 38.7819 16.8916C38.6821 16.9936 38.5533 17.0624 38.4131 17.0884C36.9583 17.3589 35.6441 18.13 34.6982 19.2679C33.7524 20.4058 33.2346 21.8387 33.2345 23.3184V26.1451Z" fill="black"/>
<path d="M52.0136 48H23.5187C23.4277 48 23.3376 47.9822 23.2535 47.9474C23.1694 47.9126 23.0931 47.8615 23.0287 47.7972C22.9644 47.7328 22.9133 47.6565 22.8785 47.5724C22.8437 47.4883 22.8259 47.3982 22.8259 47.3072V2.69282C22.8259 2.60182 22.8437 2.51172 22.8785 2.42764C22.9133 2.34356 22.9644 2.26715 23.0287 2.2028C23.0931 2.13846 23.1694 2.08745 23.2535 2.05265C23.3376 2.01785 23.4277 1.99995 23.5187 2H57.1732C57.2642 1.99995 57.3542 2.01785 57.4383 2.05265C57.5224 2.08745 57.5989 2.13846 57.6632 2.2028C57.7276 2.26715 57.7785 2.34356 57.8133 2.42764C57.8481 2.51172 57.8661 2.60182 57.866 2.69282V40.7599C57.8658 40.9155 57.8134 41.0666 57.7172 41.1889L52.5575 47.7361C52.4927 47.8184 52.4101 47.8849 52.3159 47.9306C52.2216 47.9763 52.1183 48 52.0136 48ZM24.2116 46.6144H51.678L56.4804 40.5197V3.38564H24.2116V46.6144Z" fill="black"/>
<path d="M51.628 33.2201H29.0654C28.8816 33.2201 28.7054 33.1471 28.5754 33.0172C28.4455 32.8873 28.3726 32.711 28.3726 32.5273C28.3726 32.3435 28.4455 32.1673 28.5754 32.0374C28.7054 31.9074 28.8816 31.8345 29.0654 31.8345H51.628C51.8117 31.8345 51.988 31.9074 52.1179 32.0374C52.2478 32.1673 52.3208 32.3435 52.3208 32.5273C52.3208 32.711 52.2478 32.8873 52.1179 33.0172C51.988 33.1471 51.8117 33.2201 51.628 33.2201Z" fill="black"/>
<path d="M47.4684 38.766H33.225C33.0413 38.766 32.865 38.693 32.7351 38.5631C32.6052 38.4332 32.5322 38.2569 32.5322 38.0732C32.5322 37.8894 32.6052 37.7132 32.7351 37.5833C32.865 37.4533 33.0413 37.3804 33.225 37.3804H47.4684C47.6522 37.3804 47.8283 37.4533 47.9583 37.5833C48.0882 37.7132 48.1612 37.8894 48.1612 38.0732C48.1612 38.2569 48.0882 38.4332 47.9583 38.5631C47.8283 38.693 47.6522 38.766 47.4684 38.766Z" fill="black"/>
<path d="M51.6279 48C51.5369 48.0001 51.4468 47.9822 51.3627 47.9474C51.2787 47.9126 51.2022 47.8616 51.1379 47.7972C51.0735 47.7329 51.0225 47.6565 50.9877 47.5724C50.9529 47.4884 50.935 47.3982 50.9351 47.3072V40.76C50.935 40.669 50.9529 40.5788 50.9877 40.4947C51.0225 40.4107 51.0735 40.3343 51.1379 40.2699C51.2022 40.2056 51.2787 40.1545 51.3627 40.1197C51.4468 40.0849 51.5369 40.0671 51.6279 40.0671H57.1731C57.3569 40.0671 57.5331 40.1401 57.6631 40.27C57.793 40.4 57.8659 40.5762 57.8659 40.76C57.8659 40.9437 57.793 41.12 57.6631 41.2499C57.5331 41.3798 57.3569 41.4528 57.1731 41.4528H52.3207V47.3072C52.3207 47.3982 52.3029 47.4884 52.2681 47.5724C52.2333 47.6565 52.1822 47.7329 52.1179 47.7972C52.0535 47.8616 51.9772 47.9126 51.8931 47.9474C51.809 47.9822 51.7189 48.0001 51.6279 48Z" fill="black"/>
<path d="M29.0649 15.9561L19.0052 6.91345V11.4348H8.703V20.4788H19.0052V25.0002L29.0649 15.9561Z" fill="#FFC47A"/>
<path d="M19.0046 25.6925C18.9075 25.6928 18.8115 25.6722 18.7231 25.6323C18.6007 25.578 18.4966 25.4893 18.4236 25.377C18.3506 25.2647 18.3117 25.1336 18.3117 24.9997V21.1709H8.70295C8.61195 21.171 8.52189 21.1531 8.43782 21.1183C8.35374 21.0835 8.27728 21.0325 8.21294 20.9681C8.14859 20.9038 8.09762 20.8274 8.06282 20.7433C8.02802 20.6592 8.01008 20.5691 8.01013 20.4781V11.4356C8.01008 11.3446 8.02802 11.2545 8.06282 11.1704C8.09762 11.0864 8.14859 11.0099 8.21294 10.9456C8.27728 10.8813 8.35373 10.8302 8.43782 10.7954C8.5219 10.7606 8.61195 10.7427 8.70295 10.7428H18.3117V6.91403C18.3119 6.78023 18.3507 6.64934 18.4236 6.53713C18.4965 6.42493 18.6003 6.33619 18.7225 6.28168C18.8447 6.22717 18.98 6.2092 19.1122 6.22992C19.2444 6.25064 19.3678 6.30919 19.4674 6.39848L29.5282 15.441C29.6005 15.5059 29.6584 15.5854 29.698 15.6743C29.7376 15.7631 29.7581 15.8593 29.7581 15.9565C29.7581 16.0538 29.7376 16.15 29.698 16.2388C29.6584 16.3276 29.6005 16.4071 29.5282 16.4721L19.4674 25.5152C19.3403 25.6294 19.1754 25.6925 19.0046 25.6925ZM9.39577 19.7853H19.0046C19.0956 19.7852 19.1857 19.8031 19.2698 19.8379C19.3539 19.8727 19.4302 19.9237 19.4946 19.9881C19.5589 20.0524 19.61 20.1288 19.6448 20.2129C19.6796 20.297 19.6974 20.3871 19.6974 20.4781V23.4456L28.0288 15.9565L19.6974 8.46813V11.4356C19.6974 11.5266 19.6796 11.6167 19.6448 11.7008C19.61 11.7849 19.5589 11.8613 19.4946 11.9256C19.4302 11.99 19.3539 12.041 19.2698 12.0758C19.1857 12.1106 19.0956 12.1285 19.0046 12.1284H9.39577V19.7853Z" fill="black"/>
</svg>
