<svg width="64" height="50" viewBox="0 0 64 50" fill="none" xmlns="http://www.w3.org/2000/svg">
<path d="M39.7986 27.5307H24.1899C24.0989 27.5308 24.0087 27.5129 23.9247 27.4781C23.8406 27.4433 23.7642 27.3923 23.6999 27.3279C23.6355 27.2636 23.5845 27.1872 23.5497 27.1031C23.5149 27.019 23.497 26.9289 23.4971 26.8379V23.3184C23.4972 21.7614 23.9678 20.2408 24.8473 18.9559C25.7267 17.6711 26.9739 16.6819 28.4253 16.1182C27.7422 15.4165 27.2812 14.5289 27.0999 13.5665C26.9186 12.6042 27.0251 11.6098 27.4059 10.7076C27.7868 9.80538 28.4252 9.03548 29.2413 8.49418C30.0574 7.95287 31.015 7.66418 31.9942 7.66418C32.9735 7.66418 33.9311 7.95287 34.7472 8.49418C35.5632 9.03548 36.2016 9.80538 36.5825 10.7076C36.9633 11.6098 37.0697 12.6042 36.8884 13.5665C36.7072 14.5289 36.2462 15.4165 35.5632 16.1182C37.0146 16.6819 38.2618 17.671 39.1412 18.9558C40.0206 20.2407 40.4913 21.7614 40.4914 23.3184V26.8379C40.4915 26.9289 40.4735 27.019 40.4387 27.1031C40.4039 27.1872 40.3529 27.2636 40.2886 27.3279C40.2243 27.3923 40.1478 27.4433 40.0637 27.4781C39.9796 27.5129 39.8896 27.5308 39.7986 27.5307ZM24.8827 26.1451H39.1058V23.3184C39.1058 21.8387 38.5879 20.4056 37.6421 19.2677C36.6962 18.1298 35.382 17.3588 33.9272 17.0884C33.7868 17.0624 33.6579 16.9937 33.5581 16.8916C33.4583 16.7894 33.3925 16.659 33.3696 16.518C33.3468 16.3771 33.3682 16.2326 33.4307 16.1042C33.4932 15.9758 33.5938 15.8699 33.7188 15.8009C34.4194 15.418 34.9724 14.8127 35.2908 14.0806C35.6092 13.3484 35.6747 12.5312 35.4771 11.7577C35.2795 10.9842 34.8299 10.2984 34.1994 9.80873C33.5688 9.31904 32.7933 9.05325 31.9949 9.05325C31.1966 9.05325 30.4209 9.31904 29.7904 9.80873C29.1598 10.2984 28.7103 10.9842 28.5126 11.7577C28.315 12.5312 28.3806 13.3484 28.699 14.0806C29.0173 14.8127 29.5705 15.418 30.271 15.8009C30.3958 15.8702 30.496 15.9762 30.5583 16.1046C30.6205 16.2331 30.6416 16.3776 30.6187 16.5184C30.5957 16.6593 30.5298 16.7896 30.4301 16.8916C30.3303 16.9936 30.2015 17.0624 30.0612 17.0884C28.6065 17.3589 27.2923 18.13 26.3464 19.2679C25.4006 20.4058 24.8828 21.8387 24.8827 23.3184V26.1451Z" fill="black"/>
<path d="M43.6623 48H15.1674C15.0764 48 14.9863 47.9822 14.9022 47.9474C14.8181 47.9126 14.7418 47.8615 14.6774 47.7972C14.6131 47.7328 14.562 47.6565 14.5272 47.5724C14.4924 47.4883 14.4746 47.3982 14.4746 47.3072V2.69282C14.4746 2.60182 14.4924 2.51172 14.5272 2.42764C14.562 2.34356 14.6131 2.26715 14.6774 2.2028C14.7418 2.13846 14.8181 2.08745 14.9022 2.05265C14.9863 2.01785 15.0764 1.99995 15.1674 2H48.8219C48.9129 1.99995 49.0029 2.01785 49.087 2.05265C49.1711 2.08745 49.2475 2.13846 49.3119 2.2028C49.3762 2.26715 49.4272 2.34356 49.462 2.42764C49.4968 2.51172 49.5147 2.60182 49.5147 2.69282V40.7599C49.5145 40.9155 49.4621 41.0666 49.3658 41.1889L44.2062 47.7361C44.1413 47.8184 44.0588 47.8849 43.9645 47.9306C43.8703 47.9763 43.767 48 43.6623 48ZM15.8602 46.6144H43.3267L48.1291 40.5197V3.38564H15.8602V46.6144Z" fill="black"/>
<path d="M43.2769 33.2201H20.7143C20.5306 33.2201 20.3543 33.1471 20.2244 33.0172C20.0944 32.8873 20.0215 32.711 20.0215 32.5273C20.0215 32.3435 20.0944 32.1673 20.2244 32.0374C20.3543 31.9074 20.5306 31.8345 20.7143 31.8345H43.2769C43.4606 31.8345 43.6369 31.9074 43.7668 32.0374C43.8967 32.1673 43.9697 32.3435 43.9697 32.5273C43.9697 32.711 43.8967 32.8873 43.7668 33.0172C43.6369 33.1471 43.4606 33.2201 43.2769 33.2201Z" fill="black"/>
<path d="M39.1168 38.766H24.8735C24.6897 38.766 24.5135 38.693 24.3836 38.5631C24.2536 38.4332 24.1807 38.2569 24.1807 38.0732C24.1807 37.8894 24.2536 37.7132 24.3836 37.5833C24.5135 37.4533 24.6897 37.3804 24.8735 37.3804H39.1168C39.3006 37.3804 39.4768 37.4533 39.6067 37.5833C39.7366 37.7132 39.8097 37.8894 39.8097 38.0732C39.8097 38.2569 39.7366 38.4332 39.6067 38.5631C39.4768 38.693 39.3006 38.766 39.1168 38.766Z" fill="black"/>
<path d="M43.2768 48C43.1858 48.0001 43.0957 47.9822 43.0117 47.9474C42.9276 47.9126 42.8511 47.8616 42.7868 47.7972C42.7224 47.7329 42.6715 47.6565 42.6367 47.5724C42.6019 47.4884 42.5839 47.3982 42.584 47.3072V40.76C42.5839 40.669 42.6019 40.5788 42.6367 40.4947C42.6715 40.4107 42.7224 40.3343 42.7868 40.2699C42.8511 40.2056 42.9276 40.1545 43.0117 40.1197C43.0957 40.0849 43.1858 40.0671 43.2768 40.0671H48.8221C49.0058 40.0671 49.1821 40.1401 49.312 40.27C49.4419 40.4 49.5149 40.5762 49.5149 40.76C49.5149 40.9437 49.4419 41.12 49.312 41.2499C49.1821 41.3798 49.0058 41.4528 48.8221 41.4528H43.9696V47.3072C43.9697 47.3982 43.9518 47.4884 43.917 47.5724C43.8822 47.6565 43.8312 47.7329 43.7668 47.7972C43.7025 47.8616 43.6261 47.9126 43.542 47.9474C43.4579 47.9822 43.3678 48.0001 43.2768 48Z" fill="black"/>
<path d="M20.7135 15.9561L10.6538 6.91345V11.4348H0.351562V20.4788H10.6538V25.0002L20.7135 15.9561Z" fill="#F47D39"/>
</svg>
