<svg width="64" height="50" viewBox="0 0 64 50" fill="none" xmlns="http://www.w3.org/2000/svg">
<path d="M43.0226 48H14.5287C14.4377 48.0001 14.3476 47.9822 14.2635 47.9474C14.1795 47.9126 14.103 47.8616 14.0387 47.7972C13.9744 47.7329 13.9233 47.6565 13.8885 47.5724C13.8538 47.4883 13.8359 47.3982 13.8359 47.3072V2.69284C13.8359 2.60185 13.8538 2.51172 13.8885 2.42764C13.9233 2.34356 13.9744 2.26716 14.0388 2.20282C14.1031 2.13847 14.1795 2.08744 14.2635 2.05264C14.3476 2.01784 14.4378 1.99995 14.5287 2H48.1838C48.2748 1.99994 48.3649 2.01781 48.449 2.05261C48.5331 2.08741 48.6094 2.13844 48.6738 2.20279C48.7381 2.26714 48.7891 2.34353 48.8239 2.42761C48.8587 2.5117 48.8766 2.60184 48.8765 2.69284V40.7605C48.8763 40.9161 48.8239 41.0671 48.7277 41.1894L43.5667 47.7361C43.5018 47.8184 43.4192 47.8849 43.325 47.9306C43.2308 47.9763 43.1274 48 43.0226 48ZM15.2216 46.6143H42.6871L47.4908 40.5203V3.38565H15.2216V46.6143Z" fill="black"/>
<path d="M42.6362 48C42.5452 48.0001 42.455 47.9822 42.371 47.9474C42.2869 47.9126 42.2105 47.8615 42.1462 47.7972C42.0818 47.7328 42.0308 47.6565 41.996 47.5724C41.9612 47.4883 41.9433 47.3982 41.9434 47.3072V40.7605C41.9433 40.6695 41.9612 40.5794 41.996 40.4953C42.0308 40.4112 42.0818 40.3348 42.1462 40.2705C42.2105 40.2061 42.2869 40.1551 42.371 40.1203C42.455 40.0855 42.5452 40.0676 42.6362 40.0676H48.1829C48.3666 40.0676 48.5429 40.1406 48.6728 40.2705C48.8027 40.4005 48.8757 40.5767 48.8757 40.7604C48.8757 40.9442 48.8027 41.1204 48.6728 41.2504C48.5429 41.3803 48.3666 41.4533 48.1829 41.4533H43.329V47.3072C43.3291 47.3982 43.3112 47.4883 43.2764 47.5724C43.2416 47.6565 43.1905 47.7328 43.1262 47.7972C43.0618 47.8615 42.9854 47.9126 42.9013 47.9474C42.8172 47.9822 42.7272 48 42.6362 48Z" fill="black"/>
<path d="M31.4863 17.9628H15.0053C14.8216 17.9628 14.6454 17.8898 14.5154 17.7599C14.3855 17.6299 14.3125 17.4537 14.3125 17.27C14.3125 17.0862 14.3855 16.91 14.5154 16.78C14.6454 16.6501 14.8216 16.5771 15.0053 16.5771H30.7935V2.69287C30.7935 2.50913 30.8665 2.3329 30.9964 2.20297C31.1263 2.07305 31.3025 2.00006 31.4863 2.00006C31.67 2.00006 31.8462 2.07305 31.9761 2.20297C32.1061 2.3329 32.1791 2.50913 32.1791 2.69287V17.2699C32.1791 17.3609 32.1612 17.451 32.1264 17.535C32.0916 17.6191 32.0406 17.6955 31.9763 17.7599C31.9119 17.8242 31.8355 17.8753 31.7515 17.9101C31.6674 17.9449 31.5773 17.9628 31.4863 17.9628Z" fill="black"/>
<path d="M33.8611 25.6929H20.8706C20.6869 25.6929 20.5106 25.6199 20.3807 25.49C20.2507 25.36 20.1777 25.1838 20.1777 25.0001C20.1777 24.8163 20.2507 24.6401 20.3807 24.5101C20.5106 24.3802 20.6869 24.3072 20.8706 24.3072H33.8611C34.0448 24.3072 34.2211 24.3802 34.351 24.5101C34.4809 24.6401 34.554 24.8163 34.554 25.0001C34.554 25.1838 34.4809 25.36 34.351 25.49C34.2211 25.6199 34.0448 25.6929 33.8611 25.6929Z" fill="black"/>
<path d="M36.1384 32.6867H20.8705C20.6868 32.6867 20.5106 32.6137 20.3807 32.4838C20.2508 32.3539 20.1777 32.1776 20.1777 31.9939C20.1777 31.8102 20.2508 31.634 20.3807 31.504C20.5106 31.3741 20.6868 31.3011 20.8705 31.3011H36.1384C36.3222 31.3011 36.4984 31.3741 36.6283 31.504C36.7582 31.634 36.8312 31.8102 36.8312 31.9939C36.8312 32.1776 36.7582 32.3539 36.6283 32.4838C36.4984 32.6137 36.3222 32.6867 36.1384 32.6867Z" fill="black"/>
<path d="M36.1385 39.6813H20.8706C20.6869 39.6813 20.5106 39.6083 20.3807 39.4784C20.2507 39.3484 20.1777 39.1722 20.1777 38.9884C20.1777 38.8047 20.2507 38.6285 20.3807 38.4985C20.5106 38.3686 20.6869 38.2956 20.8706 38.2956H36.1385C36.3222 38.2956 36.4985 38.3686 36.6284 38.4985C36.7584 38.6285 36.8314 38.8047 36.8314 38.9884C36.8314 39.1722 36.7584 39.3484 36.6284 39.4784C36.4985 39.6083 36.3222 39.6813 36.1385 39.6813Z" fill="black"/>
<path d="M59.8289 18.9305C60.5263 18.9305 61.2081 18.7237 61.788 18.3362C62.3678 17.9487 62.8197 17.398 63.0866 16.7537C63.3535 16.1094 63.4234 15.4004 63.2873 14.7164C63.1512 14.0324 62.8154 13.4041 62.3222 12.9109C61.8291 12.4178 61.2007 12.082 60.5167 11.946C59.8327 11.8099 59.1237 11.8797 58.4794 12.1466C57.8351 12.4135 57.2844 12.8655 56.897 13.4454C56.5095 14.0252 56.3027 14.707 56.3027 15.4044C56.3027 15.8674 56.394 16.326 56.5712 16.7538C56.7484 17.1816 57.0081 17.5703 57.3355 17.8978C57.6629 18.2252 58.0517 18.4849 58.4795 18.6621C58.9073 18.8393 59.3659 18.9305 59.8289 18.9305Z" fill="#F47D39"/>
<path d="M57.4616 26.7272L43.5723 20.8048V10.0587L57.4616 4.13635C57.7204 4.02605 58.0025 3.98161 58.2827 4.00702C58.5628 4.03243 58.8323 4.12689 59.067 4.28195C59.3017 4.43701 59.4942 4.64784 59.6275 4.89557C59.7608 5.14329 59.8306 5.42018 59.8306 5.70148V25.162C59.8306 25.4433 59.7609 25.7202 59.6276 25.968C59.4944 26.2157 59.3017 26.4266 59.067 26.5817C58.8323 26.7367 58.5628 26.8312 58.2827 26.8566C58.0025 26.882 57.7204 26.8375 57.4616 26.7272Z" fill="#F47D39"/>
<path d="M38.6562 10.0588H43.5715V20.8049H38.6562C37.2312 20.8049 35.8646 20.2388 34.8569 19.2312C33.8493 18.2235 33.2832 16.8569 33.2832 15.4319C33.2832 14.0068 33.8493 12.6402 34.8569 11.6325C35.8646 10.6249 37.2312 10.0588 38.6562 10.0588Z" fill="#F47D39"/>
<path d="M43.5705 20.8048V31.1528C43.135 31.1528 42.7037 31.067 42.3013 30.9003C41.8989 30.7337 41.5333 30.4894 41.2253 30.1814C40.9173 29.8734 40.673 29.5078 40.5063 29.1054C40.3397 28.703 40.2539 28.2718 40.2539 27.8362V20.8048H43.5705Z" fill="#F47D39"/>
<path d="M55.2455 25.2739C55.1546 25.2739 55.0644 25.2561 54.9804 25.2213C54.8963 25.1865 54.8199 25.1354 54.7556 25.0711C54.6912 25.0068 54.6401 24.9304 54.6054 24.8463C54.5706 24.7622 54.5527 24.6721 54.5527 24.5811V6.22748C54.5524 6.13628 54.5701 6.04591 54.6047 5.96155C54.6394 5.87719 54.6903 5.80051 54.7547 5.7359C54.8191 5.67129 54.8956 5.62003 54.9798 5.58505C55.064 5.55007 55.1543 5.53204 55.2455 5.53204C55.3368 5.53204 55.4271 5.55007 55.5113 5.58505C55.5955 5.62003 55.672 5.67129 55.7363 5.7359C55.8007 5.80051 55.8517 5.87719 55.8864 5.96155C55.921 6.04591 55.9387 6.13628 55.9384 6.22748V24.5811C55.9384 24.6721 55.9205 24.7622 55.8857 24.8463C55.8509 24.9303 55.7998 25.0067 55.7355 25.071C55.6711 25.1354 55.5948 25.1864 55.5107 25.2212C55.4266 25.256 55.3365 25.2739 55.2455 25.2739Z" fill="white"/>
<path d="M21.9365 13.0454C21.6547 13.2372 21.3456 13.3852 21.0195 13.4844C20.5458 13.627 20.0478 13.6704 19.5566 13.6121C19.0653 13.5538 18.5913 13.395 18.1641 13.1456C17.6182 12.8259 17.1643 12.3703 16.8467 11.8233C16.5275 11.2728 16.3594 10.6477 16.3594 10.0113C16.3594 9.3749 16.5275 8.74983 16.8467 8.19929C17.1646 7.65483 17.6185 7.20234 18.1641 6.88628C18.7168 6.56177 19.3473 6.39335 19.9883 6.39897C20.6229 6.39505 21.2466 6.56348 21.793 6.88628C22.3386 7.20258 22.7928 7.65499 23.1113 8.19929C23.4348 8.74712 23.6029 9.3727 23.5977 10.0089C23.5986 10.4171 23.5292 10.8224 23.3926 11.2071C23.2611 11.5832 23.0655 11.9338 22.8145 12.2432L23.5498 13.0738L22.624 13.8761L21.9365 13.0454ZM19.9883 12.0903C20.1551 12.0911 20.321 12.0669 20.4805 12.0186C20.6344 11.9721 20.7805 11.903 20.9141 11.8135L20.2364 11.002L21.0674 10.295L21.7169 11.0113C21.8235 10.8675 21.9072 10.7081 21.9648 10.5386C22.0226 10.368 22.0517 10.189 22.0508 10.0088C22.0541 9.64482 21.9585 9.28673 21.7744 8.9727C21.5922 8.66025 21.3321 8.40034 21.0195 8.21831C20.7079 8.03223 20.3513 7.93481 19.9883 7.93657C19.6189 7.9331 19.2556 8.03051 18.9375 8.21831C18.6242 8.40075 18.363 8.66049 18.1787 8.9727C17.9915 9.28569 17.8938 9.64412 17.8965 10.0088C17.8946 10.3764 17.9922 10.7376 18.1787 11.0542C18.3616 11.3717 18.6255 11.6349 18.9434 11.8169C19.2614 11.999 19.622 12.0933 19.9883 12.0903Z" fill="black"/>
<path d="M24.2949 13.4941V12.6157L26.9404 10.1518C27.17 9.9573 27.3737 9.73432 27.5468 9.48825C27.6848 9.29065 27.7597 9.05591 27.7617 8.81491C27.7646 8.62961 27.7185 8.44683 27.6279 8.28513C27.5422 8.13275 27.4143 8.00832 27.2597 7.92673C27.0992 7.8429 26.9204 7.80026 26.7393 7.80271C26.5013 7.79928 26.2692 7.87675 26.081 8.02243C25.8981 8.15855 25.7532 8.33927 25.6601 8.54734L24.3622 8.10834C24.4524 7.78113 24.6191 7.48005 24.8486 7.22992C25.0836 6.96906 25.3698 6.75931 25.6894 6.61371C26.0158 6.46378 26.3712 6.38728 26.7304 6.38959C27.1607 6.38443 27.5855 6.4861 27.9667 6.68549C28.3348 6.87892 28.6398 7.17376 28.8456 7.5351C29.0647 7.92896 29.1749 8.37407 29.165 8.82465C29.1641 9.22816 29.0464 9.62279 28.8261 9.96088C28.563 10.3614 28.2503 10.7271 27.8954 11.0493L26.5585 12.1762H29.3369V13.4941H24.2949Z" fill="black"/>
</svg>
