<svg width="60" height="50" viewBox="0 0 60 50" fill="none" xmlns="http://www.w3.org/2000/svg">
<path d="M39.3489 40.7609V2.69275H5.69409V47.3081H34.1887L39.3489 40.7609Z" fill="white"/>
<path d="M34.1881 48H5.69417C5.60317 48 5.51303 47.9822 5.42895 47.9473C5.34487 47.9126 5.2685 47.8615 5.20415 47.7972C5.13981 47.7328 5.08875 47.6564 5.05395 47.5723C5.01915 47.4883 5.00129 47.3982 5.00134 47.3072V2.69283C5.00129 2.60183 5.01915 2.51173 5.05395 2.42765C5.08875 2.34357 5.13981 2.26715 5.20415 2.20281C5.2685 2.13846 5.34487 2.08745 5.42895 2.05265C5.51303 2.01785 5.60317 1.99995 5.69417 2H39.3491C39.4401 1.99995 39.5303 2.01785 39.6143 2.05265C39.6984 2.08745 39.7748 2.13846 39.8391 2.20281C39.9035 2.26715 39.9545 2.34357 39.9893 2.42765C40.0241 2.51173 40.042 2.60183 40.0419 2.69283V40.7605C40.0417 40.9161 39.9893 41.0672 39.8931 41.1894L34.7321 47.7361C34.6672 47.8184 34.5846 47.8849 34.4903 47.9306C34.3961 47.9763 34.2928 48 34.1881 48ZM6.387 46.6143H33.8525L38.6563 40.5203V3.38566H6.387V46.6143Z" fill="black"/>
<path d="M33.8024 48C33.7114 48 33.6213 47.9821 33.5372 47.9473C33.4531 47.9125 33.3768 47.8615 33.3124 47.7972C33.2481 47.7328 33.197 47.6564 33.1622 47.5723C33.1274 47.4882 33.1096 47.3981 33.1096 47.3071V40.7605C33.1096 40.6695 33.1274 40.5794 33.1622 40.4953C33.197 40.4112 33.2481 40.3348 33.3124 40.2704C33.3768 40.2061 33.4531 40.1551 33.5372 40.1203C33.6213 40.0855 33.7114 40.0676 33.8024 40.0676H39.3491C39.5329 40.0676 39.7091 40.1406 39.839 40.2706C39.9689 40.4005 40.042 40.5767 40.042 40.7605C40.042 40.9442 39.9689 41.1204 39.839 41.2503C39.7091 41.3803 39.5329 41.4533 39.3491 41.4533H34.4953V47.3071C34.4953 47.3981 34.4775 47.4882 34.4427 47.5723C34.4079 47.6564 34.3568 47.7328 34.2925 47.7972C34.2281 47.8615 34.1518 47.9125 34.0677 47.9473C33.9836 47.9821 33.8934 48 33.8024 48Z" fill="black"/>
<path d="M20.8823 17.9627H5.69417C5.51042 17.9627 5.33425 17.8897 5.20432 17.7598C5.07439 17.6299 5.00134 17.4537 5.00134 17.2699C5.00134 17.0862 5.07439 16.91 5.20432 16.78C5.33425 16.6501 5.51042 16.5771 5.69417 16.5771H20.1894V2.69283C20.1894 2.50908 20.2623 2.33282 20.3922 2.20289C20.5222 2.07296 20.6985 2 20.8823 2C21.066 2 21.2422 2.07296 21.3721 2.20289C21.502 2.33282 21.5751 2.50908 21.5751 2.69283V17.2699C21.5751 17.3609 21.5573 17.451 21.5225 17.5351C21.4877 17.6192 21.4366 17.6956 21.3723 17.7599C21.3079 17.8243 21.2316 17.8753 21.1475 17.9101C21.0634 17.9449 20.9733 17.9628 20.8823 17.9627Z" fill="black"/>
<path d="M25.0258 25.6929H12.0352C11.8515 25.6929 11.6751 25.6199 11.5452 25.49C11.4153 25.36 11.3424 25.1838 11.3424 25.0001C11.3424 24.8163 11.4153 24.6401 11.5452 24.5102C11.6751 24.3803 11.8515 24.3073 12.0352 24.3073H25.0258C25.2095 24.3073 25.3857 24.3803 25.5156 24.5102C25.6455 24.6401 25.7186 24.8163 25.7186 25.0001C25.7186 25.1838 25.6455 25.36 25.5156 25.49C25.3857 25.6199 25.2095 25.6929 25.0258 25.6929Z" fill="black"/>
<path d="M27.3032 32.6867H12.0352C11.8515 32.6867 11.6751 32.6137 11.5452 32.4837C11.4153 32.3538 11.3424 32.1776 11.3424 31.9939C11.3424 31.8101 11.4153 31.6339 11.5452 31.504C11.6751 31.374 11.8515 31.301 12.0352 31.301H27.3032C27.4869 31.301 27.6631 31.374 27.793 31.504C27.9229 31.6339 27.996 31.8101 27.996 31.9939C27.996 32.1776 27.9229 32.3538 27.793 32.4837C27.6631 32.6137 27.4869 32.6867 27.3032 32.6867Z" fill="black"/>
<path d="M27.3032 39.6813H12.0352C11.8515 39.6813 11.6751 39.6083 11.5452 39.4784C11.4153 39.3484 11.3424 39.1722 11.3424 38.9885C11.3424 38.8047 11.4153 38.6285 11.5452 38.4986C11.6751 38.3687 11.8515 38.2957 12.0352 38.2957H27.3032C27.4869 38.2957 27.6631 38.3687 27.793 38.4986C27.9229 38.6285 27.996 38.8047 27.996 38.9885C27.996 39.1722 27.9229 39.3484 27.793 39.4784C27.6631 39.6083 27.4869 39.6813 27.3032 39.6813Z" fill="black"/>
<path d="M50.7797 19.665C52.7272 19.665 54.3059 18.0862 54.3059 16.1388C54.3059 14.1913 52.7272 12.6125 50.7797 12.6125C48.8323 12.6125 47.2535 14.1913 47.2535 16.1388C47.2535 18.0862 48.8323 19.665 50.7797 19.665Z" fill="#8EBFE4"/>
<path d="M50.7795 20.3578C49.9451 20.3577 49.1295 20.1103 48.4358 19.6467C47.7421 19.1831 47.2013 18.5242 46.882 17.7533C46.5627 16.9824 46.4792 16.1341 46.642 15.3158C46.8048 14.4974 47.2066 13.7457 47.7966 13.1557C48.3866 12.5657 49.1383 12.1639 49.9566 12.0011C50.775 11.8383 51.6233 11.9219 52.3942 12.2411C53.1651 12.5604 53.8239 13.1011 54.2875 13.7948C54.7511 14.4886 54.9987 15.3042 54.9987 16.1386C54.9974 17.2572 54.5526 18.3296 53.7616 19.1206C52.9706 19.9116 51.8981 20.3565 50.7795 20.3578ZM50.7795 13.3057C50.2191 13.3058 49.6713 13.472 49.2054 13.7834C48.7395 14.0948 48.3765 14.5373 48.1621 15.055C47.9477 15.5728 47.8917 16.1424 48.0011 16.692C48.1105 17.2416 48.3804 17.7464 48.7766 18.1426C49.1729 18.5388 49.6778 18.8085 50.2274 18.9178C50.777 19.027 51.3467 18.9709 51.8644 18.7564C52.3821 18.5419 52.8245 18.1787 53.1357 17.7127C53.447 17.2468 53.6131 16.699 53.6131 16.1386C53.6122 15.3874 53.3134 14.6672 52.7822 14.1361C52.251 13.605 51.5307 13.3064 50.7795 13.3057Z" fill="black"/>
<path d="M29.6059 10.7932H34.5212V21.5394H29.6059C28.9003 21.5394 28.2016 21.4004 27.5497 21.1304C26.8978 20.8604 26.3055 20.4646 25.8065 19.9657C25.3076 19.4667 24.9118 18.8744 24.6418 18.2225C24.3718 17.5706 24.2328 16.8719 24.2328 16.1663C24.2328 15.4607 24.3718 14.762 24.6418 14.1101C24.9118 13.4582 25.3076 12.8659 25.8065 12.3669C26.3055 11.868 26.8978 11.4722 27.5497 11.2022C28.2016 10.9322 28.9003 10.7932 29.6059 10.7932Z" fill="#8EBFE4"/>
<path d="M34.521 22.232H29.6062C28.8089 22.2332 28.019 22.0772 27.282 21.7729C26.545 21.4686 25.8751 21.022 25.3109 20.4586C24.7466 19.8952 24.2992 19.2261 23.9937 18.4895C23.6883 17.753 23.5311 16.9634 23.5311 16.1661C23.5311 15.3687 23.6883 14.5792 23.9937 13.8426C24.2992 13.1061 24.7466 12.4369 25.3109 11.8735C25.8751 11.3101 26.545 10.8635 27.282 10.5592C28.019 10.2549 28.8089 10.0989 29.6062 10.1001H34.521C34.612 10.1001 34.7021 10.118 34.7862 10.1528C34.8703 10.1876 34.9467 10.2386 35.011 10.3029C35.0753 10.3673 35.1264 10.4437 35.1612 10.5278C35.196 10.6118 35.2139 10.7019 35.2138 10.7929V21.5392C35.2139 21.6302 35.196 21.7203 35.1612 21.8044C35.1264 21.8885 35.0753 21.9649 35.011 22.0292C34.9467 22.0936 34.8703 22.1446 34.7862 22.1794C34.7021 22.2142 34.612 22.2321 34.521 22.232ZM29.6062 11.4858C28.9909 11.4847 28.3814 11.605 27.8126 11.8397C27.2438 12.0744 26.7269 12.419 26.2914 12.8537C25.856 13.2885 25.5106 13.8048 25.2749 14.3732C25.0392 14.9415 24.9178 15.5508 24.9178 16.1661C24.9178 16.7814 25.0392 17.3906 25.2749 17.959C25.5106 18.5274 25.856 19.0437 26.2914 19.4784C26.7269 19.9131 27.2438 20.2577 27.8126 20.4924C28.3814 20.7272 28.9909 20.8474 29.6062 20.8464H33.8282V11.4858H29.6062Z" fill="black"/>
<path d="M48.4107 27.4618L34.5214 21.5393V10.7931L48.4107 4.87056C48.6695 4.76023 48.9516 4.71581 49.2318 4.74121C49.5119 4.76661 49.7814 4.86104 50.0161 5.01611C50.2508 5.17119 50.4434 5.38203 50.5767 5.62978C50.7099 5.87753 50.7798 6.15446 50.7798 6.43577V25.8966C50.7798 26.1779 50.7099 26.4549 50.5767 26.7026C50.4434 26.9503 50.2508 27.1612 50.0161 27.3163C49.7814 27.4713 49.5119 27.5658 49.2318 27.5912C48.9516 27.6166 48.6695 27.5721 48.4107 27.4618Z" fill="#8EBFE4"/>
<path d="M49.0798 28.2922C48.7566 28.2918 48.4367 28.2262 48.1394 28.0994L34.249 22.1765C34.124 22.1233 34.0175 22.0345 33.9426 21.9211C33.8678 21.8078 33.828 21.6749 33.8281 21.5391V10.7929C33.828 10.6571 33.8678 10.5242 33.9426 10.4108C34.0175 10.2975 34.124 10.2087 34.249 10.1554L48.1394 4.23324C48.5034 4.07791 48.9003 4.01531 49.2945 4.05102C49.6887 4.08673 50.0679 4.21964 50.3982 4.43786C50.7284 4.65608 50.9994 4.95277 51.1869 5.3014C51.3743 5.65004 51.4724 6.03971 51.4722 6.43554V25.8963C51.472 26.531 51.2198 27.1398 50.7713 27.5889C50.3228 28.0381 49.7146 28.2911 49.0798 28.2922ZM35.2138 21.0811L48.6833 26.8247C48.8367 26.8899 49.0038 26.9162 49.1698 26.9011C49.3358 26.8859 49.4956 26.8299 49.6346 26.7379C49.7736 26.6459 49.8876 26.5209 49.9665 26.3741C50.0454 26.2272 50.0867 26.0631 50.0866 25.8964V6.43566C50.0866 6.26902 50.0452 6.105 49.9663 5.95824C49.8874 5.81148 49.7733 5.68655 49.6343 5.59466C49.4953 5.50277 49.3356 5.44676 49.1696 5.43165C49.0037 5.41653 48.8367 5.44279 48.6833 5.50806L35.2138 11.251V21.0811Z" fill="black"/>
<path d="M34.5214 21.5393V31.8875C33.6418 31.8875 32.798 31.538 32.176 30.916C31.554 30.294 31.2046 29.4504 31.2046 28.5708V21.5393H34.5214Z" fill="#8EBFE4"/>
<path d="M34.5211 32.5804C33.458 32.5793 32.4389 32.1565 31.6872 31.4048C30.9355 30.6532 30.5127 29.634 30.5116 28.5709V21.5391C30.5115 21.4481 30.5294 21.358 30.5642 21.274C30.599 21.1899 30.6501 21.1135 30.7144 21.0491C30.7787 20.9848 30.8551 20.9338 30.9392 20.899C31.0233 20.8642 31.1134 20.8463 31.2044 20.8463H34.5211C34.6121 20.8463 34.7022 20.8642 34.7863 20.899C34.8704 20.9338 34.9467 20.9848 35.0111 21.0491C35.0754 21.1135 35.1265 21.1899 35.1613 21.274C35.1961 21.358 35.2139 21.4481 35.2139 21.5391V31.8876C35.214 31.9786 35.1961 32.0687 35.1613 32.1528C35.1265 32.2368 35.0754 32.3133 35.0111 32.3776C34.9467 32.442 34.8704 32.493 34.7863 32.5278C34.7022 32.5626 34.6121 32.5805 34.5211 32.5804ZM31.8973 22.232V28.5709C31.8978 29.146 32.087 29.705 32.4358 30.1622C32.7846 30.6194 33.2738 30.9496 33.8282 31.1021V22.232H31.8973Z" fill="black"/>
<path d="M46.1962 27.008C46.1052 27.0081 46.0151 26.9902 45.931 26.9554C45.8469 26.9206 45.7706 26.8696 45.7062 26.8052C45.6419 26.7409 45.5908 26.6645 45.556 26.5804C45.5212 26.4963 45.5034 26.4062 45.5034 26.3152V5.96199C45.5034 5.77824 45.5763 5.60199 45.7062 5.47206C45.8362 5.34213 46.0125 5.26917 46.1962 5.26917C46.38 5.26917 46.5562 5.34213 46.6861 5.47206C46.816 5.60199 46.8891 5.77824 46.8891 5.96199V26.3152C46.8891 26.4062 46.8713 26.4963 46.8365 26.5804C46.8017 26.6644 46.7506 26.7409 46.6863 26.8052C46.6219 26.8696 46.5456 26.9206 46.4615 26.9554C46.3774 26.9902 46.2872 27.0081 46.1962 27.008Z" fill="black"/>
<path d="M13.2416 12.7781C12.9705 12.9627 12.673 13.1052 12.3593 13.2007C11.9037 13.3379 11.4246 13.3797 10.9521 13.3236C10.4797 13.2675 10.024 13.1146 9.61318 12.8746C9.08796 12.567 8.65127 12.1288 8.34576 11.6024C8.03854 11.0729 7.87671 10.4716 7.87671 9.85946C7.87671 9.24729 8.03854 8.64602 8.34576 8.11652C8.65171 7.59291 9.08848 7.15772 9.61318 6.85362C10.1437 6.5468 10.7456 6.38525 11.3584 6.38525C11.9713 6.38525 12.5734 6.5468 13.1039 6.85362C13.6284 7.15791 14.065 7.59305 14.3711 8.11652C14.6825 8.64349 14.8444 9.24532 14.8395 9.85739C14.8403 10.2501 14.7735 10.64 14.6421 11.01C14.5152 11.3715 14.3273 11.7086 14.0866 12.0067L14.7933 12.8057L13.9028 13.5775L13.2416 12.7781ZM11.3674 11.8596C11.5276 11.8604 11.6871 11.8372 11.8403 11.7907C11.9888 11.7459 12.1298 11.6794 12.2588 11.5933L11.6064 10.8126L12.4055 10.1328L13.0301 10.8216C13.1329 10.6834 13.2135 10.53 13.2691 10.367C13.3246 10.2028 13.3525 10.0306 13.3518 9.8573C13.3547 9.5071 13.2626 9.16266 13.0853 8.86064C12.9101 8.56004 12.66 8.31004 12.3593 8.13504C12.0595 7.95613 11.7165 7.86243 11.3674 7.86403C11.0122 7.86079 10.663 7.95449 10.3571 8.13504C10.0558 8.31078 9.80444 8.56052 9.62671 8.86064C9.44676 9.16173 9.35314 9.50656 9.35624 9.8573C9.35392 10.2108 9.44743 10.5583 9.62671 10.8629C9.80276 11.1682 10.0567 11.4213 10.3625 11.5964C10.6683 11.7715 11.015 11.8623 11.3674 11.8596Z" fill="black"/>
<path d="M16.4747 13.21V7.77207H15.5559V6.50439H17.8247V13.21H16.4747Z" fill="black"/>
</svg>
