<svg width="64" height="50" viewBox="0 0 64 50" fill="none" xmlns="http://www.w3.org/2000/svg">
<path d="M43.1867 48H14.6928C14.6018 48 14.5117 47.9822 14.4276 47.9473C14.3435 47.9126 14.2672 47.8615 14.2028 47.7972C14.1385 47.7328 14.0874 47.6564 14.0526 47.5723C14.0178 47.4883 13.9999 47.3982 14 47.3072V2.69283C13.9999 2.60183 14.0178 2.51173 14.0526 2.42765C14.0874 2.34357 14.1385 2.26715 14.2028 2.20281C14.2672 2.13846 14.3435 2.08745 14.4276 2.05265C14.5117 2.01785 14.6018 1.99995 14.6928 2H48.3478C48.4388 1.99995 48.5289 2.01785 48.613 2.05265C48.6971 2.08745 48.7734 2.13846 48.8378 2.20281C48.9021 2.26715 48.9532 2.34357 48.988 2.42765C49.0228 2.51173 49.0406 2.60183 49.0406 2.69283V40.7605C49.0404 40.9161 48.988 41.0672 48.8917 41.1894L43.7307 47.7361C43.6659 47.8184 43.5832 47.8849 43.489 47.9306C43.3948 47.9763 43.2915 48 43.1867 48ZM15.3857 46.6143H42.8512L47.6549 40.5203V3.38566H15.3857V46.6143Z" fill="black"/>
<path d="M42.8012 48C42.7102 48 42.6201 47.9821 42.536 47.9473C42.4519 47.9125 42.3756 47.8615 42.3112 47.7972C42.2469 47.7328 42.1958 47.6564 42.161 47.5723C42.1262 47.4882 42.1083 47.3981 42.1084 47.3071V40.7605C42.1083 40.6695 42.1262 40.5794 42.161 40.4953C42.1958 40.4112 42.2469 40.3348 42.3112 40.2704C42.3756 40.2061 42.4519 40.1551 42.536 40.1203C42.6201 40.0855 42.7102 40.0676 42.8012 40.0676H48.3479C48.5317 40.0676 48.7078 40.1406 48.8378 40.2706C48.9677 40.4005 49.0407 40.5767 49.0407 40.7605C49.0407 40.9442 48.9677 41.1204 48.8378 41.2503C48.7078 41.3803 48.5317 41.4533 48.3479 41.4533H43.4941V47.3071C43.4941 47.3981 43.4762 47.4882 43.4414 47.5723C43.4067 47.6564 43.3556 47.7328 43.2912 47.7972C43.2269 47.8615 43.1505 47.9125 43.0664 47.9473C42.9824 47.9821 42.8922 48 42.8012 48Z" fill="black"/>
<path d="M29.8809 17.9627H14.6928C14.5091 17.9627 14.3329 17.8897 14.203 17.7598C14.073 17.6299 14 17.4537 14 17.2699C14 17.0862 14.073 16.91 14.203 16.78C14.3329 16.6501 14.5091 16.5771 14.6928 16.5771H29.1881V2.69283C29.1881 2.50908 29.261 2.33282 29.3909 2.20289C29.5208 2.07296 29.6972 2 29.8809 2C30.0647 2 30.2408 2.07296 30.3708 2.20289C30.5007 2.33282 30.5737 2.50908 30.5737 2.69283V17.2699C30.5738 17.3609 30.5559 17.451 30.5211 17.5351C30.4863 17.6192 30.4353 17.6956 30.3709 17.7599C30.3066 17.8243 30.2302 17.8753 30.1461 17.9101C30.0621 17.9449 29.9719 17.9628 29.8809 17.9627Z" fill="black"/>
<path d="M34.0242 25.6928H21.0336C20.8499 25.6928 20.6736 25.6198 20.5436 25.4899C20.4137 25.3599 20.3408 25.1837 20.3408 25C20.3408 24.8162 20.4137 24.64 20.5436 24.5101C20.6736 24.3801 20.8499 24.3071 21.0336 24.3071H34.0242C34.2079 24.3071 34.3841 24.3801 34.514 24.5101C34.644 24.64 34.717 24.8162 34.717 25C34.717 25.1837 34.644 25.3599 34.514 25.4899C34.3841 25.6198 34.2079 25.6928 34.0242 25.6928Z" fill="black"/>
<path d="M36.3016 32.6867H21.0336C20.8499 32.6867 20.6736 32.6137 20.5436 32.4837C20.4137 32.3538 20.3408 32.1776 20.3408 31.9939C20.3408 31.8101 20.4137 31.6339 20.5436 31.504C20.6736 31.374 20.8499 31.301 21.0336 31.301H36.3016C36.4853 31.301 36.6615 31.374 36.7914 31.504C36.9214 31.6339 36.9944 31.8101 36.9944 31.9939C36.9944 32.1776 36.9214 32.3538 36.7914 32.4837C36.6615 32.6137 36.4853 32.6867 36.3016 32.6867Z" fill="black"/>
<path d="M36.3016 39.6813H21.0336C20.8499 39.6813 20.6736 39.6083 20.5436 39.4784C20.4137 39.3484 20.3408 39.1722 20.3408 38.9885C20.3408 38.8047 20.4137 38.6285 20.5436 38.4986C20.6736 38.3687 20.8499 38.2957 21.0336 38.2957H36.3016C36.4853 38.2957 36.6615 38.3687 36.7914 38.4986C36.9214 38.6285 36.9944 38.8047 36.9944 38.9885C36.9944 39.1722 36.9214 39.3484 36.7914 39.4784C36.6615 39.6083 36.4853 39.6813 36.3016 39.6813Z" fill="black"/>
<path d="M22.2399 12.7781C21.9688 12.9627 21.6713 13.1052 21.3576 13.2007C20.902 13.3379 20.4229 13.3797 19.9504 13.3236C19.478 13.2675 19.0223 13.1146 18.6115 12.8746C18.0863 12.567 17.6496 12.1288 17.344 11.6024C17.0368 11.0729 16.875 10.4716 16.875 9.85946C16.875 9.24729 17.0368 8.64602 17.344 8.11652C17.65 7.59291 18.0868 7.15772 18.6115 6.85362C19.142 6.5468 19.7439 6.38525 20.3567 6.38525C20.9696 6.38525 21.5717 6.5468 22.1022 6.85362C22.6267 7.15791 23.0633 7.59305 23.3694 8.11652C23.6808 8.64349 23.8427 9.24532 23.8378 9.85739C23.8386 10.2501 23.7718 10.64 23.6404 11.01C23.5134 11.3715 23.3256 11.7086 23.0849 12.0067L23.7916 12.8057L22.901 13.5775L22.2399 12.7781ZM20.3657 11.8596C20.5259 11.8604 20.6854 11.8372 20.8386 11.7907C20.9871 11.7459 21.1281 11.6794 21.2571 11.5933L20.6047 10.8126L21.4038 10.1328L22.0284 10.8216C22.1312 10.6834 22.2118 10.53 22.2674 10.367C22.3229 10.2028 22.3508 10.0306 22.3501 9.8573C22.353 9.5071 22.2609 9.16266 22.0836 8.86064C21.9084 8.56004 21.6583 8.31004 21.3576 8.13504C21.0578 7.95613 20.7148 7.86243 20.3657 7.86403C20.0105 7.86079 19.6613 7.95449 19.3554 8.13504C19.0541 8.31078 18.8027 8.56052 18.625 8.86064C18.4451 9.16173 18.3514 9.50656 18.3545 9.8573C18.3522 10.2108 18.4457 10.5583 18.625 10.8629C18.801 11.1682 19.055 11.4213 19.3608 11.5964C19.6666 11.7715 20.0133 11.8623 20.3657 11.8596Z" fill="black"/>
<path d="M25.4725 13.21V7.77207H24.5537V6.50439H26.8225V13.21H25.4725Z" fill="black"/>
<path d="M59.5457 18.9305C61.4931 18.9305 63.0718 17.3518 63.0718 15.4043C63.0718 13.4569 61.4931 11.8782 59.5457 11.8782C57.5982 11.8782 56.0195 13.4569 56.0195 15.4043C56.0195 17.3518 57.5982 18.9305 59.5457 18.9305Z" fill="#F47D39"/>
<path d="M57.1764 26.7272L43.2871 20.8048V10.0587L57.1764 4.13635C57.4352 4.02602 57.7173 3.98155 57.9975 4.00695C58.2776 4.03235 58.5471 4.12682 58.7818 4.2819C59.0165 4.43697 59.2091 4.64781 59.3423 4.89555C59.4756 5.1433 59.5455 5.42018 59.5455 5.70149V25.162C59.5455 25.4433 59.4756 25.7203 59.3423 25.968C59.2091 26.2157 59.0165 26.4266 58.7818 26.5817C58.5471 26.7367 58.2776 26.8312 57.9975 26.8566C57.7173 26.882 57.4352 26.8375 57.1764 26.7272Z" fill="#F47D39"/>
<path d="M38.372 10.0588H43.2872V20.8048H38.372C36.947 20.8048 35.5804 20.2388 34.5727 19.2311C33.5651 18.2235 32.999 16.8568 32.999 15.4318C32.999 14.0068 33.5651 12.6402 34.5728 11.6325C35.5804 10.6249 36.947 10.0588 38.372 10.0588Z" fill="#F47D39"/>
<path d="M43.2873 20.8047V31.1527C42.4077 31.1527 41.5641 30.8033 40.9421 30.1813C40.3201 29.5593 39.9707 28.7157 39.9707 27.836V20.8047H43.2873Z" fill="#F47D39"/>
<path d="M54.9623 25.2739C54.8714 25.2739 54.7812 25.256 54.6971 25.2212C54.6131 25.1864 54.5367 25.1354 54.4723 25.0711C54.408 25.0067 54.3569 24.9303 54.3221 24.8462C54.2873 24.7622 54.2695 24.6721 54.2695 24.5811V6.22749C54.2695 6.04374 54.3426 5.86753 54.4725 5.7376C54.6024 5.60767 54.7786 5.53467 54.9623 5.53467C55.1461 5.53467 55.3223 5.60767 55.4522 5.7376C55.5821 5.86753 55.6552 6.04374 55.6552 6.22749V24.5811C55.6552 24.6721 55.6374 24.7622 55.6026 24.8462C55.5678 24.9303 55.5167 25.0067 55.4524 25.0711C55.388 25.1354 55.3116 25.1864 55.2276 25.2212C55.1435 25.256 55.0533 25.2739 54.9623 25.2739Z" fill="white"/>
</svg>
