<svg width="64" height="50" viewBox="0 0 64 50" fill="none" xmlns="http://www.w3.org/2000/svg">
<path d="M43.1896 48H14.6948C14.6038 48.0001 14.5136 47.9822 14.4296 47.9474C14.3455 47.9126 14.2691 47.8615 14.2048 47.7972C14.1404 47.7329 14.0894 47.6564 14.0546 47.5724C14.0198 47.4883 14.0019 47.3982 14.002 47.3072V2.69282C14.0019 2.60182 14.0198 2.51172 14.0546 2.42764C14.0894 2.34356 14.1404 2.26715 14.2048 2.2028C14.2691 2.13846 14.3455 2.08745 14.4296 2.05265C14.5136 2.01785 14.6038 1.99995 14.6948 2H48.3505C48.4415 1.99995 48.5317 2.01785 48.6158 2.05265C48.6998 2.08745 48.7762 2.13846 48.8405 2.2028C48.9049 2.26715 48.956 2.34356 48.9907 2.42764C49.0256 2.51172 49.0434 2.60182 49.0434 2.69282V40.7606C49.0431 40.9162 48.9907 41.0672 48.8945 41.1895L43.7336 47.7361C43.6687 47.8183 43.5861 47.8848 43.4919 47.9305C43.3976 47.9762 43.2943 48 43.1896 48ZM15.3876 46.6144H42.854L47.6577 40.5203V3.38559H15.3876V46.6144Z" fill="black"/>
<path d="M42.8041 48.0001C42.7131 48.0001 42.6232 47.9822 42.5391 47.9474C42.455 47.9126 42.3785 47.8616 42.3141 47.7973C42.2498 47.7329 42.1989 47.6565 42.1641 47.5724C42.1293 47.4884 42.1113 47.3983 42.1113 47.3073V40.7607C42.1113 40.6697 42.1293 40.5795 42.1641 40.4955C42.1989 40.4114 42.2498 40.335 42.3141 40.2707C42.3785 40.2063 42.455 40.1553 42.5391 40.1205C42.6232 40.0857 42.7131 40.0678 42.8041 40.0679H48.3507C48.5345 40.0679 48.7108 40.1408 48.8408 40.2708C48.9707 40.4007 49.0436 40.5769 49.0436 40.7607C49.0436 40.9444 48.9707 41.1206 48.8408 41.2506C48.7108 41.3805 48.5345 41.4535 48.3507 41.4535H43.497V47.3073C43.497 47.3983 43.4792 47.4884 43.4444 47.5724C43.4096 47.6565 43.3585 47.7329 43.2942 47.7973C43.2298 47.8616 43.1534 47.9126 43.0694 47.9474C42.9853 47.9822 42.8951 48.0001 42.8041 48.0001Z" fill="black"/>
<path d="M29.8683 11.7042H21.0375C20.8538 11.7042 20.6776 11.6312 20.5477 11.5013C20.4178 11.3714 20.3447 11.1952 20.3447 11.0114C20.3447 10.8277 20.4178 10.6515 20.5477 10.5215C20.6776 10.3916 20.8538 10.3186 21.0375 10.3186H29.8683C30.052 10.3186 30.2282 10.3916 30.3581 10.5215C30.488 10.6515 30.5611 10.8277 30.5611 11.0114C30.5611 11.1952 30.488 11.3714 30.3581 11.5013C30.2282 11.6312 30.052 11.7042 29.8683 11.7042Z" fill="black"/>
<path d="M29.8683 18.6986H21.0375C20.8538 18.6986 20.6776 18.6256 20.5477 18.4957C20.4178 18.3658 20.3447 18.1896 20.3447 18.0058C20.3447 17.8221 20.4178 17.6458 20.5477 17.5159C20.6776 17.386 20.8538 17.313 21.0375 17.313H29.8683C30.052 17.313 30.2282 17.386 30.3581 17.5159C30.488 17.6458 30.5611 17.8221 30.5611 18.0058C30.5611 18.1896 30.488 18.3658 30.3581 18.4957C30.2282 18.6256 30.052 18.6986 29.8683 18.6986Z" fill="black"/>
<path d="M34.0279 25.6925H21.0375C20.8538 25.6925 20.6776 25.6195 20.5477 25.4896C20.4178 25.3597 20.3447 25.1834 20.3447 24.9997C20.3447 24.816 20.4178 24.6397 20.5477 24.5098C20.6776 24.3799 20.8538 24.3069 21.0375 24.3069H34.0279C34.2116 24.3069 34.3878 24.3799 34.5177 24.5098C34.6476 24.6397 34.7207 24.816 34.7207 24.9997C34.7207 25.1834 34.6476 25.3597 34.5177 25.4896C34.3878 25.6195 34.2116 25.6925 34.0279 25.6925Z" fill="black"/>
<path d="M36.3039 32.6871H21.0375C20.8538 32.6871 20.6776 32.6141 20.5477 32.4842C20.4178 32.3543 20.3447 32.1781 20.3447 31.9943C20.3447 31.8106 20.4178 31.6344 20.5477 31.5044C20.6776 31.3745 20.8538 31.3015 21.0375 31.3015H36.3039C36.4876 31.3015 36.6638 31.3745 36.7937 31.5044C36.9237 31.6344 36.9967 31.8106 36.9967 31.9943C36.9967 32.1781 36.9237 32.3543 36.7937 32.4842C36.6638 32.6141 36.4876 32.6871 36.3039 32.6871Z" fill="black"/>
<path d="M36.3039 39.6808H21.0375C20.8538 39.6808 20.6776 39.6078 20.5477 39.4779C20.4178 39.3479 20.3447 39.1717 20.3447 38.988C20.3447 38.8042 20.4178 38.628 20.5477 38.4981C20.6776 38.3682 20.8538 38.2952 21.0375 38.2952H36.3039C36.4876 38.2952 36.6638 38.3682 36.7937 38.4981C36.9237 38.628 36.9967 38.8042 36.9967 38.988C36.9967 39.1717 36.9237 39.3479 36.7937 39.4779C36.6638 39.6078 36.4876 39.6808 36.3039 39.6808Z" fill="black"/>
<path d="M59.781 19.9305C61.7285 19.9305 63.3072 18.3518 63.3072 16.4043C63.3072 14.4569 61.7285 12.8782 59.781 12.8782C57.8336 12.8782 56.2549 14.4569 56.2549 16.4043C56.2549 18.3518 57.8336 19.9305 59.781 19.9305Z" fill="#F47D39"/>
<path d="M57.4118 27.7272L43.5225 21.8048V11.0587L57.4118 5.13635C57.6706 5.02602 57.9527 4.98155 58.2328 5.00695C58.513 5.03235 58.7824 5.12682 59.0171 5.2819C59.2518 5.43697 59.4444 5.64781 59.5777 5.89555C59.7109 6.1433 59.7808 6.42018 59.7808 6.70149V26.162C59.7808 26.4433 59.7109 26.7203 59.5777 26.968C59.4444 27.2157 59.2518 27.4266 59.0171 27.5817C58.7824 27.7367 58.513 27.8312 58.2328 27.8566C57.9527 27.882 57.6706 27.8375 57.4118 27.7272Z" fill="#F47D39"/>
<path d="M38.6074 11.0588H43.5226V21.8048H38.6074C37.1824 21.8048 35.8157 21.2388 34.8081 20.2311C33.8005 19.2235 33.2344 17.8568 33.2344 16.4318C33.2344 15.0068 33.8005 13.6402 34.8081 12.6325C35.8157 11.6249 37.1824 11.0588 38.6074 11.0588Z" fill="#F47D39"/>
<path d="M43.5226 21.8047V32.1527C42.643 32.1527 41.7995 31.8033 41.1775 31.1813C40.5555 30.5593 40.2061 29.7157 40.2061 28.836V21.8047H43.5226Z" fill="#F47D39"/>
<path d="M55.1977 26.2739C55.1067 26.2739 55.0166 26.256 54.9325 26.2212C54.8484 26.1864 54.772 26.1354 54.7077 26.0711C54.6433 26.0067 54.5923 25.9303 54.5575 25.8462C54.5227 25.7622 54.5048 25.6721 54.5049 25.5811V7.22749C54.5049 7.04374 54.5779 6.86753 54.7079 6.7376C54.8378 6.60767 55.014 6.53467 55.1977 6.53467C55.3814 6.53467 55.5576 6.60767 55.6875 6.7376C55.8175 6.86753 55.8905 7.04374 55.8905 7.22749V25.5811C55.8906 25.6721 55.8727 25.7622 55.8379 25.8462C55.8031 25.9303 55.7521 26.0067 55.6877 26.0711C55.6234 26.1354 55.547 26.1864 55.4629 26.2212C55.3788 26.256 55.2887 26.2739 55.1977 26.2739Z" fill="white"/>
</svg>
