<svg width="60" height="50" viewBox="0 0 60 50" fill="none" xmlns="http://www.w3.org/2000/svg">
<path d="M39.3494 40.7603V2.69275H5.69373V47.3074H34.1893L39.3494 40.7603Z" fill="white"/>
<path d="M34.1886 48H5.69379C5.6028 48.0001 5.51266 47.9822 5.42857 47.9474C5.34449 47.9126 5.26813 47.8615 5.20378 47.7972C5.13944 47.7329 5.08838 47.6564 5.05358 47.5724C5.01878 47.4883 5.00092 47.3982 5.00098 47.3072V2.69282C5.00092 2.60182 5.01878 2.51172 5.05358 2.42764C5.08838 2.34356 5.13944 2.26715 5.20378 2.2028C5.26813 2.13846 5.34449 2.08745 5.42857 2.05265C5.51266 2.01785 5.6028 1.99995 5.69379 2H39.3496C39.4406 1.99995 39.5307 2.01785 39.6148 2.05265C39.6989 2.08745 39.7752 2.13846 39.8396 2.2028C39.9039 2.26715 39.955 2.34356 39.9898 2.42764C40.0246 2.51172 40.0424 2.60182 40.0424 2.69282V40.7606C40.0422 40.9162 39.9898 41.0672 39.8935 41.1895L34.7326 47.7361C34.6678 47.8183 34.5851 47.8848 34.4909 47.9305C34.3967 47.9762 34.2933 48 34.1886 48ZM6.38661 46.6144H33.853L38.6567 40.5203V3.38559H6.38661V46.6144Z" fill="black"/>
<path d="M33.8028 48C33.7118 48 33.6218 47.9821 33.5378 47.9473C33.4537 47.9125 33.3771 47.8615 33.3128 47.7972C33.2484 47.7328 33.1976 47.6564 33.1628 47.5723C33.128 47.4882 33.1099 47.3981 33.11 47.3071V40.7606C33.1099 40.6696 33.128 40.5794 33.1628 40.4953C33.1976 40.4113 33.2484 40.3349 33.3128 40.2706C33.3771 40.2062 33.4537 40.1552 33.5378 40.1204C33.6218 40.0856 33.7118 40.0677 33.8028 40.0677H39.3494C39.5331 40.0677 39.7095 40.1407 39.8394 40.2706C39.9693 40.4006 40.0422 40.5768 40.0422 40.7606C40.0422 40.9443 39.9693 41.1205 39.8394 41.2505C39.7095 41.3804 39.5331 41.4534 39.3494 41.4534H34.4956V47.3071C34.4957 47.3981 34.4778 47.4882 34.443 47.5723C34.4082 47.6564 34.3572 47.7328 34.2928 47.7972C34.2285 47.8615 34.1521 47.9125 34.068 47.9473C33.9839 47.9821 33.8938 48 33.8028 48Z" fill="black"/>
<path d="M20.8668 11.7041H12.0361C11.8523 11.7041 11.6762 11.6311 11.5462 11.5012C11.4163 11.3713 11.3433 11.195 11.3433 11.0113C11.3433 10.8276 11.4163 10.6513 11.5462 10.5214C11.6762 10.3915 11.8523 10.3185 12.0361 10.3185H20.8668C21.0505 10.3185 21.2267 10.3915 21.3566 10.5214C21.4866 10.6513 21.5596 10.8276 21.5596 11.0113C21.5596 11.195 21.4866 11.3713 21.3566 11.5012C21.2267 11.6311 21.0505 11.7041 20.8668 11.7041Z" fill="black"/>
<path d="M20.8668 18.6986H12.0361C11.8523 18.6986 11.6762 18.6256 11.5462 18.4957C11.4163 18.3658 11.3433 18.1896 11.3433 18.0058C11.3433 17.8221 11.4163 17.6458 11.5462 17.5159C11.6762 17.386 11.8523 17.313 12.0361 17.313H20.8668C21.0505 17.313 21.2267 17.386 21.3566 17.5159C21.4866 17.6458 21.5596 17.8221 21.5596 18.0058C21.5596 18.1896 21.4866 18.3658 21.3566 18.4957C21.2267 18.6256 21.0505 18.6986 20.8668 18.6986Z" fill="black"/>
<path d="M25.0264 25.6925H12.0361C11.8523 25.6925 11.6762 25.6195 11.5462 25.4896C11.4163 25.3597 11.3433 25.1834 11.3433 24.9997C11.3433 24.816 11.4163 24.6397 11.5462 24.5098C11.6762 24.3799 11.8523 24.3069 12.0361 24.3069H25.0264C25.2102 24.3069 25.3863 24.3799 25.5162 24.5098C25.6462 24.6397 25.7192 24.816 25.7192 24.9997C25.7192 25.1834 25.6462 25.3597 25.5162 25.4896C25.3863 25.6195 25.2102 25.6925 25.0264 25.6925Z" fill="black"/>
<path d="M27.3024 32.6869H12.0361C11.8523 32.6869 11.6762 32.6139 11.5462 32.484C11.4163 32.354 11.3433 32.1778 11.3433 31.9941C11.3433 31.8103 11.4163 31.6341 11.5462 31.5042C11.6762 31.3743 11.8523 31.3013 12.0361 31.3013H27.3024C27.4862 31.3013 27.6623 31.3743 27.7923 31.5042C27.9222 31.6341 27.9952 31.8103 27.9952 31.9941C27.9952 32.1778 27.9222 32.354 27.7923 32.484C27.6623 32.6139 27.4862 32.6869 27.3024 32.6869Z" fill="black"/>
<path d="M27.3024 39.6807H12.0361C11.8523 39.6807 11.6762 39.6077 11.5462 39.4777C11.4163 39.3478 11.3433 39.1716 11.3433 38.9879C11.3433 38.8041 11.4163 38.6279 11.5462 38.498C11.6762 38.368 11.8523 38.295 12.0361 38.295H27.3024C27.4862 38.295 27.6623 38.368 27.7923 38.498C27.9222 38.6279 27.9952 38.8041 27.9952 38.9879C27.9952 39.1716 27.9222 39.3478 27.7923 39.4777C27.6623 39.6077 27.4862 39.6807 27.3024 39.6807Z" fill="black"/>
<path d="M50.7799 19.665C52.7274 19.665 54.3061 18.0863 54.3061 16.1388C54.3061 14.1914 52.7274 12.6127 50.7799 12.6127C48.8325 12.6127 47.2538 14.1914 47.2538 16.1388C47.2538 18.0863 48.8325 19.665 50.7799 19.665Z" fill="#8EBFE4"/>
<path d="M50.7798 20.3576C49.9454 20.3575 49.1297 20.11 48.436 19.6464C47.7422 19.1828 47.2016 18.5239 46.8824 17.7531C46.5631 16.9822 46.4796 16.1339 46.6424 15.3156C46.8052 14.4973 47.2069 13.7456 47.7969 13.1556C48.3869 12.5656 49.1386 12.1638 49.9569 12.001C50.7753 11.8382 51.6236 11.9217 52.3945 12.241C53.1653 12.5603 53.8243 13.101 54.2879 13.7947C54.7515 14.4884 54.9989 15.304 54.999 16.1384C54.9977 17.257 54.5528 18.3294 53.7618 19.1204C52.9709 19.9114 51.8984 20.3563 50.7798 20.3576ZM50.7798 13.3056C50.2195 13.3056 49.6716 13.4719 49.2057 13.7832C48.7399 14.0946 48.3768 14.5371 48.1625 15.0549C47.9481 15.5726 47.892 16.1422 48.0014 16.6918C48.1108 17.2414 48.3807 17.7462 48.777 18.1424C49.1732 18.5385 49.6781 18.8083 50.2277 18.9175C50.7773 19.0268 51.347 18.9706 51.8647 18.7561C52.3824 18.5416 52.8247 18.1785 53.136 17.7125C53.4473 17.2466 53.6134 16.6988 53.6133 16.1384C53.6125 15.3872 53.3137 14.667 52.7825 14.1359C52.2513 13.6048 51.531 13.3062 50.7798 13.3056Z" fill="black"/>
<path d="M29.6065 10.7932H34.5217V21.5392H29.6065C28.1815 21.5392 26.8149 20.9731 25.8072 19.9655C24.7996 18.9579 24.2335 17.5912 24.2335 16.1662C24.2335 14.7412 24.7996 13.3746 25.8073 12.3669C26.8149 11.3593 28.1815 10.7932 29.6065 10.7932Z" fill="#8EBFE4"/>
<path d="M34.5216 22.2317H29.6069C27.9982 22.2317 26.4554 21.5926 25.3179 20.4551C24.1804 19.3176 23.5414 17.7748 23.5414 16.1661C23.5414 14.5574 24.1804 13.0147 25.3179 11.8772C26.4554 10.7396 27.9982 10.1006 29.6069 10.1006H34.5216C34.6126 10.1005 34.7027 10.1184 34.7868 10.1532C34.8709 10.188 34.9473 10.239 35.0116 10.3034C35.0759 10.3677 35.127 10.4441 35.1618 10.5282C35.1966 10.6123 35.2145 10.7024 35.2144 10.7934V21.5388C35.2145 21.6298 35.1966 21.7199 35.1618 21.804C35.127 21.8881 35.0759 21.9645 35.0116 22.0288C34.9473 22.0932 34.8709 22.1442 34.7868 22.179C34.7027 22.2138 34.6126 22.2317 34.5216 22.2317ZM29.6069 11.4862C28.3657 11.4862 27.1754 11.9793 26.2978 12.8569C25.4201 13.7346 24.927 14.9249 24.927 16.1661C24.927 17.4073 25.4201 18.5977 26.2978 19.4753C27.1754 20.353 28.3657 20.846 29.6069 20.846H33.8288V11.4862H29.6069Z" fill="black"/>
<path d="M48.4109 27.4617L34.5216 21.5393V10.7932L48.4109 4.87084C48.6697 4.76051 48.9518 4.71605 49.232 4.74145C49.5121 4.76685 49.7816 4.86132 50.0163 5.01639C50.251 5.17146 50.4436 5.38231 50.5768 5.63005C50.7101 5.87779 50.78 6.15468 50.78 6.43598V25.8965C50.78 26.1778 50.7101 26.4548 50.5768 26.7025C50.4436 26.9502 50.251 27.1611 50.0163 27.3162C49.7816 27.4712 49.5121 27.5657 49.232 27.5911C48.9518 27.6165 48.6697 27.572 48.4109 27.4617Z" fill="#8EBFE4"/>
<path d="M49.0788 28.2919C48.7556 28.2917 48.4356 28.2262 48.1384 28.0991L34.2496 22.1763C34.1246 22.123 34.0181 22.0342 33.9432 21.9209C33.8684 21.8075 33.8286 21.6747 33.8287 21.5389V10.7935C33.8286 10.6577 33.8684 10.5248 33.9432 10.4115C34.0181 10.2981 34.1246 10.2093 34.2496 10.1561L48.1384 4.23328C48.5025 4.078 48.8996 4.01544 49.2938 4.05115C49.6881 4.08686 50.0673 4.21976 50.3977 4.43794C50.728 4.65613 50.999 4.95277 51.1865 5.30138C51.3741 5.64999 51.4725 6.03966 51.4726 6.43554V25.8967C51.4721 26.5315 51.2197 27.1403 50.771 27.5893C50.3222 28.0383 49.7137 28.2911 49.0788 28.2919ZM48.6824 26.8244C48.8357 26.8898 49.0029 26.9162 49.169 26.9012C49.3351 26.8862 49.495 26.8302 49.6341 26.7383C49.7733 26.6464 49.8875 26.5215 49.9665 26.3746C50.0455 26.2277 50.0869 26.0636 50.0869 25.8968V6.43567C50.0869 6.26889 50.0455 6.10474 49.9665 5.95788C49.8875 5.81101 49.7733 5.68604 49.6341 5.59413C49.495 5.50222 49.3351 5.44626 49.169 5.43124C49.0029 5.41623 48.8358 5.44262 48.6824 5.50808L35.2144 11.2515V21.0809L48.6824 26.8244Z" fill="black"/>
<path d="M34.5214 21.5393V31.8873C33.6418 31.8873 32.7982 31.5379 32.1762 30.9159C31.5542 30.2939 31.2048 29.4503 31.2048 28.5707V21.5393H34.5214Z" fill="#8EBFE4"/>
<path d="M34.5215 32.5801C33.4585 32.579 32.4393 32.1562 31.6876 31.4046C30.936 30.6529 30.5132 29.6337 30.5121 28.5707V21.539C30.512 21.448 30.5299 21.3579 30.5647 21.2738C30.5995 21.1898 30.6505 21.1133 30.7149 21.049C30.7792 20.9847 30.8556 20.9336 30.9397 20.8988C31.0238 20.864 31.1139 20.8461 31.2049 20.8462H34.5215C34.6125 20.8461 34.7026 20.864 34.7867 20.8988C34.8708 20.9336 34.9472 20.9847 35.0115 21.049C35.0759 21.1133 35.1269 21.1898 35.1617 21.2738C35.1965 21.3579 35.2144 21.448 35.2143 21.539V31.8873C35.2144 31.9783 35.1965 32.0684 35.1617 32.1525C35.1269 32.2365 35.0759 32.313 35.0115 32.3773C34.9472 32.4416 34.8708 32.4927 34.7867 32.5275C34.7026 32.5623 34.6125 32.5802 34.5215 32.5801ZM31.8977 22.2318V28.5707C31.8983 29.1457 32.0875 29.7047 32.4363 30.1619C32.7851 30.6191 33.2742 30.9493 33.8287 31.1018V22.2318H31.8977Z" fill="black"/>
<path d="M46.1966 27.0084C46.1056 27.0084 46.0155 26.9905 45.9314 26.9557C45.8473 26.9209 45.7709 26.8699 45.7066 26.8056C45.6422 26.7412 45.5912 26.6648 45.5564 26.5807C45.5216 26.4967 45.5037 26.4066 45.5038 26.3156V5.96198C45.5038 5.77824 45.5768 5.60203 45.7068 5.4721C45.8367 5.34217 46.0129 5.26917 46.1966 5.26917C46.3803 5.26917 46.5565 5.34217 46.6864 5.4721C46.8164 5.60203 46.8894 5.77824 46.8894 5.96198V26.3156C46.8895 26.4066 46.8716 26.4967 46.8368 26.5807C46.802 26.6648 46.751 26.7412 46.6866 26.8056C46.6223 26.8699 46.5459 26.9209 46.4618 26.9557C46.3777 26.9905 46.2876 27.0084 46.1966 27.0084Z" fill="black"/>
</svg>
