<svg width="58" height="37" viewBox="0 0 58 37" fill="none" xmlns="http://www.w3.org/2000/svg">
<g clip-path="url(#clip0_650_2173)">
<path d="M12.2958 37.0002H8.40802C8.25631 37 8.10901 36.9486 7.98975 36.854C7.87048 36.7594 7.78614 36.6273 7.75015 36.4786L5.72764 28.0528C5.67821 27.8419 5.65294 27.626 5.65234 27.4093V22.46C5.65234 22.2791 5.72365 22.1056 5.8505 21.9776C5.97734 21.8497 6.14933 21.7779 6.32871 21.7779C6.5081 21.7779 6.68008 21.8497 6.80693 21.9776C6.93377 22.1056 7.00508 22.2791 7.00508 22.46V27.4093C7.00563 27.5192 7.01848 27.6287 7.04339 27.7357L8.9404 35.636H11.4358L9.54675 27.7657C9.51205 27.6196 9.52598 27.4661 9.58638 27.3287L12.7159 20.2038C12.789 20.0391 12.9238 19.9102 13.0909 19.8455C13.258 19.7809 13.4438 19.7857 13.6074 19.8589C13.7711 19.932 13.8991 20.0676 13.9638 20.2359C14.0285 20.4042 14.0244 20.5915 13.9524 20.7567L10.9167 27.6698L12.9537 36.1576C12.9775 36.2579 12.9784 36.3624 12.9565 36.4632C12.9346 36.564 12.8903 36.6585 12.827 36.7396C12.7637 36.8207 12.6831 36.8862 12.5911 36.9314C12.4991 36.9765 12.3981 37 12.2958 37.0002Z" fill="black"/>
<path d="M21.406 37.0001H17.6371C17.5483 37.0001 17.4603 36.9826 17.3782 36.9483C17.2961 36.914 17.2216 36.8638 17.1587 36.8004C17.0959 36.7371 17.0461 36.6619 17.0121 36.5791C16.9781 36.4963 16.9607 36.4076 16.9608 36.318V21.1623H7.64615L5.12165 26.572V36.318C5.1217 36.4076 5.1041 36.4963 5.07013 36.5791C5.03616 36.6619 4.98648 36.7371 4.92366 36.8004C4.86084 36.8638 4.78612 36.914 4.70404 36.9483C4.62195 36.9825 4.53412 37.0001 4.44528 37.0001H0.676372C0.587535 37.0001 0.499533 36.9825 0.417449 36.9483C0.335365 36.914 0.260809 36.8638 0.197992 36.8004C0.135175 36.7371 0.0853302 36.6619 0.0513577 36.5791C0.0173852 36.4963 -4.90681e-05 36.4076 2.50198e-06 36.318V13.5424C-0.00121355 12.2406 0.440887 10.9778 1.25234 9.96533L8.1455 1.92252C8.91326 1.19541 9.83318 0.651512 10.8373 0.330896C11.8414 0.0102796 12.904 -0.0788691 13.9468 0.0701075C14.9896 0.219084 15.9859 0.602366 16.8622 1.19161C17.7385 1.78086 18.4724 2.56105 19.0097 3.4746C19.0309 3.49666 19.0507 3.52002 19.0691 3.54454L23.6227 9.88074C26.1063 9.59964 26.3837 6.15709 26.3837 4.64165V0.682194C26.3836 0.592604 26.4011 0.503853 26.435 0.421073C26.469 0.338292 26.5189 0.263102 26.5817 0.199752C26.6445 0.136402 26.7191 0.0861339 26.8011 0.0518723C26.8832 0.0176106 26.9712 3.07203e-05 27.0601 8.09332e-05H38.3668C38.4556 2.89251e-05 38.5436 0.0176113 38.6257 0.0518723C38.7078 0.0861333 38.7824 0.136402 38.8452 0.199752C38.908 0.263103 38.9578 0.338292 38.9918 0.421073C39.0258 0.503854 39.0432 0.592603 39.0432 0.682194V4.64165C39.0432 4.78333 38.9994 4.92147 38.918 5.03691C38.8366 5.15236 38.7214 5.23936 38.5887 5.2858L33.1963 7.17493C32.5622 11.8172 30.1566 15.2564 26.6453 16.5746L29.755 23.1027C29.7964 23.1903 29.8188 23.2858 29.8209 23.3828C29.8229 23.4798 29.8045 23.5762 29.7669 23.6656L25.636 33.4303C25.6005 33.5143 25.5486 33.5903 25.4834 33.6537C25.4182 33.7171 25.3411 33.7667 25.2565 33.7994C25.172 33.8322 25.0818 33.8474 24.9913 33.8443C24.9008 33.8412 24.8119 33.8198 24.7298 33.7814L22.0824 32.5437V36.318C22.0825 36.4076 22.065 36.4963 22.031 36.5791C21.9971 36.6619 21.9472 36.7371 21.8844 36.8004C21.8216 36.8638 21.7471 36.914 21.665 36.9483C21.5829 36.9825 21.4949 37.0001 21.406 37.0001ZM18.3135 35.6359H20.7297V20.4802C20.7296 20.3906 20.747 20.3019 20.781 20.2191C20.815 20.1363 20.8648 20.0611 20.9277 19.9978C20.9905 19.9344 21.065 19.8842 21.1471 19.8499C21.2292 19.8156 21.3172 19.7981 21.406 19.7981H23.5395C23.6668 19.7981 23.7914 19.8343 23.8992 19.9027C24.0069 19.9711 24.0934 20.0687 24.1485 20.1845L25.5871 23.2034C25.629 23.2909 25.6519 23.3865 25.6542 23.4837C25.6564 23.5809 25.6381 23.6774 25.6003 23.7669L22.4497 31.2122L24.665 32.248L28.4022 23.4145L25.0904 16.4608C25.0476 16.3706 25.0249 16.2721 25.024 16.1721C25.0231 16.0722 25.0441 15.9732 25.0853 15.8823C25.1265 15.7914 25.1869 15.7106 25.2625 15.6459C25.338 15.5811 25.4268 15.534 25.5224 15.5076C29.0575 14.5317 31.3838 11.2824 31.9043 6.59348C31.9186 6.46557 31.9684 6.34431 32.0481 6.24377C32.1278 6.14323 32.2342 6.0675 32.3548 6.02528L37.6904 4.15679V1.36439H27.7364V4.64173C27.7364 8.7877 26.0746 11.263 23.2912 11.263C23.1842 11.263 23.0788 11.2374 22.9835 11.1884C22.8882 11.1395 22.8058 11.0685 22.7429 10.9813L18.0387 4.4359C17.9924 4.39445 17.9524 4.34643 17.9198 4.29335C17.4117 3.40953 16.6838 2.67455 15.8082 2.16091C14.9325 1.64728 13.9393 1.37269 12.9263 1.36431C11.5107 1.37084 10.1486 1.91062 9.10721 2.87775L2.292 10.8373C1.68242 11.6047 1.35103 12.5591 1.35274 13.5424V35.6359H3.76891V26.4193C3.76905 26.3189 3.79115 26.2197 3.83364 26.1289L6.60517 20.1897C6.65972 20.0726 6.7462 19.9736 6.85452 19.9042C6.96283 19.8348 7.0885 19.798 7.21681 19.798H17.6371C17.726 19.798 17.8138 19.8156 17.8959 19.8499C17.978 19.8842 18.0527 19.9343 18.1155 19.9977C18.1783 20.061 18.228 20.1363 18.262 20.2191C18.2959 20.3019 18.3135 20.3906 18.3135 20.4801V35.6359ZM22.0824 21.1623V28.6036L24.2357 23.5157L23.1141 21.1623H22.0824Z" fill="black"/>
<path d="M27.5265 21.1621H23.5397C23.3603 21.1621 23.1883 21.0902 23.0614 20.9622C22.9346 20.8343 22.8633 20.6609 22.8633 20.48C22.8633 20.2991 22.9346 20.1255 23.0614 19.9976C23.1883 19.8697 23.3603 19.7979 23.5397 19.7979H27.5265C27.7059 19.7979 27.8779 19.8697 28.0047 19.9976C28.1316 20.1255 28.2029 20.2991 28.2029 20.48C28.2029 20.6609 28.1316 20.8343 28.0047 20.9622C27.8779 21.0902 27.7059 21.1621 27.5265 21.1621Z" fill="black"/>
<path d="M53.9115 36.9998H47.087C46.0028 36.9987 44.9633 36.5639 44.1966 35.7909C43.4298 35.0179 42.9985 33.9698 42.9971 32.8765V15.3154C42.9973 15.2539 43.0057 15.1927 43.0222 15.1335C43.2798 11.3759 45.4608 6.61708 46.3974 4.72396C46.5907 4.33537 46.888 4.00916 47.2558 3.78239C47.6235 3.55562 48.047 3.43737 48.478 3.441H52.5772C52.9889 3.43776 53.3937 3.54653 53.7491 3.75591C54.1046 3.96529 54.3976 4.26752 54.5971 4.6307C56.4278 7.87213 57.5805 11.4574 57.9842 15.1655C57.9948 15.214 58.0001 15.2636 58.0001 15.3134V32.8765C57.9989 33.9697 57.5677 35.0177 56.8012 35.7908C56.0347 36.5638 54.9955 36.9986 53.9115 36.9998ZM44.3498 15.4419V32.8765C44.3507 33.6082 44.6393 34.3097 45.1525 34.827C45.6657 35.3442 46.3614 35.635 47.087 35.6356H53.9115C54.6368 35.6348 55.3322 35.3438 55.8451 34.8266C56.358 34.3093 56.6465 33.608 56.6473 32.8765V15.4233C56.6404 15.3837 56.6369 15.3436 56.6367 15.3034C56.2569 11.7753 55.1587 8.36428 53.4108 5.28417C53.3273 5.13619 53.2057 5.01365 53.0591 4.92938C52.9124 4.8451 52.746 4.80219 52.5772 4.80523H48.478C48.2985 4.80249 48.1218 4.8505 47.968 4.94386C47.8141 5.03722 47.6892 5.17221 47.6075 5.33346C46.6946 7.17864 44.5519 11.8475 44.363 15.3387C44.3613 15.3734 44.3569 15.4079 44.3498 15.4419Z" fill="black"/>
<path d="M54.7651 4.80544H46.2339C45.8284 4.80511 45.4396 4.64258 45.1528 4.35347C44.866 4.06436 44.7046 3.6723 44.7041 3.26335V1.54275C44.7045 1.1337 44.8658 0.741543 45.1526 0.4523C45.4394 0.163056 45.8283 0.000361239 46.2339 0H54.7651C55.1707 0.000357632 55.5596 0.163056 55.8464 0.4523C56.1332 0.741544 56.2945 1.1337 56.2949 1.54275V3.26335C56.2944 3.6723 56.133 4.06436 55.8462 4.35347C55.5594 4.64258 55.1706 4.80512 54.7651 4.80544ZM46.2339 1.36423C46.1869 1.36423 46.1419 1.38304 46.1087 1.41652C46.0755 1.45 46.0568 1.4954 46.0568 1.54275V3.26335C46.057 3.3106 46.0757 3.35583 46.1089 3.38917C46.142 3.42251 46.187 3.44124 46.2339 3.44121H54.7651C54.8119 3.44124 54.8569 3.42251 54.8901 3.38917C54.9233 3.35583 54.942 3.3106 54.9421 3.26335V1.54275C54.9421 1.4954 54.9235 1.45 54.8903 1.41652C54.8571 1.38304 54.812 1.36423 54.7651 1.36423H46.2339Z" fill="black"/>
<path d="M55.618 10.1865H45.0709C44.8915 10.1865 44.7194 10.1147 44.5925 9.98674C44.4657 9.85882 44.3945 9.68529 44.3945 9.50438C44.3945 9.32347 44.4657 9.14994 44.5925 9.02202C44.7194 8.8941 44.8915 8.82227 45.0709 8.82227H55.618C55.7974 8.82227 55.9694 8.8941 56.0962 9.02202C56.2231 9.14994 56.2944 9.32347 56.2944 9.50438C56.2944 9.68529 56.2231 9.85882 56.0962 9.98674C55.9694 10.1147 55.7974 10.1865 55.618 10.1865Z" fill="black"/>
</g>
<defs>
<clipPath id="clip0_650_2173">
<rect width="58" height="37" fill="white"/>
</clipPath>
</defs>
</svg>
