<svg width="44" height="40" viewBox="0 0 44 40" fill="none" xmlns="http://www.w3.org/2000/svg">
<g clip-path="url(#clip0_650_2227)">
<path d="M9.23898 30.861H3.03983C2.95546 30.8611 2.87188 30.8443 2.79393 30.8117C2.71597 30.7791 2.64516 30.7312 2.5855 30.6709C2.52584 30.6106 2.4785 30.539 2.44623 30.4601C2.41397 30.3813 2.39741 30.2968 2.39746 30.2115V18.6627C2.39741 18.5774 2.41397 18.4929 2.44623 18.4141C2.4785 18.3353 2.52584 18.2637 2.5855 18.2033C2.64516 18.143 2.71597 18.0951 2.79393 18.0625C2.87188 18.0299 2.95546 18.0131 3.03983 18.0132H9.23898C9.32335 18.0131 9.40693 18.0299 9.48489 18.0625C9.56284 18.0951 9.63365 18.143 9.69331 18.2033C9.75297 18.2637 9.80031 18.3353 9.83258 18.4141C9.86484 18.4929 9.8814 18.5774 9.88135 18.6627V30.2115C9.8814 30.2968 9.86484 30.3813 9.83258 30.4601C9.80031 30.539 9.75297 30.6106 9.69331 30.6709C9.63365 30.7312 9.56284 30.7791 9.48489 30.8117C9.40693 30.8443 9.32335 30.8611 9.23898 30.861ZM3.68221 29.5619H8.5966V19.3123H3.68221V29.5619Z" fill="black"/>
<path d="M19.8132 30.861H13.6141C13.5297 30.8611 13.4461 30.8443 13.3681 30.8117C13.2902 30.7791 13.2194 30.7312 13.1597 30.6709C13.1001 30.6106 13.0527 30.539 13.0205 30.4601C12.9882 30.3813 12.9716 30.2968 12.9717 30.2115V13.7492C12.9716 13.6639 12.9882 13.5793 13.0205 13.5005C13.0527 13.4217 13.1001 13.3501 13.1597 13.2898C13.2194 13.2294 13.2902 13.1816 13.3681 13.1489C13.4461 13.1163 13.5297 13.0996 13.6141 13.0996H19.8132C19.8976 13.0996 19.9811 13.1163 20.0591 13.1489C20.1371 13.1816 20.2079 13.2294 20.2675 13.2898C20.3272 13.3501 20.3745 13.4217 20.4068 13.5005C20.4391 13.5793 20.4556 13.6639 20.4556 13.7492V30.2115C20.4556 30.2968 20.4391 30.3813 20.4068 30.4601C20.3745 30.539 20.3272 30.6106 20.2675 30.6709C20.2079 30.7312 20.1371 30.7791 20.0591 30.8117C19.9811 30.8443 19.8976 30.8611 19.8132 30.861ZM14.2564 29.5619H19.1708V14.3987H14.2564V29.5619Z" fill="black"/>
<path d="M30.3877 30.8609H24.1873C24.1029 30.861 24.0193 30.8442 23.9414 30.8116C23.8634 30.779 23.7926 30.7311 23.733 30.6708C23.6733 30.6104 23.626 30.5388 23.5937 30.46C23.5614 30.3812 23.5449 30.2967 23.5449 30.2113V7.19888C23.5449 7.11356 23.5614 7.02905 23.5937 6.95022C23.626 6.87139 23.6733 6.79979 23.733 6.73946C23.7926 6.67913 23.8634 6.63126 23.9414 6.59864C24.0193 6.56601 24.1029 6.54927 24.1873 6.54932H30.3877C30.4721 6.54927 30.5556 6.56601 30.6336 6.59864C30.7116 6.63126 30.7824 6.67913 30.842 6.73946C30.9017 6.79979 30.949 6.87139 30.9813 6.95022C31.0136 7.02905 31.0301 7.11356 31.0301 7.19888V30.2113C31.0301 30.2967 31.0136 30.3812 30.9813 30.46C30.949 30.5388 30.9017 30.6104 30.842 30.6708C30.7824 30.7311 30.7116 30.779 30.6336 30.8116C30.5556 30.8442 30.4721 30.861 30.3877 30.8609ZM24.8297 29.5618H29.7453V7.84844H24.8297V29.5618Z" fill="black"/>
<path d="M40.9609 30.8611H34.7605C34.6762 30.8612 34.5926 30.8444 34.5146 30.8118C34.4367 30.7792 34.3659 30.7313 34.3062 30.671C34.2465 30.6106 34.1992 30.539 34.1669 30.4602C34.1347 30.3814 34.1181 30.2969 34.1182 30.2116V0.649561C34.1181 0.564246 34.1347 0.479731 34.1669 0.400901C34.1992 0.322071 34.2465 0.250469 34.3062 0.190143C34.3659 0.129816 34.4367 0.0819463 34.5146 0.0493198C34.5926 0.0166932 34.6762 -4.77144e-05 34.7605 1.02143e-07H40.9609C41.0453 -4.77144e-05 41.1289 0.0166932 41.2068 0.0493198C41.2848 0.0819463 41.3556 0.129816 41.4153 0.190143C41.4749 0.250469 41.5223 0.322071 41.5545 0.400901C41.5868 0.479731 41.6034 0.564246 41.6033 0.649561V30.2116C41.6034 30.2969 41.5868 30.3814 41.5545 30.4602C41.5223 30.539 41.4749 30.6106 41.4153 30.671C41.3556 30.7313 41.2848 30.7792 41.2068 30.8118C41.1289 30.8444 41.0453 30.8612 40.9609 30.8611ZM35.4029 29.562H40.3186V1.29912H35.4029V29.562Z" fill="black"/>
<path d="M43.3576 30.8611H0.642372C0.472005 30.8611 0.308663 30.7927 0.188195 30.6709C0.0677268 30.5491 0 30.3838 0 30.2116C0 30.0393 0.0677268 29.874 0.188195 29.7522C0.308663 29.6304 0.472005 29.562 0.642372 29.562H43.3576C43.528 29.562 43.6913 29.6304 43.8118 29.7522C43.9323 29.874 44 30.0393 44 30.2116C44 30.3838 43.9323 30.5491 43.8118 30.6709C43.6913 30.7927 43.528 30.8611 43.3576 30.8611Z" fill="black"/>
<path d="M21.9996 39.3509C26.991 39.3509 31.0373 35.2593 31.0373 30.2121C31.0373 25.1648 26.991 21.0732 21.9996 21.0732C17.0082 21.0732 12.9619 25.1648 12.9619 30.2121C12.9619 35.2593 17.0082 39.3509 21.9996 39.3509Z" fill="white"/>
<path d="M21.9999 40.0003C20.0854 40.0001 18.2139 39.4259 16.6221 38.3503C15.0302 37.2746 13.7896 35.7459 13.057 33.9573C12.3244 32.1686 12.1328 30.2006 12.5064 28.3018C12.88 26.4031 13.802 24.659 15.1559 23.2901C16.5097 21.9212 18.2344 20.989 20.1121 20.6114C21.9899 20.2337 23.9362 20.4277 25.705 21.1686C27.4737 21.9094 28.9857 23.164 30.0493 24.7737C31.1129 26.3834 31.6806 28.2759 31.6806 30.2118C31.6778 32.8071 30.6569 35.2953 28.842 37.1304C27.0271 38.9655 24.5665 39.9976 21.9999 40.0003ZM21.9999 21.7225C20.3395 21.7226 18.7163 22.2206 17.3358 23.1535C15.9553 24.0864 14.8792 25.4123 14.2439 26.9635C13.6086 28.5148 13.4425 30.2217 13.7665 31.8684C14.0905 33.5151 14.8901 35.0277 16.0642 36.2149C17.2384 37.4021 18.7344 38.2105 20.3629 38.538C21.9914 38.8655 23.6793 38.6975 25.2133 38.0549C26.7473 37.4124 28.0585 36.3242 28.981 34.9282C29.9034 33.5321 30.3959 31.8908 30.3959 30.2118C30.3933 27.961 29.5078 25.8031 27.9338 24.2116C26.3598 22.6201 24.2258 21.7249 21.9999 21.7225Z" fill="black"/>
<path d="M19.7544 37.0727C19.607 37.0627 19.4628 37.025 19.329 36.9617C19.1523 36.8633 19.0143 36.7066 18.9381 36.5177C18.8618 36.3289 18.8519 36.1193 18.91 35.9239L20.2537 31.3935H18.0694C17.9189 31.3935 17.7709 31.3545 17.6395 31.2803C17.5081 31.206 17.3976 31.0991 17.3186 30.9695C17.2397 30.8399 17.1948 30.6921 17.1883 30.54C17.1818 30.3879 17.2138 30.2367 17.2815 30.1007L20.0881 24.4247C20.1612 24.2763 20.2738 24.1515 20.4132 24.0644C20.5526 23.9772 20.7133 23.931 20.8773 23.9312H24.808C24.9626 23.9311 25.1145 23.9721 25.2484 24.0501C25.3824 24.128 25.4937 24.2402 25.5713 24.3753C25.6489 24.5105 25.6901 24.6638 25.6907 24.8201C25.6912 24.9764 25.6512 25.1301 25.5746 25.2658L24.0816 27.9059H25.9309C26.0982 27.9068 26.262 27.9553 26.4033 28.0458C26.5446 28.1363 26.6579 28.2652 26.7301 28.4177L26.7351 28.4311C26.8028 28.5846 26.8267 28.7543 26.8038 28.9208C26.781 29.0873 26.7124 29.2439 26.6059 29.373L20.4268 36.7567C20.3442 36.8556 20.2412 36.9351 20.1251 36.9897C20.009 37.0442 19.8824 37.0726 19.7544 37.0727ZM18.7205 30.0944H21.1169C21.217 30.0943 21.3158 30.1179 21.4053 30.1634C21.4948 30.2088 21.5726 30.2748 21.6324 30.356C21.6921 30.4373 21.7323 30.5315 21.7495 30.6313C21.7668 30.731 21.7606 30.8335 21.7317 30.9304L20.6953 34.4243L25.0627 29.205H22.975C22.8625 29.205 22.752 29.1752 22.6544 29.1184C22.5569 29.0617 22.4759 28.98 22.4194 28.8816C22.3628 28.7832 22.3328 28.6716 22.3323 28.5578C22.3319 28.4441 22.361 28.3321 22.4167 28.2333L24.1142 25.2304H21.1257L18.7205 30.0944Z" fill="black"/>
</g>
<defs>
<clipPath id="clip0_650_2227">
<rect width="44" height="40" fill="white"/>
</clipPath>
</defs>
</svg>
