<svg width="54" height="36" viewBox="0 0 54 36" fill="none" xmlns="http://www.w3.org/2000/svg">
<g clip-path="url(#clip0_650_2266)">
<path d="M30.334 17.8541H0.673828L12.1701 0.677246H41.8302L30.334 17.8541Z" fill="white"/>
<path d="M30.3347 18.5324H0.673698C0.551518 18.5324 0.431585 18.499 0.326849 18.4357C0.222112 18.3725 0.136434 18.2817 0.0790049 18.1733C0.0215755 18.0649 -0.00536713 17.9428 0.000885609 17.8201C0.00713835 17.6974 0.0463766 17.5787 0.114529 17.4768L11.6111 0.298974C11.6729 0.207006 11.7562 0.131658 11.8536 0.0795391C11.9511 0.0274203 12.0598 0.000114266 12.1702 0H41.8299C41.9521 4.6188e-05 42.0718 0.0334778 42.1766 0.0967368C42.2813 0.159996 42.367 0.250732 42.4244 0.359166C42.4819 0.4676 42.509 0.58969 42.5027 0.71238C42.4965 0.835069 42.4571 0.95371 42.3889 1.05567L30.8937 18.2335C30.8319 18.3254 30.7487 18.4008 30.6513 18.4529C30.5538 18.505 30.4451 18.5323 30.3347 18.5324ZM1.9394 17.1778H29.9755L40.5642 1.35465H12.5294L1.9394 17.1778Z" fill="black"/>
<path d="M41.8301 0.677734L53.3263 17.8546V35.3228" fill="white"/>
<path d="M53.3263 36.0002C53.2379 36.0003 53.1502 35.9828 53.0685 35.9488C52.9867 35.9148 52.9125 35.8649 52.8499 35.802C52.7873 35.739 52.7377 35.6644 52.7039 35.5822C52.67 35.5 52.6527 35.4119 52.6527 35.3229V18.0618L41.2706 1.05592C41.1716 0.9068 41.1355 0.724335 41.17 0.548427C41.2045 0.372519 41.3069 0.217516 41.4548 0.117411C41.6028 0.017306 41.7842 -0.0197702 41.9592 0.0143079C42.1343 0.0483859 42.2889 0.150839 42.389 0.299227L53.8855 17.477C53.9604 17.5888 54.0002 17.7206 54 17.8554V35.3229C54 35.4119 53.9827 35.5 53.9488 35.5822C53.915 35.6644 53.8654 35.739 53.8028 35.802C53.7402 35.8649 53.666 35.9148 53.5842 35.9488C53.5025 35.9828 53.4148 36.0003 53.3263 36.0002Z" fill="black"/>
<path d="M0.673635 35.9999C0.585158 35.9999 0.497511 35.9825 0.415759 35.9485C0.334008 35.9144 0.259752 35.8645 0.19719 35.8016C0.134627 35.7387 0.0849835 35.6641 0.0511477 35.5819C0.0173119 35.4997 -4.94828e-05 35.4115 1.05929e-07 35.3226V17.8551C1.05929e-07 17.6754 0.0708586 17.5031 0.19719 17.3761C0.323521 17.2491 0.494976 17.1777 0.673635 17.1777C0.852294 17.1777 1.02359 17.2491 1.14992 17.3761C1.27625 17.5031 1.34727 17.6754 1.34727 17.8551V35.3226C1.34732 35.4115 1.32996 35.4997 1.29612 35.5819C1.26229 35.6641 1.21264 35.7387 1.15008 35.8016C1.08752 35.8645 1.01326 35.9144 0.931511 35.9485C0.84976 35.9825 0.762112 35.9999 0.673635 35.9999Z" fill="black"/>
<path d="M30.3348 35.9999C30.2463 35.9999 30.1586 35.9825 30.0769 35.9485C29.9951 35.9144 29.9209 35.8645 29.8583 35.8016C29.7958 35.7387 29.7461 35.6641 29.7123 35.5819C29.6784 35.4997 29.6611 35.4115 29.6611 35.3226V17.8551C29.6611 17.6754 29.7322 17.5031 29.8585 17.3761C29.9848 17.2491 30.1561 17.1777 30.3348 17.1777C30.5134 17.1777 30.6847 17.2491 30.811 17.3761C30.9374 17.5031 31.0084 17.6754 31.0084 17.8551V35.3226C31.0085 35.4115 30.9911 35.4997 30.9573 35.5819C30.9234 35.6641 30.8738 35.7387 30.8112 35.8016C30.7487 35.8645 30.6744 35.9144 30.5926 35.9485C30.5109 35.9825 30.4232 35.9999 30.3348 35.9999Z" fill="black"/>
<path d="M17.0736 32.301H13.9344C13.8459 32.3011 13.7583 32.2835 13.6765 32.2495C13.5947 32.2155 13.5205 32.1657 13.4579 32.1028C13.3954 32.0399 13.3457 31.9651 13.3119 31.8829C13.2781 31.8007 13.2607 31.7127 13.2607 31.6237V24.4278C13.2607 24.3388 13.2781 24.2507 13.3119 24.1685C13.3457 24.0863 13.3954 24.0117 13.4579 23.9488C13.5205 23.8859 13.5947 23.8359 13.6765 23.8019C13.7583 23.7679 13.8459 23.7504 13.9344 23.7505H17.0736C17.1621 23.7504 17.2497 23.7679 17.3315 23.8019C17.4132 23.8359 17.4875 23.8859 17.5501 23.9488C17.6126 24.0117 17.6623 24.0863 17.6961 24.1685C17.7299 24.2507 17.7473 24.3388 17.7473 24.4278V31.6237C17.7473 31.7127 17.7299 31.8007 17.6961 31.8829C17.6623 31.9651 17.6126 32.0399 17.5501 32.1028C17.4875 32.1657 17.4132 32.2155 17.3315 32.2495C17.2497 32.2835 17.1621 32.3011 17.0736 32.301ZM14.608 30.9464H16.4V25.1051H14.608V30.9464Z" fill="black"/>
<path d="M8.87343 32.301H5.73418C5.6457 32.3011 5.55806 32.2835 5.47631 32.2495C5.39455 32.2155 5.3203 32.1657 5.25774 32.1028C5.19517 32.0399 5.14553 31.9651 5.11169 31.8829C5.07786 31.8007 5.0605 31.7127 5.06055 31.6237V24.4278C5.0605 24.3388 5.07786 24.2507 5.11169 24.1685C5.14553 24.0863 5.19517 24.0117 5.25774 23.9488C5.3203 23.8859 5.39455 23.8359 5.47631 23.8019C5.55806 23.7679 5.6457 23.7504 5.73418 23.7505H8.87343C8.9619 23.7504 9.04955 23.7679 9.1313 23.8019C9.21305 23.8359 9.28731 23.8859 9.34987 23.9488C9.41243 24.0117 9.46208 24.0863 9.49591 24.1685C9.52975 24.2507 9.54711 24.3388 9.54706 24.4278V31.6237C9.54711 31.7127 9.52975 31.8007 9.49591 31.8829C9.46208 31.9651 9.41243 32.0399 9.34987 32.1028C9.28731 32.1657 9.21305 32.2155 9.1313 32.2495C9.04955 32.2835 8.9619 32.3011 8.87343 32.301ZM6.40782 30.9464H8.19979V25.1051H6.40782V30.9464Z" fill="black"/>
<path d="M25.2728 32.301H22.1336C22.0451 32.3011 21.9575 32.2835 21.8757 32.2495C21.794 32.2155 21.7197 32.1657 21.6572 32.1028C21.5946 32.0399 21.5449 31.9651 21.5111 31.8829C21.4773 31.8007 21.4599 31.7127 21.46 31.6237V24.4278C21.4599 24.3388 21.4773 24.2507 21.5111 24.1685C21.5449 24.0863 21.5946 24.0117 21.6572 23.9488C21.7197 23.8859 21.794 23.8359 21.8757 23.8019C21.9575 23.7679 22.0451 23.7504 22.1336 23.7505H25.2728C25.3613 23.7504 25.449 23.7679 25.5307 23.8019C25.6125 23.8359 25.6867 23.8859 25.7493 23.9488C25.8118 24.0117 25.8615 24.0863 25.8953 24.1685C25.9292 24.2507 25.9465 24.3388 25.9465 24.4278V31.6237C25.9465 31.7127 25.9292 31.8007 25.8953 31.8829C25.8615 31.9651 25.8118 32.0399 25.7493 32.1028C25.6867 32.1657 25.6125 32.2155 25.5307 32.2495C25.449 32.2835 25.3613 32.3011 25.2728 32.301ZM22.8072 30.9464H24.5992V25.1051H22.8072V30.9464Z" fill="black"/>
<path d="M43.3996 32.301H40.2605C40.1721 32.3011 40.0844 32.2835 40.0027 32.2495C39.9209 32.2155 39.8467 32.1657 39.7841 32.1028C39.7215 32.0399 39.6719 31.9651 39.6381 31.8829C39.6042 31.8007 39.5869 31.7127 39.5869 31.6237V24.4278C39.5869 24.3388 39.6042 24.2507 39.6381 24.1685C39.6719 24.0863 39.7215 24.0117 39.7841 23.9488C39.8467 23.8859 39.9209 23.8359 40.0027 23.8019C40.0844 23.7679 40.1721 23.7504 40.2605 23.7505H43.3996C43.4881 23.7504 43.5758 23.7679 43.6575 23.8019C43.7393 23.8359 43.8135 23.8859 43.8761 23.9488C43.9386 24.0117 43.9883 24.0863 44.0221 24.1685C44.056 24.2507 44.0733 24.3388 44.0733 24.4278V31.6237C44.0733 31.7127 44.056 31.8007 44.0221 31.8829C43.9883 31.9651 43.9386 32.0399 43.8761 32.1028C43.8135 32.1657 43.7393 32.2155 43.6575 32.2495C43.5758 32.2835 43.4881 32.3011 43.3996 32.301ZM40.934 30.9464H42.726V25.1051H40.9342L40.934 30.9464Z" fill="black"/>
<path d="M43.3996 19.8876H40.2605C40.1721 19.8877 40.0844 19.8702 40.0027 19.8362C39.9209 19.8022 39.8467 19.7523 39.7841 19.6894C39.7215 19.6265 39.6719 19.5518 39.6381 19.4696C39.6042 19.3874 39.5869 19.2993 39.5869 19.2103V12.0137C39.5869 11.9248 39.6042 11.8367 39.6381 11.7545C39.6719 11.6723 39.7215 11.5976 39.7841 11.5347C39.8467 11.4718 39.9209 11.4219 40.0027 11.3879C40.0844 11.3538 40.1721 11.3364 40.2605 11.3364H43.3996C43.4881 11.3364 43.5758 11.3538 43.6575 11.3879C43.7393 11.4219 43.8135 11.4718 43.8761 11.5347C43.9386 11.5976 43.9883 11.6723 44.0221 11.7545C44.056 11.8367 44.0733 11.9248 44.0733 12.0137V19.2103C44.0733 19.2993 44.056 19.3874 44.0221 19.4696C43.9883 19.5518 43.9386 19.6265 43.8761 19.6894C43.8135 19.7523 43.7393 19.8022 43.6575 19.8362C43.5758 19.8702 43.4881 19.8877 43.3996 19.8876ZM40.934 18.533H42.726V12.6911H40.9342L40.934 18.533Z" fill="black"/>
<path d="M37.9987 7.08072H8.3377C8.15904 7.08072 7.98758 7.00939 7.86125 6.88237C7.73492 6.75535 7.66406 6.58303 7.66406 6.4034C7.66406 6.22376 7.73492 6.05145 7.86125 5.92443C7.98758 5.7974 8.15904 5.72607 8.3377 5.72607H37.9987C38.1774 5.72607 38.3486 5.7974 38.475 5.92443C38.6013 6.05145 38.6723 6.22376 38.6723 6.4034C38.6723 6.58303 38.6013 6.75535 38.475 6.88237C38.3486 7.00939 38.1774 7.08072 37.9987 7.08072Z" fill="black"/>
<path d="M34.1657 12.8063H4.50469C4.32603 12.8063 4.15458 12.735 4.02824 12.608C3.90191 12.4809 3.83105 12.3086 3.83105 12.129C3.83105 11.9493 3.90191 11.777 4.02824 11.65C4.15458 11.523 4.32603 11.4517 4.50469 11.4517H34.1657C34.3443 11.4517 34.5156 11.523 34.642 11.65C34.7683 11.777 34.8393 11.9493 34.8393 12.129C34.8393 12.3086 34.7683 12.4809 34.642 12.608C34.5156 12.735 34.3443 12.8063 34.1657 12.8063Z" fill="black"/>
<path d="M8.08925 18.5324C7.96701 18.5325 7.84707 18.4992 7.74224 18.4359C7.6374 18.3727 7.55152 18.282 7.49406 18.1735C7.4366 18.065 7.40961 17.9429 7.41594 17.8201C7.42228 17.6974 7.46176 17.5787 7.53008 17.4768L19.0266 0.298951C19.0759 0.22476 19.1392 0.161033 19.2129 0.111513C19.2867 0.0619929 19.3696 0.0276701 19.4567 0.0103941C19.5437 -0.0068819 19.6333 -0.00672018 19.7203 0.0108902C19.8073 0.0285005 19.8899 0.0631979 19.9635 0.113001C20.0372 0.162805 20.1002 0.226721 20.1492 0.3011C20.1982 0.37548 20.232 0.458836 20.2489 0.546415C20.2658 0.633994 20.2652 0.724106 20.2474 0.81149C20.2296 0.898874 20.1948 0.981823 20.145 1.05565L8.64842 18.2334C8.58665 18.3255 8.50334 18.4008 8.40584 18.453C8.30834 18.5051 8.19968 18.5324 8.08925 18.5324Z" fill="black"/>
<path d="M15.5041 18.5324C15.3819 18.5325 15.2619 18.4992 15.1571 18.4359C15.0523 18.3727 14.9666 18.282 14.9091 18.1735C14.8516 18.065 14.8246 17.9429 14.831 17.8201C14.8373 17.6974 14.8766 17.5787 14.945 17.4768L26.4402 0.298951C26.4894 0.22476 26.5529 0.161033 26.6267 0.111513C26.7005 0.0619929 26.7832 0.0276701 26.8702 0.0103941C26.9573 -0.0068819 27.0469 -0.00672018 27.1339 0.0108902C27.2208 0.0285005 27.3035 0.0631979 27.3771 0.113001C27.4507 0.162805 27.5138 0.226721 27.5628 0.3011C27.6118 0.37548 27.6456 0.458836 27.6624 0.546415C27.6793 0.633994 27.6788 0.724106 27.661 0.81149C27.6431 0.898874 27.6083 0.981823 27.5585 1.05565L16.0633 18.2334C16.0015 18.3255 15.9182 18.4008 15.8207 18.453C15.7232 18.5051 15.6145 18.5324 15.5041 18.5324Z" fill="black"/>
<path d="M22.9193 18.5322C22.7971 18.5323 22.6771 18.4989 22.5723 18.4357C22.4675 18.3725 22.3816 18.2818 22.3241 18.1733C22.2667 18.0648 22.2397 17.9427 22.246 17.8199C22.2524 17.6972 22.2918 17.5785 22.3602 17.4765L33.8554 0.298738C33.9555 0.150351 34.11 0.0478977 34.2851 0.0138196C34.4602 -0.0202585 34.6416 0.0168177 34.7895 0.116923C34.9375 0.217028 35.0398 0.372031 35.0744 0.547939C35.1089 0.723847 35.0727 0.906312 34.9737 1.05543L23.4785 18.2332C23.4167 18.3253 23.3334 18.4006 23.2359 18.4528C23.1384 18.5049 23.0298 18.5322 22.9193 18.5322Z" fill="black"/>
</g>
<defs>
<clipPath id="clip0_650_2266">
<rect width="54" height="36" fill="white"/>
</clipPath>
</defs>
</svg>
