<svg width="47" height="42" viewBox="0 0 47 42" fill="none" xmlns="http://www.w3.org/2000/svg">
<g clip-path="url(#clip0_650_2240)">
<path d="M26.5359 16.0546L21.7482 18.7287L15.3589 15.023L21.7441 11.3195L26.5441 13.9925C26.6566 14.0555 26.7833 14.0885 26.9121 14.0882C27.0802 14.0882 27.2437 14.0323 27.3768 13.929C27.5099 13.8258 27.6051 13.6812 27.6476 13.5177C27.6902 13.3543 27.6776 13.1813 27.6118 13.0259C27.546 12.8704 27.4308 12.7412 27.2841 12.6586L27.28 12.6565L23.28 10.4284L26.5086 8.55583C26.5967 8.50642 26.6741 8.43987 26.7363 8.36008C26.7986 8.28029 26.8445 8.18878 26.8712 8.09102C26.8979 7.99325 26.9049 7.89112 26.8919 7.79058C26.8789 7.69005 26.8462 7.59315 26.7956 7.50548C26.7449 7.4178 26.6772 7.34115 26.5968 7.27997C26.5163 7.21879 26.4245 7.17429 26.3268 7.14912C26.229 7.12394 26.1272 7.11859 26.0273 7.13334C25.9275 7.14809 25.8316 7.18269 25.7452 7.23507L25.7483 7.23301L22.5226 9.10364L22.5956 4.51207V4.50087C22.5956 4.30034 22.5171 4.10792 22.3772 3.96489C22.2373 3.82187 22.0472 3.73972 21.8476 3.73616C21.6487 3.74086 21.4577 3.82057 21.3146 3.95943C21.1715 4.09828 21.0856 4.28611 21.074 4.48563V4.4877L20.9859 9.99266L14.5955 13.6982V6.28913L19.302 3.45616C19.4735 3.35109 19.5966 3.18215 19.6445 2.98624C19.6924 2.79034 19.6612 2.58337 19.5578 2.41047C19.4543 2.23758 19.2871 2.11277 19.0924 2.06334C18.8977 2.01391 18.6913 2.04385 18.5185 2.14661L18.5217 2.14464L14.5955 4.50706V0.763734C14.5946 0.561761 14.5142 0.36838 14.3717 0.225875C14.2292 0.0833706 14.0362 0.00341797 13.8351 0.00341797C13.6341 0.00341797 13.4412 0.0833706 13.2987 0.225875C13.1562 0.36838 13.0758 0.561761 13.075 0.763734V4.50607L9.15805 2.14257C9.04283 2.07303 8.9113 2.03545 8.77689 2.03368C8.64248 2.0319 8.50987 2.06597 8.39287 2.13245C8.27587 2.19893 8.17866 2.29545 8.11093 2.41209C8.04319 2.52872 8.00746 2.66129 8.00743 2.79632C8.00742 2.92743 8.04095 3.0563 8.10486 3.17061C8.16877 3.28492 8.2609 3.38086 8.37235 3.44908L8.37538 3.45106L13.075 6.286V13.6963L6.68656 9.99167L6.59734 4.48366C6.5943 4.28207 6.51213 4.08985 6.36857 3.94894C6.22502 3.80804 6.03179 3.72989 5.83109 3.7315C5.63039 3.73312 5.43847 3.81435 5.29718 3.95755C5.15588 4.10074 5.07663 4.29423 5.0768 4.49585V4.50706L5.15085 9.10068L1.92418 7.23005C1.80637 7.15885 1.6714 7.12144 1.53391 7.12205C1.36594 7.12205 1.20262 7.17793 1.06959 7.28096C0.936573 7.38398 0.841258 7.52836 0.798534 7.69155C0.75581 7.85473 0.768158 8.02754 0.83351 8.18298C0.898861 8.33841 1.01366 8.46771 1.15989 8.55072L1.16381 8.55278L4.39049 10.4245L0.392389 12.6505C0.30407 12.6987 0.226111 12.764 0.163085 12.8427C0.10006 12.9213 0.0531521 13.0117 0.0251457 13.1087C-0.00286069 13.2056 -0.0113494 13.3073 -1.52779e-05 13.4076C0.0113188 13.5079 0.0422453 13.6049 0.091171 13.6931C0.140097 13.7813 0.205996 13.859 0.284964 13.9214C0.363932 13.9839 0.45456 14.0299 0.551385 14.057C0.648211 14.0841 0.749292 14.0917 0.849035 14.0793C0.948777 14.0668 1.04514 14.0345 1.13241 13.9844L1.1283 13.9865L5.9262 11.3144L12.3126 15.019L5.9262 18.7226L1.13045 16.0455C0.95448 15.9467 0.74664 15.922 0.552634 15.9771C0.358629 16.0322 0.194212 16.1625 0.0958106 16.3392C-0.00259031 16.516 -0.0270235 16.7249 0.0278224 16.9198C0.0826683 17.1146 0.21232 17.2796 0.388285 17.3785L0.392389 17.3805L4.39049 19.6147L1.16381 21.4863C1.01879 21.5706 0.905562 21.7005 0.84154 21.856C0.777518 22.0115 0.766351 22.1839 0.809776 22.3465C0.853202 22.509 0.948795 22.6527 1.08173 22.7551C1.21466 22.8575 1.37745 22.9129 1.54498 22.9129C1.67955 22.9126 1.81271 22.8769 1.92917 22.8091L1.92525 22.8111L5.15174 20.9395L5.0718 25.528V25.5402C5.07175 25.7407 5.14981 25.9332 5.2895 26.0763C5.4292 26.2195 5.61924 26.302 5.81878 26.306H5.83198C6.03114 26.3058 6.22232 26.2272 6.36447 26.0871C6.50661 25.947 6.58846 25.7565 6.59234 25.5565L6.68763 20.0484L13.0739 16.3438V23.7509L8.36932 26.59C8.28279 26.6414 8.20732 26.7095 8.14715 26.7903C8.08698 26.8712 8.04321 26.9632 8.01867 27.0611C7.99412 27.159 7.98917 27.2608 8.00404 27.3606C8.0189 27.4605 8.05341 27.5564 8.10539 27.6428C8.15738 27.7292 8.22577 27.8044 8.30686 27.8641C8.38795 27.9237 8.48005 27.9666 8.57774 27.9903C8.67544 28.014 8.77687 28.0179 8.87611 28.002C8.97535 27.9861 9.07042 27.9506 9.15591 27.8975L9.15288 27.8996L13.0728 25.534V29.2783C13.0728 29.4809 13.1529 29.6752 13.2955 29.8184C13.4381 29.9616 13.6315 30.042 13.8332 30.042C14.0348 30.042 14.2283 29.9616 14.3708 29.8184C14.5134 29.6752 14.5935 29.4809 14.5935 29.2783V25.5361L18.5154 27.8955C18.6327 27.9672 18.7675 28.0048 18.9048 28.0044C19.0706 28.0042 19.2328 27.9495 19.3649 27.8487C19.4969 27.7478 19.5924 27.6064 19.637 27.446C19.6815 27.2855 19.6727 27.1148 19.6116 26.9599C19.5506 26.805 19.4408 26.6744 19.299 26.5879L19.296 26.586L14.5934 23.7561V16.3438L20.9777 20.0463L21.0729 25.5595C21.0768 25.7595 21.1587 25.95 21.3008 26.0902C21.443 26.2303 21.6342 26.3088 21.8333 26.3089H21.8474C22.0465 26.305 22.2363 26.2229 22.3758 26.0801C22.5153 25.9373 22.5934 25.7453 22.5935 25.5452V25.532L22.5135 20.9374L25.7433 22.8111C25.8584 22.8782 25.9891 22.9133 26.1223 22.9129C26.2552 22.913 26.3859 22.8783 26.5013 22.812C26.6167 22.7457 26.7129 22.6503 26.7802 22.5351L26.7822 22.5311C26.8824 22.3561 26.9097 22.1482 26.858 21.9531C26.8064 21.7579 26.68 21.5913 26.5065 21.4894L26.5024 21.4873L23.2798 19.6187L27.2708 17.3886C27.3585 17.3398 27.4357 17.274 27.4981 17.1951C27.5605 17.1161 27.6068 17.0256 27.6343 16.9286C27.6617 16.8317 27.6697 16.7303 27.658 16.6302C27.6463 16.5301 27.6148 16.4333 27.5657 16.3454C27.5166 16.2575 27.4509 16.1803 27.3719 16.118C27.293 16.0558 27.2025 16.0098 27.1059 15.9828C27.0092 15.9558 26.9082 15.9482 26.8086 15.9606C26.709 15.9729 26.613 16.0049 26.5257 16.0547L26.5297 16.0526L26.5359 16.0546Z" fill="black"/>
<path d="M46.2692 25.4401C46.2692 25.3482 46.1426 16.9949 46.1177 16.8237C46.0191 16.1444 45.7084 16.1964 45.5135 16.2055C43.7439 16.3857 41.9568 16.2642 40.2275 15.8462C37.0182 14.9168 34.8783 12.4333 33.7804 12.3234V12.313C33.7685 12.313 33.7547 12.3176 33.7424 12.3182C33.7302 12.3176 33.7164 12.313 33.7044 12.313V12.3234C32.6066 12.4333 30.4668 14.9168 27.2575 15.8462C25.5282 16.2642 23.741 16.3857 21.9714 16.2055C21.7765 16.1964 21.4658 16.1445 21.3671 16.8237C21.3423 16.9949 21.2158 25.3482 21.2158 25.4401C21.2158 33.5254 31.0773 41.1196 33.7044 41.2588V41.2653L33.7424 41.2621L33.7803 41.2653L33.7804 41.2588C36.4076 41.1195 46.2692 33.5254 46.2692 25.4401Z" fill="white"/>
<path d="M33.7808 41.9999C33.7426 42 33.7044 41.9971 33.6666 41.9913C30.6244 41.8293 20.4844 33.7979 20.4844 25.4402C20.4844 25.3642 20.6086 16.9621 20.6428 16.7205C20.7685 15.8708 21.2367 15.4456 21.9848 15.4707C23.6814 15.6488 25.3959 15.5373 27.0555 15.1409C28.6223 14.6156 30.0874 13.8234 31.3868 12.7991C32.0014 12.2746 32.7103 11.8732 33.4753 11.6167C33.5614 11.5864 33.6527 11.574 33.7437 11.5801C33.8366 11.5745 33.9298 11.5875 34.0178 11.6181C34.7796 11.8762 35.4859 12.2769 36.0992 12.7991C37.3986 13.8234 38.8637 14.6156 40.4304 15.1409C42.0424 15.5287 43.7076 15.6426 45.357 15.4779C45.5374 15.4499 45.7216 15.4608 45.8975 15.5097C46.0734 15.5586 46.237 15.6445 46.3774 15.7617C46.5177 15.8789 46.6317 16.0248 46.7118 16.1896C46.7918 16.3544 46.8361 16.5344 46.8417 16.7176C46.8759 16.9621 47.0001 25.3642 47.0001 25.4402C47.0001 33.6925 37.1156 41.6278 33.9378 41.9827C33.8863 41.9944 33.8336 42.0001 33.7808 41.9999ZM22.089 16.9464C22.0676 17.4462 21.9491 24.9743 21.9462 25.4439C21.9462 33.2265 31.501 40.4054 33.7423 40.5258C35.985 40.4054 45.5354 33.2287 45.5383 25.4432C45.5354 24.9814 45.4212 17.7645 45.3927 16.9464C43.5941 17.1197 41.7793 16.9864 40.025 16.5521C38.3002 15.9812 36.6859 15.1167 35.2526 13.9965C35.1123 13.7151 34.8968 13.4785 34.6302 13.3131C34.3636 13.1477 34.0563 13.0602 33.743 13.0602C33.4296 13.0602 33.1225 13.1477 32.8559 13.3131C32.5893 13.4785 32.3737 13.7151 32.2333 13.9965C30.8 15.1167 29.1857 15.9812 27.4609 16.5521C25.7049 16.9848 23.889 17.1182 22.089 16.9464Z" fill="black"/>
<path d="M33.6821 32.3945C32.5134 32.3943 31.3709 32.0461 30.3992 31.3937C29.4275 30.7413 28.6702 29.8141 28.2231 28.7294C27.7759 27.6447 27.659 26.4512 27.8871 25.2997C28.1152 24.1482 28.678 23.0905 29.5045 22.2604C30.331 21.4303 31.384 20.865 32.5303 20.636C33.6766 20.407 34.8647 20.5246 35.9445 20.9739C37.0242 21.4232 37.9471 22.1841 38.5964 23.1603C39.2457 24.1365 39.5923 25.2842 39.5923 26.4582C39.5905 28.0322 38.9672 29.5412 37.8592 30.6541C36.7512 31.767 35.249 32.3929 33.6821 32.3945ZM33.6821 21.9904C32.8025 21.9905 31.9427 22.2527 31.2114 22.7437C30.48 23.2347 29.9101 23.9325 29.5736 24.7489C29.2371 25.5653 29.1492 26.4636 29.3209 27.3302C29.4926 28.1968 29.9162 28.9929 30.5383 29.6176C31.1603 30.2424 31.9527 30.6678 32.8154 30.8402C33.6781 31.0125 34.5724 30.924 35.385 30.5858C36.1977 30.2476 36.8923 29.6749 37.381 28.9402C37.8696 28.2055 38.1305 27.3418 38.1305 26.4581C38.1293 25.2734 37.6602 24.1376 36.8262 23.3C35.9922 22.4624 34.8615 21.9913 33.6821 21.9904Z" fill="black"/>
<path d="M33.1395 29.1899C33.0431 29.19 32.9477 29.1709 32.8588 29.1337C32.7698 29.0965 32.6891 29.0421 32.6213 28.9734L30.7968 27.1277C30.7276 27.0597 30.6727 26.9785 30.635 26.889C30.5973 26.7994 30.5775 26.7032 30.5772 26.6059C30.5768 26.5087 30.5957 26.4123 30.6327 26.3224C30.6696 26.2326 30.7241 26.151 30.7927 26.0824C30.8614 26.0138 30.9429 25.9596 31.0326 25.923C31.1222 25.8863 31.2182 25.8679 31.315 25.8688C31.4118 25.8697 31.5075 25.89 31.5964 25.9283C31.6854 25.9667 31.7659 26.0225 31.8332 26.0924L33.0752 27.3494L35.475 24.2863C35.5342 24.2101 35.6077 24.1464 35.6914 24.0988C35.7752 24.0513 35.8676 24.0208 35.963 24.0092C36.0585 23.9976 36.1552 24.0051 36.2478 24.0312C36.3404 24.0572 36.4271 24.1014 36.5027 24.1611C36.5782 24.2209 36.6413 24.2951 36.6882 24.3794C36.7352 24.4637 36.7652 24.5565 36.7764 24.6525C36.7876 24.7484 36.7797 24.8457 36.7534 24.9387C36.727 25.0316 36.6826 25.1184 36.6228 25.194L33.7134 28.9096C33.6497 28.9914 33.5694 29.0585 33.4778 29.1066C33.3862 29.1547 33.2855 29.1827 33.1823 29.1886L33.1395 29.1899Z" fill="black"/>
</g>
<defs>
<clipPath id="clip0_650_2240">
<rect width="47" height="42" fill="white"/>
</clipPath>
</defs>
</svg>
