<svg width="50" height="46" viewBox="0 0 50 46" fill="none" xmlns="http://www.w3.org/2000/svg">
<g clip-path="url(#clip0_650_2205)">
<path d="M43.316 39.8329C46.6526 39.8329 49.3575 37.1336 49.3575 33.8039C49.3575 30.4742 46.6526 27.7749 43.316 27.7749C39.9793 27.7749 37.2744 30.4742 37.2744 33.8039C37.2744 37.1336 39.9793 39.8329 43.316 39.8329Z" fill="white"/>
<path d="M43.316 40.475C41.9939 40.4751 40.7013 40.0839 39.602 39.351C38.5027 38.618 37.6459 37.5762 37.1399 36.3573C36.6339 35.1384 36.5013 33.7971 36.7592 32.5031C37.0171 31.209 37.6537 30.0204 38.5886 29.0874C39.5234 28.1544 40.7145 27.519 42.0112 27.2615C43.3079 27.0041 44.652 27.1361 45.8735 27.641C47.095 28.1458 48.139 29.0008 48.8736 30.0978C49.6082 31.1947 50.0003 32.4845 50.0004 33.8038C49.9986 35.5725 49.2937 37.2682 48.0406 38.5189C46.7874 39.7696 45.0883 40.4731 43.316 40.475ZM43.316 28.4168C42.2482 28.4168 41.2044 28.7327 40.3165 29.3246C39.4287 29.9166 38.7368 30.7579 38.3281 31.7424C37.9195 32.7268 37.8124 33.81 38.0207 34.8551C38.229 35.9002 38.7432 36.8602 39.4982 37.6136C40.2533 38.3671 41.2153 38.8802 42.2625 39.0881C43.3098 39.2959 44.3953 39.1892 45.3818 38.7814C46.3683 38.3736 47.2114 37.6831 47.8046 36.7971C48.3978 35.9111 48.7143 34.8694 48.7143 33.8039C48.7127 32.3756 48.1434 31.0063 47.1314 29.9964C46.1194 28.9864 44.7472 28.4184 43.316 28.4168Z" fill="black"/>
<path d="M3.62361 15.4375C5.26999 15.4375 6.60464 14.1056 6.60464 12.4626C6.60464 10.8197 5.26999 9.48779 3.62361 9.48779C1.97723 9.48779 0.642578 10.8197 0.642578 12.4626C0.642578 14.1056 1.97723 15.4375 3.62361 15.4375Z" fill="white"/>
<path d="M3.62356 16.079C2.90679 16.0789 2.20611 15.8667 1.6102 15.4692C1.01429 15.0717 0.549907 14.5068 0.275698 13.8459C0.00148954 13.1851 -0.070196 12.4579 0.0697149 11.7564C0.209626 11.0549 0.554763 10.4105 1.06164 9.90478C1.56851 9.39905 2.21437 9.05465 2.91737 8.91515C3.62038 8.77565 4.34908 8.84731 5.01128 9.12106C5.67347 9.39482 6.23944 9.8584 6.63764 10.4531C7.03584 11.0479 7.24837 11.7471 7.24837 12.4624C7.24739 13.4214 6.86507 14.3408 6.18548 15.0189C5.50589 15.6969 4.58456 16.0782 3.62356 16.079ZM3.62356 10.1292C3.16117 10.1293 2.70911 10.2663 2.3247 10.5227C1.9403 10.7792 1.64074 11.1436 1.46387 11.5699C1.28701 11.9963 1.24077 12.4654 1.33105 12.9179C1.42134 13.3705 1.64413 13.7862 1.97114 14.1124C2.29814 14.4386 2.71474 14.6608 3.16826 14.7508C3.62178 14.8408 4.0919 14.7945 4.51909 14.6179C4.94627 14.4413 5.31128 14.1422 5.56816 13.7585C5.82504 13.3748 5.96223 12.9238 5.96223 12.4624C5.96159 11.8437 5.71492 11.2505 5.27645 10.813C4.83799 10.3756 4.24356 10.1297 3.62356 10.1292Z" fill="black"/>
<path d="M22.5801 35.2908C30.0926 35.2908 36.1827 29.2134 36.1827 21.7164C36.1827 14.2195 30.0926 8.14209 22.5801 8.14209C15.0676 8.14209 8.97754 14.2195 8.97754 21.7164C8.97754 29.2134 15.0676 35.2908 22.5801 35.2908Z" fill="white"/>
<path d="M22.5716 35.9404C18.9974 35.9457 15.551 34.6141 12.9123 32.2083C10.2737 29.8025 8.63442 26.4971 8.31789 22.9444C8.00137 19.3917 9.0305 15.8496 11.2024 13.0169C13.3744 10.1843 16.5314 8.26678 20.0505 7.64279C23.5695 7.0188 27.1951 7.73364 30.212 9.64621C33.2288 11.5588 35.4179 14.5302 36.3472 17.9743C37.2765 21.4184 36.8785 25.0849 35.2319 28.2506C33.5853 31.4163 30.8096 33.8512 27.4524 35.0749C25.8889 35.647 24.2368 35.94 22.5716 35.9404ZM22.5666 8.78322C19.8108 8.78599 17.1276 9.66526 14.9067 11.2934C12.6858 12.9215 11.0425 15.2137 10.2159 17.8371C9.38918 20.4605 9.42195 23.2786 10.3094 25.8821C11.1969 28.4857 12.8929 30.7391 15.1511 32.3154C17.4094 33.8916 20.1123 34.7084 22.8674 34.6474C25.6225 34.5863 28.2864 33.6505 30.4723 31.9758C32.6581 30.3011 34.2521 27.9747 35.0229 25.3344C35.7937 22.6941 35.7011 19.8773 34.7585 17.2931C33.8559 14.7918 32.1991 12.6307 30.016 11.107C27.8329 9.58318 25.2306 8.7714 22.5666 8.78322Z" fill="black"/>
<path d="M13.0067 19.978C12.9541 19.9781 12.9018 19.9715 12.8509 19.9586C12.7689 19.9382 12.6918 19.9019 12.6239 19.8517C12.556 19.8015 12.4986 19.7385 12.4551 19.6662C12.4116 19.594 12.3828 19.5138 12.3703 19.4304C12.3579 19.3471 12.362 19.262 12.3824 19.1802C12.7986 17.5141 13.6184 15.9756 14.7699 14.6997C15.9214 13.4238 17.3694 12.4497 18.9865 11.863C19.0658 11.8339 19.1502 11.8208 19.2347 11.8243C19.3192 11.8278 19.4021 11.8479 19.4788 11.8835C19.5555 11.9191 19.6243 11.9694 19.6815 12.0316C19.7387 12.0938 19.783 12.1666 19.812 12.2459C19.8409 12.3252 19.8537 12.4095 19.85 12.4938C19.8462 12.5781 19.8258 12.6608 19.79 12.7372C19.7541 12.8137 19.7036 12.8823 19.6411 12.9391C19.5787 12.996 19.5056 13.0401 19.4261 13.0687C18.0067 13.5838 16.7359 14.439 15.7254 15.5591C14.7149 16.6792 13.9957 18.0298 13.6309 19.4923C13.5958 19.6311 13.5154 19.7541 13.4023 19.8421C13.2892 19.9301 13.15 19.9779 13.0067 19.978Z" fill="black"/>
<path d="M5.55537 30.9258C3.22298 30.9258 1.85773 30.4094 1.48217 29.3798C0.865483 27.687 3.15014 25.3676 8.27335 22.4861C8.34693 22.4445 8.42804 22.4178 8.51199 22.4075C8.59594 22.3972 8.68107 22.4035 8.76256 22.4261C8.84405 22.4487 8.92018 22.4872 8.98676 22.5392C9.05333 22.5913 9.10903 22.656 9.15051 22.7295C9.19199 22.8031 9.21849 22.8841 9.22854 22.9679C9.23859 23.0517 9.23198 23.1367 9.20907 23.2179C9.18615 23.2992 9.14747 23.3751 9.09509 23.4414C9.04271 23.5077 8.9777 23.563 8.90386 23.6041C3.54954 26.6166 2.49828 28.4128 2.69044 28.9411C2.84864 29.3791 4.39734 30.0234 9.08975 29.3441C14.1469 28.4961 19.1097 27.16 23.908 25.3545C36.0485 20.9445 43.0105 15.9761 42.4704 14.4927C42.2343 13.8496 39.7336 13.3164 33.794 14.482C33.6266 14.5149 33.4529 14.4801 33.3112 14.3853C33.1695 14.2904 33.0715 14.1433 33.0385 13.9763C33.0055 13.8092 33.0403 13.636 33.1353 13.4946C33.2304 13.3532 33.3779 13.2553 33.5453 13.2224C39.6343 12.0279 43.0431 12.308 43.6787 14.054C44.9748 17.6073 32.8281 23.4801 24.3476 26.5603C19.4672 28.396 14.4195 29.7535 9.27564 30.6138C8.0445 30.8054 6.80129 30.9097 5.55537 30.9258Z" fill="black"/>
<path d="M30.9867 37.2998L32.1571 40.1594L35.0239 41.3286L32.1571 42.4979L30.9867 45.3574L29.8151 42.4979L26.9482 41.3286L29.8151 40.1594L30.9867 37.2998Z" fill="white"/>
<path d="M30.9868 45.9998C30.8591 45.9998 30.7344 45.9619 30.6283 45.891C30.5223 45.82 30.4398 45.7191 30.3914 45.6012L29.3213 42.9898L26.7051 41.9232C26.5869 41.8748 26.4859 41.7925 26.4148 41.6867C26.3437 41.5809 26.3057 41.4565 26.3057 41.3291C26.3057 41.2017 26.3437 41.0771 26.4148 40.9713C26.4859 40.8655 26.5869 40.7833 26.7051 40.735L29.3213 39.6683L30.3914 37.0569C30.4398 36.9389 30.5222 36.838 30.6282 36.7669C30.7342 36.6958 30.859 36.6578 30.9868 36.6577C31.1145 36.6578 31.2392 36.6958 31.3452 36.7669C31.4512 36.838 31.5337 36.9389 31.5821 37.0569L32.651 39.6683L35.2685 40.735C35.3866 40.7833 35.4876 40.8655 35.5588 40.9713C35.6299 41.0771 35.6679 41.2017 35.6679 41.3291C35.6679 41.4565 35.6299 41.5809 35.5588 41.6867C35.4876 41.7925 35.3866 41.8748 35.2685 41.9232L32.651 42.9898L31.5821 45.6006C31.5338 45.7186 31.4514 45.8195 31.3454 45.8906C31.2393 45.9617 31.1145 45.9997 30.9868 45.9998ZM28.6494 41.3291L30.0586 41.9037C30.1376 41.936 30.2094 41.9837 30.2697 42.044C30.3301 42.1042 30.3779 42.1758 30.4103 42.2547L30.9868 43.6616L31.562 42.2553C31.5943 42.1763 31.642 42.1046 31.7024 42.0442C31.7628 41.9838 31.8346 41.9361 31.9137 41.9037L33.3242 41.3291L31.9137 40.7544C31.8346 40.722 31.7628 40.6743 31.7024 40.6139C31.642 40.5536 31.5943 40.4818 31.562 40.4028L30.9868 38.9965L30.4103 40.4028C30.378 40.4818 30.3303 40.5536 30.2699 40.6139C30.2095 40.6743 30.1377 40.722 30.0586 40.7544L28.6494 41.3291Z" fill="black"/>
<path d="M35.4063 0.641602L36.578 3.50246L39.4435 4.6717L36.578 5.83966L35.4063 8.70051L34.2347 5.83966L31.3691 4.6717L34.2347 3.50246L35.4063 0.641602Z" fill="white"/>
<path d="M35.4067 9.3421C35.279 9.34212 35.1541 9.30423 35.0481 9.23325C34.9421 9.16227 34.8597 9.06141 34.8113 8.94352L33.7412 6.33208L31.125 5.26545C31.0069 5.21713 30.9058 5.13486 30.8347 5.02907C30.7636 4.92327 30.7256 4.79874 30.7256 4.67134C30.7256 4.54394 30.7636 4.41941 30.8347 4.31362C30.9058 4.20782 31.0069 4.12555 31.125 4.07724L33.7412 3.0106L34.8113 0.399165C34.8597 0.281205 34.9421 0.18028 35.0481 0.109202C35.1541 0.0381234 35.279 9.9032e-05 35.4067 0C35.5344 9.73244e-05 35.6591 0.0381231 35.7651 0.109202C35.8711 0.18028 35.9537 0.281204 36.002 0.399165L37.0709 3.0106L39.6871 4.07724C39.8053 4.12555 39.9063 4.20782 39.9774 4.31362C40.0485 4.41941 40.0865 4.54394 40.0865 4.67134C40.0865 4.79874 40.0485 4.92327 39.9774 5.02907C39.9063 5.13486 39.8053 5.21713 39.6871 5.26545L37.0709 6.33208L36.002 8.94289C35.9537 9.06086 35.8711 9.16181 35.7651 9.23289C35.6591 9.30398 35.5344 9.34199 35.4067 9.3421ZM33.0693 4.67134L34.4785 5.24602C34.5575 5.27833 34.6293 5.32599 34.6897 5.38624C34.75 5.44649 34.7978 5.51812 34.8302 5.59697L35.4067 7.0039L35.9819 5.5976C36.0142 5.51861 36.0619 5.44685 36.1223 5.38648C36.1827 5.32611 36.2545 5.27836 36.3336 5.24602L37.7428 4.67134L36.3336 4.09666C36.2545 4.06432 36.1827 4.01657 36.1223 3.9562C36.0619 3.89584 36.0142 3.82407 35.9819 3.74509L35.4067 2.33878L34.8302 3.74509C34.7979 3.82407 34.7502 3.89584 34.6898 3.9562C34.6294 4.01657 34.5576 4.06433 34.4785 4.09666L33.0693 4.67134Z" fill="black"/>
<path d="M10.9492 35.0142L11.9562 37.4707L14.4179 38.4757L11.9562 39.4794L10.9492 41.9372L9.94343 39.4794L7.48047 38.4757L9.94343 37.4707L10.9492 35.0142Z" fill="white"/>
<path d="M10.95 42.5783C10.8223 42.5782 10.6975 42.5402 10.5914 42.4691C10.4854 42.398 10.403 42.2971 10.3547 42.1791L9.45036 39.9713L7.2373 39.0695C7.11917 39.0211 7.01813 38.9389 6.94701 38.8331C6.87588 38.7273 6.83789 38.6027 6.83789 38.4753C6.83789 38.348 6.87588 38.2235 6.94701 38.1177C7.01813 38.0119 7.11917 37.9296 7.2373 37.8812L9.45036 36.9794L10.3547 34.7716C10.4111 34.6625 10.4965 34.5711 10.6015 34.5073C10.7065 34.4434 10.8271 34.4097 10.95 34.4097C11.073 34.4097 11.1936 34.4434 11.2986 34.5073C11.4036 34.5711 11.489 34.6625 11.5454 34.7716L12.4497 36.9794L14.6628 37.8812C14.7809 37.9296 14.8819 38.0119 14.953 38.1177C15.0242 38.2235 15.0622 38.348 15.0622 38.4753C15.0622 38.6027 15.0242 38.7273 14.953 38.8331C14.8819 38.9389 14.7809 39.0211 14.6628 39.0695L12.4497 39.9713L11.5454 42.1791C11.497 42.2971 11.4145 42.398 11.3085 42.4691C11.2024 42.5402 11.0777 42.5782 10.95 42.5783ZM9.18158 38.4753L10.1876 38.8852C10.2667 38.9175 10.3386 38.9653 10.399 39.0256C10.4593 39.086 10.5071 39.1578 10.5393 39.2367L10.95 40.2401L11.3607 39.2367C11.393 39.1578 11.4407 39.086 11.5011 39.0256C11.5615 38.9653 11.6333 38.9175 11.7124 38.8852L12.7185 38.4753L11.7124 38.0655C11.6333 38.0331 11.5615 37.9854 11.5011 37.925C11.4407 37.8646 11.393 37.7929 11.3607 37.7139L10.95 36.7105L10.5393 37.7139C10.5071 37.7929 10.4593 37.8646 10.399 37.925C10.3386 37.9854 10.2667 38.0331 10.1876 38.0655L9.18158 38.4753Z" fill="black"/>
</g>
<defs>
<clipPath id="clip0_650_2205">
<rect width="50" height="46" fill="white"/>
</clipPath>
</defs>
</svg>
