<svg width="36" height="38" viewBox="0 0 36 38" fill="none" xmlns="http://www.w3.org/2000/svg">
<g clip-path="url(#clip0_650_2249)">
<path d="M9.37957 11.2317H5.68468C5.58514 11.2317 5.48652 11.2124 5.39454 11.1748C5.30256 11.1372 5.21901 11.082 5.14862 11.0125C5.07823 10.9429 5.02238 10.8604 4.98431 10.7695C4.94624 10.6786 4.9267 10.5812 4.92676 10.4828V0.748826C4.9267 0.650473 4.94624 0.553043 4.98431 0.462166C5.02238 0.37129 5.07823 0.288746 5.14862 0.2192C5.21901 0.149654 5.30256 0.0944693 5.39454 0.0568568C5.48652 0.0192443 5.58514 -5.50061e-05 5.68468 1.17753e-07H9.37957C10.8871 3.68849e-07 12.3329 0.591648 13.3988 1.64482C14.4648 2.69799 15.0636 4.12642 15.0636 5.61583C15.0636 7.10524 14.4648 8.53366 13.3988 9.58684C12.3329 10.64 10.8871 11.2317 9.37957 11.2317ZM6.44261 9.73401H9.37957C10.4851 9.73401 11.5452 9.30017 12.3269 8.52786C13.1086 7.75555 13.5478 6.70804 13.5478 5.61583C13.5478 4.52362 13.1086 3.47611 12.3269 2.7038C11.5452 1.93149 10.4851 1.49765 9.37957 1.49765H6.44261V9.73401Z" fill="black"/>
<path d="M5.68444 3.93125H0.757926C0.556912 3.93125 0.364002 3.85239 0.221864 3.71195C0.0797249 3.57152 0 3.38102 0 3.18242C0 2.98382 0.0797249 2.79332 0.221864 2.65288C0.364002 2.51245 0.556912 2.43359 0.757926 2.43359H5.68444C5.88546 2.43359 6.07818 2.51245 6.22032 2.65288C6.36246 2.79332 6.44237 2.98382 6.44237 3.18242C6.44237 3.38102 6.36246 3.57152 6.22032 3.71195C6.07818 3.85239 5.88546 3.93125 5.68444 3.93125Z" fill="black"/>
<path d="M5.68444 8.79795H0.757926C0.556912 8.79795 0.364002 8.71909 0.221864 8.57865C0.0797249 8.43822 0 8.24772 0 8.04912C0 7.85052 0.0797249 7.66002 0.221864 7.51958C0.364002 7.37915 0.556912 7.30029 0.757926 7.30029H5.68444C5.88546 7.30029 6.07818 7.37915 6.22032 7.51958C6.36246 7.66002 6.44237 7.85052 6.44237 8.04912C6.44237 8.24772 6.36246 8.43822 6.22032 8.57865C6.07818 8.71909 5.88546 8.79795 5.68444 8.79795Z" fill="black"/>
<path d="M26.249 33.1327H9.3792C7.54515 33.1327 5.78619 32.4129 4.48932 31.1316C3.19245 29.8503 2.46387 28.1124 2.46387 26.3004C2.46387 24.4884 3.19245 22.7505 4.48932 21.4692C5.78619 20.1879 7.54515 19.4681 9.3792 19.4681H27.8522C28.7231 19.4682 29.5855 19.2988 30.3902 18.9695C31.1948 18.6403 31.926 18.1577 32.5418 17.5492C33.1577 16.9408 33.6462 16.2184 33.9794 15.4234C34.3127 14.6284 34.4841 13.7763 34.484 12.9159C34.479 11.1793 33.7812 9.51467 32.5418 8.28323C31.9272 7.67313 31.1962 7.18943 30.3913 6.86007C29.5863 6.53071 28.7234 6.36222 27.8522 6.36436H14.3057C14.1047 6.36436 13.9118 6.2855 13.7697 6.14507C13.6275 6.00464 13.5478 5.81413 13.5478 5.61553C13.5478 5.41693 13.6275 5.22652 13.7697 5.08609C13.9118 4.94566 14.1047 4.86671 14.3057 4.86671H27.8522C28.923 4.86526 29.9837 5.07244 30.9734 5.47632C31.9632 5.8802 32.8627 6.47289 33.6204 7.2205C34.3782 7.96811 34.9793 8.85602 35.3894 9.83335C35.7996 10.8107 36.0106 11.8582 36.0106 12.9162C36.0106 13.9742 35.7996 15.0219 35.3894 15.9992C34.9793 16.9765 34.3782 17.8644 33.6204 18.612C32.8627 19.3596 31.9632 19.9523 30.9734 20.3562C29.9837 20.7601 28.923 20.9672 27.8522 20.9657H9.3792C7.94717 20.9657 6.57367 21.5278 5.56108 22.5283C4.54848 23.5287 3.97972 24.8856 3.97972 26.3004C3.97972 27.7152 4.54848 29.0721 5.56108 30.0726C6.57367 31.073 7.94717 31.635 9.3792 31.635H26.249C26.45 31.635 26.6427 31.7139 26.7849 31.8543C26.927 31.9948 27.0069 32.1853 27.0069 32.3839C27.0069 32.5825 26.927 32.773 26.7849 32.9134C26.6427 33.0538 26.45 33.1327 26.249 33.1327Z" fill="black"/>
<path d="M25.8542 38H21.4473C20.6211 37.9986 19.8051 37.8207 19.055 37.4786C18.3042 37.1357 17.6387 36.6342 17.1055 36.0094C16.5733 35.385 16.184 34.6543 15.9641 33.8675C15.7452 33.0799 15.7033 32.2545 15.8413 31.4492C16.1098 30.1053 16.8494 28.8981 17.93 28.04C19.0103 27.1967 20.3519 26.7475 21.7285 26.7683H25.8542C27.9493 26.7663 29.9979 27.3792 31.7399 28.5292L35.1092 30.7486C35.3818 30.9281 35.6052 31.1713 35.7598 31.4566C35.9144 31.7419 35.9953 32.0605 35.9953 32.3841C35.9953 32.7077 35.9144 33.0264 35.7598 33.3117C35.6052 33.597 35.3818 33.8401 35.1092 34.0196L31.7399 36.239C29.9979 37.389 27.9493 38.002 25.8542 38ZM21.6145 28.2653C20.606 28.2611 19.6274 28.6035 18.8461 29.2337C18.0649 29.8639 17.5296 30.7427 17.332 31.7198C17.2349 32.3035 17.2672 32.9011 17.4267 33.4712C17.5873 34.0486 17.8727 34.5847 18.2631 35.0427C18.6542 35.5009 19.1424 35.8686 19.6931 36.1199C20.243 36.3711 20.8414 36.5016 21.4473 36.5024H25.8542C27.65 36.5041 29.4059 35.9788 30.8991 34.993L34.2683 32.7736C34.3326 32.7319 34.3851 32.6748 34.4208 32.6076C34.4776 32.5051 34.4935 32.3853 34.4652 32.2718C34.437 32.1584 34.3668 32.0595 34.2683 31.9948L30.8991 29.7754C29.4059 28.7896 27.65 28.2643 25.8542 28.266H21.7122C21.6797 28.2653 21.6471 28.2653 21.6145 28.2653Z" fill="black"/>
</g>
<defs>
<clipPath id="clip0_650_2249">
<rect width="36" height="38" fill="white"/>
</clipPath>
</defs>
</svg>
