<svg width="33" height="43" viewBox="0 0 33 43" fill="none" xmlns="http://www.w3.org/2000/svg">
<g clip-path="url(#clip0_650_2256)">
<path d="M27.3591 42.2724H5.07289L2.5 8.92822H29.9306L27.3591 42.2724Z" fill="white"/>
<path d="M27.3598 43.0001H5.07231C4.88886 43.0003 4.71211 42.9311 4.57754 42.8065C4.44298 42.6818 4.36047 42.5108 4.3467 42.3279L1.77578 8.98485C1.76773 8.88475 1.78048 8.78409 1.81331 8.68918C1.84613 8.59427 1.89843 8.50718 1.96661 8.43344C2.03479 8.35971 2.11749 8.3009 2.20954 8.26075C2.30159 8.22061 2.40096 8.2 2.50139 8.2002H29.9307C30.0312 8.2 30.1305 8.22061 30.2226 8.26075C30.3146 8.3009 30.3973 8.35971 30.4655 8.43344C30.5337 8.50718 30.5858 8.59427 30.6186 8.68918C30.6515 8.78409 30.6642 8.88475 30.6562 8.98485L28.0852 42.3279C28.0715 42.5108 27.9891 42.6818 27.8546 42.8065C27.72 42.9311 27.5432 43.0003 27.3598 43.0001ZM5.7467 41.5432H26.6854L29.1439 9.6571H3.28817L5.7467 41.5432Z" fill="black"/>
<path d="M19.2148 33.0035C19.1208 33.0039 19.0277 32.9856 18.9409 32.9495C18.8541 32.9135 18.7753 32.8605 18.7092 32.7937L16.8301 30.9104L16.7244 30.7889L16.6522 30.5806L16.6369 30.384L16.6704 30.2034L16.7732 29.9431L18.7065 28.0513C18.7728 27.9848 18.8515 27.932 18.9382 27.8962C19.025 27.8603 19.118 27.842 19.2119 27.8424C19.3062 27.8421 19.3996 27.8605 19.4867 27.8964C19.5738 27.9324 19.6529 27.9853 19.7195 28.052C19.7861 28.1186 19.8389 28.1978 19.8748 28.2849C19.9107 28.3721 19.929 28.4655 19.9287 28.5597C19.9292 28.6539 19.9108 28.7472 19.8748 28.8343C19.8388 28.9213 19.7859 29.0003 19.719 29.0666L19.0814 29.707H22.8551L20.6272 25.85C20.5321 25.6851 20.5064 25.4892 20.5557 25.3054C20.605 25.1216 20.7253 24.9649 20.8901 24.8698C21.0549 24.7747 21.2508 24.7489 21.4347 24.7982C21.6185 24.8475 21.7752 24.9678 21.8704 25.1326L24.7189 30.066C24.7817 30.1752 24.8147 30.2988 24.8146 30.4248C24.8144 30.5507 24.7812 30.6744 24.7182 30.7834C24.6551 30.8924 24.5646 30.9828 24.4555 31.0457C24.3464 31.1086 24.2227 31.1418 24.0968 31.1417L19.0828 31.141L19.7204 31.7791C19.8214 31.879 19.8902 32.0067 19.9183 32.1459C19.9465 32.2852 19.9325 32.4296 19.8783 32.5609C19.8241 32.6922 19.7321 32.8044 19.6139 32.8832C19.4957 32.962 19.3568 33.0039 19.2148 33.0035ZM8.33408 31.141C8.2082 31.141 8.08455 31.1079 7.97554 31.0449C7.86654 30.982 7.77615 30.8914 7.71322 30.7824C7.6503 30.6734 7.61716 30.5497 7.61719 30.4239C7.61721 30.298 7.65026 30.1743 7.71322 30.0653L10.2203 25.7236L9.34797 25.9577C9.28724 25.9738 9.22479 25.9822 9.16195 25.9826C8.98794 25.9827 8.81976 25.9196 8.68888 25.8049C8.558 25.6902 8.47334 25.5319 8.45057 25.3594C8.42779 25.1869 8.46847 25.012 8.5651 24.8673C8.66173 24.7226 8.80768 24.618 8.97574 24.573L11.5426 23.8875L11.6884 23.8674L11.873 23.8875L12.0592 23.9583L12.0315 24.1187L12.1953 24.0597L12.3064 24.2479L12.3898 24.3708L13.0841 26.9396C13.1086 27.0306 13.115 27.1256 13.1028 27.219C13.0906 27.3125 13.06 27.4026 13.013 27.4843C12.966 27.5659 12.9033 27.6376 12.8286 27.695C12.7539 27.7525 12.6686 27.7947 12.5776 27.8192C12.4866 27.8436 12.3917 27.8499 12.2982 27.8377C12.2048 27.8255 12.1146 27.7951 12.0329 27.748C11.9512 27.701 11.8796 27.6383 11.8221 27.5636C11.7647 27.4889 11.7225 27.4036 11.698 27.3126L11.4633 26.4369L9.57579 29.7071H14.0301C14.2197 29.7079 14.4012 29.7838 14.535 29.9182C14.6688 30.0525 14.7438 30.2344 14.7438 30.424C14.7438 30.6137 14.6688 30.7956 14.535 30.9299C14.4012 31.0643 14.2197 31.1403 14.0301 31.1411L8.33408 31.141ZM19.4302 23.3139L16.8607 22.6291C16.7693 22.6051 16.6836 22.5633 16.6085 22.506C16.5334 22.4486 16.4704 22.377 16.4232 22.2951C16.3601 22.1861 16.3269 22.0624 16.3268 21.9364C16.3267 21.8105 16.3597 21.6867 16.4226 21.5776C16.4856 21.4685 16.5761 21.3778 16.6851 21.3148C16.7942 21.2518 16.9181 21.2187 17.044 21.2187C17.1069 21.2187 17.1694 21.2271 17.23 21.2437L18.1036 21.477L16.2162 18.2083L13.9911 22.0638C13.9279 22.1729 13.8371 22.2634 13.7279 22.3264C13.6187 22.3894 13.4949 22.4227 13.3689 22.4229C13.2112 22.4225 13.0582 22.3703 12.933 22.2745C12.8078 22.1787 12.7174 22.0444 12.6758 21.8923C12.6273 21.7084 12.6532 21.5127 12.748 21.3478L15.5953 16.4158C15.6581 16.3065 15.7487 16.2157 15.8578 16.1525C15.9669 16.0894 16.0908 16.0562 16.2169 16.0562C16.343 16.0562 16.4668 16.0894 16.5759 16.1525C16.6851 16.2157 16.7756 16.3065 16.8384 16.4158L19.3453 20.7569L19.5772 19.8847C19.6183 19.7325 19.7084 19.598 19.8333 19.5019C19.9583 19.4058 20.1114 19.3533 20.2691 19.3527C20.3951 19.3531 20.5186 19.3864 20.6278 19.4494C20.7369 19.5124 20.8277 19.6029 20.8912 19.7118C20.9858 19.8764 21.0117 20.0718 20.9634 20.2555L20.2411 22.9486L19.987 23.227L19.7579 23.3118L19.5925 23.3347L19.4302 23.3139Z" fill="black"/>
<path d="M31.7031 4.49902H0.729492V8.92852H31.7031V4.49902Z" fill="white"/>
<path d="M31.7033 9.65717H0.728452C0.632775 9.65722 0.537996 9.63845 0.449591 9.60186C0.361187 9.56527 0.28089 9.51158 0.213236 9.44393C0.145582 9.37628 0.0918983 9.29598 0.0553098 9.20758C0.0187214 9.11917 -5.54183e-05 9.02439 1.22857e-07 8.92871V4.49896C-5.54183e-05 4.40328 0.0187214 4.3085 0.0553098 4.2201C0.0918983 4.13169 0.145582 4.0514 0.213236 3.98374C0.28089 3.91609 0.361187 3.86241 0.449591 3.82582C0.537996 3.78923 0.632775 3.77045 0.728452 3.77051H31.7033C31.799 3.77045 31.8938 3.78923 31.9822 3.82582C32.0706 3.86241 32.1509 3.91609 32.2185 3.98374C32.2862 4.0514 32.3399 4.13169 32.3764 4.2201C32.413 4.3085 32.4318 4.40328 32.4318 4.49896V8.92871C32.4318 9.02439 32.413 9.11917 32.3764 9.20758C32.3399 9.29598 32.2862 9.37628 32.2185 9.44393C32.1509 9.51158 32.0706 9.56527 31.9822 9.60186C31.8938 9.63845 31.799 9.65722 31.7033 9.65717ZM1.4569 8.20026H30.9749V5.22741H1.4569V8.20026Z" fill="black"/>
<path d="M21.1767 5.22724C21.081 5.22729 20.9862 5.20852 20.8978 5.17193C20.8094 5.13534 20.7291 5.08166 20.6615 5.014C20.5938 4.94635 20.5401 4.86605 20.5035 4.77765C20.467 4.68924 20.4482 4.59446 20.4482 4.49879V2.38813C20.4482 1.8923 19.7681 1.45693 18.9942 1.45693H13.4383C12.6643 1.45693 11.9842 1.8923 11.9842 2.38813V4.49879C11.9842 4.69198 11.9076 4.8773 11.771 5.01391C11.6344 5.15053 11.449 5.22724 11.2558 5.22724C11.0626 5.22724 10.8774 5.15053 10.7408 5.01391C10.6041 4.8773 10.5273 4.69198 10.5273 4.49879V2.38813C10.6041 1.68857 10.9518 1.04689 11.4959 0.60052C12.04 0.154154 12.7372 -0.061397 13.4383 2.74703e-05H18.9942C19.6952 -0.0614008 20.3925 0.154153 20.9366 0.60052C21.4807 1.04689 21.8284 1.68857 21.9051 2.38813V4.49879C21.9052 4.59446 21.8862 4.68924 21.8496 4.77765C21.8131 4.86605 21.7594 4.94635 21.6917 5.014C21.6241 5.08166 21.5438 5.13534 21.4554 5.17193C21.367 5.20852 21.2724 5.22729 21.1767 5.22724Z" fill="black"/>
</g>
<defs>
<clipPath id="clip0_650_2256">
<rect width="32.4318" height="43" fill="white"/>
</clipPath>
</defs>
</svg>
